<?xml version="1.0" encoding="utf-8"?>
<!-- Generator: Adobe Illustrator 26.4.1, SVG Export Plug-In . SVG Version: 6.00 Build 0)  -->
<svg version="1.1" id="Layer_1" xmlns="http://www.w3.org/2000/svg" xmlns:xlink="http://www.w3.org/1999/xlink" x="0px" y="0px"
	 viewBox="0 0 820 325.7" style="enable-background:new 0 0 820 325.7;" xml:space="preserve">
<style type="text/css">
	.st0{fill:#D2E1F1;}
	.st1{fill:#5573C6;}
	.st2{fill:#12263F;}
	.st3{fill:#FFFFFF;}
	.st4{fill:url(#Elipse_6270_00000093899427390813818690000000368149404764107926_);}
	.st5{fill:url(#Elipse_6270-2_00000067940088274242076570000010369076445408817033_);}
	.st6{fill:url(#Elipse_6270-3_00000039122905082933858650000007578760042938140596_);}
	.st7{fill:url(#Elipse_6270-4_00000077285324047743632700000007296333156515737509_);}
	.st8{fill:url(#Elipse_6270-5_00000093140241143793934970000002292091109792801208_);}
</style>
<g id="Grupo_180666" transform="translate(-390 -6051.553)">
	<path id="Trazado_232380" class="st0" d="M678.5,6061.8h255.2v55.1H678.5V6061.8z"/>
	<path id="Trazado_232381" class="st0" d="M678.5,6143.9h255.2v55.1H678.5V6143.9z"/>
	<path id="Trazado_232382" class="st0" d="M678.5,6229.8h255.2v55.1H678.5V6229.8z"/>
	<path id="Trazado_232383" class="st0" d="M678.5,6310.6h255.2v55.1H678.5V6310.6z"/>
	<path id="Trazado_232384" class="st1" d="M395,6051.6h286.2c2.8,0,5,2.2,5,5v68.2c0,2.8-2.2,5-5,5H395c-2.8,0-5-2.2-5-5v-68.2
		C390,6053.8,392.2,6051.6,395,6051.6z"/>
	<path id="Trazado_232385" class="st1" d="M395,6133.6h286.2c2.8,0,5,2.2,5,5v68.2c0,2.8-2.2,5-5,5H395c-2.8,0-5-2.2-5-5v-68.2
		C390,6135.9,392.2,6133.6,395,6133.6z"/>
	<path id="Trazado_232386" class="st1" d="M395,6215.7h286.2c2.8,0,5,2.2,5,5v68.2c0,2.8-2.2,5-5,5H395c-2.8,0-5-2.2-5-5v-68.2
		C390,6217.9,392.2,6215.7,395,6215.7z"/>
	<path id="Trazado_232387" class="st1" d="M395,6299h286.2c2.8,0,5,2.2,5,5v68.2c0,2.8-2.2,5-5,5H395c-2.8,0-5-2.2-5-5V6304
		C390,6301.3,392.2,6299,395,6299z"/>
	<path id="Trazado_231844" class="st2" d="M1210,6365.1v-301.7H914l-71.4,147.6l71.4,154.1H1210z"/>
	<path id="Trazado_232388" class="st3" d="M440,6088.4V6077h3.5c0.9,0,1.9,0.2,2.7,0.7c0.8,0.4,1.4,1.1,1.8,1.9
		c0.5,0.9,0.7,1.8,0.7,2.8v0.5c0,1-0.2,1.9-0.7,2.8c-0.4,0.8-1.1,1.5-1.8,1.9c-0.8,0.5-1.7,0.7-2.7,0.7H440z M442.4,6078.9v7.6h1.1
		c0.8,0,1.6-0.3,2.1-0.9c0.5-0.7,0.8-1.7,0.7-2.6v-0.6c0.1-0.9-0.2-1.9-0.7-2.6c-0.5-0.6-1.3-0.9-2.1-0.9H442.4z M454.2,6088.5
		c-1.1,0-2.2-0.4-3-1.1c-0.8-0.8-1.2-1.9-1.2-3v-0.2c0-0.8,0.2-1.6,0.5-2.3c0.3-0.6,0.8-1.2,1.4-1.5c0.6-0.4,1.3-0.6,2.1-0.5
		c1-0.1,2,0.3,2.7,1.1c0.7,0.9,1.1,2,1,3.1v0.9h-5.4c0.1,0.5,0.3,1,0.7,1.3c0.4,0.3,0.9,0.5,1.4,0.5c0.8,0,1.6-0.3,2-0.9l1.1,1.2
		c-0.4,0.5-0.8,0.9-1.4,1.1C455.5,6088.4,454.8,6088.5,454.2,6088.5L454.2,6088.5z M453.9,6081.6c-0.4,0-0.8,0.2-1.1,0.5
		c-0.3,0.4-0.5,0.8-0.5,1.3h3.1v-0.2c0-0.4-0.1-0.8-0.4-1.2C454.7,6081.7,454.3,6081.6,453.9,6081.6L453.9,6081.6z M459.5,6088.4
		v-6.8h-1.3v-1.7h1.3v-0.4c0-0.9,0.3-1.8,1-2.5c0.8-0.6,1.7-0.9,2.7-0.9c0.9,0,1.7,0.2,2.6,0.5l-0.3,1.9c-0.4-0.1-0.8-0.2-1.2-0.3
		c-0.3,0-0.6-0.1-0.9-0.1c-1.1,0-1.6,0.5-1.6,1.4v0.3h1.7v1.7h-1.7v6.8H459.5z M466.8,6088.4h-2.3v-8.5h2.3V6088.4z M470.7,6079.9
		l0.1,1c0.6-0.7,1.5-1.2,2.4-1.1c0.8-0.1,1.5,0.2,2,0.8c0.5,0.7,0.7,1.5,0.7,2.4v5.5h-2.3v-5.4c0-0.4-0.1-0.7-0.3-1
		c-0.3-0.2-0.7-0.4-1-0.3c-0.6,0-1.1,0.3-1.4,0.8v6h-2.3v-8.5H470.7z M481.5,6088.5c-1.1,0-2.2-0.4-3-1.1c-0.8-0.8-1.2-1.9-1.2-3
		v-0.2c0-0.8,0.2-1.6,0.5-2.3c0.3-0.6,0.8-1.2,1.4-1.5c0.6-0.4,1.3-0.6,2.1-0.5c1-0.1,2,0.3,2.7,1.1c0.7,0.9,1.1,2,1,3.1v0.9h-5.4
		c0.1,0.5,0.3,1,0.7,1.3c0.4,0.3,0.9,0.5,1.4,0.5c0.8,0,1.6-0.3,2-0.9l1.1,1.2c-0.4,0.5-0.8,0.9-1.4,1.1
		C482.8,6088.4,482.2,6088.5,481.5,6088.5L481.5,6088.5z M481.2,6081.6c-0.4,0-0.8,0.2-1.1,0.5c-0.3,0.4-0.5,0.8-0.5,1.3h3.1v-0.2
		c0-0.4-0.1-0.8-0.4-1.2C482.1,6081.7,481.6,6081.6,481.2,6081.6z M492.6,6088.4h-2.3v-12h2.3V6088.4z M499.4,6088.4
		c-0.1-0.2-0.2-0.5-0.2-0.8c-0.5,0.6-1.3,0.9-2.1,0.9c-0.8,0-1.5-0.2-2.1-0.7c-0.5-0.5-0.8-1.1-0.8-1.8c0-0.8,0.3-1.6,1-2.1
		c0.9-0.5,1.9-0.8,2.9-0.7h1v-0.5c0-0.3-0.1-0.7-0.3-0.9c-0.2-0.3-0.6-0.4-0.9-0.4c-0.3,0-0.6,0.1-0.9,0.3c-0.2,0.2-0.3,0.5-0.3,0.8
		h-2.3c0-0.5,0.2-1,0.5-1.4c0.3-0.4,0.8-0.8,1.3-1c0.6-0.2,1.2-0.4,1.9-0.4c0.9,0,1.8,0.2,2.5,0.8c0.6,0.6,1,1.4,0.9,2.2v3.7
		c0,0.6,0.1,1.2,0.3,1.8v0.1H499.4z M497.5,6086.8c0.3,0,0.6-0.1,0.9-0.2c0.3-0.1,0.5-0.3,0.6-0.6v-1.5h-0.8c-1.1,0-1.7,0.4-1.8,1.2
		l0,0.1c0,0.3,0.1,0.5,0.3,0.7C496.9,6086.7,497.2,6086.8,497.5,6086.8L497.5,6086.8z M507.6,6086c0-0.3-0.2-0.5-0.4-0.7
		c-0.4-0.2-0.9-0.4-1.3-0.4c-2-0.4-3-1.3-3-2.6c0-0.7,0.3-1.4,0.9-1.9c0.7-0.5,1.6-0.8,2.4-0.8c0.9,0,1.8,0.2,2.6,0.8
		c0.6,0.5,1,1.2,1,2h-2.3c0-0.3-0.1-0.6-0.3-0.8c-0.3-0.2-0.6-0.3-1-0.3c-0.3,0-0.6,0.1-0.9,0.3c-0.2,0.2-0.3,0.4-0.3,0.7
		c0,0.3,0.1,0.5,0.4,0.6c0.4,0.2,0.8,0.3,1.2,0.4c0.5,0.1,1,0.2,1.4,0.4c1.1,0.3,1.8,1.2,1.8,2.3c0,0.8-0.4,1.5-1,1.9
		c-0.8,0.5-1.7,0.8-2.6,0.7c-0.6,0-1.3-0.1-1.9-0.4c-0.5-0.2-1-0.6-1.3-1c-0.3-0.4-0.5-0.9-0.5-1.4h2.1c0,0.4,0.2,0.7,0.4,0.9
		c0.3,0.2,0.7,0.3,1.1,0.3c0.3,0,0.7-0.1,1-0.2C507.5,6086.5,507.6,6086.3,507.6,6086z M517.3,6079.9l0.1,1c0.6-0.7,1.5-1.2,2.4-1.1
		c0.8-0.1,1.5,0.2,2,0.8c0.5,0.7,0.7,1.5,0.7,2.4v5.5h-2.3v-5.4c0-0.4-0.1-0.7-0.3-1c-0.3-0.2-0.7-0.4-1-0.3c-0.6,0-1.1,0.3-1.4,0.8
		v6h-2.3v-8.5H517.3z M528.1,6088.5c-1.1,0-2.2-0.4-3-1.1c-0.8-0.8-1.2-1.9-1.2-3v-0.2c0-0.8,0.2-1.6,0.5-2.3
		c0.3-0.6,0.8-1.2,1.4-1.5c0.6-0.4,1.3-0.6,2.1-0.5c1-0.1,2,0.3,2.7,1.1c0.7,0.9,1.1,2,1,3.1v0.9h-5.4c0.1,0.5,0.3,1,0.7,1.3
		c0.4,0.3,0.9,0.5,1.4,0.5c0.8,0,1.6-0.3,2-0.9l1.1,1.2c-0.4,0.5-0.8,0.9-1.4,1.1C529.4,6088.4,528.8,6088.5,528.1,6088.5
		L528.1,6088.5z M527.9,6081.6c-0.4,0-0.8,0.2-1.1,0.5c-0.3,0.4-0.5,0.8-0.5,1.3h3.1v-0.2c0-0.4-0.1-0.8-0.4-1.2
		C528.7,6081.7,528.3,6081.6,527.9,6081.6L527.9,6081.6z M536.4,6086.7c0.4,0,0.7-0.1,1-0.3c0.3-0.2,0.4-0.6,0.4-0.9h2.1
		c0,0.6-0.2,1.1-0.5,1.6c-0.3,0.5-0.7,0.9-1.3,1.1c-0.6,0.3-1.2,0.4-1.8,0.4c-1.1,0.1-2.1-0.4-2.9-1.2c-0.7-0.9-1.1-2-1-3.2v-0.1
		c-0.1-1.1,0.3-2.2,1-3.1c0.7-0.8,1.8-1.2,2.9-1.2c0.9,0,1.8,0.3,2.5,0.9c0.6,0.6,1,1.5,1,2.4h-2.1c0-0.4-0.1-0.8-0.4-1.1
		c-0.6-0.6-1.6-0.5-2.1,0.1c0,0-0.1,0.1-0.1,0.1c-0.3,0.6-0.5,1.2-0.4,1.9v0.2c-0.1,0.7,0.1,1.3,0.4,1.9
		C535.5,6086.5,535.9,6086.7,536.4,6086.7L536.4,6086.7z M545.1,6088.5c-1.1,0-2.2-0.4-3-1.1c-0.8-0.8-1.2-1.9-1.2-3v-0.2
		c0-0.8,0.2-1.6,0.5-2.3c0.3-0.6,0.8-1.2,1.4-1.5c0.6-0.4,1.3-0.6,2.1-0.5c1-0.1,2,0.3,2.7,1.1c0.7,0.9,1.1,2,1,3.1v0.9h-5.4
		c0.1,0.5,0.3,1,0.7,1.3c0.4,0.3,0.9,0.5,1.4,0.5c0.8,0,1.6-0.3,2-0.9l1.1,1.2c-0.4,0.5-0.8,0.9-1.4,1.1
		C546.4,6088.4,545.8,6088.5,545.1,6088.5L545.1,6088.5z M544.9,6081.6c-0.4,0-0.8,0.2-1.1,0.5c-0.3,0.4-0.5,0.8-0.5,1.3h3.1v-0.2
		c0-0.4-0.1-0.8-0.4-1.2C545.7,6081.7,545.3,6081.6,544.9,6081.6L544.9,6081.6z M554.4,6086c0-0.3-0.2-0.5-0.4-0.7
		c-0.4-0.2-0.9-0.4-1.3-0.4c-2-0.4-3-1.3-3-2.6c0-0.7,0.3-1.4,0.9-1.9c0.7-0.5,1.6-0.8,2.4-0.8c0.9,0,1.8,0.2,2.6,0.8
		c0.6,0.5,1,1.2,1,2h-2.3c0-0.3-0.1-0.6-0.3-0.8c-0.3-0.2-0.6-0.3-1-0.3c-0.3,0-0.6,0.1-0.9,0.3c-0.2,0.2-0.3,0.4-0.3,0.7
		c0,0.3,0.1,0.5,0.4,0.6c0.4,0.2,0.8,0.3,1.2,0.4c0.5,0.1,1,0.2,1.4,0.4c1.1,0.3,1.8,1.2,1.8,2.3c0,0.8-0.4,1.5-1,1.9
		c-0.8,0.5-1.7,0.8-2.6,0.7c-0.6,0-1.3-0.1-1.9-0.4c-0.5-0.2-1-0.6-1.3-1c-0.3-0.4-0.5-0.9-0.5-1.4h2.1c0,0.4,0.2,0.7,0.4,0.9
		c0.3,0.2,0.7,0.3,1.1,0.3c0.3,0,0.7-0.1,1-0.2C554.3,6086.5,554.5,6086.3,554.4,6086L554.4,6086z M560.5,6088.4h-2.3v-8.5h2.3
		V6088.4z M558.1,6077.7c0-0.3,0.1-0.6,0.3-0.8c0.5-0.4,1.3-0.4,1.8,0c0.2,0.2,0.4,0.5,0.3,0.8c0,0.3-0.1,0.6-0.3,0.8
		c-0.5,0.4-1.3,0.4-1.8,0C558.2,6078.4,558.1,6078.1,558.1,6077.7L558.1,6077.7z M562,6084.1c-0.1-1.1,0.3-2.2,0.9-3.1
		c0.6-0.8,1.5-1.2,2.4-1.2c0.8,0,1.5,0.3,2,0.9v-4.3h2.3v12h-2l-0.1-0.9c-0.5,0.7-1.3,1.1-2.2,1.1c-0.9,0-1.8-0.4-2.4-1.2
		C562.2,6086.4,561.9,6085.2,562,6084.1L562,6084.1z M564.2,6084.2c0,0.6,0.1,1.3,0.4,1.8c0.3,0.4,0.7,0.7,1.2,0.6
		c0.6,0,1.2-0.3,1.5-0.9v-3.4c-0.3-0.6-0.8-0.9-1.5-0.9C564.8,6081.6,564.2,6082.5,564.2,6084.2L564.2,6084.2z M576.3,6088.4
		c-0.1-0.2-0.2-0.5-0.2-0.8c-0.5,0.6-1.3,0.9-2.1,0.9c-0.8,0-1.5-0.2-2.1-0.7c-0.5-0.5-0.8-1.1-0.8-1.8c0-0.8,0.3-1.6,1-2.1
		c0.9-0.5,1.9-0.8,2.9-0.7h1v-0.5c0-0.3-0.1-0.7-0.3-0.9c-0.2-0.3-0.6-0.4-0.9-0.4c-0.3,0-0.6,0.1-0.9,0.3c-0.2,0.2-0.3,0.5-0.3,0.8
		h-2.3c0-0.5,0.2-1,0.5-1.4c0.3-0.4,0.8-0.8,1.3-1c0.6-0.2,1.2-0.4,1.9-0.4c0.9,0,1.8,0.2,2.5,0.8c0.6,0.6,1,1.4,0.9,2.2v3.7
		c0,0.6,0.1,1.2,0.3,1.8v0.1H576.3z M574.4,6086.8c0.3,0,0.6-0.1,0.9-0.2c0.3-0.1,0.5-0.3,0.6-0.6v-1.5h-0.8c-1.1,0-1.7,0.4-1.8,1.2
		l0,0.1c0,0.3,0.1,0.5,0.3,0.7C573.8,6086.7,574.1,6086.8,574.4,6086.8z M579.6,6084.1c-0.1-1.1,0.3-2.2,0.9-3.1
		c0.6-0.8,1.5-1.2,2.4-1.2c0.8,0,1.5,0.3,2,0.9v-4.3h2.3v12h-2l-0.1-0.9c-0.5,0.7-1.3,1.1-2.2,1.1c-0.9,0-1.8-0.4-2.4-1.2
		C579.8,6086.4,579.5,6085.2,579.6,6084.1L579.6,6084.1z M581.8,6084.2c0,0.6,0.1,1.3,0.4,1.8c0.3,0.4,0.7,0.7,1.2,0.6
		c0.6,0,1.2-0.3,1.5-0.9v-3.4c-0.3-0.6-0.8-0.9-1.5-0.9C582.4,6081.6,581.8,6082.5,581.8,6084.2L581.8,6084.2z M592.8,6088.5
		c-1.1,0-2.2-0.4-3-1.1c-0.8-0.8-1.2-1.9-1.2-3v-0.2c0-0.8,0.1-1.6,0.5-2.3c0.3-0.6,0.8-1.2,1.4-1.5c0.6-0.4,1.3-0.6,2.1-0.5
		c1-0.1,2,0.3,2.7,1.1c0.7,0.9,1.1,2,1,3.1v0.9h-5.4c0.1,0.5,0.3,1,0.7,1.3c0.4,0.3,0.9,0.5,1.4,0.5c0.8,0,1.6-0.3,2-0.9l1.1,1.2
		c-0.4,0.5-0.8,0.9-1.4,1.1C594.2,6088.4,593.5,6088.5,592.8,6088.5L592.8,6088.5z M592.6,6081.6c-0.4,0-0.8,0.2-1.1,0.5
		c-0.3,0.4-0.5,0.8-0.5,1.3h3.1v-0.2c0-0.4-0.1-0.8-0.4-1.2C593.4,6081.7,593,6081.6,592.6,6081.6L592.6,6081.6z M602.2,6086
		c0-0.3-0.2-0.5-0.4-0.7c-0.4-0.2-0.9-0.4-1.3-0.4c-2-0.4-3-1.3-3-2.6c0-0.7,0.3-1.4,0.9-1.9c0.7-0.5,1.6-0.8,2.4-0.8
		c0.9,0,1.8,0.2,2.6,0.8c0.6,0.5,1,1.2,1,2h-2.3c0-0.3-0.1-0.6-0.3-0.8c-0.3-0.2-0.6-0.4-1-0.3c-0.3,0-0.6,0.1-0.9,0.3
		c-0.2,0.2-0.3,0.4-0.3,0.7c0,0.3,0.1,0.5,0.4,0.6c0.4,0.2,0.8,0.3,1.2,0.4c0.5,0.1,1,0.2,1.4,0.4c1.1,0.3,1.8,1.2,1.8,2.3
		c0,0.8-0.4,1.5-1,1.9c-0.8,0.5-1.7,0.8-2.6,0.7c-0.6,0-1.3-0.1-1.9-0.4c-0.5-0.2-1-0.6-1.3-1c-0.3-0.4-0.5-0.9-0.5-1.4h2.1
		c0,0.4,0.2,0.7,0.4,0.9c0.3,0.2,0.7,0.3,1.1,0.3c0.3,0,0.7-0.1,1-0.2C602.1,6086.5,602.2,6086.3,602.2,6086L602.2,6086z
		 M609.5,6084.1c-0.1-1.1,0.3-2.2,0.9-3.1c0.6-0.8,1.5-1.2,2.4-1.2c0.8,0,1.5,0.3,2,0.9v-4.3h2.3v12h-2l-0.1-0.9
		c-0.5,0.7-1.3,1.1-2.2,1.1c-0.9,0-1.8-0.4-2.4-1.2C609.7,6086.4,609.4,6085.2,609.5,6084.1L609.5,6084.1z M611.7,6084.2
		c0,0.6,0.1,1.3,0.4,1.8c0.3,0.4,0.7,0.7,1.2,0.6c0.6,0,1.2-0.3,1.5-0.9v-3.3c-0.3-0.6-0.8-0.9-1.5-0.9
		C612.3,6081.6,611.7,6082.5,611.7,6084.2L611.7,6084.2z M622.7,6088.5c-1.1,0-2.2-0.4-3-1.1c-0.8-0.8-1.2-1.9-1.2-3v-0.2
		c0-0.8,0.2-1.6,0.5-2.3c0.3-0.6,0.8-1.2,1.4-1.5c0.6-0.4,1.3-0.6,2.1-0.5c1-0.1,2,0.3,2.7,1.1c0.7,0.9,1.1,2,1,3.1v0.9h-5.4
		c0.1,0.5,0.3,1,0.7,1.3c0.4,0.3,0.9,0.5,1.4,0.5c0.8,0,1.6-0.3,2-0.9l1.1,1.2c-0.4,0.5-0.8,0.9-1.4,1.1
		C624,6088.4,623.4,6088.5,622.7,6088.5L622.7,6088.5z M622.5,6081.6c-0.4,0-0.8,0.2-1.1,0.5c-0.3,0.4-0.5,0.8-0.5,1.3h3.1v-0.2
		c0-0.4-0.1-0.8-0.4-1.2C623.3,6081.7,622.9,6081.6,622.5,6081.6L622.5,6081.6z M629.9,6088.4h-2.3v-12h2.3V6088.4z M509.2,6095.9
		l0.1,1c0.6-0.7,1.5-1.2,2.4-1.1c0.8-0.1,1.5,0.2,2,0.8c0.5,0.7,0.7,1.5,0.7,2.4v5.5h-2.3v-5.4c0-0.4-0.1-0.7-0.3-1
		c-0.3-0.2-0.7-0.4-1-0.3c-0.6,0-1.1,0.3-1.4,0.8v6H507v-8.5L509.2,6095.9z M519.9,6104.5c-1.1,0-2.2-0.4-3-1.1
		c-0.8-0.8-1.2-1.9-1.2-3v-0.2c0-0.8,0.2-1.6,0.5-2.3c0.3-0.6,0.8-1.2,1.4-1.5c0.6-0.4,1.3-0.6,2.1-0.5c1-0.1,2,0.3,2.7,1.1
		c0.7,0.9,1.1,2,1,3.1v0.9H518c0.1,0.5,0.3,1,0.7,1.3c0.4,0.3,0.9,0.5,1.4,0.5c0.8,0,1.6-0.3,2-0.9l1.1,1.2
		c-0.4,0.5-0.8,0.9-1.4,1.1C521.2,6104.4,520.6,6104.5,519.9,6104.5z M519.7,6097.6c-0.4,0-0.8,0.2-1.1,0.5
		c-0.3,0.4-0.5,0.8-0.5,1.3h3.1v-0.2c0-0.4-0.1-0.8-0.4-1.2C520.5,6097.7,520.1,6097.6,519.7,6097.6L519.7,6097.6z M524.4,6100.1
		c-0.1-1.1,0.3-2.2,0.9-3.1c0.6-0.8,1.5-1.2,2.5-1.2c0.8,0,1.6,0.3,2.2,1l0.1-0.8h2v8.2c0,0.7-0.2,1.3-0.5,1.9
		c-0.3,0.5-0.8,1-1.4,1.2c-0.7,0.3-1.4,0.4-2.1,0.4c-0.6,0-1.2-0.1-1.8-0.4c-0.5-0.2-1-0.5-1.3-1l1-1.4c0.5,0.6,1.3,1,2,0.9
		c0.5,0,1-0.1,1.4-0.5c0.4-0.4,0.5-0.9,0.5-1.4v-0.5c-0.5,0.6-1.3,0.9-2.1,0.9c-1,0-1.9-0.4-2.5-1.2
		C524.6,6102.4,524.3,6101.3,524.4,6100.1L524.4,6100.1z M526.6,6100.2c0,0.6,0.1,1.3,0.5,1.8c0.3,0.4,0.8,0.7,1.3,0.7
		c0.6,0,1.2-0.3,1.5-0.8v-3.6c-0.3-0.5-0.9-0.8-1.5-0.8c-0.5,0-1,0.2-1.3,0.7C526.7,6098.9,526.6,6099.6,526.6,6100.2L526.6,6100.2z
		 M533.5,6100.1c0-0.8,0.2-1.5,0.5-2.2c0.3-0.6,0.8-1.2,1.4-1.5c0.6-0.4,1.4-0.6,2.1-0.5c1,0,2,0.3,2.8,1c0.7,0.8,1.2,1.8,1.2,2.8
		l0,0.6c0.1,1.1-0.3,2.3-1.1,3.1c-1.6,1.6-4.2,1.6-5.8,0C533.8,6102.5,533.4,6101.3,533.5,6100.1L533.5,6100.1z M535.7,6100.2
		c0,0.6,0.1,1.3,0.5,1.8c0.5,0.7,1.6,0.8,2.3,0.3c0.1-0.1,0.2-0.2,0.3-0.3c0.4-0.6,0.5-1.3,0.5-2c0-0.6-0.1-1.3-0.5-1.8
		c-0.3-0.4-0.8-0.7-1.3-0.6c-0.5,0-1,0.2-1.3,0.6C535.8,6098.8,535.7,6099.5,535.7,6100.2L535.7,6100.2z M546.4,6102.7
		c0.4,0,0.7-0.1,1-0.3c0.3-0.2,0.4-0.6,0.4-0.9h2.1c0,0.6-0.2,1.1-0.5,1.6c-0.3,0.5-0.7,0.9-1.3,1.1c-0.6,0.3-1.2,0.4-1.8,0.4
		c-1.1,0.1-2.1-0.4-2.9-1.2c-0.7-0.9-1.1-2-1-3.2v-0.1c-0.1-1.1,0.3-2.2,1-3.1c0.7-0.8,1.8-1.2,2.9-1.2c0.9,0,1.8,0.3,2.5,0.9
		c0.6,0.6,1,1.5,1,2.4h-2.1c0-0.4-0.1-0.8-0.4-1.1c-0.6-0.6-1.6-0.5-2.1,0.1c0,0-0.1,0.1-0.1,0.1c-0.3,0.6-0.5,1.2-0.4,1.9v0.2
		c-0.1,0.7,0.1,1.3,0.4,1.9C545.5,6102.5,545.9,6102.7,546.4,6102.7L546.4,6102.7z M553.6,6104.4h-2.3v-8.5h2.3V6104.4z
		 M551.2,6093.7c0-0.3,0.1-0.6,0.3-0.8c0.5-0.4,1.3-0.4,1.8,0c0.5,0.5,0.5,1.2,0,1.7c-0.5,0.4-1.3,0.4-1.8,0
		C551.3,6094.4,551.2,6094.1,551.2,6093.7L551.2,6093.7z M555.1,6100.1c0-0.8,0.2-1.5,0.5-2.2c0.3-0.6,0.8-1.2,1.4-1.5
		c0.6-0.4,1.4-0.6,2.1-0.5c1,0,2,0.3,2.8,1c0.7,0.8,1.2,1.8,1.2,2.8l0,0.6c0.1,1.1-0.3,2.3-1.1,3.1c-1.6,1.6-4.2,1.6-5.8,0
		C555.4,6102.5,555,6101.3,555.1,6100.1L555.1,6100.1z M557.4,6100.2c0,0.6,0.1,1.3,0.5,1.8c0.5,0.7,1.6,0.8,2.3,0.3
		c0.1-0.1,0.2-0.2,0.3-0.3c0.4-0.6,0.5-1.3,0.5-2c0-0.6-0.1-1.3-0.5-1.8c-0.3-0.4-0.8-0.7-1.3-0.6c-0.5,0-1,0.2-1.3,0.6
		C557.5,6098.8,557.3,6099.5,557.4,6100.2L557.4,6100.2z"/>
	<path id="Trazado_232389" class="st2" d="M725.6,6094.2v-10.7h3.3c0.9,0,1.7,0.2,2.5,0.6c0.7,0.4,1.3,1,1.7,1.8
		c0.4,0.8,0.6,1.7,0.6,2.7v0.5c0,0.9-0.2,1.8-0.6,2.6c-0.4,0.8-1,1.4-1.7,1.8c-0.8,0.4-1.6,0.7-2.5,0.6H725.6z M727.8,6085.3v7.1
		h1.1c0.8,0,1.5-0.3,2-0.8c0.5-0.7,0.7-1.6,0.7-2.4v-0.6c0.1-0.9-0.2-1.7-0.7-2.5c-0.5-0.6-1.2-0.9-2-0.8L727.8,6085.3z
		 M737.5,6094.2h-2.1v-7.9h2.1V6094.2z M735.2,6084.2c0-0.3,0.1-0.6,0.3-0.8c0.2-0.2,0.5-0.3,0.9-0.3c0.3,0,0.6,0.1,0.9,0.3
		c0.2,0.2,0.3,0.5,0.3,0.8c0,0.3-0.1,0.6-0.3,0.8c-0.5,0.4-1.2,0.4-1.7,0C735.3,6084.8,735.2,6084.5,735.2,6084.2z M743.5,6092
		c0-0.3-0.2-0.5-0.4-0.6c-0.4-0.2-0.8-0.3-1.2-0.4c-1.9-0.4-2.8-1.2-2.8-2.4c0-0.7,0.3-1.3,0.9-1.8c0.7-0.5,1.5-0.7,2.3-0.7
		c0.9,0,1.7,0.2,2.4,0.7c0.6,0.4,0.9,1.1,0.9,1.8h-2.1c0-0.3-0.1-0.6-0.3-0.8c-0.3-0.2-0.6-0.3-0.9-0.3c-0.3,0-0.6,0.1-0.8,0.2
		c-0.2,0.1-0.3,0.4-0.3,0.6c0,0.2,0.1,0.5,0.3,0.6c0.4,0.2,0.7,0.3,1.1,0.4c0.5,0.1,0.9,0.2,1.3,0.4c1,0.2,1.7,1.1,1.7,2.1
		c0,0.7-0.3,1.4-0.9,1.8c-0.7,0.5-1.5,0.7-2.4,0.7c-0.6,0-1.2-0.1-1.8-0.4c-0.5-0.2-0.9-0.5-1.2-1c-0.3-0.4-0.4-0.9-0.4-1.3h2
		c0,0.3,0.2,0.7,0.4,0.9c0.3,0.2,0.7,0.3,1,0.3c0.3,0,0.6-0.1,0.9-0.2C743.4,6092.5,743.5,6092.2,743.5,6092z M749.5,6084.3v1.9h1.4
		v1.6h-1.4v4c0,0.2,0,0.4,0.2,0.6c0.2,0.1,0.4,0.2,0.6,0.2c0.2,0,0.4,0,0.6-0.1v1.6c-0.4,0.1-0.8,0.2-1.3,0.2
		c-1.1,0.1-2.1-0.6-2.3-1.7c0-0.2,0-0.3,0-0.5v-4.3h-1.2v-1.6h1.2v-1.9H749.5z M756.4,6088.3c-0.3,0-0.5-0.1-0.8-0.1
		c-0.6-0.1-1.3,0.2-1.6,0.8v5.2H752v-7.9h2l0.1,0.9c0.3-0.7,1-1.1,1.8-1.1c0.2,0,0.4,0,0.7,0.1L756.4,6088.3z M759.7,6094.2h-2.1
		v-7.9h2.1V6094.2z M757.4,6084.2c0-0.3,0.1-0.6,0.3-0.8c0.5-0.4,1.2-0.4,1.7,0c0.2,0.2,0.3,0.5,0.3,0.8c0,0.3-0.1,0.6-0.3,0.8
		c-0.5,0.4-1.2,0.4-1.7,0C757.5,6084.8,757.4,6084.5,757.4,6084.2z M768.6,6090.3c0.1,1.1-0.2,2.1-0.8,3c-0.5,0.7-1.4,1.1-2.3,1.1
		c-0.8,0-1.6-0.3-2.1-1l-0.1,0.8h-1.9v-11.2h2.1v4c0.5-0.6,1.2-0.9,1.9-0.9c0.9,0,1.7,0.4,2.3,1.1c0.6,0.9,0.9,1.9,0.8,3
		L768.6,6090.3z M766.5,6090.1c0-0.6-0.1-1.2-0.4-1.8c-0.3-0.4-0.7-0.6-1.1-0.6c-0.6,0-1.2,0.3-1.4,0.8v3.1c0.2,0.5,0.8,0.9,1.4,0.8
		c0.6,0,1.2-0.4,1.3-1C766.4,6091.1,766.5,6090.6,766.5,6090.1z M774.6,6093.4c-0.5,0.6-1.3,1-2.2,1c-0.7,0-1.4-0.2-1.9-0.7
		c-0.5-0.6-0.7-1.4-0.7-2.1v-5.2h2.1v5.1c0,0.8,0.4,1.2,1.1,1.2c0.6,0.1,1.2-0.2,1.5-0.7v-5.6h2.1v7.9h-2L774.6,6093.4z
		 M781.6,6092.6c0.3,0,0.7-0.1,1-0.3c0.2-0.2,0.4-0.5,0.4-0.9h2c0,0.5-0.2,1-0.4,1.5c-0.3,0.4-0.7,0.8-1.2,1
		c-0.5,0.3-1.1,0.4-1.7,0.4c-1,0.1-2-0.3-2.7-1.1c-0.7-0.8-1-1.9-1-3v-0.1c-0.1-1.1,0.3-2.1,1-2.9c0.7-0.7,1.7-1.1,2.7-1.1
		c0.9,0,1.7,0.3,2.4,0.8c0.6,0.6,0.9,1.4,0.9,2.3h-2c0-0.4-0.1-0.7-0.4-1c-0.6-0.5-1.5-0.5-2,0.1c0,0-0.1,0.1-0.1,0.1
		c-0.3,0.5-0.4,1.1-0.4,1.7v0.2c0,0.6,0.1,1.2,0.4,1.8C780.7,6092.5,781.1,6092.7,781.6,6092.6z M788.3,6094.2h-2.1v-7.9h2.1V6094.2
		z M786.1,6084.2c0-0.3,0.1-0.6,0.3-0.8c0.5-0.4,1.2-0.4,1.7,0c0.2,0.2,0.3,0.5,0.3,0.8c0,0.3-0.1,0.6-0.3,0.8
		c-0.5,0.4-1.2,0.4-1.7,0C786.2,6084.8,786.1,6084.5,786.1,6084.2z M789.7,6090.2c0-0.7,0.1-1.4,0.5-2.1c0.3-0.6,0.7-1.1,1.3-1.4
		c0.6-0.3,1.3-0.5,2-0.5c1,0,1.9,0.3,2.6,1c0.7,0.7,1.1,1.7,1.1,2.7l0,0.5c0.1,1.1-0.3,2.1-1,2.9c-1.5,1.5-3.9,1.5-5.5,0
		C790,6092.4,789.7,6091.3,789.7,6090.2L789.7,6090.2z M791.9,6090.3c0,0.6,0.1,1.2,0.4,1.7c0.5,0.7,1.5,0.8,2.1,0.3
		c0.1-0.1,0.2-0.2,0.3-0.3c0.3-0.6,0.5-1.2,0.4-1.9c0-0.6-0.1-1.2-0.4-1.7c-0.3-0.4-0.7-0.6-1.2-0.6c-0.5,0-0.9,0.2-1.2,0.6
		C792,6089,791.8,6089.7,791.9,6090.3L791.9,6090.3z M793.9,6082.9h2.3l-2,2.3h-1.7L793.9,6082.9z M800.5,6086.3l0.1,0.9
		c0.5-0.7,1.4-1.1,2.3-1.1c0.7-0.1,1.4,0.2,1.9,0.7c0.5,0.6,0.7,1.4,0.6,2.2v5.1h-2.1v-5.1c0-0.4-0.1-0.7-0.3-1
		c-0.3-0.2-0.6-0.3-1-0.3c-0.6,0-1.1,0.3-1.3,0.8v5.6h-2.1v-7.9H800.5z"/>
	<path id="Trazado_232390" class="st2" d="M732,6169.9h-4.2v2.9h5v1.8h-7.1v-10.7h7.1v1.8h-4.9v2.5h4.2V6169.9z M736.7,6172l1.5-5.3
		h2.2l-2.7,7.9h-2l-2.7-7.9h2.2L736.7,6172z M740.9,6170.5c0-0.7,0.1-1.4,0.5-2.1c0.3-0.6,0.7-1.1,1.3-1.4c0.6-0.3,1.3-0.5,2-0.5
		c1,0,1.9,0.3,2.6,1c0.7,0.7,1.1,1.7,1.1,2.7l0,0.5c0.1,1.1-0.3,2.1-1,2.9c-0.7,0.7-1.7,1.1-2.7,1.1c-1,0-2-0.4-2.7-1.1
		C741.2,6172.8,740.8,6171.7,740.9,6170.5L740.9,6170.5z M743,6170.7c0,0.6,0.1,1.2,0.4,1.7c0.5,0.7,1.5,0.8,2.1,0.3
		c0.1-0.1,0.2-0.2,0.3-0.3c0.3-0.6,0.5-1.2,0.4-1.9c0-0.6-0.1-1.2-0.4-1.7c-0.3-0.4-0.7-0.6-1.2-0.6c-0.5,0-0.9,0.2-1.2,0.6
		C743.1,6169.4,742.9,6170,743,6170.7L743,6170.7z M751.9,6174.5h-2.1v-11.2h2.1V6174.5z M758.4,6173.7c-0.5,0.6-1.3,1-2.2,1
		c-0.7,0-1.4-0.2-1.9-0.7c-0.5-0.6-0.7-1.4-0.7-2.1v-5.2h2.1v5.1c0,0.8,0.4,1.2,1.1,1.2c0.6,0.1,1.2-0.2,1.5-0.7v-5.6h2.1v7.9h-2
		L758.4,6173.7z M765.3,6173c0.3,0,0.7-0.1,1-0.3c0.2-0.2,0.4-0.5,0.4-0.9h2c0,0.5-0.2,1-0.4,1.5c-0.3,0.4-0.7,0.8-1.2,1
		c-0.5,0.3-1.1,0.4-1.7,0.4c-1,0.1-2-0.3-2.7-1.1c-0.7-0.8-1-1.9-1-3v-0.1c-0.1-1.1,0.3-2.1,1-2.9c0.7-0.7,1.7-1.1,2.7-1.1
		c0.9,0,1.7,0.3,2.4,0.8c0.6,0.6,0.9,1.4,0.9,2.3h-2c0-0.4-0.1-0.7-0.4-1c-0.6-0.5-1.5-0.5-2,0.1c0,0-0.1,0.1-0.1,0.1
		c-0.3,0.5-0.4,1.1-0.4,1.7v0.2c0,0.6,0.1,1.2,0.4,1.8C764.5,6172.8,764.9,6173,765.3,6173L765.3,6173z M772.1,6174.5H770v-7.9h2.1
		V6174.5z M769.9,6164.6c0-0.3,0.1-0.6,0.3-0.8c0.5-0.4,1.2-0.4,1.7,0c0.2,0.2,0.3,0.5,0.3,0.8c0,0.3-0.1,0.6-0.3,0.8
		c-0.5,0.4-1.2,0.4-1.7,0C770,6165.2,769.8,6164.9,769.9,6164.6z M773.5,6170.5c0-0.7,0.1-1.4,0.5-2.1c0.3-0.6,0.7-1.1,1.3-1.4
		c0.6-0.3,1.3-0.5,2-0.5c1,0,1.9,0.3,2.6,1c0.7,0.7,1.1,1.7,1.1,2.7l0,0.5c0.1,1.1-0.3,2.1-1,2.9c-1.5,1.5-3.9,1.5-5.5,0
		C773.8,6172.8,773.5,6171.7,773.5,6170.5L773.5,6170.5z M775.6,6170.7c0,0.6,0.1,1.2,0.4,1.7c0.5,0.7,1.5,0.8,2.1,0.3
		c0.1-0.1,0.2-0.2,0.3-0.3c0.3-0.6,0.5-1.2,0.4-1.9c0-0.6-0.1-1.2-0.4-1.7c-0.3-0.4-0.7-0.6-1.2-0.6c-0.5,0-0.9,0.2-1.2,0.6
		C775.7,6169.4,775.6,6170,775.6,6170.7L775.6,6170.7z M777.7,6163.3h2.3l-2,2.3h-1.7L777.7,6163.3z M784.3,6166.6l0.1,0.9
		c0.5-0.7,1.4-1.1,2.3-1.1c0.7-0.1,1.4,0.2,1.9,0.7c0.5,0.6,0.7,1.4,0.6,2.2v5.1H787v-5.1c0-0.4-0.1-0.7-0.3-1
		c-0.3-0.2-0.6-0.3-1-0.3c-0.6,0-1.1,0.3-1.3,0.8v5.6h-2.1v-7.9H784.3z"/>
	<path id="Trazado_232391" class="st2" d="M725.6,6263.3v-10.7h3.3c0.9,0,1.7,0.2,2.5,0.6c0.7,0.4,1.3,1,1.7,1.8
		c0.4,0.8,0.6,1.7,0.6,2.7v0.5c0,0.9-0.2,1.8-0.6,2.6c-0.4,0.8-1,1.4-1.7,1.8c-0.8,0.4-1.6,0.7-2.5,0.6H725.6z M727.8,6254.4v7.1
		h1.1c0.8,0,1.5-0.3,2-0.8c0.5-0.7,0.7-1.6,0.7-2.4v-0.6c0.1-0.9-0.2-1.7-0.7-2.5c-0.5-0.6-1.2-0.9-2-0.8L727.8,6254.4z
		 M738.9,6263.5c-1.1,0-2.1-0.3-2.8-1.1c-0.7-0.8-1.1-1.8-1.1-2.8v-0.2c0-0.7,0.1-1.5,0.5-2.1c0.3-0.6,0.7-1.1,1.3-1.5
		c0.6-0.3,1.3-0.5,1.9-0.5c1,0,1.9,0.3,2.6,1c0.7,0.8,1,1.9,0.9,2.9v0.9h-5c0,0.5,0.3,0.9,0.6,1.2c0.4,0.3,0.8,0.5,1.3,0.5
		c0.7,0,1.5-0.3,1.9-0.9l1,1.2c-0.3,0.5-0.8,0.8-1.3,1.1C740.1,6263.4,739.5,6263.5,738.9,6263.5L738.9,6263.5z M738.6,6257
		c-0.4,0-0.8,0.1-1,0.4c-0.3,0.3-0.5,0.8-0.5,1.2h2.9v-0.2c0-0.4-0.1-0.8-0.4-1.1C739.4,6257.1,739,6256.9,738.6,6257L738.6,6257z
		 M747.6,6261.1c0-0.3-0.2-0.5-0.4-0.6c-0.4-0.2-0.8-0.3-1.2-0.4c-1.9-0.4-2.8-1.2-2.8-2.4c0-0.7,0.3-1.3,0.9-1.8
		c0.7-0.5,1.5-0.7,2.3-0.7c0.9,0,1.7,0.2,2.4,0.7c0.6,0.4,0.9,1.1,0.9,1.8h-2.1c0-0.3-0.1-0.6-0.3-0.8c-0.3-0.2-0.6-0.3-0.9-0.3
		c-0.3,0-0.6,0.1-0.8,0.2c-0.2,0.1-0.3,0.4-0.3,0.6c0,0.2,0.1,0.5,0.3,0.6c0.4,0.2,0.7,0.3,1.1,0.4c0.5,0.1,0.9,0.2,1.3,0.4
		c1,0.2,1.7,1.1,1.7,2.1c0,0.7-0.3,1.4-0.9,1.8c-0.7,0.5-1.5,0.7-2.4,0.7c-0.6,0-1.2-0.1-1.8-0.4c-0.5-0.2-0.9-0.5-1.2-1
		c-0.3-0.4-0.4-0.9-0.4-1.3h2c0,0.3,0.2,0.7,0.4,0.9c0.3,0.2,0.7,0.3,1,0.3c0.3,0,0.6-0.1,0.9-0.2
		C747.5,6261.6,747.6,6261.4,747.6,6261.1L747.6,6261.1z M755.6,6263.3c-0.1-0.2-0.2-0.5-0.2-0.7c-0.5,0.6-1.2,0.9-2,0.9
		c-0.7,0-1.4-0.2-1.9-0.7c-0.5-0.4-0.8-1-0.8-1.7c0-0.8,0.3-1.5,0.9-1.9c0.8-0.5,1.8-0.7,2.7-0.7h1v-0.5c0-0.3-0.1-0.6-0.3-0.9
		c-0.2-0.2-0.6-0.4-0.9-0.3c-0.3,0-0.6,0.1-0.8,0.3c-0.2,0.2-0.3,0.4-0.3,0.7h-2.1c0-0.5,0.1-0.9,0.4-1.3c0.3-0.4,0.7-0.7,1.2-0.9
		c0.6-0.2,1.1-0.3,1.7-0.3c0.8,0,1.7,0.2,2.3,0.7c0.6,0.5,0.9,1.3,0.9,2.1v3.4c0,0.6,0.1,1.2,0.3,1.7v0.1H755.6z M753.9,6261.9
		c0.3,0,0.6-0.1,0.9-0.2c0.2-0.1,0.5-0.3,0.6-0.6v-1.4h-0.8c-1.1,0-1.6,0.4-1.7,1.1l0,0.1c0,0.2,0.1,0.5,0.3,0.7
		C753.3,6261.8,753.6,6261.9,753.9,6261.9z M763.5,6257.4c-0.3,0-0.5-0.1-0.8-0.1c-0.6-0.1-1.3,0.2-1.6,0.8v5.2h-2.1v-7.9h2l0.1,0.9
		c0.3-0.7,1-1.1,1.8-1.1c0.2,0,0.4,0,0.7,0.1L763.5,6257.4z M769,6257.4c-0.3,0-0.5-0.1-0.8-0.1c-0.6-0.1-1.3,0.2-1.6,0.8v5.2h-2.1
		v-7.9h2l0.1,0.9c0.3-0.7,1-1.1,1.8-1.1c0.2,0,0.4,0,0.7,0.1L769,6257.4z M769.4,6259.3c0-0.7,0.1-1.4,0.5-2.1
		c0.3-0.6,0.7-1.1,1.3-1.4c0.6-0.3,1.3-0.5,2-0.5c1,0,1.9,0.3,2.6,1c0.7,0.7,1.1,1.7,1.1,2.7l0,0.5c0.1,1.1-0.3,2.1-1,2.9
		c-1.5,1.5-3.9,1.5-5.5,0C769.7,6261.5,769.4,6260.5,769.4,6259.3L769.4,6259.3z M771.6,6259.4c0,0.6,0.1,1.2,0.4,1.7
		c0.5,0.7,1.5,0.8,2.1,0.3c0.1-0.1,0.2-0.2,0.3-0.3c0.3-0.6,0.5-1.2,0.4-1.9c0-0.6-0.1-1.2-0.4-1.7c-0.3-0.4-0.7-0.6-1.2-0.6
		c-0.5,0-0.9,0.2-1.2,0.6C771.7,6258.1,771.5,6258.8,771.6,6259.4L771.6,6259.4z M780.5,6263.3h-2.1v-11.2h2.1V6263.3z
		 M784.5,6263.3h-2.1v-11.2h2.1V6263.3z M785.9,6259.3c0-0.7,0.1-1.4,0.5-2.1c0.3-0.6,0.7-1.1,1.3-1.4c0.6-0.3,1.3-0.5,2-0.5
		c1,0,1.9,0.3,2.6,1c0.7,0.7,1.1,1.7,1.1,2.7l0,0.5c0.1,1.1-0.3,2.1-1,2.9c-1.5,1.5-3.9,1.5-5.5,0
		C786.2,6261.5,785.8,6260.5,785.9,6259.3L785.9,6259.3z M788,6259.4c0,0.6,0.1,1.2,0.4,1.7c0.5,0.7,1.5,0.8,2.1,0.3
		c0.1-0.1,0.2-0.2,0.3-0.3c0.3-0.6,0.5-1.2,0.4-1.9c0-0.6-0.1-1.2-0.4-1.7c-0.3-0.4-0.7-0.6-1.2-0.6c-0.5,0-0.9,0.2-1.2,0.6
		C788.1,6258.1,787.9,6258.8,788,6259.4L788,6259.4z"/>
	<path id="Trazado_232392" class="st2" d="M725.6,6343.4v-10.7h3.3c0.9,0,1.7,0.2,2.5,0.6c0.7,0.4,1.3,1,1.7,1.8
		c0.4,0.8,0.6,1.7,0.6,2.7v0.5c0,0.9-0.2,1.8-0.6,2.6c-0.4,0.8-1,1.4-1.7,1.8c-0.8,0.4-1.6,0.7-2.5,0.6H725.6z M727.8,6334.5v7.1
		h1.1c0.8,0,1.5-0.3,2-0.8c0.5-0.7,0.7-1.6,0.7-2.4v-0.6c0.1-0.9-0.2-1.7-0.7-2.5c-0.5-0.6-1.2-0.9-2-0.8L727.8,6334.5z
		 M738.9,6343.5c-1.1,0-2.1-0.3-2.8-1.1c-0.7-0.8-1.1-1.8-1.1-2.8v-0.2c0-0.7,0.1-1.5,0.5-2.1c0.3-0.6,0.7-1.1,1.3-1.5
		c0.6-0.3,1.3-0.5,1.9-0.5c1,0,1.9,0.3,2.6,1c0.7,0.8,1,1.9,0.9,2.9v0.9h-5c0,0.5,0.3,0.9,0.6,1.2c0.4,0.3,0.8,0.5,1.3,0.5
		c0.7,0,1.5-0.3,1.9-0.9l1,1.2c-0.3,0.5-0.8,0.8-1.3,1.1C740.1,6343.4,739.5,6343.5,738.9,6343.5L738.9,6343.5z M738.6,6337
		c-0.4,0-0.8,0.1-1,0.4c-0.3,0.3-0.5,0.8-0.5,1.2h2.9v-0.2c0-0.4-0.1-0.8-0.4-1.1C739.4,6337.1,739,6337,738.6,6337L738.6,6337z
		 M743.8,6343.4v-6.4h-1.2v-1.6h1.2v-0.4c0-0.9,0.3-1.7,0.9-2.3c0.7-0.6,1.6-0.9,2.6-0.8c0.8,0,1.6,0.2,2.4,0.4l-0.3,1.8
		c-0.4-0.1-0.7-0.2-1.1-0.3c-0.3,0-0.6-0.1-0.9-0.1c-1,0-1.5,0.4-1.5,1.3v0.3h1.6v1.6H746v6.4H743.8z M750.7,6343.4h-2.1v-7.9h2.1
		V6343.4z M754.4,6335.5l0.1,0.9c0.5-0.7,1.4-1.1,2.3-1.1c0.7-0.1,1.4,0.2,1.9,0.7c0.5,0.6,0.7,1.4,0.6,2.2v5.1h-2.1v-5.1
		c0-0.4-0.1-0.7-0.3-1c-0.3-0.2-0.6-0.3-1-0.3c-0.6,0-1.1,0.3-1.3,0.8v5.6h-2.1v-7.9H754.4z M763.1,6343.4H761v-7.9h2.1V6343.4z
		 M760.8,6333.4c0-0.3,0.1-0.6,0.3-0.8c0.5-0.4,1.2-0.4,1.7,0c0.2,0.2,0.3,0.5,0.3,0.8c0,0.3-0.1,0.6-0.3,0.8
		c-0.5,0.4-1.2,0.4-1.7,0C761,6334,760.8,6333.7,760.8,6333.4z M768.1,6341.8c0.3,0,0.7-0.1,1-0.3c0.2-0.2,0.4-0.5,0.4-0.9h2
		c0,0.5-0.2,1-0.4,1.5c-0.3,0.4-0.7,0.8-1.2,1c-0.5,0.3-1.1,0.4-1.7,0.4c-1,0.1-2-0.3-2.7-1.1c-0.7-0.8-1-1.9-1-3v-0.1
		c-0.1-1.1,0.3-2.1,1-2.9c0.7-0.7,1.7-1.1,2.7-1.1c0.9,0,1.7,0.3,2.4,0.8c0.6,0.6,0.9,1.4,0.9,2.3h-2c0-0.4-0.1-0.7-0.4-1
		c-0.6-0.5-1.5-0.5-2,0.1c0,0-0.1,0.1-0.1,0.1c-0.3,0.5-0.4,1.1-0.4,1.7v0.2c0,0.6,0.1,1.2,0.4,1.8
		C767.3,6341.7,767.7,6341.9,768.1,6341.8L768.1,6341.8z M774.9,6343.4h-2.1v-7.9h2.1V6343.4z M772.6,6333.4c0-0.3,0.1-0.6,0.3-0.8
		c0.5-0.4,1.2-0.4,1.7,0c0.2,0.2,0.3,0.5,0.3,0.8c0,0.3-0.1,0.6-0.3,0.8c-0.5,0.4-1.2,0.4-1.7,0
		C772.8,6334,772.6,6333.7,772.6,6333.4z M776.3,6339.4c0-0.7,0.1-1.4,0.5-2.1c0.3-0.6,0.7-1.1,1.3-1.4c0.6-0.3,1.3-0.5,2-0.5
		c1,0,1.9,0.3,2.6,1c0.7,0.7,1.1,1.7,1.1,2.7l0,0.5c0.1,1.1-0.3,2.1-1,2.9c-1.5,1.5-3.9,1.5-5.5,0
		C776.6,6341.6,776.2,6340.5,776.3,6339.4L776.3,6339.4z M778.4,6339.5c0,0.6,0.1,1.2,0.4,1.7c0.5,0.7,1.5,0.8,2.1,0.3
		c0.1-0.1,0.2-0.2,0.3-0.3c0.3-0.6,0.5-1.2,0.4-1.9c0-0.6-0.1-1.2-0.4-1.7c-0.3-0.4-0.7-0.6-1.2-0.6c-0.5,0-0.9,0.2-1.2,0.6
		C778.5,6338.2,778.4,6338.8,778.4,6339.5L778.4,6339.5z M780.5,6332.1h2.3l-2,2.3H779L780.5,6332.1z M787.1,6335.5l0.1,0.9
		c0.5-0.7,1.4-1.1,2.3-1.1c0.7-0.1,1.4,0.2,1.9,0.7c0.5,0.6,0.7,1.4,0.6,2.2v5.1h-2.1v-5.1c0-0.4-0.1-0.7-0.3-1
		c-0.3-0.2-0.6-0.3-1-0.3c-0.6,0-1.1,0.3-1.3,0.8v5.6h-2.1v-7.9H787.1z"/>
	<path id="Trazado_232393" class="st3" d="M444.9,6165.7v4h-2.3v-11.4h4.4c0.8,0,1.5,0.1,2.3,0.5c0.6,0.3,1.1,0.7,1.5,1.3
		c0.4,0.6,0.5,1.3,0.5,2c0,1-0.4,2-1.1,2.6c-0.9,0.7-2,1-3.2,1L444.9,6165.7z M444.9,6163.8h2.1c0.5,0,1-0.1,1.4-0.4
		c0.3-0.3,0.5-0.8,0.5-1.2c0-0.5-0.2-1-0.5-1.4c-0.4-0.4-0.9-0.5-1.4-0.5h-2.1V6163.8z M456.5,6169.9c-1.1,0-2.2-0.4-3-1.1
		c-0.8-0.8-1.2-1.9-1.2-3v-0.2c0-0.8,0.2-1.6,0.5-2.3c0.3-0.6,0.8-1.2,1.4-1.5c0.6-0.4,1.3-0.6,2.1-0.5c1-0.1,2,0.3,2.7,1.1
		c0.7,0.9,1.1,2,1,3.1v0.9h-5.4c0.1,0.5,0.3,1,0.7,1.3c0.4,0.3,0.9,0.5,1.4,0.5c0.8,0,1.6-0.3,2-0.9l1.1,1.2
		c-0.4,0.5-0.8,0.9-1.4,1.1C457.8,6169.7,457.2,6169.9,456.5,6169.9L456.5,6169.9z M456.3,6162.9c-0.4,0-0.8,0.2-1.1,0.5
		c-0.3,0.4-0.5,0.8-0.5,1.3h3.1v-0.2c0-0.4-0.1-0.8-0.4-1.2C457.1,6163.1,456.7,6162.9,456.3,6162.9z M466,6163.4
		c-0.3,0-0.5-0.1-0.8-0.1c-0.7-0.1-1.4,0.3-1.7,0.9v5.5h-2.3v-8.5h2.1l0.1,1c0.4-0.7,1.1-1.2,1.9-1.2c0.2,0,0.5,0,0.7,0.1
		L466,6163.4z M469.2,6161.3l0.1,0.9c0.6-0.7,1.5-1.1,2.4-1.1c0.9-0.1,1.8,0.4,2.2,1.3c0.6-0.8,1.5-1.3,2.5-1.3
		c0.8-0.1,1.5,0.2,2,0.8c0.5,0.7,0.7,1.6,0.7,2.4v5.4H477v-5.4c0-0.4-0.1-0.7-0.3-1.1c-0.3-0.3-0.6-0.4-1-0.3c-0.6,0-1.2,0.4-1.4,1
		l0,5.8H472v-5.4c0-0.4-0.1-0.8-0.3-1.1c-0.3-0.2-0.6-0.4-1-0.3c-0.6,0-1.1,0.3-1.4,0.8v6h-2.3v-8.5H469.2z M483.3,6169.7h-2.3v-8.5
		h2.3L483.3,6169.7z M480.9,6159.1c0-0.3,0.1-0.6,0.3-0.8c0.5-0.4,1.3-0.4,1.8,0c0.2,0.2,0.4,0.5,0.3,0.8c0,0.3-0.1,0.6-0.3,0.8
		c-0.5,0.4-1.3,0.4-1.8,0C481.1,6159.7,480.9,6159.4,480.9,6159.1L480.9,6159.1z M487.9,6159.2v2.1h1.4v1.7h-1.4v4.2
		c0,0.2,0,0.5,0.2,0.7c0.2,0.2,0.4,0.2,0.7,0.2c0.2,0,0.4,0,0.7-0.1v1.7c-0.4,0.1-0.9,0.2-1.4,0.2c-1.2,0.2-2.3-0.7-2.4-1.9
		c0-0.2,0-0.4,0-0.5v-4.5h-1.2v-1.7h1.2v-2.1L487.9,6159.2z M494.5,6169.9c-1.1,0-2.2-0.4-3-1.1c-0.8-0.8-1.2-1.9-1.2-3v-0.2
		c0-0.8,0.2-1.6,0.5-2.3c0.3-0.6,0.8-1.2,1.4-1.5c0.6-0.4,1.3-0.6,2.1-0.5c1-0.1,2,0.3,2.7,1.1c0.7,0.9,1.1,2,1,3.1v0.9h-5.4
		c0.1,0.5,0.3,1,0.7,1.3c0.4,0.3,0.9,0.5,1.4,0.5c0.8,0,1.6-0.3,2-0.9l1.1,1.2c-0.4,0.5-0.8,0.9-1.4,1.1
		C495.8,6169.7,495.2,6169.9,494.5,6169.9L494.5,6169.9z M494.2,6162.9c-0.4,0-0.8,0.2-1.1,0.5c-0.3,0.4-0.5,0.8-0.5,1.3h3.1v-0.2
		c0-0.4-0.1-0.8-0.4-1.2C495.1,6163.1,494.6,6162.9,494.2,6162.9z M502.9,6165.4c-0.1-1.1,0.3-2.2,0.9-3.1c0.6-0.8,1.5-1.2,2.4-1.2
		c0.8,0,1.7,0.4,2.2,1l0.1-0.9h2v11.7h-2.3v-4c-0.5,0.6-1.3,0.9-2,0.9c-0.9,0-1.8-0.4-2.4-1.2
		C503.1,6167.7,502.8,6166.6,502.9,6165.4z M505.1,6165.6c0,0.6,0.1,1.3,0.4,1.8c0.3,0.4,0.7,0.7,1.2,0.6c0.6,0,1.2-0.3,1.5-0.8
		v-3.5c-0.3-0.5-0.9-0.8-1.5-0.8c-0.5,0-0.9,0.2-1.2,0.6C505.2,6164.2,505.1,6164.9,505.1,6165.6L505.1,6165.6z M517.3,6168.9
		c-0.6,0.7-1.4,1.1-2.3,1c-0.8,0.1-1.5-0.2-2.1-0.8c-0.5-0.6-0.8-1.5-0.7-2.3v-5.5h2.3v5.5c0,0.9,0.4,1.3,1.2,1.3
		c0.6,0.1,1.3-0.2,1.6-0.8v-6h2.3v8.5h-2.1L517.3,6168.9z M525.1,6169.9c-1.1,0-2.2-0.4-3-1.1c-0.8-0.8-1.2-1.9-1.2-3v-0.2
		c0-0.8,0.2-1.6,0.5-2.3c0.3-0.6,0.8-1.2,1.4-1.5c0.6-0.4,1.3-0.6,2.1-0.5c1-0.1,2,0.3,2.7,1.1c0.7,0.9,1.1,2,1,3.1v0.9h-5.4
		c0.1,0.5,0.3,1,0.7,1.3c0.4,0.3,0.9,0.5,1.4,0.5c0.8,0,1.6-0.3,2-0.9l1.1,1.2c-0.4,0.5-0.8,0.9-1.4,1.1
		C526.4,6169.8,525.8,6169.9,525.1,6169.9L525.1,6169.9z M524.9,6162.9c-0.4,0-0.8,0.2-1.1,0.5c-0.3,0.4-0.5,0.8-0.5,1.3h3.1v-0.2
		c0-0.4-0.1-0.8-0.4-1.2C525.7,6163.1,525.3,6162.9,524.9,6162.9L524.9,6162.9z M537.4,6168.1c0.4,0,0.7-0.1,1-0.3
		c0.3-0.2,0.4-0.6,0.4-0.9h2.1c0,0.6-0.2,1.1-0.5,1.6c-0.3,0.5-0.7,0.9-1.3,1.1c-0.6,0.3-1.2,0.4-1.8,0.4c-1.1,0.1-2.1-0.4-2.9-1.2
		c-0.7-0.9-1.1-2-1-3.2v-0.1c-0.1-1.1,0.3-2.2,1-3.1c0.7-0.8,1.8-1.2,2.9-1.2c0.9,0,1.8,0.3,2.5,0.9c0.6,0.6,1,1.5,1,2.4h-2.1
		c0-0.4-0.1-0.8-0.4-1.1c-0.6-0.6-1.6-0.5-2.1,0.1c0,0-0.1,0.1-0.1,0.1c-0.3,0.6-0.5,1.2-0.4,1.9v0.2c-0.1,0.7,0.1,1.3,0.4,1.9
		C536.4,6167.9,536.9,6168.1,537.4,6168.1L537.4,6168.1z M547.1,6169.7c-0.1-0.2-0.2-0.5-0.2-0.8c-0.5,0.6-1.3,0.9-2.1,0.9
		c-0.8,0-1.5-0.2-2.1-0.7c-0.5-0.5-0.8-1.1-0.8-1.8c0-0.8,0.3-1.6,1-2.1c0.9-0.5,1.9-0.8,2.9-0.7h1v-0.5c0-0.3-0.1-0.7-0.3-0.9
		c-0.2-0.3-0.6-0.4-0.9-0.4c-0.3,0-0.6,0.1-0.9,0.3c-0.2,0.2-0.3,0.5-0.3,0.8h-2.3c0-0.5,0.2-1,0.5-1.4c0.3-0.4,0.8-0.8,1.3-1
		c0.6-0.2,1.2-0.4,1.9-0.4c0.9,0,1.8,0.2,2.5,0.8c0.6,0.6,1,1.4,0.9,2.2v3.7c0,0.6,0.1,1.2,0.3,1.8v0.1H547.1z M545.2,6168.2
		c0.3,0,0.6-0.1,0.9-0.2c0.3-0.1,0.5-0.3,0.6-0.6v-1.5h-0.8c-1.1,0-1.7,0.4-1.8,1.2l0,0.1c0,0.3,0.1,0.5,0.3,0.7
		C544.7,6168.1,544.9,6168.2,545.2,6168.2z M550.4,6165.4c-0.1-1.1,0.3-2.2,0.9-3.1c0.6-0.8,1.5-1.2,2.4-1.2c0.8,0,1.5,0.3,2,0.9
		v-4.3h2.3v12h-2l-0.1-0.9c-0.5,0.7-1.3,1.1-2.2,1.1c-0.9,0-1.8-0.4-2.4-1.2C550.7,6167.7,550.4,6166.6,550.4,6165.4z M552.7,6165.6
		c0,0.6,0.1,1.3,0.4,1.8c0.3,0.4,0.7,0.7,1.2,0.6c0.6,0,1.2-0.3,1.5-0.9v-3.4c-0.3-0.6-0.8-0.9-1.5-0.9
		C553.2,6162.9,552.7,6163.8,552.7,6165.6z M564.7,6169.7c-0.1-0.2-0.2-0.5-0.2-0.8c-0.5,0.6-1.3,0.9-2.1,0.9
		c-0.8,0-1.5-0.2-2.1-0.7c-0.5-0.5-0.8-1.1-0.8-1.8c0-0.8,0.3-1.6,1-2.1c0.9-0.5,1.9-0.8,2.9-0.7h1v-0.5c0-0.3-0.1-0.7-0.3-0.9
		c-0.2-0.3-0.6-0.4-0.9-0.4c-0.3,0-0.6,0.1-0.9,0.3c-0.2,0.2-0.3,0.5-0.3,0.8h-2.3c0-0.5,0.2-1,0.5-1.4c0.3-0.4,0.8-0.8,1.3-1
		c0.6-0.2,1.2-0.4,1.9-0.4c0.9,0,1.8,0.2,2.5,0.8c0.6,0.6,1,1.4,0.9,2.2v3.7c0,0.6,0.1,1.2,0.3,1.8v0.1H564.7z M562.8,6168.2
		c0.3,0,0.6-0.1,0.9-0.2c0.3-0.1,0.5-0.3,0.6-0.6v-1.5h-0.8c-1.1,0-1.7,0.4-1.8,1.2l0,0.1c0,0.3,0.1,0.5,0.3,0.7
		C562.3,6168.1,562.5,6168.2,562.8,6168.2z M576.9,6167.4c0-0.3-0.2-0.5-0.4-0.7c-0.4-0.2-0.9-0.4-1.3-0.4c-2-0.4-3-1.3-3-2.6
		c0-0.7,0.3-1.4,0.9-1.9c0.7-0.5,1.6-0.8,2.4-0.8c0.9,0,1.8,0.2,2.6,0.8c0.6,0.5,1,1.2,1,2h-2.3c0-0.3-0.1-0.6-0.3-0.8
		c-0.3-0.2-0.6-0.3-1-0.3c-0.3,0-0.6,0.1-0.9,0.3c-0.2,0.2-0.3,0.4-0.3,0.7c0,0.3,0.1,0.5,0.4,0.6c0.4,0.2,0.8,0.3,1.2,0.4
		c0.5,0.1,1,0.2,1.4,0.4c1,0.3,1.8,1.2,1.8,2.3c0,0.8-0.4,1.5-1,1.9c-0.8,0.5-1.7,0.8-2.6,0.7c-0.6,0-1.3-0.1-1.9-0.4
		c-0.5-0.2-1-0.6-1.3-1c-0.3-0.4-0.5-0.9-0.5-1.4h2.1c0,0.4,0.2,0.7,0.4,0.9c0.3,0.2,0.7,0.3,1.1,0.3c0.3,0,0.7-0.1,1-0.2
		C576.8,6167.9,576.9,6167.6,576.9,6167.4L576.9,6167.4z M584.5,6169.9c-1.1,0-2.2-0.4-3-1.1c-0.8-0.8-1.2-1.9-1.2-3v-0.2
		c0-0.8,0.2-1.6,0.5-2.3c0.3-0.6,0.8-1.2,1.4-1.5c0.6-0.4,1.3-0.6,2.1-0.5c1-0.1,2,0.3,2.7,1.1c0.7,0.9,1.1,2,1,3.1v0.9h-5.4
		c0.1,0.5,0.3,1,0.7,1.3c0.4,0.3,0.9,0.5,1.4,0.5c0.8,0,1.6-0.3,2-0.9l1.1,1.2c-0.4,0.5-0.8,0.9-1.4,1.1
		C585.8,6169.7,585.1,6169.9,584.5,6169.9L584.5,6169.9z M584.2,6162.9c-0.4,0-0.8,0.2-1.1,0.5c-0.3,0.4-0.5,0.8-0.5,1.3h3.1v-0.2
		c0-0.4-0.1-0.8-0.4-1.2C585,6163.1,584.6,6162.9,584.2,6162.9L584.2,6162.9z M594,6163.4c-0.3,0-0.5-0.1-0.8-0.1
		c-0.7-0.1-1.4,0.3-1.7,0.9v5.5h-2.3v-8.5h2.1l0.1,1c0.4-0.7,1.1-1.2,1.9-1.2c0.2,0,0.5,0,0.7,0.1L594,6163.4z M598.4,6167l1.6-5.7
		h2.4l-2.9,8.5h-2.2l-2.9-8.5h2.4L598.4,6167z M605.7,6169.7h-2.3v-8.5h2.3V6169.7z M603.3,6159.1c0-0.3,0.1-0.6,0.3-0.8
		c0.5-0.4,1.3-0.4,1.8,0c0.2,0.2,0.4,0.5,0.3,0.8c0,0.3-0.1,0.6-0.3,0.8c-0.5,0.4-1.3,0.4-1.8,0
		C603.4,6159.7,603.3,6159.4,603.3,6159.1L603.3,6159.1z M611.1,6168.1c0.4,0,0.7-0.1,1-0.3c0.3-0.2,0.4-0.6,0.4-0.9h2.1
		c0,0.6-0.2,1.1-0.5,1.6c-0.3,0.5-0.7,0.9-1.3,1.1c-0.6,0.3-1.2,0.4-1.8,0.4c-1.1,0.1-2.1-0.4-2.9-1.2c-0.7-0.9-1.1-2-1-3.2v-0.1
		c-0.1-1.1,0.3-2.2,1-3.1c0.7-0.8,1.8-1.2,2.9-1.2c0.9,0,1.8,0.3,2.5,0.9c0.6,0.6,1,1.5,1,2.4h-2.1c0-0.4-0.1-0.8-0.4-1.1
		c-0.6-0.6-1.6-0.5-2.1,0.1c0,0-0.1,0.1-0.1,0.1c-0.3,0.6-0.5,1.2-0.4,1.9v0.2c-0.1,0.7,0.1,1.3,0.4,1.9
		C610.1,6167.9,610.6,6168.1,611.1,6168.1L611.1,6168.1z M618.3,6169.7H616v-8.5h2.3V6169.7z M615.9,6159.1c0-0.3,0.1-0.6,0.3-0.8
		c0.5-0.4,1.3-0.4,1.8,0c0.2,0.2,0.4,0.5,0.3,0.8c0,0.3-0.1,0.6-0.3,0.8c-0.5,0.4-1.3,0.4-1.8,0
		C616,6159.7,615.9,6159.4,615.9,6159.1L615.9,6159.1z M619.8,6165.4c0-0.8,0.2-1.5,0.5-2.2c0.3-0.6,0.8-1.2,1.4-1.5
		c0.6-0.4,1.4-0.6,2.1-0.5c1,0,2,0.3,2.8,1c0.7,0.8,1.2,1.8,1.2,2.8l0,0.6c0.1,1.1-0.3,2.3-1.1,3.1c-1.6,1.6-4.2,1.6-5.8,0
		C620.1,6167.8,619.7,6166.7,619.8,6165.4L619.8,6165.4z M622,6165.6c0,0.6,0.1,1.3,0.5,1.8c0.5,0.7,1.6,0.8,2.3,0.3
		c0.1-0.1,0.2-0.2,0.3-0.3c0.4-0.6,0.5-1.3,0.5-2c0-0.6-0.1-1.3-0.5-1.8c-0.3-0.4-0.8-0.7-1.3-0.6c-0.5,0-1,0.2-1.3,0.6
		C622.1,6164.2,622,6164.9,622,6165.6L622,6165.6z M500.7,6185.9c-1.1,0-2.2-0.4-3-1.1c-0.8-0.8-1.2-1.9-1.2-3v-0.2
		c0-0.8,0.2-1.6,0.5-2.3c0.3-0.6,0.8-1.2,1.4-1.5c0.6-0.4,1.3-0.6,2.1-0.5c1-0.1,2,0.3,2.7,1.1c0.7,0.9,1.1,2,1,3.1v0.9h-5.4
		c0.1,0.5,0.3,1,0.7,1.3c0.4,0.3,0.9,0.5,1.4,0.5c0.8,0,1.6-0.3,2-0.9l1.1,1.2c-0.4,0.5-0.8,0.9-1.4,1.1
		C502,6185.7,501.3,6185.9,500.7,6185.9z M500.4,6178.9c-0.4,0-0.8,0.2-1.1,0.5c-0.3,0.4-0.5,0.8-0.5,1.3h3.1v-0.2
		c0-0.4-0.1-0.8-0.4-1.2C501.2,6179.1,500.8,6178.9,500.4,6178.9z M508.5,6183l1.6-5.7h2.4l-2.9,8.5h-2.2l-2.9-8.5h2.4L508.5,6183z
		 M513,6181.4c0-0.8,0.2-1.5,0.5-2.2c0.3-0.6,0.8-1.2,1.4-1.5c0.6-0.4,1.4-0.6,2.1-0.5c1,0,2,0.3,2.8,1c0.7,0.8,1.2,1.8,1.2,2.8
		l0,0.6c0.1,1.1-0.3,2.3-1.1,3.1c-1.6,1.6-4.2,1.6-5.8,0C513.3,6183.8,512.9,6182.7,513,6181.4L513,6181.4z M515.2,6181.6
		c0,0.6,0.1,1.3,0.5,1.8c0.5,0.7,1.6,0.8,2.3,0.3c0.1-0.1,0.2-0.2,0.3-0.3c0.4-0.6,0.5-1.3,0.5-2c0-0.6-0.1-1.3-0.5-1.8
		c-0.3-0.4-0.8-0.7-1.3-0.6c-0.5,0-1,0.2-1.3,0.6C515.3,6180.2,515.2,6180.9,515.2,6181.6L515.2,6181.6z M524.7,6185.7h-2.3v-12h2.3
		V6185.7z M531.7,6184.9c-0.6,0.7-1.4,1.1-2.3,1c-0.8,0.1-1.5-0.2-2.1-0.8c-0.5-0.6-0.8-1.5-0.7-2.3v-5.5h2.3v5.5
		c0,0.9,0.4,1.3,1.2,1.3c0.6,0.1,1.3-0.2,1.6-0.8v-6h2.3v8.5h-2.1L531.7,6184.9z M539.1,6184.1c0.4,0,0.7-0.1,1-0.3
		c0.3-0.2,0.4-0.6,0.4-0.9h2.1c0,0.6-0.2,1.1-0.5,1.6c-0.3,0.5-0.7,0.9-1.3,1.1c-0.6,0.3-1.2,0.4-1.8,0.4c-1.1,0.1-2.1-0.4-2.9-1.2
		c-0.7-0.9-1.1-2-1-3.2v-0.1c-0.1-1.1,0.3-2.2,1-3.1c0.7-0.8,1.8-1.2,2.9-1.2c0.9,0,1.8,0.3,2.5,0.9c0.6,0.6,1,1.5,1,2.4h-2.1
		c0-0.4-0.1-0.8-0.4-1.1c-0.6-0.6-1.6-0.5-2.1,0.1c0,0-0.1,0.1-0.1,0.1c-0.3,0.6-0.5,1.2-0.4,1.9v0.2c-0.1,0.7,0.1,1.3,0.4,1.9
		C538.1,6183.9,538.6,6184.1,539.1,6184.1L539.1,6184.1z M546.3,6185.7H544v-8.5h2.3V6185.7z M543.9,6175.1c0-0.3,0.1-0.6,0.3-0.8
		c0.5-0.4,1.3-0.4,1.8,0c0.5,0.5,0.5,1.2,0,1.7c-0.5,0.4-1.3,0.4-1.8,0C544,6175.7,543.9,6175.4,543.9,6175.1L543.9,6175.1z
		 M547.8,6181.4c0-0.8,0.2-1.5,0.5-2.2c0.3-0.6,0.8-1.2,1.4-1.5c0.6-0.4,1.4-0.6,2.1-0.5c1,0,2,0.3,2.8,1c0.7,0.8,1.2,1.8,1.2,2.8
		l0,0.6c0.1,1.1-0.3,2.3-1.1,3.1c-1.6,1.6-4.2,1.6-5.8,0C548.1,6183.8,547.7,6182.7,547.8,6181.4L547.8,6181.4z M550,6181.6
		c0,0.6,0.1,1.3,0.5,1.8c0.5,0.7,1.6,0.8,2.3,0.3c0.1-0.1,0.2-0.2,0.3-0.3c0.4-0.6,0.5-1.3,0.5-2c0-0.6-0.1-1.3-0.5-1.8
		c-0.3-0.4-0.8-0.7-1.3-0.6c-0.5,0-1,0.2-1.3,0.6C550.1,6180.2,550,6180.9,550,6181.6L550,6181.6z M559.3,6177.3l0.1,1
		c0.6-0.7,1.5-1.2,2.4-1.1c0.8-0.1,1.5,0.2,2,0.8c0.5,0.7,0.7,1.5,0.7,2.4v5.5h-2.3v-5.4c0-0.4-0.1-0.7-0.3-1
		c-0.3-0.2-0.7-0.4-1-0.3c-0.6,0-1.1,0.3-1.4,0.8v6h-2.3v-8.5L559.3,6177.3z M570,6185.9c-1.1,0-2.2-0.4-3-1.1
		c-0.8-0.8-1.2-1.9-1.2-3v-0.2c0-0.8,0.2-1.6,0.5-2.3c0.3-0.6,0.8-1.2,1.4-1.5c0.6-0.4,1.3-0.6,2.1-0.5c1-0.1,2,0.3,2.7,1.1
		c0.7,0.9,1.1,2,1,3.1v0.9h-5.4c0.1,0.5,0.3,1,0.7,1.3c0.4,0.3,0.9,0.5,1.4,0.5c0.8,0,1.6-0.3,2-0.9l1.1,1.2
		c-0.4,0.5-0.8,0.9-1.4,1.1C571.4,6185.7,570.7,6185.9,570,6185.9z M569.8,6178.9c-0.4,0-0.8,0.2-1.1,0.5c-0.3,0.4-0.5,0.8-0.5,1.3
		h3.1v-0.2c0-0.4-0.1-0.8-0.4-1.2C570.6,6179.1,570.2,6178.9,569.8,6178.9L569.8,6178.9z"/>
	<path id="Trazado_232394" class="st3" d="M419.1,6252.2v-11.4h3.5c0.9,0,1.9,0.2,2.7,0.7c0.8,0.4,1.4,1.1,1.8,1.9
		c0.5,0.9,0.7,1.8,0.7,2.8v0.5c0,1-0.2,2-0.7,2.8c-0.4,0.8-1.1,1.5-1.8,1.9c-0.8,0.5-1.7,0.7-2.7,0.7H419.1z M421.4,6242.7v7.6h1.1
		c0.8,0,1.6-0.3,2.1-0.9c0.5-0.7,0.8-1.7,0.7-2.6v-0.6c0.1-0.9-0.2-1.9-0.7-2.6c-0.5-0.6-1.3-0.9-2.1-0.9H421.4z M433.2,6252.4
		c-1.1,0-2.2-0.4-3-1.1c-0.8-0.8-1.2-1.9-1.2-3v-0.2c0-0.8,0.2-1.6,0.5-2.3c0.3-0.6,0.8-1.2,1.4-1.5c0.6-0.4,1.3-0.6,2.1-0.5
		c1-0.1,2,0.3,2.7,1.1c0.7,0.9,1.1,2,1,3.1v0.9h-5.4c0.1,0.5,0.3,1,0.7,1.3c0.4,0.3,0.9,0.5,1.4,0.5c0.8,0,1.6-0.3,2-0.9l1.1,1.2
		c-0.4,0.5-0.8,0.9-1.4,1.1C434.5,6252.2,433.9,6252.4,433.2,6252.4z M433,6245.4c-0.4,0-0.8,0.2-1.1,0.5c-0.3,0.4-0.5,0.8-0.5,1.3
		h3.1v-0.2c0-0.4-0.1-0.8-0.4-1.2C433.8,6245.6,433.4,6245.4,433,6245.4L433,6245.4z M442.5,6249.9c0-0.3-0.2-0.5-0.4-0.7
		c-0.4-0.2-0.9-0.4-1.3-0.4c-2-0.4-3-1.3-3-2.6c0-0.7,0.3-1.4,0.9-1.9c0.7-0.5,1.6-0.8,2.4-0.8c0.9,0,1.8,0.2,2.6,0.8
		c0.6,0.5,1,1.2,1,2h-2.3c0-0.3-0.1-0.6-0.3-0.8c-0.3-0.2-0.6-0.3-1-0.3c-0.3,0-0.6,0.1-0.9,0.3c-0.2,0.2-0.3,0.4-0.3,0.7
		c0,0.3,0.1,0.5,0.4,0.6c0.4,0.2,0.8,0.3,1.2,0.4c0.5,0.1,1,0.2,1.4,0.4c1.1,0.3,1.8,1.2,1.8,2.3c0,0.8-0.4,1.5-1,1.9
		c-0.8,0.5-1.7,0.8-2.6,0.7c-0.6,0-1.3-0.1-1.9-0.4c-0.5-0.2-1-0.6-1.3-1c-0.3-0.4-0.5-0.9-0.5-1.4h2.1c0,0.4,0.2,0.7,0.4,0.9
		c0.3,0.2,0.7,0.3,1.1,0.3c0.3,0,0.7-0.1,1-0.2C442.4,6250.4,442.5,6250.1,442.5,6249.9L442.5,6249.9z M451.1,6252.2
		c-0.1-0.2-0.2-0.5-0.2-0.8c-0.5,0.6-1.3,0.9-2.1,0.9c-0.8,0-1.5-0.2-2.1-0.7c-0.5-0.5-0.8-1.1-0.8-1.8c0-0.8,0.3-1.6,1-2.1
		c0.9-0.5,1.9-0.8,2.9-0.7h1v-0.5c0-0.3-0.1-0.7-0.3-0.9c-0.2-0.3-0.6-0.4-0.9-0.4c-0.3,0-0.6,0.1-0.9,0.3c-0.2,0.2-0.3,0.5-0.3,0.8
		H446c0-0.5,0.2-1,0.5-1.4c0.3-0.4,0.8-0.8,1.3-1c0.6-0.2,1.2-0.4,1.9-0.4c0.9,0,1.8,0.2,2.5,0.8c0.6,0.6,1,1.4,0.9,2.2v3.7
		c0,0.6,0.1,1.2,0.3,1.8v0.1H451.1z M449.2,6250.6c0.3,0,0.6-0.1,0.9-0.2c0.3-0.1,0.5-0.3,0.6-0.6v-1.5h-0.8c-1.1,0-1.7,0.4-1.8,1.2
		l0,0.1c0,0.3,0.1,0.5,0.3,0.7C448.6,6250.6,448.9,6250.7,449.2,6250.6z M459.5,6245.9c-0.3,0-0.5-0.1-0.8-0.1
		c-0.7-0.1-1.4,0.3-1.7,0.9v5.5h-2.3v-8.5h2.1l0.1,1c0.4-0.7,1.1-1.2,1.9-1.2c0.2,0,0.5,0,0.7,0.1L459.5,6245.9z M465.4,6245.9
		c-0.3,0-0.5-0.1-0.8-0.1c-0.7-0.1-1.4,0.3-1.7,0.9v5.5h-2.3v-8.5h2.1l0.1,1c0.4-0.7,1.1-1.2,1.9-1.2c0.2,0,0.5,0,0.7,0.1
		L465.4,6245.9z M465.8,6247.9c0-0.8,0.2-1.5,0.5-2.2c0.3-0.6,0.8-1.2,1.4-1.5c0.6-0.4,1.4-0.6,2.1-0.5c1,0,2,0.3,2.8,1
		c0.7,0.8,1.2,1.8,1.2,2.8l0,0.6c0.1,1.1-0.3,2.3-1.1,3.1c-1.6,1.6-4.2,1.6-5.8,0C466.1,6250.3,465.8,6249.2,465.8,6247.9
		L465.8,6247.9z M468.1,6248.1c0,0.6,0.1,1.3,0.5,1.8c0.5,0.7,1.6,0.8,2.3,0.3c0.1-0.1,0.2-0.2,0.3-0.3c0.4-0.6,0.5-1.3,0.5-2
		c0-0.6-0.1-1.3-0.5-1.8c-0.3-0.4-0.8-0.7-1.3-0.6c-0.5,0-1,0.2-1.3,0.6C468.2,6246.7,468,6247.4,468.1,6248.1L468.1,6248.1z
		 M477.6,6252.2h-2.3v-12h2.3V6252.2z M481.8,6252.2h-2.3v-12h2.3V6252.2z M488.6,6252.2c-0.1-0.2-0.2-0.5-0.2-0.8
		c-0.5,0.6-1.3,0.9-2.1,0.9c-0.8,0-1.5-0.2-2.1-0.7c-0.5-0.5-0.8-1.1-0.8-1.8c0-0.8,0.3-1.6,1-2.1c0.9-0.5,1.9-0.8,2.9-0.7h1v-0.5
		c0-0.3-0.1-0.7-0.3-0.9c-0.2-0.3-0.6-0.4-0.9-0.4c-0.3,0-0.6,0.1-0.9,0.3c-0.2,0.2-0.3,0.5-0.3,0.8h-2.3c0-0.5,0.2-1,0.5-1.4
		c0.3-0.4,0.8-0.8,1.3-1c0.6-0.2,1.2-0.4,1.9-0.4c0.9,0,1.8,0.2,2.5,0.8c0.6,0.6,1,1.4,0.9,2.2v3.7c0,0.6,0.1,1.2,0.3,1.8v0.1H488.6
		z M486.7,6250.6c0.3,0,0.6-0.1,0.9-0.2c0.3-0.1,0.5-0.3,0.6-0.6v-1.5h-0.8c-1.1,0-1.7,0.4-1.8,1.2l0,0.1c0,0.3,0.1,0.5,0.3,0.7
		C486.1,6250.6,486.4,6250.7,486.7,6250.6z M503.9,6248.1c0.1,1.1-0.3,2.2-0.9,3.1c-0.6,0.8-1.5,1.2-2.4,1.2c-0.8,0-1.5-0.3-2.1-0.9
		v4h-2.3v-11.7h2.1l0.1,0.8c0.5-0.6,1.3-1,2.1-1c1,0,1.9,0.4,2.4,1.2c0.6,0.9,0.9,2.1,0.9,3.2V6248.1z M501.6,6247.9
		c0-0.6-0.1-1.3-0.4-1.8c-0.3-0.4-0.7-0.7-1.2-0.6c-0.6-0.1-1.2,0.3-1.5,0.8v3.5c0.3,0.6,0.9,0.9,1.5,0.8
		C501.1,6250.6,501.6,6249.7,501.6,6247.9L501.6,6247.9z M510,6245.9c-0.3,0-0.5-0.1-0.8-0.1c-0.7-0.1-1.4,0.3-1.7,0.9v5.5h-2.3
		v-8.5h2.1l0.1,1c0.4-0.7,1.1-1.2,1.9-1.2c0.2,0,0.5,0,0.7,0.1L510,6245.9z M510.5,6247.9c0-0.8,0.2-1.5,0.5-2.2
		c0.3-0.6,0.8-1.2,1.4-1.5c0.6-0.4,1.4-0.6,2.1-0.5c1,0,2,0.3,2.8,1c0.7,0.8,1.2,1.8,1.2,2.8l0,0.6c0.1,1.1-0.3,2.3-1.1,3.1
		c-1.6,1.6-4.2,1.6-5.8,0C510.8,6250.3,510.4,6249.2,510.5,6247.9L510.5,6247.9z M512.7,6248.1c0,0.6,0.1,1.3,0.5,1.8
		c0.5,0.7,1.6,0.8,2.3,0.3c0.1-0.1,0.2-0.2,0.3-0.3c0.4-0.6,0.5-1.3,0.5-2c0-0.6-0.1-1.3-0.5-1.8c-0.3-0.4-0.8-0.7-1.3-0.6
		c-0.5,0-1,0.2-1.3,0.6C512.8,6246.7,512.7,6247.4,512.7,6248.1L512.7,6248.1z M523.4,6250.6c0.4,0,0.7-0.1,1-0.3
		c0.3-0.2,0.4-0.6,0.4-0.9h2.1c0,0.6-0.2,1.1-0.5,1.6c-0.3,0.5-0.7,0.9-1.3,1.1c-0.6,0.3-1.2,0.4-1.8,0.4c-1.1,0.1-2.1-0.4-2.9-1.2
		c-0.7-0.9-1.1-2-1-3.2v-0.1c-0.1-1.1,0.3-2.2,1-3.1c0.7-0.8,1.8-1.2,2.9-1.2c0.9,0,1.8,0.3,2.5,0.9c0.6,0.6,1,1.5,1,2.4h-2.1
		c0-0.4-0.1-0.8-0.4-1.1c-0.6-0.6-1.6-0.5-2.1,0.1c0,0-0.1,0.1-0.1,0.1c-0.3,0.6-0.5,1.2-0.4,1.9v0.2c-0.1,0.7,0.1,1.3,0.4,1.9
		C522.4,6250.4,522.9,6250.6,523.4,6250.6L523.4,6250.6z M532.1,6252.4c-1.1,0-2.2-0.4-3-1.1c-0.8-0.8-1.2-1.9-1.2-3v-0.2
		c0-0.8,0.2-1.6,0.5-2.3c0.3-0.6,0.8-1.2,1.4-1.5c0.6-0.4,1.3-0.6,2.1-0.5c1-0.1,2,0.3,2.7,1.1c0.7,0.9,1.1,2,1,3.1v0.9h-5.4
		c0.1,0.5,0.3,1,0.7,1.3c0.4,0.3,0.9,0.5,1.4,0.5c0.8,0,1.6-0.3,2-0.9l1.1,1.2c-0.4,0.5-0.8,0.9-1.4,1.1
		C533.4,6252.2,532.8,6252.4,532.1,6252.4L532.1,6252.4z M531.8,6245.4c-0.4,0-0.8,0.2-1.1,0.5c-0.3,0.4-0.5,0.8-0.5,1.3h3.1v-0.2
		c0-0.4-0.1-0.8-0.4-1.2C532.7,6245.6,532.3,6245.4,531.8,6245.4L531.8,6245.4z M541.4,6249.9c0-0.3-0.2-0.5-0.4-0.7
		c-0.4-0.2-0.9-0.4-1.3-0.4c-2-0.4-3-1.3-3-2.6c0-0.7,0.3-1.4,0.9-1.9c0.7-0.5,1.6-0.8,2.4-0.8c0.9,0,1.8,0.2,2.6,0.8
		c0.6,0.5,1,1.2,1,2h-2.3c0-0.3-0.1-0.6-0.3-0.8c-0.3-0.2-0.6-0.3-1-0.3c-0.3,0-0.6,0.1-0.9,0.3c-0.2,0.2-0.3,0.4-0.3,0.7
		c0,0.3,0.1,0.5,0.4,0.6c0.4,0.2,0.8,0.3,1.2,0.4c0.5,0.1,1,0.2,1.4,0.4c1.1,0.3,1.8,1.2,1.8,2.3c0,0.8-0.4,1.5-1,1.9
		c-0.8,0.5-1.7,0.8-2.6,0.7c-0.6,0-1.3-0.1-1.9-0.4c-0.5-0.2-1-0.6-1.3-1c-0.3-0.4-0.5-0.9-0.5-1.4h2.1c0,0.4,0.2,0.7,0.4,0.9
		c0.3,0.2,0.7,0.3,1.1,0.3c0.3,0,0.7-0.1,1-0.2C541.3,6250.4,541.4,6250.1,541.4,6249.9L541.4,6249.9z M544.7,6247.9
		c0-0.8,0.2-1.5,0.5-2.2c0.3-0.6,0.8-1.2,1.4-1.5c0.6-0.4,1.4-0.6,2.1-0.5c1,0,2,0.3,2.8,1c0.7,0.8,1.2,1.8,1.2,2.8l0,0.6
		c0.1,1.1-0.3,2.3-1.1,3.1c-1.6,1.6-4.2,1.6-5.8,0c-0.8-0.9-1.2-2-1.1-3.2L544.7,6247.9z M547,6248.1c0,0.6,0.1,1.3,0.5,1.8
		c0.5,0.7,1.6,0.8,2.3,0.3c0.1-0.1,0.2-0.2,0.3-0.3c0.4-0.6,0.5-1.3,0.5-2c0-0.6-0.1-1.3-0.5-1.8c-0.3-0.4-0.8-0.7-1.3-0.6
		c-0.5,0-1,0.2-1.3,0.6C547.1,6246.7,546.9,6247.4,547,6248.1L547,6248.1z M558.7,6249.9c0-0.3-0.2-0.5-0.4-0.7
		c-0.4-0.2-0.9-0.4-1.3-0.4c-2-0.4-3-1.3-3-2.6c0-0.7,0.3-1.4,0.9-1.9c0.7-0.5,1.6-0.8,2.4-0.8c0.9,0,1.8,0.2,2.6,0.8
		c0.6,0.5,1,1.2,1,2h-2.3c0-0.3-0.1-0.6-0.3-0.8c-0.3-0.2-0.6-0.3-1-0.3c-0.3,0-0.6,0.1-0.9,0.3c-0.2,0.2-0.3,0.4-0.3,0.7
		c0,0.3,0.1,0.5,0.4,0.6c0.4,0.2,0.8,0.3,1.2,0.4c0.5,0.1,1,0.2,1.4,0.4c1.1,0.3,1.8,1.2,1.8,2.3c0,0.8-0.4,1.5-1,1.9
		c-0.8,0.5-1.7,0.8-2.6,0.7c-0.6,0-1.3-0.1-1.9-0.4c-0.5-0.2-1-0.6-1.3-1c-0.3-0.4-0.5-0.9-0.5-1.4h2.1c0,0.4,0.2,0.7,0.4,0.9
		c0.3,0.2,0.7,0.3,1.1,0.3c0.3,0,0.7-0.1,1-0.2C558.6,6250.4,558.7,6250.1,558.7,6249.9z M566,6247.9c-0.1-1.1,0.3-2.2,0.9-3.1
		c0.6-0.8,1.5-1.2,2.4-1.2c0.8,0,1.5,0.3,2,0.9v-4.3h2.3v12h-2l-0.1-0.9c-0.5,0.7-1.3,1.1-2.2,1.1c-0.9,0-1.8-0.4-2.4-1.2
		C566.2,6250.2,565.9,6249.1,566,6247.9L566,6247.9z M568.3,6248.1c0,0.6,0.1,1.3,0.4,1.8c0.3,0.4,0.7,0.7,1.2,0.6
		c0.6,0,1.2-0.3,1.5-0.9v-3.4c-0.3-0.6-0.8-0.9-1.5-0.9C568.8,6245.4,568.2,6246.3,568.3,6248.1L568.3,6248.1z M579.3,6252.4
		c-1.1,0-2.2-0.4-3-1.1c-0.8-0.8-1.2-1.9-1.2-3v-0.2c0-0.8,0.2-1.6,0.5-2.3c0.3-0.6,0.8-1.2,1.4-1.5c0.6-0.4,1.3-0.6,2.1-0.5
		c1-0.1,2,0.3,2.7,1.1c0.7,0.9,1.1,2,1,3.1v0.9h-5.4c0.1,0.5,0.3,1,0.7,1.3c0.4,0.3,0.9,0.5,1.4,0.5c0.8,0,1.6-0.3,2-0.9l1.1,1.2
		c-0.4,0.5-0.8,0.9-1.4,1.1C580.6,6252.2,579.9,6252.4,579.3,6252.4L579.3,6252.4z M579,6245.4c-0.4,0-0.8,0.2-1.1,0.5
		c-0.3,0.4-0.5,0.8-0.5,1.3h3.1v-0.2c0-0.4-0.1-0.8-0.4-1.2C579.8,6245.6,579.4,6245.4,579,6245.4L579,6245.4z M590.1,6243.8l0.1,1
		c0.6-0.7,1.5-1.2,2.4-1.1c0.8-0.1,1.5,0.2,2,0.8c0.5,0.7,0.7,1.5,0.7,2.4v5.5H593v-5.4c0-0.4-0.1-0.7-0.3-1c-0.3-0.2-0.7-0.4-1-0.3
		c-0.6,0-1.1,0.3-1.4,0.8v6h-2.3v-8.5L590.1,6243.8z M600.8,6252.4c-1.1,0-2.2-0.4-3-1.1c-0.8-0.8-1.2-1.9-1.2-3v-0.2
		c0-0.8,0.2-1.6,0.5-2.3c0.3-0.6,0.8-1.2,1.4-1.5c0.6-0.4,1.3-0.6,2.1-0.5c1-0.1,2,0.3,2.7,1.1c0.7,0.9,1.1,2,1,3.1v0.9h-5.4
		c0.1,0.5,0.3,1,0.7,1.3c0.4,0.3,0.9,0.5,1.4,0.5c0.8,0,1.6-0.3,2-0.9l1.1,1.2c-0.4,0.5-0.8,0.9-1.4,1.1
		C602.2,6252.2,601.5,6252.4,600.8,6252.4L600.8,6252.4z M600.6,6245.4c-0.4,0-0.8,0.2-1.1,0.5c-0.3,0.4-0.5,0.8-0.5,1.3h3.1v-0.2
		c0-0.4-0.1-0.8-0.4-1.2C601.4,6245.6,601,6245.4,600.6,6245.4L600.6,6245.4z M605.3,6247.9c-0.1-1.1,0.3-2.2,0.9-3.1
		c0.6-0.8,1.5-1.2,2.5-1.2c0.8,0,1.6,0.3,2.2,1l0.1-0.8h2v8.2c0,0.7-0.2,1.3-0.5,1.9c-0.3,0.5-0.8,1-1.4,1.2
		c-0.7,0.3-1.4,0.4-2.1,0.4c-0.6,0-1.2-0.1-1.8-0.4c-0.5-0.2-1-0.5-1.3-1l1-1.4c0.5,0.6,1.3,1,2,0.9c0.5,0,1-0.1,1.4-0.5
		c0.4-0.4,0.5-0.9,0.5-1.4v-0.5c-0.5,0.6-1.3,0.9-2.1,0.9c-1,0-1.9-0.4-2.5-1.2C605.5,6250.3,605.2,6249.2,605.3,6247.9
		L605.3,6247.9z M607.5,6248.1c0,0.6,0.1,1.3,0.5,1.8c0.3,0.4,0.8,0.7,1.3,0.7c0.6,0,1.2-0.3,1.5-0.8v-3.6c-0.3-0.5-0.9-0.8-1.5-0.8
		c-0.5,0-1,0.2-1.3,0.7C607.6,6246.7,607.5,6247.4,607.5,6248.1L607.5,6248.1z M614.4,6247.9c0-0.8,0.2-1.5,0.5-2.2
		c0.3-0.6,0.8-1.2,1.4-1.5c0.6-0.4,1.4-0.6,2.1-0.5c1,0,2,0.3,2.8,1c0.7,0.8,1.2,1.8,1.2,2.8l0,0.6c0.1,1.1-0.3,2.3-1.1,3.1
		c-1.6,1.6-4.2,1.6-5.8,0C614.7,6250.3,614.3,6249.2,614.4,6247.9L614.4,6247.9z M616.6,6248.1c0,0.6,0.1,1.3,0.5,1.8
		c0.5,0.7,1.6,0.8,2.3,0.3c0.1-0.1,0.2-0.2,0.3-0.3c0.4-0.6,0.5-1.3,0.5-2c0-0.6-0.1-1.3-0.5-1.8c-0.3-0.4-0.8-0.7-1.3-0.6
		c-0.5,0-1,0.2-1.3,0.6C616.7,6246.7,616.6,6247.4,616.6,6248.1L616.6,6248.1z M627.3,6250.6c0.4,0,0.7-0.1,1-0.3
		c0.3-0.2,0.4-0.6,0.4-0.9h2.1c0,0.6-0.2,1.1-0.5,1.6c-0.3,0.5-0.7,0.9-1.3,1.1c-0.6,0.3-1.2,0.4-1.8,0.4c-1.1,0.1-2.1-0.4-2.9-1.2
		c-0.7-0.9-1.1-2-1-3.2v-0.1c-0.1-1.1,0.3-2.2,1-3.1c0.7-0.8,1.8-1.2,2.9-1.2c0.9,0,1.8,0.3,2.5,0.9c0.6,0.6,1,1.5,1,2.4h-2.1
		c0-0.4-0.1-0.8-0.4-1.1c-0.6-0.6-1.6-0.5-2.1,0.1c0,0-0.1,0.1-0.1,0.1c-0.3,0.6-0.5,1.2-0.4,1.9v0.2c-0.1,0.7,0.1,1.3,0.4,1.9
		C626.4,6250.4,626.8,6250.6,627.3,6250.6L627.3,6250.6z M634.5,6252.2h-2.3v-8.5h2.3V6252.2z M632.1,6241.6c0-0.3,0.1-0.6,0.3-0.8
		c0.5-0.4,1.3-0.4,1.8,0c0.2,0.2,0.4,0.5,0.3,0.8c0,0.3-0.1,0.6-0.3,0.8c-0.5,0.4-1.3,0.4-1.8,0
		C632.2,6242.2,632.1,6241.9,632.1,6241.6z M636,6247.9c0-0.8,0.2-1.5,0.5-2.2c0.3-0.6,0.8-1.2,1.4-1.5c0.6-0.4,1.4-0.6,2.1-0.5
		c1,0,2,0.3,2.8,1c0.7,0.8,1.2,1.8,1.2,2.8l0,0.6c0.1,1.1-0.3,2.3-1.1,3.1c-1.6,1.6-4.2,1.6-5.8,0
		C636.3,6250.3,636,6249.2,636,6247.9L636,6247.9z M638.3,6248.1c0,0.6,0.1,1.3,0.5,1.8c0.5,0.7,1.6,0.8,2.3,0.3
		c0.1-0.1,0.2-0.2,0.3-0.3c0.4-0.6,0.5-1.3,0.5-2c0-0.6-0.1-1.3-0.5-1.8c-0.3-0.4-0.8-0.7-1.3-0.6c-0.5,0-1,0.2-1.3,0.6
		C638.4,6246.7,638.2,6247.4,638.3,6248.1L638.3,6248.1z M650,6249.9c0-0.3-0.2-0.5-0.4-0.7c-0.4-0.2-0.9-0.4-1.3-0.4
		c-2-0.4-3-1.3-3-2.6c0-0.7,0.3-1.4,0.9-1.9c0.7-0.5,1.6-0.8,2.4-0.8c0.9,0,1.8,0.2,2.6,0.8c0.6,0.5,1,1.2,1,2h-2.3
		c0-0.3-0.1-0.6-0.3-0.8c-0.3-0.2-0.6-0.4-1-0.3c-0.3,0-0.6,0.1-0.9,0.3c-0.2,0.2-0.3,0.4-0.3,0.7c0,0.3,0.1,0.5,0.4,0.6
		c0.4,0.2,0.8,0.3,1.2,0.4c0.5,0.1,1,0.2,1.4,0.4c1.1,0.3,1.8,1.2,1.8,2.3c0,0.8-0.4,1.5-1,1.9c-0.8,0.5-1.7,0.8-2.6,0.7
		c-0.6,0-1.3-0.1-1.9-0.4c-0.5-0.2-1-0.6-1.3-1c-0.3-0.4-0.5-0.9-0.5-1.4h2.1c0,0.4,0.2,0.7,0.4,0.9c0.3,0.2,0.7,0.3,1.1,0.3
		c0.3,0,0.7-0.1,1-0.2C649.9,6250.4,650,6250.1,650,6249.9L650,6249.9z M485.1,6266.6c0.4,0,0.7-0.1,1-0.3c0.3-0.2,0.4-0.6,0.4-0.9
		h2.1c0,0.6-0.2,1.1-0.5,1.6c-0.3,0.5-0.7,0.9-1.3,1.1c-0.6,0.3-1.2,0.4-1.8,0.4c-1.1,0.1-2.1-0.4-2.9-1.2c-0.7-0.9-1.1-2-1-3.2
		v-0.1c-0.1-1.1,0.3-2.2,1-3.1c0.7-0.8,1.8-1.2,2.9-1.2c0.9,0,1.8,0.3,2.5,0.9c0.6,0.6,1,1.5,1,2.4h-2.1c0-0.4-0.1-0.8-0.4-1.1
		c-0.6-0.6-1.6-0.5-2.1,0.1c0,0-0.1,0.1-0.1,0.1c-0.3,0.6-0.5,1.2-0.4,1.9v0.2c-0.1,0.7,0.1,1.3,0.4,1.9
		C484.2,6266.4,484.7,6266.6,485.1,6266.6z M489.6,6263.9c0-0.8,0.2-1.5,0.5-2.2c0.3-0.6,0.8-1.2,1.4-1.5c0.6-0.4,1.4-0.6,2.1-0.5
		c1,0,2,0.3,2.8,1c0.8,0.8,1.2,1.8,1.2,2.8l0,0.6c0.1,1.1-0.3,2.3-1.1,3.1c-1.6,1.6-4.2,1.6-5.8,0
		C489.9,6266.3,489.6,6265.2,489.6,6263.9L489.6,6263.9z M491.9,6264.1c0,0.6,0.1,1.3,0.5,1.8c0.5,0.7,1.6,0.8,2.3,0.3
		c0.1-0.1,0.2-0.2,0.3-0.3c0.4-0.6,0.5-1.3,0.5-2c0-0.6-0.1-1.3-0.5-1.8c-0.3-0.4-0.8-0.7-1.3-0.6c-0.5,0-1,0.2-1.3,0.6
		C492,6262.7,491.8,6263.4,491.9,6264.1L491.9,6264.1z M501.1,6259.8l0.1,0.9c0.6-0.7,1.5-1.1,2.4-1.1c0.9-0.1,1.8,0.4,2.2,1.3
		c0.6-0.8,1.5-1.3,2.5-1.3c0.8-0.1,1.5,0.2,2,0.8c0.5,0.7,0.7,1.6,0.7,2.4v5.4h-2.3v-5.4c0-0.4-0.1-0.7-0.3-1.1
		c-0.3-0.3-0.6-0.4-1-0.3c-0.6,0-1.2,0.4-1.4,1l0,5.8h-2.3v-5.4c0-0.4-0.1-0.8-0.3-1.1c-0.3-0.2-0.6-0.4-1-0.3
		c-0.6,0-1.1,0.3-1.4,0.8v6H499v-8.5L501.1,6259.8z M512.5,6263.9c0-0.8,0.2-1.5,0.5-2.2c0.3-0.6,0.8-1.2,1.4-1.5
		c0.6-0.4,1.4-0.6,2.1-0.5c1,0,2,0.3,2.8,1c0.7,0.8,1.2,1.8,1.2,2.8l0,0.6c0.1,1.1-0.3,2.3-1.1,3.1c-1.6,1.6-4.2,1.6-5.8,0
		C512.8,6266.3,512.4,6265.2,512.5,6263.9L512.5,6263.9z M514.8,6264.1c0,0.6,0.1,1.3,0.5,1.8c0.5,0.7,1.6,0.8,2.3,0.3
		c0.1-0.1,0.2-0.2,0.3-0.3c0.4-0.6,0.5-1.3,0.5-2c0-0.6-0.1-1.3-0.5-1.8c-0.3-0.4-0.8-0.7-1.3-0.6c-0.5,0-1,0.2-1.3,0.6
		C514.9,6262.7,514.7,6263.4,514.8,6264.1L514.8,6264.1z M530.5,6265.9c0-0.3-0.2-0.5-0.4-0.7c-0.4-0.2-0.9-0.4-1.3-0.4
		c-2-0.4-3-1.3-3-2.6c0-0.7,0.3-1.4,0.9-1.9c0.7-0.5,1.6-0.8,2.4-0.8c0.9,0,1.8,0.2,2.6,0.8c0.6,0.5,1,1.2,1,2h-2.3
		c0-0.3-0.1-0.6-0.3-0.8c-0.3-0.2-0.6-0.3-1-0.3c-0.3,0-0.6,0.1-0.9,0.3c-0.2,0.2-0.3,0.4-0.3,0.7c0,0.3,0.1,0.5,0.4,0.6
		c0.4,0.2,0.8,0.3,1.2,0.4c0.5,0.1,1,0.2,1.4,0.4c1.1,0.3,1.8,1.2,1.8,2.3c0,0.8-0.4,1.5-1,1.9c-0.8,0.5-1.7,0.8-2.6,0.7
		c-0.6,0-1.3-0.1-1.9-0.4c-0.5-0.2-1-0.6-1.3-1c-0.3-0.4-0.5-0.9-0.5-1.4h2.1c0,0.4,0.2,0.7,0.4,0.9c0.3,0.2,0.7,0.3,1.1,0.3
		c0.3,0,0.7-0.1,1-0.2C530.4,6266.4,530.5,6266.1,530.5,6265.9L530.5,6265.9z M538,6268.4c-1.1,0-2.2-0.4-3-1.1
		c-0.8-0.8-1.2-1.9-1.2-3v-0.2c0-0.8,0.2-1.6,0.5-2.3c0.3-0.6,0.8-1.2,1.4-1.5c0.6-0.4,1.3-0.6,2.1-0.5c1-0.1,2,0.3,2.7,1.1
		c0.7,0.9,1.1,2,1,3.1v0.9h-5.4c0.1,0.5,0.3,1,0.7,1.3c0.4,0.3,0.9,0.5,1.4,0.5c0.8,0,1.6-0.3,2-0.9l1.1,1.2
		c-0.4,0.5-0.8,0.9-1.4,1.1C539.3,6268.2,538.7,6268.4,538,6268.4L538,6268.4z M537.8,6261.4c-0.4,0-0.8,0.2-1.1,0.5
		c-0.3,0.4-0.5,0.8-0.5,1.3h3.1v-0.2c0-0.4-0.1-0.8-0.4-1.2C538.6,6261.6,538.2,6261.4,537.8,6261.4L537.8,6261.4z M547.5,6261.9
		c-0.3,0-0.5-0.1-0.8-0.1c-0.7-0.1-1.4,0.3-1.7,0.9v5.5h-2.3v-8.5h2.1l0.1,1c0.4-0.7,1.1-1.2,1.9-1.2c0.2,0,0.5,0,0.7,0.1
		L547.5,6261.9z M551.9,6265.5l1.6-5.7h2.4l-2.8,8.5h-2.2l-2.9-8.5h2.4L551.9,6265.5z M559.2,6268.2h-2.3v-8.5h2.3V6268.2z
		 M556.8,6257.6c0-0.3,0.1-0.6,0.3-0.8c0.5-0.4,1.3-0.4,1.8,0c0.5,0.5,0.5,1.2,0,1.7c-0.5,0.4-1.3,0.4-1.8,0
		C556.9,6258.2,556.8,6257.9,556.8,6257.6L556.8,6257.6z M564.6,6266.6c0.4,0,0.7-0.1,1-0.3c0.3-0.2,0.4-0.6,0.4-0.9h2.1
		c0,0.6-0.2,1.1-0.5,1.6c-0.3,0.5-0.7,0.9-1.3,1.1c-0.6,0.3-1.2,0.4-1.8,0.4c-1.1,0.1-2.1-0.4-2.9-1.2c-0.7-0.9-1.1-2-1-3.2v-0.1
		c-0.1-1.1,0.3-2.2,1-3.1c0.7-0.8,1.8-1.2,2.9-1.2c0.9,0,1.8,0.3,2.5,0.9c0.6,0.6,1,1.5,1,2.4H566c0-0.4-0.1-0.8-0.4-1.1
		c-0.6-0.6-1.6-0.5-2.1,0.1c0,0-0.1,0.1-0.1,0.1c-0.3,0.6-0.5,1.2-0.4,1.9v0.2c-0.1,0.7,0.1,1.3,0.4,1.9
		C563.7,6266.4,564.1,6266.6,564.6,6266.6L564.6,6266.6z M571.8,6268.2h-2.3v-8.5h2.3V6268.2z M569.4,6257.6c0-0.3,0.1-0.6,0.3-0.8
		c0.5-0.4,1.3-0.4,1.8,0c0.5,0.5,0.5,1.2,0,1.7c-0.5,0.4-1.3,0.4-1.8,0C569.5,6258.2,569.4,6257.9,569.4,6257.6L569.4,6257.6z
		 M573.3,6263.9c0-0.8,0.2-1.5,0.5-2.2c0.3-0.6,0.8-1.2,1.4-1.5c0.6-0.4,1.4-0.6,2.1-0.5c1,0,2,0.3,2.8,1c0.7,0.8,1.2,1.8,1.2,2.8
		l0,0.6c0.1,1.1-0.3,2.3-1.1,3.1c-1.6,1.6-4.2,1.6-5.8,0C573.6,6266.3,573.2,6265.2,573.3,6263.9L573.3,6263.9z M575.6,6264.1
		c0,0.6,0.1,1.3,0.5,1.8c0.5,0.7,1.6,0.8,2.3,0.3c0.1-0.1,0.2-0.2,0.3-0.3c0.4-0.6,0.5-1.3,0.5-2c0-0.6-0.1-1.3-0.5-1.8
		c-0.3-0.4-0.8-0.7-1.3-0.6c-0.5,0-1,0.2-1.3,0.6C575.7,6262.7,575.5,6263.4,575.6,6264.1L575.6,6264.1z M587.3,6265.9
		c0-0.3-0.2-0.5-0.4-0.7c-0.4-0.2-0.9-0.4-1.3-0.4c-2-0.4-3-1.3-3-2.6c0-0.7,0.3-1.4,0.9-1.9c0.7-0.5,1.6-0.8,2.4-0.8
		c0.9,0,1.8,0.2,2.6,0.8c0.6,0.5,1,1.2,1,2h-2.3c0-0.3-0.1-0.6-0.3-0.8c-0.3-0.2-0.6-0.4-1-0.3c-0.3,0-0.6,0.1-0.9,0.3
		c-0.2,0.2-0.3,0.4-0.3,0.7c0,0.3,0.1,0.5,0.4,0.6c0.4,0.2,0.8,0.3,1.2,0.4c0.5,0.1,1,0.2,1.4,0.4c1.1,0.3,1.8,1.2,1.8,2.3
		c0,0.8-0.4,1.5-1,1.9c-0.8,0.5-1.7,0.8-2.6,0.7c-0.6,0-1.3-0.1-1.9-0.4c-0.5-0.2-1-0.6-1.3-1c-0.3-0.4-0.5-0.9-0.5-1.4h2.1
		c0,0.4,0.2,0.7,0.4,0.9c0.3,0.2,0.7,0.3,1.1,0.3c0.3,0,0.7-0.1,1-0.2C587.2,6266.4,587.3,6266.1,587.3,6265.9L587.3,6265.9z"/>
	<path id="Trazado_232395" class="st3" d="M419.8,6331.6v4h-2.3v-11.4h4.4c0.8,0,1.5,0.1,2.3,0.5c0.6,0.3,1.1,0.7,1.5,1.3
		c0.4,0.6,0.5,1.3,0.5,2c0,1-0.4,2-1.1,2.6c-0.9,0.7-2,1-3.2,1L419.8,6331.6z M419.8,6329.7h2.1c0.5,0,1-0.1,1.4-0.4
		c0.3-0.3,0.5-0.8,0.5-1.2c0-0.5-0.2-1-0.5-1.4c-0.4-0.4-0.9-0.5-1.4-0.5h-2.1V6329.7z M430,6335.6h-2.3v-12h2.3L430,6335.6z
		 M436.8,6335.6c-0.1-0.2-0.2-0.5-0.2-0.8c-0.5,0.6-1.3,0.9-2.1,0.9c-0.8,0-1.5-0.2-2.1-0.7c-0.5-0.5-0.8-1.1-0.8-1.8
		c0-0.8,0.3-1.6,1-2.1c0.9-0.5,1.9-0.8,2.9-0.7h1v-0.5c0-0.3-0.1-0.7-0.3-0.9c-0.2-0.3-0.6-0.4-0.9-0.4c-0.3,0-0.6,0.1-0.9,0.3
		c-0.2,0.2-0.3,0.5-0.3,0.8h-2.3c0-0.5,0.2-1,0.5-1.4c0.3-0.4,0.8-0.8,1.3-1c0.6-0.2,1.2-0.4,1.9-0.4c0.9,0,1.8,0.2,2.5,0.8
		c0.6,0.6,1,1.4,0.9,2.2v3.7c0,0.6,0.1,1.2,0.3,1.8v0.1H436.8z M434.9,6334c0.3,0,0.6-0.1,0.9-0.2c0.3-0.1,0.5-0.3,0.6-0.6v-1.5
		h-0.8c-1.1,0-1.7,0.4-1.8,1.2l0,0.1c0,0.3,0.1,0.5,0.3,0.7C434.3,6333.9,434.6,6334,434.9,6334z M442.6,6327.1l0.1,1
		c0.6-0.7,1.5-1.2,2.4-1.1c0.8-0.1,1.5,0.2,2,0.8c0.5,0.7,0.7,1.5,0.7,2.4v5.5h-2.3v-5.4c0-0.4-0.1-0.7-0.3-1
		c-0.3-0.2-0.7-0.4-1-0.3c-0.6,0-1.1,0.3-1.4,0.8v6h-2.3v-8.5H442.6z M452.1,6325v2.1h1.4v1.7h-1.4v4.2c0,0.2,0,0.5,0.2,0.7
		c0.2,0.2,0.4,0.2,0.7,0.2c0.2,0,0.4,0,0.7-0.1v1.7c-0.4,0.1-0.9,0.2-1.4,0.2c-1.2,0.2-2.3-0.7-2.4-1.9c0-0.2,0-0.4,0-0.5v-4.5h-1.2
		v-1.7h1.2v-2.1H452.1z M458.7,6335.7c-1.1,0-2.2-0.4-3-1.1c-0.8-0.8-1.2-1.9-1.2-3v-0.2c0-0.8,0.2-1.6,0.5-2.3
		c0.3-0.6,0.8-1.2,1.4-1.5c0.6-0.4,1.3-0.6,2.1-0.5c1-0.1,2,0.3,2.7,1.1c0.7,0.9,1.1,2,1,3.1v0.9h-5.4c0.1,0.5,0.3,1,0.7,1.3
		c0.4,0.3,0.9,0.5,1.4,0.5c0.8,0,1.6-0.3,2-0.9l1.1,1.2c-0.4,0.5-0.8,0.9-1.4,1.1C460,6335.6,459.4,6335.7,458.7,6335.7
		L458.7,6335.7z M458.5,6328.8c-0.4,0-0.8,0.2-1.1,0.5c-0.3,0.4-0.5,0.8-0.5,1.3h3.1v-0.2c0-0.4-0.1-0.8-0.4-1.2
		C459.3,6328.9,458.9,6328.7,458.5,6328.8L458.5,6328.8z M468.4,6335.6c-0.1-0.2-0.2-0.5-0.2-0.8c-0.5,0.6-1.3,0.9-2.1,0.9
		c-0.8,0-1.5-0.2-2.1-0.7c-0.5-0.5-0.8-1.1-0.8-1.8c0-0.8,0.3-1.6,1-2.1c0.9-0.5,1.9-0.8,2.9-0.7h1v-0.5c0-0.3-0.1-0.7-0.3-0.9
		c-0.2-0.3-0.6-0.4-0.9-0.4c-0.3,0-0.6,0.1-0.9,0.3c-0.2,0.2-0.3,0.5-0.3,0.8h-2.3c0-0.5,0.2-1,0.5-1.4c0.3-0.4,0.8-0.8,1.3-1
		c0.6-0.2,1.2-0.4,1.9-0.4c0.9,0,1.8,0.2,2.5,0.8c0.6,0.6,1,1.4,0.9,2.2v3.7c0,0.6,0.1,1.2,0.3,1.8v0.1H468.4z M466.5,6334
		c0.3,0,0.6-0.1,0.9-0.2c0.3-0.1,0.5-0.3,0.6-0.6v-1.5h-0.8c-1.1,0-1.7,0.4-1.8,1.2l0,0.1c0,0.3,0.1,0.5,0.3,0.7
		C465.9,6333.9,466.2,6334,466.5,6334z M480.9,6335.6c-0.1-0.2-0.2-0.5-0.2-0.8c-0.5,0.6-1.3,0.9-2.1,0.9c-0.8,0-1.5-0.2-2.1-0.7
		c-0.5-0.5-0.8-1.1-0.8-1.8c0-0.8,0.3-1.6,1-2.1c0.9-0.5,1.9-0.8,2.9-0.7h1v-0.5c0-0.3-0.1-0.7-0.3-0.9c-0.2-0.3-0.6-0.4-0.9-0.4
		c-0.3,0-0.6,0.1-0.9,0.3c-0.2,0.2-0.3,0.5-0.3,0.8h-2.3c0-0.5,0.2-1,0.5-1.4c0.3-0.4,0.8-0.8,1.3-1c0.6-0.2,1.2-0.4,1.9-0.4
		c0.9,0,1.8,0.2,2.5,0.8c0.6,0.6,1,1.4,0.9,2.2v3.7c0,0.6,0.1,1.2,0.3,1.8v0.1H480.9z M479.1,6334c0.3,0,0.6-0.1,0.9-0.2
		c0.3-0.1,0.5-0.3,0.6-0.6v-1.5h-0.8c-1.1,0-1.7,0.4-1.8,1.2l0,0.1c0,0.3,0.1,0.5,0.3,0.7C478.5,6333.9,478.8,6334,479.1,6334z
		 M492.2,6331.4c0.1,1.1-0.3,2.2-0.9,3.1c-0.6,0.8-1.5,1.2-2.4,1.2c-0.8,0-1.5-0.3-2.1-0.9v4h-2.3v-11.7h2.1l0.1,0.8
		c0.5-0.6,1.3-1,2.1-1c1,0,1.9,0.4,2.4,1.2c0.6,0.9,0.9,2.1,0.9,3.2L492.2,6331.4z M490,6331.2c0-0.6-0.1-1.3-0.4-1.8
		c-0.3-0.4-0.7-0.7-1.2-0.6c-0.6-0.1-1.2,0.3-1.5,0.8v3.5c0.3,0.6,0.9,0.9,1.5,0.8C489.4,6333.9,490,6333,490,6331.2L490,6331.2z
		 M496,6335.6h-2.3v-12h2.3V6335.6z M500.3,6335.6H498v-8.5h2.3V6335.6z M497.9,6324.9c0-0.3,0.1-0.6,0.3-0.8c0.5-0.4,1.3-0.4,1.8,0
		c0.2,0.2,0.4,0.5,0.3,0.8c0,0.3-0.1,0.6-0.3,0.8c-0.5,0.4-1.3,0.4-1.8,0C498,6325.5,497.9,6325.2,497.9,6324.9L497.9,6324.9z
		 M505.6,6333.9c0.4,0,0.7-0.1,1-0.3c0.3-0.2,0.4-0.6,0.4-0.9h2.1c0,0.6-0.2,1.1-0.5,1.6c-0.3,0.5-0.7,0.9-1.3,1.1
		c-0.6,0.3-1.2,0.4-1.8,0.4c-1.1,0.1-2.1-0.4-2.9-1.2c-0.7-0.9-1.1-2-1-3.2v-0.1c-0.1-1.1,0.3-2.2,1-3.1c0.7-0.8,1.8-1.2,2.9-1.2
		c0.9,0,1.8,0.3,2.5,0.9c0.6,0.6,1,1.5,1,2.4h-2.1c0-0.4-0.1-0.8-0.4-1.1c-0.6-0.6-1.6-0.5-2.1,0.1c0,0-0.1,0.1-0.1,0.1
		c-0.3,0.6-0.5,1.2-0.4,1.9v0.2c-0.1,0.7,0.1,1.3,0.4,1.9C504.7,6333.7,505.2,6333.9,505.6,6333.9L505.6,6333.9z M515.4,6335.6
		c-0.1-0.2-0.2-0.5-0.2-0.8c-0.5,0.6-1.3,0.9-2.1,0.9c-0.8,0-1.5-0.2-2.1-0.7c-0.5-0.5-0.8-1.1-0.8-1.8c0-0.8,0.3-1.6,1-2.1
		c0.9-0.5,1.9-0.8,2.9-0.7h1v-0.5c0-0.3-0.1-0.7-0.3-0.9c-0.2-0.3-0.6-0.4-0.9-0.4c-0.3,0-0.6,0.1-0.9,0.3c-0.2,0.2-0.3,0.5-0.3,0.8
		h-2.3c0-0.5,0.2-1,0.5-1.4c0.3-0.4,0.8-0.8,1.3-1c0.6-0.2,1.2-0.4,1.9-0.4c0.9,0,1.8,0.2,2.5,0.8c0.6,0.6,1,1.4,0.9,2.2v3.7
		c0,0.6,0.1,1.2,0.3,1.8v0.1H515.4z M513.5,6334c0.3,0,0.6-0.1,0.9-0.2c0.3-0.1,0.5-0.3,0.6-0.6v-1.5h-0.8c-1.1,0-1.7,0.4-1.8,1.2
		l0,0.1c0,0.3,0.1,0.5,0.3,0.7C512.9,6333.9,513.2,6334,513.5,6334z M522.6,6333.9c0.4,0,0.7-0.1,1-0.3c0.3-0.2,0.4-0.6,0.4-0.9h2.1
		c0,0.6-0.2,1.1-0.5,1.6c-0.3,0.5-0.7,0.9-1.3,1.1c-0.6,0.3-1.2,0.4-1.8,0.4c-1.1,0.1-2.1-0.4-2.9-1.2c-0.7-0.9-1.1-2-1-3.2v-0.1
		c-0.1-1.1,0.3-2.2,1-3.1c0.7-0.8,1.8-1.2,2.9-1.2c0.9,0,1.8,0.3,2.5,0.9c0.6,0.6,1,1.5,1,2.4H524c0-0.4-0.1-0.8-0.4-1.1
		c-0.6-0.6-1.6-0.5-2.1,0.1c0,0-0.1,0.1-0.1,0.1c-0.3,0.6-0.5,1.2-0.4,1.9v0.2c-0.1,0.7,0.1,1.3,0.4,1.9
		C521.6,6333.7,522.1,6333.9,522.6,6333.9z M529.8,6335.6h-2.3v-8.5h2.3V6335.6z M527.4,6324.9c0-0.3,0.1-0.6,0.3-0.8
		c0.5-0.4,1.3-0.4,1.8,0c0.2,0.2,0.4,0.5,0.3,0.8c0,0.3-0.1,0.6-0.3,0.8c-0.5,0.4-1.3,0.4-1.8,0
		C527.5,6325.5,527.4,6325.2,527.4,6324.9L527.4,6324.9z M531.3,6331.3c0-0.8,0.2-1.5,0.5-2.2c0.3-0.6,0.8-1.2,1.4-1.5
		c0.6-0.4,1.4-0.6,2.1-0.5c1,0,2,0.3,2.8,1c0.7,0.8,1.2,1.8,1.2,2.8l0,0.6c0.1,1.1-0.3,2.3-1.1,3.1c-1.6,1.6-4.2,1.6-5.8,0
		C531.6,6333.7,531.2,6332.5,531.3,6331.3L531.3,6331.3z M533.5,6331.4c0,0.6,0.1,1.3,0.5,1.8c0.5,0.7,1.6,0.8,2.3,0.3
		c0.1-0.1,0.2-0.2,0.3-0.3c0.4-0.6,0.5-1.3,0.5-2c0-0.6-0.1-1.3-0.5-1.8c-0.3-0.4-0.8-0.7-1.3-0.6c-0.5,0-1,0.2-1.3,0.6
		C533.6,6330,533.5,6330.7,533.5,6331.4L533.5,6331.4z M542.8,6327.1l0.1,1c0.6-0.7,1.5-1.2,2.4-1.1c0.8-0.1,1.5,0.2,2,0.8
		c0.5,0.7,0.7,1.5,0.7,2.4v5.5h-2.3v-5.4c0-0.4-0.1-0.7-0.3-1c-0.3-0.2-0.7-0.4-1-0.3c-0.6,0-1.1,0.3-1.4,0.8v6h-2.3v-8.5
		L542.8,6327.1z M553.5,6335.7c-1.1,0-2.2-0.4-3-1.1c-0.8-0.8-1.2-1.9-1.2-3v-0.2c0-0.8,0.2-1.6,0.5-2.3c0.3-0.6,0.8-1.2,1.4-1.5
		c0.6-0.4,1.3-0.6,2.1-0.5c1-0.1,2,0.3,2.7,1.1c0.7,0.9,1.1,2,1,3.1v0.9h-5.4c0.1,0.5,0.3,1,0.7,1.3c0.4,0.3,0.9,0.5,1.4,0.5
		c0.8,0,1.6-0.3,2-0.9l1.1,1.2c-0.4,0.5-0.8,0.9-1.4,1.1C554.8,6335.6,554.2,6335.7,553.5,6335.7L553.5,6335.7z M553.3,6328.8
		c-0.4,0-0.8,0.2-1.1,0.5c-0.3,0.4-0.5,0.8-0.5,1.3h3.1v-0.2c0-0.4-0.1-0.8-0.4-1.2C554.1,6328.9,553.7,6328.7,553.3,6328.8
		L553.3,6328.8z M562.9,6333.2c0-0.3-0.2-0.5-0.4-0.7c-0.4-0.2-0.9-0.4-1.3-0.4c-2-0.4-3-1.3-3-2.6c0-0.7,0.3-1.4,0.9-1.9
		c0.7-0.5,1.6-0.8,2.4-0.8c0.9,0,1.8,0.2,2.6,0.8c0.6,0.5,1,1.2,1,2h-2.3c0-0.3-0.1-0.6-0.3-0.8c-0.3-0.2-0.6-0.3-1-0.3
		c-0.3,0-0.6,0.1-0.9,0.3c-0.2,0.2-0.3,0.4-0.3,0.7c0,0.3,0.1,0.5,0.4,0.6c0.4,0.2,0.8,0.3,1.2,0.4c0.5,0.1,1,0.2,1.4,0.4
		c1.1,0.3,1.8,1.2,1.8,2.3c0,0.8-0.4,1.5-1,1.9c-0.8,0.5-1.7,0.8-2.6,0.7c-0.6,0-1.3-0.1-1.9-0.4c-0.5-0.2-1-0.6-1.3-1
		c-0.3-0.4-0.5-0.9-0.5-1.4h2.1c0,0.4,0.2,0.7,0.4,0.9c0.3,0.2,0.7,0.3,1.1,0.3c0.3,0,0.7-0.1,1-0.2
		C562.7,6333.7,562.9,6333.5,562.9,6333.2L562.9,6333.2z M570.1,6331.3c-0.1-1.1,0.3-2.2,0.9-3.1c0.6-0.8,1.5-1.2,2.4-1.2
		c0.8,0,1.5,0.3,2,0.9v-4.3h2.3v12h-2l-0.1-0.9c-0.5,0.7-1.3,1.1-2.2,1.1c-0.9,0-1.8-0.4-2.4-1.2
		C570.4,6333.6,570.1,6332.4,570.1,6331.3L570.1,6331.3z M572.4,6331.4c0,0.6,0.1,1.3,0.4,1.8c0.3,0.4,0.7,0.7,1.2,0.6
		c0.6,0,1.2-0.3,1.5-0.9v-3.3c-0.3-0.6-0.8-0.9-1.5-0.9C572.9,6328.8,572.4,6329.7,572.4,6331.4L572.4,6331.4z M581.9,6335.6h-2.3
		v-8.5h2.3V6335.6z M579.5,6324.9c0-0.3,0.1-0.6,0.3-0.8c0.5-0.4,1.3-0.4,1.8,0c0.2,0.2,0.4,0.5,0.3,0.8c0,0.3-0.1,0.6-0.3,0.8
		c-0.5,0.4-1.3,0.4-1.8,0C579.6,6325.5,579.5,6325.2,579.5,6324.9L579.5,6324.9z M588.3,6333.2c0-0.3-0.2-0.5-0.4-0.7
		c-0.4-0.2-0.9-0.4-1.3-0.4c-2-0.4-3-1.3-3-2.6c0-0.7,0.3-1.4,0.9-1.9c0.7-0.5,1.6-0.8,2.4-0.8c0.9,0,1.8,0.2,2.6,0.8
		c0.6,0.5,1,1.2,1,2h-2.3c0-0.3-0.1-0.6-0.3-0.8c-0.3-0.2-0.6-0.3-1-0.3c-0.3,0-0.6,0.1-0.9,0.3c-0.2,0.2-0.3,0.4-0.3,0.7
		c0,0.3,0.1,0.5,0.4,0.6c0.4,0.2,0.8,0.3,1.2,0.4c0.5,0.1,1,0.2,1.4,0.4c1.1,0.3,1.8,1.2,1.8,2.3c0,0.8-0.4,1.5-1,1.9
		c-0.8,0.5-1.7,0.8-2.6,0.7c-0.6,0-1.3-0.1-1.9-0.4c-0.5-0.2-1-0.6-1.3-1c-0.3-0.4-0.5-0.9-0.5-1.4h2.1c0,0.4,0.2,0.7,0.4,0.9
		c0.3,0.2,0.7,0.3,1.1,0.3c0.3,0,0.7-0.1,1-0.2C588.2,6333.7,588.3,6333.5,588.3,6333.2L588.3,6333.2z M594.7,6325v2.1h1.4v1.7h-1.4
		v4.2c0,0.2,0,0.5,0.2,0.7c0.2,0.2,0.4,0.2,0.7,0.2c0.2,0,0.4,0,0.7-0.1v1.7c-0.4,0.1-0.9,0.2-1.4,0.2c-1.2,0.2-2.3-0.7-2.4-1.9
		c0-0.2,0-0.4,0-0.5v-4.5h-1.2v-1.7h1.2v-2.1L594.7,6325z M602.1,6329.2c-0.3,0-0.5-0.1-0.8-0.1c-0.7-0.1-1.4,0.3-1.7,0.9v5.5h-2.3
		v-8.5h2.1l0.1,1c0.4-0.7,1.1-1.2,1.9-1.2c0.2,0,0.5,0,0.7,0.1L602.1,6329.2z M605.6,6335.6h-2.3v-8.5h2.3V6335.6z M603.2,6324.9
		c0-0.3,0.1-0.6,0.3-0.8c0.5-0.4,1.3-0.4,1.8,0c0.2,0.2,0.4,0.5,0.3,0.8c0,0.3-0.1,0.6-0.3,0.8c-0.5,0.4-1.3,0.4-1.8,0
		C603.3,6325.5,603.2,6325.2,603.2,6324.9z M615.1,6331.4c0.1,1.1-0.2,2.2-0.9,3.2c-0.6,0.8-1.5,1.2-2.4,1.1c-0.9,0-1.7-0.4-2.2-1.1
		l-0.1,0.9h-2v-12h2.3v4.3c0.5-0.6,1.3-0.9,2.1-0.9c0.9,0,1.9,0.4,2.4,1.1c0.6,0.9,0.9,2.1,0.9,3.2L615.1,6331.4z M612.8,6331.2
		c0-0.7-0.1-1.3-0.4-1.9c-0.3-0.4-0.7-0.6-1.2-0.6c-0.6-0.1-1.2,0.3-1.5,0.9v3.3c0.3,0.6,0.9,0.9,1.5,0.9c0.7,0,1.3-0.4,1.4-1.1
		C612.8,6332.3,612.8,6331.8,612.8,6331.2L612.8,6331.2z M621.5,6334.7c-0.6,0.7-1.4,1.1-2.3,1c-0.8,0.1-1.5-0.2-2.1-0.8
		c-0.5-0.6-0.8-1.5-0.7-2.3v-5.5h2.3v5.5c0,0.9,0.4,1.3,1.2,1.3c0.6,0.1,1.3-0.2,1.6-0.8v-6h2.3v8.5h-2.1L621.5,6334.7z
		 M627.8,6335.6h-2.3v-8.5h2.3V6335.6z M625.4,6324.9c0-0.3,0.1-0.6,0.3-0.8c0.5-0.4,1.3-0.4,1.8,0c0.2,0.2,0.4,0.5,0.3,0.8
		c0,0.3-0.1,0.6-0.3,0.8c-0.5,0.4-1.3,0.4-1.8,0C625.5,6325.5,625.4,6325.2,625.4,6324.9z M629.3,6331.3c-0.1-1.1,0.3-2.2,0.9-3.1
		c0.6-0.8,1.5-1.2,2.4-1.2c0.8,0,1.5,0.3,2,0.9v-4.3h2.3v12h-2l-0.1-0.9c-0.5,0.7-1.3,1.1-2.2,1.1c-0.9,0-1.8-0.4-2.4-1.2
		C629.6,6333.6,629.2,6332.4,629.3,6331.3L629.3,6331.3z M631.6,6331.4c0,0.6,0.1,1.3,0.4,1.8c0.3,0.4,0.7,0.7,1.2,0.6
		c0.6,0,1.2-0.3,1.5-0.9v-3.4c-0.3-0.6-0.8-0.9-1.5-0.9C632.1,6328.8,631.6,6329.7,631.6,6331.4L631.6,6331.4z M643.6,6335.6
		c-0.1-0.2-0.2-0.5-0.2-0.8c-0.5,0.6-1.3,0.9-2.1,0.9c-0.8,0-1.5-0.2-2.1-0.7c-0.5-0.5-0.8-1.1-0.8-1.8c0-0.8,0.3-1.6,1-2.1
		c0.9-0.5,1.9-0.8,2.9-0.7h1v-0.5c0-0.3-0.1-0.7-0.3-0.9c-0.2-0.3-0.6-0.4-0.9-0.4c-0.3,0-0.6,0.1-0.9,0.3c-0.2,0.2-0.3,0.5-0.3,0.8
		h-2.3c0-0.5,0.2-1,0.5-1.4c0.3-0.4,0.8-0.8,1.3-1c0.6-0.2,1.2-0.4,1.9-0.4c0.9,0,1.8,0.2,2.5,0.8c0.6,0.6,1,1.4,0.9,2.2v3.7
		c0,0.6,0.1,1.2,0.3,1.8v0.1H643.6z M641.7,6334c0.3,0,0.6-0.1,0.9-0.2c0.3-0.1,0.5-0.3,0.6-0.6v-1.5h-0.8c-1.1,0-1.7,0.4-1.8,1.2
		l0,0.1c0,0.3,0.1,0.5,0.3,0.7C641.1,6333.9,641.4,6334,641.7,6334z M651.8,6333.2c0-0.3-0.2-0.5-0.4-0.7c-0.4-0.2-0.9-0.4-1.3-0.4
		c-2-0.4-3-1.3-3-2.6c0-0.7,0.3-1.4,0.9-1.9c0.7-0.5,1.6-0.8,2.4-0.8c0.9,0,1.8,0.2,2.6,0.8c0.6,0.5,1,1.2,1,2h-2.3
		c0-0.3-0.1-0.6-0.3-0.8c-0.3-0.2-0.6-0.3-1-0.3c-0.3,0-0.6,0.1-0.9,0.3c-0.2,0.2-0.3,0.4-0.3,0.7c0,0.3,0.1,0.5,0.4,0.6
		c0.4,0.2,0.8,0.3,1.2,0.4c0.5,0.1,1,0.2,1.4,0.4c1.1,0.3,1.8,1.2,1.8,2.3c0,0.8-0.4,1.5-1,1.9c-0.8,0.5-1.7,0.8-2.6,0.7
		c-0.6,0-1.3-0.1-1.9-0.4c-0.5-0.2-1-0.6-1.3-1c-0.3-0.4-0.5-0.9-0.5-1.4h2.1c0,0.4,0.2,0.7,0.4,0.9c0.3,0.2,0.7,0.3,1.1,0.3
		c0.3,0,0.7-0.1,1-0.2C651.7,6333.7,651.8,6333.5,651.8,6333.2L651.8,6333.2z M503.1,6343.1l0.1,0.9c0.6-0.7,1.5-1.1,2.4-1.1
		c0.9-0.1,1.8,0.4,2.2,1.3c0.6-0.8,1.5-1.3,2.5-1.3c0.8-0.1,1.5,0.2,2,0.8c0.5,0.7,0.7,1.6,0.7,2.4v5.4h-2.3v-5.4
		c0-0.4-0.1-0.7-0.3-1.1c-0.3-0.3-0.6-0.4-1-0.3c-0.6,0-1.2,0.4-1.4,1l0,5.8h-2.3v-5.4c0-0.4-0.1-0.8-0.3-1.1
		c-0.3-0.2-0.6-0.4-1-0.3c-0.6,0-1.1,0.3-1.4,0.8v6H501v-8.5H503.1z M519.9,6350.7c-0.6,0.7-1.4,1.1-2.3,1c-0.8,0.1-1.5-0.2-2.1-0.8
		c-0.5-0.6-0.8-1.5-0.7-2.3v-5.5h2.3v5.5c0,0.9,0.4,1.3,1.2,1.3c0.6,0.1,1.3-0.2,1.6-0.8v-6h2.3v8.5H520L519.9,6350.7z
		 M526.2,6351.6h-2.3v-12h2.3V6351.6z M530.8,6341v2.1h1.4v1.7h-1.4v4.2c0,0.2,0,0.5,0.2,0.7c0.2,0.2,0.4,0.2,0.7,0.2
		c0.2,0,0.4,0,0.7-0.1v1.7c-0.4,0.1-0.9,0.2-1.4,0.2c-1.2,0.2-2.3-0.7-2.4-1.9c0-0.2,0-0.4,0-0.5v-4.5h-1.2v-1.7h1.2v-2.1H530.8z
		 M535.9,6351.6h-2.3v-8.5h2.3V6351.6z M533.5,6340.9c0-0.3,0.1-0.6,0.3-0.8c0.5-0.4,1.3-0.4,1.8,0c0.5,0.5,0.5,1.2,0,1.7
		c-0.5,0.4-1.3,0.4-1.8,0C533.6,6341.5,533.5,6341.2,533.5,6340.9L533.5,6340.9z M539.8,6343.1l0.1,1c0.6-0.7,1.5-1.2,2.4-1.1
		c0.8-0.1,1.5,0.2,2,0.8c0.5,0.7,0.7,1.5,0.7,2.4v5.5h-2.3v-5.4c0-0.4-0.1-0.7-0.3-1c-0.3-0.2-0.7-0.4-1-0.3c-0.6,0-1.1,0.3-1.4,0.8
		v6h-2.3v-8.5H539.8z M549.1,6351.6h-2.3v-8.5h2.3V6351.6z M546.7,6340.9c0-0.3,0.1-0.6,0.3-0.8c0.5-0.4,1.3-0.4,1.8,0
		c0.5,0.5,0.5,1.2,0,1.7c-0.5,0.4-1.3,0.4-1.8,0C546.8,6341.5,546.7,6341.2,546.7,6340.9L546.7,6340.9z M554.1,6348.8l1.6-5.7h2.4
		l-2.8,8.5H553l-2.9-8.5h2.4L554.1,6348.8z M562.8,6351.7c-1.1,0-2.2-0.4-3-1.1c-0.8-0.8-1.2-1.9-1.2-3v-0.2c0-0.8,0.2-1.6,0.5-2.3
		c0.3-0.6,0.8-1.2,1.4-1.5c0.6-0.4,1.3-0.6,2.1-0.5c1-0.1,2,0.3,2.7,1.1c0.7,0.9,1.1,2,1,3.1v0.9h-5.4c0.1,0.5,0.3,1,0.7,1.3
		c0.4,0.3,0.9,0.5,1.4,0.5c0.8,0,1.6-0.3,2-0.9l1.1,1.2c-0.4,0.5-0.8,0.9-1.4,1.1C564.1,6351.6,563.5,6351.7,562.8,6351.7
		L562.8,6351.7z M562.5,6344.8c-0.4,0-0.8,0.2-1.1,0.5c-0.3,0.4-0.5,0.8-0.5,1.3h3.1v-0.2c0-0.4-0.1-0.8-0.4-1.2
		C563.4,6344.9,562.9,6344.7,562.5,6344.8L562.5,6344.8z M569.9,6351.6h-2.3v-12h2.3L569.9,6351.6z"/>
	<path id="Trazado_232396" class="st3" d="M972.2,6126.5h-1.9v4.2H968v-11.4h4.2c1.1-0.1,2.2,0.2,3.1,0.9c0.7,0.6,1.1,1.6,1.1,2.5
		c0,0.7-0.2,1.4-0.5,1.9c-0.4,0.6-0.9,1-1.5,1.2l2.5,4.6v0.1h-2.5L972.2,6126.5z M970.4,6124.6h1.9c0.5,0,1-0.1,1.4-0.4
		c0.3-0.3,0.5-0.8,0.5-1.2c0-0.5-0.1-0.9-0.5-1.3c-0.4-0.3-0.9-0.5-1.4-0.5h-1.9L970.4,6124.6z M982,6130.8c-1.1,0-2.2-0.4-3-1.1
		c-0.8-0.8-1.2-1.9-1.2-3v-0.2c0-0.8,0.2-1.6,0.5-2.3c0.3-0.6,0.8-1.2,1.4-1.5c0.6-0.4,1.3-0.6,2.1-0.5c1-0.1,2,0.3,2.7,1.1
		c0.7,0.9,1.1,2,1,3.1v0.9h-5.4c0.1,0.5,0.3,1,0.7,1.3c0.4,0.3,0.9,0.5,1.4,0.5c0.8,0,1.6-0.3,2-0.9l1.1,1.2
		c-0.4,0.5-0.8,0.9-1.4,1.1C983.3,6130.7,982.6,6130.8,982,6130.8L982,6130.8z M981.7,6123.9c-0.4,0-0.8,0.2-1.1,0.5
		c-0.3,0.4-0.5,0.8-0.5,1.3h3.1v-0.2c0-0.4-0.1-0.8-0.4-1.2C982.5,6124,982.1,6123.9,981.7,6123.9L981.7,6123.9z M991.8,6129.8
		c-0.6,0.7-1.4,1.1-2.3,1c-0.8,0.1-1.5-0.2-2.1-0.8c-0.5-0.6-0.8-1.5-0.7-2.3v-5.5h2.3v5.5c0,0.9,0.4,1.3,1.2,1.3
		c0.6,0.1,1.3-0.2,1.6-0.8v-6h2.3v8.5h-2.1L991.8,6129.8z M998.4,6120.1v2.1h1.4v1.7h-1.4v4.2c0,0.2,0,0.5,0.2,0.7
		c0.2,0.2,0.4,0.2,0.7,0.2c0.2,0,0.4,0,0.7-0.1v1.7c-0.4,0.1-0.9,0.2-1.4,0.2c-1.2,0.2-2.3-0.7-2.4-1.9c0-0.2,0-0.4,0-0.5v-4.5h-1.2
		v-1.7h1.2v-2.1L998.4,6120.1z M1003.5,6130.7h-2.3v-8.5h2.3L1003.5,6130.7z M1001.1,6120c0-0.3,0.1-0.6,0.3-0.8
		c0.5-0.4,1.3-0.4,1.8,0c0.2,0.2,0.4,0.5,0.3,0.8c0,0.3-0.1,0.6-0.3,0.8c-0.5,0.4-1.3,0.4-1.8,0
		C1001.2,6120.6,1001.1,6120.3,1001.1,6120z M1007.7,6130.7h-2.3v-12h2.3V6130.7z M1012,6130.7h-2.3v-8.5h2.3L1012,6130.7z
		 M1009.6,6120c0-0.3,0.1-0.6,0.3-0.8c0.5-0.4,1.3-0.4,1.8,0c0.2,0.2,0.4,0.5,0.3,0.8c0,0.3-0.1,0.6-0.3,0.8c-0.5,0.4-1.3,0.4-1.8,0
		C1009.7,6120.6,1009.5,6120.3,1009.6,6120L1009.6,6120z M1016.4,6128.8h4.1v1.8h-7v-1.4l4-5.3h-3.9v-1.8h6.8v1.3L1016.4,6128.8z
		 M1026.9,6130.7c-0.1-0.2-0.2-0.5-0.2-0.8c-0.5,0.6-1.3,0.9-2.1,0.9c-0.8,0-1.5-0.2-2.1-0.7c-0.5-0.5-0.8-1.1-0.8-1.8
		c0-0.8,0.3-1.6,1-2.1c0.9-0.5,1.9-0.8,2.9-0.7h1v-0.5c0-0.3-0.1-0.7-0.3-0.9c-0.2-0.3-0.6-0.4-0.9-0.4c-0.3,0-0.6,0.1-0.9,0.3
		c-0.2,0.2-0.3,0.5-0.3,0.8h-2.3c0-0.5,0.2-1,0.5-1.4c0.3-0.4,0.8-0.8,1.3-1c0.6-0.2,1.2-0.4,1.9-0.4c0.9,0,1.8,0.2,2.5,0.8
		c0.6,0.6,1,1.4,0.9,2.2v3.7c0,0.6,0.1,1.2,0.3,1.8v0.1H1026.9z M1025,6129.1c0.3,0,0.6-0.1,0.9-0.2c0.3-0.1,0.5-0.3,0.6-0.6v-1.5
		h-0.8c-1.1,0-1.7,0.4-1.8,1.2l0,0.1c0,0.3,0.1,0.5,0.3,0.7C1024.4,6129,1024.7,6129.1,1025,6129.1L1025,6129.1z M1034.1,6129
		c0.4,0,0.7-0.1,1-0.3c0.3-0.2,0.4-0.6,0.4-0.9h2.1c0,0.6-0.2,1.1-0.5,1.6c-0.3,0.5-0.7,0.9-1.3,1.1c-0.6,0.3-1.2,0.4-1.8,0.4
		c-1.1,0.1-2.1-0.4-2.9-1.2c-0.7-0.9-1.1-2-1-3.2v-0.1c-0.1-1.1,0.3-2.2,1-3.1c0.7-0.8,1.8-1.2,2.9-1.2c0.9,0,1.8,0.3,2.5,0.9
		c0.6,0.6,1,1.5,1,2.4h-2.1c0-0.4-0.1-0.8-0.4-1.1c-0.6-0.6-1.6-0.5-2.1,0.1c0,0-0.1,0.1-0.1,0.1c-0.3,0.6-0.5,1.2-0.4,1.9v0.2
		c-0.1,0.7,0.1,1.3,0.4,1.9C1033.1,6128.8,1033.6,6129,1034.1,6129L1034.1,6129z M1041.3,6130.7h-2.3v-8.5h2.3L1041.3,6130.7z
		 M1038.9,6120c0-0.3,0.1-0.6,0.3-0.8c0.5-0.4,1.3-0.4,1.8,0c0.2,0.2,0.4,0.5,0.3,0.8c0,0.3-0.1,0.6-0.3,0.8c-0.5,0.4-1.3,0.4-1.8,0
		C1039,6120.6,1038.9,6120.3,1038.9,6120L1038.9,6120z M1042.8,6126.4c0-0.8,0.2-1.5,0.5-2.2c0.3-0.6,0.8-1.2,1.4-1.5
		c0.6-0.4,1.4-0.6,2.1-0.5c1,0,2,0.3,2.8,1c0.7,0.8,1.2,1.8,1.2,2.8l0,0.6c0.1,1.1-0.3,2.3-1.1,3.1c-1.6,1.6-4.2,1.6-5.8,0
		C1043.1,6128.8,1042.7,6127.6,1042.8,6126.4L1042.8,6126.4z M1045,6126.5c0,0.6,0.1,1.3,0.5,1.8c0.5,0.7,1.6,0.8,2.3,0.3
		c0.1-0.1,0.2-0.2,0.3-0.3c0.4-0.6,0.5-1.3,0.5-2c0-0.6-0.1-1.3-0.5-1.8c-0.3-0.4-0.8-0.7-1.3-0.6c-0.5,0-1,0.2-1.3,0.6
		C1045.1,6125.1,1045,6125.8,1045,6126.5L1045,6126.5z M1047.2,6118.7h2.5l-2.2,2.4h-1.8L1047.2,6118.7z M1054.2,6122.2l0.1,1
		c0.6-0.7,1.5-1.2,2.4-1.1c0.8-0.1,1.5,0.2,2,0.8c0.5,0.7,0.7,1.5,0.7,2.4v5.5h-2.3v-5.4c0-0.4-0.1-0.7-0.3-1
		c-0.3-0.2-0.7-0.4-1-0.3c-0.6,0-1.1,0.3-1.4,0.8v6h-2.3v-8.5H1054.2z M970.5,6171.7h-2.3v-11.4h2.3V6171.7z M974.6,6163.2l0.1,1
		c0.6-0.7,1.5-1.2,2.4-1.1c0.8-0.1,1.5,0.2,2,0.8c0.5,0.7,0.7,1.5,0.7,2.4v5.5h-2.3v-5.4c0-0.4-0.1-0.7-0.3-1
		c-0.3-0.2-0.7-0.4-1-0.3c-0.6,0-1.1,0.3-1.4,0.8v6h-2.3v-8.5H974.6z M984.2,6161.1v2.1h1.4v1.7h-1.4v4.2c0,0.2,0,0.5,0.2,0.7
		c0.2,0.2,0.4,0.2,0.7,0.2c0.2,0,0.4,0,0.7-0.1v1.7c-0.4,0.1-0.9,0.2-1.4,0.2c-1.2,0.2-2.3-0.7-2.4-1.9c0-0.2,0-0.4,0-0.5v-4.5h-1.2
		v-1.7h1.2v-2.1H984.2z M990.8,6171.8c-1.1,0-2.2-0.4-3-1.1c-0.8-0.8-1.2-1.9-1.2-3v-0.2c0-0.8,0.2-1.6,0.5-2.3
		c0.3-0.6,0.8-1.2,1.4-1.5c0.6-0.4,1.3-0.6,2.1-0.5c1-0.1,2,0.3,2.7,1.1c0.7,0.9,1.1,2,1,3.1v0.9h-5.4c0.1,0.5,0.3,1,0.7,1.3
		c0.4,0.3,0.9,0.5,1.4,0.5c0.8,0,1.6-0.3,2-0.9l1.1,1.2c-0.4,0.5-0.8,0.9-1.4,1.1C992.1,6171.7,991.5,6171.8,990.8,6171.8
		L990.8,6171.8z M990.5,6164.9c-0.4,0-0.8,0.2-1.1,0.5c-0.3,0.4-0.5,0.8-0.5,1.3h3.1v-0.2c0-0.4-0.1-0.8-0.4-1.2
		C991.4,6165,991,6164.8,990.5,6164.9L990.5,6164.9z M1000.3,6165.3c-0.3,0-0.5-0.1-0.8-0.1c-0.7-0.1-1.4,0.3-1.7,0.9v5.5h-2.3v-8.5
		h2.1l0.1,1c0.4-0.7,1.1-1.2,1.9-1.2c0.2,0,0.5,0,0.7,0.1L1000.3,6165.3z M1001,6167.4c0-0.8,0.2-1.5,0.5-2.2
		c0.3-0.6,0.8-1.2,1.4-1.5c0.6-0.4,1.4-0.6,2.1-0.5c1,0,2,0.3,2.8,1c0.7,0.8,1.2,1.8,1.2,2.8l0,0.6c0.1,1.1-0.3,2.3-1.1,3.1
		c-1.6,1.6-4.2,1.6-5.8,0C1001.3,6169.8,1001,6168.6,1001,6167.4L1001,6167.4z M1003.3,6167.5c0,0.6,0.1,1.3,0.5,1.8
		c0.5,0.7,1.6,0.8,2.3,0.3c0.1-0.1,0.2-0.2,0.3-0.3c0.4-0.6,0.5-1.3,0.5-2c0-0.6-0.1-1.3-0.5-1.8c-0.3-0.4-0.8-0.7-1.3-0.6
		c-0.5,0-1,0.2-1.3,0.6C1003.4,6166.1,1003.2,6166.8,1003.3,6167.5L1003.3,6167.5z M1018,6167.5c0.1,1.1-0.3,2.2-0.9,3.1
		c-0.6,0.8-1.5,1.2-2.4,1.2c-0.8,0-1.5-0.3-2.1-0.9v4h-2.3v-11.7h2.1l0.1,0.8c0.5-0.6,1.3-1,2.1-1c1,0,1.9,0.4,2.4,1.2
		c0.6,0.9,0.9,2.1,0.9,3.2V6167.5z M1015.8,6167.4c0-0.6-0.1-1.3-0.4-1.8c-0.3-0.4-0.7-0.7-1.2-0.6c-0.6-0.1-1.2,0.3-1.5,0.8v3.5
		c0.3,0.6,0.9,0.9,1.5,0.8C1015.2,6170,1015.8,6169.1,1015.8,6167.4L1015.8,6167.4z M1023.3,6171.8c-1.1,0-2.2-0.4-3-1.1
		c-0.8-0.8-1.2-1.9-1.2-3v-0.2c0-0.8,0.2-1.6,0.5-2.3c0.3-0.6,0.8-1.2,1.4-1.6c0.6-0.4,1.3-0.6,2.1-0.5c1-0.1,2,0.3,2.7,1.1
		c0.7,0.9,1.1,2,1,3.1v0.9h-5.4c0.1,0.5,0.3,1,0.7,1.3c0.4,0.3,0.9,0.5,1.4,0.5c0.8,0,1.6-0.3,2-0.9l1.1,1.2
		c-0.4,0.5-0.8,0.9-1.4,1.1C1024.6,6171.7,1024,6171.8,1023.3,6171.8L1023.3,6171.8z M1023.1,6164.9c-0.4,0-0.8,0.2-1.1,0.5
		c-0.3,0.4-0.5,0.8-0.5,1.3h3.1v-0.2c0-0.4-0.1-0.8-0.4-1.2C1023.9,6165,1023.5,6164.9,1023.1,6164.9L1023.1,6164.9z M1032.8,6165.3
		c-0.3,0-0.5-0.1-0.8-0.1c-0.7-0.1-1.4,0.3-1.7,0.9v5.5h-2.3v-8.5h2.1l0.1,1c0.4-0.7,1.1-1.2,1.9-1.2c0.2,0,0.5,0,0.7,0.1
		L1032.8,6165.3z M1038.6,6171.7c-0.1-0.2-0.2-0.5-0.2-0.8c-0.5,0.6-1.3,0.9-2.1,0.9c-0.8,0-1.5-0.2-2.1-0.7
		c-0.5-0.5-0.8-1.1-0.8-1.8c0-0.8,0.3-1.6,1-2.1c0.9-0.5,1.9-0.8,2.9-0.7h1v-0.5c0-0.3-0.1-0.7-0.3-0.9c-0.2-0.3-0.6-0.4-0.9-0.4
		c-0.3,0-0.6,0.1-0.9,0.3c-0.2,0.2-0.3,0.5-0.3,0.8h-2.3c0-0.5,0.2-1,0.5-1.4c0.3-0.4,0.8-0.8,1.3-1c0.6-0.2,1.2-0.4,1.9-0.4
		c0.9,0,1.8,0.2,2.5,0.8c0.6,0.6,1,1.4,0.9,2.2v3.7c0,0.6,0.1,1.2,0.3,1.8v0.1H1038.6z M1036.7,6170.1c0.3,0,0.6-0.1,0.9-0.2
		c0.3-0.1,0.5-0.3,0.6-0.6v-1.5h-0.8c-1.1,0-1.7,0.4-1.8,1.2l0,0.1c0,0.3,0.1,0.5,0.3,0.7C1036.1,6170,1036.4,6170.1,1036.7,6170.1z
		 M1045,6161.1v2.1h1.5v1.7h-1.4v4.2c0,0.2,0,0.5,0.2,0.7c0.2,0.2,0.4,0.2,0.7,0.2c0.2,0,0.4,0,0.7-0.1v1.7
		c-0.4,0.1-0.9,0.2-1.4,0.2c-1.2,0.2-2.3-0.7-2.4-1.9c0-0.2,0-0.4,0-0.5v-4.5h-1.2v-1.7h1.2v-2.1H1045z M1050,6171.7h-2.3v-8.5h2.3
		V6171.7z M1047.6,6161c0-0.3,0.1-0.6,0.3-0.8c0.5-0.4,1.3-0.4,1.8,0c0.5,0.5,0.5,1.2,0,1.7c-0.5,0.4-1.3,0.4-1.8,0
		C1047.8,6161.7,1047.6,6161.3,1047.6,6161L1047.6,6161z M1055.1,6168.9l1.6-5.7h2.4l-2.8,8.5h-2.2l-2.9-8.5h2.4L1055.1,6168.9z
		 M1062.4,6171.7h-2.3v-8.5h2.3L1062.4,6171.7z M1060,6161c0-0.3,0.1-0.6,0.3-0.8c0.5-0.4,1.3-0.4,1.8,0c0.5,0.5,0.5,1.2,0,1.7
		c-0.5,0.4-1.3,0.4-1.8,0C1060.1,6161.7,1060,6161.3,1060,6161L1060,6161z M1063.9,6167.4c-0.1-1.1,0.3-2.2,0.9-3.1
		c0.6-0.8,1.5-1.2,2.4-1.2c0.8,0,1.5,0.3,2,0.9v-4.3h2.3v12h-2l-0.1-0.9c-0.5,0.7-1.3,1.1-2.2,1.1c-0.9,0-1.8-0.4-2.4-1.2
		C1064.1,6169.7,1063.8,6168.5,1063.9,6167.4L1063.9,6167.4z M1066.1,6167.5c0,0.6,0.1,1.3,0.4,1.8c0.3,0.4,0.7,0.7,1.2,0.6
		c0.6,0,1.2-0.3,1.5-0.9v-3.4c-0.3-0.6-0.8-0.9-1.5-0.9C1066.7,6164.9,1066.1,6165.8,1066.1,6167.5L1066.1,6167.5z M1078.1,6171.7
		c-0.1-0.2-0.2-0.5-0.2-0.8c-0.5,0.6-1.3,0.9-2.1,0.9c-0.8,0-1.5-0.2-2.1-0.7c-0.5-0.5-0.8-1.1-0.8-1.8c0-0.8,0.3-1.6,1-2.1
		c0.9-0.5,1.9-0.8,2.9-0.7h1v-0.5c0-0.3-0.1-0.7-0.3-0.9c-0.2-0.3-0.6-0.4-0.9-0.4c-0.3,0-0.6,0.1-0.9,0.3c-0.2,0.2-0.3,0.5-0.3,0.8
		h-2.3c0-0.5,0.2-1,0.5-1.4c0.3-0.4,0.8-0.8,1.3-1c0.6-0.2,1.2-0.4,1.9-0.4c0.9,0,1.8,0.2,2.5,0.8c0.6,0.6,1,1.4,0.9,2.2v3.7
		c0,0.6,0.1,1.2,0.3,1.8v0.1H1078.1z M1076.3,6170.1c0.3,0,0.6-0.1,0.9-0.2c0.3-0.1,0.5-0.3,0.6-0.6v-1.5h-0.8
		c-1.1,0-1.7,0.4-1.8,1.2l0,0.1c0,0.3,0.1,0.5,0.3,0.7C1075.7,6170,1076,6170.1,1076.3,6170.1L1076.3,6170.1z M1081.5,6167.4
		c-0.1-1.1,0.3-2.2,0.9-3.1c0.6-0.8,1.5-1.2,2.4-1.2c0.8,0,1.5,0.3,2,0.9v-4.3h2.3v12h-2l-0.1-0.9c-0.5,0.7-1.3,1.1-2.2,1.1
		c-0.9,0-1.8-0.4-2.4-1.2C1081.7,6169.7,1081.4,6168.5,1081.5,6167.4L1081.5,6167.4z M1083.7,6167.5c0,0.6,0.1,1.3,0.4,1.8
		c0.3,0.4,0.7,0.7,1.2,0.6c0.6,0,1.2-0.3,1.5-0.9v-3.4c-0.3-0.6-0.8-0.9-1.5-0.9C1084.3,6164.9,1083.7,6165.8,1083.7,6167.5
		L1083.7,6167.5z M974.9,6207.7h-4.5v3.1h5.3v1.9H968v-11.4h7.6v1.9h-5.3v2.7h4.5V6207.7z M977.4,6212.7v-6.8h-1.3v-1.7h1.3v-0.4
		c0-0.9,0.3-1.8,1-2.5c0.8-0.6,1.7-0.9,2.7-0.9c0.9,0,1.7,0.2,2.6,0.5l-0.3,1.9c-0.4-0.1-0.8-0.2-1.2-0.3c-0.3,0-0.6-0.1-0.9-0.1
		c-1.1,0-1.6,0.5-1.6,1.4v0.3h1.7v1.7h-1.7v6.8H977.4z M984.7,6212.7h-2.3v-8.5h2.3L984.7,6212.7z M990.1,6211c0.4,0,0.7-0.1,1-0.3
		c0.3-0.2,0.4-0.6,0.4-0.9h2.1c0,0.6-0.2,1.1-0.5,1.6c-0.3,0.5-0.7,0.9-1.3,1.1c-0.6,0.3-1.2,0.4-1.8,0.4c-1.1,0.1-2.1-0.4-2.9-1.2
		c-0.7-0.9-1.1-2-1-3.2v-0.1c-0.1-1.1,0.3-2.2,1-3.1c0.7-0.8,1.8-1.2,2.9-1.2c0.9,0,1.8,0.3,2.5,0.9c0.6,0.6,1,1.5,1,2.4h-2.1
		c0-0.4-0.1-0.8-0.4-1.1c-0.6-0.6-1.6-0.5-2.1,0.1c0,0-0.1,0.1-0.1,0.1c-0.3,0.6-0.5,1.2-0.4,1.9v0.2c-0.1,0.7,0.1,1.3,0.4,1.9
		C989.2,6210.8,989.6,6211,990.1,6211z M997.3,6212.7h-2.3v-8.5h2.3L997.3,6212.7z M994.9,6202c0-0.3,0.1-0.6,0.3-0.8
		c0.5-0.4,1.3-0.4,1.8,0c0.5,0.5,0.5,1.2,0,1.7c-0.5,0.4-1.3,0.4-1.8,0C995.1,6202.7,994.9,6202.3,994.9,6202L994.9,6202z
		 M1003.1,6212.8c-1.1,0-2.2-0.4-3-1.1c-0.8-0.8-1.2-1.9-1.2-3v-0.2c0-0.8,0.2-1.6,0.5-2.3c0.3-0.6,0.8-1.2,1.4-1.5
		c0.6-0.4,1.3-0.6,2.1-0.5c1-0.1,2,0.3,2.7,1.1c0.7,0.9,1.1,2,1,3.1v0.9h-5.4c0.1,0.5,0.3,1,0.7,1.3c0.4,0.3,0.9,0.5,1.4,0.5
		c0.8,0,1.6-0.3,2-0.9l1.1,1.2c-0.4,0.5-0.8,0.9-1.4,1.1C1004.4,6212.7,1003.7,6212.8,1003.1,6212.8L1003.1,6212.8z M1002.8,6205.9
		c-0.4,0-0.8,0.2-1.1,0.5c-0.3,0.4-0.5,0.8-0.5,1.3h3.1v-0.2c0-0.4-0.1-0.8-0.4-1.2C1003.6,6206,1003.2,6205.9,1002.8,6205.9
		L1002.8,6205.9z M1009.9,6204.2l0.1,1c0.6-0.7,1.5-1.2,2.4-1.1c0.8-0.1,1.5,0.2,2,0.8c0.5,0.7,0.7,1.5,0.7,2.4v5.5h-2.3v-5.4
		c0-0.4-0.1-0.7-0.3-1c-0.3-0.2-0.7-0.4-1-0.3c-0.6,0-1.1,0.3-1.4,0.8v6h-2.3v-8.5L1009.9,6204.2z M1020.3,6211c0.4,0,0.7-0.1,1-0.3
		c0.3-0.2,0.4-0.6,0.4-0.9h2.1c0,0.6-0.2,1.1-0.5,1.6c-0.3,0.5-0.7,0.9-1.3,1.1c-0.6,0.3-1.2,0.4-1.8,0.4c-1.1,0.1-2.1-0.4-2.9-1.2
		c-0.7-0.9-1.1-2-1-3.2v-0.1c-0.1-1.1,0.3-2.2,1-3.1c0.7-0.8,1.8-1.2,2.9-1.2c0.9,0,1.8,0.3,2.5,0.9c0.6,0.6,1,1.5,1,2.4h-2.1
		c0-0.4-0.1-0.8-0.4-1.1c-0.6-0.6-1.6-0.5-2.1,0.1c0,0-0.1,0.1-0.1,0.1c-0.3,0.6-0.5,1.2-0.4,1.9v0.2c-0.1,0.7,0.1,1.3,0.4,1.9
		C1019.4,6210.8,1019.8,6211,1020.3,6211L1020.3,6211z M1027.5,6212.7h-2.3v-8.5h2.3L1027.5,6212.7z M1025.1,6202
		c0-0.3,0.1-0.6,0.3-0.8c0.5-0.4,1.3-0.4,1.8,0c0.5,0.5,0.5,1.2,0,1.7c-0.5,0.4-1.3,0.4-1.8,0
		C1025.2,6202.7,1025.1,6202.3,1025.1,6202L1025.1,6202z M1034.3,6212.7c-0.1-0.2-0.2-0.5-0.2-0.8c-0.5,0.6-1.3,0.9-2.1,0.9
		c-0.8,0-1.5-0.2-2.1-0.7c-0.5-0.5-0.8-1.1-0.8-1.8c0-0.8,0.3-1.6,1-2.1c0.9-0.5,1.9-0.8,2.9-0.7h1v-0.5c0-0.3-0.1-0.7-0.3-0.9
		c-0.2-0.3-0.6-0.4-0.9-0.4c-0.3,0-0.6,0.1-0.9,0.3c-0.2,0.2-0.3,0.5-0.3,0.8h-2.3c0-0.5,0.2-1,0.5-1.4c0.3-0.4,0.8-0.8,1.3-1
		c0.6-0.2,1.2-0.4,1.9-0.4c0.9,0,1.8,0.2,2.5,0.8c0.6,0.6,1,1.4,0.9,2.2v3.7c0,0.6,0.1,1.2,0.3,1.8v0.1H1034.3z M1032.4,6211.1
		c0.3,0,0.6-0.1,0.9-0.2c0.3-0.1,0.5-0.3,0.6-0.6v-1.5h-0.8c-1.1,0-1.7,0.4-1.8,1.2l0,0.1c0,0.3,0.1,0.5,0.3,0.7
		C1031.8,6211,1032.1,6211.1,1032.4,6211.1z M1041.6,6208.4c-0.1-1.1,0.3-2.2,0.9-3.1c0.6-0.8,1.5-1.2,2.4-1.2c0.8,0,1.5,0.3,2,0.9
		v-4.3h2.3v12h-2l-0.1-0.9c-0.5,0.7-1.3,1.1-2.2,1.1c-0.9,0-1.8-0.4-2.4-1.2C1041.9,6210.7,1041.5,6209.5,1041.6,6208.4z
		 M1043.9,6208.5c0,0.6,0.1,1.3,0.4,1.8c0.3,0.4,0.7,0.7,1.2,0.6c0.6,0,1.2-0.3,1.5-0.9v-3.4c-0.3-0.6-0.8-0.9-1.5-0.9
		C1044.4,6205.9,1043.9,6206.8,1043.9,6208.5z M1054.9,6212.8c-1.1,0-2.2-0.4-3-1.1c-0.8-0.8-1.2-1.9-1.2-3v-0.2
		c0-0.8,0.2-1.6,0.5-2.3c0.3-0.6,0.8-1.2,1.4-1.5c0.6-0.4,1.3-0.6,2.1-0.5c1-0.1,2,0.3,2.7,1.1c0.7,0.9,1.1,2,1,3.1v0.9h-5.4
		c0.1,0.5,0.3,1,0.7,1.3c0.4,0.3,0.9,0.5,1.4,0.5c0.8,0,1.6-0.3,2-0.9l1.1,1.2c-0.4,0.5-0.8,0.9-1.4,1.1
		C1056.2,6212.7,1055.5,6212.8,1054.9,6212.8L1054.9,6212.8z M1054.6,6205.9c-0.4,0-0.8,0.2-1.1,0.5c-0.3,0.4-0.5,0.8-0.5,1.3h3.1
		v-0.2c0-0.4-0.1-0.8-0.4-1.2C1055.4,6206,1055,6205.8,1054.6,6205.9L1054.6,6205.9z M1067.1,6211c0.4,0,0.7-0.1,1-0.3
		c0.3-0.2,0.4-0.6,0.4-0.9h2.1c0,0.6-0.2,1.1-0.5,1.6c-0.3,0.5-0.7,0.9-1.3,1.1c-0.6,0.3-1.2,0.4-1.8,0.4c-1.1,0.1-2.1-0.4-2.9-1.2
		c-0.7-0.9-1.1-2-1-3.2v-0.1c-0.1-1.1,0.3-2.2,1-3.1c0.7-0.8,1.8-1.2,2.9-1.2c0.9,0,1.8,0.3,2.5,0.9c0.6,0.6,1,1.5,1,2.4h-2.1
		c0-0.4-0.1-0.8-0.4-1.1c-0.6-0.6-1.6-0.5-2.1,0.1c0,0-0.1,0.1-0.1,0.1c-0.3,0.6-0.5,1.2-0.4,1.9v0.2c-0.1,0.7,0.1,1.3,0.4,1.9
		C1066.2,6210.8,1066.6,6211,1067.1,6211L1067.1,6211z M1071.6,6208.4c0-0.8,0.2-1.5,0.5-2.2c0.3-0.6,0.8-1.2,1.4-1.5
		c0.6-0.4,1.4-0.6,2.1-0.5c1,0,2,0.3,2.8,1c0.7,0.8,1.2,1.8,1.2,2.8l0,0.6c0.1,1.1-0.3,2.3-1.1,3.1c-1.6,1.6-4.2,1.6-5.8,0
		C1071.9,6210.8,1071.5,6209.6,1071.6,6208.4L1071.6,6208.4z M1073.9,6208.5c0,0.6,0.1,1.3,0.5,1.8c0.5,0.7,1.6,0.8,2.3,0.3
		c0.1-0.1,0.2-0.2,0.3-0.3c0.4-0.6,0.5-1.3,0.5-2c0-0.6-0.1-1.3-0.5-1.8c-0.3-0.4-0.8-0.7-1.3-0.6c-0.5,0-1,0.2-1.3,0.6
		C1074,6207.1,1073.8,6207.8,1073.9,6208.5L1073.9,6208.5z M1085.6,6210.3c0-0.3-0.2-0.5-0.4-0.7c-0.4-0.2-0.9-0.4-1.3-0.4
		c-2-0.4-3-1.3-3-2.6c0-0.7,0.3-1.4,0.9-1.9c0.7-0.5,1.6-0.8,2.4-0.8c0.9,0,1.8,0.2,2.6,0.8c0.6,0.5,1,1.2,1,2h-2.3
		c0-0.3-0.1-0.6-0.3-0.8c-0.3-0.2-0.6-0.3-1-0.3c-0.3,0-0.6,0.1-0.9,0.3c-0.2,0.2-0.3,0.4-0.3,0.7c0,0.3,0.1,0.5,0.4,0.6
		c0.4,0.2,0.8,0.3,1.2,0.4c0.5,0.1,1,0.2,1.4,0.4c1.1,0.3,1.8,1.2,1.8,2.3c0,0.8-0.4,1.5-1,1.9c-0.8,0.5-1.7,0.8-2.6,0.7
		c-0.6,0-1.3-0.1-1.9-0.4c-0.5-0.2-1-0.6-1.3-1c-0.3-0.4-0.5-0.9-0.5-1.4h2.1c0,0.4,0.2,0.7,0.4,0.9c0.3,0.2,0.7,0.3,1.1,0.3
		c0.3,0,0.7-0.1,1-0.2C1085.5,6210.8,1085.6,6210.6,1085.6,6210.3L1085.6,6210.3z M1091.9,6202.1v2.1h1.4v1.7h-1.4v4.2
		c0,0.2,0,0.5,0.2,0.7c0.2,0.2,0.4,0.2,0.7,0.2c0.2,0,0.4,0,0.7-0.1v1.7c-0.4,0.1-0.9,0.2-1.4,0.2c-1.2,0.2-2.3-0.7-2.4-1.9
		c0-0.2,0-0.4,0-0.5v-4.5h-1.2v-1.7h1.2v-2.1L1091.9,6202.1z M1098.5,6212.8c-1.1,0-2.2-0.4-3-1.1c-0.8-0.8-1.2-1.9-1.2-3v-0.2
		c0-0.8,0.2-1.6,0.5-2.3c0.3-0.6,0.8-1.2,1.4-1.5c0.6-0.4,1.3-0.6,2.1-0.5c1-0.1,2,0.3,2.7,1.1c0.7,0.9,1.1,2,1,3.1v0.9h-5.4
		c0.1,0.5,0.3,1,0.7,1.3c0.4,0.3,0.9,0.5,1.4,0.5c0.8,0,1.6-0.3,2-0.9l1.1,1.2c-0.4,0.5-0.8,0.9-1.4,1.1
		C1099.8,6212.7,1099.2,6212.8,1098.5,6212.8L1098.5,6212.8z M1098.3,6205.9c-0.4,0-0.8,0.2-1.1,0.5c-0.3,0.4-0.5,0.8-0.5,1.3h3.1
		v-0.2c0-0.4-0.1-0.8-0.4-1.2C1099.1,6206,1098.7,6205.8,1098.3,6205.9L1098.3,6205.9z M1107.9,6210.3c0-0.3-0.2-0.5-0.4-0.7
		c-0.4-0.2-0.9-0.4-1.3-0.4c-2-0.4-3-1.3-3-2.6c0-0.7,0.3-1.4,0.9-1.9c0.7-0.5,1.6-0.8,2.4-0.8c0.9,0,1.8,0.2,2.6,0.8
		c0.6,0.5,1,1.2,1,2h-2.3c0-0.3-0.1-0.6-0.3-0.8c-0.3-0.2-0.6-0.3-1-0.3c-0.3,0-0.6,0.1-0.9,0.3c-0.2,0.2-0.3,0.4-0.3,0.7
		c0,0.3,0.1,0.5,0.4,0.6c0.4,0.2,0.8,0.3,1.2,0.4c0.5,0.1,1,0.2,1.4,0.4c1.1,0.3,1.8,1.2,1.8,2.3c0,0.8-0.4,1.5-1,1.9
		c-0.8,0.5-1.7,0.8-2.6,0.7c-0.6,0-1.3-0.1-1.9-0.4c-0.5-0.2-1-0.6-1.3-1c-0.3-0.4-0.5-0.9-0.5-1.4h2.1c0,0.4,0.2,0.7,0.4,0.9
		c0.3,0.2,0.7,0.3,1.1,0.3c0.3,0,0.7-0.1,1-0.2C1107.7,6210.8,1107.9,6210.6,1107.9,6210.3L1107.9,6210.3z M974.9,6248.7h-4.5v3.1
		h5.3v1.9H968v-11.4h7.6v1.9h-5.3v2.7h4.5V6248.7z M981.5,6251.3c0-0.3-0.2-0.5-0.4-0.7c-0.4-0.2-0.9-0.4-1.3-0.4
		c-2-0.4-3-1.3-3-2.6c0-0.7,0.3-1.4,0.9-1.9c0.7-0.5,1.6-0.8,2.4-0.8c0.9,0,1.8,0.2,2.6,0.8c0.6,0.5,1,1.2,1,2h-2.3
		c0-0.3-0.1-0.6-0.3-0.8c-0.3-0.2-0.6-0.3-1-0.3c-0.3,0-0.6,0.1-0.9,0.3c-0.2,0.2-0.3,0.4-0.3,0.7c0,0.3,0.1,0.5,0.4,0.6
		c0.4,0.2,0.8,0.3,1.2,0.4c0.5,0.1,1,0.2,1.4,0.4c1.1,0.3,1.8,1.2,1.8,2.3c0,0.8-0.4,1.5-1,1.9c-0.8,0.5-1.7,0.8-2.6,0.7
		c-0.6,0-1.3-0.1-1.9-0.4c-0.5-0.2-1-0.6-1.3-1c-0.3-0.4-0.5-0.9-0.5-1.4h2.1c0,0.4,0.2,0.7,0.4,0.9c0.3,0.2,0.7,0.3,1.1,0.3
		c0.3,0,0.7-0.1,1-0.2C981.3,6251.8,981.5,6251.6,981.5,6251.3L981.5,6251.3z M988.6,6252c0.4,0,0.7-0.1,1-0.3
		c0.3-0.2,0.4-0.6,0.4-0.9h2.1c0,0.6-0.2,1.1-0.5,1.6c-0.3,0.5-0.7,0.9-1.3,1.1c-0.6,0.3-1.2,0.4-1.8,0.4c-1.1,0.1-2.1-0.4-2.9-1.2
		c-0.7-0.9-1.1-2-1-3.2v-0.1c-0.1-1.1,0.3-2.2,1-3.1c0.7-0.8,1.8-1.2,2.9-1.2c0.9,0,1.8,0.3,2.5,0.9c0.6,0.6,1,1.5,1,2.4H990
		c0-0.4-0.1-0.8-0.4-1.1c-0.6-0.6-1.6-0.5-2.1,0.1c0,0-0.1,0.1-0.1,0.1c-0.3,0.6-0.5,1.2-0.4,1.9v0.2c-0.1,0.7,0.1,1.3,0.4,1.9
		C987.7,6251.8,988.1,6252,988.6,6252L988.6,6252z M998.3,6253.7c-0.1-0.2-0.2-0.5-0.2-0.8c-0.5,0.6-1.3,0.9-2.1,0.9
		c-0.8,0-1.5-0.2-2.1-0.7c-0.5-0.5-0.8-1.1-0.8-1.8c0-0.8,0.3-1.6,1-2.1c0.9-0.5,1.9-0.8,2.9-0.7h1v-0.5c0-0.3-0.1-0.7-0.3-0.9
		c-0.2-0.3-0.6-0.4-0.9-0.4c-0.3,0-0.6,0.1-0.9,0.3c-0.2,0.2-0.3,0.5-0.3,0.8h-2.3c0-0.5,0.2-1,0.5-1.4c0.3-0.4,0.8-0.8,1.3-1
		c0.6-0.2,1.2-0.4,1.9-0.4c0.9,0,1.8,0.2,2.5,0.8c0.6,0.6,1,1.4,0.9,2.2v3.7c0,0.6,0.1,1.2,0.3,1.8v0.1H998.3z M996.5,6252.1
		c0.3,0,0.6-0.1,0.9-0.2c0.3-0.1,0.5-0.3,0.6-0.6v-1.5h-0.8c-1.1,0-1.7,0.4-1.8,1.2l0,0.1c0,0.3,0.1,0.5,0.3,0.7
		C995.9,6252,996.2,6252.1,996.5,6252.1z M1004.4,6253.7h-2.3v-12h2.3V6253.7z M1011.2,6253.7c-0.1-0.2-0.2-0.5-0.2-0.8
		c-0.5,0.6-1.3,0.9-2.1,0.9c-0.8,0-1.5-0.2-2.1-0.7c-0.5-0.5-0.8-1.1-0.8-1.8c0-0.8,0.3-1.6,1-2.1c0.9-0.5,1.9-0.8,2.9-0.7h1v-0.5
		c0-0.3-0.1-0.7-0.3-0.9c-0.2-0.3-0.6-0.4-0.9-0.4c-0.3,0-0.6,0.1-0.9,0.3c-0.2,0.2-0.3,0.5-0.3,0.8h-2.3c0-0.5,0.2-1,0.5-1.4
		c0.3-0.4,0.8-0.8,1.3-1c0.6-0.2,1.2-0.4,1.9-0.4c0.9,0,1.8,0.2,2.5,0.8c0.6,0.6,1,1.4,0.9,2.2v3.7c0,0.6,0.1,1.2,0.3,1.8v0.1
		H1011.2z M1009.3,6252.1c0.3,0,0.6-0.1,0.9-0.2c0.3-0.1,0.5-0.3,0.6-0.6v-1.5h-0.8c-1.1,0-1.7,0.4-1.8,1.2l0,0.1
		c0,0.3,0.1,0.5,0.3,0.7C1008.7,6252,1009,6252.1,1009.3,6252.1L1009.3,6252.1z M1022.5,6249.5c0.1,1.1-0.2,2.2-0.9,3.2
		c-0.6,0.8-1.5,1.2-2.4,1.1c-0.9,0-1.7-0.4-2.2-1.1l-0.1,0.9h-2v-12h2.3v4.3c0.5-0.6,1.3-0.9,2.1-0.9c0.9,0,1.9,0.4,2.4,1.1
		c0.6,0.9,0.9,2.1,0.9,3.2L1022.5,6249.5z M1020.2,6249.3c0-0.7-0.1-1.3-0.4-1.9c-0.3-0.4-0.7-0.6-1.2-0.6c-0.6-0.1-1.2,0.3-1.5,0.9
		v3.3c0.3,0.6,0.9,0.9,1.5,0.9c0.7,0,1.3-0.4,1.4-1.1C1020.2,6250.4,1020.2,6249.9,1020.2,6249.3L1020.2,6249.3z M1026.2,6253.7
		h-2.3v-8.5h2.3V6253.7z M1023.8,6243c0-0.3,0.1-0.6,0.3-0.8c0.5-0.4,1.3-0.4,1.8,0c0.5,0.5,0.5,1.2,0,1.7c-0.5,0.4-1.3,0.4-1.8,0
		C1024,6243.7,1023.8,6243.3,1023.8,6243L1023.8,6243z M1030.5,6253.7h-2.3v-12h2.3L1030.5,6253.7z M1034.7,6253.7h-2.3v-8.5h2.3
		V6253.7z M1032.3,6243c0-0.3,0.1-0.6,0.3-0.8c0.5-0.4,1.3-0.4,1.8,0c0.5,0.5,0.5,1.2,0,1.7c-0.5,0.4-1.3,0.4-1.8,0
		C1032.4,6243.7,1032.3,6243.3,1032.3,6243L1032.3,6243z M1036.2,6249.4c-0.1-1.1,0.3-2.2,0.9-3.1c0.6-0.8,1.5-1.2,2.4-1.2
		c0.8,0,1.5,0.3,2,0.9v-4.3h2.3v12h-2l-0.1-0.9c-0.5,0.7-1.3,1.1-2.2,1.1c-0.9,0-1.8-0.4-2.4-1.2
		C1036.5,6251.7,1036.2,6250.5,1036.2,6249.4L1036.2,6249.4z M1038.5,6249.5c0,0.6,0.1,1.3,0.4,1.8c0.3,0.4,0.7,0.7,1.2,0.6
		c0.6,0,1.2-0.3,1.5-0.9v-3.4c-0.3-0.6-0.8-0.9-1.5-0.9C1039,6246.9,1038.5,6247.8,1038.5,6249.5L1038.5,6249.5z M1050.5,6253.7
		c-0.1-0.2-0.2-0.5-0.2-0.8c-0.5,0.6-1.3,0.9-2.1,0.9c-0.8,0-1.5-0.2-2.1-0.7c-0.5-0.5-0.8-1.1-0.8-1.8c0-0.8,0.3-1.6,1-2.1
		c0.9-0.5,1.9-0.8,2.9-0.7h1v-0.5c0-0.3-0.1-0.7-0.3-0.9c-0.2-0.3-0.6-0.4-0.9-0.4c-0.3,0-0.6,0.1-0.9,0.3c-0.2,0.2-0.3,0.5-0.3,0.8
		h-2.3c0-0.5,0.2-1,0.5-1.4c0.3-0.4,0.8-0.8,1.3-1c0.6-0.2,1.2-0.4,1.9-0.4c0.9,0,1.8,0.2,2.5,0.8c0.6,0.6,1,1.4,0.9,2.2v3.7
		c0,0.6,0.1,1.2,0.3,1.8v0.1H1050.5z M1048.6,6252.1c0.3,0,0.6-0.1,0.9-0.2c0.3-0.1,0.5-0.3,0.6-0.6v-1.5h-0.8
		c-1.1,0-1.7,0.4-1.8,1.2l0,0.1c0,0.3,0.1,0.5,0.3,0.7C1048,6252,1048.3,6252.1,1048.6,6252.1z M1053.8,6249.4
		c-0.1-1.1,0.3-2.2,0.9-3.1c0.6-0.8,1.5-1.2,2.4-1.2c0.8,0,1.5,0.3,2,0.9v-4.3h2.3v12h-2l-0.1-0.9c-0.5,0.7-1.3,1.1-2.2,1.1
		c-0.9,0-1.8-0.4-2.4-1.2C1054.1,6251.7,1053.8,6250.5,1053.8,6249.4L1053.8,6249.4z M1056.1,6249.5c0,0.6,0.1,1.3,0.4,1.8
		c0.3,0.4,0.7,0.7,1.2,0.6c0.6,0,1.2-0.3,1.5-0.9v-3.4c-0.3-0.6-0.8-0.9-1.5-0.9C1056.6,6246.9,1056.1,6247.8,1056.1,6249.5
		L1056.1,6249.5z M974.9,6290h-4.5v4.6H968v-11.4h7.4v1.9h-5.1v2.9h4.5V6290z M979,6294.7h-2.3v-12h2.3V6294.7z M984.8,6294.8
		c-1.1,0-2.2-0.4-3-1.1c-0.8-0.8-1.2-1.9-1.2-3v-0.2c0-0.8,0.2-1.6,0.5-2.3c0.3-0.6,0.8-1.2,1.4-1.5c0.6-0.4,1.3-0.6,2.1-0.5
		c1-0.1,2,0.3,2.7,1.1c0.7,0.9,1.1,2,1,3.1v0.9h-5.4c0.1,0.5,0.3,1,0.7,1.3c0.4,0.3,0.9,0.5,1.4,0.5c0.8,0,1.6-0.3,2-0.9l1.1,1.2
		c-0.4,0.5-0.8,0.9-1.4,1.1C986.1,6294.7,985.4,6294.8,984.8,6294.8z M984.5,6287.9c-0.4,0-0.8,0.2-1.1,0.5
		c-0.3,0.4-0.5,0.8-0.5,1.3h3.1v-0.2c0-0.4-0.1-0.8-0.4-1.2C985.3,6288,984.9,6287.8,984.5,6287.9z M992.7,6288.7l1.4-2.5h2.4
		l-2.4,4.1l2.5,4.3h-2.4l-1.5-2.7l-1.5,2.7h-2.4l2.5-4.3l-2.4-4.1h2.4L992.7,6288.7z M1000,6294.7h-2.3v-8.5h2.3L1000,6294.7z
		 M997.6,6284c0-0.3,0.1-0.6,0.3-0.8c0.5-0.4,1.3-0.4,1.8,0c0.5,0.5,0.5,1.2,0,1.7c-0.5,0.4-1.3,0.4-1.8,0
		C997.8,6284.6,997.6,6284.3,997.6,6284L997.6,6284z M1009.5,6290.5c0.1,1.1-0.2,2.2-0.9,3.2c-0.6,0.8-1.5,1.2-2.4,1.1
		c-0.9,0-1.7-0.4-2.2-1.1l-0.1,0.9h-2v-12h2.3v4.3c0.5-0.6,1.3-0.9,2.1-0.9c0.9,0,1.9,0.4,2.4,1.1c0.6,0.9,0.9,2.1,0.9,3.2
		L1009.5,6290.5z M1007.3,6290.3c0-0.7-0.1-1.3-0.4-1.9c-0.3-0.4-0.7-0.6-1.2-0.6c-0.6-0.1-1.2,0.3-1.5,0.9v3.3
		c0.3,0.6,0.9,0.9,1.5,0.9c0.7,0,1.3-0.4,1.4-1.1C1007.2,6291.4,1007.3,6290.9,1007.3,6290.3L1007.3,6290.3z M1013.3,6294.7h-2.3
		v-8.5h2.3V6294.7z M1010.9,6284c0-0.3,0.1-0.6,0.3-0.8c0.5-0.4,1.3-0.4,1.8,0c0.5,0.5,0.5,1.2,0,1.7c-0.5,0.4-1.3,0.4-1.8,0
		C1011,6284.7,1010.9,6284.3,1010.9,6284z M1017.5,6294.7h-2.3v-12h2.3V6294.7z M1021.8,6294.7h-2.3v-8.5h2.3L1021.8,6294.7z
		 M1019.4,6284c0-0.3,0.1-0.6,0.3-0.8c0.5-0.4,1.3-0.4,1.8,0c0.5,0.5,0.5,1.2,0,1.7c-0.5,0.4-1.3,0.4-1.8,0
		C1019.5,6284.6,1019.4,6284.3,1019.4,6284L1019.4,6284z M1023.3,6290.4c-0.1-1.1,0.3-2.2,0.9-3.1c0.6-0.8,1.5-1.2,2.4-1.2
		c0.8,0,1.5,0.3,2,0.9v-4.3h2.3v12h-2l-0.1-0.9c-0.5,0.7-1.3,1.1-2.2,1.1c-0.9,0-1.8-0.4-2.4-1.2
		C1023.5,6292.7,1023.2,6291.5,1023.3,6290.4L1023.3,6290.4z M1025.6,6290.5c0,0.6,0.1,1.3,0.4,1.8c0.3,0.4,0.7,0.7,1.2,0.6
		c0.6,0,1.2-0.3,1.5-0.9v-3.4c-0.3-0.6-0.8-0.9-1.5-0.9C1026.1,6287.9,1025.6,6288.8,1025.6,6290.5L1025.6,6290.5z M1037.6,6294.7
		c-0.1-0.2-0.2-0.5-0.2-0.8c-0.5,0.6-1.3,0.9-2.1,0.9c-0.8,0-1.5-0.2-2.1-0.7c-0.5-0.5-0.8-1.1-0.8-1.8c0-0.8,0.3-1.6,1-2.1
		c0.9-0.5,1.9-0.8,2.9-0.7h1v-0.5c0-0.3-0.1-0.7-0.3-0.9c-0.2-0.3-0.6-0.4-0.9-0.4c-0.3,0-0.6,0.1-0.9,0.3c-0.2,0.2-0.3,0.5-0.3,0.8
		h-2.3c0-0.5,0.2-1,0.5-1.4c0.3-0.4,0.8-0.8,1.3-1c0.6-0.2,1.2-0.4,1.9-0.4c0.9,0,1.8,0.2,2.5,0.8c0.6,0.6,1,1.4,0.9,2.2v3.7
		c0,0.6,0.1,1.2,0.3,1.8v0.1H1037.6z M1035.7,6293.1c0.3,0,0.6-0.1,0.9-0.2c0.3-0.1,0.5-0.3,0.6-0.6v-1.5h-0.8
		c-1.1,0-1.7,0.4-1.8,1.2l0,0.1c0,0.3,0.1,0.5,0.3,0.7C1035.1,6293,1035.4,6293.1,1035.7,6293.1z M1040.9,6290.4
		c-0.1-1.1,0.3-2.2,0.9-3.1c0.6-0.8,1.5-1.2,2.4-1.2c0.8,0,1.5,0.3,2,0.9v-4.3h2.3v12h-2l-0.1-0.9c-0.5,0.7-1.3,1.1-2.2,1.1
		c-0.9,0-1.8-0.4-2.4-1.2C1041.1,6292.7,1040.8,6291.5,1040.9,6290.4L1040.9,6290.4z M1043.2,6290.5c0,0.6,0.1,1.3,0.4,1.8
		c0.3,0.4,0.7,0.7,1.2,0.6c0.6,0,1.2-0.3,1.5-0.9v-3.4c-0.3-0.6-0.8-0.9-1.5-0.9C1043.7,6287.9,1043.1,6288.8,1043.2,6290.5
		L1043.2,6290.5z"/>
	<g id="Grupo_180373" transform="translate(941.361 6118.076)">
		
			<linearGradient id="Elipse_6270_00000085218959548612165570000018015121545841012618_" gradientUnits="userSpaceOnUse" x1="-1060.9359" y1="610.8179" x2="-1060.9359" y2="609.8179" gradientTransform="matrix(14.104 0 0 -14.104 14970.4922 8614.9766)">
			<stop  offset="0" style="stop-color:#FDBE41"/>
			<stop  offset="1" style="stop-color:#D09F40"/>
		</linearGradient>
		
			<circle id="Elipse_6270" style="fill:url(#Elipse_6270_00000085218959548612165570000018015121545841012618_);" cx="7.1" cy="7.1" r="7.1"/>
		<path id="Trazado_231845" class="st2" d="M6.1,8.2c1.3-1.3,2.5-2.5,3.8-3.8C10.2,4,10.7,4,11.1,4.3c0.1,0.1,0.2,0.2,0.2,0.3
			c0.2,0.3,0.1,0.7-0.1,0.9c-1.5,1.5-3,3-4.4,4.4c-0.3,0.3-0.8,0.4-1.1,0.1c0,0-0.1-0.1-0.1-0.1C4.8,9.2,4.1,8.5,3.4,7.8
			C3,7.5,3,7,3.3,6.6s0.8-0.4,1.2-0.1c0,0,0,0,0,0C5.1,7.1,5.6,7.6,6.1,8.2"/>
	</g>
	<g id="Grupo_180374" transform="translate(941.361 6159.543)">
		
			<linearGradient id="Elipse_6270-2_00000067929758601104375700000011790741037598289594_" gradientUnits="userSpaceOnUse" x1="-1060.9359" y1="571.5724" x2="-1060.9359" y2="570.5724" gradientTransform="matrix(14.104 0 0 -15.386 14970.4922 8794.2139)">
			<stop  offset="0" style="stop-color:#FDBE41"/>
			<stop  offset="1" style="stop-color:#D09F40"/>
		</linearGradient>
		
			<ellipse id="Elipse_6270-2" style="fill:url(#Elipse_6270-2_00000067929758601104375700000011790741037598289594_);" cx="7.1" cy="7.7" rx="7.1" ry="7.7"/>
		<path id="Trazado_231845-2" class="st2" d="M6.1,8.5C7.4,7.2,8.6,6,9.9,4.8c0.3-0.4,0.8-0.4,1.2-0.1c0.1,0.1,0.2,0.2,0.2,0.3
			c0.2,0.3,0.1,0.7-0.1,0.9c-1.5,1.5-3,3-4.4,4.4c-0.3,0.3-0.8,0.4-1.1,0.1c0,0-0.1-0.1-0.1-0.1C4.8,9.6,4.1,8.9,3.4,8.2
			C3,7.9,3,7.3,3.3,7s0.8-0.4,1.2-0.1c0,0,0,0,0,0C5.1,7.5,5.6,8,6.1,8.5"/>
	</g>
	<g id="Grupo_180375" transform="translate(941.361 6200.01)">
		
			<linearGradient id="Elipse_6270-3_00000113318275491984654080000000546392254122610856_" gradientUnits="userSpaceOnUse" x1="-1060.9359" y1="531.1057" x2="-1060.9359" y2="530.1057" gradientTransform="matrix(14.104 0 0 -15.386 14970.4922 8171.5913)">
			<stop  offset="0" style="stop-color:#FDBE41"/>
			<stop  offset="1" style="stop-color:#D09F40"/>
		</linearGradient>
		
			<ellipse id="Elipse_6270-3" style="fill:url(#Elipse_6270-3_00000113318275491984654080000000546392254122610856_);" cx="7.1" cy="7.7" rx="7.1" ry="7.7"/>
		<path id="Trazado_231845-3" class="st2" d="M6.1,8.9c1.3-1.3,2.5-2.5,3.8-3.8c0.3-0.4,0.8-0.4,1.2-0.1c0.1,0.1,0.2,0.2,0.2,0.3
			c0.2,0.3,0.1,0.7-0.1,0.9c-1.5,1.5-3,3-4.4,4.4C6.4,11,5.9,11,5.6,10.7c0,0-0.1-0.1-0.1-0.1C4.8,10,4.1,9.3,3.4,8.5
			C3,8.2,3,7.7,3.3,7.3S4.2,7,4.5,7.3c0,0,0,0,0,0C5.1,7.8,5.6,8.4,6.1,8.9"/>
	</g>
	<g id="Grupo_180376" transform="translate(941.361 6239.759)">
		
			<linearGradient id="Elipse_6270-4_00000124136484627549624100000008186869408374558111_" gradientUnits="userSpaceOnUse" x1="-1060.9359" y1="489.1353" x2="-1060.9359" y2="488.1353" gradientTransform="matrix(14.104 0 0 -14.104 14970.4922 6898.7646)">
			<stop  offset="0" style="stop-color:#FDBE41"/>
			<stop  offset="1" style="stop-color:#D09F40"/>
		</linearGradient>
		
			<circle id="Elipse_6270-4" style="fill:url(#Elipse_6270-4_00000124136484627549624100000008186869408374558111_);" cx="7.1" cy="7.1" r="7.1"/>
		<path id="Trazado_231845-4" class="st2" d="M6.1,8c1.3-1.3,2.5-2.5,3.8-3.8c0.3-0.4,0.8-0.4,1.2-0.1c0.1,0.1,0.2,0.2,0.2,0.3
			c0.2,0.3,0.1,0.7-0.1,0.9c-1.5,1.5-3,3-4.4,4.4c-0.3,0.3-0.8,0.4-1.1,0.1c0,0-0.1-0.1-0.1-0.1C4.8,9,4.1,8.3,3.4,7.6
			C3,7.3,3,6.8,3.3,6.4s0.8-0.4,1.2-0.1c0,0,0,0,0,0C5.1,6.9,5.6,7.4,6.1,8"/>
	</g>
	<g id="Grupo_180377" transform="translate(941.361 6278.226)">
		
			<linearGradient id="Elipse_6270-5_00000091712444179367330900000000911309868648838031_" gradientUnits="userSpaceOnUse" x1="-1060.9359" y1="452.8893" x2="-1060.9359" y2="451.8893" gradientTransform="matrix(14.104 0 0 -15.386 14970.4922 6968.1553)">
			<stop  offset="0" style="stop-color:#FDBE41"/>
			<stop  offset="1" style="stop-color:#D09F40"/>
		</linearGradient>
		
			<ellipse id="Elipse_6270-5" style="fill:url(#Elipse_6270-5_00000091712444179367330900000000911309868648838031_);" cx="7.1" cy="7.7" rx="7.1" ry="7.7"/>
		<path id="Trazado_231845-5" class="st2" d="M6.1,8.4c1.3-1.3,2.5-2.5,3.8-3.8c0.3-0.4,0.8-0.4,1.2-0.1c0.1,0.1,0.2,0.2,0.2,0.3
			c0.2,0.3,0.1,0.7-0.1,0.9c-1.5,1.5-3,3-4.4,4.4c-0.3,0.3-0.8,0.4-1.1,0.1c0,0-0.1-0.1-0.1-0.1C4.8,9.4,4.1,8.7,3.4,8
			C3,7.7,3,7.1,3.3,6.8s0.8-0.4,1.2-0.1c0,0,0,0,0,0C5.1,7.3,5.6,7.8,6.1,8.4"/>
	</g>
</g>
</svg>
