<svg xmlns="http://www.w3.org/2000/svg" xmlns:xlink="http://www.w3.org/1999/xlink" width="464.505" height="633.241" viewBox="0 0 464.505 633.241">
  <defs>
    <linearGradient id="linear-gradient" x1="0.5" x2="0.5" y2="1" gradientUnits="objectBoundingBox">
      <stop offset="0" stop-color="#5573c6"/>
      <stop offset="1" stop-color="#2c4a9b"/>
    </linearGradient>
  </defs>
  <g id="Grupo_161674" data-name="Grupo 161674" transform="translate(-247.226 -995.148)">
    <g id="_ÎÓÈ_28_3_" data-name="—ÎÓÈ_28_3_" transform="translate(403.114 995.148)">
      <g id="Grupo_33182" data-name="Grupo 33182" transform="translate(76.456 30.858)">
        <g id="Grupo_33181" data-name="Grupo 33181">
          <path id="Trazado_81696" data-name="Trazado 81696" d="M1659,635.552a62.7,62.7,0,0,0-7.757,5l4.178,10.3a52.284,52.284,0,0,0-5.8,5.706l-10.487-4.006a62.231,62.231,0,0,0-4.968,7.581l8,7.7a51.645,51.645,0,0,0-3.059,7.879l-11.178.6a62.913,62.913,0,0,0-1.4,8.821l10.448,3.784a52.009,52.009,0,0,0,.449,8.677l-9.957,5.1a62.152,62.152,0,0,0,2.318,8.519l11.1-.794a51.556,51.556,0,0,0,4.066,7.837l-7,8.672q1.273,1.776,2.684,3.491c.943,1.141,1.922,2.236,2.926,3.292l9.831-5.248a51.6,51.6,0,0,0,6.934,5.465l-2.864,10.757a62.25,62.25,0,0,0,7.934,3.877l6.872-8.825a51.92,51.92,0,0,0,8.439,2.07l1.756,10.973a62.67,62.67,0,0,0,8.927.278l2.691-10.866a51.589,51.589,0,0,0,8.313-1.526l6.065,9.309a62.132,62.132,0,0,0,8.379-3.458l-1.966-11.052a52.272,52.272,0,0,0,6.694-4.624l9.327,6.035a62.659,62.659,0,0,0,6.365-6.681l-6.289-9.292a51.584,51.584,0,0,0,4.083-6.672l10.984,1.721a62.637,62.637,0,0,0,3.147-8.833l-9.528-5.932a52.111,52.111,0,0,0,1-7.465l10.755-2.9a62.435,62.435,0,0,0-.669-9.472l-11.1-1.542a51.412,51.412,0,0,0-2.023-7.069l8.666-7.04a62.266,62.266,0,0,0-4.46-8.452l-10.754,3.1c-.7-.978-1.44-1.943-2.22-2.885s-1.588-1.848-2.417-2.722l5.065-9.981a62.165,62.165,0,0,0-7.465-5.966l-8.541,7.189a51.51,51.51,0,0,0-6.563-3.313l.569-11.194a62.777,62.777,0,0,0-9.178-2.435l-4.868,10.02a52.153,52.153,0,0,0-7.521-.416l-4.039-10.472a62.52,62.52,0,0,0-9.265,1.435l-.371,11.111a51.605,51.605,0,0,0-7.32,2.757Zm52.492,36.272a29.63,29.63,0,1,1-41.717-3.95A29.629,29.629,0,0,1,1711.5,671.823Z" transform="translate(-1626.536 -628.169)" fill="#e8e8e8"/>
          <g id="Grupo_33180" data-name="Grupo 33180" transform="translate(42.92 43.331)">
            <path id="Trazado_81697" data-name="Trazado 81697" d="M1723.362,752.92a19.206,19.206,0,1,0,2.56-27.041A19.205,19.205,0,0,0,1723.362,752.92Z" transform="translate(-1718.955 -721.473)" fill="url(#linear-gradient)"/>
          </g>
        </g>
      </g>
      <g id="Grupo_33184" data-name="Grupo 33184" transform="translate(0 60.862)">
        <g id="Grupo_33183" data-name="Grupo 33183">
          <path id="Trazado_81698" data-name="Trazado 81698" d="M1472.081,718.554l-7.6-.8-2.58,9.94,7.126,3.036a31.736,31.736,0,0,0,1.049,9.739l-6.326,4.263,4.412,9.271,7.481-2.273a31.87,31.87,0,0,0,7.019,6.709l-2.132,7.43,9.341,4.267,4.354-6.683a31.771,31.771,0,0,0,9.532.594l3.213,7.227,9.9-2.736-.983-8.1a32.1,32.1,0,0,0,7.553-5.569l7.261,3.543,5.823-8.456-6.046-5.657a31.655,31.655,0,0,0,2.228-9.019l7.909-1.969-.974-10.223-8.269-.445a32.126,32.126,0,0,0-4.066-8.375l4.768-6.559-7.317-7.2-6.524,4.9a31.9,31.9,0,0,0-8.6-3.881l-.552-7.938-10.237-.815-1.806,7.774a31.869,31.869,0,0,0-9.257,2.6l-5.394-5.59-8.366,5.955,3.534,6.966A31.664,31.664,0,0,0,1472.081,718.554Zm33.111-2.743a16.973,16.973,0,1,1-20.7,12.163A16.973,16.973,0,0,1,1505.192,715.812Z" transform="translate(-1461.902 -692.777)" fill="#f59d36"/>
          <path id="Trazado_81699" data-name="Trazado 81699" d="M1529.626,775.6a11.606,11.606,0,1,0-8.317-14.149A11.606,11.606,0,0,0,1529.626,775.6Z" transform="translate(-1493.519 -724.901)" fill="#4adbd1"/>
        </g>
      </g>
      <path id="Trazado_81700" data-name="Trazado 81700" d="M1604.958,567.692l-9.158,6.48a19.838,19.838,0,0,0-5.171-1.79l-2.488-10.658-5.692.169-1.893,11.043a19.842,19.842,0,0,0-4.927,2.391l-9.29-5.774-3.905,4.145,6.477,9.155a19.812,19.812,0,0,0-1.793,5.167l-10.658,2.487.169,5.693,11.045,1.893a19.905,19.905,0,0,0,2.394,4.926L1564.3,612.3l4.145,3.9,9.152-6.474a19.8,19.8,0,0,0,5.163,1.8l2.488,10.658,5.693-.169,1.892-11.043a19.853,19.853,0,0,0,4.927-2.391l9.29,5.774,3.905-4.145-6.477-9.155a19.762,19.762,0,0,0,1.795-5.166l10.659-2.489-.169-5.692-11.042-1.893a19.9,19.9,0,0,0-2.39-4.929l5.777-9.294Zm-12.015,30.157a8.587,8.587,0,1,1-.362-12.139A8.587,8.587,0,0,1,1592.943,597.849Z" transform="translate(-1512.548 -561.723)" fill="#12263f"/>
      <path id="Trazado_81701" data-name="Trazado 81701" d="M1616.291,625.738a5.812,5.812,0,1,0-7.061-4.208A5.812,5.812,0,0,0,1616.291,625.738Z" transform="translate(-1540.714 -589.878)" fill="#1565c0"/>
    </g>
    <g id="Grupo_41974" data-name="Grupo 41974" transform="translate(247.226 1104.843)">
      <ellipse id="Elipse_3405" data-name="Elipse 3405" cx="219.254" cy="12.71" rx="219.254" ry="12.71" transform="translate(0 498.126)" fill="#fff"/>
      <g id="Grupo_33123" data-name="Grupo 33123" transform="translate(11.911 61.486)">
        <g id="Grupo_33119" data-name="Grupo 33119" transform="translate(71.2 388.74)">
          <path id="Trazado_81544" data-name="Trazado 81544" d="M1808.658,918.416l-2.675-42.2,15.249-.8-2.144,44.244Z" transform="translate(-1803.976 -875.412)" fill="#fac5c2"/>
          <g id="Grupo_33118" data-name="Grupo 33118" transform="translate(0 36.95)">
            <path id="Trazado_81545" data-name="Trazado 81545" d="M1807.724,931.546s-5.885,10.592-4.158,18.823l46.011.914s3.012-8.768-7.344-11.181-24.652-9.832-24.652-9.832S1811.664,935.41,1807.724,931.546Z" transform="translate(-1803.122 -929.494)" fill="#5573c6"/>
            <path id="Trazado_81546" data-name="Trazado 81546" d="M1803.5,957.392l46.01.914a9.686,9.686,0,0,0,.222-4.619l-46.665-.927A22.413,22.413,0,0,0,1803.5,957.392Z" transform="translate(-1803.065 -936.518)" fill="#f7ead5"/>
            <path id="Trazado_81547" data-name="Trazado 81547" d="M1823.026,932.515a6.383,6.383,0,0,1,1.542-2.06,6.6,6.6,0,0,1,3.476-1.148,28.051,28.051,0,0,1,3.226-.164,6.949,6.949,0,0,1,4.03.967,1.12,1.12,0,0,1,.588,1.055,1.041,1.041,0,0,1-.654.648,5.241,5.241,0,0,1-3,.08q-3.624-.637-7.18-1.608a14.785,14.785,0,0,1,.378,3.949,7.986,7.986,0,0,1-.875,3.6,2.966,2.966,0,0,1-1.07,1.17,1.57,1.57,0,0,1-1.532.056,1.657,1.657,0,0,1-.738-1.341,4.26,4.26,0,0,1,.273-1.56A22.3,22.3,0,0,1,1823.026,932.515Z" transform="translate(-1808.733 -929.142)" fill="none" stroke="#fff" stroke-linecap="round" stroke-linejoin="round" stroke-width="0.917"/>
          </g>
        </g>
        <g id="Grupo_33121" data-name="Grupo 33121" transform="translate(16.727 387.832)">
          <path id="Trazado_81548" data-name="Trazado 81548" d="M1729.446,917.1l-2.675-42.2,15.249-.8-2.143,44.244Z" transform="translate(-1724.764 -874.092)" fill="#fac5c2"/>
          <g id="Grupo_33120" data-name="Grupo 33120" transform="translate(0 36.95)">
            <path id="Trazado_81549" data-name="Trazado 81549" d="M1728.513,930.225s-5.885,10.592-4.158,18.823l46.011.915s3.012-8.768-7.344-11.18-24.652-9.833-24.652-9.833S1732.452,934.089,1728.513,930.225Z" transform="translate(-1723.911 -928.174)" fill="#5573c6"/>
            <path id="Trazado_81550" data-name="Trazado 81550" d="M1724.285,956.072l46.011.914a9.688,9.688,0,0,0,.222-4.619l-46.664-.927A22.365,22.365,0,0,0,1724.285,956.072Z" transform="translate(-1723.853 -935.198)" fill="#f7ead5"/>
            <path id="Trazado_81551" data-name="Trazado 81551" d="M1743.814,931.2a6.373,6.373,0,0,1,1.542-2.06,6.6,6.6,0,0,1,3.475-1.149,28.166,28.166,0,0,1,3.227-.164,6.945,6.945,0,0,1,4.03.967,1.121,1.121,0,0,1,.589,1.055,1.044,1.044,0,0,1-.655.648,5.243,5.243,0,0,1-3,.081q-3.623-.638-7.179-1.608a14.81,14.81,0,0,1,.377,3.949,7.967,7.967,0,0,1-.875,3.6,2.968,2.968,0,0,1-1.07,1.17,1.572,1.572,0,0,1-1.531.056,1.659,1.659,0,0,1-.738-1.341,4.267,4.267,0,0,1,.274-1.561A22.243,22.243,0,0,1,1743.814,931.2Z" transform="translate(-1729.521 -927.822)" fill="none" stroke="#fff" stroke-linecap="round" stroke-linejoin="round" stroke-width="0.917"/>
          </g>
        </g>
        <path id="Trazado_81552" data-name="Trazado 81552" d="M1837.132,464.074l6.658,45.394,29.847,46.945-8.057,4.5-35.71-35.408-9.684-41.158Z" transform="translate(-1737.211 -358.206)" fill="#fac5c2"/>
        <path id="Trazado_81553" data-name="Trazado 81553" d="M1798.825,610.009l1.463,17.887-.265,193.71-24.645.8-7.42-175.16-3.975-.265L1745.7,822.137H1719.73l3.975-99.372-1.06-106.792,16.43-11.395Z" transform="translate(-1705.838 -402.087)" fill="#00223d"/>
        <path id="Trazado_81554" data-name="Trazado 81554" d="M1726.281,634.64l20.139-21.2,21.994.265" transform="translate(-1707.884 -404.855)" fill="none" stroke="#356493" stroke-linecap="round" stroke-linejoin="round" stroke-width="1.156"/>
        <path id="Trazado_81555" data-name="Trazado 81555" d="M1789.862,650.13l1.59-3.18.265-33.124,19.875.53,10.6,16.43" transform="translate(-1727.741 -404.976)" fill="none" stroke="#356493" stroke-linecap="round" stroke-linejoin="round" stroke-width="1.156"/>
        <path id="Trazado_81556" data-name="Trazado 81556" d="M1791.561,543.917a2.053,2.053,0,1,0-2.053,2.053A2.053,2.053,0,0,0,1791.561,543.917Z" transform="translate(-1726.989 -382.501)" fill="none" stroke="#356493" stroke-linecap="round" stroke-linejoin="round" stroke-width="1.156"/>
        <path id="Trazado_81557" data-name="Trazado 81557" d="M1743.01,405.105s-19.608,7.474-22.3,8.776c-19.368,9.381-21.184,54.776-21.184,54.776h16.342l-2.156,87.914s46.62,9.684,82.027-.605l-4.5-80.273s13.459-.227,23.491-5.674c0,0-16.039-46-23.121-51.447s-34.227-10.289-34.227-10.289Z" transform="translate(-1699.529 -339.79)" fill="#5573c6"/>
        <path id="Trazado_81558" data-name="Trazado 81558" d="M1770.1,373.729l-7.1,24.257s-1.228,12.869,13.163,15.586c13.954,2.633,13.605-10.516,13.605-10.516l-.917-4.361,1.335-14.507Z" transform="translate(-1719.343 -329.991)" fill="#fac5c2"/>
        <path id="Trazado_81559" data-name="Trazado 81559" d="M1771.553,378.256l1.016-3.471,6.261,2.423,5.916,3.081,7.764,8.08-.728,7.907C1787.687,395.686,1773.505,392.609,1771.553,378.256Z" transform="translate(-1722.023 -330.321)" fill="#d88080"/>
        <g id="Grupo_33122" data-name="Grupo 33122" transform="translate(44.695 0)">
          <path id="Trazado_81560" data-name="Trazado 81560" d="M1806.508,342.892c-1.394,11.111-6.931,32.947-18.106,32.254-11.759-.729-17.3-7.444-18.544-18.495,0,0-5.984,1.917-5.278-6.065.311-3.521,4.175-1.5,4.175-1.5s-5.671-29.208,12.716-30.918S1808.416,327.683,1806.508,342.892Z" transform="translate(-1764.522 -312.584)" fill="#fac5c2"/>
          <path id="Trazado_81561" data-name="Trazado 81561" d="M1792.95,352.792a3.329,3.329,0,0,0,.994.509.908.908,0,0,0,.986-.376,1.776,1.776,0,0,0-.188-1.8,4.283,4.283,0,0,0-2.785-1.595,9.138,9.138,0,0,0-3.177-.359,4.067,4.067,0,0,0-2.869,1.616.768.768,0,0,0-.178.416.489.489,0,0,0,.328.471,1.039,1.039,0,0,0,.535-.032A8.384,8.384,0,0,1,1792.95,352.792Z" transform="translate(-1771.146 -322.311)" fill="#242638"/>
          <path id="Trazado_81562" data-name="Trazado 81562" d="M1811.358,355.651a2.85,2.85,0,0,1-.987.239.767.767,0,0,1-.734-.609,1.968,1.968,0,0,1,.662-1.679,3.7,3.7,0,0,1,2.813-.831,7.209,7.209,0,0,1,2.8.453,3.548,3.548,0,0,1,1.989,2.272.822.822,0,0,1,.035.444.487.487,0,0,1-.411.37.819.819,0,0,1-.445-.165A6.723,6.723,0,0,0,1811.358,355.651Z" transform="translate(-1778.603 -323.444)" fill="#242638"/>
          <path id="Trazado_81563" data-name="Trazado 81563" d="M1803,365.251c-.556,2.538.178,5.158.879,7.66a.993.993,0,0,1,.006.756.854.854,0,0,1-.233.239,3.115,3.115,0,0,1-1.648.619c-.848.06-1.834-.19-2.454.393" transform="translate(-1775.46 -327.343)" fill="none" stroke="#242638" stroke-miterlimit="10" stroke-width="0.679"/>
          <path id="Trazado_81564" data-name="Trazado 81564" d="M1814.242,364.811c.257-1.876-.317-3.5-1.28-3.636s-1.952,1.283-2.209,3.159.317,3.5,1.28,3.636S1813.986,366.688,1814.242,364.811Z" transform="translate(-1778.941 -326.068)" fill="#242638"/>
          <path id="Trazado_81565" data-name="Trazado 81565" d="M1792.735,361.556c.256-1.876-.317-3.5-1.281-3.636s-1.952,1.283-2.209,3.159.317,3.5,1.281,3.636S1792.478,363.433,1792.735,361.556Z" transform="translate(-1772.224 -325.051)" fill="#242638"/>
          <path id="Trazado_81566" data-name="Trazado 81566" d="M1803.3,383.55a31.313,31.313,0,0,1-14.194-1.565s2.157,5.744,6.785,6.01S1803.3,383.55,1803.3,383.55Z" transform="translate(-1772.201 -332.569)" fill="#fff"/>
          <path id="Trazado_81567" data-name="Trazado 81567" d="M1811.5,331.61c1.015-.58,2.284-1.163,2.447-2.321.157-1.118-.86-2.048-1.868-2.554a6.965,6.965,0,0,1-2.824-1.791c2.351-.165,3.579-3.195,2.837-5.433a7.725,7.725,0,0,0-4.171-4.334,18.908,18.908,0,0,0-5.986-1.435,71.739,71.739,0,0,0-11.606-.356c-3.249.164-6.85.447-9.4-1.572a7.282,7.282,0,0,0-2.25-1.6,3.155,3.155,0,0,0-3.5,2.045,9.194,9.194,0,0,0-.317,4.387c-1.507-.605-3.3-.945-4.7-.124s-1.813,3.206-.4,4c.459.259,1.083.367,1.287.854.228.545-.249,1.106-.665,1.525a17.954,17.954,0,0,0,.055,25.385c1.552-3.933,3.723-7.592,5.42-11.464s2.929-8.095,2.44-12.295c7.051,5.473,16.468,7.1,25.369,6.445a2.727,2.727,0,0,1,1.948.338,2.674,2.674,0,0,1,.7,1.978l.518,7.965A9.742,9.742,0,0,1,1811.5,331.61Z" transform="translate(-1764.718 -310.127)" fill="#242638"/>
          <path id="Trazado_81568" data-name="Trazado 81568" d="M1771.9,351.48a86.764,86.764,0,0,0,7.325-24.909c-.1.882,3.271,2.258,3.873,2.565a33.387,33.387,0,0,0,6.983,2.639c6.413,1.616,12.85,1.208,19.38,1.382a4.432,4.432,0,0,1,2.577.619,1.582,1.582,0,0,1,.329,2.326" transform="translate(-1766.825 -315.263)" fill="none" stroke="#fff" stroke-linecap="round" stroke-linejoin="round" stroke-width="0.69"/>
          <path id="Trazado_81569" data-name="Trazado 81569" d="M1815.8,328.972c-3.285-1.957-7.379-1.664-11.2-1.451-5.612.313-11.456.275-16.558-2.082" transform="translate(-1771.867 -314.909)" fill="none" stroke="#fff" stroke-linecap="round" stroke-linejoin="round" stroke-width="0.69"/>
        </g>
        <rect id="Rectángulo_26606" data-name="Rectángulo 26606" width="10.951" height="9.703" rx="1.976" transform="translate(68.355 41.942) rotate(-169.629)" fill="none" stroke="#242638" stroke-miterlimit="10" stroke-width="0.855"/>
        <rect id="Rectángulo_26607" data-name="Rectángulo 26607" width="10.157" height="9.703" rx="1.903" transform="translate(82.923 44.608) rotate(-169.629)" fill="none" stroke="#242638" stroke-miterlimit="10" stroke-width="0.823"/>
        <line id="Línea_268" data-name="Línea 268" x2="7.24" y2="0.787" transform="translate(50.853 35.451)" fill="none" stroke="#242638" stroke-miterlimit="10" stroke-width="0.66"/>
        <path id="Trazado_81570" data-name="Trazado 81570" d="M1799.912,365.374s3.643-1.15,4.653,1.053" transform="translate(-1730.88 -327.288)" fill="none" stroke="#242638" stroke-miterlimit="10" stroke-width="0.66"/>
        <line id="Línea_269" data-name="Línea 269" x2="0.947" y2="0.289" transform="translate(83.735 40.7)" fill="none" stroke="#242638" stroke-miterlimit="10" stroke-width="0.66"/>
        <line id="Línea_270" data-name="Línea 270" x1="1.778" y1="24.891" transform="translate(89.934 111.012)" fill="none" stroke="#242638" stroke-linecap="round" stroke-linejoin="round" stroke-width="1.32"/>
        <path id="Trazado_81571" data-name="Trazado 81571" d="M1732.568,497.079l4.54,26.026,42.973,33.29,20.579,1.21,9.987,3.934-4.54,4.842h-33.289l-56.558-27.253a3.978,3.978,0,0,1-2.195-2.916l-6.616-38.83Z" transform="translate(-1702.003 -368.514)" fill="#fac5c2"/>
        <path id="Trazado_81572" data-name="Trazado 81572" d="M1743.976,486.634l3.329.605.605-23.605" transform="translate(-1713.41 -358.069)" fill="none" stroke="#242638" stroke-linecap="round" stroke-linejoin="round" stroke-width="1.32"/>
      </g>
      <g id="Grupo_33139" data-name="Grupo 33139" transform="translate(205.291)">
        <rect id="Rectángulo_26608" data-name="Rectángulo 26608" width="199.735" height="508.416" fill="#d4dee8"/>
        <rect id="Rectángulo_26609" data-name="Rectángulo 26609" width="179.249" height="414.601" transform="translate(10.243 12.71)" fill="none" stroke="#242638" stroke-miterlimit="10" stroke-width="2.25"/>
        <g id="Grupo_33124" data-name="Grupo 33124" transform="translate(14.852 19.671)">
          <rect id="Rectángulo_26610" data-name="Rectángulo 26610" width="168.494" height="17.25" fill="#242638"/>
          <rect id="Rectángulo_26611" data-name="Rectángulo 26611" width="4.551" height="12.862" transform="translate(160.358 1.816)" fill="#2ec49f"/>
          <rect id="Rectángulo_26612" data-name="Rectángulo 26612" width="4.551" height="12.862" transform="translate(154.669 1.816)" fill="#2ec49f"/>
          <rect id="Rectángulo_26613" data-name="Rectángulo 26613" width="4.551" height="12.862" transform="translate(148.905 1.816)" fill="#2ec49f"/>
          <rect id="Rectángulo_26614" data-name="Rectángulo 26614" width="4.551" height="12.862" transform="translate(143.143 1.816)" fill="#2ec49f"/>
          <rect id="Rectángulo_26615" data-name="Rectángulo 26615" width="4.551" height="12.862" transform="translate(137.257 1.816)" fill="#2ec49f"/>
          <rect id="Rectángulo_26616" data-name="Rectángulo 26616" width="4.551" height="12.862" transform="translate(131.492 1.816)" fill="#2ec49f"/>
          <rect id="Rectángulo_26617" data-name="Rectángulo 26617" width="4.551" height="12.862" transform="translate(125.73 1.816)" fill="#2ec49f"/>
          <rect id="Rectángulo_26618" data-name="Rectángulo 26618" width="35.914" height="4.766" rx="2.383" transform="translate(64.786 3.632)" fill="#fff"/>
          <path id="Trazado_81573" data-name="Trazado 81573" d="M2053.878,260.38c0-2.34-1.6-4.237-3.585-4.237s-3.585,1.9-3.585,4.237,1.605,4.237,3.585,4.237S2053.878,262.719,2053.878,260.38Z" transform="translate(-2016.188 -251.452)" fill="#f59d36"/>
          <path id="Trazado_81574" data-name="Trazado 81574" d="M2038.857,260.38c0-2.34-1.6-4.237-3.585-4.237s-3.586,1.9-3.586,4.237,1.605,4.237,3.586,4.237S2038.857,262.719,2038.857,260.38Z" transform="translate(-2011.497 -251.452)" fill="#5793ce"/>
          <path id="Trazado_81575" data-name="Trazado 81575" d="M2023.834,260.38c0-2.34-1.605-4.237-3.585-4.237s-3.586,1.9-3.586,4.237,1.605,4.237,3.586,4.237S2023.834,262.719,2023.834,260.38Z" transform="translate(-2006.805 -251.452)" fill="#2ec49f"/>
        </g>
        <g id="Grupo_33125" data-name="Grupo 33125" transform="translate(14.852 41.914)">
          <rect id="Rectángulo_26619" data-name="Rectángulo 26619" width="168.494" height="17.25" fill="#242638"/>
          <rect id="Rectángulo_26620" data-name="Rectángulo 26620" width="4.551" height="12.862" transform="translate(160.358 1.816)" fill="#2ec49f"/>
          <rect id="Rectángulo_26621" data-name="Rectángulo 26621" width="4.551" height="12.862" transform="translate(154.669 1.816)" fill="#2ec49f"/>
          <rect id="Rectángulo_26622" data-name="Rectángulo 26622" width="4.551" height="12.862" transform="translate(148.905 1.816)" fill="#2ec49f"/>
          <rect id="Rectángulo_26623" data-name="Rectángulo 26623" width="4.551" height="12.862" transform="translate(143.143 1.816)" fill="#2ec49f"/>
          <rect id="Rectángulo_26624" data-name="Rectángulo 26624" width="4.551" height="12.862" transform="translate(137.257 1.816)" fill="#2ec49f"/>
          <rect id="Rectángulo_26625" data-name="Rectángulo 26625" width="35.914" height="4.766" rx="2.383" transform="translate(64.786 3.632)" fill="#fff"/>
          <ellipse id="Elipse_3406" data-name="Elipse 3406" cx="3.585" cy="4.237" rx="3.585" ry="4.237" transform="translate(30.52 4.691)" fill="#f59d36"/>
          <ellipse id="Elipse_3407" data-name="Elipse 3407" cx="3.585" cy="4.237" rx="3.585" ry="4.237" transform="translate(20.189 4.691)" fill="#5793ce"/>
          <ellipse id="Elipse_3408" data-name="Elipse 3408" cx="3.585" cy="4.237" rx="3.585" ry="4.237" transform="translate(9.859 4.691)" fill="#2ec49f"/>
        </g>
        <g id="Grupo_33126" data-name="Grupo 33126" transform="translate(14.852 63.476)">
          <rect id="Rectángulo_26626" data-name="Rectángulo 26626" width="168.494" height="17.25" fill="#242638"/>
          <rect id="Rectángulo_26627" data-name="Rectángulo 26627" width="4.551" height="12.862" transform="translate(160.358 1.816)" fill="#2ec49f"/>
          <rect id="Rectángulo_26628" data-name="Rectángulo 26628" width="4.551" height="12.862" transform="translate(154.669 1.816)" fill="#2ec49f"/>
          <rect id="Rectángulo_26629" data-name="Rectángulo 26629" width="4.551" height="12.862" transform="translate(148.905 1.816)" fill="#2ec49f"/>
          <rect id="Rectángulo_26630" data-name="Rectángulo 26630" width="35.914" height="4.766" rx="2.383" transform="translate(64.786 3.632)" fill="#fff"/>
          <ellipse id="Elipse_3409" data-name="Elipse 3409" cx="3.585" cy="4.237" rx="3.585" ry="4.237" transform="translate(30.52 4.691)" fill="#f59d36"/>
          <ellipse id="Elipse_3410" data-name="Elipse 3410" cx="3.585" cy="4.237" rx="3.585" ry="4.237" transform="translate(20.189 4.691)" fill="#5793ce"/>
          <ellipse id="Elipse_3411" data-name="Elipse 3411" cx="3.585" cy="4.237" rx="3.585" ry="4.237" transform="translate(9.859 4.691)" fill="#2ec49f"/>
        </g>
        <g id="Grupo_33127" data-name="Grupo 33127" transform="translate(14.852 162.511)">
          <rect id="Rectángulo_26631" data-name="Rectángulo 26631" width="168.494" height="17.25" fill="#242638"/>
          <rect id="Rectángulo_26632" data-name="Rectángulo 26632" width="4.551" height="12.862" transform="translate(160.358 1.816)" fill="#2ec49f"/>
          <rect id="Rectángulo_26633" data-name="Rectángulo 26633" width="4.551" height="12.862" transform="translate(154.669 1.816)" fill="#2ec49f"/>
          <rect id="Rectángulo_26634" data-name="Rectángulo 26634" width="4.551" height="12.862" transform="translate(148.905 1.816)" fill="#2ec49f"/>
          <rect id="Rectángulo_26635" data-name="Rectángulo 26635" width="4.551" height="12.862" transform="translate(143.143 1.816)" fill="#2ec49f"/>
          <rect id="Rectángulo_26636" data-name="Rectángulo 26636" width="4.551" height="12.862" transform="translate(137.257 1.816)" fill="#2ec49f"/>
          <rect id="Rectángulo_26637" data-name="Rectángulo 26637" width="4.551" height="12.862" transform="translate(131.492 1.816)" fill="#2ec49f"/>
          <rect id="Rectángulo_26638" data-name="Rectángulo 26638" width="4.551" height="12.862" transform="translate(125.73 1.816)" fill="#2ec49f"/>
          <rect id="Rectángulo_26639" data-name="Rectángulo 26639" width="35.914" height="4.766" rx="2.383" transform="translate(64.786 3.632)" fill="#fff"/>
          <ellipse id="Elipse_3412" data-name="Elipse 3412" cx="3.585" cy="4.237" rx="3.585" ry="4.237" transform="translate(30.52 4.691)" fill="#f59d36"/>
          <ellipse id="Elipse_3413" data-name="Elipse 3413" cx="3.585" cy="4.237" rx="3.585" ry="4.237" transform="translate(20.189 4.691)" fill="#5793ce"/>
          <ellipse id="Elipse_3414" data-name="Elipse 3414" cx="3.585" cy="4.237" rx="3.585" ry="4.237" transform="translate(9.859 4.691)" fill="#2ec49f"/>
        </g>
        <g id="Grupo_33128" data-name="Grupo 33128" transform="translate(14.852 184.755)">
          <rect id="Rectángulo_26640" data-name="Rectángulo 26640" width="168.494" height="17.25" fill="#242638"/>
          <rect id="Rectángulo_26641" data-name="Rectángulo 26641" width="4.551" height="12.862" transform="translate(160.358 1.816)" fill="#2ec49f"/>
          <rect id="Rectángulo_26642" data-name="Rectángulo 26642" width="4.551" height="12.862" transform="translate(154.669 1.816)" fill="#2ec49f"/>
          <rect id="Rectángulo_26643" data-name="Rectángulo 26643" width="4.551" height="12.862" transform="translate(148.905 1.816)" fill="#2ec49f"/>
          <rect id="Rectángulo_26644" data-name="Rectángulo 26644" width="4.551" height="12.862" transform="translate(143.143 1.816)" fill="#2ec49f"/>
          <rect id="Rectángulo_26645" data-name="Rectángulo 26645" width="4.551" height="12.862" transform="translate(137.257 1.816)" fill="#2ec49f"/>
          <rect id="Rectángulo_26646" data-name="Rectángulo 26646" width="35.914" height="4.766" rx="2.383" transform="translate(64.786 3.632)" fill="#fff"/>
          <ellipse id="Elipse_3415" data-name="Elipse 3415" cx="3.585" cy="4.237" rx="3.585" ry="4.237" transform="translate(30.52 4.691)" fill="#f59d36"/>
          <ellipse id="Elipse_3416" data-name="Elipse 3416" cx="3.585" cy="4.237" rx="3.585" ry="4.237" transform="translate(20.189 4.691)" fill="#5793ce"/>
          <ellipse id="Elipse_3417" data-name="Elipse 3417" cx="3.585" cy="4.237" rx="3.585" ry="4.237" transform="translate(9.859 4.691)" fill="#2ec49f"/>
        </g>
        <g id="Grupo_33129" data-name="Grupo 33129" transform="translate(14.852 206.317)">
          <rect id="Rectángulo_26647" data-name="Rectángulo 26647" width="168.494" height="17.25" fill="#242638"/>
          <rect id="Rectángulo_26648" data-name="Rectángulo 26648" width="4.551" height="12.862" transform="translate(160.358 1.816)" fill="#2ec49f"/>
          <rect id="Rectángulo_26649" data-name="Rectángulo 26649" width="4.551" height="12.862" transform="translate(154.669 1.816)" fill="#2ec49f"/>
          <rect id="Rectángulo_26650" data-name="Rectángulo 26650" width="4.551" height="12.862" transform="translate(148.905 1.816)" fill="#2ec49f"/>
          <rect id="Rectángulo_26651" data-name="Rectángulo 26651" width="35.914" height="4.766" rx="2.383" transform="translate(64.786 3.632)" fill="#fff"/>
          <path id="Trazado_81576" data-name="Trazado 81576" d="M2053.878,531.79c0-2.34-1.6-4.237-3.585-4.237s-3.585,1.9-3.585,4.237,1.605,4.237,3.585,4.237S2053.878,534.13,2053.878,531.79Z" transform="translate(-2016.188 -522.863)" fill="#f59d36"/>
          <path id="Trazado_81577" data-name="Trazado 81577" d="M2038.857,531.79c0-2.34-1.6-4.237-3.585-4.237s-3.586,1.9-3.586,4.237,1.605,4.237,3.586,4.237S2038.857,534.13,2038.857,531.79Z" transform="translate(-2011.497 -522.863)" fill="#5793ce"/>
          <path id="Trazado_81578" data-name="Trazado 81578" d="M2023.834,531.79c0-2.34-1.605-4.237-3.585-4.237s-3.586,1.9-3.586,4.237,1.605,4.237,3.586,4.237S2023.834,534.13,2023.834,531.79Z" transform="translate(-2006.805 -522.863)" fill="#2ec49f"/>
        </g>
        <g id="Grupo_33130" data-name="Grupo 33130" transform="translate(14.852 284.773)">
          <rect id="Rectángulo_26652" data-name="Rectángulo 26652" width="168.494" height="17.25" fill="#242638"/>
          <rect id="Rectángulo_26653" data-name="Rectángulo 26653" width="4.551" height="12.862" transform="translate(160.358 1.816)" fill="#2ec49f"/>
          <rect id="Rectángulo_26654" data-name="Rectángulo 26654" width="4.551" height="12.862" transform="translate(154.669 1.816)" fill="#2ec49f"/>
          <rect id="Rectángulo_26655" data-name="Rectángulo 26655" width="4.551" height="12.862" transform="translate(148.905 1.816)" fill="#2ec49f"/>
          <rect id="Rectángulo_26656" data-name="Rectángulo 26656" width="4.551" height="12.862" transform="translate(143.143 1.816)" fill="#2ec49f"/>
          <rect id="Rectángulo_26657" data-name="Rectángulo 26657" width="4.551" height="12.862" transform="translate(137.257 1.816)" fill="#2ec49f"/>
          <rect id="Rectángulo_26658" data-name="Rectángulo 26658" width="4.551" height="12.862" transform="translate(131.492 1.816)" fill="#2ec49f"/>
          <rect id="Rectángulo_26659" data-name="Rectángulo 26659" width="4.551" height="12.862" transform="translate(125.73 1.816)" fill="#2ec49f"/>
          <rect id="Rectángulo_26660" data-name="Rectángulo 26660" width="35.914" height="4.766" rx="2.383" transform="translate(64.786 3.632)" fill="#fff"/>
          <ellipse id="Elipse_3418" data-name="Elipse 3418" cx="3.585" cy="4.237" rx="3.585" ry="4.237" transform="translate(30.52 4.691)" fill="#f59d36"/>
          <ellipse id="Elipse_3419" data-name="Elipse 3419" cx="3.585" cy="4.237" rx="3.585" ry="4.237" transform="translate(20.189 4.691)" fill="#5793ce"/>
          <ellipse id="Elipse_3420" data-name="Elipse 3420" cx="3.585" cy="4.237" rx="3.585" ry="4.237" transform="translate(9.859 4.691)" fill="#2ec49f"/>
        </g>
        <g id="Grupo_33131" data-name="Grupo 33131" transform="translate(14.852 307.016)">
          <rect id="Rectángulo_26661" data-name="Rectángulo 26661" width="168.494" height="17.25" fill="#242638"/>
          <rect id="Rectángulo_26662" data-name="Rectángulo 26662" width="4.551" height="12.862" transform="translate(160.358 1.816)" fill="#2ec49f"/>
          <rect id="Rectángulo_26663" data-name="Rectángulo 26663" width="4.551" height="12.862" transform="translate(154.669 1.816)" fill="#2ec49f"/>
          <rect id="Rectángulo_26664" data-name="Rectángulo 26664" width="4.551" height="12.862" transform="translate(148.905 1.816)" fill="#2ec49f"/>
          <rect id="Rectángulo_26665" data-name="Rectángulo 26665" width="4.551" height="12.862" transform="translate(143.143 1.816)" fill="#2ec49f"/>
          <rect id="Rectángulo_26666" data-name="Rectángulo 26666" width="4.551" height="12.862" transform="translate(137.257 1.816)" fill="#2ec49f"/>
          <rect id="Rectángulo_26667" data-name="Rectángulo 26667" width="35.914" height="4.766" rx="2.383" transform="translate(64.786 3.632)" fill="#fff"/>
          <path id="Trazado_81579" data-name="Trazado 81579" d="M2053.878,678.222c0-2.34-1.6-4.237-3.585-4.237s-3.585,1.9-3.585,4.237,1.605,4.237,3.585,4.237S2053.878,680.562,2053.878,678.222Z" transform="translate(-2016.188 -669.295)" fill="#f59d36"/>
          <path id="Trazado_81580" data-name="Trazado 81580" d="M2038.857,678.222c0-2.34-1.6-4.237-3.585-4.237s-3.586,1.9-3.586,4.237,1.605,4.237,3.586,4.237S2038.857,680.562,2038.857,678.222Z" transform="translate(-2011.497 -669.295)" fill="#5793ce"/>
          <path id="Trazado_81581" data-name="Trazado 81581" d="M2023.834,678.222c0-2.34-1.605-4.237-3.585-4.237s-3.586,1.9-3.586,4.237,1.605,4.237,3.586,4.237S2023.834,680.562,2023.834,678.222Z" transform="translate(-2006.805 -669.295)" fill="#2ec49f"/>
        </g>
        <g id="Grupo_33132" data-name="Grupo 33132" transform="translate(14.852 328.579)">
          <rect id="Rectángulo_26668" data-name="Rectángulo 26668" width="168.494" height="17.25" fill="#242638"/>
          <rect id="Rectángulo_26669" data-name="Rectángulo 26669" width="4.551" height="12.862" transform="translate(160.358 1.816)" fill="#2ec49f"/>
          <rect id="Rectángulo_26670" data-name="Rectángulo 26670" width="4.551" height="12.862" transform="translate(154.669 1.816)" fill="#2ec49f"/>
          <rect id="Rectángulo_26671" data-name="Rectángulo 26671" width="4.551" height="12.862" transform="translate(148.905 1.816)" fill="#2ec49f"/>
          <rect id="Rectángulo_26672" data-name="Rectángulo 26672" width="35.914" height="4.766" rx="2.383" transform="translate(64.786 3.632)" fill="#fff"/>
          <path id="Trazado_81582" data-name="Trazado 81582" d="M2053.878,709.577c0-2.34-1.6-4.237-3.585-4.237s-3.585,1.9-3.585,4.237,1.605,4.237,3.585,4.237S2053.878,711.916,2053.878,709.577Z" transform="translate(-2016.188 -700.649)" fill="#f59d36"/>
          <path id="Trazado_81583" data-name="Trazado 81583" d="M2038.857,709.577c0-2.34-1.6-4.237-3.585-4.237s-3.586,1.9-3.586,4.237,1.605,4.237,3.586,4.237S2038.857,711.916,2038.857,709.577Z" transform="translate(-2011.497 -700.649)" fill="#5793ce"/>
          <path id="Trazado_81584" data-name="Trazado 81584" d="M2023.834,709.577c0-2.34-1.605-4.237-3.585-4.237s-3.586,1.9-3.586,4.237,1.605,4.237,3.586,4.237S2023.834,711.916,2023.834,709.577Z" transform="translate(-2006.805 -700.649)" fill="#2ec49f"/>
        </g>
        <g id="Grupo_33133" data-name="Grupo 33133" transform="translate(14.852 98.354)">
          <rect id="Rectángulo_26673" data-name="Rectángulo 26673" width="168.494" height="37.526" fill="#242638"/>
        </g>
        <g id="Grupo_33134" data-name="Grupo 33134" transform="translate(14.852 235.142)">
          <rect id="Rectángulo_26674" data-name="Rectángulo 26674" width="168.494" height="37.526" fill="#242638"/>
        </g>
        <g id="Grupo_33135" data-name="Grupo 33135" transform="translate(14.852 361.641)">
          <rect id="Rectángulo_26675" data-name="Rectángulo 26675" width="168.494" height="37.526" fill="#242638"/>
        </g>
        <g id="Grupo_33136" data-name="Grupo 33136" transform="translate(152.234 443.653)">
          <rect id="Rectángulo_26676" data-name="Rectángulo 26676" width="33.033" height="4.085" rx="2.043" fill="#242638"/>
          <rect id="Rectángulo_26677" data-name="Rectángulo 26677" width="33.033" height="4.085" rx="2.043" transform="translate(0 8.398)" fill="#242638"/>
          <rect id="Rectángulo_26678" data-name="Rectángulo 26678" width="33.033" height="4.085" rx="2.043" transform="translate(0 21.108)" fill="#242638"/>
          <rect id="Rectángulo_26679" data-name="Rectángulo 26679" width="33.033" height="4.085" rx="2.043" transform="translate(0 29.506)" fill="#242638"/>
          <rect id="Rectángulo_26680" data-name="Rectángulo 26680" width="33.033" height="4.085" rx="2.043" transform="translate(0 42.898)" fill="#242638"/>
          <rect id="Rectángulo_26681" data-name="Rectángulo 26681" width="33.033" height="4.085" rx="2.043" transform="translate(0 51.295)" fill="#242638"/>
        </g>
        <g id="Grupo_33137" data-name="Grupo 33137" transform="translate(83.671 443.653)">
          <path id="Rectángulo_26682" data-name="Rectángulo 26682" d="M2.043,0H30.99a2.043,2.043,0,0,1,2.043,2.043v0A2.043,2.043,0,0,1,30.99,4.085H2.043A2.043,2.043,0,0,1,0,2.043v0A2.043,2.043,0,0,1,2.043,0Z" fill="#242638"/>
          <path id="Rectángulo_26683" data-name="Rectángulo 26683" d="M2.043,0H30.99a2.043,2.043,0,0,1,2.043,2.043v0A2.043,2.043,0,0,1,30.99,4.085H2.043A2.043,2.043,0,0,1,0,2.043v0A2.043,2.043,0,0,1,2.043,0Z" transform="translate(0 8.398)" fill="#242638"/>
          <path id="Rectángulo_26684" data-name="Rectángulo 26684" d="M2.043,0H30.99a2.043,2.043,0,0,1,2.043,2.043v0A2.043,2.043,0,0,1,30.99,4.085H2.043A2.043,2.043,0,0,1,0,2.043v0A2.043,2.043,0,0,1,2.043,0Z" transform="translate(0 21.108)" fill="#242638"/>
          <path id="Rectángulo_26685" data-name="Rectángulo 26685" d="M2.043,0H30.99a2.043,2.043,0,0,1,2.043,2.043v0A2.043,2.043,0,0,1,30.99,4.085H2.043A2.043,2.043,0,0,1,0,2.043v0A2.043,2.043,0,0,1,2.043,0Z" transform="translate(0 29.506)" fill="#242638"/>
          <path id="Rectángulo_26686" data-name="Rectángulo 26686" d="M2.043,0H30.99a2.043,2.043,0,0,1,2.043,2.043v0A2.043,2.043,0,0,1,30.99,4.085H2.043A2.043,2.043,0,0,1,0,2.043v0A2.043,2.043,0,0,1,2.043,0Z" transform="translate(0 42.898)" fill="#242638"/>
          <path id="Rectángulo_26687" data-name="Rectángulo 26687" d="M2.043,0H30.99a2.043,2.043,0,0,1,2.043,2.043v0A2.043,2.043,0,0,1,30.99,4.085H2.043A2.043,2.043,0,0,1,0,2.043v0A2.043,2.043,0,0,1,2.043,0Z" transform="translate(0 51.295)" fill="#242638"/>
        </g>
        <g id="Grupo_33138" data-name="Grupo 33138" transform="translate(15.492 443.653)">
          <path id="Rectángulo_26688" data-name="Rectángulo 26688" d="M2.043,0H30.99a2.043,2.043,0,0,1,2.043,2.043v0A2.043,2.043,0,0,1,30.99,4.085H2.043A2.043,2.043,0,0,1,0,2.043v0A2.043,2.043,0,0,1,2.043,0Z" fill="#242638"/>
          <path id="Rectángulo_26689" data-name="Rectángulo 26689" d="M2.043,0H30.99a2.043,2.043,0,0,1,2.043,2.043v0A2.043,2.043,0,0,1,30.99,4.085H2.043A2.043,2.043,0,0,1,0,2.043v0A2.043,2.043,0,0,1,2.043,0Z" transform="translate(0 8.398)" fill="#242638"/>
          <path id="Rectángulo_26690" data-name="Rectángulo 26690" d="M2.043,0H30.99a2.043,2.043,0,0,1,2.043,2.043v0A2.043,2.043,0,0,1,30.99,4.085H2.043A2.043,2.043,0,0,1,0,2.043v0A2.043,2.043,0,0,1,2.043,0Z" transform="translate(0 21.108)" fill="#242638"/>
          <path id="Rectángulo_26691" data-name="Rectángulo 26691" d="M2.043,0H30.99a2.043,2.043,0,0,1,2.043,2.043v0A2.043,2.043,0,0,1,30.99,4.085H2.043A2.043,2.043,0,0,1,0,2.043v0A2.043,2.043,0,0,1,2.043,0Z" transform="translate(0 29.506)" fill="#242638"/>
          <path id="Rectángulo_26692" data-name="Rectángulo 26692" d="M2.043,0H30.99a2.043,2.043,0,0,1,2.043,2.043v0A2.043,2.043,0,0,1,30.99,4.085H2.043A2.043,2.043,0,0,1,0,2.043v0A2.043,2.043,0,0,1,2.043,0Z" transform="translate(0 42.898)" fill="#242638"/>
          <path id="Rectángulo_26693" data-name="Rectángulo 26693" d="M2.043,0H30.99a2.043,2.043,0,0,1,2.043,2.043v0A2.043,2.043,0,0,1,30.99,4.085H2.043A2.043,2.043,0,0,1,0,2.043v0A2.043,2.043,0,0,1,2.043,0Z" transform="translate(0 51.295)" fill="#242638"/>
        </g>
      </g>
      <path id="Trazado_81585" data-name="Trazado 81585" d="M1936.725,723.355c8.776,0,25.421-1.211,25.421,21.486s-2.724,61.131,11.8,61.131,13.921-20.882,13.921-58.71,1.211-36.315,6.053-36.315" transform="translate(-1761.697 -373.819)" fill="none" stroke="#2ec49f" stroke-miterlimit="10" stroke-width="2.64"/>
      <rect id="Rectángulo_26694" data-name="Rectángulo 26694" width="10.895" height="245.734" transform="translate(184.712 262.379)" fill="#d4dee8"/>
      <path id="Trazado_81586" data-name="Trazado 81586" d="M1936.725,730.622c6.96,0,18.763.3,18.763,13.316s-10.289,118.328,16.947,118.328,27.539-32.684,27.539-72.026-3.026-79.288,4.54-79.288" transform="translate(-1761.697 -373.823)" fill="none" stroke="#5793ce" stroke-miterlimit="10" stroke-width="2.64"/>
      <rect id="Rectángulo_26695" data-name="Rectángulo 26695" width="10.895" height="245.734" transform="translate(74.253 262.379)" fill="#d4dee8"/>
      <rect id="Rectángulo_26696" data-name="Rectángulo 26696" width="21.184" height="129.525" transform="translate(198.633 259.352) rotate(90)" fill="#d4dee8"/>
      <path id="Trazado_81587" data-name="Trazado 81587" d="M1953.219,591.913c13.164,0,10.895,11.348,10.895,39.947s-6.506,39.266-29.809,39.266" transform="translate(-1760.941 -336.646)" fill="none" stroke="#f59d36" stroke-miterlimit="10" stroke-width="2.64"/>
      <rect id="Rectángulo_26697" data-name="Rectángulo 26697" width="11.197" height="116.209" transform="translate(192.278 367.391) rotate(90)" fill="#d4dee8"/>
      <g id="Grupo_33141" data-name="Grupo 33141" transform="translate(69.141 191.476)">
        <g id="Grupo_33140" data-name="Grupo 33140" transform="translate(0)">
          <path id="Trazado_81588" data-name="Trazado 81588" d="M1939.354,499.152l-92.04,1.263-11.832,67.265,91.428-.359Z" transform="translate(-1799.218 -499.152)" fill="#242638"/>
          <rect id="Rectángulo_26698" data-name="Rectángulo 26698" width="58.64" height="5.823" transform="translate(0 62.787) rotate(-0.786)" fill="#242638"/>
        </g>
        <path id="Trazado_81589" data-name="Trazado 81589" d="M1921.27,538.344a7.9,7.9,0,1,0-7.792,8.01A7.9,7.9,0,0,0,1921.27,538.344Z" transform="translate(-1821.076 -508.958)" fill="#fff"/>
      </g>
      <g id="Grupo_33142" data-name="Grupo 33142" transform="translate(93.772 345.148)">
        <rect id="Rectángulo_26699" data-name="Rectángulo 26699" width="84.887" height="22.243" fill="#a9bdd2"/>
        <path id="Trazado_81590" data-name="Trazado 81590" d="M1895.77,742.019h-66.73a4.325,4.325,0,0,1-4.313-4.312h0a4.325,4.325,0,0,1,4.313-4.312h66.73a4.325,4.325,0,0,1,4.312,4.312h0A4.325,4.325,0,0,1,1895.77,742.019Z" transform="translate(-1820.491 -725.98)" fill="#242638"/>
        <circle id="Elipse_3421" data-name="Elipse 3421" cx="2.875" cy="2.875" r="2.875" transform="translate(70.777 8.928)" fill="#5793ce"/>
        <circle id="Elipse_3422" data-name="Elipse 3422" cx="2.875" cy="2.875" r="2.875" transform="translate(63.401 8.928)" fill="#5793ce"/>
        <path id="Trazado_81591" data-name="Trazado 81591" d="M1905.454,738.469a2.875,2.875,0,1,0-2.875,2.875A2.875,2.875,0,0,0,1905.454,738.469Z" transform="translate(-1843.907 -726.667)" fill="#5793ce"/>
        <path id="Trazado_81592" data-name="Trazado 81592" d="M1894.728,738.469a2.875,2.875,0,1,0-2.875,2.875A2.875,2.875,0,0,0,1894.728,738.469Z" transform="translate(-1840.557 -726.667)" fill="#5793ce"/>
        <circle id="Elipse_3423" data-name="Elipse 3423" cx="2.875" cy="2.875" r="2.875" transform="translate(40.931 8.928)" fill="#5793ce"/>
        <circle id="Elipse_3424" data-name="Elipse 3424" cx="2.875" cy="2.875" r="2.875" transform="translate(33.554 8.928)" fill="#5793ce"/>
      </g>
      <g id="Grupo_33143" data-name="Grupo 33143" transform="translate(93.89 321.845)">
        <rect id="Rectángulo_26700" data-name="Rectángulo 26700" width="84.887" height="22.243" fill="#a9bdd2"/>
        <path id="Trazado_81593" data-name="Trazado 81593" d="M1895.942,708.134h-66.729a4.325,4.325,0,0,1-4.312-4.312h0a4.325,4.325,0,0,1,4.312-4.312h66.729a4.325,4.325,0,0,1,4.312,4.312h0A4.325,4.325,0,0,1,1895.942,708.134Z" transform="translate(-1820.663 -692.095)" fill="#242638"/>
        <path id="Trazado_81594" data-name="Trazado 81594" d="M1927.409,704.584a2.875,2.875,0,1,0-2.875,2.875A2.875,2.875,0,0,0,1927.409,704.584Z" transform="translate(-1850.882 -692.782)" fill="#f59d36"/>
        <circle id="Elipse_3425" data-name="Elipse 3425" cx="2.875" cy="2.875" r="2.875" transform="translate(63.401 8.928)" fill="#f59d36"/>
        <path id="Trazado_81595" data-name="Trazado 81595" d="M1905.626,704.584a2.875,2.875,0,1,0-2.875,2.875A2.875,2.875,0,0,0,1905.626,704.584Z" transform="translate(-1844.079 -692.782)" fill="#f59d36"/>
        <path id="Trazado_81596" data-name="Trazado 81596" d="M1894.9,704.584a2.875,2.875,0,1,0-2.875,2.875A2.875,2.875,0,0,0,1894.9,704.584Z" transform="translate(-1840.729 -692.782)" fill="#f59d36"/>
        <circle id="Elipse_3426" data-name="Elipse 3426" cx="2.875" cy="2.875" r="2.875" transform="translate(40.93 8.928)" fill="#f59d36"/>
        <circle id="Elipse_3427" data-name="Elipse 3427" cx="2.875" cy="2.875" r="2.875" transform="translate(33.554 8.928)" fill="#f59d36"/>
      </g>
      <line id="Línea_271" data-name="Línea 271" x2="84.887" transform="translate(93.772 344.996)" fill="none" stroke="#242638" stroke-miterlimit="10" stroke-width="2.64"/>
    </g>
    <g id="Grupo_156383" data-name="Grupo 156383" transform="translate(403.114 1152.54)">
      <g id="Grupo_156205" data-name="Grupo 156205">
        <g id="Grupo_156176" data-name="Grupo 156176" transform="translate(0 12.28)">
          <path id="Trazado_196533" data-name="Trazado 196533" d="M819.875,191.01c0-19.152.224-35.829,0-53.81-26.833,0-53.8.78-80.838.5-.259,18.325,0,35.561,0,53.378Q779.567,191.074,819.875,191.01Z" transform="translate(-738.4 -136.678)" fill="#fff"/>
          <path id="Trazado_196534" data-name="Trazado 196534" d="M739.037,191.6a.522.522,0,0,1-.522-.522c0-5.94-.029-11.914-.057-17.691-.057-11.542-.115-23.476.057-35.694a.521.521,0,0,1,.522-.514h.005c15.615.164,31.452-.03,46.768-.218,11.176-.137,22.732-.278,34.065-.278a.522.522,0,0,1,.522.515c.147,11.862.1,23.084.051,34.965-.025,6.062-.051,12.331-.051,18.852a.521.521,0,0,1-.522.522c-13.425,0-27.1.016-40.317.032C766.287,191.58,752.564,191.6,739.037,191.6Zm.514-53.373c-.163,12.028-.106,23.782-.05,35.156.027,5.61.056,11.4.057,17.174,13.359,0,26.9-.016,40-.031,13.051-.016,26.539-.032,39.8-.032,0-6.336.026-12.434.051-18.336.049-11.7.094-22.769-.045-34.433-11.163.005-22.534.144-33.537.279C770.672,138.186,755.008,138.379,739.551,138.223Z" transform="translate(-738.401 -136.679)"/>
        </g>
        <g id="Grupo_156177" data-name="Grupo 156177" transform="translate(0.114 6.864)">
          <path id="Trazado_196535" data-name="Trazado 196535" d="M739.206,132.147c-.089,2.234-.068,4.355-.17,6.915,27.058.058,53.866.023,80.839-.063,0-2.311-.068-5.33-.068-7.208Z" transform="translate(-738.514 -131.27)" fill="#f59d36"/>
          <path id="Trazado_196536" data-name="Trazado 196536" d="M766.388,139.613c-9.393,0-18.484-.01-27.352-.029a.522.522,0,0,1-.521-.542c.053-1.317.073-2.518.092-3.68.018-1.105.035-2.149.079-3.235a.522.522,0,0,1,.519-.5l80.6-.355h0a.521.521,0,0,1,.521.522c0,.888.016,2.033.032,3.236.018,1.353.037,2.753.037,3.97a.522.522,0,0,1-.52.522C800.837,139.583,783.138,139.613,766.388,139.613Zm-26.81-1.07c24.379.052,50.487.03,79.776-.062,0-1.082-.021-2.277-.036-3.439-.014-.983-.026-1.928-.031-2.726l-79.577.35c-.03.9-.045,1.784-.06,2.713C739.634,136.387,739.617,137.424,739.577,138.543Z" transform="translate(-738.515 -131.271)"/>
        </g>
        <g id="Grupo_156178" data-name="Grupo 156178" transform="translate(56.79 10.548)">
          <path id="Trazado_196537" data-name="Trazado 196537" d="M795.635,136.06a.522.522,0,0,1-.009-1.043l3.722-.066h.009a.522.522,0,0,1,.009,1.043l-3.721.066Z" transform="translate(-795.114 -134.95)"/>
        </g>
        <g id="Grupo_156179" data-name="Grupo 156179" transform="translate(65.022 10.614)">
          <path id="Trazado_196538" data-name="Trazado 196538" d="M803.857,136.125a.521.521,0,0,1-.009-1.042l3.721-.066h.01a.522.522,0,0,1,.009,1.043l-3.722.065Z" transform="translate(-803.335 -135.016)"/>
        </g>
        <g id="Grupo_156180" data-name="Grupo 156180" transform="translate(72.99 10.481)">
          <path id="Trazado_196539" data-name="Trazado 196539" d="M811.813,135.992a.521.521,0,0,1-.009-1.042l3.722-.066h.009a.522.522,0,0,1,.009,1.043l-3.721.065Z" transform="translate(-811.292 -134.883)"/>
        </g>
        <g id="Grupo_156181" data-name="Grupo 156181" transform="translate(9.904 25.479)">
          <path id="Trazado_196540" data-name="Trazado 196540" d="M748.813,151.211a.521.521,0,0,1-.018-1.042l9.038-.307a.528.528,0,0,1,.539.5.521.521,0,0,1-.5.539l-9.037.307Z" transform="translate(-748.292 -149.861)"/>
        </g>
        <g id="Grupo_156182" data-name="Grupo 156182" transform="translate(10.402 35.992)">
          <path id="Trazado_196541" data-name="Trazado 196541" d="M749.31,161.71a.522.522,0,0,1-.013-1.043l12.1-.307h.013a.521.521,0,0,1,.013,1.042l-12.1.308Z" transform="translate(-748.789 -160.359)"/>
        </g>
        <g id="Grupo_156183" data-name="Grupo 156183" transform="translate(10.256 46.505)">
          <path id="Trazado_196542" data-name="Trazado 196542" d="M749.165,172.209a.522.522,0,0,1-.007-1.043l24.489-.307h.007a.521.521,0,0,1,.006,1.042l-24.489.308Z" transform="translate(-748.643 -170.858)"/>
        </g>
        <g id="Grupo_156184" data-name="Grupo 156184" transform="translate(10.402 55.909)">
          <path id="Trazado_196543" data-name="Trazado 196543" d="M749.311,181.6a.521.521,0,0,1,0-1.042l42.954-.307h0a.521.521,0,0,1,0,1.042l-42.954.307Z" transform="translate(-748.789 -180.249)"/>
        </g>
        <g id="Grupo_156200" data-name="Grupo 156200" transform="translate(27.759)">
          <g id="Grupo_156185" data-name="Grupo 156185" transform="translate(36.907 34.421)">
            <path id="Trazado_196544" data-name="Trazado 196544" d="M803.5,164.493l10.921,10.744a71.832,71.832,0,0,0,5.945,5.428,6.463,6.463,0,0,0,3.762,1.722,2.847,2.847,0,0,0,2.825-2.713,4.676,4.676,0,0,0-1.629-3.012q-8.694-9.17-18.146-17.362C806.025,160.99,804.872,162.68,803.5,164.493Z" transform="translate(-802.979 -158.789)" fill="#fff"/>
            <path id="Trazado_196545" data-name="Trazado 196545" d="M824.13,182.909h0a6.875,6.875,0,0,1-4.083-1.832,72.355,72.355,0,0,1-5.989-5.467l-10.921-10.744a.52.52,0,0,1-.05-.686c1.359-1.8,2.522-3.5,3.649-5.15a.549.549,0,0,1,.37-.234.534.534,0,0,1,.417.112c6.279,5.442,12.4,11.3,18.182,17.4a5.127,5.127,0,0,1,1.771,3.369,3.08,3.08,0,0,1-.928,2.2A3.5,3.5,0,0,1,824.13,182.909Zm-19.938-18.466,10.6,10.423a71.818,71.818,0,0,0,5.9,5.389,6.014,6.014,0,0,0,3.441,1.611h0a2.436,2.436,0,0,0,1.677-.73,2.049,2.049,0,0,0,.625-1.457,4.222,4.222,0,0,0-1.486-2.658c-5.626-5.934-11.567-11.632-17.666-16.942C806.314,161.493,805.319,162.934,804.192,164.443Z" transform="translate(-802.979 -158.79)"/>
          </g>
          <g id="Grupo_156187" data-name="Grupo 156187">
            <g id="Grupo_156186" data-name="Grupo 156186">
              <path id="Trazado_196546" data-name="Trazado 196546" d="M789.345,124.937a22.7,22.7,0,1,0,22.7,22.7A22.7,22.7,0,0,0,789.345,124.937Zm0,39.944a17.242,17.242,0,1,1,17.241-17.242A17.242,17.242,0,0,1,789.345,164.881Zm0,0a17.242,17.242,0,1,1,17.241-17.242A17.242,17.242,0,0,1,789.345,164.881Z" transform="translate(-766.121 -124.415)" fill="#fff"/>
              <path id="Trazado_196547" data-name="Trazado 196547" d="M789.346,170.863a23.223,23.223,0,1,1,23.223-23.223A23.25,23.25,0,0,1,789.346,170.863Zm0-45.4a22.181,22.181,0,1,0,22.18,22.181A22.206,22.206,0,0,0,789.346,125.458Zm0,39.945a17.764,17.764,0,1,1,17.763-17.764A17.784,17.784,0,0,1,789.346,165.4Zm-16.722-17.764a16.721,16.721,0,1,0,16.722-16.721A16.74,16.74,0,0,0,772.624,147.639Z" transform="translate(-766.122 -124.416)"/>
            </g>
          </g>
          <g id="Grupo_156188" data-name="Grupo 156188" transform="translate(12.063 20.686)">
            <path id="Trazado_196548" data-name="Trazado 196548" d="M778.689,147.376a1.781,1.781,0,1,1,1.781,1.781A1.781,1.781,0,0,1,778.689,147.376Z" transform="translate(-778.168 -145.073)" fill="#fff"/>
            <path id="Trazado_196549" data-name="Trazado 196549" d="M780.471,149.679a2.3,2.3,0,1,1,2.3-2.3A2.3,2.3,0,0,1,780.471,149.679Zm0-3.563a1.26,1.26,0,1,0,1.261,1.261A1.262,1.262,0,0,0,780.471,146.116Z" transform="translate(-778.169 -145.074)"/>
          </g>
          <g id="Grupo_156189" data-name="Grupo 156189" transform="translate(20.689 20.686)">
            <circle id="Elipse_6032" data-name="Elipse 6032" cx="1.781" cy="1.781" r="1.781" transform="translate(0.521 0.521)" fill="#fff"/>
            <path id="Trazado_196550" data-name="Trazado 196550" d="M789.085,149.679a2.3,2.3,0,1,1,2.3-2.3A2.3,2.3,0,0,1,789.085,149.679Zm0-3.563a1.26,1.26,0,1,0,1.261,1.261A1.262,1.262,0,0,0,789.085,146.116Z" transform="translate(-786.783 -145.074)"/>
          </g>
          <g id="Grupo_156190" data-name="Grupo 156190" transform="translate(29.315 20.686)">
            <circle id="Elipse_6033" data-name="Elipse 6033" cx="1.781" cy="1.781" r="1.781" transform="translate(0.521 0.521)" fill="#fff"/>
            <path id="Trazado_196551" data-name="Trazado 196551" d="M797.7,149.679a2.3,2.3,0,1,1,2.3-2.3A2.305,2.305,0,0,1,797.7,149.679Zm0-3.563a1.26,1.26,0,1,0,1.26,1.261A1.262,1.262,0,0,0,797.7,146.116Z" transform="translate(-795.397 -145.074)"/>
          </g>
          <g id="Grupo_156191" data-name="Grupo 156191" transform="translate(40.182 39.03)">
            <path id="Trazado_196552" data-name="Trazado 196552" d="M806.423,165.138a.164.164,0,0,1-.048-.007.175.175,0,0,1-.119-.215l.4-1.4a.173.173,0,0,1,.334.1l-.4,1.4A.174.174,0,0,1,806.423,165.138Z" transform="translate(-806.249 -163.393)"/>
          </g>
          <g id="Grupo_156192" data-name="Grupo 156192" transform="translate(42.092 37.979)">
            <path id="Trazado_196553" data-name="Trazado 196553" d="M808.331,167.587h-.023a.175.175,0,0,1-.15-.2c.214-1.633.472-3.283.766-4.9a.174.174,0,1,1,.343.063c-.294,1.615-.551,3.259-.763,4.887A.175.175,0,0,1,808.331,167.587Z" transform="translate(-808.157 -162.343)"/>
          </g>
          <g id="Grupo_156193" data-name="Grupo 156193" transform="translate(44.572 40.085)">
            <path id="Trazado_196554" data-name="Trazado 196554" d="M810.807,169.96a.174.174,0,0,1-.173-.174c0-.816.125-2.186.236-3.394.068-.74.126-1.378.146-1.779a.173.173,0,1,1,.347.017c-.02.409-.079,1.05-.147,1.793-.11,1.2-.234,2.562-.234,3.363A.174.174,0,0,1,810.807,169.96Z" transform="translate(-810.634 -164.447)"/>
          </g>
          <g id="Grupo_156194" data-name="Grupo 156194" transform="translate(46.98 41.794)">
            <path id="Trazado_196555" data-name="Trazado 196555" d="M813.344,172.3a.174.174,0,0,1-.174-.17l-.131-5.8a.174.174,0,0,1,.349-.008l.13,5.8a.175.175,0,0,1-.169.178Z" transform="translate(-813.038 -166.153)"/>
          </g>
          <g id="Grupo_156195" data-name="Grupo 156195" transform="translate(49.3 44.085)">
            <path id="Trazado_196556" data-name="Trazado 196556" d="M815.757,174.86a.174.174,0,0,1-.174-.167l-.227-6.071a.175.175,0,0,1,.167-.18.182.182,0,0,1,.18.167l.228,6.072a.174.174,0,0,1-.168.179Z" transform="translate(-815.355 -168.441)"/>
          </g>
          <g id="Grupo_156196" data-name="Grupo 156196" transform="translate(51.679 46.646)">
            <path id="Trazado_196557" data-name="Trazado 196557" d="M818.212,177.018a.173.173,0,0,1-.173-.164l-.307-5.672A.175.175,0,0,1,817.9,171a.169.169,0,0,1,.183.164l.307,5.672a.174.174,0,0,1-.164.183Z" transform="translate(-817.731 -170.999)"/>
          </g>
          <g id="Grupo_156197" data-name="Grupo 156197" transform="translate(53.995 48.793)">
            <path id="Trazado_196558" data-name="Trazado 196558" d="M820.644,179.014a.174.174,0,0,1-.173-.16l-.425-5.522a.173.173,0,1,1,.345-.027l.427,5.522a.173.173,0,0,1-.16.186Z" transform="translate(-820.045 -173.143)"/>
          </g>
          <g id="Grupo_156198" data-name="Grupo 156198" transform="translate(56.228 51.269)">
            <path id="Trazado_196559" data-name="Trazado 196559" d="M822.945,180.806a.174.174,0,0,1-.172-.156l-.5-4.844a.173.173,0,0,1,.155-.19.18.18,0,0,1,.19.155l.5,4.844a.173.173,0,0,1-.155.19Z" transform="translate(-822.274 -175.615)"/>
          </g>
          <g id="Grupo_156199" data-name="Grupo 156199" transform="translate(58.633 53.69)">
            <path id="Trazado_196560" data-name="Trazado 196560" d="M825.2,180.545a.175.175,0,0,1-.171-.146l-.349-2.164a.173.173,0,0,1,.143-.2.171.171,0,0,1,.2.143l.35,2.164a.174.174,0,0,1-.144.2A.135.135,0,0,1,825.2,180.545Z" transform="translate(-824.676 -178.033)"/>
          </g>
        </g>
        <g id="Grupo_156201" data-name="Grupo 156201" transform="translate(0.749 14.323)" opacity="0.129">
          <path id="Trazado_196561" data-name="Trazado 196561" d="M767.486,139.033c-.586-.345-1.285-.091-1.924-.106-2.669-.032-5.339-.25-8.013-.2-3.029.036-6.054.309-9.084.193-1.729-.072-3.461-.013-5.19-.054-.665-.016-1.33-.019-1.995-.015a3.253,3.253,0,0,0-1.3.12,1.37,1.37,0,0,0,.529,2.628c4.386.02,8.767.355,13.153.259,4.369-.188,8.751.014,13.111-.3l.033,0a1.5,1.5,0,0,0,.954-.4A1.365,1.365,0,0,0,767.486,139.033Z" transform="translate(-739.149 -138.72)"/>
        </g>
        <g id="Grupo_156202" data-name="Grupo 156202" transform="translate(71.961 14.148)" opacity="0.129">
          <path id="Trazado_196562" data-name="Trazado 196562" d="M819.469,138.715a1.348,1.348,0,0,0-1.081-.1c.027-.012.038-.017.012-.008-.283.046-.568.086-.848.147l-.071.008c-1.719.006-3.446-.159-5.172-.1-.576,0-1.233-.082-1.662.386a1.336,1.336,0,0,0,.936,2.262c1.482-.106,2.963-.117,4.447-.093,1.216-.094.962-.108,1.842-.155.273,0,.546-.032.819-.047.009,0,.009,0,0,0a1.24,1.24,0,0,0,.9-.271A1.225,1.225,0,0,0,819.469,138.715Z" transform="translate(-810.265 -138.545)"/>
        </g>
        <g id="Grupo_156203" data-name="Grupo 156203" transform="translate(33.765 21.219)" opacity="0.129">
          <path id="Trazado_196563" data-name="Trazado 196563" d="M794.611,163.755c.572-.193,1.149-.382,1.718-.591,1.226-.692,2.424-1.431,3.57-2.225a20.984,20.984,0,0,0,2.895-2.627,15.741,15.741,0,0,0,1.046-1.185,1.149,1.149,0,0,0-1.01.087,22.965,22.965,0,0,1-4.775,2.887,13.491,13.491,0,0,1-4.624,1.317,23.333,23.333,0,0,1-12.074-2.377,17.326,17.326,0,0,1-2.789-1.739q-.762-.616-1.458-1.306c-.2-.161-.751-.809-.961-1.05a34.175,34.175,0,0,1-3.122-6.441,20.081,20.081,0,0,1-.6-1.937,5.96,5.96,0,0,0-.278-.962,19.314,19.314,0,0,0,.258,4.418,29.147,29.147,0,0,0,1.271,4.5c.153.263.308.525.461.781a25.953,25.953,0,0,0,4.171,5.393,20.552,20.552,0,0,0,3.65,1.828,26.715,26.715,0,0,0,7.807,1.828,16.585,16.585,0,0,0,2.933.014Q793.658,164.075,794.611,163.755Z" transform="translate(-772.12 -145.606)"/>
        </g>
        <g id="Grupo_156204" data-name="Grupo 156204" transform="translate(64.431 36.041)" opacity="0.129">
          <path id="Trazado_196564" data-name="Trazado 196564" d="M820.381,180.208a1.228,1.228,0,0,0-.473-.46l-.011-.011.014.006a.193.193,0,0,0-.024-.015c-.119-.115-.42-.387-.527-.5-1.746-1.76-3.723-3.261-5.562-4.917-1.339-1.244-2.464-2.7-3.861-3.881-1.454-1.25-2.638-2.772-4.062-4.048a1.371,1.371,0,0,0,.3-.132,10.045,10.045,0,0,0,2.36-2.144c.256-.3.539-.578.788-.884a1.693,1.693,0,0,0,.679-1.145,1.449,1.449,0,0,0-1.052-1.611,1.561,1.561,0,0,0-1.853,1.062,20.153,20.153,0,0,1-2.2,2.152l-.156.108a1.435,1.435,0,0,0-.655.852,1.327,1.327,0,0,0-.054.384.907.907,0,0,0-.183-.019,1.113,1.113,0,0,0-.78,1.884A31.017,31.017,0,0,1,807.251,171c1.508,1.537,2.936,3.153,4.452,4.682,1.207,1.159,2.551,2.157,3.806,3.261.923.781,1.782,1.632,2.667,2.455a1.026,1.026,0,0,0,.366.425A1.249,1.249,0,0,0,820.381,180.208Z" transform="translate(-802.745 -160.408)"/>
        </g>
      </g>
    </g>
    <g id="Grupo_156386" data-name="Grupo 156386" transform="translate(380.653 1199.247)">
      <g id="Grupo_156148" data-name="Grupo 156148">
        <path id="Trazado_196507" data-name="Trazado 196507" d="M115.081,339.241c0-14.291.167-26.736,0-40.153-20.023,0-40.149.582-60.322.37-.193,13.674,0,26.536,0,39.831Q85,339.289,115.081,339.241Z" transform="translate(-54.284 -298.699)" fill="#fff"/>
        <path id="Trazado_196508" data-name="Trazado 196508" d="M54.626,339.546a.389.389,0,0,1-.389-.389c0-4.432-.022-8.89-.043-13.2-.042-8.612-.086-17.518.043-26.635a.39.39,0,0,1,.394-.384c11.651.123,23.469-.022,34.9-.162,8.34-.1,16.963-.208,25.42-.208a.389.389,0,0,1,.389.384c.111,8.852.075,17.228.039,26.1-.019,4.522-.039,9.2-.039,14.063a.389.389,0,0,1-.389.389c-10.018,0-20.22.012-30.085.024C74.961,339.534,64.721,339.546,54.626,339.546Zm.384-39.827c-.123,8.976-.079,17.747-.038,26.233.021,4.185.042,8.509.043,12.815,9.968,0,20.072-.012,29.848-.024,9.738-.011,19.8-.023,29.7-.023,0-4.727.02-9.276.038-13.679.037-8.735.071-16.993-.034-25.7-8.329,0-16.815.108-25.026.209C78.232,299.692,66.544,299.834,55.011,299.719Z" transform="translate(-54.152 -298.567)"/>
      </g>
      <g id="Grupo_156149" data-name="Grupo 156149">
        <path id="Trazado_196509" data-name="Trazado 196509" d="M115.081,339.241c0-14.291.167-26.736,0-40.153-20.023,0-40.149.582-60.322.37-.193,13.674,0,26.536,0,39.831Q85,339.289,115.081,339.241Z" transform="translate(-54.284 -298.699)" fill="#fff"/>
        <path id="Trazado_196510" data-name="Trazado 196510" d="M54.626,339.546a.389.389,0,0,1-.389-.389c0-4.432-.022-8.89-.043-13.2-.042-8.612-.086-17.518.043-26.635a.39.39,0,0,1,.394-.384c11.651.123,23.469-.022,34.9-.162,8.34-.1,16.963-.208,25.42-.208a.389.389,0,0,1,.389.384c.111,8.852.075,17.228.039,26.1-.019,4.522-.039,9.2-.039,14.063a.389.389,0,0,1-.389.389c-10.018,0-20.22.012-30.085.024C74.961,339.534,64.721,339.546,54.626,339.546Zm.384-39.827c-.123,8.976-.079,17.747-.038,26.233.021,4.185.042,8.509.043,12.815,9.968,0,20.072-.012,29.848-.024,9.738-.011,19.8-.023,29.7-.023,0-4.727.02-9.276.038-13.679.037-8.735.071-16.993-.034-25.7-8.329,0-16.815.108-25.026.209C78.232,299.692,66.544,299.834,55.011,299.719Z" transform="translate(-54.152 -298.567)"/>
      </g>
      <g id="Grupo_156150" data-name="Grupo 156150" transform="translate(30.241 15.42)">
        <path id="Trazado_196511" data-name="Trazado 196511" d="M95.012,319.988a.389.389,0,1,1,0-.779l8.48-.007h0a.389.389,0,1,1,0,.778l-8.48.007Z" transform="translate(-94.623 -319.203)"/>
      </g>
      <g id="Grupo_156151" data-name="Grupo 156151" transform="translate(30.241 23.032)">
        <path id="Trazado_196512" data-name="Trazado 196512" d="M95.012,330.176a.389.389,0,1,1,0-.778l8.967-.007h0a.389.389,0,0,1,0,.778l-8.967.008Z" transform="translate(-94.623 -329.391)"/>
      </g>
      <g id="Grupo_156152" data-name="Grupo 156152" transform="translate(8.275 30.511)">
        <path id="Trazado_196513" data-name="Trazado 196513" d="M65.616,340.185a.389.389,0,1,1,0-.779l27.722-.007a.389.389,0,0,1,0,.779Z" transform="translate(-65.227 -339.399)"/>
      </g>
      <g id="Grupo_156153" data-name="Grupo 156153" transform="translate(41.405 2.467)">
        <circle id="Elipse_6030" data-name="Elipse 6030" cx="12.467" cy="12.467" r="12.467" transform="translate(0 17.63) rotate(-45)" fill="#fff"/>
        <path id="Trazado_196514" data-name="Trazado 196514" d="M128.81,333.97a12.856,12.856,0,1,1,12.856-12.856A12.87,12.87,0,0,1,128.81,333.97Zm0-24.933a12.078,12.078,0,1,0,12.078,12.077A12.091,12.091,0,0,0,128.81,309.037Z" transform="translate(-111.18 -303.484)"/>
      </g>
      <g id="Grupo_156154" data-name="Grupo 156154" transform="translate(52.099 12.677)">
        <path id="Trazado_196515" data-name="Trazado 196515" d="M124.4,321.149l2.026-2.026,3.117,4.354L134,316.053l2.488,1.884-6.668,10.4Z" transform="translate(-124.008 -315.664)" fill="#2ec49f"/>
        <path id="Trazado_196516" data-name="Trazado 196516" d="M129.689,328.6a.39.39,0,0,1-.31-.155l-5.424-7.189a.388.388,0,0,1,.035-.51l2.026-2.026a.389.389,0,0,1,.592.049l2.772,3.872,4.157-6.917a.389.389,0,0,1,.569-.109l2.488,1.884a.39.39,0,0,1,.093.52l-6.668,10.4a.389.389,0,0,1-.313.179Zm-4.909-7.542,4.884,6.473,6.172-9.629-1.855-1.4-4.239,7.052a.389.389,0,0,1-.649.026l-2.85-3.98Z" transform="translate(-123.876 -315.532)"/>
      </g>
      <g id="Grupo_156165" data-name="Grupo 156165" transform="translate(8.665 7.753)">
        <g id="Grupo_156155" data-name="Grupo 156155">
          <path id="Trazado_196517" data-name="Trazado 196517" d="M81.553,326.637c0-6.112.042-11.435,0-17.173-5.066,0-10.158.249-15.262.158-.049,5.848,0,11.349,0,17.034C71.392,326.657,76.477,326.637,81.553,326.637Z" transform="translate(-65.88 -309.075)" fill="#fff"/>
          <path id="Trazado_196518" data-name="Trazado 196518" d="M66.159,326.914a.389.389,0,0,1-.389-.389c0-1.9-.005-3.771-.011-5.645-.01-3.684-.021-7.492.011-11.392a.389.389,0,0,1,.4-.386c2.941.053,5.928-.01,8.816-.069,2.112-.043,4.3-.089,6.439-.089a.389.389,0,0,1,.389.386c.028,3.787.019,7.37.01,11.163-.005,1.944-.01,3.933-.01,6.013a.389.389,0,0,1-.389.389q-3.8,0-7.611.01T66.159,326.914Zm.386-17.028c-.028,3.759-.018,7.434-.007,10.992.005,1.747.01,3.494.01,5.258q3.636,0,7.261-.01t7.223-.01c0-1.94.005-3.8.01-5.626.009-3.661.018-7.127-.007-10.768-2.012.005-4.056.048-6.037.089C72.231,309.867,69.373,309.926,66.545,309.886Z" transform="translate(-65.748 -308.943)"/>
        </g>
        <g id="Grupo_156156" data-name="Grupo 156156" transform="translate(1.768 14.676)">
          <path id="Trazado_196519" data-name="Trazado 196519" d="M69.546,329.985a.13.13,0,0,1-.077-.025,10.476,10.476,0,0,1-1.318-1.156.13.13,0,1,1,.187-.18,10.125,10.125,0,0,0,1.286,1.127.13.13,0,0,1-.078.235Z" transform="translate(-68.114 -328.584)"/>
        </g>
        <g id="Grupo_156157" data-name="Grupo 156157" transform="translate(1.53 12.132)">
          <path id="Trazado_196520" data-name="Trazado 196520" d="M72.542,329.566a.131.131,0,0,1-.089-.035c-1.5-1.4-3.053-2.786-4.611-4.124a.13.13,0,1,1,.169-.2c1.561,1.34,3.115,2.73,4.619,4.131a.13.13,0,0,1-.088.225Z" transform="translate(-67.796 -325.179)"/>
        </g>
        <g id="Grupo_156158" data-name="Grupo 156158" transform="translate(1.721 9.886)">
          <path id="Trazado_196521" data-name="Trazado 196521" d="M75.7,328.794a.13.13,0,0,1-.084-.031L68.1,322.4a.129.129,0,0,1-.016-.182.131.131,0,0,1,.183-.016l7.519,6.362a.129.129,0,0,1,.015.182A.128.128,0,0,1,75.7,328.794Z" transform="translate(-68.052 -322.174)"/>
        </g>
        <g id="Grupo_156159" data-name="Grupo 156159" transform="translate(1.83 7.384)">
          <path id="Trazado_196522" data-name="Trazado 196522" d="M78.6,327.807a.131.131,0,0,1-.087-.033c-3.329-2.981-6.783-5.914-10.266-8.719a.13.13,0,1,1,.163-.2c3.487,2.807,6.944,5.743,10.276,8.727a.13.13,0,0,1-.086.226Z" transform="translate(-68.197 -318.825)"/>
        </g>
        <g id="Grupo_156160" data-name="Grupo 156160" transform="translate(1.78 4.678)">
          <path id="Trazado_196523" data-name="Trazado 196523" d="M80.8,325.963a.131.131,0,0,1-.081-.028c-4.234-3.4-8.456-6.933-12.548-10.5a.13.13,0,0,1,.17-.2c4.09,3.569,8.309,7.1,12.54,10.5a.13.13,0,0,1-.081.231Z" transform="translate(-68.13 -315.204)"/>
        </g>
        <g id="Grupo_156161" data-name="Grupo 156161" transform="translate(1.807 2.189)">
          <path id="Trazado_196524" data-name="Trazado 196524" d="M80.721,322.285a.13.13,0,0,1-.082-.029L68.215,312.1a.13.13,0,0,1,.164-.2L80.8,322.054a.13.13,0,0,1-.082.23Z" transform="translate(-68.167 -311.872)"/>
        </g>
        <g id="Grupo_156162" data-name="Grupo 156162" transform="translate(5.062 1.793)">
          <path id="Trazado_196525" data-name="Trazado 196525" d="M81.843,319.243a.131.131,0,0,1-.085-.031c-3-2.588-6.093-5.157-9.187-7.637a.13.13,0,0,1,.163-.2c3.1,2.482,6.189,5.053,9.194,7.643a.13.13,0,0,1-.084.228Z" transform="translate(-72.523 -311.343)"/>
        </g>
        <g id="Grupo_156163" data-name="Grupo 156163" transform="translate(8.852 2.034)">
          <path id="Trazado_196526" data-name="Trazado 196526" d="M83.1,316.089a.125.125,0,0,1-.076-.025c-1.831-1.323-3.64-2.726-5.378-4.17a.129.129,0,1,1,.165-.2c1.734,1.441,3.539,2.84,5.365,4.16a.129.129,0,0,1,.029.181A.127.127,0,0,1,83.1,316.089Z" transform="translate(-77.594 -311.665)"/>
        </g>
        <g id="Grupo_156164" data-name="Grupo 156164" transform="translate(12.319 2.08)">
          <path id="Trazado_196527" data-name="Trazado 196527" d="M84.371,313.553a.13.13,0,0,1-.084-.031c-.638-.545-1.311-1.069-2-1.559a.13.13,0,1,1,.15-.211c.693.494,1.37,1.024,2.015,1.574a.13.13,0,0,1-.084.228Z" transform="translate(-82.235 -311.727)"/>
        </g>
      </g>
      <g id="Grupo_156166" data-name="Grupo 156166" transform="translate(8.952 23.573)" opacity="0.129">
        <path id="Trazado_196528" data-name="Trazado 196528" d="M81.137,330.534a1.778,1.778,0,0,0-.9-.119q-1.051-.021-2.1-.065-5.284-.108-10.567-.235c-.406.01-.876-.064-1.182.265a.9.9,0,0,0,.628,1.517c3.5.017,7,.191,10.5.21.8.031,1.61.069,2.415.084a3.369,3.369,0,0,0,1.105-.095A.879.879,0,0,0,81.137,330.534Z" transform="translate(-66.132 -330.115)"/>
      </g>
      <g id="Grupo_156169" data-name="Grupo 156169" transform="translate(48.041 23.485)">
        <g id="Grupo_156167" data-name="Grupo 156167" opacity="0.129">
          <path id="Trazado_196529" data-name="Trazado 196529" d="M141.152,330.023c-.492-.141-.723.306-.947.65-.347.48-.671.976-1.032,1.445l-.023.03a6.945,6.945,0,0,1-.6.7,8.638,8.638,0,0,0-1.017.981c-.189.21-.39.407-.6.6l-.06.035a1.127,1.127,0,0,0-.114.073l-.081.055c-.638.421-1.275.85-1.944,1.22a14.339,14.339,0,0,1-3.448.991,10.4,10.4,0,0,1-4-.388,14.483,14.483,0,0,1-2.628-.884c-.111-.049-.183-.077-.2-.082a16.848,16.848,0,0,1-2.258-1.107,14.167,14.167,0,0,1-1.925-1.571l-.057-.045-.01-.008.008.007c-.3-.251-.582-.575-.989-.582a.8.8,0,0,0-.56,1.35,28.154,28.154,0,0,0,2.543,2.31A28.51,28.51,0,0,0,125,337.888a16.241,16.241,0,0,0,4.368.939,10.618,10.618,0,0,0,3.171-.427,12.284,12.284,0,0,0,3.72-1.586,6.35,6.35,0,0,0,1.6-1.274,16.152,16.152,0,0,0,1.291-1.441,19.132,19.132,0,0,0,1.971-2.552,2.542,2.542,0,0,0,.475-.838A.617.617,0,0,0,141.152,330.023Z" transform="translate(-118.445 -329.997)"/>
        </g>
        <g id="Grupo_156168" data-name="Grupo 156168" transform="translate(1.776 2.731)" opacity="0.129">
          <path id="Trazado_196530" data-name="Trazado 196530" d="M120.881,333.7c.032.025.064.051.1.073l-.155-.12,0,0Z" transform="translate(-120.822 -333.651)"/>
        </g>
      </g>
    </g>
    <g id="Grupo_161675" data-name="Grupo 161675" transform="translate(271.542 1060.419)">
      <g id="Grupo_155411" data-name="Grupo 155411" transform="translate(0 3.923)">
        <path id="Trazado_195826" data-name="Trazado 195826" d="M243.94,84.1h-.007a.725.725,0,0,1-.717-.733l.216-19.879a.725.725,0,0,1,.724-.717h.009a.724.724,0,0,1,.717.733l-.215,19.879A.726.726,0,0,1,243.94,84.1Z" transform="translate(-243.216 -62.774)"/>
      </g>
      <g id="Grupo_155412" data-name="Grupo 155412" transform="translate(9.303 8.121)">
        <path id="Trazado_195827" data-name="Trazado 195827" d="M250.288,82.769h-.01a.726.726,0,0,1-.715-.734l.217-15.682a.724.724,0,0,1,.724-.714h.01a.724.724,0,0,1,.714.734l-.215,15.681A.725.725,0,0,1,250.288,82.769Z" transform="translate(-249.562 -65.638)"/>
      </g>
      <g id="Grupo_155413" data-name="Grupo 155413" transform="translate(27.036 8.121)">
        <path id="Trazado_195828" data-name="Trazado 195828" d="M262.385,82.769h-.01a.726.726,0,0,1-.715-.734l.217-15.682a.724.724,0,0,1,.724-.714h.01a.724.724,0,0,1,.714.734l-.215,15.681A.725.725,0,0,1,262.385,82.769Z" transform="translate(-261.659 -65.638)"/>
      </g>
      <g id="Grupo_155414" data-name="Grupo 155414" transform="translate(18.61)">
        <path id="Trazado_195829" data-name="Trazado 195829" d="M256.635,85.35h-.007a.724.724,0,0,1-.717-.731l.216-23.8a.724.724,0,1,1,1.448.013l-.216,23.8A.724.724,0,0,1,256.635,85.35Z" transform="translate(-255.911 -60.098)"/>
      </g>
    </g>
    <g id="Grupo_161676" data-name="Grupo 161676" transform="translate(382.076 1441.485)">
      <g id="Grupo_155411-2" data-name="Grupo 155411" transform="translate(0 3.923)">
        <path id="Trazado_195826-2" data-name="Trazado 195826" d="M243.94,84.1h-.007a.725.725,0,0,1-.717-.733l.216-19.879a.725.725,0,0,1,.724-.717h.009a.724.724,0,0,1,.717.733l-.215,19.879A.726.726,0,0,1,243.94,84.1Z" transform="translate(-243.216 -62.774)"/>
      </g>
      <g id="Grupo_155412-2" data-name="Grupo 155412" transform="translate(9.303 8.121)">
        <path id="Trazado_195827-2" data-name="Trazado 195827" d="M250.288,82.769h-.01a.726.726,0,0,1-.715-.734l.217-15.682a.724.724,0,0,1,.724-.714h.01a.724.724,0,0,1,.714.734l-.215,15.681A.725.725,0,0,1,250.288,82.769Z" transform="translate(-249.562 -65.638)"/>
      </g>
      <g id="Grupo_155413-2" data-name="Grupo 155413" transform="translate(27.036 8.121)">
        <path id="Trazado_195828-2" data-name="Trazado 195828" d="M262.385,82.769h-.01a.726.726,0,0,1-.715-.734l.217-15.682a.724.724,0,0,1,.724-.714h.01a.724.724,0,0,1,.714.734l-.215,15.681A.725.725,0,0,1,262.385,82.769Z" transform="translate(-261.659 -65.638)"/>
      </g>
      <g id="Grupo_155414-2" data-name="Grupo 155414" transform="translate(18.61)">
        <path id="Trazado_195829-2" data-name="Trazado 195829" d="M256.635,85.35h-.007a.724.724,0,0,1-.717-.731l.216-23.8a.724.724,0,1,1,1.448.013l-.216,23.8A.724.724,0,0,1,256.635,85.35Z" transform="translate(-255.911 -60.098)"/>
      </g>
    </g>
    <g id="Grupo_161677" data-name="Grupo 161677" transform="translate(665.381 1285.918)">
      <g id="Grupo_155416" data-name="Grupo 155416" transform="translate(11.708 3.923)">
        <path id="Trazado_195830" data-name="Trazado 195830" d="M506.342,66.633h-.01a.726.726,0,0,1-.715-.734l.262-19.879a.726.726,0,0,1,.726-.715h.009a.725.725,0,0,1,.715.734l-.262,19.879A.725.725,0,0,1,506.342,66.633Z" transform="translate(-505.616 -45.304)"/>
      </g>
      <g id="Grupo_155417" data-name="Grupo 155417" transform="translate(23.04 8.121)">
        <path id="Trazado_195831" data-name="Trazado 195831" d="M514.07,65.3h-.012a.725.725,0,0,1-.712-.737l.262-15.681a.711.711,0,0,1,.737-.712.725.725,0,0,1,.712.737l-.264,15.681A.724.724,0,0,1,514.07,65.3Z" transform="translate(-513.346 -48.168)"/>
      </g>
      <g id="Grupo_155418" data-name="Grupo 155418" transform="translate(44.637 8.121)">
        <path id="Trazado_195832" data-name="Trazado 195832" d="M528.8,65.3h-.013a.726.726,0,0,1-.713-.737l.264-15.681a.707.707,0,0,1,.736-.712.724.724,0,0,1,.713.737l-.262,15.681A.725.725,0,0,1,528.8,65.3Z" transform="translate(-528.079 -48.168)"/>
      </g>
      <g id="Grupo_155419" data-name="Grupo 155419" transform="translate(34.373)">
        <path id="Trazado_195833" data-name="Trazado 195833" d="M521.8,67.88h-.009a.725.725,0,0,1-.717-.733l.264-23.8a.725.725,0,0,1,.724-.717h.009a.724.724,0,0,1,.715.733l-.263,23.8A.725.725,0,0,1,521.8,67.88Z" transform="translate(-521.077 -42.628)"/>
      </g>
      <g id="Grupo_155420" data-name="Grupo 155420" transform="translate(0 10.641)">
        <path id="Trazado_195834" data-name="Trazado 195834" d="M498.353,64.5h-.015a.724.724,0,0,1-.71-.739l.262-13.161a.749.749,0,0,1,.739-.711.727.727,0,0,1,.711.74l-.264,13.161A.724.724,0,0,1,498.353,64.5Z" transform="translate(-497.629 -49.887)"/>
      </g>
    </g>
    <g id="Grupo_161678" data-name="Grupo 161678" transform="translate(285.893 1119.457)">
      <g id="Grupo_155451" data-name="Grupo 155451">
        <path id="Trazado_195861" data-name="Trazado 195861" d="M392.743,65.139l38.363-.51c4.072-.056,8.328-.155,11.906-2.1a11.833,11.833,0,0,0,6.208-10.379,10.222,10.222,0,0,0-7.189-9.446,9.013,9.013,0,0,0-10.464,5.056c.2-7.324-6.262-14.3-13.589-14.255s-13.8,7.554-12.387,14.744c-1.25-3.341-5.261-5.106-8.779-4.518s-6.481,3.092-8.458,6.062a12.607,12.607,0,0,0-2.366,8.435C386.376,61.189,388.38,65.2,392.743,65.139Z" transform="translate(-385.184 -32.782)" fill="#fff"/>
        <path id="Trazado_195862" data-name="Trazado 195862" d="M392.88,66.094c-4.414,0-6.885-3.772-7.379-7.539a13.369,13.369,0,0,1,2.482-8.93,13.982,13.982,0,0,1,8.941-6.374,9.239,9.239,0,0,1,8,2.53,13.365,13.365,0,0,1,3.095-7.615A13.584,13.584,0,0,1,418.2,33.013h.078a14.03,14.03,0,0,1,9.874,4.386,15.2,15.2,0,0,1,4.209,8.2,9.974,9.974,0,0,1,10.085-3.361,10.878,10.878,0,0,1,7.724,10.129A12.578,12.578,0,0,1,443.588,63.4c-3.817,2.073-8.293,2.133-12.242,2.186l-38.363.51h-.1Zm.094-.724h0Zm5.419-20.79a7.56,7.56,0,0,0-1.231.1,12.535,12.535,0,0,0-7.973,5.748,11.959,11.959,0,0,0-2.252,7.939c.308,2.341,1.906,6.278,5.944,6.278h.084l38.363-.51c3.781-.05,8.067-.107,11.569-2.01a11.1,11.1,0,0,0,5.83-9.722,9.524,9.524,0,0,0-6.655-8.768,8.285,8.285,0,0,0-9.6,4.623.724.724,0,0,1-1.4-.286,13.334,13.334,0,0,0-3.952-9.561,12.639,12.639,0,0,0-8.908-3.949,12.123,12.123,0,0,0-9.074,4.621,11.309,11.309,0,0,0-2.606,9.26.724.724,0,0,1-1.39.393C404.113,45.985,401.12,44.58,398.393,44.58Z" transform="translate(-385.414 -33.013)"/>
      </g>
      <g id="Grupo_155452" data-name="Grupo 155452" transform="translate(1.843 23.909)" opacity="0.129">
        <path id="Trazado_195863" data-name="Trazado 195863" d="M445.713,49.372a2.1,2.1,0,0,0-.846.567c-.312.23-.647.424-.975.627a23.2,23.2,0,0,1-2.306,1.4c-.081.035-.128.059-.152.072a45.527,45.527,0,0,1-5.013,1.429c-1.184.145-5.288.025-7.674.1-5.1.1-10.2.122-15.3.273a76.242,76.242,0,0,0-12.054.775c-5.135.394-6.844.616-10.632-.97l.17.072a18.138,18.138,0,0,0-2.477-1.123,1.585,1.585,0,0,0-1.013,2.932A24.253,24.253,0,0,0,393.876,58c5.191.84,10.361-.695,15.565-.541,1.825-.035,3.649.1,5.475.057,2.461-.089,4.92-.267,7.384-.306,3.669-.076,7.5-.318,10.217-.652a1.341,1.341,0,0,0,1.589,1.4,22.735,22.735,0,0,0,8.441-2.623c.6-.309,1.187-.644,1.771-.981.334-.214.756-.342.979-.688a1.233,1.233,0,0,0,.295-.9,10.744,10.744,0,0,0,1.158-.863,1.579,1.579,0,0,0,.676-1.223A1.366,1.366,0,0,0,445.713,49.372Z" transform="translate(-386.671 -49.323)"/>
      </g>
    </g>
  </g>
</svg>
