<svg xmlns="http://www.w3.org/2000/svg" xmlns:xlink="http://www.w3.org/1999/xlink" width="742.207" height="306.826" viewBox="0 0 742.207 306.826">
  <defs>
    <linearGradient id="linear-gradient" x1="0.5" x2="0.5" y2="1" gradientUnits="objectBoundingBox">
      <stop offset="0" stop-color="#f5f5f5"/>
      <stop offset="0.25" stop-color="#f5f5f5"/>
      <stop offset="1" stop-color="#a7b3cf"/>
    </linearGradient>
    <filter id="Trazado_232397" x="69.783" y="26.438" width="171.242" height="62.298" filterUnits="userSpaceOnUse">
      <feOffset dy="3" input="SourceAlpha"/>
      <feGaussianBlur stdDeviation="3" result="blur"/>
      <feFlood flood-opacity="0.161"/>
      <feComposite operator="in" in2="blur"/>
      <feComposite in="SourceGraphic"/>
    </filter>
    <filter id="Trazado_232407" x="69.783" y="214.991" width="171.242" height="62.298" filterUnits="userSpaceOnUse">
      <feOffset dy="3" input="SourceAlpha"/>
      <feGaussianBlur stdDeviation="3" result="blur-2"/>
      <feFlood flood-opacity="0.161"/>
      <feComposite operator="in" in2="blur-2"/>
      <feComposite in="SourceGraphic"/>
    </filter>
    <filter id="Trazado_232409" x="533.659" y="24.977" width="208.548" height="62.298" filterUnits="userSpaceOnUse">
      <feOffset dy="3" input="SourceAlpha"/>
      <feGaussianBlur stdDeviation="3" result="blur-3"/>
      <feFlood flood-opacity="0.161"/>
      <feComposite operator="in" in2="blur-3"/>
      <feComposite in="SourceGraphic"/>
    </filter>
    <filter id="Trazado_232410" x="533.659" y="229.387" width="208.548" height="62.298" filterUnits="userSpaceOnUse">
      <feOffset dy="3" input="SourceAlpha"/>
      <feGaussianBlur stdDeviation="3" result="blur-4"/>
      <feFlood flood-opacity="0.161"/>
      <feComposite operator="in" in2="blur-4"/>
      <feComposite in="SourceGraphic"/>
    </filter>
    <radialGradient id="radial-gradient" cx="0.076" cy="0.019" r="1.465" gradientTransform="translate(0.001)" gradientUnits="objectBoundingBox">
      <stop offset="0" stop-color="#f6f6f7"/>
      <stop offset="0.477" stop-color="#f9f9fa"/>
      <stop offset="0.715" stop-color="#fff"/>
    </radialGradient>
    <clipPath id="clip-path">
      <rect id="Rectángulo_58272" data-name="Rectángulo 58272" width="51.923" height="42.926" fill="none"/>
    </clipPath>
    <linearGradient id="linear-gradient-6" x1="0.5" x2="0.5" y2="1" gradientUnits="objectBoundingBox">
      <stop offset="0" stop-color="#278d7e"/>
      <stop offset="1" stop-color="#4fc1b1"/>
    </linearGradient>
    <clipPath id="clip-path-2">
      <rect id="Rectángulo_58273" data-name="Rectángulo 58273" width="46.966" height="46.961" fill="none"/>
    </clipPath>
    <clipPath id="clip-path-3">
      <rect id="Rectángulo_58265" data-name="Rectángulo 58265" width="51.304" height="51.315" fill="none"/>
    </clipPath>
    <linearGradient id="linear-gradient-10" x1="0.5" x2="0.5" y2="1" gradientUnits="objectBoundingBox">
      <stop offset="0" stop-color="#fdbe41"/>
      <stop offset="1" stop-color="#d09f40"/>
    </linearGradient>
    <linearGradient id="linear-gradient-12" x1="0.5" x2="0.5" y2="1" gradientUnits="objectBoundingBox">
      <stop offset="0" stop-color="#50c7d6"/>
      <stop offset="1" stop-color="#117aad"/>
    </linearGradient>
    <clipPath id="clip-path-4">
      <rect id="Rectángulo_58267" data-name="Rectángulo 58267" width="37.098" height="41.452" fill="none"/>
    </clipPath>
    <linearGradient id="linear-gradient-19" x1="0.5" x2="0.5" y2="1" gradientUnits="objectBoundingBox">
      <stop offset="0" stop-color="#4adbd1"/>
      <stop offset="1" stop-color="#256e69"/>
    </linearGradient>
  </defs>
  <g id="Grupo_180667" data-name="Grupo 180667" transform="translate(-7358 3469.342)">
    <g transform="matrix(1, 0, 0, 1, 7358, -3469.34)" filter="url(#Trazado_232397)">
      <path id="Trazado_232397-2" data-name="Trazado 232397" d="M5,0H148.242a5,5,0,0,1,5,5V39.3a5,5,0,0,1-5,5H5a5,5,0,0,1-5-5V5A5,5,0,0,1,5,0Z" transform="translate(78.78 32.44)" fill="url(#linear-gradient)"/>
    </g>
    <g transform="matrix(1, 0, 0, 1, 7358, -3469.34)" filter="url(#Trazado_232407)">
      <path id="Trazado_232407-2" data-name="Trazado 232407" d="M5,0H148.242a5,5,0,0,1,5,5V39.3a5,5,0,0,1-5,5H5a5,5,0,0,1-5-5V5A5,5,0,0,1,5,0Z" transform="translate(78.78 220.99)" fill="url(#linear-gradient)"/>
    </g>
    <g transform="matrix(1, 0, 0, 1, 7358, -3469.34)" filter="url(#Trazado_232409)">
      <path id="Trazado_232409-2" data-name="Trazado 232409" d="M5,0H185.548a5,5,0,0,1,5,5V39.3a5,5,0,0,1-5,5H5a5,5,0,0,1-5-5V5A5,5,0,0,1,5,0Z" transform="translate(542.66 30.98)" fill="url(#linear-gradient)"/>
    </g>
    <g transform="matrix(1, 0, 0, 1, 7358, -3469.34)" filter="url(#Trazado_232410)">
      <path id="Trazado_232410-2" data-name="Trazado 232410" d="M5,0H185.548a5,5,0,0,1,5,5V39.3a5,5,0,0,1-5,5H5a5,5,0,0,1-5-5V5A5,5,0,0,1,5,0Z" transform="translate(542.66 235.39)" fill="url(#linear-gradient)"/>
    </g>
    <path id="Trazado_232398" data-name="Trazado 232398" d="M3.569-4.258V0H1.079V-12.086H5.794a5.455,5.455,0,0,1,2.395.5,3.67,3.67,0,0,1,1.59,1.415,3.946,3.946,0,0,1,.556,2.088,3.47,3.47,0,0,1-1.216,2.8A5.065,5.065,0,0,1,5.752-4.258Zm0-2.017H5.794A2.187,2.187,0,0,0,7.3-6.74a1.691,1.691,0,0,0,.519-1.328A1.994,1.994,0,0,0,7.3-9.5a1.953,1.953,0,0,0-1.444-.564H3.569ZM15.913.166A4.409,4.409,0,0,1,12.7-1.046a4.308,4.308,0,0,1-1.241-3.229v-.232a5.426,5.426,0,0,1,.523-2.42A3.838,3.838,0,0,1,13.46-8.571a4.159,4.159,0,0,1,2.187-.577,3.727,3.727,0,0,1,2.9,1.162,4.722,4.722,0,0,1,1.058,3.3v.979H13.887a2.229,2.229,0,0,0,.7,1.411,2.12,2.12,0,0,0,1.482.531,2.589,2.589,0,0,0,2.167-1l1.179,1.32A3.6,3.6,0,0,1,17.955-.261,4.793,4.793,0,0,1,15.913.166Zm-.274-7.379a1.5,1.5,0,0,0-1.158.484,2.5,2.5,0,0,0-.569,1.384h3.337v-.192a1.786,1.786,0,0,0-.432-1.238A1.547,1.547,0,0,0,15.639-7.213Zm8.2-3.976v2.208h1.536v1.76H23.84v4.482a1.07,1.07,0,0,0,.191.714.959.959,0,0,0,.73.216,3.826,3.826,0,0,0,.706-.058V-.05a4.939,4.939,0,0,1-1.453.216,2.29,2.29,0,0,1-2.573-2.548V-7.222H20.129v-1.76h1.312v-2.208ZM29.244,0H26.836V-8.981h2.407ZM26.7-11.306a1.181,1.181,0,0,1,.361-.888,1.356,1.356,0,0,1,.984-.349,1.36,1.36,0,0,1,.979.349,1.175,1.175,0,0,1,.365.888,1.178,1.178,0,0,1-.369.9,1.363,1.363,0,0,1-.975.349,1.363,1.363,0,0,1-.975-.349A1.178,1.178,0,0,1,26.7-11.306Zm8.259,9.538a1.573,1.573,0,0,0,1.079-.365,1.28,1.28,0,0,0,.432-.971h2.25a3.077,3.077,0,0,1-.5,1.673A3.286,3.286,0,0,1,36.876-.253,4.2,4.2,0,0,1,35,.166a3.9,3.9,0,0,1-3.038-1.224,4.845,4.845,0,0,1-1.112-3.383V-4.6a4.79,4.79,0,0,1,1.1-3.312,3.854,3.854,0,0,1,3.03-1.237,3.778,3.778,0,0,1,2.7.959,3.4,3.4,0,0,1,1.033,2.552h-2.25a1.648,1.648,0,0,0-.432-1.139,1.439,1.439,0,0,0-1.1-.438,1.445,1.445,0,0,0-1.266.611,3.541,3.541,0,0,0-.427,1.983v.249a3.586,3.586,0,0,0,.423,2A1.463,1.463,0,0,0,34.955-1.768ZM42.616,0H40.209V-8.981h2.407ZM40.068-11.306a1.181,1.181,0,0,1,.361-.888,1.356,1.356,0,0,1,.984-.349,1.36,1.36,0,0,1,.979.349,1.175,1.175,0,0,1,.365.888,1.178,1.178,0,0,1-.369.9,1.363,1.363,0,0,1-.975.349,1.363,1.363,0,0,1-.975-.349A1.178,1.178,0,0,1,40.068-11.306Zm4.15,6.732a5.327,5.327,0,0,1,.515-2.382,3.767,3.767,0,0,1,1.482-1.619,4.323,4.323,0,0,1,2.245-.573,4.09,4.09,0,0,1,2.968,1.112A4.464,4.464,0,0,1,52.71-5.014l.017.614a4.694,4.694,0,0,1-1.154,3.316,4.011,4.011,0,0,1-3.1,1.249,4.031,4.031,0,0,1-3.1-1.245,4.777,4.777,0,0,1-1.158-3.387Zm2.4.17A3.357,3.357,0,0,0,47.1-2.446a1.588,1.588,0,0,0,1.378.678,1.592,1.592,0,0,0,1.361-.669,3.674,3.674,0,0,0,.49-2.141,3.324,3.324,0,0,0-.49-1.945,1.592,1.592,0,0,0-1.378-.69,1.566,1.566,0,0,0-1.361.686A3.735,3.735,0,0,0,46.617-4.4Zm2.316-8.347h2.615l-2.3,2.573H47.3Zm7.479,3.769.075,1.038a3.136,3.136,0,0,1,2.582-1.2,2.606,2.606,0,0,1,2.125.838A3.912,3.912,0,0,1,61.907-5.8V0h-2.4V-5.757a1.562,1.562,0,0,0-.332-1.111,1.484,1.484,0,0,0-1.1-.345,1.65,1.65,0,0,0-1.519.865V0h-2.4V-8.981Z" transform="translate(7487.813 -3408.717)" fill="#12263f"/>
    <path id="Trazado_232408" data-name="Trazado 232408" d="M5.545-3l2.739-9.089h2.772L6.848,0H4.25L.058-12.086H2.822Zm9.023,3H12.161V-8.981h2.407ZM12.02-11.306a1.181,1.181,0,0,1,.361-.888,1.356,1.356,0,0,1,.984-.349,1.36,1.36,0,0,1,.979.349,1.175,1.175,0,0,1,.365.888,1.178,1.178,0,0,1-.369.9,1.363,1.363,0,0,1-.975.349,1.363,1.363,0,0,1-.975-.349A1.178,1.178,0,0,1,12.02-11.306Zm9.388,8.824a.773.773,0,0,0-.436-.693,4.95,4.95,0,0,0-1.4-.452q-3.2-.672-3.2-2.723a2.468,2.468,0,0,1,.992-2,4,4,0,0,1,2.594-.8,4.307,4.307,0,0,1,2.735.805A2.538,2.538,0,0,1,23.715-6.25h-2.4a1.161,1.161,0,0,0-.332-.851,1.405,1.405,0,0,0-1.038-.336,1.436,1.436,0,0,0-.938.274.865.865,0,0,0-.332.7.739.739,0,0,0,.378.643,3.885,3.885,0,0,0,1.274.423,10.407,10.407,0,0,1,1.511.4,2.482,2.482,0,0,1,1.9,2.416A2.343,2.343,0,0,1,22.686-.594a4.548,4.548,0,0,1-2.723.76,4.75,4.75,0,0,1-2-.4,3.363,3.363,0,0,1-1.374-1.1,2.565,2.565,0,0,1-.5-1.515h2.274a1.252,1.252,0,0,0,.473.979,1.877,1.877,0,0,0,1.179.34A1.737,1.737,0,0,0,21.055-1.8.814.814,0,0,0,21.408-2.482Zm6.749-8.708v2.208h1.536v1.76H28.156v4.482a1.07,1.07,0,0,0,.191.714.959.959,0,0,0,.73.216,3.826,3.826,0,0,0,.706-.058V-.05a4.939,4.939,0,0,1-1.453.216,2.29,2.29,0,0,1-2.573-2.548V-7.222H24.446v-1.76h1.312v-2.208ZM36.233,0a2.664,2.664,0,0,1-.241-.805,2.9,2.9,0,0,1-2.266.971A3.189,3.189,0,0,1,31.539-.6a2.456,2.456,0,0,1-.867-1.926A2.538,2.538,0,0,1,31.73-4.715a5.222,5.222,0,0,1,3.059-.772h1.1V-6a1.48,1.48,0,0,0-.32-1,1.257,1.257,0,0,0-1.009-.374,1.429,1.429,0,0,0-.95.291.987.987,0,0,0-.344.8h-2.4a2.41,2.41,0,0,1,.481-1.444A3.182,3.182,0,0,1,32.713-8.77a4.961,4.961,0,0,1,1.976-.378,3.92,3.92,0,0,1,2.635.834A2.918,2.918,0,0,1,38.3-5.968v3.893a4.294,4.294,0,0,0,.357,1.934V0ZM34.249-1.668a2.066,2.066,0,0,0,.979-.237,1.554,1.554,0,0,0,.664-.635V-4.084H35q-1.8,0-1.917,1.245L33.07-2.7a.96.96,0,0,0,.315.739A1.225,1.225,0,0,0,34.249-1.668Z" transform="translate(7507.024 -3221.743)" fill="#12263f"/>
    <path id="Trazado_232414" data-name="Trazado 232414" d="M10.567-4.026A4.277,4.277,0,0,1,9.127-.955,5.058,5.058,0,0,1,5.7.166,4.548,4.548,0,0,1,2.046-1.4a6.416,6.416,0,0,1-1.332-4.3v-.739A7.245,7.245,0,0,1,1.328-9.5a4.6,4.6,0,0,1,1.756-2.038,4.918,4.918,0,0,1,2.652-.71,4.927,4.927,0,0,1,3.37,1.121,4.6,4.6,0,0,1,1.478,3.146H8.093a2.524,2.524,0,0,0-.652-1.7,2.413,2.413,0,0,0-1.706-.527,2.116,2.116,0,0,0-1.864.892,5,5,0,0,0-.635,2.768v.913a5.352,5.352,0,0,0,.594,2.864,2.077,2.077,0,0,0,1.872.9,2.458,2.458,0,0,0,1.722-.527,2.381,2.381,0,0,0,.652-1.631Zm1.1-.548a5.327,5.327,0,0,1,.515-2.382,3.768,3.768,0,0,1,1.482-1.619,4.323,4.323,0,0,1,2.245-.573A4.09,4.09,0,0,1,18.88-8.035a4.464,4.464,0,0,1,1.282,3.021l.017.614a4.694,4.694,0,0,1-1.154,3.316,4.011,4.011,0,0,1-3.1,1.249,4.031,4.031,0,0,1-3.1-1.245,4.777,4.777,0,0,1-1.158-3.387Zm2.4.17a3.357,3.357,0,0,0,.481,1.958,1.588,1.588,0,0,0,1.378.678,1.592,1.592,0,0,0,1.361-.669,3.674,3.674,0,0,0,.49-2.141,3.324,3.324,0,0,0-.49-1.945,1.592,1.592,0,0,0-1.378-.69,1.566,1.566,0,0,0-1.361.686A3.735,3.735,0,0,0,14.07-4.4Zm9.795-4.578.075,1.038a3.136,3.136,0,0,1,2.582-1.2,2.606,2.606,0,0,1,2.125.838A3.912,3.912,0,0,1,29.36-5.8V0h-2.4V-5.757a1.562,1.562,0,0,0-.332-1.111,1.484,1.484,0,0,0-1.1-.345,1.65,1.65,0,0,0-1.519.865V0h-2.4V-8.981ZM34.05-11.189v2.208h1.536v1.76H34.05v4.482a1.07,1.07,0,0,0,.191.714.959.959,0,0,0,.73.216,3.826,3.826,0,0,0,.706-.058V-.05a4.939,4.939,0,0,1-1.453.216,2.29,2.29,0,0,1-2.573-2.548V-7.222H30.339v-1.76h1.312v-2.208Zm7.919,4.458a6.517,6.517,0,0,0-.863-.066,1.757,1.757,0,0,0-1.785.921V0h-2.4V-8.981h2.266l.066,1.071a2.223,2.223,0,0,1,2-1.237A2.514,2.514,0,0,1,42-9.04Zm.481,2.158a5.327,5.327,0,0,1,.515-2.382,3.767,3.767,0,0,1,1.482-1.619,4.323,4.323,0,0,1,2.245-.573,4.09,4.09,0,0,1,2.968,1.112,4.464,4.464,0,0,1,1.282,3.021l.017.614A4.694,4.694,0,0,1,49.8-1.083a4.011,4.011,0,0,1-3.1,1.249,4.031,4.031,0,0,1-3.1-1.245A4.777,4.777,0,0,1,42.45-4.466Zm2.4.17a3.357,3.357,0,0,0,.481,1.958,1.588,1.588,0,0,0,1.378.678,1.592,1.592,0,0,0,1.361-.669,3.674,3.674,0,0,0,.49-2.141,3.324,3.324,0,0,0-.49-1.945,1.592,1.592,0,0,0-1.378-.69,1.566,1.566,0,0,0-1.361.686A3.735,3.735,0,0,0,44.849-4.4ZM54.968,0H52.561V-12.75h2.407Zm7.18,0a2.664,2.664,0,0,1-.241-.805,2.9,2.9,0,0,1-2.266.971A3.189,3.189,0,0,1,57.454-.6a2.456,2.456,0,0,1-.867-1.926,2.538,2.538,0,0,1,1.058-2.191A5.222,5.222,0,0,1,60.7-5.487h1.1V-6a1.48,1.48,0,0,0-.32-1,1.257,1.257,0,0,0-1.009-.374,1.429,1.429,0,0,0-.95.291.987.987,0,0,0-.344.8h-2.4a2.41,2.41,0,0,1,.481-1.444A3.182,3.182,0,0,1,58.628-8.77,4.961,4.961,0,0,1,60.6-9.147a3.92,3.92,0,0,1,2.635.834,2.918,2.918,0,0,1,.975,2.345v3.893a4.294,4.294,0,0,0,.357,1.934V0ZM60.164-1.668a2.066,2.066,0,0,0,.979-.237,1.554,1.554,0,0,0,.664-.635V-4.084h-.9q-1.8,0-1.917,1.245l-.008.141a.96.96,0,0,0,.315.739A1.225,1.225,0,0,0,60.164-1.668Zm5.52-2.889A5.413,5.413,0,0,1,66.626-7.9,3.057,3.057,0,0,1,69.2-9.147a2.751,2.751,0,0,1,2.167.979V-12.75h2.407V0H71.611l-.116-.955A2.823,2.823,0,0,1,69.187.166a3.049,3.049,0,0,1-2.544-1.249A5.587,5.587,0,0,1,65.684-4.557Zm2.4.171a3.565,3.565,0,0,0,.44,1.943,1.432,1.432,0,0,0,1.278.675A1.6,1.6,0,0,0,71.37-2.71V-6.271a1.582,1.582,0,0,0-1.552-.942Q68.083-7.213,68.083-4.386Zm7.18-.187a5.326,5.326,0,0,1,.515-2.382A3.768,3.768,0,0,1,77.26-8.575,4.323,4.323,0,0,1,79.5-9.147a4.09,4.09,0,0,1,2.968,1.112,4.464,4.464,0,0,1,1.282,3.021l.017.614a4.694,4.694,0,0,1-1.154,3.316,4.011,4.011,0,0,1-3.1,1.249,4.031,4.031,0,0,1-3.1-1.245,4.777,4.777,0,0,1-1.158-3.387Zm2.4.17a3.357,3.357,0,0,0,.481,1.958,1.588,1.588,0,0,0,1.378.678,1.592,1.592,0,0,0,1.361-.669,3.674,3.674,0,0,0,.49-2.141,3.324,3.324,0,0,0-.49-1.945,1.592,1.592,0,0,0-1.378-.69,1.566,1.566,0,0,0-1.361.686A3.736,3.736,0,0,0,77.662-4.4ZM90.3-6.732a6.517,6.517,0,0,0-.863-.066,1.757,1.757,0,0,0-1.785.921V0h-2.4V-8.981h2.266l.066,1.071a2.223,2.223,0,0,1,2-1.237,2.514,2.514,0,0,1,.747.108Z" transform="translate(7970.901 -3411.756)" fill="#12263f"/>
    <path id="Trazado_232415" data-name="Trazado 232415" d="M4.333-12.086l3.1,8.766,3.088-8.766H13.8V0H11.3V-3.3l.249-5.7L8.284,0H6.574L3.32-9,3.569-3.3V0H1.079V-12.086ZM15.439-4.574a5.327,5.327,0,0,1,.515-2.382,3.768,3.768,0,0,1,1.482-1.619,4.323,4.323,0,0,1,2.245-.573,4.09,4.09,0,0,1,2.968,1.112,4.464,4.464,0,0,1,1.282,3.021l.017.614a4.694,4.694,0,0,1-1.154,3.316A4.011,4.011,0,0,1,19.7.166a4.031,4.031,0,0,1-3.1-1.245,4.777,4.777,0,0,1-1.158-3.387Zm2.4.17a3.357,3.357,0,0,0,.481,1.958,1.588,1.588,0,0,0,1.378.678,1.592,1.592,0,0,0,1.361-.669,3.674,3.674,0,0,0,.49-2.141,3.324,3.324,0,0,0-.49-1.945,1.592,1.592,0,0,0-1.378-.69,1.566,1.566,0,0,0-1.361.686A3.735,3.735,0,0,0,17.838-4.4Zm7.213-.154A5.413,5.413,0,0,1,25.994-7.9a3.057,3.057,0,0,1,2.577-1.245,2.751,2.751,0,0,1,2.167.979V-12.75h2.407V0H30.979l-.116-.955A2.823,2.823,0,0,1,28.555.166,3.049,3.049,0,0,1,26.01-1.083,5.587,5.587,0,0,1,25.052-4.557Zm2.4.171a3.565,3.565,0,0,0,.44,1.943,1.432,1.432,0,0,0,1.278.675,1.6,1.6,0,0,0,1.569-.942V-6.271a1.582,1.582,0,0,0-1.552-.942Q27.451-7.213,27.451-4.386ZM39.138.166a4.409,4.409,0,0,1-3.217-1.212,4.308,4.308,0,0,1-1.241-3.229v-.232a5.426,5.426,0,0,1,.523-2.42,3.838,3.838,0,0,1,1.482-1.644,4.159,4.159,0,0,1,2.187-.577,3.727,3.727,0,0,1,2.9,1.162,4.722,4.722,0,0,1,1.058,3.3v.979H37.113a2.229,2.229,0,0,0,.7,1.411,2.12,2.12,0,0,0,1.482.531,2.589,2.589,0,0,0,2.167-1l1.179,1.32A3.6,3.6,0,0,1,41.18-.261,4.793,4.793,0,0,1,39.138.166Zm-.274-7.379a1.5,1.5,0,0,0-1.158.484,2.5,2.5,0,0,0-.569,1.384h3.337v-.192a1.786,1.786,0,0,0-.432-1.238A1.547,1.547,0,0,0,38.864-7.213ZM46.725,0H44.318V-12.75h2.407Zm1.6-4.574a5.327,5.327,0,0,1,.515-2.382,3.767,3.767,0,0,1,1.482-1.619,4.323,4.323,0,0,1,2.245-.573,4.09,4.09,0,0,1,2.968,1.112,4.464,4.464,0,0,1,1.282,3.021l.017.614a4.694,4.694,0,0,1-1.154,3.316,4.011,4.011,0,0,1-3.1,1.249,4.031,4.031,0,0,1-3.1-1.245,4.777,4.777,0,0,1-1.158-3.387Zm2.4.17a3.357,3.357,0,0,0,.481,1.958,1.588,1.588,0,0,0,1.378.678,1.592,1.592,0,0,0,1.361-.669,3.674,3.674,0,0,0,.49-2.141,3.324,3.324,0,0,0-.49-1.945,1.592,1.592,0,0,0-1.378-.69,1.566,1.566,0,0,0-1.361.686A3.735,3.735,0,0,0,50.726-4.4Z" transform="translate(7970.901 -3207.346)" fill="#12263f"/>
    <path id="Trazado_232399" data-name="Trazado 232399" d="M5.553-4.424H3.569V0H1.079V-12.086H5.57a5.076,5.076,0,0,1,3.3.955,3.3,3.3,0,0,1,1.162,2.7A3.718,3.718,0,0,1,9.5-6.371,3.651,3.651,0,0,1,7.877-5.055L10.492-.116V0H7.819ZM3.569-6.441H5.578a2.057,2.057,0,0,0,1.453-.477,1.706,1.706,0,0,0,.515-1.316A1.826,1.826,0,0,0,7.06-9.579a2.018,2.018,0,0,0-1.49-.49h-2ZM15.9.166a4.409,4.409,0,0,1-3.217-1.212,4.308,4.308,0,0,1-1.241-3.229v-.232a5.426,5.426,0,0,1,.523-2.42,3.838,3.838,0,0,1,1.482-1.644,4.159,4.159,0,0,1,2.187-.577,3.727,3.727,0,0,1,2.9,1.162A4.722,4.722,0,0,1,19.6-4.69v.979H13.879a2.229,2.229,0,0,0,.7,1.411,2.12,2.12,0,0,0,1.482.531,2.589,2.589,0,0,0,2.167-1l1.179,1.32A3.6,3.6,0,0,1,17.946-.261,4.793,4.793,0,0,1,15.9.166ZM15.63-7.213a1.5,1.5,0,0,0-1.158.484A2.5,2.5,0,0,0,13.9-5.346h3.337v-.192a1.786,1.786,0,0,0-.432-1.238A1.547,1.547,0,0,0,15.63-7.213ZM25.824-2.482a.773.773,0,0,0-.436-.693,4.95,4.95,0,0,0-1.4-.452q-3.2-.672-3.2-2.723a2.468,2.468,0,0,1,.992-2,4,4,0,0,1,2.594-.8,4.307,4.307,0,0,1,2.735.805A2.538,2.538,0,0,1,28.131-6.25h-2.4A1.161,1.161,0,0,0,25.4-7.1a1.405,1.405,0,0,0-1.038-.336,1.436,1.436,0,0,0-.938.274.865.865,0,0,0-.332.7.739.739,0,0,0,.378.643,3.885,3.885,0,0,0,1.274.423,10.407,10.407,0,0,1,1.511.4,2.482,2.482,0,0,1,1.9,2.416A2.343,2.343,0,0,1,27.1-.594a4.548,4.548,0,0,1-2.723.76,4.75,4.75,0,0,1-2-.4A3.363,3.363,0,0,1,21-1.341a2.565,2.565,0,0,1-.5-1.515h2.274a1.252,1.252,0,0,0,.473.979,1.877,1.877,0,0,0,1.179.34A1.737,1.737,0,0,0,25.471-1.8.814.814,0,0,0,25.824-2.482ZM37.785-4.408a5.387,5.387,0,0,1-.942,3.324A3.021,3.021,0,0,1,34.3.166,2.8,2.8,0,0,1,32.1-.78V3.453H29.7V-8.981h2.225l.083.88a2.819,2.819,0,0,1,2.274-1.046,3.041,3.041,0,0,1,2.582,1.229,5.532,5.532,0,0,1,.921,3.387Zm-2.4-.183a3.554,3.554,0,0,0-.444-1.94,1.445,1.445,0,0,0-1.291-.683,1.57,1.57,0,0,0-1.552.866v3.689a1.6,1.6,0,0,0,1.569.891Q35.386-1.768,35.386-4.591ZM44.65-.913A3.008,3.008,0,0,1,42.193.166a2.837,2.837,0,0,1-2.2-.83A3.543,3.543,0,0,1,39.213-3.1V-8.981h2.4v5.809q0,1.4,1.278,1.4a1.732,1.732,0,0,0,1.677-.848V-8.981h2.407V0H44.716ZM52.917.166A4.409,4.409,0,0,1,49.7-1.046,4.308,4.308,0,0,1,48.46-4.275v-.232a5.426,5.426,0,0,1,.523-2.42,3.838,3.838,0,0,1,1.482-1.644,4.159,4.159,0,0,1,2.187-.577,3.727,3.727,0,0,1,2.9,1.162,4.722,4.722,0,0,1,1.058,3.3v.979H50.892a2.229,2.229,0,0,0,.7,1.411,2.12,2.12,0,0,0,1.482.531,2.589,2.589,0,0,0,2.167-1l1.179,1.32A3.6,3.6,0,0,1,54.959-.261,4.793,4.793,0,0,1,52.917.166Zm-.274-7.379a1.5,1.5,0,0,0-1.158.484,2.5,2.5,0,0,0-.569,1.384h3.337v-.192a1.786,1.786,0,0,0-.432-1.238A1.547,1.547,0,0,0,52.644-7.213ZM62.837-2.482a.773.773,0,0,0-.436-.693A4.95,4.95,0,0,0,61-3.627Q57.8-4.3,57.8-6.35a2.468,2.468,0,0,1,.992-2,4,4,0,0,1,2.594-.8,4.307,4.307,0,0,1,2.735.805A2.538,2.538,0,0,1,65.145-6.25h-2.4a1.161,1.161,0,0,0-.332-.851,1.405,1.405,0,0,0-1.038-.336,1.436,1.436,0,0,0-.938.274.865.865,0,0,0-.332.7.739.739,0,0,0,.378.643,3.885,3.885,0,0,0,1.274.423,10.407,10.407,0,0,1,1.511.4,2.482,2.482,0,0,1,1.9,2.416A2.343,2.343,0,0,1,64.115-.594a4.548,4.548,0,0,1-2.723.76,4.75,4.75,0,0,1-2-.4,3.363,3.363,0,0,1-1.374-1.1,2.565,2.565,0,0,1-.5-1.515h2.274a1.252,1.252,0,0,0,.473.979,1.877,1.877,0,0,0,1.179.34A1.737,1.737,0,0,0,62.484-1.8.814.814,0,0,0,62.837-2.482Zm6.749-8.708v2.208h1.536v1.76H69.585v4.482a1.07,1.07,0,0,0,.191.714.959.959,0,0,0,.73.216,3.826,3.826,0,0,0,.706-.058V-.05A4.939,4.939,0,0,1,69.76.166a2.29,2.29,0,0,1-2.573-2.548V-7.222H65.875v-1.76h1.312v-2.208ZM77.662,0a2.664,2.664,0,0,1-.241-.805,2.9,2.9,0,0,1-2.266.971A3.189,3.189,0,0,1,72.968-.6,2.456,2.456,0,0,1,72.1-2.523a2.538,2.538,0,0,1,1.058-2.191,5.222,5.222,0,0,1,3.059-.772h1.1V-6A1.48,1.48,0,0,0,77-7a1.257,1.257,0,0,0-1.009-.374,1.429,1.429,0,0,0-.95.291.987.987,0,0,0-.344.8H72.3a2.41,2.41,0,0,1,.481-1.444A3.182,3.182,0,0,1,74.143-8.77a4.961,4.961,0,0,1,1.976-.378,3.92,3.92,0,0,1,2.635.834,2.918,2.918,0,0,1,.975,2.345v3.893a4.294,4.294,0,0,0,.357,1.934V0ZM75.678-1.668a2.066,2.066,0,0,0,.979-.237,1.554,1.554,0,0,0,.664-.635V-4.084h-.9q-1.8,0-1.917,1.245L74.5-2.7a.96.96,0,0,0,.315.739A1.225,1.225,0,0,0,75.678-1.668Z" transform="translate(7476.813 -3317.287)" fill="#12263f"/>
    <path id="Trazado_232413" data-name="Trazado 232413" d="M-44.173-4.026a4.277,4.277,0,0,1-1.44,3.071A5.058,5.058,0,0,1-49.037.166,4.548,4.548,0,0,1-52.693-1.4a6.416,6.416,0,0,1-1.332-4.3v-.739A7.245,7.245,0,0,1-53.411-9.5a4.6,4.6,0,0,1,1.756-2.038A4.918,4.918,0,0,1-49-12.252a4.927,4.927,0,0,1,3.37,1.121,4.6,4.6,0,0,1,1.478,3.146h-2.49a2.524,2.524,0,0,0-.652-1.7A2.413,2.413,0,0,0-49-10.21a2.116,2.116,0,0,0-1.864.892A5,5,0,0,0-51.5-6.549v.913a5.352,5.352,0,0,0,.594,2.864,2.077,2.077,0,0,0,1.872.9,2.458,2.458,0,0,0,1.722-.527,2.381,2.381,0,0,0,.652-1.631Zm1.1-.548a5.327,5.327,0,0,1,.515-2.382,3.767,3.767,0,0,1,1.482-1.619,4.323,4.323,0,0,1,2.245-.573,4.09,4.09,0,0,1,2.968,1.112,4.464,4.464,0,0,1,1.282,3.021l.017.614a4.694,4.694,0,0,1-1.154,3.316A4.011,4.011,0,0,1-38.81.166a4.031,4.031,0,0,1-3.1-1.245,4.777,4.777,0,0,1-1.158-3.387Zm2.4.17a3.357,3.357,0,0,0,.481,1.958,1.588,1.588,0,0,0,1.378.678,1.592,1.592,0,0,0,1.361-.669,3.674,3.674,0,0,0,.49-2.141,3.324,3.324,0,0,0-.49-1.945,1.592,1.592,0,0,0-1.378-.69,1.566,1.566,0,0,0-1.361.686A3.735,3.735,0,0,0-40.67-4.4Zm9.836-4.578.075,1a3.156,3.156,0,0,1,2.582-1.17,2.4,2.4,0,0,1,2.382,1.37,3.084,3.084,0,0,1,2.7-1.37,2.679,2.679,0,0,1,2.175.851,3.911,3.911,0,0,1,.714,2.561V0h-2.407V-5.741a1.717,1.717,0,0,0-.3-1.119,1.322,1.322,0,0,0-1.054-.354,1.5,1.5,0,0,0-1.494,1.032L-25.454,0h-2.4V-5.732a1.7,1.7,0,0,0-.307-1.132,1.335,1.335,0,0,0-1.046-.349,1.554,1.554,0,0,0-1.478.849V0h-2.4V-8.981ZM-12.987-.913A3.008,3.008,0,0,1-15.444.166a2.837,2.837,0,0,1-2.2-.83A3.543,3.543,0,0,1-18.424-3.1V-8.981h2.4v5.809q0,1.4,1.278,1.4a1.732,1.732,0,0,0,1.677-.848V-8.981h2.407V0H-12.92Zm6.342-8.068.075,1.038a3.136,3.136,0,0,1,2.582-1.2,2.606,2.606,0,0,1,2.125.838A3.912,3.912,0,0,1-1.15-5.8V0h-2.4V-5.757a1.562,1.562,0,0,0-.332-1.111,1.484,1.484,0,0,0-1.1-.345A1.65,1.65,0,0,0-6.5-6.348V0H-8.9V-8.981ZM3.2,0H.793V-8.981H3.2ZM.652-11.306a1.181,1.181,0,0,1,.361-.888A1.356,1.356,0,0,1,2-12.542a1.36,1.36,0,0,1,.979.349,1.175,1.175,0,0,1,.365.888,1.178,1.178,0,0,1-.369.9A1.363,1.363,0,0,1,2-10.061a1.363,1.363,0,0,1-.975-.349A1.178,1.178,0,0,1,.652-11.306ZM8.911-1.768A1.573,1.573,0,0,0,9.99-2.133a1.28,1.28,0,0,0,.432-.971h2.25a3.077,3.077,0,0,1-.5,1.673A3.286,3.286,0,0,1,10.833-.253a4.2,4.2,0,0,1-1.88.419A3.9,3.9,0,0,1,5.914-1.058,4.845,4.845,0,0,1,4.8-4.441V-4.6a4.79,4.79,0,0,1,1.1-3.312,3.854,3.854,0,0,1,3.03-1.237,3.778,3.778,0,0,1,2.7.959,3.4,3.4,0,0,1,1.033,2.552h-2.25A1.648,1.648,0,0,0,9.99-6.775a1.439,1.439,0,0,0-1.1-.438A1.445,1.445,0,0,0,7.628-6.6,3.541,3.541,0,0,0,7.2-4.62v.249a3.586,3.586,0,0,0,.423,2A1.463,1.463,0,0,0,8.911-1.768ZM19.245,0A2.664,2.664,0,0,1,19-.805a2.9,2.9,0,0,1-2.266.971A3.189,3.189,0,0,1,14.551-.6a2.456,2.456,0,0,1-.867-1.926,2.538,2.538,0,0,1,1.058-2.191A5.222,5.222,0,0,1,17.8-5.487h1.1V-6a1.48,1.48,0,0,0-.32-1,1.257,1.257,0,0,0-1.009-.374,1.429,1.429,0,0,0-.95.291.987.987,0,0,0-.344.8h-2.4a2.41,2.41,0,0,1,.481-1.444A3.182,3.182,0,0,1,15.726-8.77,4.961,4.961,0,0,1,17.7-9.147a3.92,3.92,0,0,1,2.635.834,2.918,2.918,0,0,1,.975,2.345v3.893a4.294,4.294,0,0,0,.357,1.934V0ZM17.261-1.668a2.066,2.066,0,0,0,.979-.237,1.554,1.554,0,0,0,.664-.635V-4.084h-.9q-1.8,0-1.917,1.245l-.008.141a.96.96,0,0,0,.315.739A1.225,1.225,0,0,0,17.261-1.668Zm9.629-.1a1.573,1.573,0,0,0,1.079-.365A1.28,1.28,0,0,0,28.4-3.1h2.25a3.077,3.077,0,0,1-.5,1.673A3.286,3.286,0,0,1,28.812-.253a4.2,4.2,0,0,1-1.88.419,3.9,3.9,0,0,1-3.038-1.224,4.845,4.845,0,0,1-1.112-3.383V-4.6a4.79,4.79,0,0,1,1.1-3.312,3.854,3.854,0,0,1,3.03-1.237,3.778,3.778,0,0,1,2.7.959,3.4,3.4,0,0,1,1.033,2.552H28.4a1.648,1.648,0,0,0-.432-1.139,1.439,1.439,0,0,0-1.1-.438,1.445,1.445,0,0,0-1.266.611A3.541,3.541,0,0,0,25.18-4.62v.249a3.586,3.586,0,0,0,.423,2A1.463,1.463,0,0,0,26.89-1.768ZM34.552,0H32.145V-8.981h2.407ZM32-11.306a1.181,1.181,0,0,1,.361-.888,1.356,1.356,0,0,1,.984-.349,1.36,1.36,0,0,1,.979.349,1.175,1.175,0,0,1,.365.888,1.178,1.178,0,0,1-.369.9,1.363,1.363,0,0,1-.975.349,1.363,1.363,0,0,1-.975-.349A1.178,1.178,0,0,1,32-11.306Zm4.15,6.732a5.327,5.327,0,0,1,.515-2.382A3.767,3.767,0,0,1,38.15-8.575,4.323,4.323,0,0,1,40.4-9.147a4.09,4.09,0,0,1,2.968,1.112,4.464,4.464,0,0,1,1.282,3.021l.017.614a4.694,4.694,0,0,1-1.154,3.316,4.011,4.011,0,0,1-3.1,1.249,4.031,4.031,0,0,1-3.1-1.245,4.777,4.777,0,0,1-1.158-3.387Zm2.4.17a3.357,3.357,0,0,0,.481,1.958,1.588,1.588,0,0,0,1.378.678,1.592,1.592,0,0,0,1.361-.669,3.674,3.674,0,0,0,.49-2.141,3.324,3.324,0,0,0-.49-1.945,1.592,1.592,0,0,0-1.378-.69,1.566,1.566,0,0,0-1.361.686A3.735,3.735,0,0,0,38.553-4.4Zm2.316-8.347h2.615l-2.3,2.573H39.234Zm7.479,3.769.075,1.038A3.136,3.136,0,0,1,51-9.147a2.606,2.606,0,0,1,2.125.838A3.912,3.912,0,0,1,53.843-5.8V0h-2.4V-5.757a1.562,1.562,0,0,0-.332-1.111,1.484,1.484,0,0,0-1.1-.345,1.65,1.65,0,0,0-1.519.865V0h-2.4V-8.981ZM-32.224,14.443a5.413,5.413,0,0,1,.942-3.345A3.057,3.057,0,0,1-28.7,9.853a2.751,2.751,0,0,1,2.167.979V6.25h2.407V19H-26.3l-.116-.955a2.823,2.823,0,0,1-2.308,1.121,3.049,3.049,0,0,1-2.544-1.249A5.587,5.587,0,0,1-32.224,14.443Zm2.4.171a3.565,3.565,0,0,0,.44,1.943,1.432,1.432,0,0,0,1.278.675,1.6,1.6,0,0,0,1.569-.942V12.729a1.582,1.582,0,0,0-1.552-.942Q-29.825,11.787-29.825,14.614Zm11.688,4.552a4.409,4.409,0,0,1-3.217-1.212,4.308,4.308,0,0,1-1.241-3.229v-.232a5.426,5.426,0,0,1,.523-2.42,3.838,3.838,0,0,1,1.482-1.644A4.159,4.159,0,0,1-18.4,9.853a3.727,3.727,0,0,1,2.9,1.162,4.722,4.722,0,0,1,1.058,3.3v.979h-5.719a2.229,2.229,0,0,0,.7,1.411,2.12,2.12,0,0,0,1.482.531,2.589,2.589,0,0,0,2.167-1l1.179,1.32A3.6,3.6,0,0,1-16.1,18.739,4.793,4.793,0,0,1-18.137,19.166Zm-.274-7.379a1.5,1.5,0,0,0-1.158.484,2.5,2.5,0,0,0-.569,1.384H-16.8v-.192a1.786,1.786,0,0,0-.432-1.238A1.547,1.547,0,0,0-18.411,11.787Zm9.189,2.656A5.413,5.413,0,0,1-8.28,11.1,3.057,3.057,0,0,1-5.7,9.853a2.751,2.751,0,0,1,2.167.979V6.25h2.407V19H-3.3l-.116-.955a2.823,2.823,0,0,1-2.308,1.121,3.049,3.049,0,0,1-2.544-1.249A5.587,5.587,0,0,1-9.222,14.443Zm2.4.171a3.565,3.565,0,0,0,.44,1.943,1.432,1.432,0,0,0,1.278.675,1.6,1.6,0,0,0,1.569-.942V12.729a1.582,1.582,0,0,0-1.552-.942Q-6.823,11.787-6.823,14.614ZM5.935,19a2.664,2.664,0,0,1-.241-.805,2.9,2.9,0,0,1-2.266.971A3.189,3.189,0,0,1,1.241,18.4a2.456,2.456,0,0,1-.867-1.926,2.538,2.538,0,0,1,1.058-2.191,5.222,5.222,0,0,1,3.059-.772h1.1V13a1.48,1.48,0,0,0-.32-1,1.257,1.257,0,0,0-1.009-.374,1.429,1.429,0,0,0-.95.291.987.987,0,0,0-.344.8H.573a2.41,2.41,0,0,1,.481-1.444A3.182,3.182,0,0,1,2.416,10.23a4.961,4.961,0,0,1,1.976-.378,3.92,3.92,0,0,1,2.635.834A2.918,2.918,0,0,1,8,13.032v3.893a4.294,4.294,0,0,0,.357,1.934V19ZM3.951,17.332a2.066,2.066,0,0,0,.979-.237,1.554,1.554,0,0,0,.664-.635V14.916H4.7q-1.8,0-1.917,1.245l-.008.141a.96.96,0,0,0,.315.739A1.225,1.225,0,0,0,3.951,17.332Zm8.766-9.521v2.208h1.536v1.76H12.717v4.482a1.07,1.07,0,0,0,.191.714.959.959,0,0,0,.73.216,3.826,3.826,0,0,0,.706-.058V18.95a4.938,4.938,0,0,1-1.453.216,2.29,2.29,0,0,1-2.573-2.548V11.778H9.006v-1.76h1.312V7.811Zm2.25,6.616a5.327,5.327,0,0,1,.515-2.382,3.768,3.768,0,0,1,1.482-1.619,4.323,4.323,0,0,1,2.245-.573,4.09,4.09,0,0,1,2.968,1.112,4.464,4.464,0,0,1,1.282,3.021l.017.614a4.694,4.694,0,0,1-1.154,3.316,4.011,4.011,0,0,1-3.1,1.249,4.031,4.031,0,0,1-3.1-1.245,4.777,4.777,0,0,1-1.158-3.387Zm2.4.17a3.357,3.357,0,0,0,.481,1.958,1.73,1.73,0,0,0,2.739.008,3.674,3.674,0,0,0,.49-2.141,3.324,3.324,0,0,0-.49-1.945,1.592,1.592,0,0,0-1.378-.69,1.566,1.566,0,0,0-1.361.686A3.735,3.735,0,0,0,17.365,14.6Zm12.451,1.922a.773.773,0,0,0-.436-.693,4.95,4.95,0,0,0-1.4-.452q-3.2-.672-3.2-2.723a2.468,2.468,0,0,1,.992-2,4,4,0,0,1,2.594-.8,4.307,4.307,0,0,1,2.735.805,2.538,2.538,0,0,1,1.025,2.092h-2.4a1.161,1.161,0,0,0-.332-.851,1.405,1.405,0,0,0-1.038-.336,1.436,1.436,0,0,0-.938.274.865.865,0,0,0-.332.7.739.739,0,0,0,.378.643,3.885,3.885,0,0,0,1.274.423,10.407,10.407,0,0,1,1.511.4,2.482,2.482,0,0,1,1.9,2.416,2.343,2.343,0,0,1-1.054,1.988,4.548,4.548,0,0,1-2.723.76,4.75,4.75,0,0,1-2-.4,3.363,3.363,0,0,1-1.374-1.1,2.565,2.565,0,0,1-.5-1.515H26.77a1.252,1.252,0,0,0,.473.979,1.877,1.877,0,0,0,1.179.34,1.737,1.737,0,0,0,1.042-.261A.814.814,0,0,0,29.816,16.518Z" transform="translate(8011.204 -3317.857)" fill="#12263f"/>
    <path id="Trazado_232400" data-name="Trazado 232400" d="M0,0H126.689V11.86H0Z" transform="translate(7653.224 -3421.298)" fill="#373f51"/>
    <path id="Trazado_232401" data-name="Trazado 232401" d="M10.005,0,20.01,27.9H0Z" transform="translate(7627.35 -3406.211) rotate(-90)" fill="#373f51"/>
    <path id="Trazado_232402" data-name="Trazado 232402" d="M10.005,0,20.01,27.9H0Z" transform="translate(7807.816 -3426.221) rotate(90)" fill="#373f51"/>
    <path id="Trazado_232403" data-name="Trazado 232403" d="M0,0H48.689V11.86H0Z" transform="translate(7452.869 -3339.217) rotate(90)" fill="#373f51"/>
    <path id="Trazado_232404" data-name="Trazado 232404" d="M10.005,0,20.01,27.9H0Z" transform="translate(7436.783 -3365.091)" fill="#373f51"/>
    <path id="Trazado_232416" data-name="Trazado 232416" d="M0,0H71.339V11.86H0Z" transform="translate(8092.293 -3339.217) rotate(90)" fill="#373f51"/>
    <path id="Trazado_232417" data-name="Trazado 232417" d="M10.005,0,20.01,27.9H0Z" transform="translate(8076.207 -3365.091)" fill="#373f51"/>
    <path id="Trazado_232411" data-name="Trazado 232411" d="M0,0H71.339V11.86H0Z" transform="translate(7910.115 -3293.751) rotate(-90)" fill="#373f51"/>
    <path id="Trazado_232412" data-name="Trazado 232412" d="M10.005,0,20.01,27.9H0Z" transform="translate(7926.202 -3267.877) rotate(180)" fill="#373f51"/>
    <path id="Trazado_232405" data-name="Trazado 232405" d="M0,0H197.339V11.86H0Z" transform="matrix(0.819, -0.574, 0.574, 0.819, 7641.615, -3254.676)" fill="#373f51"/>
    <path id="Trazado_232406" data-name="Trazado 232406" d="M10.005,0,20.01,27.9H0Z" transform="matrix(-0.574, -0.819, 0.819, -0.574, 7629.647, -3226.658)" fill="#373f51"/>
    <g id="Grupo_42274" data-name="Grupo 42274" transform="translate(7358 -3283.057)">
      <g id="Grupo_18423" data-name="Grupo 18423" transform="translate(0 0)">
        <g id="Grupo_18421" data-name="Grupo 18421">
          <g id="Grupo_18420" data-name="Grupo 18420">
            <g id="Grupo_18419" data-name="Grupo 18419">
              <path id="Trazado_40936" data-name="Trazado 40936" d="M298.874,2197.844a52.125,52.125,0,1,1-52.125-52.124A52.124,52.124,0,0,1,298.874,2197.844Z" transform="translate(-194.623 -2145.721)" fill="#fff"/>
            </g>
          </g>
        </g>
        <path id="Trazado_40937" data-name="Trazado 40937" d="M298.4,2197.326a52.124,52.124,0,1,0-52.125,52.126A51.917,51.917,0,0,0,298.4,2197.326Z" transform="translate(-194.145 -2145.202)" fill="url(#radial-gradient)"/>
        <path id="Trazado_40938" data-name="Trazado 40938" d="M281.847,2193.134a39.787,39.787,0,1,0-39.787,39.788A39.641,39.641,0,0,0,281.847,2193.134Z" transform="translate(-189.776 -2140.837)" fill="none" stroke="#12263f" stroke-miterlimit="10" stroke-width="4"/>
        <g id="Grupo_18422" data-name="Grupo 18422" transform="translate(9.235 29.265)">
          <path id="Trazado_40939" data-name="Trazado 40939" d="M290.291,2164.488a52.131,52.131,0,0,1-89.746,51.908,51.966,51.966,0,0,0,89.746-51.908Z" transform="translate(-200.545 -2164.488)" fill="#eceef0"/>
        </g>
      </g>
    </g>
    <g id="Grupo_180604" data-name="Grupo 180604" transform="translate(7384.607 -3252.274)">
      <g id="Grupo_180384" data-name="Grupo 180384" transform="translate(0)" clip-path="url(#clip-path)">
        <path id="Trazado_231903" data-name="Trazado 231903" d="M25.963,42.92q-12.331,0-24.662.006A1.221,1.221,0,0,1,0,41.616Q.027,29.7.01,17.782q0-7.316,0-14.631A3.169,3.169,0,0,1,2.841.053C3.674-.015,4.515,0,5.352,0Q18.7,0,32.039,0,40.321,0,48.6,0a3.224,3.224,0,0,1,3.313,3.274c.01,4.652,0,9.3,0,13.956q0,6.9,0,13.8,0,5.368,0,10.736a1.117,1.117,0,0,1-1.2,1.146q-3.482.006-6.963,0H25.963ZM49.64,15.833H2.291V40.654H49.64Zm.021-2.3v-.4q0-4.876,0-9.753a.993.993,0,0,0-1.126-1.126c-.91,0-1.82,0-2.73,0q-10.581,0-21.161,0-10.657,0-21.315,0A.979.979,0,0,0,2.267,3.327q0,4.524,0,9.047c0,.384,0,.768,0,1.162Z" transform="translate(0 0)" fill="#1a1818"/>
        <path id="Trazado_231904" data-name="Trazado 231904" d="M84.685,282.882H37.336V258.061H84.685ZM40.72,269.315H65.514V261.43H40.72Zm24.8,2.3H40.715v7.856H65.521Zm3.419,7.865H81.3V261.434H68.94Z" transform="translate(-35.045 -242.228)" fill="url(#linear-gradient)"/>
        <path id="Trazado_231905" data-name="Trazado 231905" d="M84.326,48.09H36.932c0-.394,0-.778,0-1.162q0-4.524,0-9.048A.979.979,0,0,1,38,36.815q10.657,0,21.315,0,10.581,0,21.161,0c.91,0,1.82,0,2.73,0a.993.993,0,0,1,1.126,1.126q0,4.876,0,9.753v.4M53.882,45.823H80.923V39.1H53.882Zm-12.463-1.1a2.262,2.262,0,1,0,.021-4.524,2.262,2.262,0,0,0-.021,4.524m9.042-2.268a2.25,2.25,0,1,0-2.18,2.268,2.253,2.253,0,0,0,2.18-2.268" transform="translate(-34.666 -34.553)" fill="url(#linear-gradient-6)"/>
        <path id="Trazado_231906" data-name="Trazado 231906" d="M92.5,312.967h24.793v7.886H92.5Zm22.538,2.278H94.758v3.344h20.276Z" transform="translate(-86.821 -293.765)" fill="#1a1818"/>
        <path id="Trazado_231907" data-name="Trazado 231907" d="M117.219,486.911H92.414v-7.856h24.805Zm-22.551-2.252h20.287v-3.34H94.668Z" transform="translate(-86.744 -449.662)" fill="#1a1818"/>
        <path id="Trazado_231908" data-name="Trazado 231908" d="M552.431,313.04H564.8v18.051H552.431Zm2.265,15.793h7.834V315.3H554.7Z" transform="translate(-518.536 -293.833)" fill="#1a1818"/>
        <path id="Trazado_231909" data-name="Trazado 231909" d="M313.2,74.048h27.041v6.727H313.2Zm24.789,2.271H315.44V78.53h22.547Z" transform="translate(-293.982 -69.505)" fill="#1a1818"/>
        <path id="Trazado_231910" data-name="Trazado 231910" d="M75.693,96.573a2.262,2.262,0,1,1,2.277-2.264,2.287,2.287,0,0,1-2.277,2.264" transform="translate(-68.939 -86.401)" fill="#1a1818"/>
        <path id="Trazado_231911" data-name="Trazado 231911" d="M188.612,94.307a2.25,2.25,0,1,1-2.288-2.256,2.252,2.252,0,0,1,2.288,2.256" transform="translate(-172.816 -86.403)" fill="#1a1818"/>
        <rect id="Rectángulo_58268" data-name="Rectángulo 58268" width="20.276" height="3.344" transform="translate(7.937 21.481)" fill="#f4a338"/>
        <rect id="Rectángulo_58269" data-name="Rectángulo 58269" width="20.287" height="3.34" transform="translate(7.924 31.656)" fill="#707070"/>
        <rect id="Rectángulo_58270" data-name="Rectángulo 58270" width="7.834" height="13.53" transform="translate(36.159 21.47)" fill="#5573c6"/>
        <rect id="Rectángulo_58271" data-name="Rectángulo 58271" width="22.547" height="2.211" transform="translate(21.458 6.814)" fill="#373f51"/>
      </g>
    </g>
    <g id="Grupo_42274-2" data-name="Grupo 42274" transform="translate(7358.621 -3469.342)">
      <g id="Grupo_18423-2" data-name="Grupo 18423" transform="translate(0 0)">
        <g id="Grupo_18421-2" data-name="Grupo 18421">
          <g id="Grupo_18420-2" data-name="Grupo 18420">
            <g id="Grupo_18419-2" data-name="Grupo 18419">
              <path id="Trazado_40936-2" data-name="Trazado 40936" d="M298.874,2197.844a52.125,52.125,0,1,1-52.125-52.124A52.124,52.124,0,0,1,298.874,2197.844Z" transform="translate(-194.623 -2145.721)" fill="#fff"/>
            </g>
          </g>
        </g>
        <path id="Trazado_40937-2" data-name="Trazado 40937" d="M298.4,2197.326a52.124,52.124,0,1,0-52.125,52.126A51.917,51.917,0,0,0,298.4,2197.326Z" transform="translate(-194.145 -2145.202)" fill="url(#radial-gradient)"/>
        <path id="Trazado_40938-2" data-name="Trazado 40938" d="M281.847,2193.134a39.787,39.787,0,1,0-39.787,39.788A39.641,39.641,0,0,0,281.847,2193.134Z" transform="translate(-189.776 -2140.837)" fill="none" stroke="#12263f" stroke-miterlimit="10" stroke-width="4"/>
        <g id="Grupo_18422-2" data-name="Grupo 18422" transform="translate(9.235 29.265)">
          <path id="Trazado_40939-2" data-name="Trazado 40939" d="M290.291,2164.488a52.131,52.131,0,0,1-89.746,51.908,51.966,51.966,0,0,0,89.746-51.908Z" transform="translate(-200.545 -2164.488)" fill="#eceef0"/>
        </g>
      </g>
    </g>
    <g id="Grupo_180606" data-name="Grupo 180606" transform="translate(7389.314 -3440.697)">
      <g id="Grupo_180386" data-name="Grupo 180386" clip-path="url(#clip-path-2)">
        <path id="Trazado_231912" data-name="Trazado 231912" d="M46.966,16.786c-.049.174-.1.347-.146.521a3.321,3.321,0,0,1-3.394,2.463c-1.422.012-2.844.015-4.266-.005a1.432,1.432,0,0,0-.959.326c-1.737,1.35-3.487,2.684-5.229,4.028a1.274,1.274,0,0,1-1.527.178,1.259,1.259,0,0,1-.576-1.463c.207-.859.424-1.716.634-2.575.035-.143.057-.288.1-.487-1.164,0-2.279.048-3.388-.017a1.3,1.3,0,0,0-1.478.881,9.536,9.536,0,0,1-3.051,3.485.707.707,0,0,0-.315.647c.007,1.31.02,1.246,1.238,1.656a14.363,14.363,0,0,0,4.969.562,14.141,14.141,0,0,1,2.329.085,1.888,1.888,0,0,1,1.565,1.79.547.547,0,0,0,.364.54,6.5,6.5,0,0,1,3.723,4.857,13.709,13.709,0,0,1,.107,2.012q.073,3.966.123,7.933a2.564,2.564,0,0,1-2.738,2.757H2.708A2.547,2.547,0,0,1,0,44.226c.035-2.981.087-5.961.134-8.942a6.378,6.378,0,0,1,3.351-5.628.8.8,0,0,0,.474-.764,2.042,2.042,0,0,1,2.124-1.909c1.315-.011,2.631.029,3.944-.016a13.84,13.84,0,0,0,2.114-.286c.567-.109,1.12-.294,1.678-.449a.767.767,0,0,0,.6-.763,1.7,1.7,0,0,0-.726-1.7,8.87,8.87,0,0,1-3.255-4.543,18.2,18.2,0,0,1-.357-2c.051.043.031.011.007.008a2.011,2.011,0,0,1-1.892-1.953c-.09-.649-.223-1.292-.326-1.94a2.29,2.29,0,0,1,.484-1.758,1.281,1.281,0,0,0,.243-.686c.02-1.758.057-3.517,0-5.274A5.346,5.346,0,0,1,13.087.065.385.385,0,0,0,13.206,0H24.673a1.583,1.583,0,0,0,.241.1,5.2,5.2,0,0,1,3.7,2.865.7.7,0,0,0,.758.451q7.053-.021,14.107-.008a3.33,3.33,0,0,1,3.36,2.5c.037.142.086.282.13.422ZM18.758,28.372v-.008H6.376c-.9,0-1.1.249-1.034,1.132.187,2.421.353,4.843.525,7.265.132,1.858.255,3.718.4,5.575.054.707.252.867.955.867l23.021,0c.661,0,.868-.183.92-.857.1-1.355.195-2.711.291-4.067q.313-4.387.63-8.774c.066-.9-.129-1.129-1.034-1.129H18.758M11.571,13.345c0,1.3.017,2.609-.005,3.92a5.26,5.26,0,0,0,.761,2.834,10.105,10.105,0,0,0,4.667,4.114,3.981,3.981,0,0,0,2.535.377A9.348,9.348,0,0,0,24.49,21.4a5.756,5.756,0,0,0,1.651-3.5c.074-1.448.047-2.9.048-4.351a.389.389,0,0,0-.221-.283,1.084,1.084,0,0,1-.777-1.2c.013-1.528.005-3.057,0-4.585a1.331,1.331,0,0,0-1.481-1.506c-.443,0-.888.02-1.33-.005a2.18,2.18,0,0,0-1.521.5,3.017,3.017,0,0,1-3.709.141,3.265,3.265,0,0,0-2.345-.655c-.228.018-.458,0-.688,0-1.059,0-1.546.483-1.547,1.529q0,2.178,0,4.356c0,.951-.116,1.128-1,1.494m20.78,9.338.091.059c.109-.077.221-.15.327-.232,1.673-1.281,3.339-2.571,5.026-3.833a1.606,1.606,0,0,1,.874-.3c1.573-.032,3.149-.065,4.721-.008a2,2,0,0,0,2.154-2.156c-.039-3.07-.01-6.141-.013-9.212a1.948,1.948,0,0,0-2.194-2.2q-6.83-.008-13.66-.01h-.5c0,2.164,0,4.256.007,6.348a.6.6,0,0,0,.154.353,2.186,2.186,0,0,1,.572,1.817q-.174,1.2-.417,2.384a1.76,1.76,0,0,1-1.268,1.429,5.993,5.993,0,0,1-.606.118v1.126h.513c1.406,0,2.812-.006,4.217,0,.673,0,.963.37.822,1-.03.134-.067.266-.1.4l-.716,2.918m1.721,22.882c.41,0,.791.023,1.169-.005a1.173,1.173,0,0,0,1.126-1.071,4.081,4.081,0,0,0,.012-.64c-.051-2.826-.127-5.652-.148-8.478a5.021,5.021,0,0,0-2.491-4.411A2.941,2.941,0,0,0,33.4,30.8l-.888,12.375c1.275.574,1.45.836,1.563,2.39M4.044,30.96a4.764,4.764,0,0,0-2.368,3.269,21.9,21.9,0,0,0-.152,2.922q-.083,3.553-.133,7.106a1.177,1.177,0,0,0,1.049,1.287,11.162,11.162,0,0,0,1.309.009A1.978,1.978,0,0,1,4.934,43.3L4.044,30.96M18.9,45.583H31.78c.6,0,.872-.156.868-.5s-.272-.492-.88-.492H6a2.781,2.781,0,0,0-.366.006c-.289.039-.5.184-.49.5a.476.476,0,0,0,.5.485c.121.01.244,0,.367,0H18.9M21.8,25.34a5.712,5.712,0,0,1-5.859-.036l-.5,1.6h6.873L21.8,25.34m5.827-9.6c.411.073.46-.208.51-.458.128-.639.258-1.279.35-1.924a1.264,1.264,0,0,0-.085-.7c-.053-.109-.326-.154-.5-.146a.386.386,0,0,0-.267.269c-.02.986-.012,1.972-.012,2.959m-17.645.059c.084-.092.122-.114.122-.136.011-.956.027-1.912.017-2.868,0-.094-.14-.235-.244-.27-.394-.132-.642.09-.581.6.093.765.241,1.524.393,2.28.028.142.185.257.292.4" transform="translate(0)" fill="#1a1818"/>
        <path id="Trazado_231913" data-name="Trazado 231913" d="M71.434,308.677h12.29c.905,0,1.1.231,1.034,1.13q-.324,4.386-.63,8.774c-.1,1.356-.187,2.712-.291,4.067-.052.674-.259.857-.921.857l-23.021,0c-.7,0-.9-.16-.955-.867-.143-1.858-.265-3.717-.4-5.576-.173-2.422-.338-4.844-.525-7.265-.068-.883.135-1.132,1.033-1.132H71.434v.008m.146,10.539a2.578,2.578,0,1,0-2.591-2.57,2.552,2.552,0,0,0,2.591,2.57" transform="translate(-52.677 -280.305)" fill="url(#linear-gradient)"/>
        <path id="Trazado_231915" data-name="Trazado 231915" d="M305.236,70l.716-2.918c.033-.133.07-.265.1-.4.14-.629-.149-.995-.822-1-1.406-.009-2.811,0-4.217,0H300.5V64.55a6,6,0,0,0,.606-.118A1.76,1.76,0,0,0,302.373,63c.161-.79.3-1.586.417-2.384a2.186,2.186,0,0,0-.572-1.817.6.6,0,0,1-.154-.353c-.009-2.092-.007-4.184-.007-6.348h.5q6.83,0,13.66.01a1.948,1.948,0,0,1,2.194,2.2c0,3.071-.026,6.142.013,9.212a2,2,0,0,1-2.155,2.156c-1.572-.056-3.147-.024-4.721.008a1.607,1.607,0,0,0-.874.3c-1.687,1.262-3.353,2.552-5.026,3.833-.106.081-.218.155-.327.232L305.236,70m2.531-8.331c.1.116.2.36.329.373a.686.686,0,0,0,.564-.217c.317-.536.567-1.112.842-1.673q1.035-2.113,2.068-4.228c.192-.4.063-.707-.306-.77-.336-.056-.447.191-.562.428q-1.381,2.834-2.76,5.668c-.053.109-.094.224-.174.418m6.435-2.316c-.494.322-.926.608-1.362.886a.546.546,0,0,0,.583.923c.652-.423,1.315-.831,1.959-1.268.495-.337.487-.764-.01-1.1-.635-.422-1.288-.817-1.921-1.242a.487.487,0,0,0-.77.175.473.473,0,0,0,.164.738c.439.271.866.562,1.358.884m-8.926,0c.5-.329.96-.623,1.411-.929a.454.454,0,0,0,.1-.716c-.174-.236-.4-.385-.7-.186-.676.442-1.363.87-2.027,1.329-.445.307-.426.725.03,1.031.633.425,1.274.838,1.916,1.249a.508.508,0,0,0,.81-.176.474.474,0,0,0-.2-.73c-.435-.271-.86-.56-1.336-.872" transform="translate(-272.885 -47.312)" fill="#5573c6"/>
        <path id="Trazado_231916" data-name="Trazado 231916" d="M355.324,349.945c-.113-1.554-.287-1.815-1.563-2.39l.888-12.375a2.95,2.95,0,0,1,.342.159,5.021,5.021,0,0,1,2.491,4.411c.021,2.826.1,5.652.148,8.478a4.093,4.093,0,0,1-.012.64,1.173,1.173,0,0,1-1.126,1.071c-.378.028-.759.005-1.169.005" transform="translate(-321.253 -304.379)" fill="#4adbd1"/>
        <path id="Trazado_231917" data-name="Trazado 231917" d="M17.8,336.908l.89,12.339A1.978,1.978,0,0,0,17.5,351.5a11.178,11.178,0,0,1-1.309-.009,1.177,1.177,0,0,1-1.049-1.288q.053-3.553.133-7.106a21.894,21.894,0,0,1,.152-2.922,4.764,4.764,0,0,1,2.368-3.269" transform="translate(-13.751 -305.948)" fill="#4adbd1"/>
        <path id="Trazado_231918" data-name="Trazado 231918" d="M69.7,486.19H56.815c-.122,0-.245.007-.367,0a.476.476,0,0,1-.5-.485c-.007-.315.2-.461.49-.5a2.781,2.781,0,0,1,.366-.006h25.77c.609,0,.876.15.88.492s-.265.5-.868.5H69.7" transform="translate(-50.804 -440.607)" fill="url(#linear-gradient)"/>
        <path id="Trazado_231920" data-name="Trazado 231920" d="M300.632,139.328c0-.987-.008-1.974.012-2.959a.386.386,0,0,1,.267-.269c.17-.008.442.037.5.146a1.265,1.265,0,0,1,.085.7c-.092.645-.222,1.285-.35,1.924-.05.25-.1.531-.51.458" transform="translate(-273.005 -123.593)" fill="#fff"/>
        <path id="Trazado_231921" data-name="Trazado 231921" d="M101.768,139.156c-.108-.141-.264-.257-.293-.4-.152-.756-.3-1.515-.393-2.28-.061-.505.186-.728.581-.6.1.035.243.176.244.27.01.956-.006,1.912-.017,2.868,0,.022-.038.044-.122.136" transform="translate(-91.785 -123.361)" fill="#fff"/>
        <path id="Trazado_231922" data-name="Trazado 231922" d="M180.117,372.485a2.578,2.578,0,1,1,2.562-2.6,2.545,2.545,0,0,1-2.562,2.6M180.1,371.1a1.179,1.179,0,0,0,1.2-1.172,1.2,1.2,0,1,0-2.4,0,1.167,1.167,0,0,0,1.2,1.173" transform="translate(-161.213 -333.573)" fill="#1a1818"/>
        <path id="Trazado_231923" data-name="Trazado 231923" d="M379.583,91.726c.081-.194.121-.309.174-.418q1.379-2.835,2.76-5.668c.115-.237.226-.484.562-.428.369.062.5.374.306.77q-1.03,2.116-2.068,4.228c-.275.561-.525,1.137-.842,1.673a.686.686,0,0,1-.564.217c-.128-.013-.233-.256-.329-.373" transform="translate(-344.702 -77.374)" fill="#1a1818"/>
        <path id="Trazado_231924" data-name="Trazado 231924" d="M433.474,112.029c-.493-.322-.919-.613-1.358-.884a.473.473,0,0,1-.164-.738.487.487,0,0,1,.771-.175c.633.425,1.286.82,1.921,1.242.5.331.505.759.01,1.1-.643.437-1.306.844-1.958,1.268a.546.546,0,0,1-.583-.923c.437-.278.868-.564,1.362-.886" transform="translate(-392.158 -99.993)" fill="#1a1818"/>
        <path id="Trazado_231925" data-name="Trazado 231925" d="M337.2,111.965c.476.312.9.6,1.336.872a.474.474,0,0,1,.2.73.508.508,0,0,1-.81.176c-.642-.411-1.283-.824-1.916-1.249-.456-.306-.475-.724-.03-1.031.665-.459,1.351-.887,2.027-1.329.3-.2.53-.05.7.186a.454.454,0,0,1-.1.716c-.451.306-.91.6-1.411.929" transform="translate(-304.811 -99.929)" fill="#1a1818"/>
        <path id="Trazado_231926" data-name="Trazado 231926" d="M193.726,384.687a1.167,1.167,0,0,1-1.2-1.173,1.2,1.2,0,1,1,2.4,0,1.179,1.179,0,0,1-1.2,1.172" transform="translate(-174.838 -347.156)" fill="#fff"/>
      </g>
    </g>
    <g id="Grupo_42274-3" data-name="Grupo 42274" transform="translate(7811.981 -3464.768)">
      <g id="Grupo_18423-3" data-name="Grupo 18423" transform="translate(0 0)">
        <g id="Grupo_18421-3" data-name="Grupo 18421">
          <g id="Grupo_18420-3" data-name="Grupo 18420">
            <g id="Grupo_18419-3" data-name="Grupo 18419">
              <path id="Trazado_40936-3" data-name="Trazado 40936" d="M298.874,2197.844a52.125,52.125,0,1,1-52.125-52.124A52.124,52.124,0,0,1,298.874,2197.844Z" transform="translate(-194.623 -2145.721)" fill="#fff"/>
            </g>
          </g>
        </g>
        <path id="Trazado_40937-3" data-name="Trazado 40937" d="M298.4,2197.326a52.124,52.124,0,1,0-52.125,52.126A51.917,51.917,0,0,0,298.4,2197.326Z" transform="translate(-194.145 -2145.202)" fill="url(#radial-gradient)"/>
        <path id="Trazado_40938-3" data-name="Trazado 40938" d="M281.847,2193.134a39.787,39.787,0,1,0-39.787,39.788A39.641,39.641,0,0,0,281.847,2193.134Z" transform="translate(-189.776 -2140.837)" fill="none" stroke="#12263f" stroke-miterlimit="10" stroke-width="4"/>
        <g id="Grupo_18422-3" data-name="Grupo 18422" transform="translate(9.235 29.265)">
          <path id="Trazado_40939-3" data-name="Trazado 40939" d="M290.291,2164.488a52.131,52.131,0,0,1-89.746,51.908,51.966,51.966,0,0,0,89.746-51.908Z" transform="translate(-200.545 -2164.488)" fill="#eceef0"/>
        </g>
      </g>
    </g>
    <g id="Grupo_180608" data-name="Grupo 180608" transform="translate(7838.977 -3435.659)">
      <g id="Grupo_180380" data-name="Grupo 180380" transform="translate(0)" clip-path="url(#clip-path-3)">
        <path id="Trazado_231852" data-name="Trazado 231852" d="M25.331,51.315c-1.158-.534-2.313-1.075-3.475-1.6-1.344-.607-2.689-1.214-4.046-1.793a1.052,1.052,0,0,1-.715-1.109q.029-3.207,0-6.414a1.057,1.057,0,0,1,.734-1.1c2.183-.953,4.351-1.937,6.532-2.894a.6.6,0,0,0,.449-.657c-.029-1.349-.011-2.7-.011-4.085-.214-.01-.387-.025-.559-.025-4.1,0-8.194-.007-12.29.013a1.237,1.237,0,0,0-.776.32q-1.769,1.707-3.481,3.471a1.343,1.343,0,0,1-1.18.474c-.158-.018-.322.01-.481-.005a1.31,1.31,0,0,0-1.465.684,2.379,2.379,0,0,1-2.884.883,2.577,2.577,0,0,1,.327-4.932A2.5,2.5,0,0,1,4.771,33.8c.187.354.4.39.745.423a1.812,1.812,0,0,0,1.623-.659c1.033-1.106,2.113-2.17,3.213-3.209a1.709,1.709,0,0,1,.977-.4c.753-.059,1.513-.019,2.285-.019l-.761-1.714c-2.507,0-5.036-.007-7.564.016-.163,0-.379.205-.477.37A2.574,2.574,0,0,1,1.945,29.86,2.567,2.567,0,0,1,1.9,24.89,2.484,2.484,0,0,1,4.769,26.1a.7.7,0,0,0,.742.422c2.457-.012,4.914-.007,7.348-.007a12.865,12.865,0,0,0,.545-1.3.662.662,0,0,0-.2-.514c-1.9-1.924-3.812-3.847-5.746-5.742a1.772,1.772,0,0,1-.624-1.5c.049-.669.011-1.344.011-2.069H6.219c-1.746,0-3.491,0-5.237,0-.675,0-.979-.3-.979-.978Q0,7.706,0,1C0,.3.3,0,1.019,0,3.762,0,6.505-.009,9.248.019a1.414,1.414,0,0,1,.887.366Q12.6,2.79,15.009,5.259a1.413,1.413,0,0,1,.364.888c.028,2.743.018,5.487.015,8.231,0,.728-.3,1.013-1.051,1.014-1.9,0-3.808,0-5.784,0,0,.714-.014,1.4.012,2.088,0,.13.15.271.257.379,1.873,1.88,3.755,3.753,5.623,5.638a.462.462,0,0,0,.68.1,8.011,8.011,0,0,1,1.079-.463,4.778,4.778,0,0,1,3.611-4.225,11.964,11.964,0,0,1,1.9.058c.167,0,.411-.013.491-.118a4.539,4.539,0,0,1,2.57-1.662V15.393h-.589c-1.746,0-3.491,0-5.237,0-.678,0-.986-.3-.986-.971q0-6.734,0-13.469A.837.837,0,0,1,18.915,0c2.779,0,5.557-.011,8.336.012a1.264,1.264,0,0,1,.8.325Q30.551,2.789,33,5.293a1.34,1.34,0,0,1,.333.847c.025,2.743.016,5.487.014,8.231,0,.733-.3,1.02-1.045,1.021-1.9,0-3.809,0-5.754,0v1.791a4.533,4.533,0,0,1,2.59,1.713.489.489,0,0,0,.41.089,4.481,4.481,0,0,1,5.531,4.128c.416.183.826.386,1.254.539a.514.514,0,0,0,.442-.092q2.9-2.877,5.782-5.781a.671.671,0,0,0,.192-.406c.02-.638.009-1.276.009-1.981H41.4q-2.218,0-4.435,0c-.772,0-1.052-.285-1.053-1.067q0-6.628,0-13.255C35.916.287,36.194,0,36.967,0c2.725,0,5.45-.01,8.176.013a1.341,1.341,0,0,1,.852.319c1.684,1.641,3.338,3.312,5,4.976.111.111.207.236.31.355V14.86a1.239,1.239,0,0,1-1.181.542c-1.691-.025-3.383-.009-5.074-.009h-.588c0,.735-.035,1.4.01,2.049a1.779,1.779,0,0,1-.608,1.5c-1.934,1.893-3.839,3.816-5.744,5.738-.127.128-.273.374-.231.51a12.96,12.96,0,0,0,.559,1.321h.265c2.421,0,4.843.007,7.264-.015a.726.726,0,0,0,.5-.339,2.573,2.573,0,0,1,3.054-1.24A2.787,2.787,0,0,1,51.3,26.834V27.9a.594.594,0,0,0-.085.134,2.459,2.459,0,0,1-2.161,1.874,2.519,2.519,0,0,1-2.639-1.429.667.667,0,0,0-.5-.249c-1.192-.021-2.385-.011-3.578-.011h-3.89l-.764,1.714c.774,0,1.521.018,2.267-.007a1.3,1.3,0,0,1,1.036.435c1.047,1.068,2.141,2.091,3.155,3.189a1.846,1.846,0,0,0,1.671.674.732.732,0,0,0,.7-.4,2.525,2.525,0,0,1,4.213-.361,6.838,6.838,0,0,1,.573,1.071V35.6c-.07.161-.138.323-.209.485a2.522,2.522,0,0,1-4.392.481,1.213,1.213,0,0,0-1.318-.651c-.21.028-.429-.015-.64.008a1.3,1.3,0,0,1-1.128-.471c-.918-.946-1.911-1.824-2.774-2.816A2.7,2.7,0,0,0,38.4,31.619c-1.377.095-2.766.023-4.2.023,0,1.421,0,2.788,0,4.155a.856.856,0,0,1-.982.976,4.233,4.233,0,0,1-4.024-3.294,15.657,15.657,0,0,1-.173-1.8H26.505c0,1.366.015,2.7-.009,4.032a.643.643,0,0,0,.453.708c2.2.959,4.383,1.948,6.579,2.913a1,1,0,0,1,.679,1.023q-.021,3.26,0,6.519a1,1,0,0,1-.668,1.031c-1.044.449-2.081.915-3.117,1.383-1.485.672-2.966,1.352-4.449,2.029Zm7.163-16.45c0-1.367-.005-2.682,0-4a.834.834,0,0,1,.918-.931c.249-.007.5.007.748-.008a2.661,2.661,0,0,0,2.6-2.593,2.6,2.6,0,0,0-2.637-2.531c-.67-.031-.956-.406-.885-1.108a3.02,3.02,0,0,0,0-1.045A2.606,2.606,0,0,0,29.4,20.946a.867.867,0,0,1-1.357-.432,2.541,2.541,0,0,0-4.768-.033.867.867,0,0,1-1.386.454,2.158,2.158,0,0,0-2.594.05,2.569,2.569,0,0,0-1.258,2.676c.163.733-.192,1.122-.93,1.144a2.6,2.6,0,0,0-2.564,2.382,2.5,2.5,0,0,0,2.085,2.636,20.988,20.988,0,0,0,2.766.111c.651.014,1.3,0,1.92,0a1.783,1.783,0,0,0-.66-2.079,4.093,4.093,0,0,1-.679-.678.959.959,0,0,1-.283-.494c-.028-.9-.013-1.8-.013-2.691h1.677a1,1,0,0,1,.016.2,3.157,3.157,0,0,0,1.34,3.319,1.377,1.377,0,0,1,.358.885,13.159,13.159,0,0,1,.015,1.508h1.727V22.282h1.716V29.9H28.3a3.021,3.021,0,0,1,1.3-3.457,1.2,1.2,0,0,0,.314-.774c.047-.559.014-1.124.014-1.675h1.706a13.481,13.481,0,0,0,.011,1.591,2.178,2.178,0,0,1-.934,2.217,1.845,1.845,0,0,0-.782,1.985c.006.035.017.069.026.1.7.252.822.425.824,1.168,0,.481-.01.962,0,1.443a2.511,2.511,0,0,0,1.711,2.366M1.746,1.733V13.644H13.654V6.84H9.739c-.954,0-1.186-.236-1.186-1.2,0-1.294,0-2.589,0-3.907ZM19.689,13.658H31.606V6.84h-.558c-1.193,0-2.386,0-3.579,0a.841.841,0,0,1-.957-.945c-.008-.712,0-1.425,0-2.137V1.748h-6.82Zm29.869.005V6.84c-1.39,0-2.741,0-4.093,0-.7,0-.994-.3-1-1.013,0-.748,0-1.5,0-2.244V1.752H37.65v11.91ZM24.738,49.1a.967.967,0,0,0,.056-.2c0-1.478.016-2.956-.012-4.434,0-.157-.217-.378-.385-.454-1.712-.783-3.435-1.543-5.157-2.307-.123-.055-.257-.085-.43-.141,0,1.583-.008,3.113.014,4.643a.586.586,0,0,0,.316.393c.966.45,1.944.873,2.918,1.305l2.68,1.191m7.756-7.571c-1.736.768-3.352,1.545-5.018,2.193a1.324,1.324,0,0,0-.992,1.553c.08,1.251.021,2.511.021,3.745.077.028.1.043.109.038,1.886-.827,3.773-1.653,5.653-2.495a.474.474,0,0,0,.217-.357c.015-1.529.01-3.057.01-4.678M24.8,38.1l-4.625,2.052c.091.083.121.127.162.145,1.7.759,3.4,1.523,5.112,2.263a.764.764,0,0,0,.539-.045c1.6-.7,3.183-1.407,4.772-2.118a4.1,4.1,0,0,0,.39-.236L26.5,38.1V40.16H24.8ZM10.285,3.066V5.1H12.3l-2.02-2.033M30.178,5.123,28.257,3.211V5.123Zm18.014-.01-1.988-2v2ZM3.414,27.39a.892.892,0,0,0-.828-.872.851.851,0,0,0-.043,1.7.892.892,0,0,0,.871-.829m45.35-.872a.851.851,0,1,0,.824.876.891.891,0,0,0-.824-.876M3.414,35.067a.892.892,0,0,0-.848-.852.85.85,0,0,0,0,1.7.892.892,0,0,0,.851-.849m45.345.849a.851.851,0,1,0-.871-.829.892.892,0,0,0,.871.829" transform="translate(0 0)" fill="#1a1818"/>
        <rect id="Rectángulo_58257" data-name="Rectángulo 58257" width="1.621" height="1.659" transform="translate(9.448 39.38)" fill="#1a1818"/>
        <rect id="Rectángulo_58258" data-name="Rectángulo 58258" width="1.634" height="1.644" transform="translate(9.448 42.801)" fill="#1a1818"/>
        <rect id="Rectángulo_58259" data-name="Rectángulo 58259" width="1.658" height="1.631" transform="translate(12.847 42.798)" fill="#1a1818"/>
        <rect id="Rectángulo_58260" data-name="Rectángulo 58260" width="1.621" height="1.659" transform="translate(9.448 46.222)" fill="#1a1818"/>
        <path id="Trazado_231853" data-name="Trazado 231853" d="M152.821,182.622a13.48,13.48,0,0,1-.011-1.591H151.1c0,.551.033,1.117-.014,1.675a1.2,1.2,0,0,1-.314.774,3.021,3.021,0,0,0-1.3,3.457H147.7v-7.617h-1.716v7.624h-1.727a13.136,13.136,0,0,0-.016-1.508,1.377,1.377,0,0,0-.358-.885,3.157,3.157,0,0,1-1.34-3.319.987.987,0,0,0-.016-.2h-1.677c0,.889-.015,1.791.013,2.691a.957.957,0,0,0,.283.494,4.084,4.084,0,0,0,.679.678,1.783,1.783,0,0,1,.66,2.079c-.617,0-1.269.011-1.92,0a20.992,20.992,0,0,1-2.766-.111,2.5,2.5,0,0,1-2.085-2.636,2.6,2.6,0,0,1,2.564-2.382c.739-.023,1.093-.412.93-1.144a2.569,2.569,0,0,1,1.258-2.676,2.158,2.158,0,0,1,2.594-.05.867.867,0,0,0,1.386-.454,2.541,2.541,0,0,1,4.768.033.867.867,0,0,0,1.357.432,2.606,2.606,0,0,1,3.849,1.706,3.026,3.026,0,0,1,0,1.045c-.071.7.215,1.077.885,1.108a2.6,2.6,0,0,1,2.637,2.531,2.661,2.661,0,0,1-2.6,2.593c-.248.015-.5,0-.748.008a.834.834,0,0,0-.918.931c-.008,1.315,0,2.629,0,4a2.511,2.511,0,0,1-1.711-2.366c-.013-.481,0-.962,0-1.443,0-.743-.124-.916-.824-1.168-.009-.034-.02-.068-.026-.1a1.845,1.845,0,0,1,.782-1.985" transform="translate(-121.175 -157.038)" fill="url(#linear-gradient)"/>
        <path id="Trazado_231854" data-name="Trazado 231854" d="M16.3,16.183h6.806c0,1.318,0,2.612,0,3.907,0,.965.233,1.2,1.186,1.2h3.915v6.8H16.3Z" transform="translate(-14.557 -14.45)" fill="url(#linear-gradient-10)"/>
        <path id="Trazado_231855" data-name="Trazado 231855" d="M183.839,28.233V16.323h6.82v2.008c0,.712-.006,1.425,0,2.137a.841.841,0,0,0,.957.946c1.193.007,2.386,0,3.579,0h.558v6.817Z" transform="translate(-164.151 -14.575)" fill="url(#linear-gradient-6)"/>
        <path id="Trazado_231856" data-name="Trazado 231856" d="M363.458,28.277H351.55V16.367h6.816V18.2c0,.748,0,1.5,0,2.244,0,.712.3,1.01,1,1.013,1.352,0,2.7,0,4.093,0Z" transform="translate(-313.9 -14.614)" fill="url(#linear-gradient-12)"/>
        <path id="Trazado_231857" data-name="Trazado 231857" d="M181.548,395.687l-2.679-1.191c-.974-.432-1.952-.855-2.918-1.305a.586.586,0,0,1-.316-.393c-.022-1.53-.014-3.06-.014-4.643.173.056.307.087.43.141,1.721.764,3.444,1.524,5.157,2.307.168.077.382.3.385.454.028,1.477.016,2.956.012,4.434a.971.971,0,0,1-.056.2" transform="translate(-156.81 -346.584)" fill="#dee4f0"/>
        <path id="Trazado_231858" data-name="Trazado 231858" d="M253.245,387.792c0,1.621.005,3.149-.01,4.678a.474.474,0,0,1-.217.357c-1.88.842-3.767,1.667-5.653,2.495-.012.005-.033-.011-.11-.038,0-1.234.059-2.494-.021-3.745a1.324,1.324,0,0,1,.992-1.553c1.666-.649,3.283-1.426,5.018-2.193" transform="translate(-220.751 -346.261)" fill="#dee4f0"/>
        <path id="Trazado_231859" data-name="Trazado 231859" d="M193.039,355.771v2.055h1.7v-2.059l4.655,2.066a4.132,4.132,0,0,1-.39.236c-1.588.711-3.177,1.422-4.772,2.118a.763.763,0,0,1-.539.045c-1.71-.741-3.41-1.5-5.112-2.263-.041-.018-.071-.062-.162-.145l4.625-2.052" transform="translate(-168.236 -317.666)" fill="#dee4f0"/>
        <path id="Trazado_231860" data-name="Trazado 231860" d="M96.03,28.629l2.02,2.033H96.03Z" transform="translate(-85.746 -25.563)" fill="#fff"/>
        <path id="Trazado_231861" data-name="Trazado 231861" d="M265.767,31.9h-1.921V29.988l1.921,1.912" transform="translate(-235.589 -26.776)" fill="#fff"/>
        <path id="Trazado_231862" data-name="Trazado 231862" d="M433.407,31.039h-1.988v-2l1.988,2" transform="translate(-385.216 -25.925)" fill="#fff"/>
        <path id="Trazado_231863" data-name="Trazado 231863" d="M17.71,248.476a.85.85,0,1,1-.828-.872.892.892,0,0,1,.828.872" transform="translate(-14.296 -221.086)" fill="#636363"/>
        <path id="Trazado_231864" data-name="Trazado 231864" d="M448.029,247.6a.851.851,0,1,1-.875.825.893.893,0,0,1,.875-.825" transform="translate(-399.265 -221.085)" fill="#636363"/>
        <path id="Trazado_231865" data-name="Trazado 231865" d="M17.71,320.331a.85.85,0,1,1-.848-.852.892.892,0,0,1,.848.852" transform="translate(-14.296 -285.264)" fill="#636363"/>
        <path id="Trazado_231866" data-name="Trazado 231866" d="M448.023,321.178a.851.851,0,1,1,.829-.872.891.891,0,0,1-.829.872" transform="translate(-399.264 -285.262)" fill="#636363"/>
        <rect id="Rectángulo_58261" data-name="Rectángulo 58261" width="1.634" height="1.644" transform="translate(40.231 39.38)" fill="#1a1818"/>
        <rect id="Rectángulo_58262" data-name="Rectángulo 58262" width="1.659" height="1.636" transform="translate(36.791 42.795)" fill="#1a1818"/>
        <rect id="Rectángulo_58263" data-name="Rectángulo 58263" width="1.631" height="1.659" transform="translate(40.232 42.803)" fill="#1a1818"/>
        <rect id="Rectángulo_58264" data-name="Rectángulo 58264" width="1.64" height="1.644" transform="translate(40.216 46.212)" fill="#1a1818"/>
      </g>
    </g>
    <g id="Grupo_42274-4" data-name="Grupo 42274" transform="translate(7811.981 -3266.768)">
      <g id="Grupo_18423-4" data-name="Grupo 18423" transform="translate(0 0)">
        <g id="Grupo_18421-4" data-name="Grupo 18421">
          <g id="Grupo_18420-4" data-name="Grupo 18420">
            <g id="Grupo_18419-4" data-name="Grupo 18419">
              <path id="Trazado_40936-4" data-name="Trazado 40936" d="M298.874,2197.844a52.125,52.125,0,1,1-52.125-52.124A52.124,52.124,0,0,1,298.874,2197.844Z" transform="translate(-194.623 -2145.721)" fill="#fff"/>
            </g>
          </g>
        </g>
        <path id="Trazado_40937-4" data-name="Trazado 40937" d="M298.4,2197.326a52.124,52.124,0,1,0-52.125,52.126A51.917,51.917,0,0,0,298.4,2197.326Z" transform="translate(-194.145 -2145.202)" fill="url(#radial-gradient)"/>
        <path id="Trazado_40938-4" data-name="Trazado 40938" d="M281.847,2193.134a39.787,39.787,0,1,0-39.787,39.788A39.641,39.641,0,0,0,281.847,2193.134Z" transform="translate(-189.776 -2140.837)" fill="none" stroke="#12263f" stroke-miterlimit="10" stroke-width="4"/>
        <g id="Grupo_18422-4" data-name="Grupo 18422" transform="translate(9.235 29.265)">
          <path id="Trazado_40939-4" data-name="Trazado 40939" d="M290.291,2164.488a52.131,52.131,0,0,1-89.746,51.908,51.966,51.966,0,0,0,89.746-51.908Z" transform="translate(-200.545 -2164.488)" fill="#eceef0"/>
        </g>
      </g>
    </g>
    <g id="Grupo_180612" data-name="Grupo 180612" transform="translate(7848.183 -3234.368)">
      <g id="Grupo_180382" data-name="Grupo 180382" transform="translate(0)" clip-path="url(#clip-path-4)">
        <path id="Trazado_231867" data-name="Trazado 231867" d="M0,34V28.012a2.462,2.462,0,0,1,1.565-1.653c.227-.068.463-.1.695-.153V24.3c-1-.212-1.409-.4-1.767-.893a7.817,7.817,0,0,1-.493-.9V16.515a2.384,2.384,0,0,1,2.255-1.8V12.767c-.22-.04-.42-.061-.611-.113A2.364,2.364,0,0,1,0,10.929V5.018A2.375,2.375,0,0,1,.966,3.626a11.564,11.564,0,0,1,1.315-.535c0-.194,0-.474,0-.754A2.243,2.243,0,0,1,4.626,0Q18.549,0,32.472,0A2.24,2.24,0,0,1,34.8,2.314c0,.292,0,.585,0,.866a1.442,1.442,0,0,0,.167.046,2.215,2.215,0,0,1,2.111,2.352c0,1.646.005,3.292,0,4.938a2.2,2.2,0,0,1-1.65,2.142c-.191.052-.392.072-.6.109V14.7a2.374,2.374,0,0,1,2.272,2.626c-.066,1.562-.011,3.129-.018,4.694a2.205,2.205,0,0,1-1.837,2.191c-.141.026-.281.058-.416.086v1.916a2.378,2.378,0,0,1,2.27,2.639c-.063,1.522-.013,3.048-.017,4.573a2.628,2.628,0,0,1-.045.562A2.344,2.344,0,0,1,34.8,35.819c0,.3.009.607,0,.914a2.189,2.189,0,0,1-1.041,1.9c-.28.173-.73.175-.892.4-.173.246-.069.672-.136,1.01a2,2,0,0,1-1.315,1.4H28.175a2.055,2.055,0,0,1-1.412-2.408H10.374a9.418,9.418,0,0,1-.157,1.149,1.937,1.937,0,0,1-1.311,1.259H5.668a2.041,2.041,0,0,1-1.386-2.2c.007-.1-.146-.27-.254-.3a2.273,2.273,0,0,1-1.745-2.241c-.005-.3,0-.609,0-.916a2.163,2.163,0,0,1-1.661-.73A7.647,7.647,0,0,1,0,34M33.529,12.788H3.561v1.948H18.849a1.9,1.9,0,0,1,.4.011.571.571,0,0,1,.5.629.552.552,0,0,1-.521.567,3.551,3.551,0,0,1-.485.013H2.477c-.877,0-1.256.38-1.257,1.258q0,2.287,0,4.574c0,.862.367,1.228,1.233,1.228q16.091,0,32.182,0c.862,0,1.227-.368,1.228-1.233q0-2.247,0-4.493c0-.982-.356-1.335-1.344-1.335H21.969a3.71,3.71,0,0,1-.445-.011.563.563,0,0,1-.541-.6.573.573,0,0,1,.534-.606,2.521,2.521,0,0,1,.4-.008H33.529ZM3.561,3.222h.491c1.336,0,2.671,0,4.007.006A.592.592,0,0,1,8.7,3.81a.626.626,0,0,1-.645.634c-.094.005-.189,0-.283,0q-2.651,0-5.3,0c-.878,0-1.252.374-1.253,1.254q0,2.267,0,4.533c0,.914.359,1.271,1.272,1.271h32.1c.915,0,1.274-.356,1.275-1.269q0-2.226,0-4.452c0-.989-.347-1.337-1.333-1.337H10.852a2.3,2.3,0,0,1-.4-.009.584.584,0,0,1-.532-.613.558.558,0,0,1,.546-.591c.161-.015.323-.01.485-.01H33.542c0-.4.016-.732,0-1.066a.932.932,0,0,0-.745-.891,1.966,1.966,0,0,0-.479-.051q-13.781,0-27.563,0A.989.989,0,0,0,4.2,1.3a1.573,1.573,0,0,0-.616.678,4.852,4.852,0,0,0-.026,1.243M33.526,35.78H15.462a3.377,3.377,0,0,1-.4-.007.6.6,0,0,1-.555-.633.573.573,0,0,1,.564-.576c.161-.014.324-.01.485-.01H34.579c.91,0,1.282-.371,1.283-1.275q0-2.267,0-4.534c0-.894-.357-1.254-1.25-1.254q-16.071,0-32.142,0c-.891,0-1.249.361-1.25,1.253q0,2.226,0,4.453c0,1.013.345,1.356,1.363,1.356H12.3a3.832,3.832,0,0,1,.445.012.589.589,0,0,1,.531.716c-.057.326-.314.5-.767.5q-4.23,0-8.461,0h-.49a9.454,9.454,0,0,0,.011,1.2.866.866,0,0,0,.749.748,2.672,2.672,0,0,0,.524.029q13.7,0,27.406,0a3.52,3.52,0,0,0,.484-.024.9.9,0,0,0,.788-.757c.037-.383.008-.772.008-1.2m0-11.477H3.56v1.915H33.529ZM28.016,39.03c-.007.111-.014.178-.015.245-.014.8.147.964.955.965h1.654c.842,0,1.115-.366.894-1.209Zm-22.5,0v.358c0,.635.21.85.842.853.672,0,1.345.007,2.017,0,.446-.006.682-.214.7-.6.011-.2,0-.392,0-.6Z" transform="translate(0 0)" fill="#1a1818"/>
        <path id="Trazado_231868" data-name="Trazado 231868" d="M47.323,157.652V159.6H35.715a2.521,2.521,0,0,0-.4.008.573.573,0,0,0-.535.606.563.563,0,0,0,.541.6,3.709,3.709,0,0,0,.445.011H48.312c.989,0,1.344.352,1.344,1.335q0,2.247,0,4.493c0,.865-.366,1.233-1.228,1.233q-16.091,0-32.182,0c-.865,0-1.231-.366-1.233-1.228q0-2.287,0-4.574c0-.878.381-1.258,1.257-1.258H32.543a3.551,3.551,0,0,0,.485-.013.552.552,0,0,0,.521-.567.571.571,0,0,0-.5-.629,1.9,1.9,0,0,0-.4-.011H17.355v-1.948Zm-1.137,6.726a2.124,2.124,0,0,0-2.1-2.156,2.155,2.155,0,0,0-2.155,2.119,2.123,2.123,0,0,0,2.117,2.142,2.1,2.1,0,0,0,2.142-2.1m-5.747-.015a2.125,2.125,0,0,0-2.119-2.142,2.151,2.151,0,0,0-2.138,2.134,2.118,2.118,0,0,0,2.129,2.127,2.1,2.1,0,0,0,2.127-2.119m-16.371-.641c.324,0,.648.011.971,0a.618.618,0,0,0,.623-.614.6.6,0,0,0-.633-.6q-.951-.018-1.9,0a.607.607,0,0,0-.644.587.625.625,0,0,0,.654.625c.31.01.62,0,.931,0m-4.586-1.216v0c-.31,0-.62-.008-.93,0a.583.583,0,0,0-.64.619.59.59,0,0,0,.63.594q.95.017,1.9,0a.605.605,0,1,0,.01-1.21c-.323-.013-.647,0-.97,0m.011,3.723c.31,0,.621.011.93,0a.624.624,0,0,0,.648-.631.607.607,0,0,0-.641-.589c-.633-.014-1.267-.015-1.9,0a.57.57,0,0,0-.618.6.608.608,0,0,0,.651.62c.31.011.62,0,.93,0m9.14,0c.337,0,.675.016,1.011,0a.6.6,0,0,0,.59-.636.565.565,0,0,0-.6-.578q-.97-.026-1.941,0a.594.594,0,0,0-.618.607.615.615,0,0,0,.625.61c.309.015.62,0,.93,0m.021-2.505c.324,0,.647.011.97,0a.592.592,0,0,0,.61-.613.577.577,0,0,0-.619-.6q-.95-.018-1.9,0a.6.6,0,0,0-.637.587.613.613,0,0,0,.646.626c.31.011.62,0,.93,0m-4.593,2.508h.89c.027,0,.054,0,.081,0a.641.641,0,0,0,.628-.617.6.6,0,0,0-.626-.6c-.633-.016-1.268-.015-1.9,0a.611.611,0,0,0-.649.584.635.635,0,0,0,.647.636c.31.014.62,0,.931,0" transform="translate(-13.794 -144.863)" fill="url(#linear-gradient)"/>
        <path id="Trazado_231869" data-name="Trazado 231869" d="M17.357,16.952a4.848,4.848,0,0,1,.026-1.243A1.573,1.573,0,0,1,18,15.031a.99.99,0,0,1,.548-.086q13.781-.005,27.563,0a1.965,1.965,0,0,1,.479.051.932.932,0,0,1,.745.891c.02.334,0,.67,0,1.066H24.744c-.162,0-.324,0-.485.011a.558.558,0,0,0-.546.591.584.584,0,0,0,.532.613,2.309,2.309,0,0,0,.4.009H48.326c.986,0,1.333.348,1.333,1.337q0,2.226,0,4.452c0,.913-.36,1.269-1.275,1.269h-32.1c-.914,0-1.272-.357-1.272-1.271q0-2.267,0-4.533c0-.88.375-1.253,1.253-1.254h5.3c.094,0,.189,0,.283,0a.626.626,0,0,0,.645-.634.592.592,0,0,0-.644-.583c-1.336-.009-2.671,0-4.007-.006h-.491m28.832,4.763a2.131,2.131,0,0,0-2.116-2.146,2.137,2.137,0,0,0-.015,4.274,2.125,2.125,0,0,0,2.13-2.128m-5.747-.021a2.131,2.131,0,0,0-2.137-2.125,2.137,2.137,0,0,0,.028,4.274,2.126,2.126,0,0,0,2.109-2.149m-11.77.64v0c-.3,0-.594-.009-.89,0-.435.017-.7.262-.7.625a.623.623,0,0,0,.664.62c.62.018,1.241.02,1.861,0a.6.6,0,0,0,.631-.641.6.6,0,0,0-.634-.6c-.309-.018-.62,0-.93,0m-4.572,0c-.31,0-.621-.011-.931,0a.651.651,0,0,0-.683.608.637.637,0,0,0,.654.634q.93.03,1.862,0a.631.631,0,0,0,.66-.626.642.642,0,0,0-.672-.616c-.3-.015-.594,0-.89,0m-4.609,1.25c.31,0,.622.016.931,0a.623.623,0,1,0-.023-1.243q-.91-.023-1.821,0a.622.622,0,1,0-.017,1.243c.309.019.62,0,.931,0m9.123-2.5c.324,0,.648.011.971,0a.607.607,0,0,0,.652-.62.579.579,0,0,0-.615-.61c-.633-.022-1.268-.021-1.9,0a.606.606,0,0,0-.64.635.631.631,0,0,0,.684.6c.283.01.566,0,.849,0m-4.529,0h.85c.027,0,.054,0,.081,0a.651.651,0,0,0,.647-.6.6.6,0,0,0-.607-.628c-.647-.024-1.295-.023-1.942,0a.616.616,0,0,0-.629.61.644.644,0,0,0,.669.619c.31.013.62,0,.931,0m-4.609,0c.31,0,.621.01.93,0a.633.633,0,0,0,.668-.616.6.6,0,0,0-.622-.614c-.646-.021-1.295-.023-1.941,0a.575.575,0,0,0-.6.626.6.6,0,0,0,.631.6c.309.016.62,0,.93,0" transform="translate(-13.797 -13.73)" fill="url(#linear-gradient)"/>
        <path id="Trazado_231870" data-name="Trazado 231870" d="M47.326,347.183c0,.428.029.818-.008,1.2a.9.9,0,0,1-.788.757,3.517,3.517,0,0,1-.484.024q-13.7,0-27.406,0a2.671,2.671,0,0,1-.524-.029.866.866,0,0,1-.749-.748,9.454,9.454,0,0,1-.011-1.2h.49q4.23,0,8.461,0c.453,0,.71-.17.767-.5a.589.589,0,0,0-.531-.716,3.828,3.828,0,0,0-.445-.012H16.382c-1.019,0-1.363-.343-1.363-1.356q0-2.227,0-4.453c0-.892.359-1.253,1.25-1.253q16.071,0,32.142,0c.893,0,1.249.36,1.25,1.254q0,2.267,0,4.534c0,.9-.373,1.275-1.283,1.275H29.352c-.162,0-.324,0-.485.01a.573.573,0,0,0-.564.576.6.6,0,0,0,.555.633,3.375,3.375,0,0,0,.4.007H47.326m-6.881-4.765a2.1,2.1,0,0,0-2.122-2.123,2.127,2.127,0,1,0,2.122,2.123m5.747-.012a2.1,2.1,0,0,0-2.135-2.11,2.127,2.127,0,1,0,2.135,2.11m-22.128.654c-.31,0-.621-.007-.931,0a.617.617,0,0,0-.644.59.6.6,0,0,0,.614.617q.971.02,1.943,0a.6.6,0,0,0,.623-.607.613.613,0,0,0-.633-.6c-.323-.01-.647,0-.971,0m-4.545-2.507c-.324,0-.647-.009-.971,0a.6.6,0,0,0-.631.6.569.569,0,0,0,.6.617c.647.016,1.294.015,1.941,0a.6.6,0,0,0,.62-.608.616.616,0,0,0-.63-.606c-.309-.013-.62,0-.93,0m4.558,0c-.31,0-.621-.008-.931,0a.629.629,0,0,0-.657.624.608.608,0,0,0,.641.592q.95.02,1.9,0a.6.6,0,0,0,.635-.595.627.627,0,0,0-.659-.62c-.31-.01-.62,0-.931,0m4.556,1.217v0c.337,0,.675.013,1.011,0a.572.572,0,0,0,.6-.579.581.581,0,0,0-.591-.631q-.99-.024-1.981,0a.6.6,0,0,0-.005,1.206c.322.019.647,0,.97,0m-9.126,2.5h0c.324,0,.647.011.97,0a.6.6,0,1,0-.006-1.205c-.647-.013-1.294-.012-1.941,0a.6.6,0,1,0,.006,1.208c.323.011.647,0,.971,0m9.166,0v0h.89c.027,0,.054,0,.081,0a.591.591,0,0,0,.6-.622.576.576,0,0,0-.59-.587c-.647-.013-1.294-.011-1.941,0a.6.6,0,1,0-.008,1.208c.323.012.647,0,.97,0" transform="translate(-13.8 -311.402)" fill="url(#linear-gradient)"/>
        <rect id="Rectángulo_58266" data-name="Rectángulo 58266" width="29.969" height="1.915" transform="translate(3.56 24.304)" fill="url(#linear-gradient)"/>
        <path id="Trazado_231871" data-name="Trazado 231871" d="M345.189,481.14h3.488c.221.843-.051,1.209-.894,1.209h-1.654c-.808,0-.969-.163-.955-.965,0-.067.008-.133.015-.244" transform="translate(-317.173 -442.11)" fill="url(#linear-gradient)"/>
        <path id="Trazado_231872" data-name="Trazado 231872" d="M67.959,481.116h3.566c0,.211.009.408,0,.6-.023.391-.258.6-.7.6-.672.009-1.345,0-2.017,0-.632,0-.842-.218-.842-.853v-.358" transform="translate(-62.446 -442.088)" fill="url(#linear-gradient)"/>
        <path id="Trazado_231873" data-name="Trazado 231873" d="M351.072,216.139a2.1,2.1,0,0,1-2.142,2.1,2.123,2.123,0,0,1-2.117-2.142,2.155,2.155,0,0,1,2.155-2.119,2.124,2.124,0,0,1,2.1,2.156m-2.113-.907a.867.867,0,0,0-.9.882.9.9,0,0,0,.883.912.924.924,0,0,0,.91-.9.893.893,0,0,0-.894-.9" transform="translate(-318.68 -196.624)" fill="#1a1818"/>
        <path id="Trazado_231874" data-name="Trazado 231874" d="M280.252,216.125a2.1,2.1,0,0,1-2.127,2.119A2.118,2.118,0,0,1,276,216.117a2.151,2.151,0,0,1,2.138-2.134,2.126,2.126,0,0,1,2.119,2.142m-2.112-.892a.869.869,0,0,0-.9.881.9.9,0,0,0,.883.914.921.921,0,0,0,.91-.895.892.892,0,0,0-.892-.9" transform="translate(-253.607 -196.625)" fill="#1a1818"/>
        <path id="Trazado_231875" data-name="Trazado 231875" d="M108.7,218.643c-.31,0-.621.008-.931,0a.625.625,0,0,1-.654-.625.607.607,0,0,1,.644-.587q.951-.016,1.9,0a.6.6,0,0,1,.633.6.618.618,0,0,1-.623.614c-.323.014-.647,0-.971,0" transform="translate(-98.423 -199.784)" fill="#1a1818"/>
        <path id="Trazado_231876" data-name="Trazado 231876" d="M52.332,217.443c.324,0,.647-.01.97,0a.605.605,0,1,1-.01,1.21q-.95.018-1.9,0a.59.59,0,0,1-.63-.594.584.584,0,0,1,.64-.619c.31-.01.62,0,.93,0v0" transform="translate(-46.644 -199.799)" fill="#1a1818"/>
        <path id="Trazado_231877" data-name="Trazado 231877" d="M52.349,249.41c-.31,0-.621.009-.93,0a.608.608,0,0,1-.651-.62.57.57,0,0,1,.618-.6c.633-.016,1.267-.015,1.9,0a.607.607,0,0,1,.641.589.624.624,0,0,1-.648.631c-.31.013-.62,0-.93,0" transform="translate(-46.65 -228.044)" fill="#1a1818"/>
        <path id="Trazado_231878" data-name="Trazado 231878" d="M165.313,249.42c-.31,0-.621.013-.93,0a.615.615,0,0,1-.625-.61.594.594,0,0,1,.618-.607q.97-.024,1.941,0a.565.565,0,0,1,.6.578.6.6,0,0,1-.59.636c-.336.02-.674,0-1.011,0" transform="translate(-150.474 -228.055)" fill="#1a1818"/>
        <path id="Trazado_231879" data-name="Trazado 231879" d="M165.332,218.641c-.31,0-.62.009-.93,0a.613.613,0,0,1-.646-.626.6.6,0,0,1,.637-.587q.95-.016,1.9,0a.577.577,0,0,1,.619.6.592.592,0,0,1-.61.613c-.323.014-.647,0-.97,0" transform="translate(-150.472 -199.781)" fill="#1a1818"/>
        <path id="Trazado_231880" data-name="Trazado 231880" d="M108.7,249.414c-.31,0-.621.01-.931,0a.635.635,0,0,1-.647-.637.611.611,0,0,1,.649-.584c.634-.013,1.268-.014,1.9,0a.6.6,0,0,1,.626.6.641.641,0,0,1-.628.617c-.027,0-.054,0-.081,0h-.89" transform="translate(-98.427 -228.048)" fill="#1a1818"/>
        <path id="Trazado_231881" data-name="Trazado 231881" d="M351.073,74.118a2.125,2.125,0,0,1-2.13,2.128,2.137,2.137,0,1,1,2.13-2.128m-3.014-.01a.891.891,0,0,0,.888.906.92.92,0,0,0,.907-.9.9.9,0,0,0-.9-.9.876.876,0,0,0-.9.891" transform="translate(-318.68 -66.134)" fill="#1a1818"/>
        <path id="Trazado_231882" data-name="Trazado 231882" d="M280.252,74.1a2.128,2.128,0,1,1-4.257.028,2.154,2.154,0,0,1,2.12-2.153,2.131,2.131,0,0,1,2.137,2.125m-2.139-.88a.877.877,0,0,0-.874.912.89.89,0,0,0,.908.884.916.916,0,0,0,.885-.918.9.9,0,0,0-.919-.878" transform="translate(-253.607 -66.133)" fill="#1a1818"/>
        <path id="Trazado_231883" data-name="Trazado 231883" d="M165.351,106c.31,0,.621-.015.93,0a.6.6,0,0,1,.634.6.6.6,0,0,1-.631.641c-.62.023-1.241.021-1.861,0a.623.623,0,0,1-.664-.62c0-.363.265-.608.7-.625.3-.012.593,0,.89,0v0" transform="translate(-150.476 -97.395)" fill="#1a1818"/>
        <path id="Trazado_231884" data-name="Trazado 231884" d="M108.729,106c.3,0,.594-.012.89,0a.642.642,0,0,1,.672.616.631.631,0,0,1-.661.626c-.62.019-1.242.02-1.862,0a.637.637,0,0,1-.654-.634A.651.651,0,0,1,107.8,106c.31-.014.621,0,.931,0" transform="translate(-98.426 -97.396)" fill="#1a1818"/>
        <path id="Trazado_231885" data-name="Trazado 231885" d="M52.346,107.21c-.31,0-.621.015-.931,0a.622.622,0,1,1,.017-1.243q.91-.024,1.821,0a.623.623,0,1,1,.023,1.242c-.309.02-.62,0-.931,0" transform="translate(-46.652 -97.356)" fill="#1a1818"/>
        <path id="Trazado_231886" data-name="Trazado 231886" d="M165.286,76.462c-.283,0-.567.009-.849,0a.631.631,0,0,1-.684-.6.606.606,0,0,1,.64-.635c.633-.019,1.268-.02,1.9,0a.579.579,0,0,1,.615.61.607.607,0,0,1-.652.62c-.323.014-.647,0-.971,0" transform="translate(-150.469 -69.112)" fill="#1a1818"/>
        <path id="Trazado_231887" data-name="Trazado 231887" d="M108.715,76.485c-.31,0-.621.01-.931,0a.644.644,0,0,1-.669-.619.616.616,0,0,1,.629-.611c.647-.02,1.3-.021,1.942,0a.6.6,0,0,1,.607.628.651.651,0,0,1-.647.6c-.027,0-.054,0-.081,0h-.85" transform="translate(-98.427 -69.134)" fill="#1a1818"/>
        <path id="Trazado_231888" data-name="Trazado 231888" d="M52.325,76.474c-.31,0-.621.012-.93,0a.6.6,0,0,1-.631-.6.575.575,0,0,1,.6-.626c.646-.024,1.295-.023,1.941,0a.6.6,0,0,1,.622.614.633.633,0,0,1-.668.616c-.31.013-.62,0-.93,0" transform="translate(-46.646 -69.124)" fill="#1a1818"/>
        <path id="Trazado_231889" data-name="Trazado 231889" d="M280.253,358.3a2.112,2.112,0,0,1-2.122,2.131,2.127,2.127,0,1,1,0-4.254,2.1,2.1,0,0,1,2.122,2.123m-2.108.892a.9.9,0,0,0,.888-.906.91.91,0,0,0-.914-.886.894.894,0,0,0-.879.913.877.877,0,0,0,.905.88" transform="translate(-253.608 -327.282)" fill="#1a1818"/>
        <path id="Trazado_231890" data-name="Trazado 231890" d="M351.076,358.283a2.111,2.111,0,0,1-2.11,2.143,2.127,2.127,0,1,1-.025-4.254,2.1,2.1,0,0,1,2.135,2.111m-2.109.9a.9.9,0,0,0,.889-.906.913.913,0,0,0-.915-.887.893.893,0,0,0-.879.913.875.875,0,0,0,.9.88" transform="translate(-318.684 -327.28)" fill="#1a1818"/>
        <path id="Trazado_231891" data-name="Trazado 231891" d="M108.682,390.225c.324,0,.648-.008.971,0a.613.613,0,0,1,.633.6.6.6,0,0,1-.623.607q-.971.018-1.943,0a.6.6,0,0,1-.614-.617.617.617,0,0,1,.644-.59c.31-.009.621,0,.931,0" transform="translate(-98.418 -358.568)" fill="#1a1818"/>
        <path id="Trazado_231892" data-name="Trazado 231892" d="M52.359,359.313c.31,0,.621-.01.93,0a.616.616,0,0,1,.629.606.6.6,0,0,1-.62.608c-.647.014-1.294.015-1.941,0a.569.569,0,0,1-.6-.617.6.6,0,0,1,.631-.6c.323-.012.647,0,.971,0" transform="translate(-46.64 -330.162)" fill="#1a1818"/>
        <path id="Trazado_231893" data-name="Trazado 231893" d="M108.7,359.318c.31,0,.621-.008.931,0a.626.626,0,0,1,.659.62.6.6,0,0,1-.635.595q-.95.021-1.9,0a.608.608,0,0,1-.641-.591.629.629,0,0,1,.657-.624c.31-.01.62,0,.931,0" transform="translate(-98.424 -330.167)" fill="#1a1818"/>
        <path id="Trazado_231894" data-name="Trazado 231894" d="M165.3,360.5c-.323,0-.648.015-.97,0a.6.6,0,0,1,.005-1.206q.99-.026,1.981,0a.581.581,0,0,1,.591.631.572.572,0,0,1-.6.579c-.336.016-.674,0-1.011,0v0" transform="translate(-150.471 -330.13)" fill="#1a1818"/>
        <path id="Trazado_231895" data-name="Trazado 231895" d="M52.347,391.414c-.324,0-.647.009-.971,0a.6.6,0,1,1-.006-1.208c.647-.011,1.294-.012,1.941,0a.6.6,0,1,1,.006,1.205c-.323.014-.647,0-.97,0h0" transform="translate(-46.64 -358.543)" fill="#1a1818"/>
        <path id="Trazado_231896" data-name="Trazado 231896" d="M165.341,391.415c-.324,0-.647.01-.97,0a.6.6,0,1,1,.008-1.208c.647-.01,1.294-.012,1.941,0a.576.576,0,0,1,.59.587.591.591,0,0,1-.6.622c-.027,0-.054,0-.081,0h-.89v0" transform="translate(-150.469 -358.544)" fill="#1a1818"/>
        <path id="Trazado_231897" data-name="Trazado 231897" d="M363.071,229.388a.893.893,0,0,1,.894.9.924.924,0,0,1-.91.9.9.9,0,0,1-.883-.912.867.867,0,0,1,.9-.882" transform="translate(-332.792 -210.78)" fill="url(#linear-gradient-19)"/>
        <path id="Trazado_231898" data-name="Trazado 231898" d="M292.215,229.388a.892.892,0,0,1,.892.9.921.921,0,0,1-.91.895.9.9,0,0,1-.883-.914.869.869,0,0,1,.9-.881" transform="translate(-267.682 -210.78)" fill="url(#linear-gradient-10)"/>
        <path id="Trazado_231899" data-name="Trazado 231899" d="M362.163,88.218a.876.876,0,0,1,.9-.891.9.9,0,0,1,.9.9.92.92,0,0,1-.907.9.891.891,0,0,1-.888-.906" transform="translate(-332.784 -80.244)" fill="url(#linear-gradient-19)"/>
        <path id="Trazado_231900" data-name="Trazado 231900" d="M292.19,87.324a.9.9,0,0,1,.919.878.916.916,0,0,1-.885.918.89.89,0,0,1-.908-.884.877.877,0,0,1,.874-.912" transform="translate(-267.684 -80.24)" fill="url(#linear-gradient-10)"/>
        <path id="Trazado_231901" data-name="Trazado 231901" d="M292.222,373.027a.877.877,0,0,1-.905-.88.894.894,0,0,1,.879-.913.91.91,0,0,1,.914.886.9.9,0,0,1-.888.906" transform="translate(-267.685 -341.12)" fill="url(#linear-gradient-10)"/>
        <path id="Trazado_231902" data-name="Trazado 231902" d="M363.076,373.026a.875.875,0,0,1-.9-.88.893.893,0,0,1,.879-.913.913.913,0,0,1,.915.887.9.9,0,0,1-.889.906" transform="translate(-332.792 -341.119)" fill="url(#linear-gradient-19)"/>
      </g>
    </g>
  </g>
</svg>
