<svg xmlns="http://www.w3.org/2000/svg" xmlns:xlink="http://www.w3.org/1999/xlink" width="93" height="94" viewBox="0 0 93 94">
  <defs>
    <clipPath id="clip-path">
      <rect id="Rectángulo_52826" data-name="Rectángulo 52826" width="52.936" height="53.223" fill="#12263f"/>
    </clipPath>
  </defs>
  <g id="Grupo_179497" data-name="Grupo 179497" transform="translate(0.275 -0.334)">
    <ellipse id="Elipse_4870" data-name="Elipse 4870" cx="46.5" cy="47" rx="46.5" ry="47" transform="translate(-0.275 0.334)" fill="#f4a338"/>
    <g id="Grupo_179736" data-name="Grupo 179736" transform="translate(19.214 19.852)">
      <g id="Grupo_173672" data-name="Grupo 173672" clip-path="url(#clip-path)">
        <path id="Trazado_214806" data-name="Trazado 214806" d="M0,42.115c.089-.432.167-.867.269-1.3a11.084,11.084,0,0,1,10.945-8.625h.717V28.8h3.431V25.567c0-.869,0-.869.847-1.086.377-.1.752-.2,1.183-.309L16.36,22.418l4.59-4.59L22.7,18.864c.147-.564.314-1.087.412-1.622.062-.339.207-.42.53-.417,1.582.015,3.164.007,4.746.007H29V11.737h1.717a11.115,11.115,0,0,1,6.1-9.075A10.724,10.724,0,0,1,44.573,1.8a11.2,11.2,0,0,1,8.31,11.768,11.21,11.21,0,0,1-11.9,10.093v3.39h-3.44c0,1.226-.028,2.394.014,3.56.017.458-.145.623-.559.7-.486.089-.963.233-1.489.364l1.014,1.713-4.613,4.6-1.7-1.008c-.126.5-.266.962-.355,1.435-.083.445-.256.628-.762.616-1.7-.042-3.411-.016-5.176-.016v5.1H22.2c-.116.612-.2,1.187-.336,1.75A11.082,11.082,0,0,1,.1,44.815a2.455,2.455,0,0,0-.1-.353V42.115M30.755,25.323h8.47V13.437h-8.47ZM13.674,42.4h8.471V30.513H13.674Zm15.34-15.316c0-.739-.026-1.41.01-2.079a.72.72,0,0,0-.441-.749A4.188,4.188,0,0,0,22.366,28.8h1.525c0,.726.024,1.4-.01,2.07a.682.682,0,0,0,.417.708,4.3,4.3,0,0,0,3.02.515,4.2,4.2,0,0,0,3.253-5.013ZM23.929,33.39v3.9H28.31a.7.7,0,0,0,.057-.116c.12-.481.236-.964.357-1.445a1.069,1.069,0,0,1,1.62-.68c.467.278.934.554,1.439.854.53-.544,1.027-1.051,1.519-1.561.356-.369.937-.715.991-1.126s-.423-.888-.682-1.328a1.076,1.076,0,0,1,.693-1.7c.507-.133,1.017-.254,1.506-.376v-2.7h-3.4a6.062,6.062,0,0,1-8.482,6.274m.643-14.84c-.16.623-.3,1.208-.465,1.788a.567.567,0,0,1-.207.334c-.485.257-.964.511-1.5.045a4.724,4.724,0,0,0-1-.6.447.447,0,0,0-.4.017c-.839.815-1.66,1.648-2.5,2.49.328.551.644,1.064.942,1.586a1.135,1.135,0,0,1-.581,1.373c-.591.162-1.186.312-1.756.461v2.705h3.409a6.046,6.046,0,0,1,8.465-6.284V18.55ZM6.048,46.322V40.255L2.735,39.136a8.824,8.824,0,0,0,.03,8.292l3.282-1.106M50.156,16.708c1.353-2.015,1.352-6.292,0-8.295l-3.3,1.117v6.06l3.3,1.117M7.908,46c1.091-.05,2.135-.136,3.179-.136,1.059,0,2.118.086,3.248.138l.15-1.87H11.92V40.713c-.712,0-1.369.022-2.024-.006s-1.332-.109-1.991-.165a16.535,16.535,0,0,0,0,5.456M38.562,9.9l-.137,1.809H40.96v3.365l4.073.2a19.077,19.077,0,0,0,.01-5.37Zm6.2-1.837A9.585,9.585,0,0,0,42.924,3.8a1.292,1.292,0,0,0-2.214-.01,9.31,9.31,0,0,0-1.842,4.274,19.524,19.524,0,0,0,5.9,0M8.153,47.781A11.113,11.113,0,0,0,9.4,51.255a4.769,4.769,0,0,0,.789.995,1.156,1.156,0,0,0,1.792.008,8.79,8.79,0,0,0,2.059-4.475,19.761,19.761,0,0,0-5.892,0M40.973,21.87a1.718,1.718,0,0,0,1.659-.272c1.31-1.222,1.709-2.865,2.144-4.615l-3.8-.179ZM11.925,33.986a1.716,1.716,0,0,0-1.836.425,9.361,9.361,0,0,0-1.96,4.451l3.8.186ZM33.415,8.4a8.305,8.305,0,0,0-.894,3.284h4.161c.057-.743.112-1.46.163-2.128L33.415,8.4M16.221,44.166l-.156,2.126,3.512,1.191.952-3.317ZM45.174,21.3a9.4,9.4,0,0,0,4.093-3.1l-2.683-.885L45.174,21.3M14.453,52.03a9.421,9.421,0,0,0,4.094-3.091l-2.68-.893L14.453,52.03M7.726,34.556a9.388,9.388,0,0,0-4.091,3.078l2.684.891,1.408-3.969M45.174,3.821,46.59,7.807l2.676-.9a9.411,9.411,0,0,0-4.092-3.084m-6.728.011a9.193,9.193,0,0,0-4.083,3.077l2.675.895,1.408-3.971M6.313,48.041l-2.672.905a9.327,9.327,0,0,0,4.087,3.073L6.313,48.041" transform="translate(0 -1.289)" fill="#12263f"/>
        <path id="Trazado_214807" data-name="Trazado 214807" d="M33.659,20.633h-1.7v-.57q0-6.028,0-12.056a4.236,4.236,0,0,1,4.435-4.415q5.573,0,11.146,0h.625V0l8.708,8.708H37.086V15.5H35.37v-.572c0-1.974.051-3.949-.019-5.92a1.892,1.892,0,0,1,2.044-2.02c4.941.051,9.884.021,14.826.021h.529L49.9,4.145V5.3H36.567a2.624,2.624,0,0,0-2.907,2.9q0,5.921,0,11.842Z" transform="translate(-28.541)" fill="#12263f"/>
        <path id="Trazado_214808" data-name="Trazado 214808" d="M234.666,319.144l2.91,2.914v-1.2h13.3a2.631,2.631,0,0,0,2.933-2.928q0-5.894,0-11.788v-.613h1.7v.534q0,6.027,0,12.054a4.244,4.244,0,0,1-4.461,4.443q-5.546,0-11.091,0h-.631V326.1l-8.657-8.661h19.713v-6.8H252.1v.5q0,3.067,0,6.134a1.7,1.7,0,0,1-1.891,1.865q-7.465,0-14.931,0h-.612" transform="translate(-206.024 -272.879)" fill="#12263f"/>
        <rect id="Rectángulo_52817" data-name="Rectángulo 52817" width="1.63" height="1.656" transform="translate(6.87 20.683)" fill="#12263f"/>
        <rect id="Rectángulo_52818" data-name="Rectángulo 52818" width="1.636" height="1.638" transform="translate(44.416 30.942)" fill="#12263f"/>
        <rect id="Rectángulo_52819" data-name="Rectángulo 52819" width="1.625" height="1.653" transform="translate(6.872 17.288)" fill="#12263f"/>
        <rect id="Rectángulo_52820" data-name="Rectángulo 52820" width="1.636" height="1.638" transform="translate(44.399 34.347)" fill="#12263f"/>
        <rect id="Rectángulo_52821" data-name="Rectángulo 52821" width="5.067" height="1.637" transform="translate(32.452 20.691)" fill="#12263f"/>
        <rect id="Rectángulo_52822" data-name="Rectángulo 52822" width="5.048" height="1.639" transform="translate(32.453 17.276)" fill="#12263f"/>
        <rect id="Rectángulo_52823" data-name="Rectángulo 52823" width="5.067" height="1.637" transform="translate(32.453 13.872)" fill="#12263f"/>
        <path id="Trazado_214809" data-name="Trazado 214809" d="M143.984,289.491h5.05v5.051h-5.05Zm3.368,1.715h-1.663v1.64h1.663Z" transform="translate(-128.599 -258.557)" fill="#12263f"/>
        <rect id="Rectángulo_52824" data-name="Rectángulo 52824" width="5.048" height="1.637" transform="translate(15.386 37.762)" fill="#12263f"/>
        <rect id="Rectángulo_52825" data-name="Rectángulo 52825" width="1.646" height="1.637" transform="translate(42.701 10.449)" fill="#12263f"/>
      </g>
    </g>
  </g>
</svg>
