<svg xmlns="http://www.w3.org/2000/svg" xmlns:xlink="http://www.w3.org/1999/xlink" width="93" height="94" viewBox="0 0 93 94">
  <defs>
    <clipPath id="clip-path">
      <rect id="Rectángulo_57764" data-name="Rectángulo 57764" width="55.866" height="55.874" fill="#12263f"/>
    </clipPath>
  </defs>
  <g id="Grupo_179496" data-name="Grupo 179496" transform="translate(0.275 -0.334)">
    <ellipse id="Elipse_4870" data-name="Elipse 4870" cx="46.5" cy="47" rx="46.5" ry="47" transform="translate(-0.275 0.334)" fill="#4adbd1"/>
    <g id="Grupo_179737" data-name="Grupo 179737" transform="translate(18.77 17.653)" clip-path="url(#clip-path)">
      <path id="Trazado_229184" data-name="Trazado 229184" d="M25.256,0c.374.09.75.172,1.121.271a8.39,8.39,0,0,1,6.208,8.049c.006,2.58,0,5.159,0,7.739v.7c.36,0,.683,0,1.005,0a2.742,2.742,0,0,1,2.711,2.7,15.488,15.488,0,0,1-.119,2.895,4.359,4.359,0,0,1-3.426,3.549.761.761,0,0,0-.633.612,11.985,11.985,0,0,1-7.406,8.093.953.953,0,0,0-.363,1.435c.692.733,1.415,1.437,2.142,2.136a1.376,1.376,0,0,0,.517.24c2.769.929,5.543,1.843,8.307,2.786.594.2,1.154.506,1.775.784l-.947,1.5L26.94,40.369,26.141,54h3.619v1.868h-.6q-13.936,0-27.872.009A1.36,1.36,0,0,1,0,55.285V48.069A1.5,1.5,0,0,0,.1,47.8a8.127,8.127,0,0,1,5.5-6.569c2.763-1,5.571-1.877,8.357-2.814a1.5,1.5,0,0,0,.561-.277q1.05-1.006,2.059-2.054a.955.955,0,0,0-.278-1.457,11.987,11.987,0,0,1-7.475-8.168.672.672,0,0,0-.563-.539,4.377,4.377,0,0,1-3.479-3.566,15.425,15.425,0,0,1-.118-2.894,2.745,2.745,0,0,1,2.714-2.7c.322-.005.645,0,1,0v-.707c0-2.58,0-5.159,0-7.738A8.391,8.391,0,0,1,14.647.254C15,.164,15.357.084,15.713,0Zm-15,16.785c0,2.386-.006,4.71.006,7.034a6.473,6.473,0,0,0,.13,1.154,10.224,10.224,0,0,0,12.2,8.318A10.076,10.076,0,0,0,30.6,24.513c.183-2.526.088-5.072.115-7.609,0-.032-.032-.065-.075-.146h-.6q-3.053,0-6.106,0A11.758,11.758,0,0,1,16.7,14.317c-.522-.393-1-.841-1.531-1.289a4.863,4.863,0,0,1-4.91,3.758m20.473-1.792c0-.368,0-.56,0-.752-.006-2.075.074-4.155-.039-6.224a6.186,6.186,0,0,0-5.645-6.026,65.878,65.878,0,0,0-8.774-.067,6.161,6.161,0,0,0-5.915,5.629c-.21,1.977-.09,3.988-.116,5.984-.006.441,0,.883,0,1.319a2.709,2.709,0,0,0,2.782-1.575c.315-.684.57-1.4.853-2.1.475-1.174,1.215-1.286,2-.294a9.193,9.193,0,0,0,6.257,3.772c2.821.291,5.678.233,8.6.329M14.035,40.44a2.867,2.867,0,0,0-.31.057c-2.585.861-5.192,1.661-7.746,2.607a5.826,5.826,0,0,0-3.857,4.4,24.654,24.654,0,0,0-.257,4.043c-.032.806-.006,1.614-.006,2.428H14.825l-.79-13.534m2.128,1.736-.138.048q.346,5.871.692,11.753c.162.014.258.014.351.031.582.107.83-.1.942-.72.423-2.339.921-4.665,1.373-7a.763.763,0,0,0-.129-.568c-1.018-1.193-2.058-2.366-3.092-3.545m8.78.043-.13-.049c-1.065,1.216-2.136,2.428-3.187,3.656a.67.67,0,0,0-.039.483c.444,2.276.9,4.551,1.351,6.826.186.938.185.939,1.157.861a.8.8,0,0,0,.161-.065l.688-11.712M8.368,18.62h-.56c-.97,0-1.289.315-1.292,1.284,0,.5-.012,1.008,0,1.512a2.6,2.6,0,0,0,1.849,2.519ZM32.6,24.007a2.472,2.472,0,0,0,1.7-1.847,14.43,14.43,0,0,0,.118-2.714.836.836,0,0,0-.793-.8,7.784,7.784,0,0,0-1.029-.009ZM20.445,38.518c.591-.785,1.114-1.431,1.576-2.117a5.619,5.619,0,0,0,.436-1.078H18.588c.071,1.36,1.308,2.011,1.857,3.2m-2.8-.7-1.449,1.4,2.241,2.8c.291-.581.563-1.073.78-1.589a.683.683,0,0,0-.045-.563c-.488-.7-1.014-1.368-1.527-2.05m7.109,1.436-1.415-1.441c-.523.7-1.064,1.4-1.577,2.119a.555.555,0,0,0-.024.465c.236.527.509,1.037.8,1.619l2.215-2.762M19.774,53.981H21.2l-.652-3.186-.136.017-.636,3.17m.711-11.827-.669,1.335.618.763.752-.7-.7-1.4" fill="#12263f"/>
      <path id="Trazado_229185" data-name="Trazado 229185" d="M278.9,326.8c0-2.147,0-4.2,0-6.258,0-.893.292-1.19,1.174-1.19q3.492,0,6.983,0c.843,0,1.146.309,1.149,1.159,0,.831,0,1.661,0,2.565h.658q2.822,0,5.645,0c.82,0,1.145.31,1.145,1.1q0,6.343,0,12.685c0,.773-.323,1.1-1.088,1.1q-11,0-22,0c-.8,0-1.117-.318-1.118-1.131q0-4.452,0-8.9c0-.815.311-1.132,1.114-1.133q2.822-.005,5.644,0h.689m7.408-5.544h-5.519V336.08H286.3Zm1.941,14.808h5.518v-11.1h-5.518Zm-9.391-7.358h-5.516v7.38h5.516Z" transform="translate(-239.787 -282.1)" fill="#12263f"/>
      <path id="Trazado_229186" data-name="Trazado 229186" d="M289.7,220.561a2.792,2.792,0,1,1,1.09-5.452.638.638,0,0,0,.75-.194q1.506-1.537,3.043-3.044a.626.626,0,0,0,.208-.745,2.724,2.724,0,0,1,1.037-3.083,2.811,2.811,0,0,1,3.216-.022,2.738,2.738,0,0,1,1.066,3.125.589.589,0,0,0,.185.7q1.556,1.529,3.085,3.085a.59.59,0,0,0,.7.187,2.756,2.756,0,0,1,3.221,1.213,2.8,2.8,0,0,1-3.8,3.868,2.845,2.845,0,0,1-1.28-3.262.778.778,0,0,0-.143-.632q-1.554-1.613-3.166-3.167a.948.948,0,0,0-.585-.146q-.856-.024-1.713.01a1.052,1.052,0,0,0-.634.153c-1.062,1.022-2.089,2.079-3.143,3.109a.6.6,0,0,0-.172.7,2.825,2.825,0,0,1-2.965,3.6m7.747-11.164a.927.927,0,1,0,.932.921.97.97,0,0,0-.932-.921m-6.517,8.368a.927.927,0,1,0-.921.934.973.973,0,0,0,.921-.934m14.9-.02a.927.927,0,1,0-.9.955.969.969,0,0,0,.9-.955" transform="translate(-253.69 -183.321)" fill="#12263f"/>
      <path id="Trazado_229187" data-name="Trazado 229187" d="M140.338,223.439c1.2,0,2.4-.005,3.6,0,.723,0,1.049.349,1.048,1.08a4.658,4.658,0,0,1-9.178.975,4.463,4.463,0,0,1-.1-.454c-.127-.982,0-1.681,1.367-1.614,1.082.053,2.169.011,3.254.011m-2.53,1.888a2.639,2.639,0,0,0,2.667,1.83,2.529,2.529,0,0,0,2.37-1.83Z" transform="translate(-119.854 -197.366)" fill="#12263f"/>
      <rect id="Rectángulo_57762" data-name="Rectángulo 57762" width="1.785" height="2.716" transform="translate(14 18.672)" fill="#12263f"/>
      <rect id="Rectángulo_57763" data-name="Rectángulo 57763" width="1.794" height="2.713" transform="translate(25.169 18.668)" fill="#12263f"/>
    </g>
  </g>
</svg>
