<svg xmlns="http://www.w3.org/2000/svg" xmlns:xlink="http://www.w3.org/1999/xlink" width="126" height="126" viewBox="0 0 126 126">
  <defs>
    <filter id="Elipse_6216" x="0" y="0" width="126" height="126" filterUnits="userSpaceOnUse">
      <feOffset dy="3" input="SourceAlpha"/>
      <feGaussianBlur stdDeviation="3" result="blur"/>
      <feFlood flood-opacity="0.161"/>
      <feComposite operator="in" in2="blur"/>
      <feComposite in="SourceGraphic"/>
    </filter>
    <clipPath id="clip-path">
      <rect id="Rectángulo_58141" data-name="Rectángulo 58141" width="66.509" height="66.508" fill="#12263f"/>
    </clipPath>
  </defs>
  <g id="Grupo_180652" data-name="Grupo 180652" transform="translate(-180.72 -908.624)">
    <g transform="matrix(1, 0, 0, 1, 180.72, 908.62)" filter="url(#Elipse_6216)">
      <circle id="Elipse_6216-2" data-name="Elipse 6216" cx="54" cy="54" r="54" transform="translate(9 6)" fill="#fff"/>
    </g>
    <g id="Grupo_180315" data-name="Grupo 180315" transform="translate(211.605 935.87)">
      <g id="Grupo_180314" data-name="Grupo 180314" clip-path="url(#clip-path)">
        <path id="Trazado_231771" data-name="Trazado 231771" d="M66.509,13.639V52.348c-.769,2.66-2.632,3.29-4.775,3.271-7.057-.063-14.115-.024-21.172-.024H39.75v3.119c.909,0,1.729-.016,2.548,0a3.882,3.882,0,0,1,3.813,3.823c.018.822.011,1.645,0,2.468-.01,1.013-.5,1.491-1.534,1.5-1.212.006-2.425,0-3.637,0q-9.482,0-18.964,0c-1.111,0-1.578-.47-1.584-1.577,0-.671,0-1.342,0-2.013a3.912,3.912,0,0,1,4.222-4.2h2.112V55.6h-.793q-10.813,0-21.627,0A3.94,3.94,0,0,1,0,51.278Q0,40.367,0,29.456c0-5.022-.007-10.045,0-15.067a3.733,3.733,0,0,1,2.4-3.673A5.259,5.259,0,0,1,4.172,10.4c.939-.049,1.883-.013,2.846-.013,0-2.224-.011-4.345,0-6.465A3.726,3.726,0,0,1,8.848.615,10.025,10.025,0,0,1,10.264,0H56.247c.161.055.323.11.484.167a3.854,3.854,0,0,1,2.732,3.3,11.928,11.928,0,0,1,.03,1.62c0,1.746,0,3.492,0,5.3,1.092,0,2.125-.02,3.156,0a3.721,3.721,0,0,1,3.242,1.826,10.216,10.216,0,0,1,.616,1.416m-9.643-.611H9.614v.739q0,4.319,0,8.637c0,1.008-.48,1.609-1.28,1.621-.821.012-1.313-.6-1.317-1.648,0-.13,0-.26,0-.39V13.071A.818.818,0,0,0,6.832,13C6.01,13,5.187,12.99,4.365,12.99c-1.369,0-1.765.4-1.765,1.788q0,14.32,0,28.64v.7H7.016V42.33c0-2.6-.006-5.2,0-7.793a1.3,1.3,0,0,1,1.29-1.41,1.316,1.316,0,0,1,1.3,1.4c0,.151,0,.3,0,.454v9.182h6.625c0-1.412,0-2.73,0-4.048a1.338,1.338,0,0,1,1.5-1.532,3.122,3.122,0,0,1,.648.006c.673.135.986-.165,1.107-.8a4.223,4.223,0,0,1,.324-.846c.566-1.313.568-1.312-.411-2.334a1.331,1.331,0,0,1-.006-2.142q1.8-1.823,3.628-3.628a1.325,1.325,0,0,1,2.143-.026c1.042.993,1,.864,2.338.468,1.288-.383,1.891-.96,1.7-2.367a1.111,1.111,0,0,1,1.215-1.232q2.824-.042,5.649,0c.749.011,1.335.508,1.219,1.225-.242,1.488.509,1.993,1.76,2.386,1.3.408,1.265.513,2.231-.428a1.35,1.35,0,0,1,2.236.014c1,.99,1.99,1.99,2.986,2.984,1.541,1.539,1.549,1.8-.006,3.333-.319.315-.449.559-.177.984a7.013,7.013,0,0,1,.558,1.239c.455,1.161.45,1.163,1.686,1.165,1.28,0,1.7.428,1.7,1.722q0,1.9,0,3.813h6.594ZM63.907,46.81H2.6c0,1.474,0,2.9,0,4.327,0,1.5.365,1.861,1.889,1.861H62.026c.195,0,.39.008.584,0A1.273,1.273,0,0,0,63.9,51.715c.025-1.62.008-3.242.008-4.906M56.893,10.368c0-2.209.017-4.35-.008-6.491C56.875,3.066,56.3,2.6,55.4,2.6q-22.145,0-44.29,0c-1.011,0-1.49.5-1.5,1.535-.006,1.256,0,2.511,0,3.767v2.466Zm-38.041,33.8c2.588,0,5.117,0,7.645,0a3.286,3.286,0,0,0,.378-.043,6.569,6.569,0,0,1,6.109-7.929,6.425,6.425,0,0,1,4.68,1.733,6.519,6.519,0,0,1,1.955,6.2h8V41.181c-.419,0-.786,0-1.153,0-.886-.012-1.23-.363-1.529-1.2a39.288,39.288,0,0,0-1.5-3.638c-.418-.879-.428-1.322.278-2.022.255-.253.554-.463.826-.687L42.281,31.4c-.223.267-.453.586-.727.86a1.434,1.434,0,0,1-1.928.245c-1.207-.565-2.443-1.077-3.695-1.534-.848-.31-1.165-.622-1.187-1.537-.009-.378,0-.756,0-1.119H31.769c0,.382,0,.7,0,1.028-.014,1.021-.327,1.322-1.288,1.661A37.647,37.647,0,0,0,26.906,32.5a1.435,1.435,0,0,1-1.931-.216c-.283-.282-.523-.608-.705-.822l-2.282,2.2c.273.224.576.435.834.691a1.426,1.426,0,0,1,.261,1.974c-.567,1.205-1.066,2.446-1.521,3.7a1.427,1.427,0,0,1-1.5,1.16c-.4.006-.8,0-1.213,0Zm45.059-.029v-.528q0-14.5,0-29.01a2.939,2.939,0,0,0-.014-.453,1.161,1.161,0,0,0-1.024-1.1c-1.11-.074-2.228-.022-3.333-.022V44.135ZM43.519,63.88c0-.268,0-.462,0-.656,0-1.563-.344-1.913-1.9-1.913H29.02c-1.537,0-3.074-.007-4.611,0a1.276,1.276,0,0,0-1.39,1.095,13.345,13.345,0,0,0-.011,1.471ZM36.831,44.15a3.85,3.85,0,0,0-1.359-4.678,3.932,3.932,0,0,0-4.846.327,3.691,3.691,0,0,0-.885,4.351Zm.308,11.483H29.4v3.03h7.735Z" transform="translate(0)" fill="#12263f"/>
        <path id="Trazado_231772" data-name="Trazado 231772" d="M176.834,130.345c-1.9,0-3.81,0-5.714,0-.956,0-1.519-.5-1.512-1.311s.571-1.275,1.538-1.285h.065q5.649,0,11.3,0c1,0,1.59.5,1.581,1.31s-.6,1.284-1.607,1.286q-2.825,0-5.649,0" transform="translate(-147.533 -111.121)" fill="#12263f"/>
        <path id="Trazado_231773" data-name="Trazado 231773" d="M311.85,130.341c-1.731,0-3.463,0-5.194,0-1,0-1.576-.5-1.561-1.327.015-.8.582-1.268,1.553-1.269q5.227,0,10.453,0c.946,0,1.537.506,1.54,1.292s-.592,1.3-1.531,1.3c-1.753.005-3.506,0-5.259,0" transform="translate(-265.387 -111.117)" fill="#12263f"/>
        <path id="Trazado_231774" data-name="Trazado 231774" d="M326.809,178.241c-1.406,0-2.813.005-4.219,0-.945,0-1.509-.515-1.493-1.328.016-.781.571-1.265,1.488-1.266q4.252-.007,8.5,0a1.307,1.307,0,1,1,.005,2.593c-1.428.009-2.856,0-4.284,0" transform="translate(-279.307 -152.781)" fill="#12263f"/>
        <path id="Trazado_231775" data-name="Trazado 231775" d="M106.958,175.641c1.188,0,2.375-.007,3.563,0a1.306,1.306,0,1,1-.021,2.593q-3.6.011-7.191,0a1.306,1.306,0,1,1,.021-2.592c1.209-.008,2.419,0,3.628,0" transform="translate(-88.598 -152.779)" fill="#12263f"/>
        <path id="Trazado_231776" data-name="Trazado 231776" d="M104.72,130.279c-.518,0-1.036.018-1.553,0a1.3,1.3,0,0,1-1.312-1.315,1.279,1.279,0,0,1,1.291-1.267q1.553-.037,3.107,0a1.289,1.289,0,0,1,.021,2.579c-.516.028-1.035.005-1.553.006" transform="translate(-88.598 -111.057)" fill="#12263f"/>
        <path id="Trazado_231777" data-name="Trazado 231777" d="M56.536,210.884a1.294,1.294,0,1,1-1.292-1.263,1.311,1.311,0,0,1,1.292,1.263" transform="translate(-46.927 -182.339)" fill="#12263f"/>
        <path id="Trazado_231778" data-name="Trazado 231778" d="M283.83,42.514q-3.372,0-6.743,0c-.983,0-1.588-.517-1.572-1.323.015-.784.6-1.271,1.557-1.272q6.743,0,13.487,0c.981,0,1.589.519,1.572,1.322-.016.781-.608,1.271-1.558,1.273q-3.372.006-6.743,0" transform="translate(-239.657 -34.721)" fill="#12263f"/>
        <path id="Trazado_231779" data-name="Trazado 231779" d="M109.151,39.957a1.294,1.294,0,1,1-1.313,1.242,1.31,1.31,0,0,1,1.313-1.242" transform="translate(-93.802 -34.756)" fill="#12263f"/>
        <path id="Trazado_231780" data-name="Trazado 231780" d="M153.049,42.546a1.294,1.294,0,1,1,1.3-1.26,1.309,1.309,0,0,1-1.3,1.26" transform="translate(-132.005 -34.757)" fill="#12263f"/>
        <path id="Trazado_231781" data-name="Trazado 231781" d="M198.259,41.221a1.294,1.294,0,1,1-1.292-1.263,1.311,1.311,0,0,1,1.292,1.263" transform="translate(-170.204 -34.757)" fill="#12263f"/>
      </g>
    </g>
  </g>
</svg>
