<svg xmlns="http://www.w3.org/2000/svg" width="117" height="117" viewBox="0 0 117 117">
  <g id="Grupo_180689" data-name="Grupo 180689" transform="translate(8714 11252)">
    <g id="LwdD94.tif" transform="translate(-8707.597 -11245.597)">
      <g id="Grupo_157288" data-name="Grupo 157288" transform="translate(0 0)">
        <path id="Trazado_197625" data-name="Trazado 197625" d="M-2507.1,380.854h-3.338a2.3,2.3,0,0,0-.447-.211,10.249,10.249,0,0,1-7.277-5.981,1.972,1.972,0,0,0-.889-.87,5.036,5.036,0,0,1-2.962-3.538,4.854,4.854,0,0,1,.9-4.141l-1.27-4.324c-3.226,3.229-6.5,6.531-9.813,9.8a4.926,4.926,0,0,1-1.623,1.052c-4.741,1.854-9.5,3.656-14.25,5.5-2.279.883-4.541,1.811-6.811,2.718h-2.295c-3.515-2.006-4.034-3.522-2.541-7.416,2.46-6.411,4.906-12.827,7.4-19.225a5.418,5.418,0,0,1,1.178-1.788q6.677-6.748,13.42-13.43a1.278,1.278,0,0,0,.366-1.523,22.715,22.715,0,0,1-1.193-4.93c-.195-2.78-.052-5.584-.052-8.412.031.01-.033-.029-.1-.029q-5.11-.012-10.221-.019a22.345,22.345,0,0,1-2.813-.057,10.1,10.1,0,0,1-8.741-8.778,10.1,10.1,0,0,1,6.362-10.539c.218-.087.433-.183.492-.208a53.548,53.548,0,0,1,.04-6.527c.953-7.572,8.131-13.843,15.755-13.95a16.549,16.549,0,0,1,15.065,8.225,1.163,1.163,0,0,0,.951.44c6.037-1.135,10.77.85,14.3,5.844a1.7,1.7,0,0,0,.983.576c2.071.419,4.162.734,6.222,1.194a1.563,1.563,0,0,0,1.717-.441c6.172-6.221,12.344-12.442,18.585-18.592a12.818,12.818,0,0,1,13.151-3.417,13.02,13.02,0,0,1,9.448,9.778c.124.466.254.93.38,1.4v3.757c-.059.081-.158.156-.173.244a14.075,14.075,0,0,1-4.31,7.9c-5.581,5.53-11.057,11.167-16.713,16.618-1.521,1.466-2.137,2.709-1.378,4.786a30.125,30.125,0,0,1,.951,5.153h3.258c0,1.073,0,2.043,0,3.014a3.233,3.233,0,0,0,1.958,3.266,3.108,3.108,0,0,0,3.782-.84c.729-.735,1.383-1.545,1.988-2.228l7.292,7.295c-.712.683-1.5,1.411-2.258,2.171a3.07,3.07,0,0,0-.758,3.621,3.193,3.193,0,0,0,3.128,2.014c1.077.018,2.155,0,3.232,0V355.81c-1.077,0-2.156-.018-3.232,0a3.162,3.162,0,0,0-3.126,2.009,3.1,3.1,0,0,0,.758,3.627c.758.759,1.543,1.49,2.174,2.1l-7.2,7.232c-.613-.646-1.3-1.382-2-2.1a3.119,3.119,0,0,0-3.689-.875,3.254,3.254,0,0,0-2.055,3.314c.007,1,0,1.992,0,2.983H-2485.4V371.1a3.241,3.241,0,0,0-1.963-3.266,3.1,3.1,0,0,0-3.778.849c-.727.737-1.38,1.547-2.334,2.627l-1.893-2.462a5.265,5.265,0,0,1-3.4,5.068,1.477,1.477,0,0,0-.619.733,8.987,8.987,0,0,1-3.343,4.172A41.31,41.31,0,0,1-2507.1,380.854Zm-36.666-66.844c-.085-.475-.157-.917-.246-1.355a6.615,6.615,0,0,0-7.762-5.1,6.585,6.585,0,0,0-5.261,7.646,6.638,6.638,0,0,0,6.809,5.544q22.217.018,44.432.005c.174,0,.348,0,.522-.009a5.057,5.057,0,0,0,4.783-4.313,5.034,5.034,0,0,0-2.84-5.213,4.824,4.824,0,0,0-5.98,1.451,16.89,16.89,0,0,0-1.39,2.993h-3.093a7.671,7.671,0,0,1,3.411-6.542,3.431,3.431,0,0,0,1.6-3.21,9.988,9.988,0,0,0-.15-1.656,9.967,9.967,0,0,0-9.381-8.53,10.086,10.086,0,0,0-10.1,7.309c-.25.877-.19,1.3.772,1.71a6.038,6.038,0,0,1,3.725,5.925h-3.156c-.553-2.145-1.643-3.21-3.3-3.273s-2.756.951-3.554,3.254h-3.176a6.464,6.464,0,0,1,4.277-6.143,1.244,1.244,0,0,0,.9-1.091,12.985,12.985,0,0,1,4.915-8.2c.455-.362.93-.7,1.385-1.039-3-5.925-10.768-8.457-17.042-5.589-6.822,3.118-8.977,10.7-7.282,15.437,5.635.732,9.839,5.183,9.375,9.99Zm38.39-6.673a3.282,3.282,0,0,0,.324.056,8.393,8.393,0,0,1,7.949,7.577,8.289,8.289,0,0,1-6.848,8.964,20.109,20.109,0,0,1-3.53.143c-2.073.019-4.147.005-6.3.005,0,1.542,0,2.961,0,4.38,0,1.74.569,2.3,2.316,2.305,4.172,0,8.343,0,12.515,0a4.97,4.97,0,0,1,5.2,4.947,4.971,4.971,0,0,1-5.19,5.06q-7.875.01-15.749,0a4.809,4.809,0,0,0-.936.031,1.612,1.612,0,0,0-1.461,1.639,1.621,1.621,0,0,0,1.458,1.644,3.6,3.6,0,0,0,.728.031c.938,0,1.877-.006,2.816,0a4.946,4.946,0,0,1,4.977,4.954c.019,2.77,0,5.541,0,8.411,2.505,0,4.9.017,7.286-.028.228,0,.5-.369.665-.621a59.4,59.4,0,0,1,3.916-5.866c2.229-2.612,4.74-4.985,7.151-7.44a19.977,19.977,0,0,0,5.757-17.942c-1.631-10.3-7.388-17.479-17.045-21.417a56,56,0,0,0-6.27-1.768C-2505.545,304.224-2505.463,305.738-2505.376,307.337Zm-5.063,50.119c0-2.819.024-5.527-.012-8.234a1.679,1.679,0,0,0-1.8-1.754c-1.007-.035-2.017-.006-3.025-.01a4.972,4.972,0,0,1-5.173-4.973,4.965,4.965,0,0,1,5.212-5.035q7.824-.008,15.648,0a5.8,5.8,0,0,0,1.04-.037,1.632,1.632,0,0,0,1.257-2.358,1.906,1.906,0,0,0-1.93-.955q-6.311.015-12.622,0a4.966,4.966,0,0,1-5.266-5.3c0-1.551,0-3.1,0-4.719-5.833,0-11.53-.006-17.228.023a.9.9,0,0,0-.686.525c-.936,5.34-.564,10.534,2.618,15.087a55,55,0,0,0,5.957,6.807c3.247,3.308,6.533,6.555,8.316,10.929Zm42.95,8.5,2.292-2.243a6.473,6.473,0,0,1-1.292-7.205,6.535,6.535,0,0,1,6.047-4.1v-3.237c-6.054-.458-8.278-5.893-4.742-11.385l-2.236-2.264a6.494,6.494,0,0,1-6.647,1.616,6.67,6.67,0,0,1-4.614-5.045q-.974,3.536-1.919,6.972a11.712,11.712,0,0,1,11.856,10.756,11.7,11.7,0,0,1-9.186,12.425,11.446,11.446,0,0,1-8.064-1.19,11.863,11.863,0,0,1-6.022-8.681,20.2,20.2,0,0,0-4.363,6.7,1.029,1.029,0,0,0,.19.743,5.131,5.131,0,0,1,.708,3.6,1.133,1.133,0,0,0,.217.8c.549.668,1.158,1.287,1.771,1.954,2.259-1.984,4.679-2.6,7.352-1.48A6.56,6.56,0,0,1-2482,370.84h3.222A6.715,6.715,0,0,1-2467.489,365.951Zm-11.937-80.447,14.25,14.254c5.75-5.132,6.471-11.714,1.657-16.254C-2467.382,279.86-2474.215,278.9-2479.426,285.5Zm-62.862,74.361,12.078-12.1-5.141-5.981-12.5,12.512Zm-7.557-2.492a.232.232,0,0,0-.1.1c-1.326,3.422-2.659,6.842-3.943,10.28a1.142,1.142,0,0,0,.309.933c1.718,1.768,3.491,3.483,5.2,5.258a.979.979,0,0,0,1.27.224c1.573-.636,3.162-1.233,4.745-1.845l5.377-2.081Zm10.379,5.068,5.842,5.84c3.62-3.626,7.331-7.334,11.021-11.064a.859.859,0,0,0,.167-.78,26.828,26.828,0,0,0-4.99-6.044Zm67.417-11.638a8.4,8.4,0,0,0-8.38-8.337,4.2,4.2,0,0,0-3.782,1.712,21.05,21.05,0,0,1-3.253,3.507,3.856,3.856,0,0,0-1.272,3.141,8.433,8.433,0,0,0,8.406,8.322A8.436,8.436,0,0,0-2472.049,350.8Zm-6.675-49.128-7.462,7.44,4.576,6.836,8.585-8.579Zm-2.736-2.544-5.694-5.685-8.472,8.472,6.858,4.6Zm-3-8.6,14.123,14.122,2.318-2.147-14.212-14.216Zm-24.34,73.629q3.9,0,7.806,0c1.39,0,2.207-.612,2.229-1.643s-.8-1.7-2.169-1.7q-7.859-.007-15.717,0c-1.3,0-2.1.636-2.124,1.64-.023,1.039.8,1.7,2.168,1.7C-2514,364.167-2511.4,364.162-2508.8,364.162Zm.013,6.678c2.706,0,5.412.014,8.119-.006a1.738,1.738,0,0,0,1.9-1.65,1.718,1.718,0,0,0-1.87-1.681c-5.412-.016-10.824-.029-16.236.027a2.218,2.218,0,0,0-1.562.781,1.685,1.685,0,0,0-.066,1.591,2.54,2.54,0,0,0,1.7.9C-2514.132,370.893-2511.459,370.84-2508.787,370.839Zm5.826,3.4h-11.622a6.7,6.7,0,0,0,5.817,3.247A6.677,6.677,0,0,0-2502.961,374.237Zm-48.518,1.584-4.012-4c-.5,1.322-1.076,2.7-1.534,4.107a1.444,1.444,0,0,0,.265,1.193,1.258,1.258,0,0,0,1.1.268C-2554.225,376.915-2552.829,376.338-2551.479,375.821Z" transform="translate(2560.549 -277.279)" fill="#12263f"/>
        <path id="Trazado_197626" data-name="Trazado 197626" d="M-2191.083,610a4.971,4.971,0,0,1-5.018,5.017,4.967,4.967,0,0,1-4.988-5.045,4.969,4.969,0,0,1,4.965-4.963A4.965,4.965,0,0,1-2191.083,610Zm-3.344,0a1.738,1.738,0,0,0-1.676-1.644,1.737,1.737,0,0,0-1.642,1.676,1.739,1.739,0,0,0,1.675,1.644A1.744,1.744,0,0,0-2194.427,609.991Z" transform="translate(2276.242 -536.486)" fill="#12263f"/>
      </g>
    </g>
    <rect id="Rectángulo_58471" data-name="Rectángulo 58471" width="117" height="117" transform="translate(-8714 -11252)" fill="none"/>
  </g>
</svg>
