<svg xmlns="http://www.w3.org/2000/svg" xmlns:xlink="http://www.w3.org/1999/xlink" width="551.045" height="250.406" viewBox="0 0 551.045 250.406">
  <defs>
    <clipPath id="clip-path">
      <rect id="Rectángulo_57070" data-name="Rectángulo 57070" width="18.456" height="23.07" fill="#1464c0"/>
    </clipPath>
  </defs>
  <g id="Grupo_180620" data-name="Grupo 180620" transform="translate(9198.086 9120.755)">
    <path id="Trazado_228788" data-name="Trazado 228788" d="M352.734,270.25H266.606L252.747,295.9a1.706,1.706,0,0,0,1.5,2.517h98.486l7.041-14.081Z" transform="translate(-9095.8 -9184.24)" fill="#4dd0e1"/>
    <path id="Trazado_228789" data-name="Trazado 228789" d="M310.514,270.25H252.659V295.9c-.356,1.137.121,2.517.868,2.517h56.986l4.074-14.081Z" transform="translate(-9351.184 -9184.24)" fill="#4dd0e1"/>
    <g id="Grupo_179373" data-name="Grupo 179373" transform="translate(-8846.77 -9066.509)">
      <path id="Trazado_116477" data-name="Trazado 116477" d="M254.984,93.034a62.353,62.353,0,0,1,56.547,58.594,1.7,1.7,0,0,0,2.46,1.436l10.46-5.226a2.764,2.764,0,0,1,2.516,0l10.272,5.132a1.712,1.712,0,0,0,2.472-1.6,90.519,90.519,0,0,0-84.943-86.578L247.812,78.7Z" transform="translate(-247.812 -64.787)" fill="#1565c0"/>
      <path id="Trazado_116478" data-name="Trazado 116478" d="M254.984,93.034a62.353,62.353,0,0,1,56.547,58.594,1.7,1.7,0,0,0,2.46,1.436l10.46-5.226a2.764,2.764,0,0,1,2.516,0l10.272,5.132a1.712,1.712,0,0,0,2.472-1.6,90.519,90.519,0,0,0-84.943-86.578L247.812,78.7Z" transform="translate(-247.812 -64.787)" fill="#1565c0" opacity="0.6"/>
    </g>
    <g id="Grupo_179374" data-name="Grupo 179374" transform="translate(-8937.591 -9066.6)">
      <path id="Trazado_116479" data-name="Trazado 116479" d="M156.539,149.393a62.353,62.353,0,0,1,58.6-56.546,1.7,1.7,0,0,0,1.436-2.462l-5.233-10.459a2.844,2.844,0,0,1,0-2.525l5.131-10.261a1.712,1.712,0,0,0-1.6-2.473A90.539,90.539,0,0,0,128.292,149.6l13.912,6.955Z" transform="translate(-128.292 -64.665)" fill="#148cc6"/>
      <path id="Trazado_116480" data-name="Trazado 116480" d="M156.539,149.393a62.353,62.353,0,0,1,58.6-56.546,1.7,1.7,0,0,0,1.436-2.462l-5.233-10.459a2.844,2.844,0,0,1,0-2.525l5.131-10.261a1.712,1.712,0,0,0-1.6-2.473A90.539,90.539,0,0,0,128.292,149.6l13.912,6.955Z" transform="translate(-128.292 -64.665)" fill="#148cc6" opacity="0.4"/>
    </g>
    <g id="Grupo_179375" data-name="Grupo 179375" transform="translate(-8843.419 -8977.797)">
      <path id="Trazado_116483" data-name="Trazado 116483" d="M312.538,191.457v.01a62.367,62.367,0,0,1-58.594,56.546,1.7,1.7,0,0,0-1.436,2.461l5.226,10.46a2.814,2.814,0,0,1,0,2.516L252.6,273.721a1.712,1.712,0,0,0,1.6,2.473,90.521,90.521,0,0,0,86.579-84.943l-13.912-6.956Z" transform="translate(-252.326 -184.294)" fill="#407bff"/>
      <path id="Trazado_116484" data-name="Trazado 116484" d="M312.538,191.457v.01a62.367,62.367,0,0,1-58.594,56.546,1.7,1.7,0,0,0-1.436,2.461l5.226,10.46a2.814,2.814,0,0,1,0,2.516L252.6,273.721a1.712,1.712,0,0,0,1.6,2.473,90.521,90.521,0,0,0,86.579-84.943l-13.912-6.956Z" transform="translate(-252.326 -184.294)" fill="#4dd0e1" opacity="0.8"/>
    </g>
    <g id="Grupo_179376" data-name="Grupo 179376" transform="matrix(0.819, -0.574, 0.574, 0.819, -8988.337, -9060.809)">
      <path id="Trazado_116477-2" data-name="Trazado 116477" d="M48.477,16.161A35.675,35.675,0,0,0,16.124,49.685a.974.974,0,0,1-1.408.822l-5.985-2.99a1.581,1.581,0,0,0-1.439,0L1.415,50.454A.98.98,0,0,1,0,49.535,51.79,51.79,0,0,1,48.6,0l3.98,7.96Z" transform="translate(0 0)" fill="#1565c0"/>
      <path id="Trazado_116478-2" data-name="Trazado 116478" d="M48.477,16.161A35.675,35.675,0,0,0,16.124,49.685a.974.974,0,0,1-1.408.822l-5.985-2.99a1.581,1.581,0,0,0-1.439,0L1.415,50.454A.98.98,0,0,1,0,49.535,51.79,51.79,0,0,1,48.6,0l3.98,7.96Z" transform="translate(0 0)" fill="#1565c0" opacity="0.6"/>
    </g>
    <g id="Grupo_179377" data-name="Grupo 179377" transform="matrix(0.819, -0.574, 0.574, 0.819, -8944.277, -9091.723)">
      <path id="Trazado_116479-2" data-name="Trazado 116479" d="M34.454,48.476A35.675,35.675,0,0,0,.926,16.124.974.974,0,0,1,.1,14.715L3.1,8.731a1.627,1.627,0,0,0,0-1.445L.163,1.416A.98.98,0,0,1,1.081,0,51.8,51.8,0,0,1,50.616,48.595l-7.96,3.98Z" transform="translate(0 0)" fill="#148cc6"/>
      <path id="Trazado_116480-2" data-name="Trazado 116480" d="M34.454,48.476A35.675,35.675,0,0,0,.926,16.124.974.974,0,0,1,.1,14.715L3.1,8.731a1.627,1.627,0,0,0,0-1.445L.163,1.416A.98.98,0,0,1,1.081,0,51.8,51.8,0,0,1,50.616,48.595l-7.96,3.98Z" transform="translate(0 0)" fill="#148cc6" opacity="0.4"/>
    </g>
    <path id="Trazado_232136" data-name="Trazado 232136" d="M0,0H94.917V28.343H0Z" transform="translate(-8967.386 -8914.111)" fill="#4dd0e1"/>
    <path id="Trazado_232137" data-name="Trazado 232137" d="M0,0H78.438V28.343H0Z" transform="translate(-9182.267 -8914.111)" fill="#4dd0e1"/>
    <path id="Trazado_232138" data-name="Trazado 232138" d="M0,0H78.438V28.343H0Z" transform="translate(-9198.086 -8945.75)" fill="#4dd0e1"/>
    <path id="Trazado_232139" data-name="Trazado 232139" d="M0,0H78.438V28.343H0Z" transform="translate(-9198.086 -8977.389)" fill="#4dd0e1"/>
    <path id="Trazado_232140" data-name="Trazado 232140" d="M0,0H78.438V28.343H0Z" transform="translate(-9198.086 -9009.028)" fill="#4dd0e1"/>
    <path id="Trazado_232141" data-name="Trazado 232141" d="M0,0H74.483V28.343H0Z" transform="translate(-8721.524 -8914.111)" fill="#4dd0e1"/>
    <path id="Trazado_232142" data-name="Trazado 232142" d="M-14.319-2.834a1.056,1.056,0,0,0-.4-.879,4.961,4.961,0,0,0-1.4-.652,13.456,13.456,0,0,1-1.641-.652,3.107,3.107,0,0,1-2.073-2.8,2.509,2.509,0,0,1,.516-1.564,3.34,3.34,0,0,1,1.461-1.055,5.686,5.686,0,0,1,2.124-.377,4.974,4.974,0,0,1,2.062.41,3.264,3.264,0,0,1,1.417,1.168A3.051,3.051,0,0,1-11.748-7.5h-2.563a1.289,1.289,0,0,0-.4-1.011,1.556,1.556,0,0,0-1.08-.359,1.755,1.755,0,0,0-1.088.3.932.932,0,0,0-.4.773.939.939,0,0,0,.439.743,5.542,5.542,0,0,0,1.545.688,9.467,9.467,0,0,1,1.816.765,3.052,3.052,0,0,1,1.729,2.747A2.6,2.6,0,0,1-12.8-.652a4.691,4.691,0,0,1-2.893.8,5.74,5.74,0,0,1-2.347-.465,3.539,3.539,0,0,1-1.582-1.274,3.321,3.321,0,0,1-.531-1.864h2.578a1.635,1.635,0,0,0,.443,1.263,2.094,2.094,0,0,0,1.439.406,1.655,1.655,0,0,0,1.007-.275A.907.907,0,0,0-14.319-2.834ZM-3.186-3.9A4.779,4.779,0,0,1-4.017-.956,2.665,2.665,0,0,1-6.262.146a2.285,2.285,0,0,1-1.794-.8v3.7h-2.468V-7.925h2.307l.073.732a2.285,2.285,0,0,1,1.868-.879A2.687,2.687,0,0,1-4-6.991a4.838,4.838,0,0,1,.813,2.97Zm-2.468-.154q0-2.109-1.23-2.109a1.162,1.162,0,0,0-1.172.63v3.12a1.2,1.2,0,0,0,1.187.659q1.179,0,1.216-2.036ZM2.7-5.691,1.882-5.75a1.46,1.46,0,0,0-1.494.732V0H-2.08V-7.925H.234L.315-6.907A1.911,1.911,0,0,1,2.051-8.071a2.407,2.407,0,0,1,.688.088ZM6.189,0H3.713V-7.925H6.189ZM3.567-9.976a1.111,1.111,0,0,1,.381-.87,1.432,1.432,0,0,1,.989-.339,1.432,1.432,0,0,1,.989.339,1.111,1.111,0,0,1,.381.87,1.111,1.111,0,0,1-.381.87,1.432,1.432,0,0,1-.989.339,1.432,1.432,0,0,1-.989-.339A1.111,1.111,0,0,1,3.567-9.976ZM9.976-7.925l.081.93a2.687,2.687,0,0,1,2.263-1.077,2.261,2.261,0,0,1,1.849.74A3.522,3.522,0,0,1,14.8-5.1V0H12.327V-5a1.337,1.337,0,0,0-.242-.883,1.118,1.118,0,0,0-.879-.282,1.177,1.177,0,0,0-1.077.571V0H7.661V-7.925ZM19.043-9.9v1.97h1.3v1.714h-1.3v3.625a.926.926,0,0,0,.161.623.864.864,0,0,0,.637.176,3.621,3.621,0,0,0,.615-.044V-.066a4.555,4.555,0,0,1-1.392.212,2.586,2.586,0,0,1-1.882-.6,2.462,2.462,0,0,1-.608-1.824V-6.211H15.564V-7.925h1.011V-9.9Zm-60.48,17.53h1.165A1.211,1.211,0,0,0-38.888,6.28a1.172,1.172,0,0,0-.33-.861,1.25,1.25,0,0,0-.93-.333A1.338,1.338,0,0,0-41,5.372a.871.871,0,0,0-.363.71h-2.468a2.527,2.527,0,0,1,.469-1.5,3.1,3.1,0,0,1,1.3-1.029,4.445,4.445,0,0,1,1.827-.37,4.367,4.367,0,0,1,2.8.813A2.7,2.7,0,0,1-36.42,6.229a2.253,2.253,0,0,1-.421,1.3,3,3,0,0,1-1.227.992,2.867,2.867,0,0,1,1.333.934A2.459,2.459,0,0,1-36.251,11a2.752,2.752,0,0,1-1.1,2.285,4.56,4.56,0,0,1-2.886.857,4.729,4.729,0,0,1-1.945-.4,3.047,3.047,0,0,1-1.359-1.106A2.875,2.875,0,0,1-44,11.034h2.483a1.111,1.111,0,0,0,.4.85,1.4,1.4,0,0,0,.974.359,1.463,1.463,0,0,0,1.04-.363,1.212,1.212,0,0,0,.388-.927,1.417,1.417,0,0,0-.4-1.143,1.684,1.684,0,0,0-1.113-.337h-1.2Zm11.294,2.717h-4.4v-1.9h4.4Zm8.4-.52h1.084v1.9h-1.084V14H-24.21V11.737h-4.124l-.146-1.509,4.27-6.87V3.336h2.468Zm-4.387,0h1.919V6.551l-.154.249Zm14.48,1.941a.57.57,0,0,0-.33-.505,5.013,5.013,0,0,0-1.252-.4,5.711,5.711,0,0,1-1.523-.538,2.552,2.552,0,0,1-.916-.809,1.933,1.933,0,0,1-.315-1.091,2.19,2.19,0,0,1,.9-1.8,3.711,3.711,0,0,1,2.358-.707,4.112,4.112,0,0,1,2.52.71,2.222,2.222,0,0,1,.952,1.868H-11.73q0-.952-1-.952a1,1,0,0,0-.652.216.669.669,0,0,0-.264.538.614.614,0,0,0,.322.535,3.045,3.045,0,0,0,1.029.337,8.893,8.893,0,0,1,1.241.315,2.255,2.255,0,0,1,1.787,2.2,2.075,2.075,0,0,1-.963,1.765,4.224,4.224,0,0,1-2.494.681,4.31,4.31,0,0,1-1.816-.366,3.037,3.037,0,0,1-1.245-1,2.256,2.256,0,0,1-.447-1.326h2.307a.954.954,0,0,0,.366.8,1.506,1.506,0,0,0,.9.253,1.185,1.185,0,0,0,.758-.205A.656.656,0,0,0-11.649,11.773Zm7.368,2.373a4.074,4.074,0,0,1-2.952-1.088,3.756,3.756,0,0,1-1.128-2.831v-.205a4.867,4.867,0,0,1,.45-2.146A3.3,3.3,0,0,1-6.6,6.438a3.969,3.969,0,0,1,2.051-.509A3.43,3.43,0,0,1-1.908,6.965,4.073,4.073,0,0,1-.941,9.854v.959H-5.848a1.779,1.779,0,0,0,.579,1.047,1.722,1.722,0,0,0,1.157.381,2.218,2.218,0,0,0,1.831-.82l1.128,1.333a3.153,3.153,0,0,1-1.307,1.014A4.418,4.418,0,0,1-4.281,14.146Zm-.278-6.313q-1.084,0-1.289,1.436h2.49v-.19a1.223,1.223,0,0,0-.3-.919A1.2,1.2,0,0,0-4.559,7.833ZM2.384,6.075l.081.93A2.725,2.725,0,0,1,4.728,5.929,2.006,2.006,0,0,1,6.757,7.123,2.637,2.637,0,0,1,9.086,5.929q2.41,0,2.476,2.915V14H9.086V9a1.511,1.511,0,0,0-.205-.886.873.873,0,0,0-.747-.278,1.169,1.169,0,0,0-1.091.652l.007.1V14H4.574V9.012a1.588,1.588,0,0,0-.2-.9.87.87,0,0,0-.754-.278,1.184,1.184,0,0,0-1.084.652V14H.07V6.075ZM17.435,14a2.787,2.787,0,0,1-.234-.71,2.3,2.3,0,0,1-1.9.857,2.812,2.812,0,0,1-1.9-.677,2.156,2.156,0,0,1-.784-1.7,2.216,2.216,0,0,1,.952-1.948,4.851,4.851,0,0,1,2.769-.659h.762v-.42q0-1.1-.945-1.1a.772.772,0,0,0-.879.868H12.8a2.213,2.213,0,0,1,.978-1.865,4.109,4.109,0,0,1,2.494-.717,3.6,3.6,0,0,1,2.4.74,2.572,2.572,0,0,1,.9,2.029v3.508a3.593,3.593,0,0,0,.337,1.67V14ZM15.89,12.389a1.377,1.377,0,0,0,.765-.2,1.239,1.239,0,0,0,.436-.447V10.477h-.718q-1.289,0-1.289,1.157a.707.707,0,0,0,.227.546A.822.822,0,0,0,15.89,12.389ZM23.2,6.075l.081.93a2.687,2.687,0,0,1,2.263-1.077,2.261,2.261,0,0,1,1.849.74A3.522,3.522,0,0,1,28.026,8.9V14H25.551V9a1.337,1.337,0,0,0-.242-.883,1.118,1.118,0,0,0-.879-.282,1.177,1.177,0,0,0-1.077.571V14H20.885V6.075ZM33.856,14a2.787,2.787,0,0,1-.234-.71,2.3,2.3,0,0,1-1.9.857,2.812,2.812,0,0,1-1.9-.677,2.156,2.156,0,0,1-.784-1.7,2.216,2.216,0,0,1,.952-1.948,4.851,4.851,0,0,1,2.769-.659h.762v-.42q0-1.1-.945-1.1a.772.772,0,0,0-.879.868H29.22A2.213,2.213,0,0,1,30.2,6.646a4.109,4.109,0,0,1,2.494-.717,3.6,3.6,0,0,1,2.4.74,2.572,2.572,0,0,1,.9,2.029v3.508a3.593,3.593,0,0,0,.337,1.67V14Zm-1.545-1.611a1.377,1.377,0,0,0,.765-.2,1.239,1.239,0,0,0,.436-.447V10.477h-.718q-1.289,0-1.289,1.157a.707.707,0,0,0,.227.546A.822.822,0,0,0,32.311,12.389Zm9.192-.615a.57.57,0,0,0-.33-.505,5.013,5.013,0,0,0-1.252-.4,5.711,5.711,0,0,1-1.523-.538,2.552,2.552,0,0,1-.916-.809,1.933,1.933,0,0,1-.315-1.091,2.19,2.19,0,0,1,.9-1.8,3.711,3.711,0,0,1,2.358-.707,4.112,4.112,0,0,1,2.52.71A2.222,2.222,0,0,1,43.9,8.507H41.422q0-.952-1-.952a1,1,0,0,0-.652.216.669.669,0,0,0-.264.538.614.614,0,0,0,.322.535,3.045,3.045,0,0,0,1.029.337A8.893,8.893,0,0,1,42.1,9.5a2.255,2.255,0,0,1,1.787,2.2,2.075,2.075,0,0,1-.963,1.765,4.224,4.224,0,0,1-2.494.681,4.31,4.31,0,0,1-1.816-.366,3.037,3.037,0,0,1-1.245-1,2.256,2.256,0,0,1-.447-1.326h2.307a.954.954,0,0,0,.366.8,1.506,1.506,0,0,0,.9.253,1.185,1.185,0,0,0,.758-.205A.656.656,0,0,0,41.5,11.773Z" transform="translate(-8850.355 -8980.572)" fill="#12263f"/>
    <path id="Trazado_232143" data-name="Trazado 232143" d="M-24.441-3.772h-1.392V0H-28.4V-10.664h4.2a4.684,4.684,0,0,1,2.966.841,2.851,2.851,0,0,1,1.069,2.378,3.462,3.462,0,0,1-.45,1.844,3.2,3.2,0,0,1-1.41,1.185L-19.8-.11V0h-2.754ZM-25.833-5.75h1.626a1.459,1.459,0,0,0,1.1-.385,1.49,1.49,0,0,0,.37-1.076,1.508,1.508,0,0,0-.374-1.083,1.446,1.446,0,0,0-1.1-.393h-1.626ZM-14.9.146A4.074,4.074,0,0,1-17.849-.941a3.756,3.756,0,0,1-1.128-2.831v-.205a4.867,4.867,0,0,1,.45-2.146,3.3,3.3,0,0,1,1.315-1.439,3.969,3.969,0,0,1,2.051-.509,3.43,3.43,0,0,1,2.637,1.036,4.073,4.073,0,0,1,.967,2.889v.959h-4.907a1.779,1.779,0,0,0,.579,1.047,1.722,1.722,0,0,0,1.157.381,2.218,2.218,0,0,0,1.831-.82l1.128,1.333A3.153,3.153,0,0,1-13.077-.231,4.418,4.418,0,0,1-14.9.146Zm-.278-6.313q-1.084,0-1.289,1.436h2.49v-.19a1.223,1.223,0,0,0-.3-.919A1.2,1.2,0,0,0-15.176-6.167ZM-7.5-2.937l1.252-4.988h2.6L-6.233,0h-2.52l-2.585-7.925H-8.73ZM-.308,0H-2.783V-7.925H-.308ZM-2.93-9.976a1.111,1.111,0,0,1,.381-.87,1.432,1.432,0,0,1,.989-.339,1.432,1.432,0,0,1,.989.339,1.111,1.111,0,0,1,.381.87,1.111,1.111,0,0,1-.381.87,1.432,1.432,0,0,1-.989.339,1.432,1.432,0,0,1-.989-.339A1.111,1.111,0,0,1-2.93-9.976ZM5.361-2.227a.57.57,0,0,0-.33-.505,5.013,5.013,0,0,0-1.252-.4,5.711,5.711,0,0,1-1.523-.538,2.552,2.552,0,0,1-.916-.809,1.933,1.933,0,0,1-.315-1.091,2.19,2.19,0,0,1,.9-1.8,3.711,3.711,0,0,1,2.358-.707,4.112,4.112,0,0,1,2.52.71,2.222,2.222,0,0,1,.952,1.868H5.281q0-.952-1-.952a1,1,0,0,0-.652.216.669.669,0,0,0-.264.538.614.614,0,0,0,.322.535,3.045,3.045,0,0,0,1.029.337A8.893,8.893,0,0,1,5.955-4.5,2.255,2.255,0,0,1,7.742-2.3,2.075,2.075,0,0,1,6.779-.535,4.224,4.224,0,0,1,4.285.146,4.31,4.31,0,0,1,2.468-.22a3.037,3.037,0,0,1-1.245-1A2.256,2.256,0,0,1,.776-2.542H3.083a.954.954,0,0,0,.366.8,1.506,1.506,0,0,0,.9.253,1.185,1.185,0,0,0,.758-.205A.656.656,0,0,0,5.361-2.227ZM11.5,0H9.023V-7.925H11.5ZM8.877-9.976a1.111,1.111,0,0,1,.381-.87,1.432,1.432,0,0,1,.989-.339,1.432,1.432,0,0,1,.989.339,1.111,1.111,0,0,1,.381.87,1.111,1.111,0,0,1-.381.87,1.432,1.432,0,0,1-.989.339,1.432,1.432,0,0,1-.989-.339A1.111,1.111,0,0,1,8.877-9.976Zm3.831,5.94a4.677,4.677,0,0,1,.461-2.113,3.3,3.3,0,0,1,1.326-1.425,3.993,3.993,0,0,1,2.029-.5,3.644,3.644,0,0,1,2.805,1.1,4.23,4.23,0,0,1,1.025,3v.088A4.1,4.1,0,0,1,19.325-.941,3.654,3.654,0,0,1,16.538.146,3.7,3.7,0,0,1,13.821-.868a3.968,3.968,0,0,1-1.106-2.75Zm2.468.154a2.949,2.949,0,0,0,.344,1.611,1.147,1.147,0,0,0,1.018.513q1.318,0,1.348-2.029v-.249q0-2.131-1.362-2.131-1.238,0-1.34,1.838ZM16.86-11.25h2.607l-2.036,2.3-2.014,0Zm6.848,3.325.081.93a2.687,2.687,0,0,1,2.263-1.077,2.261,2.261,0,0,1,1.849.74A3.522,3.522,0,0,1,28.535-5.1V0H26.06V-5a1.337,1.337,0,0,0-.242-.883,1.118,1.118,0,0,0-.879-.282,1.177,1.177,0,0,0-1.077.571V0H21.394V-7.925Zm-50.53,20.167a1.1,1.1,0,0,0,.806-.282,1.034,1.034,0,0,0,.278-.787h2.314a2.74,2.74,0,0,1-.934,2.139,3.474,3.474,0,0,1-2.406.835,3.517,3.517,0,0,1-2.725-1.084,4.271,4.271,0,0,1-1-3v-.1a4.827,4.827,0,0,1,.443-2.12,3.226,3.226,0,0,1,1.278-1.414,3.811,3.811,0,0,1,1.978-.494,3.43,3.43,0,0,1,2.454.857,3.039,3.039,0,0,1,.908,2.322h-2.314a1.355,1.355,0,0,0-.3-.945,1.037,1.037,0,0,0-.806-.33q-.959,0-1.121,1.223a8.631,8.631,0,0,0-.051,1.069,3.39,3.39,0,0,0,.286,1.655A.989.989,0,0,0-26.821,12.242ZM-17.915,14a2.787,2.787,0,0,1-.234-.71,2.3,2.3,0,0,1-1.9.857,2.812,2.812,0,0,1-1.9-.677,2.156,2.156,0,0,1-.784-1.7,2.216,2.216,0,0,1,.952-1.948,4.851,4.851,0,0,1,2.769-.659h.762v-.42q0-1.1-.945-1.1a.772.772,0,0,0-.879.868h-2.468a2.213,2.213,0,0,1,.978-1.865,4.109,4.109,0,0,1,2.494-.717,3.6,3.6,0,0,1,2.4.74,2.572,2.572,0,0,1,.9,2.029v3.508a3.593,3.593,0,0,0,.337,1.67V14Zm-1.545-1.611a1.377,1.377,0,0,0,.765-.2,1.239,1.239,0,0,0,.436-.447V10.477h-.718q-1.289,0-1.289,1.157a.707.707,0,0,0,.227.546A.822.822,0,0,0-19.46,12.389Zm4.731-2.41a4.841,4.841,0,0,1,.813-2.966,2.676,2.676,0,0,1,2.271-1.084,2.276,2.276,0,0,1,1.787.835V2.75h2.476V14H-9.6l-.125-.85a2.337,2.337,0,0,1-1.934,1A2.671,2.671,0,0,1-13.9,13.063,4.994,4.994,0,0,1-14.729,9.979Zm2.468.154q0,2.109,1.23,2.109a1.215,1.215,0,0,0,1.172-.688V8.536a1.182,1.182,0,0,0-1.157-.7q-1.143,0-1.238,1.846ZM-1.516,14a2.787,2.787,0,0,1-.234-.71,2.3,2.3,0,0,1-1.9.857,2.812,2.812,0,0,1-1.9-.677,2.156,2.156,0,0,1-.784-1.7,2.216,2.216,0,0,1,.952-1.948,4.851,4.851,0,0,1,2.769-.659h.762v-.42q0-1.1-.945-1.1a.772.772,0,0,0-.879.868H-6.152a2.213,2.213,0,0,1,.978-1.865,4.109,4.109,0,0,1,2.494-.717,3.6,3.6,0,0,1,2.4.74A2.572,2.572,0,0,1,.615,8.7v3.508a3.593,3.593,0,0,0,.337,1.67V14Zm-1.545-1.611a1.377,1.377,0,0,0,.765-.2,1.239,1.239,0,0,0,.436-.447V10.477h-.718q-1.289,0-1.289,1.157a.707.707,0,0,0,.227.546A.822.822,0,0,0-3.062,12.389ZM13.118,14H5.676V12.389L9.1,8.785a4.091,4.091,0,0,0,1.267-2.292,1.6,1.6,0,0,0-.3-1.047A1.072,1.072,0,0,0,9.2,5.086a1.086,1.086,0,0,0-.916.48,1.972,1.972,0,0,0-.352,1.2H5.457a3.5,3.5,0,0,1,.491-1.813,3.441,3.441,0,0,1,1.362-1.3,4.047,4.047,0,0,1,1.948-.469,3.981,3.981,0,0,1,2.662.8,2.85,2.85,0,0,1,.934,2.292A3.329,3.329,0,0,1,12.62,7.5a5.38,5.38,0,0,1-.729,1.252A18.358,18.358,0,0,1,10.3,10.506L8.921,12.1h4.2Zm7.764-4.167h1.084v1.9H20.881V14H18.413V11.737H14.29l-.146-1.509,4.27-6.87V3.336h2.468Zm-4.387,0h1.919V6.551l-.154.249ZM25.5,6.925a2.709,2.709,0,0,1,4-.22A3.488,3.488,0,0,1,30.183,9v5H27.708V9.056a1.4,1.4,0,0,0-.256-.927,1.1,1.1,0,0,0-.872-.3,1.186,1.186,0,0,0-1.077.483V14H23.035V2.75H25.5Z" transform="translate(-8998.436 -9096.582)" fill="#12263f"/>
    <path id="Trazado_232144" data-name="Trazado 232144" d="M-13.594-8.679h-3.2V0h-2.571V-8.679h-3.142v-1.985h8.914ZM-9.39,0a2.787,2.787,0,0,1-.234-.71,2.3,2.3,0,0,1-1.9.857,2.812,2.812,0,0,1-1.9-.677,2.156,2.156,0,0,1-.784-1.7,2.216,2.216,0,0,1,.952-1.948A4.851,4.851,0,0,1-10.5-4.841h.762v-.42q0-1.1-.945-1.1a.772.772,0,0,0-.879.868h-2.468a2.213,2.213,0,0,1,.978-1.865,4.109,4.109,0,0,1,2.494-.717,3.6,3.6,0,0,1,2.4.74,2.572,2.572,0,0,1,.9,2.029v3.508a3.593,3.593,0,0,0,.337,1.67V0Zm-1.545-1.611a1.377,1.377,0,0,0,.765-.2,1.239,1.239,0,0,0,.436-.447V-3.523h-.718q-1.289,0-1.289,1.157a.707.707,0,0,0,.227.546A.822.822,0,0,0-10.935-1.611ZM-1.1-5.691l-.813-.059a1.46,1.46,0,0,0-1.494.732V0H-5.874V-7.925H-3.56l.081,1.018A1.911,1.911,0,0,1-1.743-8.071a2.407,2.407,0,0,1,.688.088ZM3.486.146A4.074,4.074,0,0,1,.535-.941,3.756,3.756,0,0,1-.593-3.772v-.205a4.867,4.867,0,0,1,.45-2.146A3.3,3.3,0,0,1,1.172-7.562a3.969,3.969,0,0,1,2.051-.509A3.43,3.43,0,0,1,5.859-7.035a4.073,4.073,0,0,1,.967,2.889v.959H1.919A1.779,1.779,0,0,0,2.5-2.139a1.722,1.722,0,0,0,1.157.381,2.218,2.218,0,0,0,1.831-.82L6.614-1.245A3.153,3.153,0,0,1,5.306-.231,4.418,4.418,0,0,1,3.486.146ZM3.208-6.167q-1.084,0-1.289,1.436h2.49v-.19a1.223,1.223,0,0,0-.3-.919A1.2,1.2,0,0,0,3.208-6.167ZM12.283,0a2.787,2.787,0,0,1-.234-.71,2.3,2.3,0,0,1-1.9.857,2.812,2.812,0,0,1-1.9-.677,2.156,2.156,0,0,1-.784-1.7,2.216,2.216,0,0,1,.952-1.948,4.851,4.851,0,0,1,2.769-.659h.762v-.42q0-1.1-.945-1.1a.772.772,0,0,0-.879.868H7.646a2.213,2.213,0,0,1,.978-1.865,4.109,4.109,0,0,1,2.494-.717,3.6,3.6,0,0,1,2.4.74,2.572,2.572,0,0,1,.9,2.029v3.508a3.593,3.593,0,0,0,.337,1.67V0ZM10.737-1.611a1.377,1.377,0,0,0,.765-.2,1.239,1.239,0,0,0,.436-.447V-3.523h-.718q-1.289,0-1.289,1.157a.707.707,0,0,0,.227.546A.822.822,0,0,0,10.737-1.611Zm9.192-.615a.57.57,0,0,0-.33-.505,5.013,5.013,0,0,0-1.252-.4,5.711,5.711,0,0,1-1.523-.538,2.552,2.552,0,0,1-.916-.809,1.933,1.933,0,0,1-.315-1.091,2.19,2.19,0,0,1,.9-1.8,3.711,3.711,0,0,1,2.358-.707,4.112,4.112,0,0,1,2.52.71,2.222,2.222,0,0,1,.952,1.868H19.849q0-.952-1-.952a1,1,0,0,0-.652.216.669.669,0,0,0-.264.538.614.614,0,0,0,.322.535,3.045,3.045,0,0,0,1.029.337,8.893,8.893,0,0,1,1.241.315A2.255,2.255,0,0,1,22.31-2.3a2.075,2.075,0,0,1-.963,1.765,4.224,4.224,0,0,1-2.494.681A4.31,4.31,0,0,1,17.036-.22a3.037,3.037,0,0,1-1.245-1,2.256,2.256,0,0,1-.447-1.326h2.307a.954.954,0,0,0,.366.8,1.506,1.506,0,0,0,.9.253,1.185,1.185,0,0,0,.758-.205A.656.656,0,0,0,19.929-2.227ZM-31.622,8.979a4.841,4.841,0,0,1,.813-2.966,2.676,2.676,0,0,1,2.271-1.084,2.276,2.276,0,0,1,1.787.835V1.75h2.476V13H-26.5l-.125-.85a2.337,2.337,0,0,1-1.934,1,2.671,2.671,0,0,1-2.241-1.084A4.994,4.994,0,0,1-31.622,8.979Zm2.468.154q0,2.109,1.23,2.109a1.215,1.215,0,0,0,1.172-.688V7.536a1.182,1.182,0,0,0-1.157-.7q-1.143,0-1.238,1.846Zm10.115,4.014a4.074,4.074,0,0,1-2.952-1.088,3.756,3.756,0,0,1-1.128-2.831V9.023a4.867,4.867,0,0,1,.45-2.146,3.3,3.3,0,0,1,1.315-1.439A3.969,3.969,0,0,1-19.3,4.929a3.43,3.43,0,0,1,2.637,1.036A4.073,4.073,0,0,1-15.7,8.854v.959h-4.907a1.779,1.779,0,0,0,.579,1.047,1.722,1.722,0,0,0,1.157.381,2.218,2.218,0,0,0,1.831-.82l1.128,1.333a3.153,3.153,0,0,1-1.307,1.014A4.418,4.418,0,0,1-19.039,13.146Zm-.278-6.313q-1.084,0-1.289,1.436h2.49v-.19a1.223,1.223,0,0,0-.3-.919A1.2,1.2,0,0,0-19.318,6.833ZM-12.1,13h-2.476V1.75H-12.1Zm9.4-2.227a.57.57,0,0,0-.33-.505,5.013,5.013,0,0,0-1.252-.4A5.711,5.711,0,0,1-5.8,9.334a2.552,2.552,0,0,1-.916-.809,1.933,1.933,0,0,1-.315-1.091,2.19,2.19,0,0,1,.9-1.8,3.711,3.711,0,0,1,2.358-.707,4.112,4.112,0,0,1,2.52.71A2.222,2.222,0,0,1-.3,7.507H-2.78q0-.952-1-.952a1,1,0,0,0-.652.216.669.669,0,0,0-.264.538.614.614,0,0,0,.322.535,3.045,3.045,0,0,0,1.029.337A8.893,8.893,0,0,1-2.106,8.5,2.255,2.255,0,0,1-.319,10.7a2.075,2.075,0,0,1-.963,1.765,4.224,4.224,0,0,1-2.494.681,4.31,4.31,0,0,1-1.816-.366,3.037,3.037,0,0,1-1.245-1,2.256,2.256,0,0,1-.447-1.326h2.307a.954.954,0,0,0,.366.8,1.506,1.506,0,0,0,.9.253,1.185,1.185,0,0,0,.758-.205A.656.656,0,0,0-2.7,10.773ZM8.192,9.1a4.779,4.779,0,0,1-.831,2.948,2.665,2.665,0,0,1-2.245,1.1,2.285,2.285,0,0,1-1.794-.8v3.7H.853V5.075H3.16l.073.732A2.285,2.285,0,0,1,5.1,4.929a2.687,2.687,0,0,1,2.278,1.08,4.838,4.838,0,0,1,.813,2.97ZM5.724,8.942q0-2.109-1.23-2.109a1.162,1.162,0,0,0-1.172.63v3.12a1.2,1.2,0,0,0,1.187.659q1.179,0,1.216-2.036Zm8.35-1.633L13.26,7.25a1.46,1.46,0,0,0-1.494.732V13H9.3V5.075h2.314l.081,1.018a1.911,1.911,0,0,1,1.736-1.165,2.407,2.407,0,0,1,.688.088ZM17.567,13H15.092V5.075h2.476ZM14.945,3.024a1.111,1.111,0,0,1,.381-.87,1.612,1.612,0,0,1,1.978,0,1.111,1.111,0,0,1,.381.87,1.111,1.111,0,0,1-.381.87,1.612,1.612,0,0,1-1.978,0A1.111,1.111,0,0,1,14.945,3.024Zm6.409,2.051.081.93A2.687,2.687,0,0,1,23.7,4.929a2.261,2.261,0,0,1,1.849.74A3.522,3.522,0,0,1,26.18,7.9V13H23.7V8a1.337,1.337,0,0,0-.242-.883,1.118,1.118,0,0,0-.879-.282,1.177,1.177,0,0,0-1.077.571V13H19.039V5.075ZM30.421,3.1v1.97h1.3V6.789h-1.3v3.625a.926.926,0,0,0,.161.623.864.864,0,0,0,.637.176,3.621,3.621,0,0,0,.615-.044v1.765a4.555,4.555,0,0,1-1.392.212,2.586,2.586,0,0,1-1.882-.6,2.462,2.462,0,0,1-.608-1.824V6.789H26.942V5.075h1.011V3.1Z" transform="translate(-9009.004 -8944.66)" fill="#12263f"/>
    <path id="Trazado_232145" data-name="Trazado 232145" d="M-30.385,0h-2.563V-10.664h2.563Zm4.548-9.9v1.97h1.3v1.714h-1.3v3.625a.926.926,0,0,0,.161.623.864.864,0,0,0,.637.176,3.621,3.621,0,0,0,.615-.044V-.066a4.555,4.555,0,0,1-1.392.212,2.586,2.586,0,0,1-1.882-.6A2.462,2.462,0,0,1-28.3-2.278V-6.211h-1.011V-7.925H-28.3V-9.9ZM-19.728.146A4.074,4.074,0,0,1-22.679-.941a3.756,3.756,0,0,1-1.128-2.831v-.205a4.867,4.867,0,0,1,.45-2.146,3.3,3.3,0,0,1,1.315-1.439,3.969,3.969,0,0,1,2.051-.509,3.43,3.43,0,0,1,2.637,1.036,4.073,4.073,0,0,1,.967,2.889v.959H-21.3a1.779,1.779,0,0,0,.579,1.047,1.722,1.722,0,0,0,1.157.381,2.218,2.218,0,0,0,1.831-.82L-16.6-1.245A3.153,3.153,0,0,1-17.908-.231,4.418,4.418,0,0,1-19.728.146Zm-.278-6.313q-1.084,0-1.289,1.436h2.49v-.19a1.223,1.223,0,0,0-.3-.919A1.2,1.2,0,0,0-20.006-6.167Zm9.4.476-.813-.059a1.46,1.46,0,0,0-1.494.732V0h-2.468V-7.925h2.314l.081,1.018a1.911,1.911,0,0,1,1.736-1.165,2.407,2.407,0,0,1,.688.088ZM-5.468,0A2.787,2.787,0,0,1-5.7-.71a2.3,2.3,0,0,1-1.9.857,2.812,2.812,0,0,1-1.9-.677,2.156,2.156,0,0,1-.784-1.7,2.216,2.216,0,0,1,.952-1.948,4.851,4.851,0,0,1,2.769-.659h.762v-.42q0-1.1-.945-1.1a.772.772,0,0,0-.879.868H-10.1a2.213,2.213,0,0,1,.978-1.865,4.109,4.109,0,0,1,2.494-.717,3.6,3.6,0,0,1,2.4.74,2.572,2.572,0,0,1,.9,2.029v3.508A3.593,3.593,0,0,0-3-.125V0ZM-7.013-1.611a1.377,1.377,0,0,0,.765-.2,1.239,1.239,0,0,0,.436-.447V-3.523H-6.53q-1.289,0-1.289,1.157a.707.707,0,0,0,.227.546A.822.822,0,0,0-7.013-1.611Zm8.394-.146a1.1,1.1,0,0,0,.806-.282,1.034,1.034,0,0,0,.278-.787H4.779A2.74,2.74,0,0,1,3.845-.688,3.474,3.474,0,0,1,1.439.146,3.517,3.517,0,0,1-1.285-.937a4.271,4.271,0,0,1-1-3v-.1a4.827,4.827,0,0,1,.443-2.12A3.226,3.226,0,0,1-.56-7.577a3.811,3.811,0,0,1,1.978-.494,3.43,3.43,0,0,1,2.454.857,3.039,3.039,0,0,1,.908,2.322H2.465a1.355,1.355,0,0,0-.3-.945,1.037,1.037,0,0,0-.806-.33Q.4-6.167.238-4.944A8.631,8.631,0,0,0,.187-3.875,3.39,3.39,0,0,0,.472-2.219.989.989,0,0,0,1.381-1.758Zm7.793,0a1.1,1.1,0,0,0,.806-.282,1.034,1.034,0,0,0,.278-.787h2.314a2.74,2.74,0,0,1-.934,2.139A3.474,3.474,0,0,1,9.232.146,3.517,3.517,0,0,1,6.508-.937a4.271,4.271,0,0,1-1-3v-.1a4.827,4.827,0,0,1,.443-2.12A3.226,3.226,0,0,1,7.233-7.577,3.811,3.811,0,0,1,9.21-8.071a3.43,3.43,0,0,1,2.454.857,3.039,3.039,0,0,1,.908,2.322H10.258a1.355,1.355,0,0,0-.3-.945,1.037,1.037,0,0,0-.806-.33q-.959,0-1.121,1.223A8.631,8.631,0,0,0,7.98-3.875a3.39,3.39,0,0,0,.286,1.655A.989.989,0,0,0,9.174-1.758ZM16.219,0H13.744V-7.925h2.476ZM13.6-9.976a1.111,1.111,0,0,1,.381-.87,1.432,1.432,0,0,1,.989-.339,1.432,1.432,0,0,1,.989.339,1.111,1.111,0,0,1,.381.87,1.111,1.111,0,0,1-.381.87,1.432,1.432,0,0,1-.989.339,1.432,1.432,0,0,1-.989-.339A1.111,1.111,0,0,1,13.6-9.976Zm3.831,5.94a4.677,4.677,0,0,1,.461-2.113,3.3,3.3,0,0,1,1.326-1.425,3.993,3.993,0,0,1,2.029-.5,3.644,3.644,0,0,1,2.805,1.1,4.23,4.23,0,0,1,1.025,3v.088A4.1,4.1,0,0,1,24.045-.941,3.654,3.654,0,0,1,21.259.146,3.7,3.7,0,0,1,18.541-.868a3.968,3.968,0,0,1-1.106-2.75Zm2.468.154a2.949,2.949,0,0,0,.344,1.611,1.147,1.147,0,0,0,1.018.513q1.318,0,1.348-2.029v-.249q0-2.131-1.362-2.131-1.238,0-1.34,1.838Zm1.685-7.368h2.607l-2.036,2.3-2.014,0Zm6.848,3.325.081.93a2.687,2.687,0,0,1,2.263-1.077,2.261,2.261,0,0,1,1.849.74A3.522,3.522,0,0,1,33.256-5.1V0H30.78V-5a1.337,1.337,0,0,0-.242-.883,1.118,1.118,0,0,0-.879-.282,1.177,1.177,0,0,0-1.077.571V0H26.115V-7.925Z" transform="translate(-8863.947 -8870.495)" fill="#12263f"/>
    <path id="Trazado_232146" data-name="Trazado 232146" d="M-35.149,0h-2.563V-10.664h2.563Zm3.94-7.925.081.93a2.687,2.687,0,0,1,2.263-1.077,2.261,2.261,0,0,1,1.849.74A3.522,3.522,0,0,1-26.382-5.1V0h-2.476V-5a1.337,1.337,0,0,0-.242-.883,1.118,1.118,0,0,0-.879-.282,1.177,1.177,0,0,0-1.077.571V0h-2.468V-7.925Zm9.543,6.167a1.1,1.1,0,0,0,.806-.282,1.034,1.034,0,0,0,.278-.787h2.314A2.74,2.74,0,0,1-19.2-.688a3.474,3.474,0,0,1-2.406.835A3.517,3.517,0,0,1-24.331-.937a4.271,4.271,0,0,1-1-3v-.1a4.827,4.827,0,0,1,.443-2.12,3.226,3.226,0,0,1,1.278-1.414,3.811,3.811,0,0,1,1.978-.494,3.43,3.43,0,0,1,2.454.857,3.039,3.039,0,0,1,.908,2.322h-2.314a1.355,1.355,0,0,0-.3-.945,1.037,1.037,0,0,0-.806-.33q-.959,0-1.121,1.223a8.631,8.631,0,0,0-.051,1.069,3.39,3.39,0,0,0,.286,1.655A.989.989,0,0,0-21.665-1.758Zm9.236-3.933-.813-.059a1.46,1.46,0,0,0-1.494.732V0H-17.2V-7.925h2.314l.081,1.018a1.911,1.911,0,0,1,1.736-1.165,2.407,2.407,0,0,1,.688.088ZM-7.844.146A4.074,4.074,0,0,1-10.8-.941a3.756,3.756,0,0,1-1.128-2.831v-.205a4.867,4.867,0,0,1,.45-2.146,3.3,3.3,0,0,1,1.315-1.439,3.969,3.969,0,0,1,2.051-.509A3.43,3.43,0,0,1-5.471-7.035,4.073,4.073,0,0,1-4.5-4.146v.959H-9.412a1.779,1.779,0,0,0,.579,1.047,1.722,1.722,0,0,0,1.157.381,2.218,2.218,0,0,0,1.831-.82l1.128,1.333A3.153,3.153,0,0,1-6.024-.231,4.418,4.418,0,0,1-7.844.146Zm-.278-6.313q-1.084,0-1.289,1.436h2.49v-.19a1.223,1.223,0,0,0-.3-.919A1.2,1.2,0,0,0-8.123-6.167Zm6.943-1.758.081.93A2.725,2.725,0,0,1,1.165-8.071,2.006,2.006,0,0,1,3.193-6.877,2.637,2.637,0,0,1,5.522-8.071q2.41,0,2.476,2.915V0H5.522V-5a1.511,1.511,0,0,0-.205-.886.873.873,0,0,0-.747-.278,1.169,1.169,0,0,0-1.091.652l.007.1V0H1.011V-4.988a1.588,1.588,0,0,0-.2-.9.87.87,0,0,0-.754-.278,1.184,1.184,0,0,0-1.084.652V0H-3.494V-7.925ZM13.242.146A4.074,4.074,0,0,1,10.291-.941,3.756,3.756,0,0,1,9.163-3.772v-.205a4.867,4.867,0,0,1,.45-2.146,3.3,3.3,0,0,1,1.315-1.439,3.969,3.969,0,0,1,2.051-.509,3.43,3.43,0,0,1,2.637,1.036,4.073,4.073,0,0,1,.967,2.889v.959H11.675a1.779,1.779,0,0,0,.579,1.047,1.722,1.722,0,0,0,1.157.381,2.218,2.218,0,0,0,1.831-.82L16.37-1.245A3.153,3.153,0,0,1,15.062-.231,4.418,4.418,0,0,1,13.242.146Zm-.278-6.313q-1.084,0-1.289,1.436h2.49v-.19a1.223,1.223,0,0,0-.3-.919A1.2,1.2,0,0,0,12.964-6.167Zm6.877-1.758.081.93a2.687,2.687,0,0,1,2.263-1.077,2.261,2.261,0,0,1,1.849.74A3.522,3.522,0,0,1,24.668-5.1V0H22.192V-5a1.337,1.337,0,0,0-.242-.883,1.118,1.118,0,0,0-.879-.282A1.177,1.177,0,0,0,20-5.6V0H17.527V-7.925ZM28.909-9.9v1.97h1.3v1.714h-1.3v3.625a.926.926,0,0,0,.161.623.864.864,0,0,0,.637.176,3.621,3.621,0,0,0,.615-.044V-.066a4.555,4.555,0,0,1-1.392.212,2.586,2.586,0,0,1-1.882-.6,2.462,2.462,0,0,1-.608-1.824V-6.211H25.43V-7.925H26.44V-9.9Zm1.743,5.859a4.677,4.677,0,0,1,.461-2.113,3.3,3.3,0,0,1,1.326-1.425,3.993,3.993,0,0,1,2.029-.5,3.644,3.644,0,0,1,2.805,1.1,4.23,4.23,0,0,1,1.025,3v.088A4.1,4.1,0,0,1,37.269-.941,3.654,3.654,0,0,1,34.482.146,3.7,3.7,0,0,1,31.765-.868a3.968,3.968,0,0,1-1.106-2.75Zm2.468.154a2.949,2.949,0,0,0,.344,1.611,1.147,1.147,0,0,0,1.018.513q1.318,0,1.348-2.029v-.249q0-2.131-1.362-2.131-1.238,0-1.34,1.838ZM-23.273,9.1a4.779,4.779,0,0,1-.831,2.948,2.665,2.665,0,0,1-2.245,1.1,2.285,2.285,0,0,1-1.794-.8v3.7h-2.468V5.075H-28.3l.073.732a2.285,2.285,0,0,1,1.868-.879,2.687,2.687,0,0,1,2.278,1.08,4.838,4.838,0,0,1,.813,2.97Zm-2.468-.154q0-2.109-1.23-2.109a1.162,1.162,0,0,0-1.172.63v3.12a1.2,1.2,0,0,0,1.187.659q1.179,0,1.216-2.036Zm3.245.022a4.677,4.677,0,0,1,.461-2.113,3.3,3.3,0,0,1,1.326-1.425,3.993,3.993,0,0,1,2.029-.5,3.644,3.644,0,0,1,2.805,1.1,4.23,4.23,0,0,1,1.025,3v.088a4.1,4.1,0,0,1-1.029,2.941,3.654,3.654,0,0,1-2.787,1.088,3.7,3.7,0,0,1-2.717-1.014,3.968,3.968,0,0,1-1.106-2.75Zm2.468.154a2.949,2.949,0,0,0,.344,1.611,1.147,1.147,0,0,0,1.018.513q1.318,0,1.348-2.029V8.964q0-2.131-1.362-2.131-1.238,0-1.34,1.838ZM-10.887,3.1v1.97h1.3V6.789h-1.3v3.625a.926.926,0,0,0,.161.623.864.864,0,0,0,.637.176,3.621,3.621,0,0,0,.615-.044v1.765a4.555,4.555,0,0,1-1.392.212,2.586,2.586,0,0,1-1.882-.6,2.462,2.462,0,0,1-.608-1.824V6.789h-1.011V5.075h1.011V3.1Zm6.108,10.042a4.074,4.074,0,0,1-2.952-1.088A3.756,3.756,0,0,1-8.859,9.228V9.023a4.867,4.867,0,0,1,.45-2.146A3.3,3.3,0,0,1-7.094,5.438a3.969,3.969,0,0,1,2.051-.509A3.43,3.43,0,0,1-2.406,5.965a4.073,4.073,0,0,1,.967,2.889v.959H-6.346a1.779,1.779,0,0,0,.579,1.047,1.722,1.722,0,0,0,1.157.381,2.218,2.218,0,0,0,1.831-.82l1.128,1.333a3.153,3.153,0,0,1-1.307,1.014A4.418,4.418,0,0,1-4.779,13.146Zm-.278-6.313q-1.084,0-1.289,1.436h2.49v-.19a1.223,1.223,0,0,0-.3-.919A1.2,1.2,0,0,0-5.057,6.833ZM1.82,5.075l.081.93A2.687,2.687,0,0,1,4.164,4.929a2.261,2.261,0,0,1,1.849.74A3.522,3.522,0,0,1,6.647,7.9V13H4.171V8a1.337,1.337,0,0,0-.242-.883,1.118,1.118,0,0,0-.879-.282A1.177,1.177,0,0,0,1.974,7.4V13H-.494V5.075Zm9.543,6.167a1.1,1.1,0,0,0,.806-.282,1.034,1.034,0,0,0,.278-.787h2.314a2.74,2.74,0,0,1-.934,2.139,3.474,3.474,0,0,1-2.406.835A3.517,3.517,0,0,1,8.7,12.063a4.271,4.271,0,0,1-1-3v-.1a4.827,4.827,0,0,1,.443-2.12A3.226,3.226,0,0,1,9.423,5.423,3.811,3.811,0,0,1,11.4,4.929a3.43,3.43,0,0,1,2.454.857,3.039,3.039,0,0,1,.908,2.322H12.448a1.355,1.355,0,0,0-.3-.945,1.037,1.037,0,0,0-.806-.33q-.959,0-1.121,1.223a8.631,8.631,0,0,0-.051,1.069,3.39,3.39,0,0,0,.286,1.655A.989.989,0,0,0,11.364,11.242ZM18.409,13H15.934V5.075h2.476ZM15.787,3.024a1.111,1.111,0,0,1,.381-.87,1.612,1.612,0,0,1,1.978,0,1.111,1.111,0,0,1,.381.87,1.111,1.111,0,0,1-.381.87,1.612,1.612,0,0,1-1.978,0A1.111,1.111,0,0,1,15.787,3.024ZM24.393,13a2.787,2.787,0,0,1-.234-.71,2.3,2.3,0,0,1-1.9.857,2.812,2.812,0,0,1-1.9-.677,2.156,2.156,0,0,1-.784-1.7,2.216,2.216,0,0,1,.952-1.948,4.851,4.851,0,0,1,2.769-.659h.762v-.42q0-1.1-.945-1.1a.772.772,0,0,0-.879.868H19.757a2.213,2.213,0,0,1,.978-1.865,4.109,4.109,0,0,1,2.494-.717,3.6,3.6,0,0,1,2.4.74,2.572,2.572,0,0,1,.9,2.029v3.508a3.593,3.593,0,0,0,.337,1.67V13Zm-1.545-1.611a1.377,1.377,0,0,0,.765-.2,1.239,1.239,0,0,0,.436-.447V9.477h-.718q-1.289,0-1.289,1.157a.707.707,0,0,0,.227.546A.822.822,0,0,0,22.848,11.389ZM30.494,13H28.019V1.75h2.476Zm-71.927,8.979a4.841,4.841,0,0,1,.813-2.966,2.676,2.676,0,0,1,2.271-1.084,2.276,2.276,0,0,1,1.787.835V14.75h2.476V26h-2.219l-.125-.85a2.337,2.337,0,0,1-1.934,1,2.671,2.671,0,0,1-2.241-1.084A4.994,4.994,0,0,1-41.433,21.979Zm2.468.154q0,2.109,1.23,2.109a1.215,1.215,0,0,0,1.172-.688V20.536a1.182,1.182,0,0,0-1.157-.7q-1.143,0-1.238,1.846Zm10.115,4.014A4.074,4.074,0,0,1-31.8,25.059a3.756,3.756,0,0,1-1.128-2.831v-.205a4.867,4.867,0,0,1,.45-2.146,3.3,3.3,0,0,1,1.315-1.439,3.969,3.969,0,0,1,2.051-.509,3.43,3.43,0,0,1,2.637,1.036,4.073,4.073,0,0,1,.967,2.889v.959h-4.907a1.779,1.779,0,0,0,.579,1.047,1.722,1.722,0,0,0,1.157.381,2.218,2.218,0,0,0,1.831-.82l1.128,1.333a3.153,3.153,0,0,1-1.307,1.014A4.418,4.418,0,0,1-28.85,26.146Zm-.278-6.313q-1.084,0-1.289,1.436h2.49v-.19a1.223,1.223,0,0,0-.3-.919A1.2,1.2,0,0,0-29.128,19.833ZM-21.914,26H-24.39V14.75h2.476ZM-9.3,22.1a4.779,4.779,0,0,1-.831,2.948,2.665,2.665,0,0,1-2.245,1.1,2.285,2.285,0,0,1-1.794-.8v3.7h-2.468V18.075h2.307l.073.732a2.285,2.285,0,0,1,1.868-.879,2.687,2.687,0,0,1,2.278,1.08,4.838,4.838,0,0,1,.813,2.97Zm-2.468-.154q0-2.109-1.23-2.109a1.162,1.162,0,0,0-1.172.63v3.12a1.2,1.2,0,0,0,1.187.659q1.179,0,1.216-2.036Zm8.35-1.633-.813-.059a1.46,1.46,0,0,0-1.494.732V26H-8.2V18.075h2.314l.081,1.018a1.911,1.911,0,0,1,1.736-1.165,2.407,2.407,0,0,1,.688.088Zm.315,1.655a4.677,4.677,0,0,1,.461-2.113,3.3,3.3,0,0,1,1.326-1.425,3.993,3.993,0,0,1,2.029-.5,3.644,3.644,0,0,1,2.805,1.1,4.23,4.23,0,0,1,1.025,3v.088a4.1,4.1,0,0,1-1.029,2.941A3.654,3.654,0,0,1,.725,26.146a3.7,3.7,0,0,1-2.717-1.014A3.968,3.968,0,0,1-3.1,22.382Zm2.468.154a2.949,2.949,0,0,0,.344,1.611,1.147,1.147,0,0,0,1.018.513q1.318,0,1.348-2.029v-.249q0-2.131-1.362-2.131-1.238,0-1.34,1.838Zm9.324.425L10,18.075h2.644l-3.23,9.25-.139.337A2.454,2.454,0,0,1,6.848,29.2a3.868,3.868,0,0,1-1.018-.146V27.3h.322a1.688,1.688,0,0,0,.795-.15.912.912,0,0,0,.406-.539l.2-.528-2.754-8H7.434Zm8.342,3.6a4.074,4.074,0,0,1-2.952-1.088,3.756,3.756,0,0,1-1.128-2.831v-.205a4.867,4.867,0,0,1,.45-2.146,3.3,3.3,0,0,1,1.315-1.439,3.969,3.969,0,0,1,2.051-.509A3.43,3.43,0,0,1,19.4,18.965a4.073,4.073,0,0,1,.967,2.889v.959H15.461a1.779,1.779,0,0,0,.579,1.047,1.722,1.722,0,0,0,1.157.381,2.218,2.218,0,0,0,1.831-.82l1.128,1.333a3.153,3.153,0,0,1-1.307,1.014A4.418,4.418,0,0,1,17.029,26.146Zm-.278-6.313q-1.084,0-1.289,1.436h2.49v-.19a1.223,1.223,0,0,0-.3-.919A1.2,1.2,0,0,0,16.75,19.833Zm7.961,4.409a1.1,1.1,0,0,0,.806-.282,1.034,1.034,0,0,0,.278-.787H28.11a2.74,2.74,0,0,1-.934,2.139,3.474,3.474,0,0,1-2.406.835,3.517,3.517,0,0,1-2.725-1.084,4.271,4.271,0,0,1-1-3v-.1a4.827,4.827,0,0,1,.443-2.12,3.226,3.226,0,0,1,1.278-1.414,3.811,3.811,0,0,1,1.978-.494,3.43,3.43,0,0,1,2.454.857,3.039,3.039,0,0,1,.908,2.322H25.8a1.355,1.355,0,0,0-.3-.945,1.037,1.037,0,0,0-.806-.33q-.959,0-1.121,1.223a8.631,8.631,0,0,0-.051,1.069,3.39,3.39,0,0,0,.286,1.655A.989.989,0,0,0,24.712,24.242ZM32.029,16.1v1.97h1.3v1.714h-1.3v3.625a.926.926,0,0,0,.161.623.864.864,0,0,0,.637.176,3.621,3.621,0,0,0,.615-.044v1.765a4.555,4.555,0,0,1-1.392.212,2.586,2.586,0,0,1-1.882-.6,2.462,2.462,0,0,1-.608-1.824V19.789H28.55V18.075h1.011V16.1Zm1.743,5.859a4.677,4.677,0,0,1,.461-2.113,3.3,3.3,0,0,1,1.326-1.425,3.993,3.993,0,0,1,2.029-.5,3.644,3.644,0,0,1,2.805,1.1,4.23,4.23,0,0,1,1.025,3v.088a4.1,4.1,0,0,1-1.029,2.941A3.654,3.654,0,0,1,37.6,26.146a3.7,3.7,0,0,1-2.717-1.014,3.968,3.968,0,0,1-1.106-2.75Zm2.468.154a2.949,2.949,0,0,0,.344,1.611,1.147,1.147,0,0,0,1.018.513q1.318,0,1.348-2.029v-.249q0-2.131-1.362-2.131-1.238,0-1.34,1.838Z" transform="translate(-8692.206 -8959.82)" fill="#12263f"/>
    <g id="Grupo_179379" data-name="Grupo 179379" transform="translate(-9011.548 -8911.475)">
      <g id="Grupo_179378" data-name="Grupo 179378" transform="translate(0 0)" clip-path="url(#clip-path)">
        <path id="Trazado_228790" data-name="Trazado 228790" d="M0,22.032V1.014A1.6,1.6,0,0,1,.922,0H11.8c.2.184.408.362.6.552q2.72,2.648,5.434,5.3c.248.244.462.522.692.784V22.032a1.67,1.67,0,0,1-.922,1.014H.922A1.634,1.634,0,0,1,0,22.032M17.148,7.471c-1.818,0-3.583,0-5.348,0-.687,0-.9-.218-.9-.914q0-2.351,0-4.7v-.5h-9.5V21.681H17.148ZM16.272,6.12,12.284,2.389V6.12Z" transform="translate(0 0.024)" fill="#1464c0"/>
        <path id="Trazado_228791" data-name="Trazado 228791" d="M45.873,188.962q2.394,0,4.788,0c.5,0,.757.189.733.552-.028.43-.314.549-.7.549q-4.834-.005-9.669,0c-.517,0-.8-.275-.7-.672.086-.346.339-.43.665-.429,1.627.006,3.254,0,4.88,0" transform="translate(-36.592 -171.516)" fill="#1464c0"/>
        <path id="Trazado_228792" data-name="Trazado 228792" d="M45.831,148.772q-2.417,0-4.833,0c-.47,0-.711-.184-.684-.537.031-.406.294-.518.67-.518q4.879.01,9.759,0c.378,0,.653.118.656.526s-.252.536-.642.533c-1.642-.012-3.284,0-4.925,0" transform="translate(-36.595 -134.076)" fill="#1464c0"/>
        <path id="Trazado_228793" data-name="Trazado 228793" d="M45,106.99q-1.8,0-3.591,0c-.137,0-.319.035-.4-.037-.168-.145-.379-.347-.388-.534-.008-.157.229-.349.393-.482.077-.062.237-.027.359-.027h7.367c.061,0,.123,0,.184,0a.539.539,0,1,1-.007,1.077c-.6.009-1.2,0-1.8,0H45" transform="translate(-36.876 -96.113)" fill="#1464c0"/>
        <path id="Trazado_228794" data-name="Trazado 228794" d="M42.661,65.825c-.566,0-1.133-.005-1.7,0-.381,0-.588-.191-.578-.552.009-.344.233-.5.584-.5q1.745.01,3.49,0a.526.526,0,1,1-.006,1.049c-.6-.007-1.194,0-1.791,0" transform="translate(-36.661 -58.781)" fill="#1464c0"/>
      </g>
    </g>
    <g id="Grupo_179381" data-name="Grupo 179381" transform="translate(-9032.641 -8911.475)">
      <g id="Grupo_179378-2" data-name="Grupo 179378" transform="translate(0 0)" clip-path="url(#clip-path)">
        <path id="Trazado_228790-2" data-name="Trazado 228790" d="M0,22.032V1.014A1.6,1.6,0,0,1,.922,0H11.8c.2.184.408.362.6.552q2.72,2.648,5.434,5.3c.248.244.462.522.692.784V22.032a1.67,1.67,0,0,1-.922,1.014H.922A1.634,1.634,0,0,1,0,22.032M17.148,7.471c-1.818,0-3.583,0-5.348,0-.687,0-.9-.218-.9-.914q0-2.351,0-4.7v-.5h-9.5V21.681H17.148ZM16.272,6.12,12.284,2.389V6.12Z" transform="translate(0 0.024)" fill="#1464c0"/>
        <path id="Trazado_228791-2" data-name="Trazado 228791" d="M45.873,188.962q2.394,0,4.788,0c.5,0,.757.189.733.552-.028.43-.314.549-.7.549q-4.834-.005-9.669,0c-.517,0-.8-.275-.7-.672.086-.346.339-.43.665-.429,1.627.006,3.254,0,4.88,0" transform="translate(-36.592 -171.516)" fill="#1464c0"/>
        <path id="Trazado_228792-2" data-name="Trazado 228792" d="M45.831,148.772q-2.417,0-4.833,0c-.47,0-.711-.184-.684-.537.031-.406.294-.518.67-.518q4.879.01,9.759,0c.378,0,.653.118.656.526s-.252.536-.642.533c-1.642-.012-3.284,0-4.925,0" transform="translate(-36.595 -134.076)" fill="#1464c0"/>
        <path id="Trazado_228793-2" data-name="Trazado 228793" d="M45,106.99q-1.8,0-3.591,0c-.137,0-.319.035-.4-.037-.168-.145-.379-.347-.388-.534-.008-.157.229-.349.393-.482.077-.062.237-.027.359-.027h7.367c.061,0,.123,0,.184,0a.539.539,0,1,1-.007,1.077c-.6.009-1.2,0-1.8,0H45" transform="translate(-36.876 -96.113)" fill="#1464c0"/>
        <path id="Trazado_228794-2" data-name="Trazado 228794" d="M42.661,65.825c-.566,0-1.133-.005-1.7,0-.381,0-.588-.191-.578-.552.009-.344.233-.5.584-.5q1.745.01,3.49,0a.526.526,0,1,1-.006,1.049c-.6-.007-1.194,0-1.791,0" transform="translate(-36.661 -58.781)" fill="#1464c0"/>
      </g>
    </g>
    <g id="Grupo_179380" data-name="Grupo 179380" transform="translate(-8990.455 -8911.475)">
      <g id="Grupo_179378-3" data-name="Grupo 179378" transform="translate(0 0)" clip-path="url(#clip-path)">
        <path id="Trazado_228790-3" data-name="Trazado 228790" d="M0,22.032V1.014A1.6,1.6,0,0,1,.922,0H11.8c.2.184.408.362.6.552q2.72,2.648,5.434,5.3c.248.244.462.522.692.784V22.032a1.67,1.67,0,0,1-.922,1.014H.922A1.634,1.634,0,0,1,0,22.032M17.148,7.471c-1.818,0-3.583,0-5.348,0-.687,0-.9-.218-.9-.914q0-2.351,0-4.7v-.5h-9.5V21.681H17.148ZM16.272,6.12,12.284,2.389V6.12Z" transform="translate(0 0.024)" fill="#1464c0"/>
        <path id="Trazado_228791-3" data-name="Trazado 228791" d="M45.873,188.962q2.394,0,4.788,0c.5,0,.757.189.733.552-.028.43-.314.549-.7.549q-4.834-.005-9.669,0c-.517,0-.8-.275-.7-.672.086-.346.339-.43.665-.429,1.627.006,3.254,0,4.88,0" transform="translate(-36.592 -171.516)" fill="#1464c0"/>
        <path id="Trazado_228792-3" data-name="Trazado 228792" d="M45.831,148.772q-2.417,0-4.833,0c-.47,0-.711-.184-.684-.537.031-.406.294-.518.67-.518q4.879.01,9.759,0c.378,0,.653.118.656.526s-.252.536-.642.533c-1.642-.012-3.284,0-4.925,0" transform="translate(-36.595 -134.076)" fill="#1464c0"/>
        <path id="Trazado_228793-3" data-name="Trazado 228793" d="M45,106.99q-1.8,0-3.591,0c-.137,0-.319.035-.4-.037-.168-.145-.379-.347-.388-.534-.008-.157.229-.349.393-.482.077-.062.237-.027.359-.027h7.367c.061,0,.123,0,.184,0a.539.539,0,1,1-.007,1.077c-.6.009-1.2,0-1.8,0H45" transform="translate(-36.876 -96.113)" fill="#1464c0"/>
        <path id="Trazado_228794-3" data-name="Trazado 228794" d="M42.661,65.825c-.566,0-1.133-.005-1.7,0-.381,0-.588-.191-.578-.552.009-.344.233-.5.584-.5q1.745.01,3.49,0a.526.526,0,1,1-.006,1.049c-.6-.007-1.194,0-1.791,0" transform="translate(-36.661 -58.781)" fill="#1464c0"/>
      </g>
    </g>
  </g>
</svg>
