<svg xmlns="http://www.w3.org/2000/svg" xmlns:xlink="http://www.w3.org/1999/xlink" width="571" height="249" viewBox="0 0 571 249">
  <defs>
    <clipPath id="clip-path">
      <rect id="Rectángulo_57070" data-name="Rectángulo 57070" width="30.036" height="37.545" fill="#1464c0"/>
    </clipPath>
    <clipPath id="clip-path-3">
      <rect id="Rectángulo_57070-3" data-name="Rectángulo 57070" width="30.036" height="37.545" fill="#636363"/>
    </clipPath>
    <clipPath id="clip-path-10">
      <rect id="Rectángulo_57070-10" data-name="Rectángulo 57070" width="30.036" height="37.545" fill="#12263f"/>
    </clipPath>
  </defs>
  <g id="Grupo_180621" data-name="Grupo 180621" transform="translate(5230 8525)">
    <path id="Trazado_232147" data-name="Trazado 232147" d="M0,0H109V49H0Z" transform="translate(-5230 -8525)" fill="#1464c0"/>
    <path id="Trazado_232148" data-name="Trazado 232148" d="M0,0H109V49H0Z" transform="translate(-4999 -8525)" fill="#1464c0"/>
    <path id="Trazado_232149" data-name="Trazado 232149" d="M0,0H109V49H0Z" transform="translate(-4883 -8525)" fill="#1464c0"/>
    <path id="Trazado_232150" data-name="Trazado 232150" d="M0,0H109V49H0Z" transform="translate(-4768 -8525)" fill="#1464c0"/>
    <path id="Trazado_232151" data-name="Trazado 232151" d="M0,0H109V49H0Z" transform="translate(-5114 -8525)" fill="#1464c0"/>
    <path id="Trazado_232152" data-name="Trazado 232152" d="M0,0H109V200H0Z" transform="translate(-5230 -8476)" fill="#cce7f2"/>
    <path id="Trazado_232153" data-name="Trazado 232153" d="M0,0H109V200H0Z" transform="translate(-4999 -8476)" fill="#cce7f2"/>
    <path id="Trazado_232154" data-name="Trazado 232154" d="M0,0H109V200H0Z" transform="translate(-4883 -8476)" fill="#cce7f2"/>
    <path id="Trazado_232155" data-name="Trazado 232155" d="M0,0H109V200H0Z" transform="translate(-4768 -8476)" fill="#cce7f2"/>
    <path id="Trazado_232156" data-name="Trazado 232156" d="M0,0H109V200H0Z" transform="translate(-5114 -8476)" fill="#cce7f2"/>
    <g id="Grupo_179412" data-name="Grupo 179412" transform="translate(-5216.094 -8462.302)">
      <g id="Grupo_179378" data-name="Grupo 179378" transform="translate(0 0)" clip-path="url(#clip-path)">
        <path id="Trazado_228790" data-name="Trazado 228790" d="M0,35.856V1.65A2.6,2.6,0,0,1,1.5,0H19.2c.328.3.664.589.981.9q4.427,4.309,8.843,8.628c.4.4.753.85,1.127,1.277V35.856a2.719,2.719,0,0,1-1.5,1.65H1.5A2.659,2.659,0,0,1,0,35.856m27.907-23.7c-2.959,0-5.832,0-8.7,0-1.118,0-1.47-.354-1.472-1.487q-.007-3.825,0-7.651V2.205H2.267v33.08h25.64Zm-1.425-2.2L19.991,3.888V9.96Z" transform="translate(0 0.039)" fill="#1464c0"/>
        <path id="Trazado_228791" data-name="Trazado 228791" d="M49.365,188.964q3.9,0,7.793,0c.809,0,1.232.307,1.193.9-.046.7-.511.894-1.142.893q-7.868-.008-15.735-.006c-.841,0-1.3-.448-1.134-1.093.141-.563.552-.7,1.083-.7,2.647.01,5.3,0,7.943,0" transform="translate(-34.26 -160.571)" fill="#1464c0"/>
        <path id="Trazado_228792" data-name="Trazado 228792" d="M49.294,149.434q-3.933,0-7.866,0c-.765,0-1.158-.3-1.113-.873.051-.661.478-.843,1.09-.842q7.941.016,15.882,0c.615,0,1.063.192,1.067.856s-.411.873-1.044.868c-2.672-.019-5.344-.008-8.016-.008" transform="translate(-34.264 -125.516)" fill="#1464c0"/>
        <path id="Trazado_228793" data-name="Trazado 228793" d="M47.752,107.674q-2.922,0-5.845,0c-.223,0-.519.057-.655-.06-.273-.235-.617-.564-.632-.869-.012-.256.372-.568.639-.784.125-.1.385-.043.584-.044q5.994,0,11.989,0c.1,0,.2,0,.3,0a.877.877,0,1,1-.011,1.752c-.974.015-1.948.006-2.922.006H47.752" transform="translate(-34.526 -89.972)" fill="#1464c0"/>
        <path id="Trazado_228794" data-name="Trazado 228794" d="M44.09,66.483c-.922,0-1.844-.008-2.765,0-.621.008-.957-.311-.941-.9.015-.56.379-.814.95-.811q2.84.016,5.68,0A.855.855,0,1,1,47,66.486c-.971-.012-1.943,0-2.915,0" transform="translate(-34.325 -55.019)" fill="#1464c0"/>
      </g>
    </g>
    <g id="Grupo_179413" data-name="Grupo 179413" transform="translate(-4984.996 -8462.302)">
      <g id="Grupo_179378-2" data-name="Grupo 179378" transform="translate(0 0)" clip-path="url(#clip-path)">
        <path id="Trazado_228790-2" data-name="Trazado 228790" d="M0,35.856V1.65A2.6,2.6,0,0,1,1.5,0H19.2c.328.3.664.589.981.9q4.427,4.309,8.843,8.628c.4.4.753.85,1.127,1.277V35.856a2.719,2.719,0,0,1-1.5,1.65H1.5A2.659,2.659,0,0,1,0,35.856m27.907-23.7c-2.959,0-5.832,0-8.7,0-1.118,0-1.47-.354-1.472-1.487q-.007-3.825,0-7.651V2.205H2.267v33.08h25.64Zm-1.425-2.2L19.991,3.888V9.96Z" transform="translate(0 0.039)" fill="#1464c0"/>
        <path id="Trazado_228791-2" data-name="Trazado 228791" d="M49.365,188.964q3.9,0,7.793,0c.809,0,1.232.307,1.193.9-.046.7-.511.894-1.142.893q-7.868-.008-15.735-.006c-.841,0-1.3-.448-1.134-1.093.141-.563.552-.7,1.083-.7,2.647.01,5.3,0,7.943,0" transform="translate(-34.26 -160.571)" fill="#1464c0"/>
        <path id="Trazado_228792-2" data-name="Trazado 228792" d="M49.294,149.434q-3.933,0-7.866,0c-.765,0-1.158-.3-1.113-.873.051-.661.478-.843,1.09-.842q7.941.016,15.882,0c.615,0,1.063.192,1.067.856s-.411.873-1.044.868c-2.672-.019-5.344-.008-8.016-.008" transform="translate(-34.264 -125.516)" fill="#1464c0"/>
        <path id="Trazado_228793-2" data-name="Trazado 228793" d="M47.752,107.674q-2.922,0-5.845,0c-.223,0-.519.057-.655-.06-.273-.235-.617-.564-.632-.869-.012-.256.372-.568.639-.784.125-.1.385-.043.584-.044q5.994,0,11.989,0c.1,0,.2,0,.3,0a.877.877,0,1,1-.011,1.752c-.974.015-1.948.006-2.922.006H47.752" transform="translate(-34.526 -89.972)" fill="#1464c0"/>
        <path id="Trazado_228794-2" data-name="Trazado 228794" d="M44.09,66.483c-.922,0-1.844-.008-2.765,0-.621.008-.957-.311-.941-.9.015-.56.379-.814.95-.811q2.84.016,5.68,0A.855.855,0,1,1,47,66.486c-.971-.012-1.943,0-2.915,0" transform="translate(-34.325 -55.019)" fill="#1464c0"/>
      </g>
    </g>
    <g id="Grupo_179414" data-name="Grupo 179414" transform="translate(-4869.446 -8462.302)">
      <g id="Grupo_179378-3" data-name="Grupo 179378" transform="translate(0 0)" clip-path="url(#clip-path-3)">
        <path id="Trazado_228790-3" data-name="Trazado 228790" d="M0,35.856V1.65A2.6,2.6,0,0,1,1.5,0H19.2c.328.3.664.589.981.9q4.427,4.309,8.843,8.628c.4.4.753.85,1.127,1.277V35.856a2.719,2.719,0,0,1-1.5,1.65H1.5A2.659,2.659,0,0,1,0,35.856m27.907-23.7c-2.959,0-5.832,0-8.7,0-1.118,0-1.47-.354-1.472-1.487q-.007-3.825,0-7.651V2.205H2.267v33.08h25.64Zm-1.425-2.2L19.991,3.888V9.96Z" transform="translate(0 0.039)" fill="#636363"/>
        <path id="Trazado_228791-3" data-name="Trazado 228791" d="M49.365,188.964q3.9,0,7.793,0c.809,0,1.232.307,1.193.9-.046.7-.511.894-1.142.893q-7.868-.008-15.735-.006c-.841,0-1.3-.448-1.134-1.093.141-.563.552-.7,1.083-.7,2.647.01,5.3,0,7.943,0" transform="translate(-34.26 -160.571)" fill="#636363"/>
        <path id="Trazado_228792-3" data-name="Trazado 228792" d="M49.294,149.434q-3.933,0-7.866,0c-.765,0-1.158-.3-1.113-.873.051-.661.478-.843,1.09-.842q7.941.016,15.882,0c.615,0,1.063.192,1.067.856s-.411.873-1.044.868c-2.672-.019-5.344-.008-8.016-.008" transform="translate(-34.264 -125.516)" fill="#636363"/>
        <path id="Trazado_228793-3" data-name="Trazado 228793" d="M47.752,107.674q-2.922,0-5.845,0c-.223,0-.519.057-.655-.06-.273-.235-.617-.564-.632-.869-.012-.256.372-.568.639-.784.125-.1.385-.043.584-.044q5.994,0,11.989,0c.1,0,.2,0,.3,0a.877.877,0,1,1-.011,1.752c-.974.015-1.948.006-2.922.006H47.752" transform="translate(-34.526 -89.972)" fill="#636363"/>
        <path id="Trazado_228794-3" data-name="Trazado 228794" d="M44.09,66.483c-.922,0-1.844-.008-2.765,0-.621.008-.957-.311-.941-.9.015-.56.379-.814.95-.811q2.84.016,5.68,0A.855.855,0,1,1,47,66.486c-.971-.012-1.943,0-2.915,0" transform="translate(-34.325 -55.019)" fill="#636363"/>
      </g>
    </g>
    <g id="Grupo_179415" data-name="Grupo 179415" transform="translate(-4753.897 -8462.302)">
      <g id="Grupo_179378-4" data-name="Grupo 179378" transform="translate(0 0)" clip-path="url(#clip-path)">
        <path id="Trazado_228790-4" data-name="Trazado 228790" d="M0,35.856V1.65A2.6,2.6,0,0,1,1.5,0H19.2c.328.3.664.589.981.9q4.427,4.309,8.843,8.628c.4.4.753.85,1.127,1.277V35.856a2.719,2.719,0,0,1-1.5,1.65H1.5A2.659,2.659,0,0,1,0,35.856m27.907-23.7c-2.959,0-5.832,0-8.7,0-1.118,0-1.47-.354-1.472-1.487q-.007-3.825,0-7.651V2.205H2.267v33.08h25.64Zm-1.425-2.2L19.991,3.888V9.96Z" transform="translate(0 0.039)" fill="#1464c0"/>
        <path id="Trazado_228791-4" data-name="Trazado 228791" d="M49.365,188.964q3.9,0,7.793,0c.809,0,1.232.307,1.193.9-.046.7-.511.894-1.142.893q-7.868-.008-15.735-.006c-.841,0-1.3-.448-1.134-1.093.141-.563.552-.7,1.083-.7,2.647.01,5.3,0,7.943,0" transform="translate(-34.26 -160.571)" fill="#1464c0"/>
        <path id="Trazado_228792-4" data-name="Trazado 228792" d="M49.294,149.434q-3.933,0-7.866,0c-.765,0-1.158-.3-1.113-.873.051-.661.478-.843,1.09-.842q7.941.016,15.882,0c.615,0,1.063.192,1.067.856s-.411.873-1.044.868c-2.672-.019-5.344-.008-8.016-.008" transform="translate(-34.264 -125.516)" fill="#1464c0"/>
        <path id="Trazado_228793-4" data-name="Trazado 228793" d="M47.752,107.674q-2.922,0-5.845,0c-.223,0-.519.057-.655-.06-.273-.235-.617-.564-.632-.869-.012-.256.372-.568.639-.784.125-.1.385-.043.584-.044q5.994,0,11.989,0c.1,0,.2,0,.3,0a.877.877,0,1,1-.011,1.752c-.974.015-1.948.006-2.922.006H47.752" transform="translate(-34.526 -89.972)" fill="#1464c0"/>
        <path id="Trazado_228794-4" data-name="Trazado 228794" d="M44.09,66.483c-.922,0-1.844-.008-2.765,0-.621.008-.957-.311-.941-.9.015-.56.379-.814.95-.811q2.84.016,5.68,0A.855.855,0,1,1,47,66.486c-.971-.012-1.943,0-2.915,0" transform="translate(-34.325 -55.019)" fill="#1464c0"/>
      </g>
    </g>
    <g id="Grupo_179416" data-name="Grupo 179416" transform="translate(-5100.544 -8462.302)">
      <g id="Grupo_179378-5" data-name="Grupo 179378" transform="translate(0 0)" clip-path="url(#clip-path)">
        <path id="Trazado_228790-5" data-name="Trazado 228790" d="M0,35.856V1.65A2.6,2.6,0,0,1,1.5,0H19.2c.328.3.664.589.981.9q4.427,4.309,8.843,8.628c.4.4.753.85,1.127,1.277V35.856a2.719,2.719,0,0,1-1.5,1.65H1.5A2.659,2.659,0,0,1,0,35.856m27.907-23.7c-2.959,0-5.832,0-8.7,0-1.118,0-1.47-.354-1.472-1.487q-.007-3.825,0-7.651V2.205H2.267v33.08h25.64Zm-1.425-2.2L19.991,3.888V9.96Z" transform="translate(0 0.039)" fill="#1464c0"/>
        <path id="Trazado_228791-5" data-name="Trazado 228791" d="M49.365,188.964q3.9,0,7.793,0c.809,0,1.232.307,1.193.9-.046.7-.511.894-1.142.893q-7.868-.008-15.735-.006c-.841,0-1.3-.448-1.134-1.093.141-.563.552-.7,1.083-.7,2.647.01,5.3,0,7.943,0" transform="translate(-34.26 -160.571)" fill="#1464c0"/>
        <path id="Trazado_228792-5" data-name="Trazado 228792" d="M49.294,149.434q-3.933,0-7.866,0c-.765,0-1.158-.3-1.113-.873.051-.661.478-.843,1.09-.842q7.941.016,15.882,0c.615,0,1.063.192,1.067.856s-.411.873-1.044.868c-2.672-.019-5.344-.008-8.016-.008" transform="translate(-34.264 -125.516)" fill="#1464c0"/>
        <path id="Trazado_228793-5" data-name="Trazado 228793" d="M47.752,107.674q-2.922,0-5.845,0c-.223,0-.519.057-.655-.06-.273-.235-.617-.564-.632-.869-.012-.256.372-.568.639-.784.125-.1.385-.043.584-.044q5.994,0,11.989,0c.1,0,.2,0,.3,0a.877.877,0,1,1-.011,1.752c-.974.015-1.948.006-2.922.006H47.752" transform="translate(-34.526 -89.972)" fill="#1464c0"/>
        <path id="Trazado_228794-5" data-name="Trazado 228794" d="M44.09,66.483c-.922,0-1.844-.008-2.765,0-.621.008-.957-.311-.941-.9.015-.56.379-.814.95-.811q2.84.016,5.68,0A.855.855,0,1,1,47,66.486c-.971-.012-1.943,0-2.915,0" transform="translate(-34.325 -55.019)" fill="#1464c0"/>
      </g>
    </g>
    <g id="Grupo_179417" data-name="Grupo 179417" transform="translate(-5216.094 -8416.774)">
      <g id="Grupo_179378-6" data-name="Grupo 179378" transform="translate(0 0)" clip-path="url(#clip-path)">
        <path id="Trazado_228790-6" data-name="Trazado 228790" d="M0,35.856V1.65A2.6,2.6,0,0,1,1.5,0H19.2c.328.3.664.589.981.9q4.427,4.309,8.843,8.628c.4.4.753.85,1.127,1.277V35.856a2.719,2.719,0,0,1-1.5,1.65H1.5A2.659,2.659,0,0,1,0,35.856m27.907-23.7c-2.959,0-5.832,0-8.7,0-1.118,0-1.47-.354-1.472-1.487q-.007-3.825,0-7.651V2.205H2.267v33.08h25.64Zm-1.425-2.2L19.991,3.888V9.96Z" transform="translate(0 0.039)" fill="#1464c0"/>
        <path id="Trazado_228791-6" data-name="Trazado 228791" d="M49.365,188.964q3.9,0,7.793,0c.809,0,1.232.307,1.193.9-.046.7-.511.894-1.142.893q-7.868-.008-15.735-.006c-.841,0-1.3-.448-1.134-1.093.141-.563.552-.7,1.083-.7,2.647.01,5.3,0,7.943,0" transform="translate(-34.26 -160.571)" fill="#1464c0"/>
        <path id="Trazado_228792-6" data-name="Trazado 228792" d="M49.294,149.434q-3.933,0-7.866,0c-.765,0-1.158-.3-1.113-.873.051-.661.478-.843,1.09-.842q7.941.016,15.882,0c.615,0,1.063.192,1.067.856s-.411.873-1.044.868c-2.672-.019-5.344-.008-8.016-.008" transform="translate(-34.264 -125.516)" fill="#1464c0"/>
        <path id="Trazado_228793-6" data-name="Trazado 228793" d="M47.752,107.674q-2.922,0-5.845,0c-.223,0-.519.057-.655-.06-.273-.235-.617-.564-.632-.869-.012-.256.372-.568.639-.784.125-.1.385-.043.584-.044q5.994,0,11.989,0c.1,0,.2,0,.3,0a.877.877,0,1,1-.011,1.752c-.974.015-1.948.006-2.922.006H47.752" transform="translate(-34.526 -89.972)" fill="#1464c0"/>
        <path id="Trazado_228794-6" data-name="Trazado 228794" d="M44.09,66.483c-.922,0-1.844-.008-2.765,0-.621.008-.957-.311-.941-.9.015-.56.379-.814.95-.811q2.84.016,5.68,0A.855.855,0,1,1,47,66.486c-.971-.012-1.943,0-2.915,0" transform="translate(-34.325 -55.019)" fill="#1464c0"/>
      </g>
    </g>
    <g id="Grupo_179418" data-name="Grupo 179418" transform="translate(-4984.996 -8416.774)">
      <g id="Grupo_179378-7" data-name="Grupo 179378" transform="translate(0 0)" clip-path="url(#clip-path-3)">
        <path id="Trazado_228790-7" data-name="Trazado 228790" d="M0,35.856V1.65A2.6,2.6,0,0,1,1.5,0H19.2c.328.3.664.589.981.9q4.427,4.309,8.843,8.628c.4.4.753.85,1.127,1.277V35.856a2.719,2.719,0,0,1-1.5,1.65H1.5A2.659,2.659,0,0,1,0,35.856m27.907-23.7c-2.959,0-5.832,0-8.7,0-1.118,0-1.47-.354-1.472-1.487q-.007-3.825,0-7.651V2.205H2.267v33.08h25.64Zm-1.425-2.2L19.991,3.888V9.96Z" transform="translate(0 0.039)" fill="#636363"/>
        <path id="Trazado_228791-7" data-name="Trazado 228791" d="M49.365,188.964q3.9,0,7.793,0c.809,0,1.232.307,1.193.9-.046.7-.511.894-1.142.893q-7.868-.008-15.735-.006c-.841,0-1.3-.448-1.134-1.093.141-.563.552-.7,1.083-.7,2.647.01,5.3,0,7.943,0" transform="translate(-34.26 -160.571)" fill="#636363"/>
        <path id="Trazado_228792-7" data-name="Trazado 228792" d="M49.294,149.434q-3.933,0-7.866,0c-.765,0-1.158-.3-1.113-.873.051-.661.478-.843,1.09-.842q7.941.016,15.882,0c.615,0,1.063.192,1.067.856s-.411.873-1.044.868c-2.672-.019-5.344-.008-8.016-.008" transform="translate(-34.264 -125.516)" fill="#636363"/>
        <path id="Trazado_228793-7" data-name="Trazado 228793" d="M47.752,107.674q-2.922,0-5.845,0c-.223,0-.519.057-.655-.06-.273-.235-.617-.564-.632-.869-.012-.256.372-.568.639-.784.125-.1.385-.043.584-.044q5.994,0,11.989,0c.1,0,.2,0,.3,0a.877.877,0,1,1-.011,1.752c-.974.015-1.948.006-2.922.006H47.752" transform="translate(-34.526 -89.972)" fill="#636363"/>
        <path id="Trazado_228794-7" data-name="Trazado 228794" d="M44.09,66.483c-.922,0-1.844-.008-2.765,0-.621.008-.957-.311-.941-.9.015-.56.379-.814.95-.811q2.84.016,5.68,0A.855.855,0,1,1,47,66.486c-.971-.012-1.943,0-2.915,0" transform="translate(-34.325 -55.019)" fill="#636363"/>
      </g>
    </g>
    <g id="Grupo_179419" data-name="Grupo 179419" transform="translate(-5100.544 -8416.774)">
      <g id="Grupo_179378-8" data-name="Grupo 179378" transform="translate(0 0)" clip-path="url(#clip-path)">
        <path id="Trazado_228790-8" data-name="Trazado 228790" d="M0,35.856V1.65A2.6,2.6,0,0,1,1.5,0H19.2c.328.3.664.589.981.9q4.427,4.309,8.843,8.628c.4.4.753.85,1.127,1.277V35.856a2.719,2.719,0,0,1-1.5,1.65H1.5A2.659,2.659,0,0,1,0,35.856m27.907-23.7c-2.959,0-5.832,0-8.7,0-1.118,0-1.47-.354-1.472-1.487q-.007-3.825,0-7.651V2.205H2.267v33.08h25.64Zm-1.425-2.2L19.991,3.888V9.96Z" transform="translate(0 0.039)" fill="#1464c0"/>
        <path id="Trazado_228791-8" data-name="Trazado 228791" d="M49.365,188.964q3.9,0,7.793,0c.809,0,1.232.307,1.193.9-.046.7-.511.894-1.142.893q-7.868-.008-15.735-.006c-.841,0-1.3-.448-1.134-1.093.141-.563.552-.7,1.083-.7,2.647.01,5.3,0,7.943,0" transform="translate(-34.26 -160.571)" fill="#1464c0"/>
        <path id="Trazado_228792-8" data-name="Trazado 228792" d="M49.294,149.434q-3.933,0-7.866,0c-.765,0-1.158-.3-1.113-.873.051-.661.478-.843,1.09-.842q7.941.016,15.882,0c.615,0,1.063.192,1.067.856s-.411.873-1.044.868c-2.672-.019-5.344-.008-8.016-.008" transform="translate(-34.264 -125.516)" fill="#1464c0"/>
        <path id="Trazado_228793-8" data-name="Trazado 228793" d="M47.752,107.674q-2.922,0-5.845,0c-.223,0-.519.057-.655-.06-.273-.235-.617-.564-.632-.869-.012-.256.372-.568.639-.784.125-.1.385-.043.584-.044q5.994,0,11.989,0c.1,0,.2,0,.3,0a.877.877,0,1,1-.011,1.752c-.974.015-1.948.006-2.922.006H47.752" transform="translate(-34.526 -89.972)" fill="#1464c0"/>
        <path id="Trazado_228794-8" data-name="Trazado 228794" d="M44.09,66.483c-.922,0-1.844-.008-2.765,0-.621.008-.957-.311-.941-.9.015-.56.379-.814.95-.811q2.84.016,5.68,0A.855.855,0,1,1,47,66.486c-.971-.012-1.943,0-2.915,0" transform="translate(-34.325 -55.019)" fill="#1464c0"/>
      </g>
    </g>
    <g id="Grupo_179420" data-name="Grupo 179420" transform="translate(-5100.544 -8371.247)">
      <g id="Grupo_179378-9" data-name="Grupo 179378" transform="translate(0 0)" clip-path="url(#clip-path-3)">
        <path id="Trazado_228790-9" data-name="Trazado 228790" d="M0,35.856V1.65A2.6,2.6,0,0,1,1.5,0H19.2c.328.3.664.589.981.9q4.427,4.309,8.843,8.628c.4.4.753.85,1.127,1.277V35.856a2.719,2.719,0,0,1-1.5,1.65H1.5A2.659,2.659,0,0,1,0,35.856m27.907-23.7c-2.959,0-5.832,0-8.7,0-1.118,0-1.47-.354-1.472-1.487q-.007-3.825,0-7.651V2.205H2.267v33.08h25.64Zm-1.425-2.2L19.991,3.888V9.96Z" transform="translate(0 0.039)" fill="#636363"/>
        <path id="Trazado_228791-9" data-name="Trazado 228791" d="M49.365,188.964q3.9,0,7.793,0c.809,0,1.232.307,1.193.9-.046.7-.511.894-1.142.893q-7.868-.008-15.735-.006c-.841,0-1.3-.448-1.134-1.093.141-.563.552-.7,1.083-.7,2.647.01,5.3,0,7.943,0" transform="translate(-34.26 -160.571)" fill="#636363"/>
        <path id="Trazado_228792-9" data-name="Trazado 228792" d="M49.294,149.434q-3.933,0-7.866,0c-.765,0-1.158-.3-1.113-.873.051-.661.478-.843,1.09-.842q7.941.016,15.882,0c.615,0,1.063.192,1.067.856s-.411.873-1.044.868c-2.672-.019-5.344-.008-8.016-.008" transform="translate(-34.264 -125.516)" fill="#636363"/>
        <path id="Trazado_228793-9" data-name="Trazado 228793" d="M47.752,107.674q-2.922,0-5.845,0c-.223,0-.519.057-.655-.06-.273-.235-.617-.564-.632-.869-.012-.256.372-.568.639-.784.125-.1.385-.043.584-.044q5.994,0,11.989,0c.1,0,.2,0,.3,0a.877.877,0,1,1-.011,1.752c-.974.015-1.948.006-2.922.006H47.752" transform="translate(-34.526 -89.972)" fill="#636363"/>
        <path id="Trazado_228794-9" data-name="Trazado 228794" d="M44.09,66.483c-.922,0-1.844-.008-2.765,0-.621.008-.957-.311-.941-.9.015-.56.379-.814.95-.811q2.84.016,5.68,0A.855.855,0,1,1,47,66.486c-.971-.012-1.943,0-2.915,0" transform="translate(-34.325 -55.019)" fill="#636363"/>
      </g>
    </g>
    <g id="Grupo_179421" data-name="Grupo 179421" transform="translate(-5100.544 -8325.72)">
      <g id="Grupo_179378-10" data-name="Grupo 179378" transform="translate(0 0)" clip-path="url(#clip-path-10)">
        <path id="Trazado_228790-10" data-name="Trazado 228790" d="M0,35.856V1.65A2.6,2.6,0,0,1,1.5,0H19.2c.328.3.664.589.981.9q4.427,4.309,8.843,8.628c.4.4.753.85,1.127,1.277V35.856a2.719,2.719,0,0,1-1.5,1.65H1.5A2.659,2.659,0,0,1,0,35.856m27.907-23.7c-2.959,0-5.832,0-8.7,0-1.118,0-1.47-.354-1.472-1.487q-.007-3.825,0-7.651V2.205H2.267v33.08h25.64Zm-1.425-2.2L19.991,3.888V9.96Z" transform="translate(0 0.039)" fill="#12263f"/>
        <path id="Trazado_228791-10" data-name="Trazado 228791" d="M49.365,188.964q3.9,0,7.793,0c.809,0,1.232.307,1.193.9-.046.7-.511.894-1.142.893q-7.868-.008-15.735-.006c-.841,0-1.3-.448-1.134-1.093.141-.563.552-.7,1.083-.7,2.647.01,5.3,0,7.943,0" transform="translate(-34.26 -160.571)" fill="#12263f"/>
        <path id="Trazado_228792-10" data-name="Trazado 228792" d="M49.294,149.434q-3.933,0-7.866,0c-.765,0-1.158-.3-1.113-.873.051-.661.478-.843,1.09-.842q7.941.016,15.882,0c.615,0,1.063.192,1.067.856s-.411.873-1.044.868c-2.672-.019-5.344-.008-8.016-.008" transform="translate(-34.264 -125.516)" fill="#12263f"/>
        <path id="Trazado_228793-10" data-name="Trazado 228793" d="M47.752,107.674q-2.922,0-5.845,0c-.223,0-.519.057-.655-.06-.273-.235-.617-.564-.632-.869-.012-.256.372-.568.639-.784.125-.1.385-.043.584-.044q5.994,0,11.989,0c.1,0,.2,0,.3,0a.877.877,0,1,1-.011,1.752c-.974.015-1.948.006-2.922.006H47.752" transform="translate(-34.526 -89.972)" fill="#12263f"/>
        <path id="Trazado_228794-10" data-name="Trazado 228794" d="M44.09,66.483c-.922,0-1.844-.008-2.765,0-.621.008-.957-.311-.941-.9.015-.56.379-.814.95-.811q2.84.016,5.68,0A.855.855,0,1,1,47,66.486c-.971-.012-1.943,0-2.915,0" transform="translate(-34.325 -55.019)" fill="#12263f"/>
      </g>
    </g>
    <g id="Grupo_179422" data-name="Grupo 179422" transform="translate(-5170.525 -8462.302)">
      <g id="Grupo_179378-11" data-name="Grupo 179378" transform="translate(0 0)" clip-path="url(#clip-path-3)">
        <path id="Trazado_228790-11" data-name="Trazado 228790" d="M0,35.856V1.65A2.6,2.6,0,0,1,1.5,0H19.2c.328.3.664.589.981.9q4.427,4.309,8.843,8.628c.4.4.753.85,1.127,1.277V35.856a2.719,2.719,0,0,1-1.5,1.65H1.5A2.659,2.659,0,0,1,0,35.856m27.907-23.7c-2.959,0-5.832,0-8.7,0-1.118,0-1.47-.354-1.472-1.487q-.007-3.825,0-7.651V2.205H2.267v33.08h25.64Zm-1.425-2.2L19.991,3.888V9.96Z" transform="translate(0 0.039)" fill="#636363"/>
        <path id="Trazado_228791-11" data-name="Trazado 228791" d="M49.365,188.964q3.9,0,7.793,0c.809,0,1.232.307,1.193.9-.046.7-.511.894-1.142.893q-7.868-.008-15.735-.006c-.841,0-1.3-.448-1.134-1.093.141-.563.552-.7,1.083-.7,2.647.01,5.3,0,7.943,0" transform="translate(-34.26 -160.571)" fill="#636363"/>
        <path id="Trazado_228792-11" data-name="Trazado 228792" d="M49.294,149.434q-3.933,0-7.866,0c-.765,0-1.158-.3-1.113-.873.051-.661.478-.843,1.09-.842q7.941.016,15.882,0c.615,0,1.063.192,1.067.856s-.411.873-1.044.868c-2.672-.019-5.344-.008-8.016-.008" transform="translate(-34.264 -125.516)" fill="#636363"/>
        <path id="Trazado_228793-11" data-name="Trazado 228793" d="M47.752,107.674q-2.922,0-5.845,0c-.223,0-.519.057-.655-.06-.273-.235-.617-.564-.632-.869-.012-.256.372-.568.639-.784.125-.1.385-.043.584-.044q5.994,0,11.989,0c.1,0,.2,0,.3,0a.877.877,0,1,1-.011,1.752c-.974.015-1.948.006-2.922.006H47.752" transform="translate(-34.526 -89.972)" fill="#636363"/>
        <path id="Trazado_228794-11" data-name="Trazado 228794" d="M44.09,66.483c-.922,0-1.844-.008-2.765,0-.621.008-.957-.311-.941-.9.015-.56.379-.814.95-.811q2.84.016,5.68,0A.855.855,0,1,1,47,66.486c-.971-.012-1.943,0-2.915,0" transform="translate(-34.325 -55.019)" fill="#636363"/>
      </g>
    </g>
    <g id="Grupo_179423" data-name="Grupo 179423" transform="translate(-4939.427 -8462.302)">
      <g id="Grupo_179378-12" data-name="Grupo 179378" transform="translate(0 0)" clip-path="url(#clip-path)">
        <path id="Trazado_228790-12" data-name="Trazado 228790" d="M0,35.856V1.65A2.6,2.6,0,0,1,1.5,0H19.2c.328.3.664.589.981.9q4.427,4.309,8.843,8.628c.4.4.753.85,1.127,1.277V35.856a2.719,2.719,0,0,1-1.5,1.65H1.5A2.659,2.659,0,0,1,0,35.856m27.907-23.7c-2.959,0-5.832,0-8.7,0-1.118,0-1.47-.354-1.472-1.487q-.007-3.825,0-7.651V2.205H2.267v33.08h25.64Zm-1.425-2.2L19.991,3.888V9.96Z" transform="translate(0 0.039)" fill="#1464c0"/>
        <path id="Trazado_228791-12" data-name="Trazado 228791" d="M49.365,188.964q3.9,0,7.793,0c.809,0,1.232.307,1.193.9-.046.7-.511.894-1.142.893q-7.868-.008-15.735-.006c-.841,0-1.3-.448-1.134-1.093.141-.563.552-.7,1.083-.7,2.647.01,5.3,0,7.943,0" transform="translate(-34.26 -160.571)" fill="#1464c0"/>
        <path id="Trazado_228792-12" data-name="Trazado 228792" d="M49.294,149.434q-3.933,0-7.866,0c-.765,0-1.158-.3-1.113-.873.051-.661.478-.843,1.09-.842q7.941.016,15.882,0c.615,0,1.063.192,1.067.856s-.411.873-1.044.868c-2.672-.019-5.344-.008-8.016-.008" transform="translate(-34.264 -125.516)" fill="#1464c0"/>
        <path id="Trazado_228793-12" data-name="Trazado 228793" d="M47.752,107.674q-2.922,0-5.845,0c-.223,0-.519.057-.655-.06-.273-.235-.617-.564-.632-.869-.012-.256.372-.568.639-.784.125-.1.385-.043.584-.044q5.994,0,11.989,0c.1,0,.2,0,.3,0a.877.877,0,1,1-.011,1.752c-.974.015-1.948.006-2.922.006H47.752" transform="translate(-34.526 -89.972)" fill="#1464c0"/>
        <path id="Trazado_228794-12" data-name="Trazado 228794" d="M44.09,66.483c-.922,0-1.844-.008-2.765,0-.621.008-.957-.311-.941-.9.015-.56.379-.814.95-.811q2.84.016,5.68,0A.855.855,0,1,1,47,66.486c-.971-.012-1.943,0-2.915,0" transform="translate(-34.325 -55.019)" fill="#1464c0"/>
      </g>
    </g>
    <g id="Grupo_179424" data-name="Grupo 179424" transform="translate(-4708.329 -8462.302)">
      <g id="Grupo_179378-13" data-name="Grupo 179378" transform="translate(0 0)" clip-path="url(#clip-path-10)">
        <path id="Trazado_228790-13" data-name="Trazado 228790" d="M0,35.856V1.65A2.6,2.6,0,0,1,1.5,0H19.2c.328.3.664.589.981.9q4.427,4.309,8.843,8.628c.4.4.753.85,1.127,1.277V35.856a2.719,2.719,0,0,1-1.5,1.65H1.5A2.659,2.659,0,0,1,0,35.856m27.907-23.7c-2.959,0-5.832,0-8.7,0-1.118,0-1.47-.354-1.472-1.487q-.007-3.825,0-7.651V2.205H2.267v33.08h25.64Zm-1.425-2.2L19.991,3.888V9.96Z" transform="translate(0 0.039)" fill="#12263f"/>
        <path id="Trazado_228791-13" data-name="Trazado 228791" d="M49.365,188.964q3.9,0,7.793,0c.809,0,1.232.307,1.193.9-.046.7-.511.894-1.142.893q-7.868-.008-15.735-.006c-.841,0-1.3-.448-1.134-1.093.141-.563.552-.7,1.083-.7,2.647.01,5.3,0,7.943,0" transform="translate(-34.26 -160.571)" fill="#12263f"/>
        <path id="Trazado_228792-13" data-name="Trazado 228792" d="M49.294,149.434q-3.933,0-7.866,0c-.765,0-1.158-.3-1.113-.873.051-.661.478-.843,1.09-.842q7.941.016,15.882,0c.615,0,1.063.192,1.067.856s-.411.873-1.044.868c-2.672-.019-5.344-.008-8.016-.008" transform="translate(-34.264 -125.516)" fill="#12263f"/>
        <path id="Trazado_228793-13" data-name="Trazado 228793" d="M47.752,107.674q-2.922,0-5.845,0c-.223,0-.519.057-.655-.06-.273-.235-.617-.564-.632-.869-.012-.256.372-.568.639-.784.125-.1.385-.043.584-.044q5.994,0,11.989,0c.1,0,.2,0,.3,0a.877.877,0,1,1-.011,1.752c-.974.015-1.948.006-2.922.006H47.752" transform="translate(-34.526 -89.972)" fill="#12263f"/>
        <path id="Trazado_228794-13" data-name="Trazado 228794" d="M44.09,66.483c-.922,0-1.844-.008-2.765,0-.621.008-.957-.311-.941-.9.015-.56.379-.814.95-.811q2.84.016,5.68,0A.855.855,0,1,1,47,66.486c-.971-.012-1.943,0-2.915,0" transform="translate(-34.325 -55.019)" fill="#12263f"/>
      </g>
    </g>
    <g id="Grupo_179425" data-name="Grupo 179425" transform="translate(-5054.976 -8462.302)">
      <g id="Grupo_179378-14" data-name="Grupo 179378" transform="translate(0 0)" clip-path="url(#clip-path-3)">
        <path id="Trazado_228790-14" data-name="Trazado 228790" d="M0,35.856V1.65A2.6,2.6,0,0,1,1.5,0H19.2c.328.3.664.589.981.9q4.427,4.309,8.843,8.628c.4.4.753.85,1.127,1.277V35.856a2.719,2.719,0,0,1-1.5,1.65H1.5A2.659,2.659,0,0,1,0,35.856m27.907-23.7c-2.959,0-5.832,0-8.7,0-1.118,0-1.47-.354-1.472-1.487q-.007-3.825,0-7.651V2.205H2.267v33.08h25.64Zm-1.425-2.2L19.991,3.888V9.96Z" transform="translate(0 0.039)" fill="#636363"/>
        <path id="Trazado_228791-14" data-name="Trazado 228791" d="M49.365,188.964q3.9,0,7.793,0c.809,0,1.232.307,1.193.9-.046.7-.511.894-1.142.893q-7.868-.008-15.735-.006c-.841,0-1.3-.448-1.134-1.093.141-.563.552-.7,1.083-.7,2.647.01,5.3,0,7.943,0" transform="translate(-34.26 -160.571)" fill="#636363"/>
        <path id="Trazado_228792-14" data-name="Trazado 228792" d="M49.294,149.434q-3.933,0-7.866,0c-.765,0-1.158-.3-1.113-.873.051-.661.478-.843,1.09-.842q7.941.016,15.882,0c.615,0,1.063.192,1.067.856s-.411.873-1.044.868c-2.672-.019-5.344-.008-8.016-.008" transform="translate(-34.264 -125.516)" fill="#636363"/>
        <path id="Trazado_228793-14" data-name="Trazado 228793" d="M47.752,107.674q-2.922,0-5.845,0c-.223,0-.519.057-.655-.06-.273-.235-.617-.564-.632-.869-.012-.256.372-.568.639-.784.125-.1.385-.043.584-.044q5.994,0,11.989,0c.1,0,.2,0,.3,0a.877.877,0,1,1-.011,1.752c-.974.015-1.948.006-2.922.006H47.752" transform="translate(-34.526 -89.972)" fill="#636363"/>
        <path id="Trazado_228794-14" data-name="Trazado 228794" d="M44.09,66.483c-.922,0-1.844-.008-2.765,0-.621.008-.957-.311-.941-.9.015-.56.379-.814.95-.811q2.84.016,5.68,0A.855.855,0,1,1,47,66.486c-.971-.012-1.943,0-2.915,0" transform="translate(-34.325 -55.019)" fill="#636363"/>
      </g>
    </g>
    <g id="Grupo_179426" data-name="Grupo 179426" transform="translate(-5054.976 -8416.774)">
      <g id="Grupo_179378-15" data-name="Grupo 179378" transform="translate(0 0)" clip-path="url(#clip-path-10)">
        <path id="Trazado_228790-15" data-name="Trazado 228790" d="M0,35.856V1.65A2.6,2.6,0,0,1,1.5,0H19.2c.328.3.664.589.981.9q4.427,4.309,8.843,8.628c.4.4.753.85,1.127,1.277V35.856a2.719,2.719,0,0,1-1.5,1.65H1.5A2.659,2.659,0,0,1,0,35.856m27.907-23.7c-2.959,0-5.832,0-8.7,0-1.118,0-1.47-.354-1.472-1.487q-.007-3.825,0-7.651V2.205H2.267v33.08h25.64Zm-1.425-2.2L19.991,3.888V9.96Z" transform="translate(0 0.039)" fill="#12263f"/>
        <path id="Trazado_228791-15" data-name="Trazado 228791" d="M49.365,188.964q3.9,0,7.793,0c.809,0,1.232.307,1.193.9-.046.7-.511.894-1.142.893q-7.868-.008-15.735-.006c-.841,0-1.3-.448-1.134-1.093.141-.563.552-.7,1.083-.7,2.647.01,5.3,0,7.943,0" transform="translate(-34.26 -160.571)" fill="#12263f"/>
        <path id="Trazado_228792-15" data-name="Trazado 228792" d="M49.294,149.434q-3.933,0-7.866,0c-.765,0-1.158-.3-1.113-.873.051-.661.478-.843,1.09-.842q7.941.016,15.882,0c.615,0,1.063.192,1.067.856s-.411.873-1.044.868c-2.672-.019-5.344-.008-8.016-.008" transform="translate(-34.264 -125.516)" fill="#12263f"/>
        <path id="Trazado_228793-15" data-name="Trazado 228793" d="M47.752,107.674q-2.922,0-5.845,0c-.223,0-.519.057-.655-.06-.273-.235-.617-.564-.632-.869-.012-.256.372-.568.639-.784.125-.1.385-.043.584-.044q5.994,0,11.989,0c.1,0,.2,0,.3,0a.877.877,0,1,1-.011,1.752c-.974.015-1.948.006-2.922.006H47.752" transform="translate(-34.526 -89.972)" fill="#12263f"/>
        <path id="Trazado_228794-15" data-name="Trazado 228794" d="M44.09,66.483c-.922,0-1.844-.008-2.765,0-.621.008-.957-.311-.941-.9.015-.56.379-.814.95-.811q2.84.016,5.68,0A.855.855,0,1,1,47,66.486c-.971-.012-1.943,0-2.915,0" transform="translate(-34.325 -55.019)" fill="#12263f"/>
      </g>
    </g>
    <g id="Grupo_179427" data-name="Grupo 179427" transform="translate(-5054.976 -8371.247)">
      <g id="Grupo_179378-16" data-name="Grupo 179378" transform="translate(0 0)" clip-path="url(#clip-path)">
        <path id="Trazado_228790-16" data-name="Trazado 228790" d="M0,35.856V1.65A2.6,2.6,0,0,1,1.5,0H19.2c.328.3.664.589.981.9q4.427,4.309,8.843,8.628c.4.4.753.85,1.127,1.277V35.856a2.719,2.719,0,0,1-1.5,1.65H1.5A2.659,2.659,0,0,1,0,35.856m27.907-23.7c-2.959,0-5.832,0-8.7,0-1.118,0-1.47-.354-1.472-1.487q-.007-3.825,0-7.651V2.205H2.267v33.08h25.64Zm-1.425-2.2L19.991,3.888V9.96Z" transform="translate(0 0.039)" fill="#1464c0"/>
        <path id="Trazado_228791-16" data-name="Trazado 228791" d="M49.365,188.964q3.9,0,7.793,0c.809,0,1.232.307,1.193.9-.046.7-.511.894-1.142.893q-7.868-.008-15.735-.006c-.841,0-1.3-.448-1.134-1.093.141-.563.552-.7,1.083-.7,2.647.01,5.3,0,7.943,0" transform="translate(-34.26 -160.571)" fill="#1464c0"/>
        <path id="Trazado_228792-16" data-name="Trazado 228792" d="M49.294,149.434q-3.933,0-7.866,0c-.765,0-1.158-.3-1.113-.873.051-.661.478-.843,1.09-.842q7.941.016,15.882,0c.615,0,1.063.192,1.067.856s-.411.873-1.044.868c-2.672-.019-5.344-.008-8.016-.008" transform="translate(-34.264 -125.516)" fill="#1464c0"/>
        <path id="Trazado_228793-16" data-name="Trazado 228793" d="M47.752,107.674q-2.922,0-5.845,0c-.223,0-.519.057-.655-.06-.273-.235-.617-.564-.632-.869-.012-.256.372-.568.639-.784.125-.1.385-.043.584-.044q5.994,0,11.989,0c.1,0,.2,0,.3,0a.877.877,0,1,1-.011,1.752c-.974.015-1.948.006-2.922.006H47.752" transform="translate(-34.526 -89.972)" fill="#1464c0"/>
        <path id="Trazado_228794-16" data-name="Trazado 228794" d="M44.09,66.483c-.922,0-1.844-.008-2.765,0-.621.008-.957-.311-.941-.9.015-.56.379-.814.95-.811q2.84.016,5.68,0A.855.855,0,1,1,47,66.486c-.971-.012-1.943,0-2.915,0" transform="translate(-34.325 -55.019)" fill="#1464c0"/>
      </g>
    </g>
    <path id="Trazado_232157" data-name="Trazado 232157" d="M-22.29-2.653V0h-1.885V-7.82h3.121a3.635,3.635,0,0,1,1.587.33,2.489,2.489,0,0,1,1.069.94,2.567,2.567,0,0,1,.379,1.383,2.263,2.263,0,0,1-.819,1.829,3.4,3.4,0,0,1-2.248.685Zm0-1.456h1.235a1.165,1.165,0,0,0,.835-.274,1.018,1.018,0,0,0,.287-.773,1.258,1.258,0,0,0-.3-.875,1.046,1.046,0,0,0-.806-.333H-22.29Zm10.125.79H-15.13V-1.45h3.5V0h-5.387V-7.82h5.4v1.456H-15.13v1.649h2.965Zm7.552-3.045H-6.961V0H-8.846V-6.365h-2.3V-7.82h6.537ZM-1.81,0H-3.69V-7.82h1.88ZM5.828-2.648a2.856,2.856,0,0,1-.44,1.442,2.658,2.658,0,0,1-1.131.969A3.848,3.848,0,0,1,2.594.107,3.071,3.071,0,0,1,.167-.9,4.147,4.147,0,0,1-.72-3.733V-4.12a4.734,4.734,0,0,1,.4-2.011A3.032,3.032,0,0,1,.833-7.463a3.214,3.214,0,0,1,1.74-.47,3.371,3.371,0,0,1,2.288.749,2.96,2.96,0,0,1,.983,2.065H3.964A1.4,1.4,0,0,0,3.6-6.145a1.48,1.48,0,0,0-1.031-.312,1.126,1.126,0,0,0-1.031.526A3.383,3.383,0,0,0,1.2-4.249V-3.7a3.743,3.743,0,0,0,.314,1.789,1.15,1.15,0,0,0,1.082.537,1.448,1.448,0,0,0,.994-.306,1.3,1.3,0,0,0,.365-.972ZM8.728,0H6.848V-7.82h1.88Zm7.933-3.749a4.612,4.612,0,0,1-.424,2.025A3.136,3.136,0,0,1,15.031-.368,3.358,3.358,0,0,1,13.25.107a3.405,3.405,0,0,1-1.772-.459,3.131,3.131,0,0,1-1.206-1.313,4.479,4.479,0,0,1-.454-1.96v-.44a4.632,4.632,0,0,1,.422-2.028A3.128,3.128,0,0,1,11.448-7.45a3.381,3.381,0,0,1,1.791-.478,3.348,3.348,0,0,1,1.772.473A3.185,3.185,0,0,1,16.223-6.11a4.5,4.5,0,0,1,.438,2Zm-1.917-.328a3.289,3.289,0,0,0-.389-1.77,1.249,1.249,0,0,0-1.115-.6q-1.418,0-1.5,2.127l-.005.575a3.382,3.382,0,0,0,.381,1.767,1.247,1.247,0,0,0,1.133.618,1.232,1.232,0,0,0,1.1-.607,3.29,3.29,0,0,0,.392-1.746ZM13.46-9.915h1.912L13.879-8.229l-1.477,0ZM24.165,0H22.29L19.519-4.866V0H17.633V-7.82h1.885l2.766,4.866V-7.82h1.88ZM-28,11V3.18h2.519a3.706,3.706,0,0,1,1.864.47,3.3,3.3,0,0,1,1.292,1.327,4.005,4.005,0,0,1,.47,1.92v.36a4.029,4.029,0,0,1-.454,1.926,3.318,3.318,0,0,1-1.278,1.332,3.624,3.624,0,0,1-1.84.486Zm1.885-6.365V9.55h.655a1.467,1.467,0,0,0,1.246-.577,2.829,2.829,0,0,0,.435-1.716V6.918A2.806,2.806,0,0,0-24.21,5.21a1.492,1.492,0,0,0-1.268-.575Zm10.076,3.045H-19V9.55h3.5V11h-5.387V3.18h5.4V4.635H-19V6.284h2.965Zm9.861-3.045H-8.521V11h-1.885V4.635h-2.3V3.18h6.537Zm4.592,4.9H-4.165L-4.616,11H-6.631l2.868-7.82H-1.99L.9,11H-1.125ZM-3.714,8.083h1.681l-.843-2.712Zm8.089.15H3.354V11H1.469V3.18H4.547A3.435,3.435,0,0,1,6.722,3.8,2.091,2.091,0,0,1,7.506,5.54a2.539,2.539,0,0,1-.33,1.352,2.345,2.345,0,0,1-1.034.869l1.633,3.158V11H5.755ZM3.354,6.784H4.547A1.07,1.07,0,0,0,5.355,6.5a1.093,1.093,0,0,0,.271-.789,1.106,1.106,0,0,0-.274-.794,1.06,1.06,0,0,0-.806-.288H3.354Zm10.141.9H10.53V9.55h3.5V11H8.645V3.18h5.4V4.635H10.53V6.284h2.965Zm5.747,1.858H16.658L16.207,11H14.193l2.868-7.82h1.772L21.723,11H19.7ZM17.11,8.083h1.681l-.843-2.712Zm9.217.838a.775.775,0,0,0-.293-.645A3.638,3.638,0,0,0,25.005,7.8a9.868,9.868,0,0,1-1.2-.478,2.278,2.278,0,0,1-1.52-2.052,1.84,1.84,0,0,1,.379-1.147,2.449,2.449,0,0,1,1.072-.773,4.17,4.17,0,0,1,1.558-.277,3.647,3.647,0,0,1,1.512.3,2.394,2.394,0,0,1,1.039.857,2.237,2.237,0,0,1,.371,1.27h-1.88a.945.945,0,0,0-.293-.741,1.141,1.141,0,0,0-.792-.263,1.287,1.287,0,0,0-.8.223.656.656,0,0,0,.03,1.112,4.064,4.064,0,0,0,1.133.5,6.942,6.942,0,0,1,1.332.561,2.238,2.238,0,0,1,1.268,2.014,1.91,1.91,0,0,1-.773,1.611,3.44,3.44,0,0,1-2.122.585,4.209,4.209,0,0,1-1.721-.341,2.6,2.6,0,0,1-1.16-.935,2.435,2.435,0,0,1-.389-1.367h1.891a1.2,1.2,0,0,0,.325.927,1.536,1.536,0,0,0,1.055.3,1.213,1.213,0,0,0,.739-.2A.665.665,0,0,0,26.326,8.921Z" transform="translate(-5176.701 -8502.794)" fill="#fff"/>
    <path id="Trazado_232158" data-name="Trazado 232158" d="M-33.792,0V-7.82h2.519a3.706,3.706,0,0,1,1.864.47,3.3,3.3,0,0,1,1.292,1.327,4.005,4.005,0,0,1,.47,1.92v.36A4.029,4.029,0,0,1-28.1-1.818,3.318,3.318,0,0,1-29.38-.486,3.624,3.624,0,0,1-31.219,0Zm1.885-6.365V-1.45h.655a1.467,1.467,0,0,0,1.246-.577,2.829,2.829,0,0,0,.435-1.716v-.338a2.806,2.806,0,0,0-.435-1.708,1.492,1.492,0,0,0-1.268-.575Zm10.076,3.045H-24.8V-1.45h3.5V0h-5.387V-7.82h5.4v1.456H-24.8v1.649h2.965Zm5.339,1.241a.775.775,0,0,0-.293-.645A3.638,3.638,0,0,0-17.813-3.2a9.868,9.868,0,0,1-1.2-.478,2.278,2.278,0,0,1-1.52-2.052,1.84,1.84,0,0,1,.379-1.147,2.449,2.449,0,0,1,1.072-.773,4.17,4.17,0,0,1,1.558-.277,3.647,3.647,0,0,1,1.512.3,2.394,2.394,0,0,1,1.039.857,2.237,2.237,0,0,1,.371,1.27h-1.88a.945.945,0,0,0-.293-.741,1.141,1.141,0,0,0-.792-.263,1.287,1.287,0,0,0-.8.223.684.684,0,0,0-.293.567.689.689,0,0,0,.322.545,4.064,4.064,0,0,0,1.133.5,6.942,6.942,0,0,1,1.332.561,2.238,2.238,0,0,1,1.268,2.014A1.91,1.91,0,0,1-15.38-.478,3.44,3.44,0,0,1-17.5.107a4.209,4.209,0,0,1-1.721-.341,2.6,2.6,0,0,1-1.16-.935,2.435,2.435,0,0,1-.389-1.367h1.891a1.2,1.2,0,0,0,.325.927,1.536,1.536,0,0,0,1.055.3,1.213,1.213,0,0,0,.739-.2A.665.665,0,0,0-16.492-2.079Zm7.294.618h-2.583L-12.233,0h-2.014l2.868-7.82h1.772L-6.717,0H-8.741ZM-11.33-2.917h1.681l-.843-2.712Zm8.089.15H-4.262V0H-6.147V-7.82H-3.07A3.435,3.435,0,0,1-.894-7.2,2.091,2.091,0,0,1-.11-5.46,2.539,2.539,0,0,1-.44-4.107a2.345,2.345,0,0,1-1.034.869L.158-.081V0h-2.02Zm-1.021-1.45H-3.07A1.07,1.07,0,0,0-2.261-4.5a1.093,1.093,0,0,0,.271-.789,1.106,1.106,0,0,0-.274-.794A1.06,1.06,0,0,0-3.07-6.37H-4.262Zm8.2,1.45H2.914V0H1.029V-7.82H4.106A3.435,3.435,0,0,1,6.281-7.2,2.091,2.091,0,0,1,7.066-5.46a2.539,2.539,0,0,1-.33,1.352A2.345,2.345,0,0,1,5.7-3.238L7.334-.081V0H5.315ZM2.914-4.216H4.106A1.07,1.07,0,0,0,4.915-4.5a1.093,1.093,0,0,0,.271-.789,1.106,1.106,0,0,0-.274-.794,1.06,1.06,0,0,0-.806-.288H2.914Zm11.913.467A4.612,4.612,0,0,1,14.4-1.724,3.136,3.136,0,0,1,13.2-.368a3.358,3.358,0,0,1-1.781.475A3.405,3.405,0,0,1,9.644-.352,3.131,3.131,0,0,1,8.438-1.665a4.479,4.479,0,0,1-.454-1.96v-.44a4.632,4.632,0,0,1,.422-2.028A3.128,3.128,0,0,1,9.614-7.45a3.381,3.381,0,0,1,1.791-.478,3.348,3.348,0,0,1,1.772.473A3.185,3.185,0,0,1,14.389-6.11a4.5,4.5,0,0,1,.438,2Zm-1.917-.328a3.289,3.289,0,0,0-.389-1.77,1.249,1.249,0,0,0-1.115-.6q-1.418,0-1.5,2.127L9.9-3.749a3.382,3.382,0,0,0,.381,1.767,1.247,1.247,0,0,0,1.133.618,1.232,1.232,0,0,0,1.1-.607,3.29,3.29,0,0,0,.392-1.746ZM17.684-1.45h3.282V0H15.8V-7.82h1.885Zm5.962,0h3.282V0H21.761V-7.82h1.885ZM34-3.749a4.612,4.612,0,0,1-.424,2.025A3.136,3.136,0,0,1,32.372-.368a3.358,3.358,0,0,1-1.781.475,3.405,3.405,0,0,1-1.772-.459,3.131,3.131,0,0,1-1.206-1.313,4.479,4.479,0,0,1-.454-1.96v-.44a4.632,4.632,0,0,1,.422-2.028A3.128,3.128,0,0,1,28.789-7.45a3.381,3.381,0,0,1,1.791-.478,3.348,3.348,0,0,1,1.772.473A3.185,3.185,0,0,1,33.564-6.11a4.5,4.5,0,0,1,.438,2Zm-1.917-.328a3.289,3.289,0,0,0-.389-1.77,1.249,1.249,0,0,0-1.115-.6q-1.418,0-1.5,2.127l-.005.575a3.382,3.382,0,0,0,.381,1.767,1.247,1.247,0,0,0,1.133.618,1.232,1.232,0,0,0,1.1-.607,3.29,3.29,0,0,0,.392-1.746Z" transform="translate(-4946.113 -8496.284)" fill="#fff"/>
    <path id="Trazado_232159" data-name="Trazado 232159" d="M-27.505-3.319H-30.47V-1.45h3.5V0h-5.387V-7.82h5.4v1.456H-30.47v1.649h2.965ZM-19.669,0h-1.875l-2.771-4.866V0H-26.2V-7.82h1.885l2.766,4.866V-7.82h1.88Zm5.817-2.653V0h-1.885V-7.82h3.121a3.635,3.635,0,0,1,1.587.33,2.489,2.489,0,0,1,1.069.94,2.567,2.567,0,0,1,.379,1.383A2.263,2.263,0,0,1-10.4-3.338a3.4,3.4,0,0,1-2.248.685Zm0-1.456h1.235a1.165,1.165,0,0,0,.835-.274,1.018,1.018,0,0,0,.287-.773,1.258,1.258,0,0,0-.3-.875,1.046,1.046,0,0,0-.806-.333h-1.257Zm8.18,1.343H-6.692V0H-8.578V-7.82H-5.5A3.435,3.435,0,0,1-3.325-7.2,2.091,2.091,0,0,1-2.541-5.46a2.539,2.539,0,0,1-.33,1.352A2.345,2.345,0,0,1-3.9-3.238L-2.272-.081V0h-2.02Zm-1.021-1.45H-5.5A1.07,1.07,0,0,0-4.692-4.5a1.093,1.093,0,0,0,.271-.789,1.106,1.106,0,0,0-.274-.794A1.06,1.06,0,0,0-5.5-6.37H-6.692ZM4.732-7.82V-2.7A2.942,2.942,0,0,1,4.361-1.2,2.4,2.4,0,0,1,3.3-.226,3.746,3.746,0,0,1,1.66.107,3.237,3.237,0,0,1-.591-.634a2.644,2.644,0,0,1-.838-2.03V-7.82h1.9v5.194Q.5-1.343,1.66-1.343a1.154,1.154,0,0,0,.886-.322,1.506,1.506,0,0,0,.3-1.047V-7.82Zm6.026,4.5H7.793V-1.45h3.5V0H5.908V-7.82h5.4v1.456H7.793v1.649h2.965ZM12.063,0V-7.82h2.809a3.978,3.978,0,0,1,2.3.553,1.841,1.841,0,0,1,.787,1.606,1.861,1.861,0,0,1-.279,1.037,1.627,1.627,0,0,1-.822.634,1.648,1.648,0,0,1,.94.6,1.749,1.749,0,0,1,.328,1.074,2.071,2.071,0,0,1-.728,1.727A3.463,3.463,0,0,1,15.238,0Zm1.885-3.325V-1.45h1.235a1.175,1.175,0,0,0,.784-.234.818.818,0,0,0,.274-.658.867.867,0,0,0-.972-.983Zm0-1.235h.983a1.4,1.4,0,0,0,.881-.226.8.8,0,0,0,.263-.652.843.843,0,0,0-.285-.714,1.524,1.524,0,0,0-.918-.218h-.924Zm9.652,3.1H21.017L20.566,0H18.552L21.42-7.82h1.772L26.082,0H24.057ZM21.468-2.917h1.681l-.843-2.712Zm9.217.838a.775.775,0,0,0-.293-.645A3.638,3.638,0,0,0,29.364-3.2a9.868,9.868,0,0,1-1.2-.478,2.278,2.278,0,0,1-1.52-2.052,1.84,1.84,0,0,1,.379-1.147,2.449,2.449,0,0,1,1.072-.773,4.17,4.17,0,0,1,1.558-.277,3.647,3.647,0,0,1,1.512.3A2.394,2.394,0,0,1,32.2-6.77,2.237,2.237,0,0,1,32.57-5.5H30.69a.945.945,0,0,0-.293-.741,1.141,1.141,0,0,0-.792-.263,1.287,1.287,0,0,0-.8.223.684.684,0,0,0-.293.567.689.689,0,0,0,.322.545,4.064,4.064,0,0,0,1.133.5A6.942,6.942,0,0,1,31.3-4.1,2.238,2.238,0,0,1,32.57-2.089,1.91,1.91,0,0,1,31.8-.478a3.44,3.44,0,0,1-2.122.585,4.209,4.209,0,0,1-1.721-.341,2.6,2.6,0,0,1-1.16-.935A2.435,2.435,0,0,1,26.4-2.535h1.891a1.2,1.2,0,0,0,.325.927,1.536,1.536,0,0,0,1.055.3,1.213,1.213,0,0,0,.739-.2A.665.665,0,0,0,30.685-2.079Z" transform="translate(-4829.937 -8496.284)" fill="#fff"/>
    <path id="Trazado_232160" data-name="Trazado 232160" d="M-24.892-6.365H-27.24V0h-1.885V-6.365h-2.3V-7.82h6.537Zm5.645,3.045h-2.965V-1.45h3.5V0H-24.1V-7.82h5.4v1.456h-3.513v1.649h2.965Zm4.211.553h-1.021V0h-1.885V-7.82h3.078a3.435,3.435,0,0,1,2.175.617,2.091,2.091,0,0,1,.784,1.744,2.539,2.539,0,0,1-.33,1.352,2.345,2.345,0,0,1-1.034.869l1.633,3.158V0h-2.02Zm-1.021-1.45h1.192a1.07,1.07,0,0,0,.808-.283,1.093,1.093,0,0,0,.271-.789,1.106,1.106,0,0,0-.274-.794,1.06,1.06,0,0,0-.806-.288h-1.192Zm7.767-3.6,1.746,5.441L-4.8-7.82h2.481V0H-4.214V-1.826l.183-3.738L-5.922,0H-7.168l-1.9-5.57.183,3.744V0h-1.885V-7.82ZM.884,0H-1V-7.82H.884ZM8.725,0H6.851L4.079-4.866V0H2.194V-7.82H4.079L6.845-2.954V-7.82h1.88Zm5.731-1.461H11.873L11.422,0H9.407l2.868-7.82h1.772L16.938,0H14.913ZM12.324-2.917h1.681l-.843-2.712ZM17.507,0V-7.82h2.519a3.706,3.706,0,0,1,1.864.47,3.3,3.3,0,0,1,1.292,1.327,4.005,4.005,0,0,1,.47,1.92v.36A4.029,4.029,0,0,1,23.2-1.818,3.318,3.318,0,0,1,21.919-.486,3.624,3.624,0,0,1,20.08,0Zm1.885-6.365V-1.45h.655a1.467,1.467,0,0,0,1.246-.577,2.829,2.829,0,0,0,.435-1.716v-.338a2.806,2.806,0,0,0-.435-1.708,1.492,1.492,0,0,0-1.268-.575ZM31.241-3.749a4.612,4.612,0,0,1-.424,2.025A3.136,3.136,0,0,1,29.611-.368,3.358,3.358,0,0,1,27.83.107a3.405,3.405,0,0,1-1.772-.459,3.131,3.131,0,0,1-1.206-1.313,4.479,4.479,0,0,1-.454-1.96v-.44a4.632,4.632,0,0,1,.422-2.028A3.128,3.128,0,0,1,26.028-7.45a3.381,3.381,0,0,1,1.791-.478,3.348,3.348,0,0,1,1.772.473A3.185,3.185,0,0,1,30.8-6.11a4.5,4.5,0,0,1,.438,2Zm-1.917-.328a3.289,3.289,0,0,0-.389-1.77,1.249,1.249,0,0,0-1.115-.6q-1.418,0-1.5,2.127l-.005.575A3.382,3.382,0,0,0,26.7-1.982a1.247,1.247,0,0,0,1.133.618,1.232,1.232,0,0,0,1.1-.607,3.29,3.29,0,0,0,.392-1.746Z" transform="translate(-4714.76 -8496.284)" fill="#fff"/>
    <path id="Trazado_232161" data-name="Trazado 232161" d="M-24.492-2.079a.775.775,0,0,0-.293-.645A3.638,3.638,0,0,0-25.813-3.2a9.868,9.868,0,0,1-1.2-.478,2.278,2.278,0,0,1-1.52-2.052,1.84,1.84,0,0,1,.379-1.147,2.449,2.449,0,0,1,1.072-.773,4.17,4.17,0,0,1,1.558-.277,3.647,3.647,0,0,1,1.512.3,2.394,2.394,0,0,1,1.039.857,2.237,2.237,0,0,1,.371,1.27h-1.88a.945.945,0,0,0-.293-.741,1.141,1.141,0,0,0-.792-.263,1.287,1.287,0,0,0-.8.223.684.684,0,0,0-.293.567.689.689,0,0,0,.322.545,4.064,4.064,0,0,0,1.133.5,6.942,6.942,0,0,1,1.332.561,2.238,2.238,0,0,1,1.268,2.014A1.91,1.91,0,0,1-23.38-.478,3.44,3.44,0,0,1-25.5.107a4.209,4.209,0,0,1-1.721-.341,2.6,2.6,0,0,1-1.16-.935,2.435,2.435,0,0,1-.389-1.367h1.891a1.2,1.2,0,0,0,.325.927,1.536,1.536,0,0,0,1.055.3,1.213,1.213,0,0,0,.739-.2A.665.665,0,0,0-24.492-2.079Zm7.7-1.241h-2.965V-1.45h3.5V0H-21.64V-7.82h5.4v1.456h-3.513v1.649h2.965ZM-13.6-1.45h3.282V0h-5.167V-7.82H-13.6Zm8.927-1.869H-7.638V-1.45h3.5V0H-9.523V-7.82h5.4v1.456H-7.638v1.649h2.965Zm7.632.671a2.856,2.856,0,0,1-.44,1.442,2.658,2.658,0,0,1-1.131.969A3.848,3.848,0,0,1-.274.107,3.071,3.071,0,0,1-2.7-.9a4.147,4.147,0,0,1-.886-2.836V-4.12a4.734,4.734,0,0,1,.4-2.011A3.032,3.032,0,0,1-2.036-7.463,3.214,3.214,0,0,1-.3-7.933a3.371,3.371,0,0,1,2.288.749,2.96,2.96,0,0,1,.983,2.065H1.1a1.4,1.4,0,0,0-.36-1.026A1.48,1.48,0,0,0-.3-6.456a1.126,1.126,0,0,0-1.031.526A3.383,3.383,0,0,0-1.67-4.249V-3.7a3.743,3.743,0,0,0,.314,1.789A1.15,1.15,0,0,0-.274-1.37,1.448,1.448,0,0,0,.72-1.676a1.3,1.3,0,0,0,.365-.972Zm7.219,0a2.856,2.856,0,0,1-.44,1.442,2.658,2.658,0,0,1-1.131.969A3.848,3.848,0,0,1,6.945.107a3.071,3.071,0,0,1-2.428-1,4.147,4.147,0,0,1-.886-2.836V-4.12a4.734,4.734,0,0,1,.4-2.011A3.032,3.032,0,0,1,5.183-7.463a3.214,3.214,0,0,1,1.74-.47,3.371,3.371,0,0,1,2.288.749,2.96,2.96,0,0,1,.983,2.065H8.314a1.4,1.4,0,0,0-.36-1.026,1.48,1.48,0,0,0-1.031-.312,1.126,1.126,0,0,0-1.031.526,3.383,3.383,0,0,0-.344,1.681V-3.7a3.743,3.743,0,0,0,.314,1.789,1.15,1.15,0,0,0,1.082.537,1.448,1.448,0,0,0,.994-.306A1.3,1.3,0,0,0,8.3-2.648ZM13.079,0H11.2V-7.82h1.88Zm7.933-3.749a4.612,4.612,0,0,1-.424,2.025A3.136,3.136,0,0,1,19.382-.368,3.358,3.358,0,0,1,17.6.107a3.405,3.405,0,0,1-1.772-.459,3.131,3.131,0,0,1-1.206-1.313,4.479,4.479,0,0,1-.454-1.96v-.44a4.632,4.632,0,0,1,.422-2.028A3.128,3.128,0,0,1,15.8-7.45a3.381,3.381,0,0,1,1.791-.478,3.348,3.348,0,0,1,1.772.473A3.185,3.185,0,0,1,20.574-6.11a4.5,4.5,0,0,1,.438,2Zm-1.917-.328a3.289,3.289,0,0,0-.389-1.77,1.249,1.249,0,0,0-1.115-.6q-1.418,0-1.5,2.127l-.005.575a3.382,3.382,0,0,0,.381,1.767,1.247,1.247,0,0,0,1.133.618,1.232,1.232,0,0,0,1.1-.607,3.29,3.29,0,0,0,.392-1.746ZM17.811-9.915h1.912L18.229-8.229l-1.477,0ZM28.515,0H26.641L23.869-4.866V0H21.984V-7.82h1.885l2.766,4.866V-7.82h1.88ZM-28,11V3.18h2.519a3.706,3.706,0,0,1,1.864.47,3.3,3.3,0,0,1,1.292,1.327,4.005,4.005,0,0,1,.47,1.92v.36a4.029,4.029,0,0,1-.454,1.926,3.318,3.318,0,0,1-1.278,1.332,3.624,3.624,0,0,1-1.84.486Zm1.885-6.365V9.55h.655a1.467,1.467,0,0,0,1.246-.577,2.829,2.829,0,0,0,.435-1.716V6.918A2.806,2.806,0,0,0-24.21,5.21a1.492,1.492,0,0,0-1.268-.575Zm10.076,3.045H-19V9.55h3.5V11h-5.387V3.18h5.4V4.635H-19V6.284h2.965Zm9.861-3.045H-8.521V11h-1.885V4.635h-2.3V3.18h6.537Zm4.592,4.9H-4.165L-4.616,11H-6.631l2.868-7.82H-1.99L.9,11H-1.125ZM-3.714,8.083h1.681l-.843-2.712Zm8.089.15H3.354V11H1.469V3.18H4.547A3.435,3.435,0,0,1,6.722,3.8,2.091,2.091,0,0,1,7.506,5.54a2.539,2.539,0,0,1-.33,1.352,2.345,2.345,0,0,1-1.034.869l1.633,3.158V11H5.755ZM3.354,6.784H4.547A1.07,1.07,0,0,0,5.355,6.5a1.093,1.093,0,0,0,.271-.789,1.106,1.106,0,0,0-.274-.794,1.06,1.06,0,0,0-.806-.288H3.354Zm10.141.9H10.53V9.55h3.5V11H8.645V3.18h5.4V4.635H10.53V6.284h2.965Zm5.747,1.858H16.658L16.207,11H14.193l2.868-7.82h1.772L21.723,11H19.7ZM17.11,8.083h1.681l-.843-2.712Zm9.217.838a.775.775,0,0,0-.293-.645A3.638,3.638,0,0,0,25.005,7.8a9.868,9.868,0,0,1-1.2-.478,2.278,2.278,0,0,1-1.52-2.052,1.84,1.84,0,0,1,.379-1.147,2.449,2.449,0,0,1,1.072-.773,4.17,4.17,0,0,1,1.558-.277,3.647,3.647,0,0,1,1.512.3,2.394,2.394,0,0,1,1.039.857,2.237,2.237,0,0,1,.371,1.27h-1.88a.945.945,0,0,0-.293-.741,1.141,1.141,0,0,0-.792-.263,1.287,1.287,0,0,0-.8.223.656.656,0,0,0,.03,1.112,4.064,4.064,0,0,0,1.133.5,6.942,6.942,0,0,1,1.332.561,2.238,2.238,0,0,1,1.268,2.014,1.91,1.91,0,0,1-.773,1.611,3.44,3.44,0,0,1-2.122.585,4.209,4.209,0,0,1-1.721-.341,2.6,2.6,0,0,1-1.16-.935,2.435,2.435,0,0,1-.389-1.367h1.891a1.2,1.2,0,0,0,.325.927,1.536,1.536,0,0,0,1.055.3,1.213,1.213,0,0,0,.739-.2A.665.665,0,0,0,26.326,8.921Z" transform="translate(-5060.152 -8502.794)" fill="#fff"/>
  </g>
</svg>
