<?xml version="1.0" encoding="utf-8"?>
<!-- Generator: Adobe Illustrator 26.2.1, SVG Export Plug-In . SVG Version: 6.00 Build 0)  -->
<svg version="1.1" id="Layer_1" xmlns="http://www.w3.org/2000/svg" xmlns:xlink="http://www.w3.org/1999/xlink" x="0px" y="0px"
	 viewBox="0 0 378 282" style="enable-background:new 0 0 378 282;" xml:space="preserve">
<style type="text/css">
	.st0{fill:#E8E8E8;}
	.st1{fill:url(#Trazado_232164_00000034083083546566661630000003108549242615680910_);}
	.st2{fill:#FFFFFF;}
	.st3{fill:#12263F;}
	.st4{fill:#F4A338;}
</style>
<path id="Trazado_232162" class="st0" d="M0,0h378v106H0V0z"/>
<path id="Trazado_232163" class="st0" d="M0,176h378v106H0V176z"/>
<linearGradient id="Trazado_232164_00000163787590226755870580000012640650720231604645_" gradientUnits="userSpaceOnUse" x1="-114.797" y1="536.4699" x2="-114.797" y2="535.4699" gradientTransform="matrix(165 0 0 -166 19123 89108)">
	<stop  offset="0" style="stop-color:#FDBE41"/>
	<stop  offset="1" style="stop-color:#D09F40"/>
</linearGradient>
<path id="Trazado_232164" style="fill:url(#Trazado_232164_00000163787590226755870580000012640650720231604645_);" d="M181.5,54
	c45.6,0,82.5,37.2,82.5,83s-36.9,83-82.5,83S99,182.8,99,137S135.9,54,181.5,54z"/>
<path id="Trazado_232165" class="st2" d="M152.7,110.8l3.2,9.9l3.2-9.9h4.5V125h-3.4v-3.3l0.3-6.8L157,125h-2.3l-3.4-10.1l0.3,6.8
	v3.3h-3.4v-14.2H152.7z M170.6,125.2c-1.5,0.1-2.9-0.5-3.9-1.4c-1-1-1.6-2.4-1.5-3.8v-0.3c0-1,0.2-2,0.6-2.9c0.4-0.8,1-1.5,1.8-1.9
	c0.8-0.5,1.8-0.7,2.7-0.7c1.3-0.1,2.6,0.4,3.5,1.4c0.9,1.1,1.4,2.5,1.3,3.9v1.3h-6.5c0.1,0.5,0.4,1,0.8,1.4c0.4,0.4,1,0.5,1.5,0.5
	c0.9,0,1.8-0.4,2.4-1.1l1.5,1.8c-0.4,0.6-1,1.1-1.7,1.4C172.3,125,171.5,125.2,170.6,125.2z M170.3,116.8c-1,0-1.5,0.6-1.7,1.9h3.3
	v-0.3c0-0.4-0.1-0.9-0.4-1.2C171.2,116.9,170.7,116.7,170.3,116.8L170.3,116.8z M170.2,110h3.5l-2.7,3.1h-2.7L170.2,110z
	 M180.3,111.8v2.6h1.7v2.3h-1.7v4.8c0,0.3,0,0.6,0.2,0.8c0.2,0.2,0.5,0.3,0.9,0.2c0.3,0,0.5,0,0.8-0.1v2.4c-0.6,0.2-1.2,0.3-1.9,0.3
	c-0.9,0.1-1.8-0.2-2.5-0.8c-0.6-0.7-0.9-1.5-0.8-2.4v-5.2h-1.3v-2.3h1.3v-2.6L180.3,111.8z M182.6,119.6c0-1,0.2-1.9,0.6-2.8
	c0.4-0.8,1-1.5,1.8-1.9c0.8-0.5,1.8-0.7,2.7-0.7c1.4-0.1,2.8,0.5,3.7,1.5c1,1.1,1.4,2.5,1.4,4v0.1c0.1,1.4-0.4,2.8-1.4,3.9
	c-1,1-2.3,1.5-3.7,1.5c-1.3,0.1-2.7-0.4-3.6-1.4c-0.9-1-1.5-2.3-1.5-3.7L182.6,119.6z M185.9,119.8c-0.1,0.7,0.1,1.5,0.5,2.1
	c0.3,0.5,0.8,0.7,1.4,0.7c1.2,0,1.8-0.9,1.8-2.7v-0.3c0-1.9-0.6-2.8-1.8-2.8c-1.1,0-1.7,0.8-1.8,2.5L185.9,119.8z M193.8,119.6
	c-0.1-1.4,0.3-2.8,1.1-4c0.7-1,1.8-1.5,3-1.4c0.9,0,1.8,0.4,2.4,1.1V110h3.3v15h-3l-0.2-1.1c-0.6,0.8-1.6,1.3-2.6,1.3
	c-1.2,0-2.3-0.5-3-1.4C194.1,122.5,193.7,121.1,193.8,119.6L193.8,119.6z M197.1,119.8c0,1.9,0.5,2.8,1.6,2.8c0.7,0,1.3-0.3,1.6-0.9
	v-4c-0.3-0.6-0.9-1-1.5-0.9c-1,0-1.6,0.8-1.6,2.5L197.1,119.8z M205.1,119.6c0-1,0.2-1.9,0.6-2.8c0.4-0.8,1-1.5,1.8-1.9
	c0.8-0.5,1.8-0.7,2.7-0.7c1.4-0.1,2.8,0.5,3.7,1.5c1,1.1,1.4,2.5,1.4,4v0.1c0.1,1.4-0.4,2.8-1.4,3.9c-1,1-2.3,1.5-3.7,1.5
	c-1.3,0.1-2.7-0.4-3.6-1.4c-0.9-1-1.5-2.3-1.5-3.7L205.1,119.6z M208.4,119.8c-0.1,0.7,0.1,1.5,0.5,2.1c0.3,0.5,0.8,0.7,1.4,0.7
	c1.2,0,1.8-0.9,1.8-2.7v-0.3c0-1.9-0.6-2.8-1.8-2.8c-1.1,0-1.7,0.8-1.8,2.5L208.4,119.8z"/>
<path id="Trazado_232167" class="st3" d="M161.6,18.2c0,0.9-0.3,1.8-0.8,2.6c-0.5,0.8-1.2,1.4-2.1,1.8c-0.9,0.4-2,0.6-3,0.6
	c-1.7,0.1-3.3-0.6-4.4-1.8c-1.2-1.5-1.7-3.3-1.6-5.2v-0.7c0-1.3,0.2-2.5,0.7-3.7c0.4-1,1.2-1.8,2.1-2.4c1-0.6,2-0.9,3.2-0.9
	c1.5-0.1,3,0.4,4.2,1.4c1.1,1,1.7,2.3,1.8,3.8h-3.4c0-0.7-0.2-1.4-0.7-1.9c-0.5-0.4-1.2-0.6-1.9-0.6c-0.8-0.1-1.5,0.3-1.9,1
	c-0.5,0.9-0.7,2-0.6,3.1v1c-0.1,1.1,0.1,2.2,0.6,3.3c0.4,0.7,1.2,1,2,1c0.7,0,1.3-0.2,1.8-0.6c0.5-0.5,0.7-1.1,0.7-1.8L161.6,18.2z
	 M168.5,18h-1.9v5h-3.4V8.8h5.6c1.4-0.1,2.8,0.3,4,1.1c1,0.8,1.5,1.9,1.4,3.2c0,0.9-0.2,1.7-0.6,2.5c-0.5,0.7-1.1,1.2-1.9,1.6l3,5.7
	V23H171L168.5,18z M166.6,15.3h2.2c0.5,0,1.1-0.1,1.5-0.5c0.3-0.4,0.5-0.9,0.5-1.4c0-0.5-0.1-1-0.5-1.4c-0.4-0.4-0.9-0.6-1.5-0.5
	h-2.2V15.3z M185,17h-5.4v3.4h6.4V23h-9.8V8.8h9.8v2.6h-6.4v3h5.4V17z M195.5,20.3h-4.7L190,23h-3.7l5.2-14.2h3.2L200,23h-3.7
	L195.5,20.3z M191.6,17.7h3.1l-1.5-4.9L191.6,17.7z M206.3,18h-1.9v5H201V8.8h5.6c1.4-0.1,2.8,0.3,4,1.1c1,0.8,1.5,1.9,1.4,3.2
	c0,0.9-0.2,1.7-0.6,2.5c-0.5,0.7-1.1,1.2-1.9,1.6l3,5.7V23h-3.7L206.3,18z M204.5,15.3h2.2c0.5,0,1.1-0.1,1.5-0.5
	c0.3-0.4,0.5-0.9,0.5-1.4c0-0.5-0.1-1-0.5-1.4c-0.4-0.4-0.9-0.6-1.5-0.5h-2.2V15.3z"/>
<path id="Trazado_232168" class="st3" d="M24.1,229.3h-4.7l-0.8,2.7h-3.7l5.2-14.2h3.2l5.3,14.2h-3.7L24.1,229.3z M20.2,226.7h3.1
	l-1.5-4.9L20.2,226.7z M33.1,227.2v4.8h-3.4v-14.2h5.7c1,0,2,0.2,2.9,0.6c0.8,0.4,1.5,1,1.9,1.7c0.5,0.8,0.7,1.6,0.7,2.5
	c0,1.3-0.5,2.5-1.5,3.3c-1.2,0.9-2.6,1.3-4.1,1.2L33.1,227.2z M33.1,224.5h2.2c0.6,0,1.1-0.1,1.5-0.5c0.4-0.4,0.6-0.9,0.5-1.4
	c0-0.6-0.2-1.1-0.5-1.6c-0.4-0.4-0.9-0.6-1.5-0.6h-2.3L33.1,224.5z M48,227h-1.9v5h-3.4v-14.2h5.6c1.4-0.1,2.8,0.3,4,1.1
	c1,0.8,1.5,1.9,1.4,3.2c0,0.9-0.2,1.7-0.6,2.5c-0.5,0.7-1.1,1.2-1.9,1.6l3,5.7v0.2h-3.7L48,227z M46.1,224.3h2.2
	c0.5,0,1.1-0.1,1.5-0.5c0.3-0.4,0.5-0.9,0.5-1.4c0-0.5-0.1-1-0.5-1.4c-0.4-0.4-0.9-0.6-1.5-0.5h-2.2V224.3z M64.5,226h-5.4v3.4h6.4
	v2.6h-9.8v-14.2h9.8v2.6h-6.4v3h5.4L64.5,226z M78.8,232h-3.4l-5-8.8v8.8h-3.4v-14.2h3.4l5,8.8v-8.8h3.4V232z M81,232v-14.2h4.6
	c1.2,0,2.4,0.3,3.4,0.9c1,0.6,1.8,1.4,2.3,2.4c0.6,1.1,0.9,2.3,0.9,3.5v0.7c0,1.2-0.3,2.4-0.8,3.5c-0.5,1-1.3,1.9-2.3,2.4
	c-1,0.6-2.2,0.9-3.3,0.9H81z M84.4,220.4v8.9h1.2c0.9,0,1.7-0.3,2.3-1.1c0.6-0.9,0.9-2,0.8-3.1v-0.6c0.1-1.1-0.2-2.2-0.8-3.1
	c-0.5-0.7-1.4-1.1-2.3-1L84.4,220.4z M102.7,226h-5.4v3.4h6.4v2.6h-9.8v-14.2h9.8v2.6h-6.4v3h5.4V226z M110.4,227h-1.9v5h-3.4v-14.2
	h5.6c1.4-0.1,2.8,0.3,4,1.1c1,0.8,1.5,1.9,1.4,3.2c0,0.9-0.2,1.7-0.6,2.5c-0.5,0.7-1.1,1.2-1.9,1.6l3,5.7v0.1h-3.7L110.4,227z
	 M108.5,224.3h2.2c0.5,0,1.1-0.1,1.5-0.5c0.3-0.4,0.5-0.9,0.5-1.4c0-0.5-0.1-1-0.5-1.4c-0.4-0.4-0.9-0.6-1.5-0.5h-2.2V224.3z"/>
<path id="Trazado_232169" class="st3" d="M273.2,217.8l3.2,9.9l3.2-9.9h4.5V232h-3.4v-3.3l0.3-6.8l-3.4,10.1h-2.3l-3.5-10.1l0.3,6.8
	v3.3h-3.4v-14.2H273.2z M295.1,226h-5.4v3.4h6.4v2.6h-9.8v-14.2h9.8v2.6h-6.4v3h5.4V226z M297.4,232v-14.2h4.6
	c1.2,0,2.4,0.3,3.4,0.9c1,0.6,1.8,1.4,2.3,2.4c0.6,1.1,0.9,2.3,0.9,3.5v0.7c0,1.2-0.3,2.4-0.8,3.5c-0.5,1-1.3,1.9-2.3,2.4
	c-1,0.6-2.2,0.9-3.3,0.9H297.4z M300.9,220.4v8.9h1.2c0.9,0,1.7-0.3,2.3-1.1c0.6-0.9,0.9-2,0.8-3.1v-0.6c0.1-1.1-0.2-2.2-0.8-3.1
	c-0.5-0.7-1.4-1.1-2.3-1H300.9z M314,232h-3.4v-14.2h3.4V232z M321.7,227h-1.9v5h-3.4v-14.2h5.6c1.4-0.1,2.8,0.3,4,1.1
	c1,0.8,1.5,1.9,1.4,3.2c0,0.9-0.2,1.7-0.6,2.5c-0.5,0.7-1.1,1.2-1.9,1.6l3,5.7v0.1h-3.7L321.7,227z M319.8,224.3h2.2
	c0.5,0,1.1-0.1,1.5-0.5c0.3-0.4,0.5-0.9,0.5-1.4c0-0.5-0.1-1-0.5-1.4c-0.4-0.4-0.9-0.6-1.5-0.5h-2.2V224.3z"/>
<path id="Trazado_232170" class="st3" d="M100.8,35.6L100.8,35.6c-0.2,0.7-0.5,1.4-1,1.8c-0.5,0.5-1.2,0.7-1.9,0.7
	c-0.8,0-1.5-0.4-1.9-1c-0.5-0.7-0.6-1.6-0.4-2.4l0.3-1.4c0.1-0.9,0.5-1.7,1.2-2.4c0.5-0.6,1.3-0.9,2.1-0.9c0.7,0,1.4,0.2,1.8,0.7
	c0.5,0.5,0.6,1.2,0.5,1.9l0,0h-1c0.1-0.5,0-0.9-0.3-1.3c-0.3-0.3-0.7-0.5-1.2-0.5c-0.5,0-1,0.3-1.3,0.7c-0.4,0.5-0.7,1.1-0.8,1.7
	l-0.3,1.4c-0.2,0.6-0.1,1.3,0.2,1.8c0.2,0.5,0.7,0.7,1.2,0.7c0.4,0,0.8-0.1,1.1-0.4c0.3-0.4,0.6-0.8,0.7-1.3H100.8z M101.9,35
	c0.1-0.8,0.4-1.6,1-2.2c0.5-0.5,1.2-0.8,1.9-0.8c0.7,0,1.3,0.3,1.6,0.8c0.4,0.6,0.5,1.4,0.3,2.1l0,0.1c-0.1,0.8-0.4,1.6-1,2.2
	c-0.5,0.5-1.2,0.8-1.9,0.8c-0.7,0-1.3-0.3-1.6-0.8c-0.4-0.6-0.5-1.4-0.3-2.1L101.9,35z M102.9,35.2c-0.1,0.5-0.1,1,0.1,1.5
	c0.2,0.4,0.5,0.6,1,0.6c0.4,0,0.9-0.2,1.1-0.6c0.3-0.4,0.5-1,0.6-1.5l0-0.1c0.1-0.5,0.1-1-0.1-1.5c-0.2-0.4-0.5-0.6-0.9-0.6
	c-0.5,0-0.9,0.2-1.1,0.6c-0.3,0.4-0.5,1-0.6,1.5L102.9,35.2z M109.4,33c0.2-0.3,0.5-0.5,0.8-0.7c0.3-0.2,0.6-0.2,1-0.2
	c0.5,0,0.9,0.2,1.2,0.6c0.3,0.5,0.3,1.1,0.2,1.7l-0.7,3.7h-1l0.7-3.6c0.1-0.4,0.1-0.8,0-1.1c-0.2-0.2-0.5-0.3-0.8-0.3
	c-0.3,0-0.5,0.1-0.7,0.2c-0.3,0.2-0.5,0.4-0.7,0.6l-0.8,4.2h-1l1.2-5.8h0.9L109.4,33z M116.8,36.5c0-0.2,0-0.4-0.1-0.6
	c-0.2-0.2-0.5-0.3-0.8-0.4c-0.5-0.1-1-0.3-1.4-0.6c-0.3-0.3-0.4-0.7-0.3-1.1c0.1-0.5,0.4-0.9,0.8-1.2c0.4-0.3,1-0.5,1.6-0.5
	c0.5,0,1,0.2,1.4,0.5c0.3,0.3,0.5,0.8,0.4,1.3l0,0h-1c0-0.2,0-0.5-0.2-0.7c-0.2-0.2-0.4-0.3-0.7-0.3c-0.3,0-0.6,0.1-0.8,0.3
	c-0.2,0.1-0.3,0.4-0.4,0.6c-0.1,0.2,0,0.4,0.1,0.5c0.2,0.2,0.5,0.3,0.8,0.3c0.5,0.1,1,0.3,1.4,0.6c0.3,0.3,0.4,0.7,0.3,1.1
	c-0.1,0.5-0.4,1-0.8,1.3c-0.5,0.3-1,0.5-1.6,0.5c-0.6,0-1.1-0.2-1.5-0.6c-0.3-0.3-0.5-0.8-0.4-1.3l0,0h1c-0.1,0.3,0,0.6,0.2,0.8
	c0.2,0.2,0.5,0.3,0.8,0.3c0.3,0,0.6-0.1,0.8-0.2C116.6,36.9,116.7,36.7,116.8,36.5z M121.6,30.8l-0.3,1.4h1l-0.2,0.8h-1l-0.7,3.5
	c-0.1,0.2-0.1,0.4,0,0.6c0.1,0.1,0.2,0.2,0.4,0.2c0.1,0,0.2,0,0.3,0c0.1,0,0.2,0,0.3-0.1l0,0.7c-0.1,0.1-0.3,0.1-0.4,0.2
	c-0.2,0-0.4,0.1-0.6,0.1c-0.3,0-0.7-0.1-0.9-0.4c-0.2-0.4-0.3-0.8-0.1-1.2l0.7-3.5h-0.8l0.2-0.8h0.8l0.3-1.4H121.6z M126,33.1
	l-0.6,0c-0.2,0-0.5,0.1-0.7,0.2c-0.2,0.1-0.4,0.3-0.5,0.6l-0.8,4.1h-1l1.2-5.8h0.9l-0.1,0.8c0.2-0.3,0.4-0.5,0.7-0.7
	c0.2-0.2,0.5-0.2,0.8-0.2c0.1,0,0.2,0,0.2,0c0.1,0,0.1,0,0.2,0L126,33.1z M129.5,38l0.1-0.8c-0.2,0.3-0.5,0.5-0.8,0.7
	c-0.3,0.2-0.6,0.2-1,0.2c-0.5,0-1-0.2-1.2-0.6c-0.3-0.6-0.3-1.3-0.1-1.9l0.7-3.4h1l-0.7,3.4c-0.1,0.4-0.1,0.9,0,1.3
	c0.2,0.2,0.4,0.4,0.7,0.3c0.3,0,0.6-0.1,0.9-0.2c0.3-0.2,0.5-0.4,0.7-0.7l0.8-4.2h1l-1.2,5.8H129.5z M133.1,38h-1l1.2-5.8h1
	L133.1,38z M134.5,30.7h-1l0.2-1.1h1L134.5,30.7z M138.2,33.1l-0.6,0c-0.2,0-0.5,0.1-0.7,0.2c-0.2,0.1-0.4,0.3-0.5,0.6l-0.8,4.1h-1
	l1.2-5.8h0.9l-0.1,0.8c0.2-0.3,0.4-0.5,0.7-0.7c0.2-0.2,0.5-0.2,0.8-0.2c0.1,0,0.2,0,0.2,0c0.1,0,0.1,0,0.2,0L138.2,33.1z
	 M143.2,38.1c-0.7,0-1.3-0.3-1.7-0.8c-0.4-0.6-0.5-1.4-0.4-2.1l0-0.2c0.1-0.8,0.5-1.5,1-2.1c0.5-0.5,1.1-0.8,1.8-0.8
	c0.6-0.1,1.2,0.2,1.5,0.7c0.3,0.6,0.4,1.2,0.3,1.9l-0.1,0.7h-3.5c-0.1,0.5,0,1,0.2,1.4c0.2,0.4,0.6,0.6,1,0.5c0.3,0,0.6-0.1,0.9-0.2
	c0.3-0.1,0.5-0.2,0.7-0.4l0.3,0.7c-0.2,0.2-0.5,0.4-0.8,0.5C144,38.1,143.6,38.1,143.2,38.1z M143.9,32.9c-0.3,0-0.7,0.2-0.9,0.5
	c-0.3,0.3-0.5,0.7-0.6,1.1l0,0h2.4l0-0.1c0.1-0.4,0-0.7-0.1-1.1C144.5,33,144.2,32.9,143.9,32.9L143.9,32.9z M147.5,38h-1l1.7-8.4h1
	L147.5,38z M156.8,35.4c-0.1,0.7-0.4,1.4-0.9,2c-0.4,0.4-1,0.7-1.6,0.7c-0.3,0-0.6-0.1-0.8-0.2c-0.2-0.1-0.5-0.3-0.6-0.5l-0.6,2.8
	h-1l1.6-8h0.9l0,0.6c0.2-0.2,0.5-0.4,0.7-0.5c0.3-0.1,0.6-0.2,0.9-0.2c0.6,0,1.2,0.4,1.4,0.9c0.3,0.7,0.4,1.5,0.2,2.3L156.8,35.4z
	 M155.8,35.3c0.1-0.6,0.1-1.2-0.1-1.7c-0.1-0.4-0.5-0.7-1-0.7c-0.2,0-0.5,0.1-0.7,0.2c-0.2,0.2-0.4,0.3-0.6,0.6l-0.6,2.8
	c0.1,0.2,0.2,0.4,0.4,0.5c0.2,0.1,0.5,0.2,0.7,0.2c0.4,0,0.8-0.2,1.1-0.5c0.3-0.4,0.5-0.9,0.6-1.4L155.8,35.3z M161.1,33.1l-0.6,0
	c-0.2,0-0.5,0.1-0.7,0.2c-0.2,0.1-0.4,0.3-0.5,0.6l-0.8,4.1h-1l1.2-5.8h0.9l-0.1,0.8c0.2-0.3,0.4-0.5,0.7-0.7
	c0.2-0.2,0.5-0.2,0.8-0.2c0.1,0,0.2,0,0.2,0c0.1,0,0.1,0,0.2,0L161.1,33.1z M161.4,35c0.1-0.8,0.4-1.6,1-2.2
	c0.5-0.5,1.2-0.8,1.9-0.8c0.7,0,1.3,0.3,1.6,0.8c0.4,0.6,0.5,1.4,0.3,2.1l0,0.1c-0.1,0.8-0.4,1.6-1,2.2c-0.5,0.5-1.2,0.8-1.9,0.8
	c-0.7,0-1.3-0.3-1.6-0.8c-0.4-0.6-0.5-1.4-0.3-2.1L161.4,35z M162.4,35.2c-0.1,0.5-0.1,1,0.1,1.5c0.2,0.4,0.5,0.6,1,0.6
	c0.4,0,0.9-0.2,1.1-0.6c0.3-0.4,0.5-1,0.6-1.5l0-0.1c0.1-0.5,0.1-1-0.1-1.5c-0.2-0.4-0.5-0.6-0.9-0.6c-0.5,0-0.9,0.2-1.1,0.6
	c-0.3,0.4-0.5,1-0.6,1.5L162.4,35.2z M167.3,35.1c0.1-0.8,0.4-1.6,0.9-2.3c0.4-0.5,1-0.8,1.7-0.8c0.3,0,0.6,0.1,0.8,0.2
	c0.2,0.1,0.4,0.3,0.6,0.5l0.6-3.2h1l-1.7,8.4h-0.9l0-0.6c-0.2,0.2-0.4,0.4-0.7,0.5c-0.3,0.1-0.5,0.2-0.8,0.2c-0.6,0-1.1-0.3-1.4-0.8
	c-0.3-0.6-0.4-1.4-0.2-2.1L167.3,35.1z M168.3,35.2c-0.1,0.5-0.1,1,0.1,1.5c0.2,0.4,0.6,0.6,1,0.6c0.2,0,0.5-0.1,0.7-0.2
	c0.2-0.2,0.4-0.4,0.6-0.6l0.5-2.7c-0.1-0.2-0.2-0.4-0.4-0.5c-0.2-0.1-0.5-0.2-0.7-0.2c-0.4,0-0.8,0.2-1.1,0.6
	c-0.3,0.5-0.5,1-0.6,1.6L168.3,35.2z M176.3,38l0.1-0.8c-0.2,0.3-0.5,0.5-0.8,0.7c-0.3,0.2-0.6,0.2-1,0.2c-0.5,0-1-0.2-1.2-0.6
	c-0.3-0.6-0.3-1.3-0.1-1.9l0.7-3.4h1l-0.7,3.4c-0.1,0.4-0.1,0.9,0,1.3c0.2,0.2,0.4,0.4,0.7,0.3c0.3,0,0.6-0.1,0.9-0.2
	c0.3-0.2,0.5-0.4,0.7-0.7l0.8-4.2h1l-1.2,5.8H176.3z M181.1,37.3c0.3,0,0.6-0.1,0.9-0.3c0.3-0.2,0.4-0.5,0.5-0.8h0.9l0,0
	c-0.1,0.5-0.4,1-0.8,1.4c-0.5,0.4-1,0.6-1.6,0.6c-0.7,0-1.3-0.3-1.7-0.8c-0.4-0.6-0.5-1.4-0.3-2.1l0-0.2c0.1-0.8,0.4-1.5,1-2.1
	c0.5-0.5,1.2-0.8,2-0.8c0.5,0,1.1,0.2,1.4,0.6c0.4,0.4,0.5,1,0.4,1.5l0,0h-0.9c0.1-0.3,0-0.7-0.2-0.9c-0.2-0.2-0.5-0.4-0.8-0.4
	c-0.5,0-0.9,0.2-1.2,0.6c-0.3,0.4-0.5,0.9-0.6,1.5l0,0.2c-0.1,0.5-0.1,1,0.1,1.5C180.3,37.1,180.7,37.3,181.1,37.3z M187,30.8
	l-0.3,1.4h1l-0.2,0.8h-1l-0.7,3.5c-0.1,0.2-0.1,0.4,0,0.6c0.1,0.1,0.2,0.2,0.4,0.2c0.1,0,0.2,0,0.3,0c0.1,0,0.2,0,0.3-0.1l0,0.7
	c-0.1,0.1-0.3,0.1-0.4,0.2c-0.2,0-0.4,0.1-0.6,0.1c-0.3,0-0.7-0.1-0.9-0.4c-0.2-0.4-0.3-0.8-0.1-1.2l0.7-3.5h-0.8l0.2-0.8h0.9
	l0.3-1.4L187,30.8z M188.1,35c0.1-0.8,0.4-1.6,1-2.2c0.5-0.5,1.2-0.8,1.9-0.8c0.7,0,1.3,0.3,1.6,0.8c0.4,0.6,0.5,1.4,0.3,2.1l0,0.1
	c-0.1,0.8-0.4,1.6-1,2.2c-0.5,0.5-1.2,0.8-1.9,0.8c-0.7,0-1.3-0.3-1.6-0.8c-0.4-0.6-0.5-1.4-0.3-2.1L188.1,35z M189.1,35.2
	c-0.1,0.5-0.1,1,0.1,1.5c0.2,0.4,0.5,0.6,1,0.6c0.4,0,0.9-0.2,1.1-0.6c0.3-0.4,0.5-1,0.6-1.5l0-0.1c0.1-0.5,0.1-1-0.1-1.5
	c-0.2-0.4-0.5-0.6-0.9-0.6c-0.5,0-0.9,0.2-1.1,0.6c-0.3,0.4-0.5,1-0.6,1.5L189.1,35.2z M198.3,32.9c0.2-0.3,0.5-0.5,0.8-0.6
	c0.3-0.1,0.6-0.2,1-0.2c0.3,0,0.6,0.1,0.8,0.3c0.2,0.2,0.4,0.5,0.4,0.8c0.2-0.3,0.5-0.6,0.8-0.8c0.3-0.2,0.7-0.3,1-0.3
	c0.5,0,0.9,0.2,1.1,0.6c0.3,0.6,0.3,1.2,0.1,1.8l-0.7,3.5h-1l0.7-3.5c0.1-0.4,0.1-0.8,0-1.2c-0.2-0.2-0.4-0.4-0.7-0.3
	c-0.3,0-0.6,0.2-0.8,0.4c-0.3,0.3-0.5,0.6-0.6,1c0,0,0,0,0,0v0l-0.7,3.7h-1l0.7-3.5c0.1-0.4,0.1-0.8,0-1.2c-0.2-0.2-0.4-0.4-0.7-0.3
	c-0.3,0-0.5,0.1-0.7,0.2c-0.2,0.1-0.4,0.3-0.6,0.6l-0.9,4.3h-1l1.2-5.8h0.9L198.3,32.9z M206.3,38h-1l1.2-5.8h1L206.3,38z M207.8,30
	h1.2l0,0l-1.6,1.4h-0.8L207.8,30z M209.9,33c0.2-0.3,0.5-0.5,0.8-0.7c0.3-0.2,0.6-0.2,1-0.2c0.5,0,0.9,0.2,1.2,0.6
	c0.3,0.5,0.3,1.1,0.2,1.7l-0.7,3.7h-1l0.7-3.6c0.1-0.4,0.1-0.8,0-1.1c-0.2-0.2-0.5-0.3-0.8-0.3c-0.3,0-0.5,0.1-0.7,0.2
	c-0.3,0.2-0.5,0.4-0.6,0.6l-0.8,4.2h-1l1.2-5.8h0.9L209.9,33z M214.9,38h-1l1.2-5.8h1L214.9,38z M216.4,30.7h-1l0.2-1.1h1
	L216.4,30.7z M218.5,32.9c0.2-0.3,0.5-0.5,0.8-0.6c0.3-0.1,0.6-0.2,1-0.2c0.3,0,0.6,0.1,0.8,0.3c0.2,0.2,0.4,0.5,0.4,0.8
	c0.2-0.3,0.5-0.6,0.8-0.8c0.3-0.2,0.7-0.3,1-0.3c0.5,0,0.9,0.2,1.1,0.6c0.3,0.6,0.3,1.2,0.1,1.8L224,38h-1l0.7-3.5
	c0.1-0.4,0.1-0.8,0-1.2c-0.2-0.2-0.4-0.4-0.7-0.3c-0.3,0-0.6,0.2-0.8,0.4c-0.3,0.3-0.5,0.6-0.6,1c0,0,0,0,0,0v0l-0.7,3.7h-1l0.7-3.5
	c0.1-0.4,0.1-0.8,0-1.2c-0.2-0.2-0.4-0.4-0.7-0.3c-0.3,0-0.5,0.1-0.7,0.2c-0.2,0.1-0.4,0.3-0.6,0.6l-0.9,4.3h-1l1.2-5.8h0.9
	L218.5,32.9z M225.8,35c0.1-0.8,0.4-1.6,1-2.2c0.5-0.5,1.2-0.8,1.9-0.8c0.7,0,1.3,0.3,1.6,0.8c0.4,0.6,0.5,1.4,0.3,2.1l0,0.1
	c-0.1,0.8-0.4,1.6-1,2.2c-0.5,0.5-1.2,0.8-1.9,0.8c-0.7,0-1.3-0.3-1.6-0.8c-0.4-0.6-0.5-1.4-0.3-2.1L225.8,35z M226.8,35.2
	c-0.1,0.5-0.1,1,0.1,1.5c0.2,0.4,0.5,0.6,1,0.6c0.4,0,0.9-0.2,1.1-0.6c0.3-0.4,0.5-1,0.6-1.5l0-0.1c0.1-0.5,0.1-1-0.1-1.5
	c-0.2-0.4-0.5-0.6-0.9-0.6c-0.5,0-0.9,0.2-1.1,0.6c-0.3,0.4-0.5,1-0.6,1.5L226.8,35.2z M236.1,36.3l0,0.3l0,0l0.1-0.3l1.9-4.1h1.1
	l-2.9,5.8h-0.8l-1.1-5.8h1.1L236.1,36.3z M240.3,38h-1l1.2-5.8h1L240.3,38z M241.7,30.7h-1l0.2-1.1h1L241.7,30.7z M245.1,38
	c0-0.2,0-0.3,0-0.4s0-0.2,0-0.3c-0.2,0.3-0.5,0.5-0.8,0.6c-0.3,0.2-0.6,0.3-0.9,0.3c-0.4,0-0.9-0.1-1.2-0.5
	c-0.3-0.4-0.3-0.8-0.2-1.3c0.1-0.5,0.4-1,0.9-1.3c0.5-0.3,1.2-0.5,1.8-0.4h1l0.1-0.6c0.1-0.3,0-0.6-0.1-0.8
	c-0.2-0.2-0.5-0.3-0.8-0.3c-0.3,0-0.6,0.1-0.8,0.3c-0.2,0.1-0.4,0.4-0.4,0.6h-1l0,0c0.1-0.5,0.4-0.9,0.8-1.2
	c0.5-0.3,1.1-0.5,1.7-0.5c0.5,0,1,0.2,1.4,0.5c0.3,0.4,0.5,0.9,0.3,1.4l-0.6,2.8c0,0.2-0.1,0.4-0.1,0.6c0,0.2,0,0.4,0,0.6L245.1,38z
	 M243.7,37.2c0.3,0,0.6-0.1,0.9-0.3c0.3-0.1,0.5-0.4,0.7-0.6l0.2-1.1h-1c-0.3,0-0.7,0.1-1,0.3c-0.3,0.2-0.4,0.4-0.5,0.8
	c-0.1,0.2,0,0.4,0.1,0.6C243.3,37.2,243.5,37.3,243.7,37.2z M252.7,35.4c-0.1,0.7-0.4,1.4-0.9,2c-0.4,0.5-1,0.7-1.6,0.7
	c-0.3,0-0.6-0.1-0.8-0.3c-0.3-0.2-0.5-0.4-0.6-0.7l-0.3,0.8h-0.9l1.7-8.4h1l-0.6,3.1c0.2-0.2,0.4-0.4,0.7-0.5
	c0.3-0.1,0.5-0.2,0.8-0.2c0.6,0,1.2,0.4,1.4,0.9c0.3,0.7,0.4,1.5,0.2,2.3L252.7,35.4z M251.6,35.3c0.1-0.6,0.1-1.2,0-1.7
	c-0.1-0.4-0.5-0.7-0.9-0.7c-0.3,0-0.5,0.1-0.7,0.2c-0.2,0.2-0.4,0.4-0.6,0.7l-0.5,2.6c0.1,0.2,0.2,0.5,0.4,0.6
	c0.2,0.2,0.5,0.2,0.7,0.2c0.4,0,0.8-0.2,1-0.5c0.3-0.4,0.5-0.9,0.6-1.3L251.6,35.3z M254.5,38h-1l1.7-8.4h1L254.5,38z M258.4,38.1
	c-0.7,0-1.3-0.3-1.7-0.8c-0.4-0.6-0.5-1.4-0.4-2.1l0-0.2c0.1-0.8,0.5-1.5,1-2.1c0.5-0.5,1.1-0.8,1.8-0.8c0.6-0.1,1.2,0.2,1.5,0.7
	c0.3,0.6,0.4,1.2,0.3,1.9l-0.1,0.7h-3.5c-0.1,0.5,0,1,0.2,1.4c0.2,0.4,0.6,0.6,1,0.5c0.3,0,0.6-0.1,0.9-0.2c0.3-0.1,0.5-0.2,0.7-0.4
	l0.3,0.7c-0.2,0.2-0.5,0.4-0.8,0.5C259.2,38.1,258.8,38.1,258.4,38.1L258.4,38.1z M259.1,32.9c-0.3,0-0.7,0.2-0.9,0.5
	c-0.3,0.3-0.5,0.7-0.6,1.1l0,0h2.4l0-0.1c0.1-0.4,0-0.7-0.1-1.1C259.7,33,259.4,32.9,259.1,32.9L259.1,32.9z"/>
<path id="Trazado_232171" class="st3" d="M34.8,246h-1l0.7-3.5H31l-0.7,3.5h-1l1.6-7.8h1l-0.7,3.5h3.4l0.7-3.5h1L34.8,246z
	 M39.8,246c0-0.2,0-0.3,0-0.4c0-0.1,0-0.2,0-0.3c-0.2,0.3-0.5,0.5-0.8,0.6c-0.3,0.2-0.6,0.3-0.9,0.3c-0.4,0-0.9-0.1-1.2-0.5
	c-0.3-0.4-0.3-0.8-0.2-1.3c0.1-0.5,0.4-1,0.9-1.3c0.5-0.3,1.2-0.5,1.8-0.4h1l0.1-0.6c0.1-0.3,0-0.6-0.1-0.8
	c-0.2-0.2-0.5-0.3-0.8-0.3c-0.3,0-0.6,0.1-0.8,0.3c-0.2,0.1-0.4,0.4-0.4,0.6h-1l0,0c0.1-0.5,0.4-0.9,0.8-1.2
	c0.5-0.3,1.1-0.5,1.7-0.5c0.5,0,1,0.2,1.4,0.5c0.3,0.4,0.5,0.9,0.3,1.4l-0.6,2.8c0,0.2-0.1,0.4-0.1,0.6c0,0.2,0,0.4,0,0.6L39.8,246z
	 M38.4,245.2c0.3,0,0.6-0.1,0.9-0.3c0.3-0.1,0.5-0.4,0.7-0.6l0.2-1.1h-1c-0.3,0-0.7,0.1-1,0.3c-0.3,0.2-0.4,0.4-0.5,0.8
	c-0.1,0.2,0,0.4,0.1,0.6C38,245.2,38.2,245.3,38.4,245.2z M44.6,245.3c0.3,0,0.6-0.1,0.9-0.3c0.3-0.2,0.4-0.5,0.5-0.8h0.9l0,0
	c-0.1,0.5-0.4,1-0.8,1.4c-0.5,0.4-1,0.6-1.6,0.6c-0.7,0-1.3-0.3-1.7-0.8c-0.4-0.6-0.5-1.4-0.3-2.1l0-0.2c0.1-0.8,0.4-1.5,1-2.1
	c0.5-0.5,1.2-0.8,2-0.8c0.5,0,1.1,0.2,1.4,0.6c0.4,0.4,0.5,1,0.4,1.5l0,0h-0.9c0.1-0.3,0-0.7-0.2-0.9c-0.2-0.2-0.5-0.4-0.8-0.4
	c-0.5,0-0.9,0.2-1.2,0.6c-0.3,0.4-0.5,0.9-0.6,1.5l0,0.2c-0.1,0.5-0.1,1,0.1,1.5C43.8,245.1,44.2,245.3,44.6,245.3L44.6,245.3z
	 M50,246.1c-0.7,0-1.3-0.3-1.7-0.8c-0.4-0.6-0.5-1.4-0.4-2.1l0-0.2c0.1-0.8,0.5-1.5,1-2.1c0.5-0.5,1.1-0.8,1.8-0.8
	c0.6-0.1,1.2,0.2,1.5,0.7c0.3,0.6,0.4,1.2,0.3,1.9l-0.1,0.7H49c-0.1,0.5,0,1,0.2,1.4c0.2,0.4,0.6,0.6,1,0.5c0.3,0,0.6-0.1,0.9-0.2
	c0.3-0.1,0.5-0.2,0.7-0.4l0.3,0.7c-0.2,0.2-0.5,0.4-0.8,0.5C50.8,246.1,50.4,246.1,50,246.1z M50.7,240.9c-0.3,0-0.7,0.2-0.9,0.5
	c-0.3,0.3-0.5,0.7-0.6,1.1l0,0h2.4l0-0.1c0.1-0.4,0-0.7-0.1-1.1C51.3,241,51,240.9,50.7,240.9L50.7,240.9z M56.8,241.1l-0.6,0
	c-0.2,0-0.5,0.1-0.7,0.2c-0.2,0.1-0.4,0.3-0.5,0.6l-0.8,4.1h-1l1.2-5.8h0.9l-0.1,0.8c0.2-0.3,0.4-0.5,0.7-0.7
	c0.2-0.2,0.5-0.2,0.8-0.2c0.1,0,0.2,0,0.2,0c0.1,0,0.1,0,0.2,0L56.8,241.1z M61.8,245.3c0.3,0,0.6-0.1,0.9-0.3
	c0.3-0.2,0.4-0.5,0.5-0.8h0.9l0,0c-0.1,0.5-0.4,1-0.8,1.3c-0.5,0.4-1,0.6-1.6,0.6c-0.7,0-1.3-0.3-1.7-0.8c-0.4-0.6-0.5-1.4-0.3-2.1
	l0-0.2c0.1-0.8,0.4-1.5,1-2.1c0.5-0.5,1.2-0.8,2-0.8c0.5,0,1.1,0.2,1.4,0.6c0.4,0.4,0.5,1,0.4,1.5l0,0h-0.9c0.1-0.3,0-0.7-0.2-0.9
	c-0.2-0.2-0.5-0.4-0.8-0.4c-0.5,0-0.9,0.2-1.2,0.6c-0.3,0.4-0.5,0.9-0.6,1.5l0,0.2c-0.1,0.5-0.1,1,0.1,1.5
	C61,245.1,61.4,245.3,61.8,245.3z M68.2,246c0-0.2,0-0.3,0-0.4c0-0.1,0-0.2,0-0.3c-0.2,0.3-0.5,0.5-0.8,0.6
	c-0.3,0.2-0.6,0.3-0.9,0.3c-0.4,0-0.9-0.1-1.2-0.5c-0.3-0.4-0.3-0.8-0.2-1.3c0.1-0.5,0.4-1,0.9-1.3c0.5-0.3,1.2-0.5,1.8-0.4h1
	l0.1-0.6c0.1-0.3,0-0.6-0.1-0.8c-0.2-0.2-0.5-0.3-0.8-0.3c-0.3,0-0.6,0.1-0.8,0.3c-0.2,0.1-0.4,0.4-0.4,0.6h-1l0,0
	c0.1-0.5,0.4-0.9,0.8-1.2c0.5-0.3,1.1-0.5,1.7-0.5c0.5,0,1,0.2,1.4,0.5c0.3,0.4,0.5,0.9,0.3,1.4l-0.6,2.8c0,0.2-0.1,0.4-0.1,0.6
	c0,0.2,0,0.4,0,0.6H68.2z M66.8,245.2c0.3,0,0.6-0.1,0.9-0.3c0.3-0.1,0.5-0.4,0.7-0.6l0.2-1.1h-1c-0.3,0-0.7,0.1-1,0.3
	c-0.3,0.2-0.4,0.4-0.5,0.8c-0.1,0.2,0,0.4,0.1,0.6C66.4,245.2,66.6,245.3,66.8,245.2z M72.6,240.9c0.2-0.3,0.5-0.5,0.8-0.6
	c0.3-0.1,0.6-0.2,1-0.2c0.3,0,0.6,0.1,0.8,0.3c0.2,0.2,0.4,0.5,0.4,0.8c0.2-0.3,0.5-0.6,0.8-0.8c0.3-0.2,0.7-0.3,1-0.3
	c0.5,0,0.9,0.2,1.1,0.6c0.3,0.6,0.3,1.2,0.1,1.8l-0.7,3.5h-1l0.7-3.5c0.1-0.4,0.1-0.8,0-1.2c-0.2-0.2-0.4-0.4-0.7-0.3
	c-0.3,0-0.6,0.2-0.8,0.4c-0.3,0.3-0.5,0.6-0.6,1c0,0,0,0,0,0v0l-0.7,3.7h-1l0.7-3.5c0.1-0.4,0.1-0.8,0-1.2c-0.2-0.2-0.4-0.4-0.7-0.3
	c-0.3,0-0.5,0.1-0.7,0.2c-0.2,0.1-0.4,0.3-0.6,0.6l-0.9,4.3h-1l1.2-5.8h0.9L72.6,240.9z M84.7,243.4c-0.1,0.7-0.4,1.4-0.9,2
	c-0.4,0.5-1,0.7-1.6,0.7c-0.3,0-0.6-0.1-0.8-0.3c-0.3-0.2-0.5-0.4-0.6-0.7l-0.3,0.8h-0.9l1.7-8.4h1l-0.6,3.1
	c0.2-0.2,0.4-0.4,0.7-0.5c0.3-0.1,0.5-0.2,0.8-0.2c0.6,0,1.2,0.4,1.4,0.9c0.3,0.7,0.4,1.5,0.2,2.3L84.7,243.4z M83.7,243.3
	c0.1-0.6,0.1-1.2,0-1.7c-0.1-0.4-0.5-0.7-0.9-0.7c-0.3,0-0.5,0.1-0.7,0.2c-0.2,0.2-0.4,0.4-0.6,0.7l-0.5,2.6
	c0.1,0.2,0.2,0.5,0.4,0.6c0.2,0.2,0.5,0.2,0.7,0.2c0.4,0,0.8-0.2,1-0.5c0.3-0.4,0.5-0.9,0.6-1.3L83.7,243.3z M86.6,246h-1l1.2-5.8h1
	L86.6,246z M88,238.7h-1l0.2-1.1h1L88,238.7z M88.5,243c0.1-0.8,0.4-1.6,1-2.2c0.5-0.5,1.2-0.8,1.9-0.8c0.7,0,1.3,0.3,1.6,0.8
	c0.4,0.6,0.5,1.4,0.3,2.1l0,0.1c-0.1,0.8-0.4,1.6-1,2.2c-0.5,0.5-1.2,0.8-1.9,0.8c-0.7,0-1.3-0.3-1.6-0.8c-0.4-0.6-0.5-1.4-0.3-2.1
	L88.5,243z M89.5,243.2c-0.1,0.5-0.1,1,0.1,1.5c0.2,0.4,0.5,0.6,1,0.6c0.4,0,0.9-0.2,1.1-0.6c0.3-0.4,0.5-1,0.6-1.5l0-0.1
	c0.1-0.5,0.1-1-0.1-1.5c-0.2-0.4-0.5-0.6-0.9-0.6c-0.5,0-0.9,0.2-1.1,0.6c-0.3,0.4-0.5,1-0.6,1.5L89.5,243.2z M97.5,244.5
	c0-0.2,0-0.4-0.1-0.6c-0.2-0.2-0.5-0.3-0.8-0.4c-0.5-0.1-1-0.3-1.4-0.6c-0.3-0.3-0.4-0.7-0.3-1.1c0.1-0.5,0.4-0.9,0.8-1.2
	c0.4-0.3,1-0.5,1.6-0.5c0.5,0,1,0.2,1.4,0.5c0.3,0.3,0.5,0.8,0.4,1.3l0,0h-1c0-0.2,0-0.5-0.2-0.7c-0.2-0.2-0.4-0.3-0.7-0.3
	c-0.3,0-0.6,0.1-0.8,0.3c-0.2,0.1-0.3,0.4-0.4,0.6c-0.1,0.2,0,0.4,0.1,0.6c0.2,0.2,0.5,0.3,0.8,0.3c0.5,0.1,1,0.3,1.4,0.6
	c0.3,0.3,0.4,0.7,0.3,1.1c-0.1,0.5-0.4,1-0.8,1.3c-0.5,0.3-1,0.5-1.6,0.5c-0.6,0-1.1-0.2-1.5-0.6c-0.3-0.3-0.5-0.8-0.4-1.3l0,0h1
	c-0.1,0.3,0,0.6,0.2,0.8c0.2,0.2,0.5,0.3,0.8,0.3c0.3,0,0.6-0.1,0.8-0.2C97.3,244.9,97.4,244.7,97.5,244.5L97.5,244.5z"/>
<path id="Trazado_232172" class="st3" d="M244,241.9l-0.6,3.1h-1l1.6-7.8h2.8c0.6,0,1.2,0.2,1.6,0.7c0.4,0.5,0.5,1.1,0.4,1.7
	c-0.1,0.7-0.5,1.3-1,1.7c-0.6,0.4-1.2,0.6-1.9,0.6L244,241.9z M244.2,241h1.8c0.4,0,0.8-0.1,1.1-0.4c0.3-0.3,0.5-0.7,0.6-1.1
	c0.1-0.4,0.1-0.8-0.1-1.1c-0.2-0.3-0.6-0.5-1-0.4h-1.8L244.2,241z M252.4,240.1l-0.6,0c-0.2,0-0.5,0.1-0.7,0.2
	c-0.2,0.1-0.4,0.3-0.5,0.6l-0.8,4.1h-1l1.2-5.8h0.9l-0.1,0.8c0.2-0.3,0.4-0.5,0.7-0.7c0.2-0.2,0.5-0.2,0.8-0.2c0.1,0,0.2,0,0.2,0
	c0.1,0,0.1,0,0.2,0L252.4,240.1z M252.7,242c0.1-0.8,0.4-1.6,1-2.2c0.5-0.5,1.2-0.8,1.9-0.8c0.7,0,1.3,0.3,1.6,0.8
	c0.4,0.6,0.5,1.4,0.3,2.1l0,0.1c-0.1,0.8-0.4,1.6-1,2.2c-0.5,0.5-1.2,0.8-1.9,0.8c-0.7,0-1.3-0.3-1.6-0.8c-0.4-0.6-0.5-1.4-0.3-2.1
	L252.7,242z M253.7,242.2c-0.1,0.5-0.1,1,0.1,1.5c0.2,0.4,0.5,0.6,1,0.6c0.4,0,0.9-0.2,1.1-0.6c0.3-0.4,0.5-1,0.6-1.5l0-0.1
	c0.1-0.5,0.1-1-0.1-1.5c-0.2-0.4-0.5-0.6-0.9-0.6c-0.5,0-0.9,0.2-1.1,0.6c-0.3,0.4-0.5,1-0.6,1.5L253.7,242.2z M263.4,242.4
	c-0.1,0.7-0.4,1.4-0.9,2c-0.4,0.5-1,0.7-1.6,0.7c-0.3,0-0.6-0.1-0.8-0.3c-0.3-0.2-0.5-0.4-0.6-0.7l-0.3,0.8h-0.9l1.7-8.4h1l-0.6,3.1
	c0.2-0.2,0.4-0.4,0.7-0.5c0.3-0.1,0.5-0.2,0.8-0.2c0.6,0,1.2,0.4,1.4,0.9c0.3,0.7,0.4,1.5,0.2,2.3L263.4,242.4z M262.4,242.3
	c0.1-0.6,0.1-1.2,0-1.7c-0.1-0.4-0.5-0.7-0.9-0.7c-0.3,0-0.5,0.1-0.7,0.2c-0.2,0.2-0.4,0.4-0.6,0.7l-0.5,2.6
	c0.1,0.2,0.2,0.5,0.4,0.6c0.2,0.2,0.5,0.2,0.7,0.2c0.4,0,0.8-0.2,1-0.5c0.3-0.4,0.5-0.9,0.6-1.3L262.4,242.3z M267.5,245
	c0-0.2,0-0.3,0-0.4c0-0.1,0-0.2,0-0.3c-0.2,0.3-0.5,0.5-0.8,0.6c-0.3,0.2-0.6,0.3-0.9,0.3c-0.4,0-0.9-0.1-1.2-0.5
	c-0.3-0.4-0.3-0.8-0.2-1.3c0.1-0.5,0.4-1,0.9-1.3c0.5-0.3,1.2-0.5,1.8-0.4h1l0.1-0.6c0.1-0.3,0-0.6-0.1-0.8
	c-0.2-0.2-0.5-0.3-0.8-0.3c-0.3,0-0.6,0.1-0.8,0.3c-0.2,0.1-0.4,0.4-0.4,0.6h-1l0,0c0.1-0.5,0.4-0.9,0.8-1.2
	c0.5-0.3,1.1-0.5,1.7-0.5c0.5,0,1,0.2,1.4,0.5c0.3,0.4,0.5,0.9,0.3,1.4l-0.6,2.8c0,0.2-0.1,0.4-0.1,0.6c0,0.2,0,0.4,0,0.6L267.5,245
	z M266.1,244.2c0.3,0,0.6-0.1,0.9-0.3c0.3-0.1,0.5-0.4,0.7-0.6l0.2-1.1h-1c-0.3,0-0.7,0.1-1,0.3c-0.3,0.2-0.4,0.4-0.5,0.8
	c-0.1,0.2,0,0.4,0.1,0.6C265.6,244.2,265.9,244.3,266.1,244.2z M273.5,240.1l-0.6,0c-0.2,0-0.5,0.1-0.7,0.2
	c-0.2,0.1-0.4,0.3-0.5,0.6l-0.8,4.1h-1l1.2-5.8h0.9l-0.1,0.8c0.2-0.3,0.4-0.5,0.7-0.7c0.2-0.2,0.5-0.2,0.8-0.2c0.1,0,0.2,0,0.2,0
	c0.1,0,0.1,0,0.2,0L273.5,240.1z M274.6,245h-1l1.7-8.4h1L274.6,245z M276.5,242c0.1-0.8,0.4-1.6,1-2.2c0.5-0.5,1.2-0.8,1.9-0.8
	c0.7,0,1.3,0.3,1.6,0.8c0.4,0.6,0.5,1.4,0.3,2.1l0,0.1c-0.1,0.8-0.4,1.6-1,2.1c-0.5,0.5-1.2,0.8-1.9,0.8c-0.7,0-1.3-0.3-1.6-0.8
	c-0.4-0.6-0.5-1.4-0.3-2.1L276.5,242z M277.5,242.2c-0.1,0.5-0.1,1,0.1,1.5c0.2,0.4,0.5,0.6,1,0.6c0.4,0,0.9-0.2,1.1-0.6
	c0.3-0.4,0.5-1,0.6-1.5l0-0.1c0.1-0.5,0.1-1-0.1-1.5c-0.2-0.4-0.5-0.6-0.9-0.6c-0.5,0-0.9,0.2-1.1,0.6c-0.3,0.4-0.5,1-0.6,1.5
	L277.5,242.2z M287,245.1c-0.7,0-1.3-0.3-1.7-0.8c-0.4-0.6-0.5-1.4-0.4-2.1l0-0.2c0.1-0.8,0.5-1.5,1-2.1c0.5-0.5,1.1-0.8,1.8-0.8
	c0.6-0.1,1.2,0.2,1.5,0.7c0.3,0.6,0.4,1.2,0.3,1.9l-0.1,0.7H286c-0.1,0.5,0,1,0.2,1.4c0.2,0.4,0.6,0.6,1,0.5c0.3,0,0.6-0.1,0.9-0.2
	c0.3-0.1,0.5-0.2,0.7-0.4l0.3,0.7c-0.2,0.2-0.5,0.4-0.8,0.5C287.8,245.1,287.4,245.1,287,245.1z M287.7,239.9
	c-0.3,0-0.7,0.2-0.9,0.5c-0.3,0.3-0.5,0.7-0.6,1.1l0,0h2.4l0-0.1c0.1-0.4,0-0.7-0.1-1.1C288.3,240,288,239.9,287.7,239.9
	L287.7,239.9z M292.1,240c0.2-0.3,0.5-0.5,0.8-0.7c0.3-0.2,0.6-0.2,1-0.2c0.5,0,0.9,0.2,1.2,0.6c0.3,0.5,0.3,1.1,0.2,1.7l-0.7,3.7
	h-1l0.7-3.6c0.1-0.4,0.1-0.8,0-1.1c-0.2-0.2-0.5-0.3-0.8-0.3c-0.3,0-0.5,0.1-0.7,0.2c-0.3,0.2-0.5,0.4-0.6,0.6l-0.8,4.2h-1l1.2-5.8
	h0.9L292.1,240z M301,245.1c-0.7,0-1.3-0.3-1.7-0.8c-0.4-0.6-0.5-1.4-0.4-2.1l0-0.2c0.1-0.8,0.5-1.5,1-2.1c0.5-0.5,1.1-0.8,1.8-0.8
	c0.6-0.1,1.2,0.2,1.5,0.7c0.3,0.6,0.4,1.2,0.3,1.9l-0.1,0.7H300c-0.1,0.5,0,1,0.2,1.4c0.2,0.4,0.6,0.6,1,0.5c0.3,0,0.6-0.1,0.9-0.2
	c0.3-0.1,0.5-0.2,0.7-0.4l0.3,0.7c-0.2,0.2-0.5,0.4-0.8,0.5C301.8,245.1,301.4,245.1,301,245.1z M301.6,239.9
	c-0.3,0-0.7,0.2-0.9,0.5c-0.3,0.3-0.5,0.7-0.6,1.1l0,0h2.4l0-0.1c0.1-0.4,0-0.7-0.1-1.1C302.3,240,302,239.9,301.6,239.9
	L301.6,239.9z M305.2,245h-1l1.7-8.4h1L305.2,245z M311.4,239.9c0.2-0.3,0.5-0.5,0.8-0.6c0.3-0.1,0.6-0.2,1-0.2
	c0.3,0,0.6,0.1,0.8,0.3c0.2,0.2,0.4,0.5,0.4,0.8c0.2-0.3,0.5-0.6,0.8-0.8c0.3-0.2,0.7-0.3,1-0.3c0.5,0,0.9,0.2,1.1,0.6
	c0.3,0.6,0.3,1.2,0.1,1.8l-0.7,3.5h-1l0.7-3.5c0.1-0.4,0.1-0.8,0-1.2c-0.2-0.2-0.5-0.4-0.7-0.3c-0.3,0-0.6,0.2-0.8,0.4
	c-0.3,0.3-0.5,0.6-0.6,1c0,0,0,0,0,0v0l-0.7,3.7h-1l0.7-3.5c0.1-0.4,0.1-0.8,0-1.2c-0.2-0.2-0.4-0.4-0.7-0.3c-0.3,0-0.5,0.1-0.7,0.2
	c-0.2,0.1-0.4,0.3-0.6,0.6l-0.9,4.3h-1l1.2-5.8h0.9L311.4,239.9z M320.7,245.1c-0.7,0-1.3-0.3-1.7-0.8c-0.4-0.6-0.5-1.4-0.4-2.1
	l0-0.2c0.1-0.8,0.5-1.5,1-2.1c0.5-0.5,1.1-0.8,1.8-0.8c0.6-0.1,1.2,0.2,1.5,0.7c0.3,0.6,0.4,1.2,0.3,1.9l-0.1,0.7h-3.5
	c-0.1,0.5,0,1,0.2,1.4c0.2,0.4,0.6,0.6,1,0.5c0.3,0,0.6-0.1,0.9-0.2c0.3-0.1,0.5-0.2,0.7-0.4l0.3,0.7c-0.2,0.2-0.5,0.4-0.8,0.5
	C321.5,245.1,321.1,245.1,320.7,245.1z M321.4,239.9c-0.3,0-0.7,0.2-0.9,0.5c-0.3,0.3-0.5,0.7-0.6,1.1l0,0h2.4l0-0.1
	c0.1-0.4,0-0.7-0.1-1.1C322,240,321.7,239.9,321.4,239.9L321.4,239.9z M327.4,240.1l-0.6,0c-0.2,0-0.5,0.1-0.7,0.2
	c-0.2,0.1-0.4,0.3-0.5,0.6l-0.8,4.1h-1l1.2-5.8h0.9l-0.1,0.8c0.2-0.3,0.4-0.5,0.7-0.7c0.2-0.2,0.5-0.2,0.8-0.2c0.1,0,0.2,0,0.2,0
	c0.1,0,0.1,0,0.2,0L327.4,240.1z M329.8,244.3c0.3,0,0.6-0.1,0.9-0.3c0.3-0.2,0.4-0.5,0.5-0.8h0.9l0,0c-0.1,0.5-0.4,1-0.8,1.4
	c-0.5,0.4-1,0.6-1.6,0.6c-0.7,0-1.3-0.3-1.7-0.8c-0.4-0.6-0.5-1.4-0.3-2.1l0-0.2c0.1-0.8,0.4-1.5,1-2.1c0.5-0.5,1.2-0.8,2-0.8
	c0.5,0,1.1,0.2,1.4,0.6c0.4,0.4,0.5,1,0.4,1.5l0,0h-0.9c0.1-0.3,0-0.7-0.2-0.9c-0.2-0.2-0.5-0.4-0.8-0.4c-0.5,0-0.9,0.2-1.2,0.6
	c-0.3,0.4-0.5,0.9-0.6,1.5l0,0.2c-0.1,0.5-0.1,1,0.1,1.5C329,244.1,329.4,244.3,329.8,244.3z M336.2,245c0-0.2,0-0.3,0-0.4
	c0-0.1,0-0.2,0-0.3c-0.2,0.3-0.5,0.5-0.8,0.6c-0.3,0.2-0.6,0.3-0.9,0.3c-0.4,0-0.9-0.1-1.2-0.5c-0.3-0.4-0.3-0.8-0.2-1.3
	c0.1-0.5,0.4-1,0.9-1.3c0.5-0.3,1.2-0.5,1.8-0.4h1l0.1-0.6c0.1-0.3,0-0.6-0.1-0.8c-0.2-0.2-0.5-0.3-0.8-0.3c-0.3,0-0.6,0.1-0.8,0.3
	c-0.2,0.1-0.4,0.4-0.4,0.6h-1l0,0c0.1-0.5,0.4-0.9,0.8-1.2c0.5-0.3,1.1-0.5,1.7-0.5c0.5,0,1,0.2,1.4,0.5c0.3,0.4,0.5,0.9,0.3,1.4
	l-0.6,2.8c0,0.2-0.1,0.4-0.1,0.6c0,0.2,0,0.4,0,0.6L336.2,245z M334.8,244.2c0.3,0,0.6-0.1,0.9-0.3c0.3-0.1,0.5-0.4,0.7-0.6l0.2-1.1
	h-1c-0.3,0-0.7,0.1-1,0.3c-0.3,0.2-0.4,0.4-0.5,0.8c-0.1,0.2,0,0.4,0.1,0.6C334.4,244.2,334.6,244.3,334.8,244.2z M338.9,242.1
	c0.1-0.8,0.4-1.6,0.9-2.3c0.4-0.5,1-0.8,1.7-0.8c0.3,0,0.6,0.1,0.8,0.2c0.2,0.1,0.4,0.3,0.6,0.5l0.6-3.2h1L343,245h-0.9l0-0.6
	c-0.2,0.2-0.4,0.4-0.7,0.5c-0.3,0.1-0.6,0.2-0.8,0.2c-0.6,0-1.1-0.3-1.4-0.8c-0.3-0.6-0.4-1.4-0.2-2.1L338.9,242.1z M339.9,242.2
	c-0.1,0.5-0.1,1,0.1,1.5c0.2,0.4,0.6,0.6,1,0.6c0.2,0,0.5-0.1,0.7-0.2c0.2-0.2,0.4-0.4,0.6-0.6l0.5-2.7c-0.1-0.2-0.2-0.4-0.4-0.5
	c-0.2-0.1-0.5-0.2-0.7-0.2c-0.4,0-0.8,0.2-1.1,0.6c-0.3,0.5-0.5,1-0.6,1.6L339.9,242.2z M344.8,242c0.1-0.8,0.4-1.6,1-2.2
	c0.5-0.5,1.2-0.8,1.9-0.8c0.7,0,1.3,0.3,1.6,0.8c0.4,0.6,0.5,1.4,0.3,2.1l0,0.1c-0.1,0.8-0.4,1.6-1,2.1c-0.5,0.5-1.2,0.8-1.9,0.8
	c-0.7,0-1.3-0.3-1.6-0.8c-0.4-0.6-0.5-1.4-0.3-2.1L344.8,242z M345.8,242.2c-0.1,0.5-0.1,1,0.1,1.5c0.2,0.4,0.5,0.6,1,0.6
	c0.4,0,0.9-0.2,1.1-0.6c0.3-0.4,0.5-1,0.6-1.5l0-0.1c0.1-0.5,0.1-1-0.1-1.5c-0.2-0.4-0.5-0.6-0.9-0.6c-0.5,0-0.9,0.2-1.1,0.6
	c-0.3,0.4-0.5,1-0.6,1.5L345.8,242.2z"/>
<g id="Grupo_179450" transform="translate(-5095.435 -7891.885) rotate(45)">
	<path id="Trazado_116479" class="st4" d="M9489.5,1894c-1.5-16.3-14.7-29.1-31.1-30c-0.5,0-0.9-0.4-0.9-0.9c0-0.1,0-0.2,0.1-0.4
		l2.8-5.5c0.2-0.4,0.2-0.9,0-1.3l-2.7-5.4c-0.2-0.4,0-1,0.4-1.2c0.1-0.1,0.3-0.1,0.4-0.1c24.6,1,44.4,20.5,45.9,45l5-0.3l-12.1,11.3
		l-12.3-10.5L9489.5,1894z"/>
</g>
<g id="Grupo_179451" transform="translate(-5159.68 -7759.021) rotate(130)">
	<path id="Trazado_116479-2" class="st4" d="M2698.2-9215.5c-1.5-16.3-14.7-29.1-31.1-30c-0.5,0-0.9-0.4-0.9-0.9
		c0-0.1,0-0.2,0.1-0.4l2.8-5.5c0.2-0.4,0.2-0.9,0-1.3l-2.7-5.4c-0.2-0.4,0-1,0.4-1.2c0.1-0.1,0.3-0.1,0.4-0.1
		c24.6,1,44.4,20.5,45.9,45l4.5-0.5l-11.5,12.8l-12.9-12L2698.2-9215.5z"/>
</g>
<g id="Grupo_179452" transform="translate(-5304.115 -7824.322) rotate(-135)">
	<path id="Trazado_116479-3" class="st4" d="M-9425.6-1804.2c-1.5-16.3-14.7-29.1-31.1-30c-0.5,0-0.9-0.4-0.9-0.9
		c0-0.1,0-0.2,0.1-0.4l2.8-5.5c0.2-0.4,0.2-0.9,0-1.3l-2.7-5.4c-0.2-0.4,0-1,0.4-1.2c0.1-0.1,0.3-0.1,0.4-0.1
		c24.6,1,44.4,20.5,45.9,45l4.2-0.3l-11.3,11.3l-11.9-10.5L-9425.6-1804.2z"/>
</g>
<g>
	<path class="st3" d="M124.9,149.7h6.5l-0.5,2.4h-9.6l3.2-15.8h3.1L124.9,149.7z"/>
	<path class="st3" d="M137.4,152.4c-1.5,0-2.7-0.5-3.5-1.6c-0.8-1.1-1.1-2.5-0.8-4.1l0.1-0.4c0.3-1.8,1-3.3,2-4.4
		c1.1-1.1,2.4-1.6,3.9-1.6c1.4,0,2.5,0.5,3.2,1.5c0.7,1,0.9,2.3,0.7,3.9l-0.3,1.7h-6.5c-0.1,0.8,0.1,1.5,0.4,2
		c0.3,0.5,0.9,0.7,1.6,0.7c0.6,0,1.1-0.1,1.6-0.2s1-0.4,1.5-0.7l0.5,2c-0.5,0.4-1.1,0.7-1.9,1C139.2,152.3,138.3,152.4,137.4,152.4z
		 M138.7,142.7c-0.5,0-0.9,0.2-1.3,0.7c-0.4,0.5-0.6,1-0.8,1.8l0,0.1h3.3l0-0.3c0.1-0.7,0.1-1.2-0.1-1.6S139.3,142.7,138.7,142.7z"
		/>
	<path class="st3" d="M149.9,152.2c0-0.2-0.1-0.4-0.1-0.7c0-0.2,0-0.5,0-0.7c-0.4,0.5-0.9,0.9-1.4,1.2c-0.5,0.3-1.1,0.4-1.7,0.4
		c-1,0-1.8-0.3-2.3-1c-0.5-0.7-0.7-1.5-0.5-2.6c0.2-1.2,0.8-2.1,1.7-2.7c0.9-0.6,2.2-0.9,3.8-0.9h1.4l0.2-0.9c0.1-0.6,0.1-1-0.1-1.3
		s-0.5-0.4-1-0.4c-0.4,0-0.8,0.1-1.1,0.4c-0.3,0.3-0.5,0.6-0.6,1l-3,0l0-0.1c0.2-1.1,0.8-1.9,1.7-2.6c1-0.7,2.2-1,3.6-1
		c1.2,0,2.2,0.4,2.9,1.1c0.7,0.7,1,1.7,0.7,3l-1,4.9c-0.1,0.6-0.2,1.1-0.2,1.6c0,0.5,0,0.9,0.1,1.4H149.9z M147.9,150.1
		c0.4,0,0.8-0.1,1.1-0.3s0.7-0.4,1-0.7l0.4-2H149c-0.5,0-1,0.2-1.4,0.5s-0.6,0.7-0.7,1.2c-0.1,0.4,0,0.7,0.1,1
		S147.5,150.1,147.9,150.1z"/>
	<path class="st3" d="M159.7,142c0.5-0.6,1-1,1.6-1.3c0.6-0.3,1.2-0.4,1.9-0.4c1,0,1.8,0.4,2.3,1.1c0.5,0.8,0.6,1.9,0.3,3.5
		l-1.5,7.3h-3.1l1.5-7.3c0.2-0.8,0.1-1.4-0.1-1.7c-0.2-0.3-0.6-0.5-1.2-0.5c-0.3,0-0.7,0.1-1,0.3c-0.3,0.2-0.6,0.4-0.9,0.7l-1.7,8.5
		h-3.1l2.3-11.8h2.9L159.7,142z"/>
	<path class="st3" d="M180.7,148.3c0.1-0.7,0-1.3-0.3-1.6c-0.3-0.4-1-0.8-2-1.2c-1.7-0.6-2.9-1.3-3.6-2.1c-0.8-0.8-1-1.9-0.7-3.2
		c0.3-1.3,0.9-2.3,2-3c1.1-0.7,2.4-1.1,3.9-1.1c1.6,0,2.9,0.4,3.8,1.3c0.9,0.9,1.2,2,0.9,3.5l0,0.1h-3c0.1-0.7,0-1.3-0.4-1.8
		s-1-0.7-1.7-0.7c-0.5,0-1,0.2-1.5,0.5c-0.4,0.3-0.7,0.7-0.8,1.2c-0.1,0.7,0,1.2,0.3,1.5s1.2,0.7,2.4,1.2c1.6,0.6,2.7,1.2,3.4,2.1
		c0.7,0.8,0.9,1.9,0.6,3.3c-0.3,1.4-0.9,2.4-2,3.1c-1.1,0.7-2.4,1-3.9,1c-1.6,0-2.9-0.4-4-1.2c-1.1-0.8-1.5-2-1.1-3.7l0-0.1h3
		c-0.2,0.9,0,1.6,0.5,1.9c0.5,0.4,1.2,0.5,2,0.5c0.5,0,1-0.2,1.5-0.5C180.3,149.2,180.6,148.8,180.7,148.3z"/>
	<path class="st3" d="M191.4,137.6l-0.6,2.9h1.9l-0.4,2.2h-1.9l-1.2,6c-0.1,0.5-0.1,0.8,0,1c0.1,0.2,0.3,0.3,0.6,0.3
		c0.2,0,0.4,0,0.5,0c0.2,0,0.3,0,0.5-0.1l-0.2,2.3c-0.4,0.1-0.7,0.2-1.1,0.2c-0.3,0.1-0.7,0.1-1.1,0.1c-1,0-1.7-0.3-2.2-0.9
		c-0.5-0.6-0.6-1.6-0.3-2.8l1.2-6h-1.6l0.4-2.2h1.6l0.6-2.9H191.4z"/>
	<path class="st3" d="M198.6,152.2c0-0.2-0.1-0.4-0.1-0.7c0-0.2,0-0.5,0-0.7c-0.4,0.5-0.9,0.9-1.4,1.2c-0.5,0.3-1.1,0.4-1.7,0.4
		c-1,0-1.8-0.3-2.3-1c-0.5-0.7-0.7-1.5-0.5-2.6c0.2-1.2,0.8-2.1,1.7-2.7c0.9-0.6,2.2-0.9,3.8-0.9h1.4l0.2-0.9c0.1-0.6,0.1-1-0.1-1.3
		s-0.5-0.4-1-0.4c-0.4,0-0.8,0.1-1.1,0.4c-0.3,0.3-0.5,0.6-0.6,1l-3,0l0-0.1c0.2-1.1,0.8-1.9,1.7-2.6c1-0.7,2.2-1,3.6-1
		c1.2,0,2.2,0.4,2.9,1.1c0.7,0.7,1,1.7,0.7,3l-1,4.9c-0.1,0.6-0.2,1.1-0.2,1.6c0,0.5,0,0.9,0.1,1.4H198.6z M196.7,150.1
		c0.4,0,0.8-0.1,1.1-0.3c0.4-0.2,0.7-0.4,1-0.7l0.4-2h-1.4c-0.5,0-1,0.2-1.4,0.5s-0.6,0.7-0.7,1.2c-0.1,0.4,0,0.7,0.1,1
		S196.3,150.1,196.7,150.1z"/>
	<path class="st3" d="M211.3,143.2l-1.2,0c-0.4,0-0.7,0.1-1,0.3c-0.3,0.2-0.6,0.4-0.8,0.8l-1.6,7.9h-3.1l2.3-11.8h2.9l-0.2,1.5
		l0.1,0c0.3-0.6,0.7-1,1.2-1.3s0.9-0.5,1.5-0.5c0.1,0,0.3,0,0.5,0s0.3,0.1,0.4,0.1L211.3,143.2z"/>
	<path class="st3" d="M218.1,137.6l-0.6,2.9h1.9l-0.4,2.2h-1.9l-1.2,6c-0.1,0.5-0.1,0.8,0,1c0.1,0.2,0.3,0.3,0.6,0.3
		c0.2,0,0.4,0,0.5,0c0.2,0,0.3,0,0.5-0.1l-0.2,2.3c-0.4,0.1-0.7,0.2-1.1,0.2c-0.3,0.1-0.7,0.1-1.1,0.1c-1,0-1.7-0.3-2.2-0.9
		c-0.5-0.6-0.6-1.6-0.3-2.8l1.2-6h-1.6l0.4-2.2h1.6l0.6-2.9H218.1z"/>
	<path class="st3" d="M225.9,152.2l0.1-1.3c-0.4,0.5-1,0.9-1.5,1.2c-0.6,0.3-1.2,0.4-1.8,0.4c-1.1,0-1.9-0.4-2.4-1.2
		c-0.5-0.8-0.6-2-0.3-3.7l1.4-7.1h3.1l-1.4,7.1c-0.2,0.9-0.2,1.5,0,1.9c0.2,0.3,0.5,0.5,1,0.5c0.4,0,0.8-0.1,1.2-0.2
		c0.4-0.2,0.7-0.4,1-0.7l1.7-8.6h3.1l-2.3,11.8H225.9z"/>
	<path class="st3" d="M241.9,146.9c-0.4,1.8-1,3.2-1.8,4.2s-2,1.4-3.3,1.4c-0.5,0-1-0.1-1.5-0.3c-0.4-0.2-0.8-0.5-1.1-0.9l-1.1,5.5
		H230l3.2-16.3h2.9l-0.1,1c0.4-0.4,0.8-0.7,1.3-0.9c0.5-0.2,1-0.3,1.5-0.3c1.3,0,2.2,0.6,2.8,1.8c0.6,1.2,0.7,2.8,0.4,4.6
		L241.9,146.9z M238.8,146.6c0.2-1.2,0.3-2.1,0.1-2.9c-0.2-0.7-0.6-1.1-1.3-1.1c-0.4,0-0.7,0.1-1.1,0.3c-0.3,0.2-0.6,0.5-0.9,1
		l-1,5.3c0.1,0.3,0.3,0.5,0.6,0.6c0.3,0.1,0.6,0.2,1.1,0.2c0.6,0,1.2-0.3,1.6-0.8c0.4-0.5,0.7-1.3,0.9-2.3L238.8,146.6z"/>
</g>
</svg>
