<svg xmlns="http://www.w3.org/2000/svg" xmlns:xlink="http://www.w3.org/1999/xlink" width="147.823" height="147.823" viewBox="0 0 147.823 147.823">
  <defs>
    <radialGradient id="radial-gradient" cx="0.076" cy="0.019" r="1.465" gradientTransform="translate(0.001)" gradientUnits="objectBoundingBox">
      <stop offset="0" stop-color="#f6f6f7"/>
      <stop offset="0.477" stop-color="#f9f9fa"/>
      <stop offset="0.715" stop-color="#fff"/>
    </radialGradient>
    <clipPath id="clip-path">
      <rect id="Rectángulo_57093" data-name="Rectángulo 57093" width="70.075" height="83.494" fill="#12263f"/>
    </clipPath>
  </defs>
  <g id="Grupo_180626" data-name="Grupo 180626" transform="translate(6214.766 6361.5)">
    <g id="Grupo_179464" data-name="Grupo 179464" transform="translate(-6214.766 -6361.5)">
      <g id="Grupo_18423" data-name="Grupo 18423" transform="translate(0 0)">
        <g id="Grupo_18421" data-name="Grupo 18421">
          <g id="Grupo_18420" data-name="Grupo 18420">
            <g id="Grupo_18419" data-name="Grupo 18419">
              <path id="Trazado_40936" data-name="Trazado 40936" d="M342.446,2219.63a73.911,73.911,0,1,1-73.91-73.909A73.91,73.91,0,0,1,342.446,2219.63Z" transform="translate(-194.623 -2145.721)" fill="#fff"/>
            </g>
          </g>
        </g>
        <path id="Trazado_40937" data-name="Trazado 40937" d="M341.412,2218.5a73.91,73.91,0,1,0-73.91,73.913A73.619,73.619,0,0,0,341.412,2218.5Z" transform="translate(-193.589 -2144.593)" fill="url(#radial-gradient)"/>
        <path id="Trazado_40938" data-name="Trazado 40938" d="M314.681,2209.3a56.416,56.416,0,1,0-56.416,56.417A56.208,56.208,0,0,0,314.681,2209.3Z" transform="translate(-184.129 -2135.145)" fill="none" stroke="#1565c0" stroke-miterlimit="10" stroke-width="6"/>
        <g id="Grupo_18422" data-name="Grupo 18422" transform="translate(13.094 41.496)">
          <path id="Trazado_40939" data-name="Trazado 40939" d="M327.8,2164.488a73.92,73.92,0,0,1-127.255,73.6,73.685,73.685,0,0,0,127.255-73.6Z" transform="translate(-200.545 -2164.488)" fill="#eceef0"/>
        </g>
      </g>
    </g>
    <g id="Grupo_179470" data-name="Grupo 179470" transform="translate(-6174.735 -6331.275)">
      <g id="Grupo_179473" data-name="Grupo 179473" clip-path="url(#clip-path)">
        <path id="Trazado_228823" data-name="Trazado 228823" d="M99.041,119.582c.421,0,.781-.005,1.141,0,1.068.018,1.515.453,1.539,1.541.02.919,0,1.838,0,2.868,1.1,0,2.128-.006,3.153,0,1.089.008,1.67.49,1.647,1.348-.021.817-.586,1.264-1.64,1.274-1,.01-2.01,0-3.159,0,0,.876,0,1.7,0,2.525-.008,1.522-.369,1.883-1.876,1.886H98.7c-1.883,4.971-4.372,7.053-8.374,7.04-3.922-.013-6.4-2.117-8.226-7.042-.5,0-1.025.009-1.551,0-.979-.021-1.446-.456-1.475-1.43-.028-.947-.006-1.9-.006-2.977-1.119,0-2.173.062-3.214-.028a2.136,2.136,0,0,1-1.363-.609c-.665-.81,0-1.935,1.133-1.978,1.113-.043,2.228-.009,3.438-.009,0-.889,0-1.694,0-2.5,0-1.572.334-1.9,1.928-1.913.244,0,.489-.024.793-.04a19.086,19.086,0,0,0-6.149-11.315,35.4,35.4,0,0,1-4.738-5.071C60.844,89.188,69.169,69,86.088,65.984a24.03,24.03,0,0,1,27.9,20.286c1.09,8.5-1.616,15.8-8.217,21.355a17.993,17.993,0,0,0-6.729,11.586,3.6,3.6,0,0,0,0,.371m-14.643.033a1.13,1.13,0,0,0,.247.087c3.776.008,7.552.006,11.328.026.51,0,.581-.26.633-.669a18.345,18.345,0,0,1,4.125-9.746c1.346-1.592,3-2.92,4.464-4.416,5.029-5.141,7.474-11.275,6.44-18.46a21.3,21.3,0,0,0-24.593-17.9c-7.911,1.415-13.549,5.906-16.413,13.405a20.479,20.479,0,0,0,3.132,20.882,49.334,49.334,0,0,0,4.575,4.539A20.748,20.748,0,0,1,84.4,119.615m14.688,2.621H81.736v6.033h17.35Zm-3.2,8.715H84.742a5.822,5.822,0,0,0,5.922,4.5,5.484,5.484,0,0,0,5.226-4.5" transform="translate(-55.352 -54.575)" fill="#12263f"/>
        <path id="Trazado_228824" data-name="Trazado 228824" d="M203.076,3.819c0,.784.018,1.568,0,2.351-.025.906-.516,1.454-1.276,1.473-.8.021-1.333-.544-1.345-1.486q-.031-2.351,0-4.7c.012-.953.461-1.441,1.26-1.455.822-.013,1.331.518,1.359,1.468.023.783,0,1.567.005,2.351" transform="translate(-166.719 0)" fill="#12263f"/>
        <path id="Trazado_228825" data-name="Trazado 228825" d="M3.837,203.1c-.81,0-1.621.014-2.431,0A1.3,1.3,0,0,1,0,201.849a1.29,1.29,0,0,1,1.413-1.32q2.431-.031,4.862,0a1.274,1.274,0,0,1,1.4,1.328,1.291,1.291,0,0,1-1.4,1.239c-.81.019-1.621,0-2.431,0" transform="translate(0 -166.784)" fill="#12263f"/>
        <path id="Trazado_228826" data-name="Trazado 228826" d="M374.889,200.541c.811,0,1.623-.016,2.434,0a1.293,1.293,0,0,1,1.4,1.159,1.343,1.343,0,0,1-1.215,1.375c-1.788.057-3.581.063-5.368,0a1.124,1.124,0,0,1-1.066-1.28,1.146,1.146,0,0,1,1.131-1.225c.891-.058,1.789-.014,2.684-.014v-.017" transform="translate(-308.652 -166.801)" fill="#12263f"/>
        <path id="Trazado_228827" data-name="Trazado 228827" d="M290.845,27.719a9.077,9.077,0,0,1-.414,1.034q-1.209,2.1-2.45,4.18a1.282,1.282,0,0,1-1.849.528,1.162,1.162,0,0,1-.331-1.735q1.245-2.175,2.541-4.32a1.1,1.1,0,0,1,1.4-.615,4.876,4.876,0,0,1,1.1.929" transform="translate(-237.525 -22.213)" fill="#12263f"/>
        <path id="Trazado_228828" data-name="Trazado 228828" d="M354.828,289.051c-.008,1.271-.93,1.913-1.8,1.439-1.518-.827-3-1.718-4.471-2.632a1.353,1.353,0,0,1-.444-1.845c.368-.58,1.011-.684,1.769-.247,1.426.822,2.854,1.642,4.251,2.512a3.133,3.133,0,0,1,.7.773" transform="translate(-289.392 -237.471)" fill="#12263f"/>
        <path id="Trazado_228829" data-name="Trazado 228829" d="M105.967,349.792a6.077,6.077,0,0,1-.3.821c-.825,1.425-1.642,2.857-2.514,4.253a1.393,1.393,0,0,1-2.095.376,1.309,1.309,0,0,1-.241-1.191c.892-1.673,1.845-3.319,2.886-4.9a1.484,1.484,0,0,1,1.324-.268c.391.119.663.625.939.912" transform="translate(-83.806 -290.152)" fill="#12263f"/>
        <path id="Trazado_228830" data-name="Trazado 228830" d="M34.444,103.2c-.023,1.087-.864,1.66-1.663,1.228-1.618-.876-3.2-1.82-4.766-2.789a1.079,1.079,0,0,1-.291-1.558c.3-.579.84-.889,1.386-.594,1.665.9,3.29,1.876,4.891,2.885.275.173.356.655.442.827" transform="translate(-22.894 -82.66)" fill="#12263f"/>
        <path id="Trazado_228831" data-name="Trazado 228831" d="M102.388,27.088a3.209,3.209,0,0,1,.849.729c.866,1.368,1.676,2.773,2.477,4.181a1.276,1.276,0,0,1-.425,1.822,1.249,1.249,0,0,1-1.755-.611c-.812-1.369-1.63-2.736-2.414-4.121a1.287,1.287,0,0,1,1.268-2" transform="translate(-83.931 -22.531)" fill="#12263f"/>
        <path id="Trazado_228832" data-name="Trazado 228832" d="M355.4,101.4a3.615,3.615,0,0,1-.791.9c-1.367.867-2.775,1.67-4.18,2.476a1.185,1.185,0,0,1-1.688-.362,1.252,1.252,0,0,1,.409-1.759c.963-.618,1.965-1.176,2.951-1.757.506-.3,1-.628,1.526-.874.879-.406,1.8.177,1.773,1.375" transform="translate(-289.905 -83.089)" fill="#12263f"/>
        <path id="Trazado_228833" data-name="Trazado 228833" d="M28.827,290.532c-.321-.266-.873-.5-.952-.847a1.623,1.623,0,0,1,.329-1.4c1.55-1.042,3.166-1.992,4.811-2.881a1.058,1.058,0,0,1,1.459.63,1.22,1.22,0,0,1-.531,1.668c-1.359.829-2.736,1.629-4.114,2.426a8.755,8.755,0,0,1-1,.407" transform="translate(-23.157 -237.293)" fill="#12263f"/>
        <path id="Trazado_228834" data-name="Trazado 228834" d="M289.4,354.522a3.233,3.233,0,0,1-.837-.73c-.864-1.367-1.674-2.769-2.472-4.175a1.28,1.28,0,0,1,.419-1.823,1.257,1.257,0,0,1,1.718.563c.858,1.4,1.7,2.818,2.5,4.255.514.922-.067,1.939-1.33,1.91" transform="translate(-237.794 -289.161)" fill="#12263f"/>
        <path id="Trazado_228835" data-name="Trazado 228835" d="M131.667,136.283c-.413-.17-.753-.293-1.078-.446-.885-.417-1.759-.856-2.646-1.268-.715-.332-1.082-.17-1.325.579q-.5,1.555-.975,3.12a1.334,1.334,0,0,1-1.421,1.05q-2.267-.013-4.533,0a1.366,1.366,0,0,1-1.458-1.114c-.283-.965-.609-1.917-.927-2.871a.886.886,0,0,0-1.4-.586c-.892.466-1.781.938-2.654,1.437a1.366,1.366,0,0,1-1.825-.216q-1.662-1.663-3.325-3.324a1.321,1.321,0,0,1-.276-1.677q.705-1.428,1.376-2.874a.909.909,0,0,0-.615-1.421c-.978-.334-1.96-.659-2.951-.95a1.415,1.415,0,0,1-1.151-1.523q.025-2.225,0-4.45a1.378,1.378,0,0,1,1.03-1.446c.977-.338,1.95-.686,2.922-1.036.808-.292.992-.77.585-1.541-.469-.89-.933-1.784-1.437-2.655a1.265,1.265,0,0,1,.219-1.676c1.139-1.157,2.29-2.3,3.443-3.444a1.224,1.224,0,0,1,1.533-.25c.952.47,1.911.926,2.869,1.383.767.366,1.24.175,1.538-.636.366-1,.73-1.994,1.065-3a1.378,1.378,0,0,1,1.438-1.043l4.533,0a1.356,1.356,0,0,1,1.424,1.057c.3.988.624,1.971.951,2.951a.878.878,0,0,0,1.406.572c.892-.466,1.78-.939,2.654-1.438a1.368,1.368,0,0,1,1.825.226q1.6,1.6,3.2,3.208a1.316,1.316,0,0,1,.246,1.681c-.438.875-.845,1.764-1.267,2.646-.475.993-.307,1.366.773,1.7.933.292,1.859.609,2.8.869a1.413,1.413,0,0,1,1.169,1.586q-.092,2.307-.14,4.616a1.306,1.306,0,0,1-.954,1.322c-.974.345-1.945.7-2.916,1.052-.924.336-1.078.754-.6,1.644.447.839.879,1.687,1.356,2.508a1.317,1.317,0,0,1-.2,1.753c-1.12,1.136-2.243,2.269-3.389,3.378a4.641,4.641,0,0,1-.892.546m-11.42-29.2a12.718,12.718,0,0,0-.55,1.791,3.021,3.021,0,0,1-2.54,2.8,3.732,3.732,0,0,1-1.757-.016c-.869-.281-1.661-.794-2.511-1.147a.916.916,0,0,0-.782.111c-.668.548-1.281,1.161-1.932,1.766.6,1.07,1.188,1.991,1.634,2.977a2.6,2.6,0,0,1,.184,1.587c-.356,1.411-1.064,2.565-2.7,2.784-.325.043-.626.256-.952.311-.9.152-1.188.617-1.147,1.544.086,1.945.006,2.04,1.92,2.512a3.355,3.355,0,0,1,2.8,2.479,2.475,2.475,0,0,1-.038,1.929c-.4.8-.794,1.6-1.152,2.421a.767.767,0,0,0,.008.653c.61.718,1.271,1.394,1.885,2.054,1.135-.613,2.078-1.16,3.058-1.63a1.655,1.655,0,0,1,1.1-.132c2.339.741,2.333.759,3.163,3.08a2.038,2.038,0,0,1,.14.394c.136,1.02.7,1.305,1.711,1.253,1.854-.1,1.942-.009,2.391-1.847.355-1.453.991-2.535,2.53-2.815a4.008,4.008,0,0,1,1.831.022,25.7,25.7,0,0,1,2.434,1.111.855.855,0,0,0,.724-.009c.7-.592,1.353-1.244,2.014-1.868-.565-1.1-1.1-2.045-1.544-3.039a2.2,2.2,0,0,1-.176-1.351c.392-1.437.985-2.753,2.771-2.893a2.572,2.572,0,0,0,.558-.174c1.367-.442,1.367-.442,1.369-1.85,0-1.736.024-1.834-1.644-2.2-1.582-.351-2.693-1-3.066-2.707a2.576,2.576,0,0,1,.041-1.85c.4-.8.81-1.6,1.144-2.424a.961.961,0,0,0-.13-.836c-.58-.634-1.163-1.538-1.882-1.689-.611-.129-1.412.639-2.128,1.01-.074.039-.148.079-.222.119a3.166,3.166,0,0,1-4.486-1.693c-.325-.874-.484-2.076-1.129-2.491-.672-.431-1.838-.093-2.788-.09a.8.8,0,0,0-.145.046" transform="translate(-86.906 -86.839)" fill="#12263f"/>
        <path id="Trazado_228836" data-name="Trazado 228836" d="M178.669,183.814a5.981,5.981,0,1,1,5.976-6.013,6.06,6.06,0,0,1-5.976,6.013m0-9.472a3.482,3.482,0,0,0-3.541,3.476,3.518,3.518,0,1,0,7.037.046,3.487,3.487,0,0,0-3.5-3.522" transform="translate(-143.603 -142.943)" fill="#12263f"/>
      </g>
    </g>
  </g>
</svg>
