<svg xmlns="http://www.w3.org/2000/svg" xmlns:xlink="http://www.w3.org/1999/xlink" width="561.695" height="284.74" viewBox="0 0 561.695 284.74">
  <defs>
    <linearGradient id="linear-gradient" x1="-48.958" y1="29.159" x2="-48.781" y2="29.159" gradientUnits="objectBoundingBox">
      <stop offset="0" stop-color="#1e9cd7"/>
      <stop offset="0.994" stop-color="#005b97"/>
      <stop offset="1" stop-color="#005b97"/>
    </linearGradient>
    <linearGradient id="linear-gradient-2" x1="-0.631" y1="1.612" x2="-0.625" y2="1.612" xlink:href="#linear-gradient"/>
    <linearGradient id="linear-gradient-3" x1="-32.316" y1="20.954" x2="-32.197" y2="20.954" xlink:href="#linear-gradient"/>
    <linearGradient id="linear-gradient-4" x1="-0.807" y1="1.093" x2="-0.804" y2="1.093" xlink:href="#linear-gradient"/>
    <linearGradient id="linear-gradient-5" x1="-60.149" y1="40.366" x2="-59.972" y2="40.366" xlink:href="#linear-gradient"/>
    <linearGradient id="linear-gradient-6" x1="-68.514" y1="32" x2="-68.338" y2="32" xlink:href="#linear-gradient"/>
    <linearGradient id="linear-gradient-7" x1="-2.916" y1="3.947" x2="-2.909" y2="3.947" xlink:href="#linear-gradient"/>
    <linearGradient id="linear-gradient-8" x1="-63.21" y1="26.766" x2="-63.092" y2="26.766" xlink:href="#linear-gradient"/>
    <linearGradient id="linear-gradient-9" x1="-31.552" y1="2.416" x2="-31.494" y2="2.416" xlink:href="#linear-gradient"/>
    <linearGradient id="linear-gradient-10" x1="-63.217" y1="14.343" x2="-63.099" y2="14.343" xlink:href="#linear-gradient"/>
    <linearGradient id="linear-gradient-11" x1="-2.415" y1="2.137" x2="-2.408" y2="2.137" xlink:href="#linear-gradient"/>
    <linearGradient id="linear-gradient-12" x1="-43.974" y1="21.641" x2="-43.853" y2="21.641" xlink:href="#linear-gradient"/>
    <linearGradient id="linear-gradient-13" x1="-11.991" y1="7.788" x2="-11.955" y2="7.788" xlink:href="#linear-gradient"/>
    <linearGradient id="linear-gradient-14" x1="-38.843" y1="26.519" x2="-38.723" y2="26.519" xlink:href="#linear-gradient"/>
    <linearGradient id="linear-gradient-15" x1="-0.139" y1="1.093" x2="-0.135" y2="1.093" xlink:href="#linear-gradient"/>
    <linearGradient id="linear-gradient-16" x1="-57.323" y1="20.794" x2="-57.146" y2="20.794" xlink:href="#linear-gradient"/>
    <linearGradient id="linear-gradient-17" x1="-803.464" y1="474.283" x2="-800.671" y2="474.283" xlink:href="#linear-gradient"/>
    <linearGradient id="linear-gradient-18" x1="-1067.824" y1="474.283" x2="-1065.03" y2="474.283" xlink:href="#linear-gradient"/>
    <linearGradient id="linear-gradient-19" x1="-6.859" y1="16.588" x2="-6.793" y2="16.588" xlink:href="#linear-gradient"/>
    <linearGradient id="linear-gradient-20" x1="-6.925" y1="6.88" x2="-6.859" y2="6.88" xlink:href="#linear-gradient"/>
    <linearGradient id="linear-gradient-21" x1="-17.293" y1="6.946" x2="-17.227" y2="6.946" xlink:href="#linear-gradient"/>
    <linearGradient id="linear-gradient-22" x1="-26.704" y1="16.357" x2="-26.638" y2="16.357" xlink:href="#linear-gradient"/>
    <linearGradient id="linear-gradient-23" x1="-35.554" y1="16.885" x2="-35.487" y2="16.885" xlink:href="#linear-gradient"/>
    <linearGradient id="linear-gradient-24" x1="-36.28" y1="6.913" x2="-36.214" y2="6.913" xlink:href="#linear-gradient"/>
    <linearGradient id="linear-gradient-25" x1="-26.506" y1="6.979" x2="-26.44" y2="6.979" xlink:href="#linear-gradient"/>
    <linearGradient id="linear-gradient-26" x1="-16.038" y1="16.984" x2="-15.972" y2="16.984" xlink:href="#linear-gradient"/>
  </defs>
  <g id="Grupo_180623" data-name="Grupo 180623" transform="translate(5313 7435.203)">
    <path id="Trazado_232177" data-name="Trazado 232177" d="M8.7-3.315A3.522,3.522,0,0,1,7.516-.786,4.165,4.165,0,0,1,4.7.137,3.745,3.745,0,0,1,1.685-1.152a5.284,5.284,0,0,1-1.1-3.538V-5.3a5.966,5.966,0,0,1,.506-2.529A3.791,3.791,0,0,1,2.54-9.505a4.05,4.05,0,0,1,2.184-.584A4.058,4.058,0,0,1,7.5-9.167,3.785,3.785,0,0,1,8.716-6.576H6.665a2.079,2.079,0,0,0-.537-1.4,1.987,1.987,0,0,0-1.4-.434,1.742,1.742,0,0,0-1.535.735,4.118,4.118,0,0,0-.523,2.28v.752a4.408,4.408,0,0,0,.489,2.358A1.71,1.71,0,0,0,4.7-1.538a2.025,2.025,0,0,0,1.418-.434,1.961,1.961,0,0,0,.537-1.343Z" transform="matrix(-0.285, -0.958, 0.958, -0.285, -5239.583, -7263.373)"/>
    <path id="Trazado_232178" data-name="Trazado 232178" d="M.451-3.767A4.387,4.387,0,0,1,.875-5.729,3.1,3.1,0,0,1,2.1-7.062a3.56,3.56,0,0,1,1.849-.472,3.368,3.368,0,0,1,2.444.916A3.676,3.676,0,0,1,7.444-4.129l.014.506a3.866,3.866,0,0,1-.95,2.731A3.3,3.3,0,0,1,3.958.137,3.319,3.319,0,0,1,1.4-.889,3.934,3.934,0,0,1,.451-3.678Zm1.976.14a2.765,2.765,0,0,0,.4,1.612,1.308,1.308,0,0,0,1.135.558,1.311,1.311,0,0,0,1.121-.551,3.025,3.025,0,0,0,.4-1.763,2.737,2.737,0,0,0-.4-1.6A1.311,1.311,0,0,0,3.944-5.94a1.29,1.29,0,0,0-1.121.565A3.076,3.076,0,0,0,2.427-3.626Z" transform="translate(-5242.273 -7272.487) rotate(-100.667)"/>
    <path id="Trazado_232179" data-name="Trazado 232179" d="M2.577-7.4l.062.854a2.582,2.582,0,0,1,2.126-.991,2.146,2.146,0,0,1,1.75.69A3.221,3.221,0,0,1,7.1-4.778V0H5.127V-4.741a1.287,1.287,0,0,0-.273-.915,1.222,1.222,0,0,0-.909-.284,1.359,1.359,0,0,0-1.251.713V0H.718V-7.4Z" transform="translate(-5243.834 -7280.748) rotate(-95.147)"/>
    <path id="Trazado_232180" data-name="Trazado 232180" d="M4.765-2.044a.637.637,0,0,0-.359-.571,4.077,4.077,0,0,0-1.152-.373Q.615-3.541.615-5.229a2.032,2.032,0,0,1,.817-1.644,3.3,3.3,0,0,1,2.136-.66,3.547,3.547,0,0,1,2.252.663,2.09,2.09,0,0,1,.844,1.723H4.689a.956.956,0,0,0-.273-.7,1.157,1.157,0,0,0-.854-.277,1.182,1.182,0,0,0-.772.226.712.712,0,0,0-.273.574.609.609,0,0,0,.311.53,3.2,3.2,0,0,0,1.049.349,8.571,8.571,0,0,1,1.244.332A2.044,2.044,0,0,1,6.686-2.126,1.929,1.929,0,0,1,5.817-.489,3.745,3.745,0,0,1,3.575.137,3.912,3.912,0,0,1,1.924-.195,2.77,2.77,0,0,1,.793-1.1a2.113,2.113,0,0,1-.41-1.248H2.256a1.031,1.031,0,0,0,.39.807,1.546,1.546,0,0,0,.971.28,1.43,1.43,0,0,0,.858-.215A.67.67,0,0,0,4.765-2.044Z" transform="translate(-5244.578 -7289.132) rotate(-89.872)"/>
    <path id="Trazado_232181" data-name="Trazado 232181" d="M3.124-9.215V-7.4H4.389v1.449H3.124v3.691a.881.881,0,0,0,.157.588.79.79,0,0,0,.6.178,3.151,3.151,0,0,0,.581-.048v1.5a4.067,4.067,0,0,1-1.2.178,1.886,1.886,0,0,1-2.119-2.1V-5.947H.068V-7.4h1.08V-9.215Z" transform="translate(-5244.517 -7296.847) rotate(-85.644)"/>
    <path id="Trazado_232182" data-name="Trazado 232182" d="M4.915-5.544A5.367,5.367,0,0,0,4.2-5.6a1.447,1.447,0,0,0-1.47.759V0H.759V-7.4H2.625l.055.882A1.831,1.831,0,0,1,4.327-7.533a2.07,2.07,0,0,1,.615.089Z" transform="translate(-5244.126 -7302.02) rotate(-82.22)"/>
    <path id="Trazado_232183" data-name="Trazado 232183" d="M5.188-.752A2.477,2.477,0,0,1,3.165.137,2.337,2.337,0,0,1,1.35-.547a2.918,2.918,0,0,1-.639-2V-7.4H2.687v4.784q0,1.157,1.053,1.157a1.426,1.426,0,0,0,1.381-.7V-7.4H7.1V0H5.243Z" transform="translate(-5243.485 -7307.207) rotate(-77.729)"/>
    <path id="Trazado_232184" data-name="Trazado 232184" d="M2.844,0H.861V-7.4H2.844ZM.745-9.311a.973.973,0,0,1,.3-.731,1.117,1.117,0,0,1,.81-.287,1.12,1.12,0,0,1,.807.287.967.967,0,0,1,.3.731.97.97,0,0,1-.3.738,1.122,1.122,0,0,1-.8.287,1.122,1.122,0,0,1-.8-.287A.97.97,0,0,1,.745-9.311Z" transform="matrix(0.282, -0.96, 0.96, 0.282, -5241.617, -7315.436)"/>
    <path id="Trazado_232185" data-name="Trazado 232185" d="M4.915-5.544A5.367,5.367,0,0,0,4.2-5.6a1.447,1.447,0,0,0-1.47.759V0H.759V-7.4H2.625l.055.882A1.831,1.831,0,0,1,4.327-7.533a2.07,2.07,0,0,1,.615.089Z" transform="translate(-5240.519 -7319.243) rotate(-70.596)"/>
    <path id="Trazado_232186" data-name="Trazado 232186" d="M2.939-3.507V0H.889V-9.953H4.771a4.492,4.492,0,0,1,1.972.41A3.022,3.022,0,0,1,8.053-8.377a3.25,3.25,0,0,1,.458,1.719,2.858,2.858,0,0,1-1,2.307,4.171,4.171,0,0,1-2.772.844Zm0-1.661H4.771a1.8,1.8,0,0,0,1.241-.383,1.392,1.392,0,0,0,.427-1.094,1.642,1.642,0,0,0-.431-1.183,1.609,1.609,0,0,0-1.189-.465H2.939Z" transform="translate(-5195.487 -7371.22) rotate(-22.534)"/>
    <path id="Trazado_232187" data-name="Trazado 232187" d="M2.844,0H.861V-10.5H2.844Z" transform="translate(-5186.65 -7374.772) rotate(-18.075)"/>
    <path id="Trazado_232188" data-name="Trazado 232188" d="M5.045,0a2.194,2.194,0,0,1-.2-.663,2.39,2.39,0,0,1-1.866.8,2.626,2.626,0,0,1-1.8-.629A2.023,2.023,0,0,1,.465-2.078a2.09,2.09,0,0,1,.872-1.8,4.3,4.3,0,0,1,2.519-.636h.909v-.424a1.219,1.219,0,0,0-.263-.82,1.035,1.035,0,0,0-.831-.308,1.177,1.177,0,0,0-.783.239.813.813,0,0,0-.284.656H.629a1.984,1.984,0,0,1,.4-1.189,2.621,2.621,0,0,1,1.121-.858,4.086,4.086,0,0,1,1.627-.311,3.228,3.228,0,0,1,2.17.687,2.4,2.4,0,0,1,.8,1.931v3.206A3.536,3.536,0,0,0,7.041-.116V0ZM3.411-1.374a1.7,1.7,0,0,0,.807-.195,1.28,1.28,0,0,0,.547-.523V-3.363H4.026q-1.483,0-1.579,1.025l-.007.116a.791.791,0,0,0,.26.608A1.009,1.009,0,0,0,3.411-1.374Z" transform="matrix(0.97, -0.244, 0.244, 0.97, -5182.898, -7376.074)"/>
    <path id="Trazado_232189" data-name="Trazado 232189" d="M2.577-7.4l.062.854a2.582,2.582,0,0,1,2.126-.991,2.146,2.146,0,0,1,1.75.69A3.221,3.221,0,0,1,7.1-4.778V0H5.127V-4.741a1.287,1.287,0,0,0-.273-.915,1.222,1.222,0,0,0-.909-.284,1.359,1.359,0,0,0-1.251.713V0H.718V-7.4Z" transform="matrix(0.988, -0.151, 0.151, 0.988, -5175.139, -7378.039)"/>
    <path id="Trazado_232190" data-name="Trazado 232190" d="M2.844,0H.861V-7.4H2.844ZM.745-9.311a.973.973,0,0,1,.3-.731,1.117,1.117,0,0,1,.81-.287,1.12,1.12,0,0,1,.807.287.967.967,0,0,1,.3.731.97.97,0,0,1-.3.738,1.122,1.122,0,0,1-.8.287,1.122,1.122,0,0,1-.8-.287A.97.97,0,0,1,.745-9.311Z" transform="translate(-5166.784 -7379.24) rotate(-4.634)"/>
    <path id="Trazado_232191" data-name="Trazado 232191" d="M1.237,0V-5.947H.137V-7.4h1.1v-.342A2.774,2.774,0,0,1,2.1-9.888a3.452,3.452,0,0,1,2.382-.755,7.9,7.9,0,0,1,2.242.4L6.433-8.606a8.748,8.748,0,0,0-1.039-.256A5.105,5.105,0,0,0,4.6-8.921Q3.22-8.921,3.22-7.7v.3H4.676v1.449H3.22V0ZM7.643,0H5.66V-7.4H7.643Z" transform="translate(-5162.875 -7379.658) rotate(-0.363)"/>
    <path id="Trazado_232192" data-name="Trazado 232192" d="M3.835-1.456a1.3,1.3,0,0,0,.889-.3,1.054,1.054,0,0,0,.355-.8H6.932a2.534,2.534,0,0,1-.41,1.377,2.706,2.706,0,0,1-1.1.971A3.455,3.455,0,0,1,3.869.137a3.211,3.211,0,0,1-2.5-1.008A3.99,3.99,0,0,1,.451-3.657v-.13A3.944,3.944,0,0,1,1.36-6.515a3.174,3.174,0,0,1,2.5-1.019,3.111,3.111,0,0,1,2.225.79,2.8,2.8,0,0,1,.851,2.1H5.079a1.358,1.358,0,0,0-.355-.938,1.185,1.185,0,0,0-.9-.361,1.19,1.19,0,0,0-1.042.5A2.916,2.916,0,0,0,2.427-3.8V-3.6a2.953,2.953,0,0,0,.349,1.643A1.2,1.2,0,0,0,3.835-1.456Z" transform="translate(-5153.756 -7379.686) rotate(5.147)"/>
    <path id="Trazado_232193" data-name="Trazado 232193" d="M5.045,0a2.194,2.194,0,0,1-.2-.663,2.39,2.39,0,0,1-1.866.8,2.626,2.626,0,0,1-1.8-.629A2.023,2.023,0,0,1,.465-2.078a2.09,2.09,0,0,1,.872-1.8,4.3,4.3,0,0,1,2.519-.636h.909v-.424a1.219,1.219,0,0,0-.263-.82,1.035,1.035,0,0,0-.831-.308,1.177,1.177,0,0,0-.783.239.813.813,0,0,0-.284.656H.629a1.984,1.984,0,0,1,.4-1.189,2.621,2.621,0,0,1,1.121-.858,4.086,4.086,0,0,1,1.627-.311,3.228,3.228,0,0,1,2.17.687,2.4,2.4,0,0,1,.8,1.931v3.206A3.536,3.536,0,0,0,7.041-.116V0ZM3.411-1.374a1.7,1.7,0,0,0,.807-.195,1.28,1.28,0,0,0,.547-.523V-3.363H4.026q-1.483,0-1.579,1.025l-.007.116a.791.791,0,0,0,.26.608A1.009,1.009,0,0,0,3.411-1.374Z" transform="translate(-5146.114 -7379.011) rotate(10.291)"/>
    <path id="Trazado_232194" data-name="Trazado 232194" d="M4.915-5.544A5.367,5.367,0,0,0,4.2-5.6a1.447,1.447,0,0,0-1.47.759V0H.759V-7.4H2.625l.055.882A1.831,1.831,0,0,1,4.327-7.533a2.07,2.07,0,0,1,.615.089Z" transform="translate(-5138.212 -7377.525) rotate(14.668)"/>
    <path id="Trazado_232266" data-name="Trazado 232266" d="M8.764-1.258A3.56,3.56,0,0,1,7.2-.229,6.556,6.556,0,0,1,4.956.137,4.442,4.442,0,0,1,2.69-.427a3.762,3.762,0,0,1-1.5-1.637A5.762,5.762,0,0,1,.643-4.587v-.677a6.119,6.119,0,0,1,.5-2.581A3.717,3.717,0,0,1,2.594-9.512a4.174,4.174,0,0,1,2.218-.578,4.157,4.157,0,0,1,2.769.844A3.608,3.608,0,0,1,8.764-6.788h-2a1.985,1.985,0,0,0-.6-1.251,1.932,1.932,0,0,0-1.289-.4,1.818,1.818,0,0,0-1.593.786,4.134,4.134,0,0,0-.554,2.338v.636a3.935,3.935,0,0,0,.595,2.365,2.037,2.037,0,0,0,1.743.8A2.275,2.275,0,0,0,6.713-2V-3.719H4.847V-5.229H8.764Z" transform="matrix(-0.931, 0.366, -0.366, -0.931, -4874.853, -7217.285)"/>
    <path id="Trazado_232267" data-name="Trazado 232267" d="M4.163.137a3.631,3.631,0,0,1-2.649-1A3.548,3.548,0,0,1,.492-3.521v-.191A4.468,4.468,0,0,1,.923-5.7a3.161,3.161,0,0,1,1.22-1.354,3.425,3.425,0,0,1,1.8-.475,3.07,3.07,0,0,1,2.389.957,3.889,3.889,0,0,1,.872,2.714v.807H2.5a1.835,1.835,0,0,0,.578,1.162,1.746,1.746,0,0,0,1.22.438,2.132,2.132,0,0,0,1.784-.827L7.048-1.2a2.966,2.966,0,0,1-1.2.981A3.947,3.947,0,0,1,4.163.137ZM3.938-5.94a1.234,1.234,0,0,0-.954.4A2.062,2.062,0,0,0,2.516-4.4H5.264V-4.56a1.471,1.471,0,0,0-.355-1.02A1.274,1.274,0,0,0,3.938-5.94Z" transform="matrix(-0.964, 0.266, -0.266, -0.964, -4884.098, -7213.703)"/>
    <path id="Trazado_232249" data-name="Trazado 232249" d="M4.765-2.044a.637.637,0,0,0-.359-.571,4.077,4.077,0,0,0-1.152-.373Q.615-3.541.615-5.229a2.032,2.032,0,0,1,.817-1.644,3.3,3.3,0,0,1,2.136-.66,3.547,3.547,0,0,1,2.252.663,2.09,2.09,0,0,1,.844,1.723H4.689a.956.956,0,0,0-.273-.7,1.157,1.157,0,0,0-.854-.277,1.182,1.182,0,0,0-.772.226.712.712,0,0,0-.273.574.609.609,0,0,0,.311.53,3.2,3.2,0,0,0,1.049.349,8.571,8.571,0,0,1,1.244.332A2.044,2.044,0,0,1,6.686-2.126,1.929,1.929,0,0,1,5.817-.489,3.745,3.745,0,0,1,3.575.137,3.912,3.912,0,0,1,1.924-.195,2.77,2.77,0,0,1,.793-1.1a2.113,2.113,0,0,1-.41-1.248H2.256a1.031,1.031,0,0,0,.39.807,1.546,1.546,0,0,0,.971.28,1.43,1.43,0,0,0,.858-.215A.67.67,0,0,0,4.765-2.044Z" transform="translate(-4891.621 -7211.622) rotate(169.805)"/>
    <path id="Trazado_232250" data-name="Trazado 232250" d="M3.124-9.215V-7.4H4.389v1.449H3.124v3.691a.881.881,0,0,0,.157.588.79.79,0,0,0,.6.178,3.151,3.151,0,0,0,.581-.048v1.5a4.067,4.067,0,0,1-1.2.178,1.886,1.886,0,0,1-2.119-2.1V-5.947H.068V-7.4h1.08V-9.215Z" transform="translate(-4899.197 -7210.305) rotate(174.147)"/>
    <path id="Trazado_232251" data-name="Trazado 232251" d="M2.844,0H.861V-7.4H2.844ZM.745-9.311a.973.973,0,0,1,.3-.731,1.117,1.117,0,0,1,.81-.287,1.12,1.12,0,0,1,.807.287.967.967,0,0,1,.3.731.97.97,0,0,1-.3.738,1.122,1.122,0,0,1-.8.287,1.122,1.122,0,0,1-.8-.287A.97.97,0,0,1,.745-9.311Z" transform="translate(-4904.376 -7209.789) rotate(177.245)"/>
    <path id="Trazado_232252" data-name="Trazado 232252" d="M.451-3.767A4.387,4.387,0,0,1,.875-5.729,3.1,3.1,0,0,1,2.1-7.062a3.56,3.56,0,0,1,1.849-.472,3.368,3.368,0,0,1,2.444.916A3.676,3.676,0,0,1,7.444-4.129l.014.506a3.866,3.866,0,0,1-.95,2.731A3.3,3.3,0,0,1,3.958.137,3.319,3.319,0,0,1,1.4-.889,3.934,3.934,0,0,1,.451-3.678Zm1.976.14a2.765,2.765,0,0,0,.4,1.612,1.308,1.308,0,0,0,1.135.558,1.311,1.311,0,0,0,1.121-.551,3.025,3.025,0,0,0,.4-1.763,2.737,2.737,0,0,0-.4-1.6A1.311,1.311,0,0,0,3.944-5.94a1.29,1.29,0,0,0-1.121.565A3.076,3.076,0,0,0,2.427-3.626Z" transform="translate(-4908.315 -7209.514) rotate(-178.58)"/>
    <path id="Trazado_232253" data-name="Trazado 232253" d="M2.577-7.4l.062.854a2.582,2.582,0,0,1,2.126-.991,2.146,2.146,0,0,1,1.75.69A3.221,3.221,0,0,1,7.1-4.778V0H5.127V-4.741a1.287,1.287,0,0,0-.273-.915,1.222,1.222,0,0,0-.909-.284,1.359,1.359,0,0,0-1.251.713V0H.718V-7.4Z" transform="matrix(-0.992, -0.124, 0.124, -0.992, -4916.729, -7209.717)"/>
    <path id="Trazado_232254" data-name="Trazado 232254" d="M5.045,0a2.194,2.194,0,0,1-.2-.663,2.39,2.39,0,0,1-1.866.8,2.626,2.626,0,0,1-1.8-.629A2.023,2.023,0,0,1,.465-2.078a2.09,2.09,0,0,1,.872-1.8,4.3,4.3,0,0,1,2.519-.636h.909v-.424a1.219,1.219,0,0,0-.263-.82,1.035,1.035,0,0,0-.831-.308,1.177,1.177,0,0,0-.783.239.813.813,0,0,0-.284.656H.629a1.984,1.984,0,0,1,.4-1.189,2.621,2.621,0,0,1,1.121-.858,4.086,4.086,0,0,1,1.627-.311,3.228,3.228,0,0,1,2.17.687,2.4,2.4,0,0,1,.8,1.931v3.206A3.536,3.536,0,0,0,7.041-.116V0ZM3.411-1.374a1.7,1.7,0,0,0,.807-.195,1.28,1.28,0,0,0,.547-.523V-3.363H4.026q-1.483,0-1.579,1.025l-.007.116a.791.791,0,0,0,.26.608A1.009,1.009,0,0,0,3.411-1.374Z" transform="translate(-4925.068 -7210.759) rotate(-167.364)"/>
    <path id="Trazado_232255" data-name="Trazado 232255" d="M4.915-5.544A5.367,5.367,0,0,0,4.2-5.6a1.447,1.447,0,0,0-1.47.759V0H.759V-7.4H2.625l.055.882A1.831,1.831,0,0,1,4.327-7.533a2.07,2.07,0,0,1,.615.089Z" transform="translate(-4932.889 -7212.565) rotate(-162.861)"/>
    <path id="Trazado_232269" data-name="Trazado 232269" d="M3.069,0H1.019V-9.953H3.069Z" transform="matrix(0.59, 0.808, -0.808, 0.59, -4843.695, -7343.352)"/>
    <path id="Trazado_232270" data-name="Trazado 232270" d="M2.611-7.4l.062.827A2.6,2.6,0,0,1,4.8-7.533,1.973,1.973,0,0,1,6.761-6.405,2.54,2.54,0,0,1,8.982-7.533a2.206,2.206,0,0,1,1.791.7,3.221,3.221,0,0,1,.588,2.109V0H9.379V-4.728a1.414,1.414,0,0,0-.246-.922,1.089,1.089,0,0,0-.868-.291,1.233,1.233,0,0,0-1.23.85L7.041,0H5.065V-4.721a1.4,1.4,0,0,0-.253-.932,1.1,1.1,0,0,0-.861-.288,1.28,1.28,0,0,0-1.217.7V0H.759V-7.4Z" transform="matrix(0.502, 0.865, -0.865, 0.502, -4840.963, -7340.005)"/>
    <path id="Trazado_232271" data-name="Trazado 232271" d="M7.417-3.63A4.436,4.436,0,0,1,6.641-.892,2.488,2.488,0,0,1,4.546.137,2.3,2.3,0,0,1,2.734-.643V2.844H.759V-7.4H2.591l.068.725a2.322,2.322,0,0,1,1.873-.861A2.5,2.5,0,0,1,6.658-6.521a4.556,4.556,0,0,1,.759,2.789ZM5.441-3.78a2.927,2.927,0,0,0-.366-1.6A1.19,1.19,0,0,0,4.013-5.94a1.293,1.293,0,0,0-1.278.713V-2.19a1.315,1.315,0,0,0,1.292.734Q5.441-1.456,5.441-3.78Z" transform="matrix(0.386, 0.922, -0.922, 0.386, -4834.585, -7328.748)"/>
    <path id="Trazado_232272" data-name="Trazado 232272" d="M2.844,0H.861V-10.5H2.844Z" transform="translate(-4831.402 -7320.932) rotate(71.598)"/>
    <path id="Trazado_232273" data-name="Trazado 232273" d="M4.163.137a3.631,3.631,0,0,1-2.649-1A3.548,3.548,0,0,1,.492-3.521v-.191A4.468,4.468,0,0,1,.923-5.7a3.161,3.161,0,0,1,1.22-1.354,3.425,3.425,0,0,1,1.8-.475,3.07,3.07,0,0,1,2.389.957,3.889,3.889,0,0,1,.872,2.714v.807H2.5a1.835,1.835,0,0,0,.578,1.162,1.746,1.746,0,0,0,1.22.438,2.132,2.132,0,0,0,1.784-.827L7.048-1.2a2.966,2.966,0,0,1-1.2.981A3.947,3.947,0,0,1,4.163.137ZM3.938-5.94a1.234,1.234,0,0,0-.954.4A2.062,2.062,0,0,0,2.516-4.4H5.264V-4.56a1.471,1.471,0,0,0-.355-1.02A1.274,1.274,0,0,0,3.938-5.94Z" transform="matrix(0.247, 0.969, -0.969, 0.247, -4830.087, -7317.207)"/>
    <path id="Trazado_232274" data-name="Trazado 232274" d="M2.611-7.4l.062.827A2.6,2.6,0,0,1,4.8-7.533,1.973,1.973,0,0,1,6.761-6.405,2.54,2.54,0,0,1,8.982-7.533a2.206,2.206,0,0,1,1.791.7,3.221,3.221,0,0,1,.588,2.109V0H9.379V-4.728a1.414,1.414,0,0,0-.246-.922,1.089,1.089,0,0,0-.868-.291,1.233,1.233,0,0,0-1.23.85L7.041,0H5.065V-4.721a1.4,1.4,0,0,0-.253-.932,1.1,1.1,0,0,0-.861-.288,1.28,1.28,0,0,0-1.217.7V0H.759V-7.4Z" transform="translate(-4828.001 -7309.718) rotate(82.82)"/>
    <path id="Trazado_232275" data-name="Trazado 232275" d="M4.163.137a3.631,3.631,0,0,1-2.649-1A3.548,3.548,0,0,1,.492-3.521v-.191A4.468,4.468,0,0,1,.923-5.7a3.161,3.161,0,0,1,1.22-1.354,3.425,3.425,0,0,1,1.8-.475,3.07,3.07,0,0,1,2.389.957,3.889,3.889,0,0,1,.872,2.714v.807H2.5a1.835,1.835,0,0,0,.578,1.162,1.746,1.746,0,0,0,1.22.438,2.132,2.132,0,0,0,1.784-.827L7.048-1.2a2.966,2.966,0,0,1-1.2.981A3.947,3.947,0,0,1,4.163.137ZM3.938-5.94a1.234,1.234,0,0,0-.954.4A2.062,2.062,0,0,0,2.516-4.4H5.264V-4.56a1.471,1.471,0,0,0-.355-1.02A1.274,1.274,0,0,0,3.938-5.94Z" transform="translate(-4826.537 -7296.878) rotate(89.936)"/>
    <path id="Trazado_232276" data-name="Trazado 232276" d="M2.577-7.4l.062.854a2.582,2.582,0,0,1,2.126-.991,2.146,2.146,0,0,1,1.75.69A3.221,3.221,0,0,1,7.1-4.778V0H5.127V-4.741a1.287,1.287,0,0,0-.273-.915,1.222,1.222,0,0,0-.909-.284,1.359,1.359,0,0,0-1.251.713V0H.718V-7.4Z" transform="translate(-4826.507 -7289.085) rotate(95.511)"/>
    <path id="Trazado_232277" data-name="Trazado 232277" d="M3.124-9.215V-7.4H4.389v1.449H3.124v3.691a.881.881,0,0,0,.157.588.79.79,0,0,0,.6.178,3.151,3.151,0,0,0,.581-.048v1.5a4.067,4.067,0,0,1-1.2.178,1.886,1.886,0,0,1-2.119-2.1V-5.947H.068V-7.4h1.08V-9.215Z" transform="matrix(-0.177, 0.984, -0.984, -0.177, -4827.376, -7280.721)"/>
    <path id="Trazado_232278" data-name="Trazado 232278" d="M5.045,0a2.194,2.194,0,0,1-.2-.663,2.39,2.39,0,0,1-1.866.8,2.626,2.626,0,0,1-1.8-.629A2.023,2.023,0,0,1,.465-2.078a2.09,2.09,0,0,1,.872-1.8,4.3,4.3,0,0,1,2.519-.636h.909v-.424a1.219,1.219,0,0,0-.263-.82,1.035,1.035,0,0,0-.831-.308,1.177,1.177,0,0,0-.783.239.813.813,0,0,0-.284.656H.629a1.984,1.984,0,0,1,.4-1.189,2.621,2.621,0,0,1,1.121-.858,4.086,4.086,0,0,1,1.627-.311,3.228,3.228,0,0,1,2.17.687,2.4,2.4,0,0,1,.8,1.931v3.206A3.536,3.536,0,0,0,7.041-.116V0ZM3.411-1.374a1.7,1.7,0,0,0,.807-.195,1.28,1.28,0,0,0,.547-.523V-3.363H4.026q-1.483,0-1.579,1.025l-.007.116a.791.791,0,0,0,.26.608A1.009,1.009,0,0,0,3.411-1.374Z" transform="translate(-4828.233 -7275.607) rotate(104.754)"/>
    <path id="Trazado_232279" data-name="Trazado 232279" d="M4.915-5.544A5.367,5.367,0,0,0,4.2-5.6a1.447,1.447,0,0,0-1.47.759V0H.759V-7.4H2.625l.055.882A1.831,1.831,0,0,1,4.327-7.533a2.07,2.07,0,0,1,.615.089Z" transform="matrix(-0.331, 0.944, -0.944, -0.331, -4830.321, -7267.882)"/>
    <path id="Trazado_232256" data-name="Trazado 232256" d="M8.7-3.315A3.522,3.522,0,0,1,7.516-.786,4.165,4.165,0,0,1,4.7.137,3.745,3.745,0,0,1,1.685-1.152a5.284,5.284,0,0,1-1.1-3.538V-5.3a5.966,5.966,0,0,1,.506-2.529A3.791,3.791,0,0,1,2.54-9.505a4.05,4.05,0,0,1,2.184-.584A4.058,4.058,0,0,1,7.5-9.167,3.785,3.785,0,0,1,8.716-6.576H6.665a2.079,2.079,0,0,0-.537-1.4,1.987,1.987,0,0,0-1.4-.434,1.742,1.742,0,0,0-1.535.735,4.118,4.118,0,0,0-.523,2.28v.752a4.408,4.408,0,0,0,.489,2.358A1.71,1.71,0,0,0,4.7-1.538a2.025,2.025,0,0,0,1.418-.434,1.961,1.961,0,0,0,.537-1.343Z" transform="matrix(0.959, -0.282, 0.282, 0.959, -4938.973, -7371.284)"/>
    <path id="Trazado_232257" data-name="Trazado 232257" d="M.451-3.767A4.387,4.387,0,0,1,.875-5.729,3.1,3.1,0,0,1,2.1-7.062a3.56,3.56,0,0,1,1.849-.472,3.368,3.368,0,0,1,2.444.916A3.676,3.676,0,0,1,7.444-4.129l.014.506a3.866,3.866,0,0,1-.95,2.731A3.3,3.3,0,0,1,3.958.137,3.319,3.319,0,0,1,1.4-.889,3.934,3.934,0,0,1,.451-3.678Zm1.976.14a2.765,2.765,0,0,0,.4,1.612,1.308,1.308,0,0,0,1.135.558,1.311,1.311,0,0,0,1.121-.551,3.025,3.025,0,0,0,.4-1.763,2.737,2.737,0,0,0-.4-1.6A1.311,1.311,0,0,0,3.944-5.94a1.29,1.29,0,0,0-1.121.565A3.076,3.076,0,0,0,2.427-3.626Z" transform="matrix(0.984, -0.179, 0.179, 0.984, -4929.876, -7373.935)"/>
    <path id="Trazado_232258" data-name="Trazado 232258" d="M2.577-7.4l.062.854a2.582,2.582,0,0,1,2.126-.991,2.146,2.146,0,0,1,1.75.69A3.221,3.221,0,0,1,7.1-4.778V0H5.127V-4.741a1.287,1.287,0,0,0-.273-.915,1.222,1.222,0,0,0-.909-.284,1.359,1.359,0,0,0-1.251.713V0H.718V-7.4Z" transform="translate(-4921.587 -7375.451) rotate(-4.634)"/>
    <path id="Trazado_232259" data-name="Trazado 232259" d="M3.124-9.215V-7.4H4.389v1.449H3.124v3.691a.881.881,0,0,0,.157.588.79.79,0,0,0,.6.178,3.151,3.151,0,0,0,.581-.048v1.5a4.067,4.067,0,0,1-1.2.178,1.886,1.886,0,0,1-2.119-2.1V-5.947H.068V-7.4h1.08V-9.215Z" transform="matrix(1, -0.001, 0.001, 1, -4913.201, -7376.069)"/>
    <path id="Trazado_232260" data-name="Trazado 232260" d="M2.844,0H.861V-7.4H2.844ZM.745-9.311a.973.973,0,0,1,.3-.731,1.117,1.117,0,0,1,.81-.287,1.12,1.12,0,0,1,.807.287.967.967,0,0,1,.3.731.97.97,0,0,1-.3.738,1.122,1.122,0,0,1-.8.287,1.122,1.122,0,0,1-.8-.287A.97.97,0,0,1,.745-9.311Z" transform="translate(-4907.997 -7376.061) rotate(3.031)"/>
    <path id="Trazado_232261" data-name="Trazado 232261" d="M2.577-7.4l.062.854a2.582,2.582,0,0,1,2.126-.991,2.146,2.146,0,0,1,1.75.69A3.221,3.221,0,0,1,7.1-4.778V0H5.127V-4.741a1.287,1.287,0,0,0-.273-.915,1.222,1.222,0,0,0-.909-.284,1.359,1.359,0,0,0-1.251.713V0H.718V-7.4Z" transform="translate(-4904.046 -7375.936) rotate(7.212)"/>
    <path id="Trazado_232262" data-name="Trazado 232262" d="M5.188-.752A2.477,2.477,0,0,1,3.165.137,2.337,2.337,0,0,1,1.35-.547a2.918,2.918,0,0,1-.639-2V-7.4H2.687v4.784q0,1.157,1.053,1.157a1.426,1.426,0,0,0,1.381-.7V-7.4H7.1V0H5.243Z" transform="translate(-4895.707 -7374.887) rotate(12.896)"/>
    <path id="Trazado_232268" data-name="Trazado 232268" d="M5.045,0a2.194,2.194,0,0,1-.2-.663,2.39,2.39,0,0,1-1.866.8,2.626,2.626,0,0,1-1.8-.629A2.023,2.023,0,0,1,.465-2.078a2.09,2.09,0,0,1,.872-1.8,4.3,4.3,0,0,1,2.519-.636h.909v-.424a1.219,1.219,0,0,0-.263-.82,1.035,1.035,0,0,0-.831-.308,1.177,1.177,0,0,0-.783.239.813.813,0,0,0-.284.656H.629a1.984,1.984,0,0,1,.4-1.189,2.621,2.621,0,0,1,1.121-.858,4.086,4.086,0,0,1,1.627-.311,3.228,3.228,0,0,1,2.17.687,2.4,2.4,0,0,1,.8,1.931v3.206A3.536,3.536,0,0,0,7.041-.116V0ZM3.411-1.374a1.7,1.7,0,0,0,.807-.195,1.28,1.28,0,0,0,.547-.523V-3.363H4.026q-1.483,0-1.579,1.025l-.007.116a.791.791,0,0,0,.26.608A1.009,1.009,0,0,0,3.411-1.374Z" transform="translate(-4887.511 -7373.006) rotate(18.466)"/>
    <path id="Trazado_228862" data-name="Trazado 228862" d="M281.7,176.588l-2.367,2.382-2.382-2.367,2.367-2.382" transform="translate(-5357.444 -7463.162)" fill="url(#linear-gradient)"/>
    <path id="Trazado_228863" data-name="Trazado 228863" d="M237.23,132.733l4.683,4.653-2.367,2.382-4.682-4.653Zm-9.366-9.308,4.683,4.653-2.367,2.382-4.683-4.653Zm-9.365-9.308,4.683,4.653-2.367,2.383-4.683-4.654Zm-9.994-8.974a64.644,64.644,0,0,1,5.227,4.31l-2.269,2.476a61,61,0,0,0-4.955-4.086Zm-11.669-6.85a63.633,63.633,0,0,1,6.017,3.115l-1.7,2.9a60.277,60.277,0,0,0-5.7-2.951l1.384-3.06Zm-12.851-4.238a64.215,64.215,0,0,1,6.537,1.778l-1.051,3.189a60.675,60.675,0,0,0-6.2-1.685l.709-3.283ZM170.533,92.6a64.594,64.594,0,0,1,6.764.373l-.36,3.339a61.086,61.086,0,0,0-6.412-.353l.008-3.358Zm-13.461,1.383a64.7,64.7,0,0,1,6.694-1.045l.343,3.34a61.094,61.094,0,0,0-6.345.991l-.693-3.286ZM144.2,98.157a63.866,63.866,0,0,1,6.328-2.427l1.034,3.194a60.6,60.6,0,0,0-6,2.3Zm-11.708,6.793a64,64,0,0,1,5.673-3.708l1.685,2.9a60.564,60.564,0,0,0-5.375,3.513Zm-10.021,9.09q1.133-1.267,2.345-2.487,1.19-1.2,2.427-2.32l2.257,2.487q-1.174,1.064-2.3,2.2-1.15,1.157-2.224,2.358l-2.5-2.239Zm-7.912,10.976a63.738,63.738,0,0,1,3.666-5.7l2.723,1.964a60.7,60.7,0,0,0-3.473,5.4l-2.916-1.665Zm-5.422,12.4a63.75,63.75,0,0,1,2.382-6.343l3.077,1.346a60.207,60.207,0,0,0-2.257,6.01l-3.2-1.012Zm-2.7,13.259a64.444,64.444,0,0,1,1-6.7l3.291.668a61.187,61.187,0,0,0-.947,6.352l-3.343-.32Zm.129,13.531a64.816,64.816,0,0,1-.42-6.761l3.358-.033a61.07,61.07,0,0,0,.4,6.411l-3.336.384Zm2.952,13.207a64,64,0,0,1-1.824-6.526l3.277-.732a60.657,60.657,0,0,0,1.729,6.185l-3.182,1.074Zm5.663,12.294a63.511,63.511,0,0,1-3.159-6l3.05-1.4a60.389,60.389,0,0,0,2.993,5.681l-2.884,1.72Zm8.125,10.824a64.458,64.458,0,0,1-4.348-5.2l2.685-2.017a61.018,61.018,0,0,0,4.122,4.926Zm10.193,8.9a64.226,64.226,0,0,1-5.331-4.182l2.209-2.529a60.915,60.915,0,0,0,5.052,3.963l-1.93,2.748Zm11.834,6.563a63.757,63.757,0,0,1-6.092-2.967l1.628-2.937a60.23,60.23,0,0,0,5.771,2.81l-1.307,3.094Zm12.95,3.921a64.247,64.247,0,0,1-6.578-1.618l.973-3.215a60.71,60.71,0,0,0,6.234,1.533l-.629,3.3Zm13.484,1.125q-.7.015-1.4.015-2.689,0-5.371-.223l.279-3.346q2.541.212,5.093.212.664,0,1.327-.014l.073,3.357Zm13.423-1.71a64.276,64.276,0,0,1-6.667,1.208L178.1,217.2a60.724,60.724,0,0,0,6.319-1.145Zm12.77-4.486a63.787,63.787,0,0,1-6.266,2.582l-1.113-3.168a60.442,60.442,0,0,0,5.937-2.446ZM209.5,207.76a64.08,64.08,0,0,1-5.58,3.845l-1.756-2.862a60.473,60.473,0,0,0,5.287-3.644l2.049,2.66Zm9.847-9.109-3.425,3.446q-.632.637-1.279,1.252l-2.316-2.431q.613-.583,1.213-1.188l3.424-3.445,2.383,2.367Zm9.307-9.365L224,193.969l-2.382-2.367,4.653-4.683Zm9.308-9.366L233.3,184.6l-2.382-2.367,4.653-4.683Zm9.308-9.366-4.653,4.683-2.382-2.367,4.653-4.683Z" transform="translate(-5330.034 -7450.064)" fill="url(#linear-gradient-2)"/>
    <path id="Trazado_228864" data-name="Trazado 228864" d="M273.055,151.554l3.576,3.555-1.286,1.287-1.187-1.187,1.184-1.191.151.15,1.2,1.191-.154.154,1.184,1.184-2.375,2.375-3.566-3.566,1.345-1.338,1.184,1.191-1.184,1.191-.151-.15-1.194-1.187.1-.1-1.187-1.18,2.367-2.382Z" transform="translate(-5356.439 -7459.524)" fill="url(#linear-gradient-3)"/>
    <path id="Trazado_228865" data-name="Trazado 228865" d="M345.093,90.064l-4.722,4.723L338,92.413l4.723-4.723Zm9.446-9.446-4.723,4.723-2.374-2.374,4.722-4.723Zm9.445-9.445L359.262,75.9l-2.375-2.375L361.61,68.8Zm9.439-9.409q-.791.762-1.57,1.541l-3.146,3.145-2.374-2.374,3.145-3.146q.8-.8,1.614-1.584l2.331,2.418Zm9.969-8.593q-2.6,2-5.105,4.157L376.1,54.784q2.578-2.223,5.25-4.277l2.047,2.662Zm10.865-7.416q-2.807,1.691-5.537,3.555l-1.893-2.773q2.808-1.917,5.7-3.658l1.734,2.876Zm11.633-6.143q-2.983,1.365-5.9,2.906l-1.568-2.969q3-1.585,6.075-2.99Zm12.255-4.789q-3.122,1.021-6.2,2.221l-1.222-3.128q3.161-1.235,6.374-2.285Zm12.718-3.378q-3.22.664-6.406,1.51l-.862-3.246q3.277-.871,6.59-1.554Zm13.019-1.932q-3.277.3-6.537.783l-.493-3.322q3.351-.5,6.723-.806l.306,3.345Zm13.154-.466q-1.21-.024-2.42-.024-2.082,0-4.164.073l-.118-3.356q2.141-.076,4.282-.076,1.244,0,2.489.025l-.069,3.357Zm13.125,1.006q-3.265-.434-6.548-.686l.256-3.349q3.375.259,6.735.706l-.443,3.329Zm12.93,2.468q-3.2-.8-6.431-1.415l.63-3.3q3.323.633,6.615,1.456l-.813,3.258Zm12.571,3.9q-3.09-1.155-6.231-2.13l1-3.207q3.229,1,6.41,2.191l-1.175,3.146Zm12.05,5.3q-2.943-1.5-5.95-2.82l1.352-3.074q3.093,1.36,6.122,2.9l-1.524,2.993Zm11.374,6.627q-2.758-1.823-5.593-3.475l1.691-2.9q2.917,1.7,5.755,3.576Zm10.555,7.87q-2.539-2.124-5.166-4.083l2.007-2.692q2.7,2.016,5.314,4.2l-2.155,2.575Zm9.612,9q-.923-.966-1.872-1.914-1.386-1.388-2.808-2.718l2.3-2.451q1.461,1.369,2.888,2.795.975.976,1.924,1.969l-2.427,2.32Zm8.551,10q-1.985-2.6-4.136-5.121l2.553-2.183q2.211,2.588,4.255,5.269l-2.671,2.035Zm7.373,10.9q-1.68-2.813-3.532-5.552l2.78-1.882q1.905,2.816,3.634,5.712l-2.883,1.722Zm6.095,11.659q-1.354-2.99-2.883-5.916l2.976-1.556q1.574,3.01,2.966,6.087l-3.06,1.385Zm4.738,12.274q-1.009-3.126-2.2-6.2l3.133-1.21q1.221,3.166,2.259,6.384l-3.2,1.03Zm3.326,12.732q-.651-3.223-1.484-6.413l3.249-.849q.857,3.28,1.527,6.6Zm1.879,13.027q-.287-3.278-.756-6.54l3.324-.479q.484,3.355.778,6.727l-3.345.292Zm.412,13.157q.035-1.449.035-2.9,0-1.844-.057-3.686l3.356-.1q.059,1.9.059,3.791,0,1.491-.036,2.98l-3.357-.082Zm-1.06,13.121q.448-3.264.714-6.546l3.347.269q-.272,3.375-.734,6.733l-3.327-.457Zm-2.519,12.919q.811-3.195,1.441-6.424l3.3.642q-.649,3.321-1.483,6.609Zm-3.956,12.555q1.167-3.085,2.155-6.222l3.2,1.009q-1.016,3.225-2.217,6.4Zm-5.347,12.029q1.51-2.937,2.843-5.939l3.068,1.364q-1.371,3.088-2.926,6.11l-2.986-1.535Zm-6.675,11.346q1.836-2.75,3.5-5.579l2.895,1.7q-1.711,2.909-3.6,5.74ZM544.16,221.46q2.136-2.53,4.105-5.15l2.683,2.018q-2.025,2.695-4.222,5.3l-2.566-2.166Zm-9.037,9.576q1.141-1.083,2.26-2.2,1.218-1.216,2.391-2.46l2.441,2.3q-1.206,1.279-2.457,2.53-1.151,1.15-2.325,2.263l-2.31-2.436Zm-10.039,8.51q2.613-1.975,5.139-4.115l2.172,2.561q-2.6,2.2-5.286,4.233l-2.025-2.679Zm-10.926,7.328q2.822-1.67,5.567-3.51l1.87,2.789q-2.823,1.894-5.727,3.611Zm-11.684,6.046q3-1.341,5.928-2.858l1.543,2.982q-3.016,1.562-6.1,2.941Zm-12.294,4.688q3.131-.995,6.213-2.17l1.2,3.138q-3.17,1.209-6.392,2.232l-1.017-3.2Zm-12.746,3.275q3.225-.638,6.419-1.458l.836,3.252q-3.284.844-6.6,1.5ZM464.4,262.709q3.279-.273,6.543-.73l.466,3.325q-3.356.47-6.73.751l-.28-3.346Zm-13.158.358q1.687.048,3.375.048,1.6,0,3.209-.044l.092,3.357q-1.651.045-3.3.045-1.735,0-3.471-.05l.1-3.356Zm-13.117-1.112q3.263.462,6.543.74l-.284,3.346q-3.374-.286-6.73-.761l.47-3.325Zm-12.909-2.572q3.192.825,6.419,1.467l-.656,3.293q-3.318-.661-6.6-1.51l.84-3.251Zm-12.539-4.007q3.081,1.18,6.213,2.18l-1.023,3.2q-3.22-1.029-6.391-2.243l1.2-3.136Zm-12.006-5.4q2.93,1.522,5.927,2.869l-1.377,3.063q-3.081-1.385-6.1-2.952l1.548-2.98Zm-11.319-6.72q2.744,1.846,5.564,3.521l-1.714,2.887q-2.9-1.723-5.725-3.623l1.875-2.786ZM378.862,235.3q2.522,2.146,5.134,4.126l-2.029,2.676q-2.686-2.038-5.281-4.244Zm-9.614-9.074,2.606,2.605q1.046,1.048,2.113,2.062l-2.315,2.433q-1.1-1.044-2.173-2.12l-2.605-2.606,2.374-2.374Zm-9.446-9.446,4.723,4.723-2.374,2.374-4.723-4.723Zm-9.445-9.445,4.723,4.722-2.375,2.375-4.722-4.723Zm-9.446-9.446,4.723,4.723-2.374,2.374-4.723-4.722Zm-9.445-9.445,1.771,1.771,2.952,2.952-2.375,2.375-2.952-2.952-1.771-1.771,2.374-2.374ZM322.018,179l4.723,4.723-2.374,2.374-4.723-4.722Zm-9.445-9.445,4.723,4.722-2.375,2.375-4.722-4.723Zm-9.445-9.446,4.722,4.723-2.374,2.374-4.723-4.722Zm-9.446-9.445,4.723,4.722-2.375,2.375-4.722-4.723Zm-9.445-9.446,4.722,4.723-2.374,2.374-4.723-4.722Z" transform="translate(-5358.232 -7439.322)" fill="url(#linear-gradient-4)"/>
    <path id="Trazado_228866" data-name="Trazado 228866" d="M344.976,113.217l-2.374,2.374-2.375-2.375,2.374-2.374" transform="translate(-5367.599 -7452.991)" fill="url(#linear-gradient-5)"/>
    <path id="Trazado_228867" data-name="Trazado 228867" d="M387.547,160.538l2.374-2.374,2.375,2.375-2.374,2.374" transform="translate(-5375.193 -7460.585)" fill="url(#linear-gradient-6)"/>
    <path id="Trazado_228868" data-name="Trazado 228868" d="M504.29,100.728a64.36,64.36,0,0,1,6.024,3.832l-1.956,2.729a60.832,60.832,0,0,0-5.71-3.631Zm-13.144-5.537a63.632,63.632,0,0,1,6.728,2.4l-1.3,3.094a60.07,60.07,0,0,0-6.373-2.273l.949-3.221ZM477.1,92.721a63.517,63.517,0,0,1,7.095.84l-.582,3.308a59.983,59.983,0,0,0-6.72-.8Zm-14.242.7a65.53,65.53,0,0,1,7.1-.74l.166,3.354a62.217,62.217,0,0,0-6.737.7l-.53-3.316ZM449.1,97.207a64.5,64.5,0,0,1,6.772-2.273l.891,3.238a60.947,60.947,0,0,0-6.418,2.153Zm-12.579,6.732a63.769,63.769,0,0,1,6.1-3.72l1.584,2.961a60.232,60.232,0,0,0-5.779,3.523l-1.907-2.765Zm-10.759,9.267,1.795-1.8q1.617-1.617,3.319-3.094l2.2,2.535q-1.611,1.4-3.146,2.934l-1.8,1.795-2.374-2.374Zm-9.843,9.843,4.921-4.921,2.374,2.374-4.92,4.921Zm-9.843,9.842L411,127.97l2.375,2.374-4.921,4.921Zm-9.843,9.843,4.921-4.921,2.375,2.375-4.921,4.921Z" transform="translate(-5376.588 -7450.077)" fill="url(#linear-gradient-7)"/>
    <path id="Trazado_228869" data-name="Trazado 228869" d="M538.326,112.165q1.274,1.147,2.5,2.373t2.372,2.5l-2.5,2.245q-1.085-1.209-2.249-2.372t-2.373-2.252l2.246-2.5Z" transform="translate(-5399.03 -7453.203)" fill="url(#linear-gradient-8)"/>
    <path id="Trazado_228870" data-name="Trazado 228870" d="M553.292,193.121a63.662,63.662,0,0,1-3.858,6.108l-2.734-1.951a60.161,60.161,0,0,0,3.655-5.787l2.937,1.63Zm5.529-13.327a63.918,63.918,0,0,1-2.387,6.819l-3.1-1.287a60.593,60.593,0,0,0,2.263-6.462l3.226.929Zm2.416-14.222a64.756,64.756,0,0,1-.81,7.178l-3.31-.562a61.3,61.3,0,0,0,.767-6.807l3.353.191Zm-.8-14.406a64.173,64.173,0,0,1,.8,7.181l-3.353.186a60.88,60.88,0,0,0-.762-6.806Zm-4-13.866a63.776,63.776,0,0,1,2.392,6.819l-3.226.931a60.665,60.665,0,0,0-2.266-6.462l3.1-1.289Zm-7.01-12.615a63.906,63.906,0,0,1,3.863,6.109l-2.935,1.631a60.7,60.7,0,0,0-3.66-5.788l2.733-1.952Z" transform="translate(-5400.733 -7455.212)" fill="url(#linear-gradient-9)"/>
    <path id="Trazado_228871" data-name="Trazado 228871" d="M543.2,219.77q-1.147,1.274-2.373,2.5h0q-1.225,1.227-2.5,2.373l-2.246-2.5q1.208-1.088,2.371-2.251h0q1.164-1.164,2.251-2.372l2.5,2.246Z" transform="translate(-5399.03 -7470.111)" fill="url(#linear-gradient-10)"/>
    <path id="Trazado_228872" data-name="Trazado 228872" d="M381.21,170.387l-4.8-4.794,2.375-2.375,4.794,4.794Zm9.589,9.589L386,175.182l2.374-2.374,4.8,4.795Zm9.59,9.59-4.8-4.795,2.375-2.375,4.794,4.8Zm9.589,9.59-4.795-4.8,2.375-2.374,4.794,4.795Zm9.59,9.589-4.794-4.794,2.374-2.374,4.795,4.795Zm9.966,9.447a65.241,65.241,0,0,1-5.155-4.636l-.017-.016,2.375-2.375.016.017a61.981,61.981,0,0,0,4.889,4.4l-2.109,2.613Zm11.692,7.505a63.6,63.6,0,0,1-6.051-3.435l1.815-2.826a60.262,60.262,0,0,0,5.732,3.255l-1.5,3.006Zm13.044,4.8a63.541,63.541,0,0,1-6.653-2.042l1.159-3.152a60.319,60.319,0,0,0,6.3,1.933l-.808,3.26Zm13.775,1.853a63.4,63.4,0,0,1-6.938-.55l.447-3.328a60.265,60.265,0,0,0,6.573.521l-.081,3.356Zm13.846-1.142a65.447,65.447,0,0,1-6.892.939l-.275-3.347a61.9,61.9,0,0,0,6.538-.891l.63,3.3Zm13.291-4.062a64.25,64.25,0,0,1-6.536,2.391l-.981-3.212a60.759,60.759,0,0,0,6.194-2.265l1.323,3.086Zm12.1-6.845a63.185,63.185,0,0,1-5.863,3.755l-1.653-2.923a59.962,59.962,0,0,0,5.553-3.556l1.963,2.724Z" transform="translate(-5373.407 -7461.396)" fill="url(#linear-gradient-11)"/>
    <path id="Trazado_228873" data-name="Trazado 228873" d="M369.818,158.937l-3.558-3.558.15-.151-1.19-1.19,2.375-2.375,3.558,3.558-.15.151,1.19,1.19-2.374,2.375Z" transform="translate(-5371.61 -7459.542)" fill="url(#linear-gradient-12)"/>
    <path id="Trazado_228874" data-name="Trazado 228874" d="M339.3,128.115l-4.218-4.217,2.375-2.375,4.217,4.217Zm8.434,8.434-4.217-4.217,2.374-2.374,4.217,4.217Zm8.435,8.435-4.218-4.217,2.375-2.375,4.217,4.218Z" transform="translate(-5366.773 -7454.705)" fill="url(#linear-gradient-13)"/>
    <path id="Trazado_228875" data-name="Trazado 228875" d="M329.168,117.945l-3.557-3.557.109-.11-1.191-1.184,2.367-2.382,3.572,3.549-.116.117,1.191,1.191-2.374,2.375Z" transform="translate(-5365.08 -7452.97)" fill="url(#linear-gradient-14)"/>
    <path id="Trazado_228876" data-name="Trazado 228876" d="M269.014,202.063l4.714-4.743,2.382,2.367-4.714,4.742Zm-9.427,9.485,4.714-4.742,2.382,2.367-4.714,4.742Zm-9.427,9.486,4.713-4.742,2.382,2.367-4.713,4.742Zm-9.422,9.438q.961-.926,1.907-1.877l2.8-2.817,2.382,2.367-2.8,2.817q-.972.978-1.961,1.93l-2.328-2.42Zm-9.989,8.592q2.6-2,5.115-4.157l2.189,2.546q-2.584,2.223-5.261,4.276l-2.043-2.665Zm-10.886,7.412q2.812-1.69,5.548-3.552L227.3,245.7q-2.813,1.915-5.708,3.654l-1.73-2.878Zm-11.655,6.134q2.99-1.363,5.914-2.9l1.564,2.972q-3.008,1.583-6.086,2.985l-1.393-3.055Zm-12.275,4.776q3.127-1.018,6.206-2.215l1.217,3.13q-3.166,1.232-6.385,2.278l-1.038-3.194Zm-12.738,3.363q3.225-.66,6.416-1.5l.857,3.246q-3.282.866-6.6,1.545l-.672-3.289Zm-13.037,1.912q3.28-.295,6.546-.773l.487,3.323q-3.356.492-6.732.8l-.3-3.345Zm-13.17.442q1.318.03,2.639.03,1.977,0,3.953-.067l.112,3.356q-2.032.068-4.066.069-1.357,0-2.714-.031l.076-3.357Zm-13.138-1.032q3.268.442,6.554.7l-.263,3.348q-3.379-.266-6.741-.72l.45-3.328Zm-12.94-2.5q3.2.806,6.435,1.431l-.636,3.3q-3.325-.641-6.619-1.471l.82-3.257Zm-12.576-3.937q3.092,1.164,6.233,2.146l-1,3.205q-3.23-1.011-6.412-2.208l1.183-3.143Zm-12.051-5.332q2.943,1.506,5.95,2.837l-1.358,3.071q-3.093-1.369-6.123-2.919l1.531-2.989Zm-11.37-6.664q2.757,1.834,5.59,3.493l-1.7,2.9q-2.915-1.708-5.752-3.594l1.86-2.8Zm-10.547-7.906q2.536,2.134,5.162,4.1l-2.015,2.687q-2.7-2.025-5.31-4.219l2.163-2.57Zm-9.6-9.034q1.155,1.215,2.351,2.4l-1.184,1.19v-1.679h.693l.491.489q1.15,1.141,2.321,2.245l-2.3,2.446q-1.205-1.135-2.386-2.309l1.183-1.191v1.679H75.24l-.491-.488q-1.23-1.223-2.419-2.472l2.434-2.315Zm-8.534-10.039q1.981,2.614,4.127,5.14L67.8,223.978q-2.208-2.6-4.245-5.286Zm-7.348-10.93q1.675,2.823,3.52,5.569l-2.787,1.873q-1.9-2.823-3.621-5.729l2.888-1.713Zm-6.065-11.69q1.345,3,2.867,5.931L52.7,201.521q-1.565-3.017-2.949-6.1l3.063-1.374Zm-4.7-12.3q1,3.133,2.178,6.218l-3.136,1.2q-1.214-3.173-2.241-6.4l3.2-1.02Zm-3.288-12.757q.64,3.229,1.464,6.425l-3.252.838q-.846-3.287-1.506-6.61ZM42.99,155.934q.275,3.283.735,6.55l-3.325.468q-.472-3.36-.756-6.737l3.346-.281Zm-.365-13.172q-.048,1.664-.047,3.328,0,1.632.045,3.263l-3.357.093q-.047-1.677-.046-3.356,0-1.711.048-3.423l3.357.095Zm1.109-13.132q-.462,3.265-.739,6.55l-3.346-.282q.286-3.377.76-6.738l3.325.47ZM46.306,116.7q-.825,3.2-1.468,6.427l-3.293-.656q.661-3.322,1.51-6.61l3.251.84Zm4.01-12.553q-1.181,3.085-2.183,6.22l-3.2-1.022q1.03-3.224,2.245-6.4l3.136,1.2Zm5.4-12.019q-1.525,2.934-2.872,5.933l-3.063-1.377q1.388-3.084,2.956-6.1l2.979,1.548ZM62.45,80.8q-1.849,2.746-3.526,5.57l-2.887-1.715q1.725-2.9,3.628-5.731Zm7.968-10.5q-2.15,2.524-4.132,5.138l-2.675-2.03q2.04-2.689,4.25-5.286L70.418,70.3Zm9.09-9.547q-1.471,1.383-2.9,2.824-.9.9-1.773,1.823L72.4,63.084q.9-.943,1.823-1.873,1.473-1.483,2.985-2.9l2.3,2.446ZM89.6,52.28q-2.626,1.964-5.163,4.1L82.273,53.8q2.609-2.192,5.311-4.214L89.6,52.28ZM100.569,45q-2.832,1.657-5.59,3.487l-1.857-2.8Q95.957,43.8,98.873,42.1l1.7,2.9ZM112.3,39q-3,1.327-5.948,2.832l-1.529-2.99q3.026-1.548,6.12-2.913L112.3,39Zm12.332-4.632q-3.139.981-6.232,2.142l-1.18-3.144q3.18-1.194,6.411-2.2l1,3.205ZM137.4,31.156q-3.233.622-6.434,1.426l-.819-3.257q3.292-.827,6.619-1.467l.634,3.3Zm13.059-1.76q-3.284.257-6.554.7l-.448-3.328q3.361-.453,6.741-.717l.261,3.348Zm13.175-.288q-2.007-.069-4.016-.069-1.288,0-2.576.029l-.073-3.357q1.324-.029,2.649-.029,2.065,0,4.13.071Zm13.125,1.185q-3.264-.48-6.546-.777l.3-3.345q3.374.3,6.732.8l-.489,3.322Zm12.909,2.649q-3.191-.845-6.417-1.506l.675-3.289q3.317.68,6.6,1.549l-.859,3.246Zm12.53,4.083q-3.078-1.2-6.207-2.219l1.041-3.193q3.217,1.049,6.385,2.283L202.2,37.025ZM214.189,42.5q-2.925-1.543-5.916-2.907l1.394-3.055q3.076,1.405,6.087,2.991L214.189,42.5Zm11.291,6.8q-2.735-1.865-5.549-3.559l1.732-2.877q2.9,1.743,5.71,3.662Zm10.454,8.03q-2.511-2.165-5.114-4.162l2.046-2.663q2.676,2.055,5.26,4.281l-2.192,2.545Zm9.609,9.126-3.408-3.387q-.66-.655-1.326-1.3l2.33-2.419q.686.66,1.363,1.334l3.408,3.387-2.367,2.382Zm9.486,9.427-4.743-4.713,2.367-2.383,4.742,4.714Zm9.486,9.428-4.743-4.714,2.367-2.382,4.742,4.713ZM274,94.735l-4.743-4.714,2.367-2.382,4.742,4.714Z" transform="translate(-5319.294 -7439.324)" fill="url(#linear-gradient-15)"/>
    <path id="Trazado_228877" data-name="Trazado 228877" d="M324.27,223.924l2.367-2.382,2.382,2.367-2.367,2.382" transform="translate(-5365.039 -7470.756)" fill="url(#linear-gradient-16)"/>
    <path id="Trazado_228878" data-name="Trazado 228878" d="M287.792,169.207h0l.15-.15-.15-.151-.15.151.15.15h0l-.15-.15.15-.151.15.151-.15.15Z" transform="translate(-5359.161 -7462.309)" fill="url(#linear-gradient-17)"/>
    <path id="Trazado_228879" data-name="Trazado 228879" d="M382.433,169.207h0l.15-.15-.15-.151-.15.151.15.15h0l-.15-.15.15-.151.15.151-.15.15Z" transform="translate(-5374.348 -7462.309)" fill="url(#linear-gradient-18)"/>
    <path id="Trazado_232173" data-name="Trazado 232173" d="M0,0H561.695V284.74H0Z" transform="translate(-5313 -7435.203)" fill="none"/>
    <path id="Trazado_232218" data-name="Trazado 232218" d="M8.7-3.315A3.522,3.522,0,0,1,7.516-.786,4.165,4.165,0,0,1,4.7.137,3.745,3.745,0,0,1,1.685-1.152a5.284,5.284,0,0,1-1.1-3.538V-5.3a5.966,5.966,0,0,1,.506-2.529A3.791,3.791,0,0,1,2.54-9.505a4.05,4.05,0,0,1,2.184-.584A4.058,4.058,0,0,1,7.5-9.167,3.785,3.785,0,0,1,8.716-6.576H6.665a2.079,2.079,0,0,0-.537-1.4,1.987,1.987,0,0,0-1.4-.434,1.742,1.742,0,0,0-1.535.735,4.118,4.118,0,0,0-.523,2.28v.752a4.408,4.408,0,0,0,.489,2.358A1.71,1.71,0,0,0,4.7-1.538a2.025,2.025,0,0,0,1.418-.434,1.961,1.961,0,0,0,.537-1.343Z" transform="translate(-5269.624 -7202.636) rotate(-127.022)"/>
    <path id="Trazado_232219" data-name="Trazado 232219" d="M.451-3.767A4.387,4.387,0,0,1,.875-5.729,3.1,3.1,0,0,1,2.1-7.062a3.56,3.56,0,0,1,1.849-.472,3.368,3.368,0,0,1,2.444.916A3.676,3.676,0,0,1,7.444-4.129l.014.506a3.866,3.866,0,0,1-.95,2.731A3.3,3.3,0,0,1,3.958.137,3.319,3.319,0,0,1,1.4-.889,3.934,3.934,0,0,1,.451-3.678Zm1.976.14a2.765,2.765,0,0,0,.4,1.612,1.308,1.308,0,0,0,1.135.558,1.311,1.311,0,0,0,1.121-.551,3.025,3.025,0,0,0,.4-1.763,2.737,2.737,0,0,0-.4-1.6A1.311,1.311,0,0,0,3.944-5.94a1.29,1.29,0,0,0-1.121.565A3.076,3.076,0,0,0,2.427-3.626Z" transform="translate(-5275.355 -7210.261) rotate(-123.424)"/>
    <path id="Trazado_232220" data-name="Trazado 232220" d="M2.611-7.4l.062.827A2.6,2.6,0,0,1,4.8-7.533,1.973,1.973,0,0,1,6.761-6.405,2.54,2.54,0,0,1,8.982-7.533a2.206,2.206,0,0,1,1.791.7,3.221,3.221,0,0,1,.588,2.109V0H9.379V-4.728a1.414,1.414,0,0,0-.246-.922,1.089,1.089,0,0,0-.868-.291,1.233,1.233,0,0,0-1.23.85L7.041,0H5.065V-4.721a1.4,1.4,0,0,0-.253-.932,1.1,1.1,0,0,0-.861-.288,1.28,1.28,0,0,0-1.217.7V0H.759V-7.4Z" transform="translate(-5280.082 -7217.258) rotate(-119.123)"/>
    <path id="Trazado_232221" data-name="Trazado 232221" d="M5.188-.752A2.477,2.477,0,0,1,3.165.137,2.337,2.337,0,0,1,1.35-.547a2.918,2.918,0,0,1-.639-2V-7.4H2.687v4.784q0,1.157,1.053,1.157a1.426,1.426,0,0,0,1.381-.7V-7.4H7.1V0H5.243Z" transform="translate(-5286.335 -7228.653) rotate(-114.813)"/>
    <path id="Trazado_232222" data-name="Trazado 232222" d="M2.577-7.4l.062.854a2.582,2.582,0,0,1,2.126-.991,2.146,2.146,0,0,1,1.75.69A3.221,3.221,0,0,1,7.1-4.778V0H5.127V-4.741a1.287,1.287,0,0,0-.273-.915,1.222,1.222,0,0,0-.909-.284,1.359,1.359,0,0,0-1.251.713V0H.718V-7.4Z" transform="translate(-5289.888 -7236.334) rotate(-111.416)"/>
    <path id="Trazado_232195" data-name="Trazado 232195" d="M2.844,0H.861V-7.4H2.844ZM.745-9.311a.973.973,0,0,1,.3-.731,1.117,1.117,0,0,1,.81-.287,1.12,1.12,0,0,1,.807.287.967.967,0,0,1,.3.731.97.97,0,0,1-.3.738,1.122,1.122,0,0,1-.8.287,1.122,1.122,0,0,1-.8-.287A.97.97,0,0,1,.745-9.311Z" transform="matrix(-0.324, -0.946, 0.946, -0.324, -5292.934, -7244.23)"/>
    <path id="Trazado_232196" data-name="Trazado 232196" d="M3.835-1.456a1.3,1.3,0,0,0,.889-.3,1.054,1.054,0,0,0,.355-.8H6.932a2.534,2.534,0,0,1-.41,1.377,2.706,2.706,0,0,1-1.1.971A3.455,3.455,0,0,1,3.869.137a3.211,3.211,0,0,1-2.5-1.008A3.99,3.99,0,0,1,.451-3.657v-.13A3.944,3.944,0,0,1,1.36-6.515a3.174,3.174,0,0,1,2.5-1.019,3.111,3.111,0,0,1,2.225.79,2.8,2.8,0,0,1,.851,2.1H5.079a1.358,1.358,0,0,0-.355-.938,1.185,1.185,0,0,0-.9-.361,1.19,1.19,0,0,0-1.042.5A2.916,2.916,0,0,0,2.427-3.8V-3.6a2.953,2.953,0,0,0,.349,1.643A1.2,1.2,0,0,0,3.835-1.456Z" transform="matrix(-0.285, -0.958, 0.958, -0.285, -5294.266, -7247.995)"/>
    <path id="Trazado_232197" data-name="Trazado 232197" d="M5.045,0a2.194,2.194,0,0,1-.2-.663,2.39,2.39,0,0,1-1.866.8,2.626,2.626,0,0,1-1.8-.629A2.023,2.023,0,0,1,.465-2.078a2.09,2.09,0,0,1,.872-1.8,4.3,4.3,0,0,1,2.519-.636h.909v-.424a1.219,1.219,0,0,0-.263-.82,1.035,1.035,0,0,0-.831-.308,1.177,1.177,0,0,0-.783.239.813.813,0,0,0-.284.656H.629a1.984,1.984,0,0,1,.4-1.189,2.621,2.621,0,0,1,1.121-.858,4.086,4.086,0,0,1,1.627-.311,3.228,3.228,0,0,1,2.17.687,2.4,2.4,0,0,1,.8,1.931v3.206A3.536,3.536,0,0,0,7.041-.116V0ZM3.411-1.374a1.7,1.7,0,0,0,.807-.195,1.28,1.28,0,0,0,.547-.523V-3.363H4.026q-1.483,0-1.579,1.025l-.007.116a.791.791,0,0,0,.26.608A1.009,1.009,0,0,0,3.411-1.374Z" transform="translate(-5296.477 -7255.399) rotate(-103.425)"/>
    <path id="Trazado_232198" data-name="Trazado 232198" d="M3.835-1.456a1.3,1.3,0,0,0,.889-.3,1.054,1.054,0,0,0,.355-.8H6.932a2.534,2.534,0,0,1-.41,1.377,2.706,2.706,0,0,1-1.1.971A3.455,3.455,0,0,1,3.869.137a3.211,3.211,0,0,1-2.5-1.008A3.99,3.99,0,0,1,.451-3.657v-.13A3.944,3.944,0,0,1,1.36-6.515a3.174,3.174,0,0,1,2.5-1.019,3.111,3.111,0,0,1,2.225.79,2.8,2.8,0,0,1,.851,2.1H5.079a1.358,1.358,0,0,0-.355-.938,1.185,1.185,0,0,0-.9-.361,1.19,1.19,0,0,0-1.042.5A2.916,2.916,0,0,0,2.427-3.8V-3.6a2.953,2.953,0,0,0,.349,1.643A1.2,1.2,0,0,0,3.835-1.456Z" transform="matrix(-0.178, -0.984, 0.984, -0.178, -5298.344, -7263.238)"/>
    <path id="Trazado_232199" data-name="Trazado 232199" d="M2.844,0H.861V-7.4H2.844ZM.745-9.311a.973.973,0,0,1,.3-.731,1.117,1.117,0,0,1,.81-.287,1.12,1.12,0,0,1,.807.287.967.967,0,0,1,.3.731.97.97,0,0,1-.3.738,1.122,1.122,0,0,1-.8.287,1.122,1.122,0,0,1-.8-.287A.97.97,0,0,1,.745-9.311Z" transform="translate(-5299.688 -7270.855) rotate(-97.951)"/>
    <path id="Trazado_232200" data-name="Trazado 232200" d="M.451-3.767A4.387,4.387,0,0,1,.875-5.729,3.1,3.1,0,0,1,2.1-7.062a3.56,3.56,0,0,1,1.849-.472,3.368,3.368,0,0,1,2.444.916A3.676,3.676,0,0,1,7.444-4.129l.014.506a3.866,3.866,0,0,1-.95,2.731A3.3,3.3,0,0,1,3.958.137,3.319,3.319,0,0,1,1.4-.889,3.934,3.934,0,0,1,.451-3.678Zm1.976.14a2.765,2.765,0,0,0,.4,1.612,1.308,1.308,0,0,0,1.135.558,1.311,1.311,0,0,0,1.121-.551,3.025,3.025,0,0,0,.4-1.763,2.737,2.737,0,0,0-.4-1.6A1.311,1.311,0,0,0,3.944-5.94a1.29,1.29,0,0,0-1.121.565A3.076,3.076,0,0,0,2.427-3.626ZM4.334-10.5H6.487L4.594-8.381H2.987Z" transform="matrix(-0.095, -0.995, 0.995, -0.095, -5300.289, -7274.793)"/>
    <path id="Trazado_232201" data-name="Trazado 232201" d="M2.577-7.4l.062.854a2.582,2.582,0,0,1,2.126-.991,2.146,2.146,0,0,1,1.75.69A3.221,3.221,0,0,1,7.1-4.778V0H5.127V-4.741a1.287,1.287,0,0,0-.273-.915,1.222,1.222,0,0,0-.909-.284,1.359,1.359,0,0,0-1.251.713V0H.718V-7.4Z" transform="translate(-5301.098 -7283.214) rotate(-92.124)"/>
    <path id="Trazado_232202" data-name="Trazado 232202" transform="matrix(0.005, -1, 1, 0.005, -5301.363, -7291.678)"/>
    <path id="Trazado_232203" data-name="Trazado 232203" d="M4.163.137a3.631,3.631,0,0,1-2.649-1A3.548,3.548,0,0,1,.492-3.521v-.191A4.468,4.468,0,0,1,.923-5.7a3.161,3.161,0,0,1,1.22-1.354,3.425,3.425,0,0,1,1.8-.475,3.07,3.07,0,0,1,2.389.957,3.889,3.889,0,0,1,.872,2.714v.807H2.5a1.835,1.835,0,0,0,.578,1.162,1.746,1.746,0,0,0,1.22.438,2.132,2.132,0,0,0,1.784-.827L7.048-1.2a2.966,2.966,0,0,1-1.2.981A3.947,3.947,0,0,1,4.163.137ZM3.938-5.94a1.234,1.234,0,0,0-.954.4A2.062,2.062,0,0,0,2.516-4.4H5.264V-4.56a1.471,1.471,0,0,0-.355-1.02A1.274,1.274,0,0,0,3.938-5.94Z" transform="translate(-5301.387 -7295.399) rotate(-87.417)"/>
    <path id="Trazado_232204" data-name="Trazado 232204" d="M2.577-7.4l.062.854a2.582,2.582,0,0,1,2.126-.991,2.146,2.146,0,0,1,1.75.69A3.221,3.221,0,0,1,7.1-4.778V0H5.127V-4.741a1.287,1.287,0,0,0-.273-.915,1.222,1.222,0,0,0-.909-.284,1.359,1.359,0,0,0-1.251.713V0H.718V-7.4Z" transform="translate(-5301.045 -7303.216) rotate(-84.19)"/>
    <path id="Trazado_232205" data-name="Trazado 232205" transform="matrix(0.143, -0.99, 0.99, 0.143, -5300.138, -7311.644)"/>
    <path id="Trazado_232206" data-name="Trazado 232206" d="M3.124-9.215V-7.4H4.389v1.449H3.124v3.691a.881.881,0,0,0,.157.588.79.79,0,0,0,.6.178,3.151,3.151,0,0,0,.581-.048v1.5a4.067,4.067,0,0,1-1.2.178,1.886,1.886,0,0,1-2.119-2.1V-5.947H.068V-7.4h1.08V-9.215Z" transform="translate(-5299.616 -7315.339) rotate(-79.988)"/>
    <path id="Trazado_232207" data-name="Trazado 232207" d="M2.844,0H.861V-7.4H2.844ZM.745-9.311a.973.973,0,0,1,.3-.731,1.117,1.117,0,0,1,.81-.287,1.12,1.12,0,0,1,.807.287.967.967,0,0,1,.3.731.97.97,0,0,1-.3.738,1.122,1.122,0,0,1-.8.287,1.122,1.122,0,0,1-.8-.287A.97.97,0,0,1,.745-9.311Z" transform="translate(-5298.697 -7320.49) rotate(-78.149)"/>
    <path id="Trazado_232208" data-name="Trazado 232208" d="M4.163.137a3.631,3.631,0,0,1-2.649-1A3.548,3.548,0,0,1,.492-3.521v-.191A4.468,4.468,0,0,1,.923-5.7a3.161,3.161,0,0,1,1.22-1.354,3.425,3.425,0,0,1,1.8-.475,3.07,3.07,0,0,1,2.389.957,3.889,3.889,0,0,1,.872,2.714v.807H2.5a1.835,1.835,0,0,0,.578,1.162,1.746,1.746,0,0,0,1.22.438,2.132,2.132,0,0,0,1.784-.827L7.048-1.2a2.966,2.966,0,0,1-1.2.981A3.947,3.947,0,0,1,4.163.137ZM3.938-5.94a1.234,1.234,0,0,0-.954.4A2.062,2.062,0,0,0,2.516-4.4H5.264V-4.56a1.471,1.471,0,0,0-.355-1.02A1.274,1.274,0,0,0,3.938-5.94Z" transform="translate(-5297.922 -7324.381) rotate(-75.797)"/>
    <path id="Trazado_232174" data-name="Trazado 232174" d="M0,0H561.695V284.74H0Z" transform="translate(-5313 -7435.203)" fill="none"/>
    <path id="Trazado_232209" data-name="Trazado 232209" d="M2.611-7.4l.062.827A2.6,2.6,0,0,1,4.8-7.533,1.973,1.973,0,0,1,6.761-6.405,2.54,2.54,0,0,1,8.982-7.533a2.206,2.206,0,0,1,1.791.7,3.221,3.221,0,0,1,.588,2.109V0H9.379V-4.728a1.414,1.414,0,0,0-.246-.922,1.089,1.089,0,0,0-.868-.291,1.233,1.233,0,0,0-1.23.85L7.041,0H5.065V-4.721a1.4,1.4,0,0,0-.253-.932,1.1,1.1,0,0,0-.861-.288,1.28,1.28,0,0,0-1.217.7V0H.759V-7.4Z" transform="matrix(0.315, -0.949, 0.949, 0.315, -5296.095, -7331.996)"/>
    <path id="Trazado_232210" data-name="Trazado 232210" d="M7.417-3.63A4.436,4.436,0,0,1,6.641-.892,2.488,2.488,0,0,1,4.546.137,2.3,2.3,0,0,1,2.734-.643V2.844H.759V-7.4H2.591l.068.725a2.322,2.322,0,0,1,1.873-.861A2.5,2.5,0,0,1,6.658-6.521a4.556,4.556,0,0,1,.759,2.789ZM5.441-3.78a2.927,2.927,0,0,0-.366-1.6A1.19,1.19,0,0,0,4.013-5.94a1.293,1.293,0,0,0-1.278.713V-2.19a1.315,1.315,0,0,0,1.292.734Q5.441-1.456,5.441-3.78Z" transform="matrix(0.385, -0.923, 0.923, 0.385, -5291.929, -7344.289)"/>
    <path id="Trazado_232211" data-name="Trazado 232211" d="M.451-3.767A4.387,4.387,0,0,1,.875-5.729,3.1,3.1,0,0,1,2.1-7.062a3.56,3.56,0,0,1,1.849-.472,3.368,3.368,0,0,1,2.444.916A3.676,3.676,0,0,1,7.444-4.129l.014.506a3.866,3.866,0,0,1-.95,2.731A3.3,3.3,0,0,1,3.958.137,3.319,3.319,0,0,1,1.4-.889,3.934,3.934,0,0,1,.451-3.678Zm1.976.14a2.765,2.765,0,0,0,.4,1.612,1.308,1.308,0,0,0,1.135.558,1.311,1.311,0,0,0,1.121-.551,3.025,3.025,0,0,0,.4-1.763,2.737,2.737,0,0,0-.4-1.6A1.311,1.311,0,0,0,3.944-5.94a1.29,1.29,0,0,0-1.121.565A3.076,3.076,0,0,0,2.427-3.626Z" transform="translate(-5288.675 -7352.091) rotate(-63.95)"/>
    <path id="Trazado_232212" data-name="Trazado 232212" transform="matrix(0.477, -0.879, 0.879, 0.477, -5284.908, -7359.685)"/>
    <path id="Trazado_232213" data-name="Trazado 232213" d="M4.915-5.544A5.367,5.367,0,0,0,4.2-5.6a1.447,1.447,0,0,0-1.47.759V0H.759V-7.4H2.625l.055.882A1.831,1.831,0,0,1,4.327-7.533a2.07,2.07,0,0,1,.615.089Z" transform="translate(-5283.136 -7362.976) rotate(-59.685)"/>
    <path id="Trazado_232214" data-name="Trazado 232214" d="M4.163.137a3.631,3.631,0,0,1-2.649-1A3.548,3.548,0,0,1,.492-3.521v-.191A4.468,4.468,0,0,1,.923-5.7a3.161,3.161,0,0,1,1.22-1.354,3.425,3.425,0,0,1,1.8-.475,3.07,3.07,0,0,1,2.389.957,3.889,3.889,0,0,1,.872,2.714v.807H2.5a1.835,1.835,0,0,0,.578,1.162,1.746,1.746,0,0,0,1.22.438,2.132,2.132,0,0,0,1.784-.827L7.048-1.2a2.966,2.966,0,0,1-1.2.981A3.947,3.947,0,0,1,4.163.137ZM3.938-5.94a1.234,1.234,0,0,0-.954.4A2.062,2.062,0,0,0,2.516-4.4H5.264V-4.56a1.471,1.471,0,0,0-.355-1.02A1.274,1.274,0,0,0,3.938-5.94Z" transform="translate(-5280.584 -7367.406) rotate(-57.114)"/>
    <path id="Trazado_232215" data-name="Trazado 232215" d="M5.045,0a2.194,2.194,0,0,1-.2-.663,2.39,2.39,0,0,1-1.866.8,2.626,2.626,0,0,1-1.8-.629A2.023,2.023,0,0,1,.465-2.078a2.09,2.09,0,0,1,.872-1.8,4.3,4.3,0,0,1,2.519-.636h.909v-.424a1.219,1.219,0,0,0-.263-.82,1.035,1.035,0,0,0-.831-.308,1.177,1.177,0,0,0-.783.239.813.813,0,0,0-.284.656H.629a1.984,1.984,0,0,1,.4-1.189,2.621,2.621,0,0,1,1.121-.858,4.086,4.086,0,0,1,1.627-.311,3.228,3.228,0,0,1,2.17.687,2.4,2.4,0,0,1,.8,1.931v3.206A3.536,3.536,0,0,0,7.041-.116V0ZM3.411-1.374a1.7,1.7,0,0,0,.807-.195,1.28,1.28,0,0,0,.547-.523V-3.363H4.026q-1.483,0-1.579,1.025l-.007.116a.791.791,0,0,0,.26.608A1.009,1.009,0,0,0,3.411-1.374Z" transform="translate(-5276.336 -7373.985) rotate(-53.935)"/>
    <path id="Trazado_232216" data-name="Trazado 232216" d="M2.844,0H.861V-10.5H2.844Z" transform="translate(-5271.54 -7380.499) rotate(-51.522)"/>
    <path id="Trazado_232223" data-name="Trazado 232223" d="M6.9-4.136H3.083L2.256,0H.287L2.276-9.953H8.709L8.4-8.415H3.938L3.391-5.674H7.205Z" transform="translate(-5081.74 -7339.692) rotate(45)"/>
    <path id="Trazado_232224" data-name="Trazado 232224" d="M3.315.144A2.577,2.577,0,0,1,1.1-.889a3.3,3.3,0,0,1-.5-2.6L.643-3.76A4.946,4.946,0,0,1,1.917-6.508,3.252,3.252,0,0,1,4.361-7.533a2.3,2.3,0,0,1,2.01.913,3.207,3.207,0,0,1,.41,2.43L6.61-3.1H2.522a1.966,1.966,0,0,0,.253,1.246,1.1,1.1,0,0,0,.991.463,3.466,3.466,0,0,0,1.019-.137,5.405,5.405,0,0,0,.964-.417L6.084-.715a4.124,4.124,0,0,1-1.2.611A4.848,4.848,0,0,1,3.315.144ZM4.115-6a1.019,1.019,0,0,0-.81.427,2.841,2.841,0,0,0-.516,1.111l.014.034H4.895L4.922-4.6a1.707,1.707,0,0,0-.085-1.029A.734.734,0,0,0,4.115-6Z" transform="translate(-5075.906 -7333.858) rotate(45)"/>
    <path id="Trazado_232225" data-name="Trazado 232225" d="M3.315.144A2.577,2.577,0,0,1,1.1-.889a3.3,3.3,0,0,1-.5-2.6L.643-3.76A4.946,4.946,0,0,1,1.917-6.508,3.252,3.252,0,0,1,4.361-7.533a2.3,2.3,0,0,1,2.01.913,3.207,3.207,0,0,1,.41,2.43L6.61-3.1H2.522a1.966,1.966,0,0,0,.253,1.246,1.1,1.1,0,0,0,.991.463,3.466,3.466,0,0,0,1.019-.137,5.405,5.405,0,0,0,.964-.417L6.084-.715a4.124,4.124,0,0,1-1.2.611A4.848,4.848,0,0,1,3.315.144ZM4.115-6a1.019,1.019,0,0,0-.81.427,2.841,2.841,0,0,0-.516,1.111l.014.034H4.895L4.922-4.6a1.707,1.707,0,0,0-.085-1.029A.734.734,0,0,0,4.115-6Z" transform="translate(-5070.321 -7328.273) rotate(45)"/>
    <path id="Trazado_232226" data-name="Trazado 232226" d="M.6-3.773A6.1,6.1,0,0,1,1.8-6.586a2.674,2.674,0,0,1,2.119-.947A1.876,1.876,0,0,1,4.8-7.32a1.975,1.975,0,0,1,.687.6l.786-3.944H8.251L6.118,0H4.409L4.43-.724a3.008,3.008,0,0,1-.848.644,2.112,2.112,0,0,1-.95.224A1.918,1.918,0,0,1,.848-.943,3.885,3.885,0,0,1,.574-3.63Zm1.941.144a3.533,3.533,0,0,0-.034,1.644.787.787,0,0,0,.841.591A1.179,1.179,0,0,0,4.006-1.6a2.152,2.152,0,0,0,.574-.578l.643-3.232a.918.918,0,0,0-.376-.433A1.192,1.192,0,0,0,4.225-6a1.238,1.238,0,0,0-1.032.6,4.2,4.2,0,0,0-.622,1.62Z" transform="translate(-5064.738 -7322.69) rotate(45)"/>
    <path id="Trazado_232227" data-name="Trazado 232227" d="M7.082-3.356A5.524,5.524,0,0,1,5.944-.725,2.7,2.7,0,0,1,3.835.144a1.919,1.919,0,0,1-.988-.254A1.952,1.952,0,0,1,2.14-.839L1.839,0H.137L2.27-10.664H4.231L3.459-6.822a2.869,2.869,0,0,1,.772-.525A2.075,2.075,0,0,1,5.1-7.533,1.869,1.869,0,0,1,6.891-6.378,4.5,4.5,0,0,1,7.109-3.5ZM5.147-3.5a4.573,4.573,0,0,0,.079-1.833A.778.778,0,0,0,4.389-6a1.162,1.162,0,0,0-.69.23,2.2,2.2,0,0,0-.574.636l-.643,3.2a.781.781,0,0,0,.376.4,1.509,1.509,0,0,0,.677.131,1.2,1.2,0,0,0,1.019-.5A3.718,3.718,0,0,0,5.12-3.354Z" transform="translate(-5058.706 -7316.659) rotate(45)"/>
    <path id="Trazado_232228" data-name="Trazado 232228" d="M4.143,0a4.122,4.122,0,0,1-.062-.424q-.021-.219-.021-.444a3.473,3.473,0,0,1-.909.731,2.207,2.207,0,0,1-1.087.28A1.789,1.789,0,0,1,.608-.472,1.825,1.825,0,0,1,.3-2.085,2.543,2.543,0,0,1,1.4-3.8a4.377,4.377,0,0,1,2.4-.564h.889l.116-.588A1.17,1.17,0,0,0,4.737-5.8a.72.72,0,0,0-.656-.277,1.034,1.034,0,0,0-.684.239,1.063,1.063,0,0,0-.362.649L1.142-5.2l-.014-.041A2.447,2.447,0,0,1,2.222-6.887,3.891,3.891,0,0,1,4.5-7.533a2.492,2.492,0,0,1,1.849.684,2,2,0,0,1,.441,1.907L6.173-1.887a5.63,5.63,0,0,0-.126,1A4.723,4.723,0,0,0,6.111,0ZM2.9-1.333a1.529,1.529,0,0,0,.714-.188,1.988,1.988,0,0,0,.6-.468L4.464-3.24H3.575a1.239,1.239,0,0,0-.861.321,1.34,1.34,0,0,0-.437.766.726.726,0,0,0,.082.608A.641.641,0,0,0,2.9-1.333Z" transform="translate(-5052.679 -7310.632) rotate(45)"/>
    <path id="Trazado_232229" data-name="Trazado 232229" d="M3.384-1.395A1.094,1.094,0,0,0,4.167-1.7a1.439,1.439,0,0,0,.414-.826H6.364l.014.041A2.819,2.819,0,0,1,5.3-.588,3.365,3.365,0,0,1,3.145.144a2.446,2.446,0,0,1-2.2-1.06A3.648,3.648,0,0,1,.506-3.589L.54-3.794A4.872,4.872,0,0,1,1.8-6.508a3.41,3.41,0,0,1,2.56-1.025,2.4,2.4,0,0,1,1.921.786A2.355,2.355,0,0,1,6.733-4.7l-.014.034h-1.8a1.5,1.5,0,0,0-.106-.964A.73.73,0,0,0,4.115-6a1.2,1.2,0,0,0-1.063.621A4.132,4.132,0,0,0,2.509-3.8l-.034.2a3.744,3.744,0,0,0,.014,1.614A.825.825,0,0,0,3.384-1.395Z" transform="translate(-5046.931 -7304.883) rotate(45)"/>
    <path id="Trazado_232230" data-name="Trazado 232230" d="M3.192-3.1H2.721L2.105,0H.137L2.27-10.664H4.238l-1.21,6.05h.431L5.5-7.4H7.725l.014.034-2.782,3.3L6.638,0H4.382Z" transform="translate(-5041.417 -7299.37) rotate(45)"/>
    <path id="Trazado_232231" data-name="Trazado 232231" transform="translate(-5035.69 -7293.642) rotate(45)"/>
    <path id="Trazado_232232" data-name="Trazado 232232" d="M3.384-1.395A1.094,1.094,0,0,0,4.167-1.7a1.439,1.439,0,0,0,.414-.826H6.364l.014.041A2.819,2.819,0,0,1,5.3-.588,3.365,3.365,0,0,1,3.145.144a2.446,2.446,0,0,1-2.2-1.06A3.648,3.648,0,0,1,.506-3.589L.54-3.794A4.872,4.872,0,0,1,1.8-6.508a3.41,3.41,0,0,1,2.56-1.025,2.4,2.4,0,0,1,1.921.786A2.355,2.355,0,0,1,6.733-4.7l-.014.034h-1.8a1.5,1.5,0,0,0-.106-.964A.73.73,0,0,0,4.115-6a1.2,1.2,0,0,0-1.063.621A4.132,4.132,0,0,0,2.509-3.8l-.034.2a3.744,3.744,0,0,0,.014,1.614A.825.825,0,0,0,3.384-1.395Z" transform="translate(-5033.029 -7290.982) rotate(45)"/>
    <path id="Trazado_232233" data-name="Trazado 232233" d="M.574-3.767A4.852,4.852,0,0,1,1.863-6.511,3.467,3.467,0,0,1,4.43-7.533,2.49,2.49,0,0,1,6.638-6.47a3.639,3.639,0,0,1,.465,2.7l-.021.144a4.876,4.876,0,0,1-1.3,2.748A3.473,3.473,0,0,1,3.22.144,2.493,2.493,0,0,1,1.012-.916,3.621,3.621,0,0,1,.554-3.623Zm1.941.14A3.49,3.49,0,0,0,2.55-1.982a.861.861,0,0,0,.909.587,1.246,1.246,0,0,0,1.066-.618,4.04,4.04,0,0,0,.581-1.614l.021-.143a3.433,3.433,0,0,0-.044-1.625.857.857,0,0,0-.9-.6,1.255,1.255,0,0,0-1.077.628,3.926,3.926,0,0,0-.571,1.6Z" transform="translate(-5027.515 -7285.468) rotate(45)"/>
    <path id="Trazado_232234" data-name="Trazado 232234" d="M3.3-6.436a3.156,3.156,0,0,1,1-.817,2.547,2.547,0,0,1,1.169-.281,1.616,1.616,0,0,1,1.449.714,2.979,2.979,0,0,1,.178,2.2L6.173,0H4.2L5.12-4.625a1.556,1.556,0,0,0-.038-1.083A.853.853,0,0,0,4.327-6a1.3,1.3,0,0,0-.625.164,2.025,2.025,0,0,0-.557.452L2.071,0H.1L1.579-7.4H3.418Z" transform="translate(-5021.489 -7279.441) rotate(45)"/>
    <path id="Trazado_232235" data-name="Trazado 232235" d="M4.348-9.208,3.985-7.4H5.154L4.874-6H3.705L2.953-2.229A.853.853,0,0,0,2.98-1.6a.459.459,0,0,0,.4.167,3.01,3.01,0,0,0,.332-.017A2.648,2.648,0,0,0,4.033-1.5L3.91-.062a5.116,5.116,0,0,1-.663.154,4.386,4.386,0,0,1-.69.051A1.612,1.612,0,0,1,1.189-.437,2.2,2.2,0,0,1,.984-2.222L1.736-6H.752l.28-1.4h.984l.362-1.812Z" transform="translate(-5015.463 -7273.415) rotate(45)"/>
    <path id="Trazado_232236" data-name="Trazado 232236" d="M2.2,0H.232L1.709-7.4H3.678ZM4.033-9.167H2.064l.3-1.5H4.334Z" transform="translate(-5011.733 -7269.686) rotate(45)"/>
    <path id="Trazado_232237" data-name="Trazado 232237" d="M3.3-6.436a3.156,3.156,0,0,1,1-.817,2.547,2.547,0,0,1,1.169-.281,1.616,1.616,0,0,1,1.449.714,2.979,2.979,0,0,1,.178,2.2L6.173,0H4.2L5.12-4.625a1.556,1.556,0,0,0-.038-1.083A.853.853,0,0,0,4.327-6a1.3,1.3,0,0,0-.625.164,2.025,2.025,0,0,0-.557.452L2.071,0H.1L1.579-7.4H3.418Z" transform="translate(-5008.88 -7266.833) rotate(45)"/>
    <path id="Trazado_232263" data-name="Trazado 232263" d="M4.43,0l.055-.846a2.912,2.912,0,0,1-.954.739A2.659,2.659,0,0,1,2.379.144,1.69,1.69,0,0,1,.861-.619,3.124,3.124,0,0,1,.677-2.933L1.565-7.4H3.527l-.9,4.488A2.065,2.065,0,0,0,2.625-1.72a.65.65,0,0,0,.643.325A1.7,1.7,0,0,0,4-1.552,1.814,1.814,0,0,0,4.594-2L5.667-7.4H7.636L6.159,0Z" transform="translate(-5002.84 -7260.793) rotate(45)"/>
    <path id="Trazado_232264" data-name="Trazado 232264" d="M.574-3.767A4.852,4.852,0,0,1,1.863-6.511,3.467,3.467,0,0,1,4.43-7.533,2.49,2.49,0,0,1,6.638-6.47a3.639,3.639,0,0,1,.465,2.7l-.021.144a4.876,4.876,0,0,1-1.3,2.748A3.473,3.473,0,0,1,3.22.144,2.493,2.493,0,0,1,1.012-.916,3.621,3.621,0,0,1,.554-3.623Zm1.941.14A3.49,3.49,0,0,0,2.55-1.982a.861.861,0,0,0,.909.587,1.246,1.246,0,0,0,1.066-.618,4.04,4.04,0,0,0,.581-1.614l.021-.143a3.433,3.433,0,0,0-.044-1.625.857.857,0,0,0-.9-.6,1.255,1.255,0,0,0-1.077.628,3.926,3.926,0,0,0-.571,1.6Z" transform="translate(-4996.807 -7254.76) rotate(45)"/>
    <path id="Trazado_232280" data-name="Trazado 232280" d="M8.7-3.315A3.522,3.522,0,0,1,7.516-.786,4.165,4.165,0,0,1,4.7.137,3.745,3.745,0,0,1,1.685-1.152a5.284,5.284,0,0,1-1.1-3.538V-5.3a5.966,5.966,0,0,1,.506-2.529A3.791,3.791,0,0,1,2.54-9.505a4.05,4.05,0,0,1,2.184-.584A4.058,4.058,0,0,1,7.5-9.167,3.785,3.785,0,0,1,8.716-6.576H6.665a2.079,2.079,0,0,0-.537-1.4,1.987,1.987,0,0,0-1.4-.434,1.742,1.742,0,0,0-1.535.735,4.118,4.118,0,0,0-.523,2.28v.752a4.408,4.408,0,0,0,.489,2.358A1.71,1.71,0,0,0,4.7-1.538a2.025,2.025,0,0,0,1.418-.434,1.961,1.961,0,0,0,.537-1.343Z" transform="translate(-4791.184 -7377.99) rotate(55.077)"/>
    <path id="Trazado_232285" data-name="Trazado 232285" d="M.451-3.767A4.387,4.387,0,0,1,.875-5.729,3.1,3.1,0,0,1,2.1-7.062a3.56,3.56,0,0,1,1.849-.472,3.368,3.368,0,0,1,2.444.916A3.676,3.676,0,0,1,7.444-4.129l.014.506a3.866,3.866,0,0,1-.95,2.731A3.3,3.3,0,0,1,3.958.137,3.319,3.319,0,0,1,1.4-.889,3.934,3.934,0,0,1,.451-3.678Zm1.976.14a2.765,2.765,0,0,0,.4,1.612,1.308,1.308,0,0,0,1.135.558,1.311,1.311,0,0,0,1.121-.551,3.025,3.025,0,0,0,.4-1.763,2.737,2.737,0,0,0-.4-1.6A1.311,1.311,0,0,0,3.944-5.94a1.29,1.29,0,0,0-1.121.565A3.076,3.076,0,0,0,2.427-3.626Z" transform="matrix(0.519, 0.855, -0.855, 0.519, -4785.735, -7370.159)"/>
    <path id="Trazado_232286" data-name="Trazado 232286" d="M2.611-7.4l.062.827A2.6,2.6,0,0,1,4.8-7.533,1.973,1.973,0,0,1,6.761-6.405,2.54,2.54,0,0,1,8.982-7.533a2.206,2.206,0,0,1,1.791.7,3.221,3.221,0,0,1,.588,2.109V0H9.379V-4.728a1.414,1.414,0,0,0-.246-.922,1.089,1.089,0,0,0-.868-.291,1.233,1.233,0,0,0-1.23.85L7.041,0H5.065V-4.721a1.4,1.4,0,0,0-.253-.932,1.1,1.1,0,0,0-.861-.288,1.28,1.28,0,0,0-1.217.7V0H.759V-7.4Z" transform="translate(-4781.275 -7362.991) rotate(63.076)"/>
    <path id="Trazado_232287" data-name="Trazado 232287" d="M5.188-.752A2.477,2.477,0,0,1,3.165.137,2.337,2.337,0,0,1,1.35-.547a2.918,2.918,0,0,1-.639-2V-7.4H2.687v4.784q0,1.157,1.053,1.157a1.426,1.426,0,0,0,1.381-.7V-7.4H7.1V0H5.243Z" transform="translate(-4775.475 -7351.386) rotate(67.422)"/>
    <path id="Trazado_232288" data-name="Trazado 232288" d="M2.577-7.4l.062.854a2.582,2.582,0,0,1,2.126-.991,2.146,2.146,0,0,1,1.75.69A3.221,3.221,0,0,1,7.1-4.778V0H5.127V-4.741a1.287,1.287,0,0,0-.273-.915,1.222,1.222,0,0,0-.909-.284,1.359,1.359,0,0,0-1.251.713V0H.718V-7.4Z" transform="translate(-4772.217 -7343.559) rotate(70.858)"/>
    <path id="Trazado_232289" data-name="Trazado 232289" d="M2.844,0H.861V-7.4H2.844ZM.745-9.311a.973.973,0,0,1,.3-.731,1.117,1.117,0,0,1,.81-.287,1.12,1.12,0,0,1,.807.287.967.967,0,0,1,.3.731.97.97,0,0,1-.3.738,1.122,1.122,0,0,1-.8.287,1.122,1.122,0,0,1-.8-.287A.97.97,0,0,1,.745-9.311Z" transform="matrix(0.286, 0.958, -0.958, 0.286, -4769.489, -7335.552)"/>
    <path id="Trazado_232290" data-name="Trazado 232290" d="M3.835-1.456a1.3,1.3,0,0,0,.889-.3,1.054,1.054,0,0,0,.355-.8H6.932a2.534,2.534,0,0,1-.41,1.377,2.706,2.706,0,0,1-1.1.971A3.455,3.455,0,0,1,3.869.137a3.211,3.211,0,0,1-2.5-1.008A3.99,3.99,0,0,1,.451-3.657v-.13A3.944,3.944,0,0,1,1.36-6.515a3.174,3.174,0,0,1,2.5-1.019,3.111,3.111,0,0,1,2.225.79,2.8,2.8,0,0,1,.851,2.1H5.079a1.358,1.358,0,0,0-.355-.938,1.185,1.185,0,0,0-.9-.361,1.19,1.19,0,0,0-1.042.5A2.916,2.916,0,0,0,2.427-3.8V-3.6a2.953,2.953,0,0,0,.349,1.643A1.2,1.2,0,0,0,3.835-1.456Z" transform="translate(-4768.307 -7331.733) rotate(75.744)"/>
    <path id="Trazado_232297" data-name="Trazado 232297" d="M5.045,0a2.194,2.194,0,0,1-.2-.663,2.39,2.39,0,0,1-1.866.8,2.626,2.626,0,0,1-1.8-.629A2.023,2.023,0,0,1,.465-2.078a2.09,2.09,0,0,1,.872-1.8,4.3,4.3,0,0,1,2.519-.636h.909v-.424a1.219,1.219,0,0,0-.263-.82,1.035,1.035,0,0,0-.831-.308,1.177,1.177,0,0,0-.783.239.813.813,0,0,0-.284.656H.629a1.984,1.984,0,0,1,.4-1.189,2.621,2.621,0,0,1,1.121-.858,4.086,4.086,0,0,1,1.627-.311,3.228,3.228,0,0,1,2.17.687,2.4,2.4,0,0,1,.8,1.931v3.206A3.536,3.536,0,0,0,7.041-.116V0ZM3.411-1.374a1.7,1.7,0,0,0,.807-.195,1.28,1.28,0,0,0,.547-.523V-3.363H4.026q-1.483,0-1.579,1.025l-.007.116a.791.791,0,0,0,.26.608A1.009,1.009,0,0,0,3.411-1.374Z" transform="matrix(0.192, 0.981, -0.981, 0.192, -4766.403, -7324.265)"/>
    <path id="Trazado_232298" data-name="Trazado 232298" d="M3.835-1.456a1.3,1.3,0,0,0,.889-.3,1.054,1.054,0,0,0,.355-.8H6.932a2.534,2.534,0,0,1-.41,1.377,2.706,2.706,0,0,1-1.1.971A3.455,3.455,0,0,1,3.869.137a3.211,3.211,0,0,1-2.5-1.008A3.99,3.99,0,0,1,.451-3.657v-.13A3.944,3.944,0,0,1,1.36-6.515a3.174,3.174,0,0,1,2.5-1.019,3.111,3.111,0,0,1,2.225.79,2.8,2.8,0,0,1,.851,2.1H5.079a1.358,1.358,0,0,0-.355-.938,1.185,1.185,0,0,0-.9-.361,1.19,1.19,0,0,0-1.042.5A2.916,2.916,0,0,0,2.427-3.8V-3.6a2.953,2.953,0,0,0,.349,1.643A1.2,1.2,0,0,0,3.835-1.456Z" transform="translate(-4764.855 -7316.348) rotate(82.091)"/>
    <path id="Trazado_232299" data-name="Trazado 232299" d="M2.844,0H.861V-7.4H2.844ZM.745-9.311a.973.973,0,0,1,.3-.731,1.117,1.117,0,0,1,.81-.287,1.12,1.12,0,0,1,.807.287.967.967,0,0,1,.3.731.97.97,0,0,1-.3.738,1.122,1.122,0,0,1-.8.287,1.122,1.122,0,0,1-.8-.287A.97.97,0,0,1,.745-9.311Z" transform="translate(-4763.826 -7308.672) rotate(84.447)"/>
    <path id="Trazado_232300" data-name="Trazado 232300" d="M.451-3.767A4.387,4.387,0,0,1,.875-5.729,3.1,3.1,0,0,1,2.1-7.062a3.56,3.56,0,0,1,1.849-.472,3.368,3.368,0,0,1,2.444.916A3.676,3.676,0,0,1,7.444-4.129l.014.506a3.866,3.866,0,0,1-.95,2.731A3.3,3.3,0,0,1,3.958.137,3.319,3.319,0,0,1,1.4-.889,3.934,3.934,0,0,1,.451-3.678Zm1.976.14a2.765,2.765,0,0,0,.4,1.612,1.308,1.308,0,0,0,1.135.558,1.311,1.311,0,0,0,1.121-.551,3.025,3.025,0,0,0,.4-1.763,2.737,2.737,0,0,0-.4-1.6A1.311,1.311,0,0,0,3.944-5.94a1.29,1.29,0,0,0-1.121.565A3.076,3.076,0,0,0,2.427-3.626ZM4.334-10.5H6.487L4.594-8.381H2.987Z" transform="matrix(0.053, 0.999, -0.999, 0.053, -4763.393, -7304.732)"/>
    <path id="Trazado_232301" data-name="Trazado 232301" d="M2.577-7.4l.062.854a2.582,2.582,0,0,1,2.126-.991,2.146,2.146,0,0,1,1.75.69A3.221,3.221,0,0,1,7.1-4.778V0H5.127V-4.741a1.287,1.287,0,0,0-.273-.915,1.222,1.222,0,0,0-.909-.284,1.359,1.359,0,0,0-1.251.713V0H.718V-7.4Z" transform="translate(-4762.939 -7296.272) rotate(90.331)"/>
    <path id="Trazado_232302" data-name="Trazado 232302" transform="translate(-4763.037 -7287.791) rotate(92.775)"/>
    <path id="Trazado_232303" data-name="Trazado 232303" d="M4.163.137a3.631,3.631,0,0,1-2.649-1A3.548,3.548,0,0,1,.492-3.521v-.191A4.468,4.468,0,0,1,.923-5.7a3.161,3.161,0,0,1,1.22-1.354,3.425,3.425,0,0,1,1.8-.475,3.07,3.07,0,0,1,2.389.957,3.889,3.889,0,0,1,.872,2.714v.807H2.5a1.835,1.835,0,0,0,.578,1.162,1.746,1.746,0,0,0,1.22.438,2.132,2.132,0,0,0,1.784-.827L7.048-1.2a2.966,2.966,0,0,1-1.2.981A3.947,3.947,0,0,1,4.163.137ZM3.938-5.94a1.234,1.234,0,0,0-.954.4A2.062,2.062,0,0,0,2.516-4.4H5.264V-4.56a1.471,1.471,0,0,0-.355-1.02A1.274,1.274,0,0,0,3.938-5.94Z" transform="translate(-4763.174 -7284.081) rotate(95.094)"/>
    <path id="Trazado_232304" data-name="Trazado 232304" d="M2.577-7.4l.062.854a2.582,2.582,0,0,1,2.126-.991,2.146,2.146,0,0,1,1.75.69A3.221,3.221,0,0,1,7.1-4.778V0H5.127V-4.741a1.287,1.287,0,0,0-.273-.915,1.222,1.222,0,0,0-.909-.284,1.359,1.359,0,0,0-1.251.713V0H.718V-7.4Z" transform="matrix(-0.145, 0.989, -0.989, -0.145, -4763.857, -7276.289)"/>
    <path id="Trazado_232305" data-name="Trazado 232305" transform="translate(-4765.139 -7267.914) rotate(100.807)"/>
    <path id="Trazado_232175" data-name="Trazado 232175" d="M0,0H561.695V284.74H0Z" transform="translate(-5313 -7435.203)" fill="none"/>
    <path id="Trazado_232306" data-name="Trazado 232306" d="M3.124-9.215V-7.4H4.389v1.449H3.124v3.691a.881.881,0,0,0,.157.588.79.79,0,0,0,.6.178,3.151,3.151,0,0,0,.581-.048v1.5a4.067,4.067,0,0,1-1.2.178,1.886,1.886,0,0,1-2.119-2.1V-5.947H.068V-7.4h1.08V-9.215Z" transform="translate(-4765.828 -7264.233) rotate(102.616)"/>
    <path id="Trazado_232291" data-name="Trazado 232291" d="M2.844,0H.861V-7.4H2.844ZM.745-9.311a.973.973,0,0,1,.3-.731,1.117,1.117,0,0,1,.81-.287,1.12,1.12,0,0,1,.807.287.967.967,0,0,1,.3.731.97.97,0,0,1-.3.738,1.122,1.122,0,0,1-.8.287,1.122,1.122,0,0,1-.8-.287A.97.97,0,0,1,.745-9.311Z" transform="translate(-4766.978 -7259.144) rotate(104.473)"/>
    <path id="Trazado_232292" data-name="Trazado 232292" d="M4.163.137a3.631,3.631,0,0,1-2.649-1A3.548,3.548,0,0,1,.492-3.521v-.191A4.468,4.468,0,0,1,.923-5.7a3.161,3.161,0,0,1,1.22-1.354,3.425,3.425,0,0,1,1.8-.475,3.07,3.07,0,0,1,2.389.957,3.889,3.889,0,0,1,.872,2.714v.807H2.5a1.835,1.835,0,0,0,.578,1.162,1.746,1.746,0,0,0,1.22.438,2.132,2.132,0,0,0,1.784-.827L7.048-1.2a2.966,2.966,0,0,1-1.2.981A3.947,3.947,0,0,1,4.163.137ZM3.938-5.94a1.234,1.234,0,0,0-.954.4A2.062,2.062,0,0,0,2.516-4.4H5.264V-4.56a1.471,1.471,0,0,0-.355-1.02A1.274,1.274,0,0,0,3.938-5.94Z" transform="translate(-4767.928 -7255.29) rotate(106.857)"/>
    <path id="Trazado_232293" data-name="Trazado 232293" d="M2.611-7.4l.062.827A2.6,2.6,0,0,1,4.8-7.533,1.973,1.973,0,0,1,6.761-6.405,2.54,2.54,0,0,1,8.982-7.533a2.206,2.206,0,0,1,1.791.7,3.221,3.221,0,0,1,.588,2.109V0H9.379V-4.728a1.414,1.414,0,0,0-.246-.922,1.089,1.089,0,0,0-.868-.291,1.233,1.233,0,0,0-1.23.85L7.041,0H5.065V-4.721a1.4,1.4,0,0,0-.253-.932,1.1,1.1,0,0,0-.861-.288,1.28,1.28,0,0,0-1.217.7V0H.759V-7.4Z" transform="translate(-4770.101 -7247.78) rotate(111.065)"/>
    <path id="Trazado_232294" data-name="Trazado 232294" d="M7.417-3.63A4.436,4.436,0,0,1,6.641-.892,2.488,2.488,0,0,1,4.546.137,2.3,2.3,0,0,1,2.734-.643V2.844H.759V-7.4H2.591l.068.725a2.322,2.322,0,0,1,1.873-.861A2.5,2.5,0,0,1,6.658-6.521a4.556,4.556,0,0,1,.759,2.789ZM5.441-3.78a2.927,2.927,0,0,0-.366-1.6A1.19,1.19,0,0,0,4.013-5.94a1.293,1.293,0,0,0-1.278.713V-2.19a1.315,1.315,0,0,0,1.292.734Q5.441-1.456,5.441-3.78Z" transform="translate(-4774.852 -7235.678) rotate(115.42)"/>
    <path id="Trazado_232295" data-name="Trazado 232295" d="M.451-3.767A4.387,4.387,0,0,1,.875-5.729,3.1,3.1,0,0,1,2.1-7.062a3.56,3.56,0,0,1,1.849-.472,3.368,3.368,0,0,1,2.444.916A3.676,3.676,0,0,1,7.444-4.129l.014.506a3.866,3.866,0,0,1-.95,2.731A3.3,3.3,0,0,1,3.958.137,3.319,3.319,0,0,1,1.4-.889,3.934,3.934,0,0,1,.451-3.678Zm1.976.14a2.765,2.765,0,0,0,.4,1.612,1.308,1.308,0,0,0,1.135.558,1.311,1.311,0,0,0,1.121-.551,3.025,3.025,0,0,0,.4-1.763,2.737,2.737,0,0,0-.4-1.6A1.311,1.311,0,0,0,3.944-5.94a1.29,1.29,0,0,0-1.121.565A3.076,3.076,0,0,0,2.427-3.626Z" transform="translate(-4778.479 -7228.04) rotate(118.856)"/>
    <path id="Trazado_232296" data-name="Trazado 232296" transform="translate(-4782.614 -7220.641) rotate(121.331)"/>
    <path id="Trazado_232281" data-name="Trazado 232281" d="M4.915-5.544A5.367,5.367,0,0,0,4.2-5.6a1.447,1.447,0,0,0-1.47.759V0H.759V-7.4H2.625l.055.882A1.831,1.831,0,0,1,4.327-7.533a2.07,2.07,0,0,1,.615.089Z" transform="translate(-4784.536 -7217.46) rotate(123.155)"/>
    <path id="Trazado_232282" data-name="Trazado 232282" d="M4.163.137a3.631,3.631,0,0,1-2.649-1A3.548,3.548,0,0,1,.492-3.521v-.191A4.468,4.468,0,0,1,.923-5.7a3.161,3.161,0,0,1,1.22-1.354,3.425,3.425,0,0,1,1.8-.475,3.07,3.07,0,0,1,2.389.957,3.889,3.889,0,0,1,.872,2.714v.807H2.5a1.835,1.835,0,0,0,.578,1.162,1.746,1.746,0,0,0,1.22.438,2.132,2.132,0,0,0,1.784-.827L7.048-1.2a2.966,2.966,0,0,1-1.2.981A3.947,3.947,0,0,1,4.163.137ZM3.938-5.94a1.234,1.234,0,0,0-.954.4A2.062,2.062,0,0,0,2.516-4.4H5.264V-4.56a1.471,1.471,0,0,0-.355-1.02A1.274,1.274,0,0,0,3.938-5.94Z" transform="translate(-4787.306 -7213.156) rotate(125.749)"/>
    <path id="Trazado_232283" data-name="Trazado 232283" d="M5.045,0a2.194,2.194,0,0,1-.2-.663,2.39,2.39,0,0,1-1.866.8,2.626,2.626,0,0,1-1.8-.629A2.023,2.023,0,0,1,.465-2.078a2.09,2.09,0,0,1,.872-1.8,4.3,4.3,0,0,1,2.519-.636h.909v-.424a1.219,1.219,0,0,0-.263-.82,1.035,1.035,0,0,0-.831-.308,1.177,1.177,0,0,0-.783.239.813.813,0,0,0-.284.656H.629a1.984,1.984,0,0,1,.4-1.189,2.621,2.621,0,0,1,1.121-.858,4.086,4.086,0,0,1,1.627-.311,3.228,3.228,0,0,1,2.17.687,2.4,2.4,0,0,1,.8,1.931v3.206A3.536,3.536,0,0,0,7.041-.116V0ZM3.411-1.374a1.7,1.7,0,0,0,.807-.195,1.28,1.28,0,0,0,.547-.523V-3.363H4.026q-1.483,0-1.579,1.025l-.007.116a.791.791,0,0,0,.26.608A1.009,1.009,0,0,0,3.411-1.374Z" transform="translate(-4791.88 -7206.793) rotate(128.952)"/>
    <path id="Trazado_232284" data-name="Trazado 232284" d="M2.844,0H.861V-10.5H2.844Z" transform="matrix(-0.661, 0.75, -0.75, -0.661, -4796.994, -7200.537)"/>
    <path id="Trazado_232238" data-name="Trazado 232238" d="M3.069,0H1.019V-9.953H3.069Z" transform="translate(-5119.503 -7214.775) rotate(155.387)"/>
    <path id="Trazado_232239" data-name="Trazado 232239" d="M2.577-7.4l.062.854a2.582,2.582,0,0,1,2.126-.991,2.146,2.146,0,0,1,1.75.69A3.221,3.221,0,0,1,7.1-4.778V0H5.127V-4.741a1.287,1.287,0,0,0-.273-.915,1.222,1.222,0,0,0-.909-.284,1.359,1.359,0,0,0-1.251.713V0H.718V-7.4Z" transform="translate(-5123.432 -7212.89) rotate(159.635)"/>
    <path id="Trazado_232240" data-name="Trazado 232240" d="M3.124-9.215V-7.4H4.389v1.449H3.124v3.691a.881.881,0,0,0,.157.588.79.79,0,0,0,.6.178,3.151,3.151,0,0,0,.581-.048v1.5a4.067,4.067,0,0,1-1.2.178,1.886,1.886,0,0,1-2.119-2.1V-5.947H.068V-7.4h1.08V-9.215Z" transform="translate(-5131.352 -7210.012) rotate(164.13)"/>
    <path id="Trazado_232241" data-name="Trazado 232241" d="M4.163.137a3.631,3.631,0,0,1-2.649-1A3.548,3.548,0,0,1,.492-3.521v-.191A4.468,4.468,0,0,1,.923-5.7a3.161,3.161,0,0,1,1.22-1.354,3.425,3.425,0,0,1,1.8-.475,3.07,3.07,0,0,1,2.389.957,3.889,3.889,0,0,1,.872,2.714v.807H2.5a1.835,1.835,0,0,0,.578,1.162,1.746,1.746,0,0,0,1.22.438,2.132,2.132,0,0,0,1.784-.827L7.048-1.2a2.966,2.966,0,0,1-1.2.981A3.947,3.947,0,0,1,4.163.137ZM3.938-5.94a1.234,1.234,0,0,0-.954.4A2.062,2.062,0,0,0,2.516-4.4H5.264V-4.56a1.471,1.471,0,0,0-.355-1.02A1.274,1.274,0,0,0,3.938-5.94Z" transform="translate(-5136.31 -7208.55) rotate(168.407)"/>
    <path id="Trazado_232242" data-name="Trazado 232242" d="M.472-3.753a4.335,4.335,0,0,1,.81-2.741A2.625,2.625,0,0,1,3.466-7.533,2.3,2.3,0,0,1,5.359-6.7l.082-.7H7.232v7.15a3.161,3.161,0,0,1-.441,1.688A2.832,2.832,0,0,1,5.551,2.536a4.362,4.362,0,0,1-1.873.376,4.056,4.056,0,0,1-1.586-.325A2.815,2.815,0,0,1,.923,1.75L1.8.547a2.314,2.314,0,0,0,1.791.827A1.694,1.694,0,0,0,4.813.954,1.577,1.577,0,0,0,5.25-.239v-.4a2.285,2.285,0,0,1-1.8.772A2.618,2.618,0,0,1,1.3-.906,4.334,4.334,0,0,1,.472-3.671Zm1.976.141a2.714,2.714,0,0,0,.4,1.583,1.282,1.282,0,0,0,1.107.573,1.371,1.371,0,0,0,1.292-.68V-5.261a1.368,1.368,0,0,0-1.278-.68,1.29,1.29,0,0,0-1.118.584A3.059,3.059,0,0,0,2.447-3.612Z" transform="matrix(-0.994, 0.109, -0.109, -0.994, -5143.95, -7206.963)"/>
    <path id="Trazado_232243" data-name="Trazado 232243" d="M4.915-5.544A5.367,5.367,0,0,0,4.2-5.6a1.447,1.447,0,0,0-1.47.759V0H.759V-7.4H2.625l.055.882A1.831,1.831,0,0,1,4.327-7.533a2.07,2.07,0,0,1,.615.089Z" transform="translate(-5152.32 -7206.102) rotate(178.207)"/>
    <path id="Trazado_232244" data-name="Trazado 232244" d="M5.045,0a2.194,2.194,0,0,1-.2-.663,2.39,2.39,0,0,1-1.866.8,2.626,2.626,0,0,1-1.8-.629A2.023,2.023,0,0,1,.465-2.078a2.09,2.09,0,0,1,.872-1.8,4.3,4.3,0,0,1,2.519-.636h.909v-.424a1.219,1.219,0,0,0-.263-.82,1.035,1.035,0,0,0-.831-.308,1.177,1.177,0,0,0-.783.239.813.813,0,0,0-.284.656H.629a1.984,1.984,0,0,1,.4-1.189,2.621,2.621,0,0,1,1.121-.858,4.086,4.086,0,0,1,1.627-.311,3.228,3.228,0,0,1,2.17.687,2.4,2.4,0,0,1,.8,1.931v3.206A3.536,3.536,0,0,0,7.041-.116V0ZM3.411-1.374a1.7,1.7,0,0,0,.807-.195,1.28,1.28,0,0,0,.547-.523V-3.363H4.026q-1.483,0-1.579,1.025l-.007.116a.791.791,0,0,0,.26.608A1.009,1.009,0,0,0,3.411-1.374Z" transform="translate(-5157.565 -7205.881) rotate(-177.438)"/>
    <path id="Trazado_232245" data-name="Trazado 232245" d="M3.835-1.456a1.3,1.3,0,0,0,.889-.3,1.054,1.054,0,0,0,.355-.8H6.932a2.534,2.534,0,0,1-.41,1.377,2.706,2.706,0,0,1-1.1.971A3.455,3.455,0,0,1,3.869.137a3.211,3.211,0,0,1-2.5-1.008A3.99,3.99,0,0,1,.451-3.657v-.13A3.944,3.944,0,0,1,1.36-6.515a3.174,3.174,0,0,1,2.5-1.019,3.111,3.111,0,0,1,2.225.79,2.8,2.8,0,0,1,.851,2.1H5.079a1.358,1.358,0,0,0-.355-.938,1.185,1.185,0,0,0-.9-.361,1.19,1.19,0,0,0-1.042.5A2.916,2.916,0,0,0,2.427-3.8V-3.6a2.953,2.953,0,0,0,.349,1.643A1.2,1.2,0,0,0,3.835-1.456Z" transform="matrix(-0.991, -0.134, 0.134, -0.991, -5165.562, -7206.243)"/>
    <path id="Trazado_232246" data-name="Trazado 232246" d="M2.844,0H.861V-7.4H2.844ZM.745-9.311a.973.973,0,0,1,.3-.731,1.117,1.117,0,0,1,.81-.287,1.12,1.12,0,0,1,.807.287.967.967,0,0,1,.3.731.97.97,0,0,1-.3.738,1.122,1.122,0,0,1-.8.287,1.122,1.122,0,0,1-.8-.287A.97.97,0,0,1,.745-9.311Z" transform="matrix(-0.98, -0.2, 0.2, -0.98, -5173.189, -7207.334)"/>
    <path id="Trazado_232247" data-name="Trazado 232247" d="M.451-3.767A4.387,4.387,0,0,1,.875-5.729,3.1,3.1,0,0,1,2.1-7.062a3.56,3.56,0,0,1,1.849-.472,3.368,3.368,0,0,1,2.444.916A3.676,3.676,0,0,1,7.444-4.129l.014.506a3.866,3.866,0,0,1-.95,2.731A3.3,3.3,0,0,1,3.958.137,3.319,3.319,0,0,1,1.4-.889,3.934,3.934,0,0,1,.451-3.678Zm1.976.14a2.765,2.765,0,0,0,.4,1.612,1.308,1.308,0,0,0,1.135.558,1.311,1.311,0,0,0,1.121-.551,3.025,3.025,0,0,0,.4-1.763,2.737,2.737,0,0,0-.4-1.6A1.311,1.311,0,0,0,3.944-5.94a1.29,1.29,0,0,0-1.121.565A3.076,3.076,0,0,0,2.427-3.626ZM4.334-10.5H6.487L4.594-8.381H2.987Z" transform="matrix(-0.963, -0.269, 0.269, -0.963, -5177.073, -7208.041)"/>
    <path id="Trazado_232248" data-name="Trazado 232248" d="M2.577-7.4l.062.854a2.582,2.582,0,0,1,2.126-.991,2.146,2.146,0,0,1,1.75.69A3.221,3.221,0,0,1,7.1-4.778V0H5.127V-4.741a1.287,1.287,0,0,0-.273-.915,1.222,1.222,0,0,0-.909-.284,1.359,1.359,0,0,0-1.251.713V0H.718V-7.4Z" transform="matrix(-0.932, -0.362, 0.362, -0.932, -5185.192, -7210.307)"/>
    <path id="Trazado_232217" data-name="Trazado 232217" d="M1.587,0V-17.773H7.056a8.3,8.3,0,0,1,4.193,1.056,7.363,7.363,0,0,1,2.887,3A9.262,9.262,0,0,1,15.173-9.29v.818a9.288,9.288,0,0,1-1.019,4.407,7.3,7.3,0,0,1-2.875,2.991A8.368,8.368,0,0,1,7.092,0ZM5.249-14.807V-2.942h1.77a3.977,3.977,0,0,0,3.284-1.4,6.344,6.344,0,0,0,1.16-4.016V-9.3a6.444,6.444,0,0,0-1.123-4.108,3.963,3.963,0,0,0-3.284-1.4Zm23.279,7.08H21.5v4.785h8.252V0H17.834V-17.773h11.89v2.966H21.5v4.236h7.031Zm9.937,3.32,4.028-13.367H46.57L40.381,0H36.56L30.4-17.773H34.46Z" transform="translate(-5186.895 -7286.69)"/>
    <path id="Trazado_232265" data-name="Trazado 232265" d="M15.539-8.145a10.3,10.3,0,0,1-.891,4.418A6.707,6.707,0,0,1,12.1-.8,7.051,7.051,0,0,1,8.3.234,7.1,7.1,0,0,1,4.512-.785,6.773,6.773,0,0,1,1.934-3.7a10.005,10.005,0,0,1-.926-4.354v-.844a10.246,10.246,0,0,1,.908-4.436,6.762,6.762,0,0,1,2.566-2.941A7.059,7.059,0,0,1,8.273-17.3a7.059,7.059,0,0,1,3.791,1.025,6.762,6.762,0,0,1,2.566,2.941,10.217,10.217,0,0,1,.908,4.424Zm-3.562-.773A7.18,7.18,0,0,0,11.016-13a3.132,3.132,0,0,0-2.742-1.395,3.133,3.133,0,0,0-2.73,1.377A7.1,7.1,0,0,0,4.57-8.977v.832A7.27,7.27,0,0,0,5.531-4.09,3.123,3.123,0,0,0,8.3-2.648a3.1,3.1,0,0,0,2.719-1.389,7.228,7.228,0,0,0,.961-4.049Zm9.633,2.906V0H18.094V-17.062H24.75a7.7,7.7,0,0,1,3.381.7,5.181,5.181,0,0,1,2.244,2,5.571,5.571,0,0,1,.785,2.947,4.9,4.9,0,0,1-1.717,3.955,7.15,7.15,0,0,1-4.752,1.447Zm0-2.848H24.75a3.088,3.088,0,0,0,2.127-.656,2.387,2.387,0,0,0,.732-1.875,2.814,2.814,0,0,0-.738-2.027,2.758,2.758,0,0,0-2.039-.8H21.609ZM42.422-4.477a1.8,1.8,0,0,0-.7-1.529,9.222,9.222,0,0,0-2.531-1.125A17.944,17.944,0,0,1,36.293-8.3q-2.906-1.57-2.906-4.23a4.12,4.12,0,0,1,.779-2.467A5.083,5.083,0,0,1,36.4-16.687,8.425,8.425,0,0,1,39.68-17.3a7.668,7.668,0,0,1,3.258.662,5.187,5.187,0,0,1,2.221,1.869,4.891,4.891,0,0,1,.791,2.742H42.434a2.3,2.3,0,0,0-.738-1.822,3.035,3.035,0,0,0-2.074-.65,3.242,3.242,0,0,0-2,.545,1.719,1.719,0,0,0-.715,1.436,1.646,1.646,0,0,0,.838,1.395,9.466,9.466,0,0,0,2.467,1.055,10.658,10.658,0,0,1,4.371,2.238A4.458,4.458,0,0,1,45.949-4.5a4.106,4.106,0,0,1-1.676,3.475A7.336,7.336,0,0,1,39.762.234a8.712,8.712,0,0,1-3.586-.721,5.674,5.674,0,0,1-2.467-1.975,5.057,5.057,0,0,1-.85-2.906h3.527q0,2.824,3.375,2.824a3.283,3.283,0,0,0,1.957-.51A1.658,1.658,0,0,0,42.422-4.477Z" transform="translate(-4930.278 -7287.69)"/>
    <path id="Trazado_228880" data-name="Trazado 228880" d="M116.565,100.726H103.853V88.014h1.679V99.047h11.033v1.679Z" transform="translate(-5329.666 -7449.328)" fill="url(#linear-gradient-19)"/>
    <path id="Trazado_228881" data-name="Trazado 228881" d="M117.565,235.014v12.712H104.853v-1.679h11.033V235.014h1.679Z" transform="translate(-5329.827 -7472.918)" fill="url(#linear-gradient-20)"/>
    <path id="Trazado_228882" data-name="Trazado 228882" d="M261.853,234.014h12.712v12.712h-1.679V235.693H261.853v-1.679Z" transform="translate(-5355.022 -7472.757)" fill="url(#linear-gradient-21)"/>
    <path id="Trazado_228883" data-name="Trazado 228883" d="M404.353,91.514h12.712v12.712h-1.679V93.193H404.353V91.514Z" transform="translate(-5377.89 -7449.889)" fill="url(#linear-gradient-22)"/>
    <path id="Trazado_228884" data-name="Trazado 228884" d="M551.065,83.514V96.226H538.353V94.547h11.033V83.514h1.679Z" transform="translate(-5399.395 -7448.605)" fill="url(#linear-gradient-23)"/>
    <path id="Trazado_228885" data-name="Trazado 228885" d="M562.065,247.226H549.353V234.514h1.679v11.033h11.033v1.679Z" transform="translate(-5401.16 -7472.838)" fill="url(#linear-gradient-24)"/>
    <path id="Trazado_228886" data-name="Trazado 228886" d="M401.352,246.226V233.514h12.712v1.679H403.031v11.033h-1.679Z" transform="translate(-5377.409 -7472.677)" fill="url(#linear-gradient-25)"/>
    <path id="Trazado_228887" data-name="Trazado 228887" d="M242.852,94.726V82.014h12.712v1.679H244.532V94.726h-1.679Z" transform="translate(-5351.973 -7448.365)" fill="url(#linear-gradient-26)"/>
    <path id="Trazado_232176" data-name="Trazado 232176" d="M0,0H561.695V284.74H0Z" transform="translate(-5313 -7435.203)" fill="none"/>
  </g>
</svg>
