<svg id="Grupo_171327" data-name="Grupo 171327" xmlns="http://www.w3.org/2000/svg" width="29.882" height="66.241" viewBox="0 0 29.882 66.241">
  <g id="Grupo_152551" data-name="Grupo 152551" transform="translate(0 66.241) rotate(-90)">
    <rect id="Rectángulo_45220" data-name="Rectángulo 45220" width="43.969" height="20.664" transform="translate(66.241 20.664) rotate(180)" fill="#e8e8e8"/>
    <g id="Grupo_152556" data-name="Grupo 152556" transform="translate(0 11.447)">
      <rect id="Rectángulo_45221" data-name="Rectángulo 45221" width="3.511" height="3.511" transform="translate(44.77 14.924)" fill="#4adbd1"/>
      <rect id="Rectángulo_45222" data-name="Rectángulo 45222" width="3.511" height="3.511" transform="translate(37.309 14.924)" fill="#4adbd1"/>
      <rect id="Rectángulo_45223" data-name="Rectángulo 45223" width="3.511" height="3.511" transform="translate(29.847 14.924)" fill="#4adbd1"/>
      <rect id="Rectángulo_45224" data-name="Rectángulo 45224" width="3.511" height="3.511" transform="translate(22.385 14.924)" fill="#4adbd1"/>
      <rect id="Rectángulo_45225" data-name="Rectángulo 45225" width="3.511" height="3.511" transform="translate(14.924 14.924)" fill="#4adbd1"/>
      <rect id="Rectángulo_45226" data-name="Rectángulo 45226" width="3.511" height="3.511" transform="translate(7.462 14.924)" fill="#4adbd1"/>
      <rect id="Rectángulo_45227" data-name="Rectángulo 45227" width="3.511" height="3.511" transform="translate(0 14.924)" fill="#4adbd1"/>
      <rect id="Rectángulo_45232" data-name="Rectángulo 45232" width="3.511" height="3.512" transform="translate(44.77 7.462)" fill="#4adbd1"/>
      <rect id="Rectángulo_45233" data-name="Rectángulo 45233" width="3.511" height="3.512" transform="translate(37.309 7.462)" fill="#4adbd1"/>
      <rect id="Rectángulo_45234" data-name="Rectángulo 45234" width="3.511" height="3.512" transform="translate(29.847 7.462)" fill="#4adbd1"/>
      <rect id="Rectángulo_45235" data-name="Rectángulo 45235" width="3.511" height="3.512" transform="translate(22.385 7.462)" fill="#4adbd1"/>
      <rect id="Rectángulo_45236" data-name="Rectángulo 45236" width="3.511" height="3.512" transform="translate(14.924 7.462)" fill="#4adbd1"/>
      <rect id="Rectángulo_45237" data-name="Rectángulo 45237" width="3.511" height="3.512" transform="translate(7.462 7.462)" fill="#4adbd1"/>
      <rect id="Rectángulo_45238" data-name="Rectángulo 45238" width="3.511" height="3.512" transform="translate(0 7.462)" fill="#4adbd1"/>
      <rect id="Rectángulo_45243" data-name="Rectángulo 45243" width="3.511" height="3.511" transform="translate(44.77)" fill="#4adbd1"/>
      <rect id="Rectángulo_45244" data-name="Rectángulo 45244" width="3.511" height="3.511" transform="translate(37.309)" fill="#4adbd1"/>
      <rect id="Rectángulo_45245" data-name="Rectángulo 45245" width="3.511" height="3.511" transform="translate(29.847)" fill="#4adbd1"/>
      <rect id="Rectángulo_45246" data-name="Rectángulo 45246" width="3.511" height="3.511" transform="translate(22.385)" fill="#4adbd1"/>
      <rect id="Rectángulo_45247" data-name="Rectángulo 45247" width="3.511" height="3.511" transform="translate(14.924)" fill="#4adbd1"/>
      <rect id="Rectángulo_45248" data-name="Rectángulo 45248" width="3.511" height="3.511" transform="translate(7.462)" fill="#4adbd1"/>
      <rect id="Rectángulo_45249" data-name="Rectángulo 45249" width="3.511" height="3.511" fill="#4adbd1"/>
    </g>
  </g>
</svg>
