<svg xmlns="http://www.w3.org/2000/svg" width="305" height="253" viewBox="0 0 305 253">
  <g id="Grupo_180693" data-name="Grupo 180693" transform="translate(5948 10506)">
    <path id="Trazado_232177" data-name="Trazado 232177" d="M5,0H233a5,5,0,0,1,5,5V39a5,5,0,0,1-5,5H5a5,5,0,0,1-5-5V5A5,5,0,0,1,5,0Z" transform="translate(-5948 -10506)" fill="#4adbd1"/>
    <path id="Trazado_232178" data-name="Trazado 232178" d="M5,0H233a5,5,0,0,1,5,5V39a5,5,0,0,1-5,5H5a5,5,0,0,1-5-5V5A5,5,0,0,1,5,0Z" transform="translate(-5915 -10401)" fill="#e8e8e8"/>
    <path id="Trazado_232179" data-name="Trazado 232179" d="M5,0H232a5,5,0,0,1,5,5V39a5,5,0,0,1-5,5H5a5,5,0,0,1-5-5V5A5,5,0,0,1,5,0Z" transform="translate(-5931 -10454)" fill="#f4a338"/>
    <path id="Trazado_232180" data-name="Trazado 232180" d="M5,0H232a5,5,0,0,1,5,5V39a5,5,0,0,1-5,5H5a5,5,0,0,1-5-5V5A5,5,0,0,1,5,0Z" transform="translate(-5898 -10349)" fill="#dee4f0"/>
    <path id="Trazado_232181" data-name="Trazado 232181" d="M5,0H233a5,5,0,0,1,5,5V39a5,5,0,0,1-5,5H5a5,5,0,0,1-5-5V5A5,5,0,0,1,5,0Z" transform="translate(-5881 -10297)" fill="#b0c0d2"/>
    <path id="Trazado_232182" data-name="Trazado 232182" d="M10.227-3.223H4.576L3.5,0H.075L5.9-15.641H8.884L14.738,0H11.312Zm-4.78-2.61h3.91L7.391-11.687Zm12.891-5.79.1,1.343a4.058,4.058,0,0,1,3.341-1.558,3.372,3.372,0,0,1,2.75,1.085,5.062,5.062,0,0,1,.924,3.244V0h-3.1V-7.451a2.022,2.022,0,0,0-.43-1.437,1.921,1.921,0,0,0-1.429-.447,2.135,2.135,0,0,0-1.966,1.12V0h-3.1V-11.623ZM34.536,0a3.447,3.447,0,0,1-.312-1.042A3.756,3.756,0,0,1,31.292.215a4.127,4.127,0,0,1-2.831-.988,3.178,3.178,0,0,1-1.123-2.492A3.285,3.285,0,0,1,28.708-6.1a6.758,6.758,0,0,1,3.958-1H34.1v-.666a1.915,1.915,0,0,0-.414-1.289,1.627,1.627,0,0,0-1.305-.483,1.85,1.85,0,0,0-1.23.376A1.277,1.277,0,0,0,30.7-8.132H27.6A3.118,3.118,0,0,1,28.22-10a4.118,4.118,0,0,1,1.762-1.348,6.42,6.42,0,0,1,2.557-.489,5.073,5.073,0,0,1,3.411,1.08,3.777,3.777,0,0,1,1.262,3.035v5.038a5.557,5.557,0,0,0,.462,2.5V0ZM31.969-2.159a2.674,2.674,0,0,0,1.268-.306,2.011,2.011,0,0,0,.859-.822v-2h-1.16q-2.331,0-2.481,1.611l-.011.183a1.243,1.243,0,0,0,.408.956A1.586,1.586,0,0,0,31.969-2.159ZM33.15-16.5h3.384l-2.976,3.33H31.034ZM42.872,0H39.757V-16.5h3.115Zm5.833,0H45.59V-11.623h3.115Zm-3.3-14.631a1.529,1.529,0,0,1,.467-1.149,1.755,1.755,0,0,1,1.273-.451,1.759,1.759,0,0,1,1.268.451,1.52,1.52,0,0,1,.473,1.149,1.524,1.524,0,0,1-.478,1.16,1.764,1.764,0,0,1-1.262.451,1.764,1.764,0,0,1-1.262-.451A1.524,1.524,0,0,1,45.407-14.631ZM57.557-3.212a1,1,0,0,0-.564-.9,6.406,6.406,0,0,0-1.81-.585q-4.146-.87-4.146-3.523A3.194,3.194,0,0,1,52.32-10.8a5.178,5.178,0,0,1,3.357-1.037,5.573,5.573,0,0,1,3.54,1.042,3.284,3.284,0,0,1,1.327,2.707h-3.1a1.5,1.5,0,0,0-.43-1.1,1.818,1.818,0,0,0-1.343-.435,1.858,1.858,0,0,0-1.214.354,1.119,1.119,0,0,0-.43.9.957.957,0,0,0,.489.833,5.028,5.028,0,0,0,1.649.548,13.468,13.468,0,0,1,1.955.521,3.212,3.212,0,0,1,2.46,3.126A3.032,3.032,0,0,1,59.211-.768a5.885,5.885,0,0,1-3.523.983,6.147,6.147,0,0,1-2.594-.521,4.353,4.353,0,0,1-1.778-1.429,3.32,3.32,0,0,1-.645-1.96h2.943a1.621,1.621,0,0,0,.612,1.268,2.429,2.429,0,0,0,1.525.44A2.248,2.248,0,0,0,57.1-2.326,1.053,1.053,0,0,0,57.557-3.212ZM65.85,0H62.734V-11.623H65.85Zm-3.3-14.631a1.529,1.529,0,0,1,.467-1.149,1.755,1.755,0,0,1,1.273-.451,1.759,1.759,0,0,1,1.268.451,1.52,1.52,0,0,1,.473,1.149,1.524,1.524,0,0,1-.478,1.16,1.764,1.764,0,0,1-1.262.451,1.764,1.764,0,0,1-1.262-.451A1.524,1.524,0,0,1,62.552-14.631ZM74.7-3.212a1,1,0,0,0-.564-.9,6.406,6.406,0,0,0-1.81-.585q-4.146-.87-4.146-3.523A3.194,3.194,0,0,1,69.464-10.8a5.178,5.178,0,0,1,3.357-1.037,5.573,5.573,0,0,1,3.54,1.042,3.284,3.284,0,0,1,1.327,2.707h-3.1a1.5,1.5,0,0,0-.43-1.1,1.818,1.818,0,0,0-1.343-.435,1.858,1.858,0,0,0-1.214.354,1.119,1.119,0,0,0-.43.9.957.957,0,0,0,.489.833,5.028,5.028,0,0,0,1.649.548,13.468,13.468,0,0,1,1.955.521,3.212,3.212,0,0,1,2.46,3.126A3.032,3.032,0,0,1,76.355-.768a5.885,5.885,0,0,1-3.523.983,6.147,6.147,0,0,1-2.594-.521A4.353,4.353,0,0,1,68.46-1.735a3.32,3.32,0,0,1-.645-1.96h2.943a1.621,1.621,0,0,0,.612,1.268,2.429,2.429,0,0,0,1.525.44,2.248,2.248,0,0,0,1.348-.338A1.053,1.053,0,0,0,74.7-3.212Z" transform="translate(-5931 -10476)" fill="#12263f"/>
    <path id="Trazado_232183" data-name="Trazado 232183" d="M13.675-5.21a5.535,5.535,0,0,1-1.864,3.975A6.546,6.546,0,0,1,7.38.215,5.886,5.886,0,0,1,2.648-1.81,8.3,8.3,0,0,1,.924-7.369v-.956A9.376,9.376,0,0,1,1.719-12.3a5.957,5.957,0,0,1,2.272-2.637,6.364,6.364,0,0,1,3.432-.918,6.376,6.376,0,0,1,4.361,1.45A5.948,5.948,0,0,1,13.7-10.334H10.474a3.266,3.266,0,0,0-.843-2.2,3.123,3.123,0,0,0-2.208-.682,2.738,2.738,0,0,0-2.412,1.155,6.472,6.472,0,0,0-.822,3.583v1.182a6.927,6.927,0,0,0,.768,3.706A2.687,2.687,0,0,0,7.38-2.417,3.182,3.182,0,0,0,9.609-3.1a3.081,3.081,0,0,0,.843-2.111ZM15.1-5.919A6.893,6.893,0,0,1,15.77-9,4.876,4.876,0,0,1,17.687-11.1a5.594,5.594,0,0,1,2.906-.741,5.293,5.293,0,0,1,3.84,1.439,5.777,5.777,0,0,1,1.66,3.91l.021.795A6.075,6.075,0,0,1,24.621-1.4,5.19,5.19,0,0,1,20.614.215,5.216,5.216,0,0,1,16.6-1.4a6.182,6.182,0,0,1-1.5-4.383Zm3.1.22a4.345,4.345,0,0,0,.623,2.534,2.055,2.055,0,0,0,1.783.877,2.06,2.06,0,0,0,1.762-.866,4.754,4.754,0,0,0,.634-2.77,4.3,4.3,0,0,0-.634-2.518,2.06,2.06,0,0,0-1.783-.893,2.027,2.027,0,0,0-1.762.888A4.834,4.834,0,0,0,18.208-5.7Zm9.335-.2a7,7,0,0,1,1.219-4.329A3.956,3.956,0,0,1,32.1-11.838a3.56,3.56,0,0,1,2.8,1.268V-16.5h3.115V0h-2.8l-.15-1.235A3.653,3.653,0,0,1,32.076.215,3.945,3.945,0,0,1,28.784-1.4,7.23,7.23,0,0,1,27.543-5.9Zm3.1.221a4.613,4.613,0,0,0,.569,2.514,1.853,1.853,0,0,0,1.654.874A2.077,2.077,0,0,0,34.9-3.507V-8.116a2.047,2.047,0,0,0-2.009-1.219Q30.647-9.335,30.647-5.677ZM43.7,0H40.584V-11.623H43.7ZM40.4-14.631a1.529,1.529,0,0,1,.467-1.149,1.755,1.755,0,0,1,1.273-.451,1.759,1.759,0,0,1,1.268.451,1.52,1.52,0,0,1,.473,1.149,1.524,1.524,0,0,1-.478,1.16,1.764,1.764,0,0,1-1.262.451,1.764,1.764,0,0,1-1.262-.451A1.524,1.524,0,0,1,40.4-14.631ZM47.008,0V-9.346H45.278v-2.277h1.729v-.537a4.359,4.359,0,0,1,1.348-3.378A5.424,5.424,0,0,1,52.1-16.726a12.417,12.417,0,0,1,3.523.634l-.451,2.567a13.747,13.747,0,0,0-1.633-.4,8.023,8.023,0,0,0-1.246-.091q-2.17,0-2.17,1.923v.473h2.288v2.277H50.123V0ZM57.073,0H53.958V-11.623h3.115Zm7.4-2.288a2.036,2.036,0,0,0,1.4-.473,1.656,1.656,0,0,0,.559-1.257h2.911A3.982,3.982,0,0,1,68.7-1.853,4.253,4.253,0,0,1,66.961-.328a5.43,5.43,0,0,1-2.433.542A5.046,5.046,0,0,1,60.6-1.37a6.27,6.27,0,0,1-1.439-4.377v-.2a6.2,6.2,0,0,1,1.429-4.286,4.987,4.987,0,0,1,3.921-1.6A4.889,4.889,0,0,1,68-10.6a4.393,4.393,0,0,1,1.337,3.3H66.43a2.133,2.133,0,0,0-.559-1.474,1.862,1.862,0,0,0-1.418-.567,1.87,1.87,0,0,0-1.638.791,4.583,4.583,0,0,0-.553,2.566v.323a4.641,4.641,0,0,0,.548,2.582A1.893,1.893,0,0,0,64.475-2.288ZM77.849,0a3.448,3.448,0,0,1-.312-1.042A3.756,3.756,0,0,1,74.6.215a4.127,4.127,0,0,1-2.831-.988,3.178,3.178,0,0,1-1.123-2.492A3.285,3.285,0,0,1,72.021-6.1a6.758,6.758,0,0,1,3.958-1h1.429v-.666a1.915,1.915,0,0,0-.414-1.289,1.627,1.627,0,0,0-1.305-.483,1.85,1.85,0,0,0-1.23.376,1.277,1.277,0,0,0-.446,1.031h-3.1A3.118,3.118,0,0,1,71.532-10a4.118,4.118,0,0,1,1.762-1.348,6.42,6.42,0,0,1,2.557-.489,5.073,5.073,0,0,1,3.411,1.08,3.777,3.777,0,0,1,1.262,3.035v5.038a5.557,5.557,0,0,0,.462,2.5V0ZM75.281-2.159a2.674,2.674,0,0,0,1.268-.306,2.011,2.011,0,0,0,.859-.822v-2h-1.16q-2.331,0-2.481,1.611l-.011.183a1.243,1.243,0,0,0,.408.956A1.586,1.586,0,0,0,75.281-2.159Zm12.461-.129a2.036,2.036,0,0,0,1.4-.473A1.656,1.656,0,0,0,89.7-4.018h2.911a3.982,3.982,0,0,1-.645,2.165A4.253,4.253,0,0,1,90.229-.328,5.43,5.43,0,0,1,87.8.215,5.046,5.046,0,0,1,83.864-1.37a6.27,6.27,0,0,1-1.439-4.377v-.2a6.2,6.2,0,0,1,1.429-4.286,4.987,4.987,0,0,1,3.921-1.6,4.889,4.889,0,0,1,3.5,1.241,4.393,4.393,0,0,1,1.337,3.3H89.7a2.133,2.133,0,0,0-.559-1.474,1.862,1.862,0,0,0-1.418-.567,1.87,1.87,0,0,0-1.638.791,4.583,4.583,0,0,0-.553,2.566v.323a4.641,4.641,0,0,0,.548,2.582A1.893,1.893,0,0,0,87.742-2.288ZM97.657,0H94.542V-11.623h3.115Zm-3.3-14.631a1.529,1.529,0,0,1,.467-1.149,1.755,1.755,0,0,1,1.273-.451,1.759,1.759,0,0,1,1.268.451,1.52,1.52,0,0,1,.473,1.149,1.524,1.524,0,0,1-.478,1.16,1.764,1.764,0,0,1-1.262.451,1.764,1.764,0,0,1-1.262-.451A1.524,1.524,0,0,1,94.359-14.631ZM99.73-5.919A6.893,6.893,0,0,1,100.4-9a4.876,4.876,0,0,1,1.917-2.095,5.594,5.594,0,0,1,2.906-.741,5.293,5.293,0,0,1,3.84,1.439,5.777,5.777,0,0,1,1.66,3.91l.021.795A6.075,6.075,0,0,1,109.248-1.4,5.19,5.19,0,0,1,105.241.215,5.216,5.216,0,0,1,101.229-1.4a6.182,6.182,0,0,1-1.5-4.383Zm3.1.22a4.345,4.345,0,0,0,.623,2.534,2.055,2.055,0,0,0,1.783.877A2.06,2.06,0,0,0,107-3.154a4.754,4.754,0,0,0,.634-2.77A4.3,4.3,0,0,0,107-8.442a2.06,2.06,0,0,0-1.783-.893,2.027,2.027,0,0,0-1.762.888A4.834,4.834,0,0,0,102.835-5.7Zm3-10.8h3.384l-2.976,3.33h-2.524Zm9.679,4.877.1,1.343a4.058,4.058,0,0,1,3.341-1.558,3.372,3.372,0,0,1,2.75,1.085,5.062,5.062,0,0,1,.924,3.244V0h-3.1V-7.451a2.022,2.022,0,0,0-.43-1.437,1.921,1.921,0,0,0-1.429-.447,2.135,2.135,0,0,0-1.966,1.12V0h-3.1V-11.623Z" transform="translate(-5898 -10372)" fill="#12263f"/>
    <path id="Trazado_232184" data-name="Trazado 232184" d="M1.4,0V-15.641H6.209a7.308,7.308,0,0,1,3.69.929,6.479,6.479,0,0,1,2.541,2.643,8.151,8.151,0,0,1,.913,3.894v.72a8.174,8.174,0,0,1-.9,3.878A6.424,6.424,0,0,1,9.926-.945,7.363,7.363,0,0,1,6.241,0ZM4.619-13.03V-2.589H6.177a3.5,3.5,0,0,0,2.89-1.235,5.582,5.582,0,0,0,1.021-3.534v-.827A5.671,5.671,0,0,0,9.1-11.8a3.488,3.488,0,0,0-2.89-1.23ZM18.767,0H15.651V-11.623h3.115Zm-3.3-14.631a1.529,1.529,0,0,1,.467-1.149,1.755,1.755,0,0,1,1.273-.451,1.759,1.759,0,0,1,1.268.451,1.52,1.52,0,0,1,.473,1.149,1.524,1.524,0,0,1-.478,1.16,1.764,1.764,0,0,1-1.262.451,1.764,1.764,0,0,1-1.262-.451A1.524,1.524,0,0,1,15.469-14.631ZM27.618-3.212a1,1,0,0,0-.564-.9,6.406,6.406,0,0,0-1.81-.585Q21.1-5.564,21.1-8.218A3.194,3.194,0,0,1,22.381-10.8a5.178,5.178,0,0,1,3.357-1.037,5.573,5.573,0,0,1,3.54,1.042A3.284,3.284,0,0,1,30.6-8.089H27.5a1.5,1.5,0,0,0-.43-1.1,1.818,1.818,0,0,0-1.343-.435,1.858,1.858,0,0,0-1.214.354,1.119,1.119,0,0,0-.43.9.957.957,0,0,0,.489.833,5.028,5.028,0,0,0,1.649.548,13.468,13.468,0,0,1,1.955.521,3.212,3.212,0,0,1,2.46,3.126A3.032,3.032,0,0,1,29.272-.768a5.885,5.885,0,0,1-3.523.983,6.147,6.147,0,0,1-2.594-.521,4.353,4.353,0,0,1-1.778-1.429,3.32,3.32,0,0,1-.645-1.96h2.943a1.621,1.621,0,0,0,.612,1.268,2.429,2.429,0,0,0,1.525.44,2.248,2.248,0,0,0,1.348-.338A1.053,1.053,0,0,0,27.618-3.212ZM37.984.215a5.706,5.706,0,0,1-4.163-1.568,5.575,5.575,0,0,1-1.606-4.179v-.3a7.021,7.021,0,0,1,.677-3.131,4.967,4.967,0,0,1,1.917-2.127,5.382,5.382,0,0,1,2.831-.747,4.824,4.824,0,0,1,3.754,1.5,6.111,6.111,0,0,1,1.37,4.265V-4.8h-7.4a2.884,2.884,0,0,0,.908,1.826,2.744,2.744,0,0,0,1.917.688,3.351,3.351,0,0,0,2.8-1.3L42.518-1.88A4.66,4.66,0,0,1,40.627-.338,6.2,6.2,0,0,1,37.984.215Zm-.354-9.55a1.94,1.94,0,0,0-1.5.626A3.241,3.241,0,0,0,35.4-6.918h4.318v-.248a2.311,2.311,0,0,0-.559-1.6A2,2,0,0,0,37.63-9.335Zm9.754-2.288.1,1.343a4.058,4.058,0,0,1,3.341-1.558,3.372,3.372,0,0,1,2.75,1.085A5.062,5.062,0,0,1,54.5-7.509V0h-3.1V-7.451a2.022,2.022,0,0,0-.43-1.437,1.921,1.921,0,0,0-1.429-.447,2.135,2.135,0,0,0-1.966,1.12V0h-3.1V-11.623ZM53.55-16.36a3.007,3.007,0,0,1-.709,2.036,2.2,2.2,0,0,1-1.729.822,2.623,2.623,0,0,1-.725-.091,4.866,4.866,0,0,1-.875-.392,4.723,4.723,0,0,0-.806-.371,1.969,1.969,0,0,0-.537-.07.861.861,0,0,0-.639.269,1.044,1.044,0,0,0-.263.763l-1.8-.107a3.052,3.052,0,0,1,.7-2.03,2.17,2.17,0,0,1,1.724-.838,2.219,2.219,0,0,1,.607.081,6.683,6.683,0,0,1,.929.392,6.039,6.039,0,0,0,.892.376,2.035,2.035,0,0,0,.516.064.906.906,0,0,0,.65-.263,1,1,0,0,0,.274-.757ZM56.364-5.919A6.893,6.893,0,0,1,57.03-9,4.876,4.876,0,0,1,58.948-11.1a5.594,5.594,0,0,1,2.906-.741,5.293,5.293,0,0,1,3.84,1.439,5.777,5.777,0,0,1,1.66,3.91l.021.795A6.075,6.075,0,0,1,65.882-1.4,5.19,5.19,0,0,1,61.875.215,5.216,5.216,0,0,1,57.863-1.4a6.182,6.182,0,0,1-1.5-4.383Zm3.1.22a4.345,4.345,0,0,0,.623,2.534,2.055,2.055,0,0,0,1.783.877,2.06,2.06,0,0,0,1.762-.866,4.754,4.754,0,0,0,.634-2.77,4.3,4.3,0,0,0-.634-2.518,2.06,2.06,0,0,0-1.783-.893,2.027,2.027,0,0,0-1.762.888A4.834,4.834,0,0,0,59.469-5.7Z" transform="translate(-5915 -10424)" fill="#12263f"/>
    <path id="Trazado_232185" data-name="Trazado 232185" d="M4.619-5.511V0H1.4V-15.641H7.5A7.059,7.059,0,0,1,10.6-15a4.75,4.75,0,0,1,2.057,1.832,5.107,5.107,0,0,1,.72,2.7A4.491,4.491,0,0,1,11.8-6.837,6.555,6.555,0,0,1,7.444-5.511Zm0-2.61H7.5a2.831,2.831,0,0,0,1.95-.6,2.188,2.188,0,0,0,.671-1.719A2.58,2.58,0,0,0,9.442-12.3a2.528,2.528,0,0,0-1.869-.73H4.619Zm17.295-.591A8.434,8.434,0,0,0,20.8-8.8a2.274,2.274,0,0,0-2.31,1.192V0h-3.1V-11.623h2.933l.086,1.386a2.877,2.877,0,0,1,2.589-1.6,3.253,3.253,0,0,1,.967.14Zm8.454,7.53a3.893,3.893,0,0,1-3.18,1.4A3.672,3.672,0,0,1,24.336-.859a4.586,4.586,0,0,1-1-3.147v-7.616h3.1v7.518q0,1.817,1.654,1.817a2.242,2.242,0,0,0,2.17-1.1v-8.238h3.115V0H30.454Zm10.7,1.4A5.706,5.706,0,0,1,36.9-1.354,5.575,5.575,0,0,1,35.3-5.532v-.3a7.021,7.021,0,0,1,.677-3.131,4.967,4.967,0,0,1,1.917-2.127,5.382,5.382,0,0,1,2.831-.747,4.824,4.824,0,0,1,3.754,1.5,6.111,6.111,0,0,1,1.37,4.265V-4.8h-7.4a2.884,2.884,0,0,0,.908,1.826,2.744,2.744,0,0,0,1.917.688,3.351,3.351,0,0,0,2.8-1.3L45.6-1.88A4.66,4.66,0,0,1,43.71-.338,6.2,6.2,0,0,1,41.067.215Zm-.354-9.55a1.94,1.94,0,0,0-1.5.626,3.241,3.241,0,0,0-.736,1.791H42.8v-.248a2.311,2.311,0,0,0-.559-1.6A2,2,0,0,0,40.713-9.335ZM58.083-5.7a7.038,7.038,0,0,1-1.192,4.356A3.95,3.95,0,0,1,53.561.215a3.629,3.629,0,0,1-3.019-1.45L50.4,0H47.609V-16.5h3.1v5.919a3.536,3.536,0,0,1,2.825-1.257,3.982,3.982,0,0,1,3.335,1.563,7.048,7.048,0,0,1,1.208,4.4Zm-3.1-.237a4.649,4.649,0,0,0-.559-2.581,1.887,1.887,0,0,0-1.665-.814,2.047,2.047,0,0,0-2.041,1.218v4.6a2.075,2.075,0,0,0,2.063,1.228,1.917,1.917,0,0,0,1.977-1.487A7.693,7.693,0,0,0,54.979-5.941ZM66.73,0a3.448,3.448,0,0,1-.312-1.042A3.756,3.756,0,0,1,63.486.215a4.127,4.127,0,0,1-2.831-.988,3.178,3.178,0,0,1-1.123-2.492A3.285,3.285,0,0,1,60.9-6.1a6.758,6.758,0,0,1,3.958-1H66.29v-.666a1.915,1.915,0,0,0-.414-1.289,1.627,1.627,0,0,0-1.305-.483,1.85,1.85,0,0,0-1.23.376A1.277,1.277,0,0,0,62.9-8.132h-3.1A3.119,3.119,0,0,1,60.414-10a4.118,4.118,0,0,1,1.762-1.348,6.42,6.42,0,0,1,2.557-.489,5.073,5.073,0,0,1,3.411,1.08,3.777,3.777,0,0,1,1.262,3.035v5.038a5.557,5.557,0,0,0,.462,2.5V0ZM64.163-2.159a2.674,2.674,0,0,0,1.268-.306,2.011,2.011,0,0,0,.859-.822v-2H65.13q-2.331,0-2.481,1.611l-.011.183a1.243,1.243,0,0,0,.408.956A1.586,1.586,0,0,0,64.163-2.159ZM78.085-3.212a1,1,0,0,0-.564-.9,6.406,6.406,0,0,0-1.81-.585q-4.146-.87-4.146-3.523A3.194,3.194,0,0,1,72.848-10.8a5.178,5.178,0,0,1,3.357-1.037,5.573,5.573,0,0,1,3.54,1.042,3.284,3.284,0,0,1,1.327,2.707h-3.1a1.5,1.5,0,0,0-.43-1.1,1.818,1.818,0,0,0-1.343-.435,1.858,1.858,0,0,0-1.214.354,1.119,1.119,0,0,0-.43.9.957.957,0,0,0,.489.833,5.028,5.028,0,0,0,1.649.548,13.468,13.468,0,0,1,1.955.521A3.212,3.212,0,0,1,81.1-3.341,3.032,3.032,0,0,1,79.739-.768a5.885,5.885,0,0,1-3.523.983,6.147,6.147,0,0,1-2.594-.521,4.353,4.353,0,0,1-1.778-1.429A3.32,3.32,0,0,1,71.2-3.7h2.943a1.621,1.621,0,0,0,.612,1.268,2.429,2.429,0,0,0,1.525.44,2.248,2.248,0,0,0,1.348-.338A1.053,1.053,0,0,0,78.085-3.212Z" transform="translate(-5882 -10320)" fill="#12263f"/>
    <path id="Trazado_232186" data-name="Trazado 232186" d="M5.607-15.641,9.625-4.3l4-11.344h4.232V0H14.62V-4.275l.322-7.38L10.721,0H8.508L4.3-11.645l.322,7.369V0H1.4V-15.641ZM27.2,0a3.448,3.448,0,0,1-.312-1.042A3.756,3.756,0,0,1,23.955.215a4.127,4.127,0,0,1-2.831-.988A3.178,3.178,0,0,1,20-3.266,3.285,3.285,0,0,1,21.372-6.1a6.758,6.758,0,0,1,3.958-1h1.429v-.666a1.915,1.915,0,0,0-.414-1.289,1.627,1.627,0,0,0-1.305-.483,1.85,1.85,0,0,0-1.23.376,1.277,1.277,0,0,0-.446,1.031h-3.1A3.118,3.118,0,0,1,20.883-10a4.118,4.118,0,0,1,1.762-1.348,6.42,6.42,0,0,1,2.557-.489,5.073,5.073,0,0,1,3.411,1.08,3.777,3.777,0,0,1,1.262,3.035v5.038a5.557,5.557,0,0,0,.462,2.5V0ZM24.632-2.159A2.674,2.674,0,0,0,25.9-2.465a2.011,2.011,0,0,0,.859-.822v-2H25.6q-2.331,0-2.481,1.611l-.011.183a1.243,1.243,0,0,0,.408.956A1.586,1.586,0,0,0,24.632-2.159ZM35.976-14.48v2.857h1.987v2.277H35.976v5.8a1.385,1.385,0,0,0,.247.924,1.241,1.241,0,0,0,.945.279,4.951,4.951,0,0,0,.913-.075V-.064A6.391,6.391,0,0,1,36.2.215q-3.266,0-3.33-3.3V-9.346h-1.7v-2.277h1.7V-14.48ZM45.042.215a5.706,5.706,0,0,1-4.163-1.568,5.575,5.575,0,0,1-1.606-4.179v-.3a7.021,7.021,0,0,1,.677-3.131,4.967,4.967,0,0,1,1.917-2.127,5.382,5.382,0,0,1,2.831-.747,4.824,4.824,0,0,1,3.754,1.5,6.111,6.111,0,0,1,1.37,4.265V-4.8h-7.4a2.884,2.884,0,0,0,.908,1.826,2.744,2.744,0,0,0,1.917.688,3.351,3.351,0,0,0,2.8-1.3L49.575-1.88A4.66,4.66,0,0,1,47.685-.338,6.2,6.2,0,0,1,45.042.215Zm-.354-9.55a1.94,1.94,0,0,0-1.5.626,3.241,3.241,0,0,0-.736,1.791h4.318v-.248a2.311,2.311,0,0,0-.559-1.6A2,2,0,0,0,44.688-9.335Zm9.754-2.288.1,1.343a4.058,4.058,0,0,1,3.341-1.558,3.372,3.372,0,0,1,2.75,1.085,5.062,5.062,0,0,1,.924,3.244V0h-3.1V-7.451a2.022,2.022,0,0,0-.43-1.437,1.921,1.921,0,0,0-1.429-.447,2.135,2.135,0,0,0-1.966,1.12V0h-3.1V-11.623ZM67.182,0H64.066V-11.623h3.115Zm-3.3-14.631a1.529,1.529,0,0,1,.467-1.149,1.755,1.755,0,0,1,1.273-.451,1.759,1.759,0,0,1,1.268.451,1.52,1.52,0,0,1,.473,1.149,1.524,1.524,0,0,1-.478,1.16,1.764,1.764,0,0,1-1.262.451,1.764,1.764,0,0,1-1.262-.451A1.524,1.524,0,0,1,63.884-14.631Zm8.766,3.008.1,1.3a4.085,4.085,0,0,1,3.341-1.515,3.1,3.1,0,0,1,3.083,1.772,3.991,3.991,0,0,1,3.491-1.772,3.467,3.467,0,0,1,2.814,1.1A5.061,5.061,0,0,1,86.4-7.423V0H83.284V-7.429A2.222,2.222,0,0,0,82.9-8.877a1.711,1.711,0,0,0-1.364-.458A1.938,1.938,0,0,0,79.6-8l.011,8h-3.1V-7.418a2.195,2.195,0,0,0-.4-1.464,1.728,1.728,0,0,0-1.354-.452,2.011,2.011,0,0,0-1.912,1.1V0h-3.1V-11.623ZM92.061,0H88.945V-11.623h3.115Zm-3.3-14.631a1.529,1.529,0,0,1,.467-1.149,1.755,1.755,0,0,1,1.273-.451,1.759,1.759,0,0,1,1.268.451,1.52,1.52,0,0,1,.473,1.149,1.524,1.524,0,0,1-.478,1.16,1.764,1.764,0,0,1-1.262.451,1.764,1.764,0,0,1-1.262-.451A1.524,1.524,0,0,1,88.763-14.631ZM99.967.215A5.706,5.706,0,0,1,95.8-1.354,5.575,5.575,0,0,1,94.2-5.532v-.3a7.021,7.021,0,0,1,.677-3.131,4.967,4.967,0,0,1,1.917-2.127,5.382,5.382,0,0,1,2.831-.747,4.824,4.824,0,0,1,3.754,1.5,6.111,6.111,0,0,1,1.37,4.265V-4.8h-7.4a2.884,2.884,0,0,0,.908,1.826,2.744,2.744,0,0,0,1.917.688,3.351,3.351,0,0,0,2.8-1.3L104.5-1.88a4.66,4.66,0,0,1-1.891,1.542A6.2,6.2,0,0,1,99.967.215Zm-.354-9.55a1.94,1.94,0,0,0-1.5.626,3.241,3.241,0,0,0-.736,1.791H101.7v-.248a2.311,2.311,0,0,0-.559-1.6A2,2,0,0,0,99.612-9.335Zm9.754-2.288.1,1.343a4.058,4.058,0,0,1,3.341-1.558,3.372,3.372,0,0,1,2.75,1.085,5.062,5.062,0,0,1,.924,3.244V0h-3.1V-7.451a2.022,2.022,0,0,0-.43-1.437,1.921,1.921,0,0,0-1.429-.447,2.135,2.135,0,0,0-1.966,1.12V0h-3.1V-11.623Zm13.181-2.857v2.857h1.987v2.277h-1.987v5.8a1.385,1.385,0,0,0,.247.924,1.241,1.241,0,0,0,.945.279,4.951,4.951,0,0,0,.913-.075V-.064a6.391,6.391,0,0,1-1.88.279q-3.266,0-3.33-3.3V-9.346h-1.7v-2.277h1.7V-14.48Zm2.911,8.562A6.893,6.893,0,0,1,126.124-9a4.876,4.876,0,0,1,1.917-2.095,5.594,5.594,0,0,1,2.906-.741,5.293,5.293,0,0,1,3.84,1.439,5.777,5.777,0,0,1,1.66,3.91l.021.795A6.075,6.075,0,0,1,134.976-1.4,5.19,5.19,0,0,1,130.969.215,5.216,5.216,0,0,1,126.957-1.4a6.182,6.182,0,0,1-1.5-4.383Zm3.1.22a4.345,4.345,0,0,0,.623,2.534,2.055,2.055,0,0,0,1.783.877,2.06,2.06,0,0,0,1.762-.866,4.754,4.754,0,0,0,.634-2.77,4.3,4.3,0,0,0-.634-2.518,2.06,2.06,0,0,0-1.783-.893,2.027,2.027,0,0,0-1.762.888A4.834,4.834,0,0,0,128.563-5.7Z" transform="translate(-5864 -10267)" fill="#12263f"/>
    <g id="Grupo_175342" data-name="Grupo 175342" transform="translate(-5726.726 -10472.997) rotate(90)">
      <rect id="Rectángulo_54434" data-name="Rectángulo 54434" width="16.213" height="25.406" transform="translate(0 4.769)" fill="#12263f"/>
      <path id="Polígono_3" data-name="Polígono 3" d="M17.472,0,34.943,17.167H0Z" transform="translate(29.566 0) rotate(90)" fill="#12263f"/>
    </g>
    <g id="Grupo_175343" data-name="Grupo 175343" transform="translate(-5704.724 -10419.366) rotate(90)">
      <rect id="Rectángulo_54434-2" data-name="Rectángulo 54434" width="16.213" height="25.406" transform="translate(0 4.769)" fill="#12263f"/>
      <path id="Polígono_3-2" data-name="Polígono 3" d="M17.472,0,34.943,17.167H0Z" transform="translate(29.566 0) rotate(90)" fill="#12263f"/>
    </g>
    <g id="Grupo_175344" data-name="Grupo 175344" transform="translate(-5684.502 -10369.174) rotate(90)">
      <rect id="Rectángulo_54434-3" data-name="Rectángulo 54434" width="16.213" height="25.406" transform="translate(0 4.769)" fill="#12263f"/>
      <path id="Polígono_3-3" data-name="Polígono 3" d="M17.472,0,34.943,17.167H0Z" transform="translate(29.566 0) rotate(90)" fill="#12263f"/>
    </g>
    <g id="Grupo_175345" data-name="Grupo 175345" transform="translate(-5660.596 -10316.918) rotate(90)">
      <rect id="Rectángulo_54434-4" data-name="Rectángulo 54434" width="16.213" height="25.406" transform="translate(0 4.769)" fill="#12263f"/>
      <path id="Polígono_3-4" data-name="Polígono 3" d="M17.472,0,34.943,17.167H0Z" transform="translate(29.566 0) rotate(90)" fill="#12263f"/>
    </g>
  </g>
</svg>
