<svg xmlns="http://www.w3.org/2000/svg" width="117" height="117" viewBox="0 0 117 117">
  <g id="Grupo_180690" data-name="Grupo 180690" transform="translate(8874 11252)">
    <g id="OFjhNE" transform="translate(-8859.832 -11249.349)">
      <g id="Grupo_155273" data-name="Grupo 155273" transform="translate(0 0)">
        <path id="Trazado_197098" data-name="Trazado 197098" d="M4301.586,4325.147h-1.553c-8.756,0-17.513.013-26.27-.005a10.477,10.477,0,0,1-10.525-7.9,11.072,11.072,0,0,1-.337-2.671q-.034-15.391-.014-30.782c0-.267-.078-.607.054-.783.212-.284.57-.632.865-.629a1.22,1.22,0,0,1,.829.652,2.614,2.614,0,0,1,.063,1.087c0,10.059-.011,20.119.014,30.18a8.633,8.633,0,0,0,4.567,7.924,8.743,8.743,0,0,0,12.909-7.175c.021-.534.011-1.069.011-1.6q0-31.132,0-62.266v-1.271h-17.5v1.4q0,13.234,0,26.47c0,.7.219,1.666-.877,1.677-1.072.01-.929-.919-.929-1.647q0-14.088,0-28.175c0-1.551.138-1.687,1.734-1.687h17.5c.061-.836.105-1.592.173-2.344a10.552,10.552,0,0,1,3.546-6.973,2.093,2.093,0,0,0,.6-1.351c.055-3.041.007-6.083.055-9.124a4.007,4.007,0,0,1,.461-1.79c1.567-2.872,3.188-5.715,4.805-8.558.716-1.258,1.43-1.237,2.151.037,1.609,2.85,3.233,5.69,4.8,8.562a3.819,3.819,0,0,1,.429,1.7c.048,2.238.019,4.478.019,6.717v1.186c.522.023.941.06,1.362.06q19.852.005,39.7,0a10.449,10.449,0,0,1,10.883,10.75q.042,39.906.011,79.813c0,1.365-.131,1.476-1.626,1.476q-23.11,0-46.222,0c-1.638,0-1.693-.059-1.691-1.7C4301.587,4326.045,4301.586,4325.681,4301.586,4325.147Zm-2.146-84.16-.274.083v1.188q0,22.01,0,44.021c0,1.375-.133,1.511-1.478,1.514q-4.663.007-9.325,0c-1.862,0-1.89-.026-1.89-1.926q0-21.861,0-43.721v-1.344a5.957,5.957,0,0,0-.484.422,6.527,6.527,0,0,0-.424.558,9.647,9.647,0,0,0-1.5,5.61q.034,33.443.018,66.886a10.6,10.6,0,0,1-3.859,8.456,1.835,1.835,0,0,1-.556.214l.241.289h21.63c.021-.395.052-.721.052-1.049,0-2.54-.034-5.082.02-7.621.019-.872-.218-1.15-1.118-1.139-3.81.048-7.621.023-11.431.019-1.23,0-1.457-.226-1.459-1.463q-.01-6.318,0-12.635c0-1.2.279-1.48,1.469-1.48q26.072,0,52.144,0c1.334,0,1.494.161,1.495,1.513q.009,6.116,0,12.233c0,1.832,0,1.833-1.86,1.833-12.067,0-24.133.014-36.2-.024-1.037,0-1.292.294-1.275,1.294.058,3.508.044,7.02.005,10.528-.009.838.262,1.07,1.089,1.069q21.91-.034,43.82,0c.864,0,1.05-.3,1.049-1.1q-.027-39.158-.023-78.317a8.754,8.754,0,0,0-9.007-9q-20.055-.035-40.11,0c-.3,0-.6.044-1.014.076a2.783,2.783,0,0,0,.28.394,11.109,11.109,0,0,1,3.956,9.118c-.055,15.61-.022,31.22-.023,46.83,0,.3.086.673-.057.883a1.519,1.519,0,0,1-.906.694c-.256.02-.639-.388-.8-.693a2.329,2.329,0,0,1-.047-.988v-28.078c0-6.452.009-12.9-.006-19.354A8.5,8.5,0,0,0,4299.441,4240.987Zm22.686,58.845h-5.652c-.191.744.22,1.807-.969,1.838-1.285.033-.735-1.173-1.06-1.833h-5.53c-.244.729.173,1.833-1,1.841-1.235.008-.772-1.157-1.006-1.866h-5.682c0,1.055,0,2.08,0,3.1,0,.642-.076,1.275-.909,1.273-.814,0-.929-.6-.923-1.261.01-1.023,0-2.047,0-3.12h-5.649c-.184.741.175,1.87-1.022,1.867s-.815-1.141-.994-1.829h-2.253c0,3.63.029,7.17-.021,10.71-.013.894.255,1.113,1.13,1.112q24.615-.039,49.23,0c.807,0,1.109-.193,1.1-1.052-.045-3.274-.017-6.55-.022-9.826,0-.32-.038-.641-.057-.95h-9.177c-.135.782.153,1.825-.984,1.843-1.221.019-.846-1.109-1.039-1.843H4324c0,1.079-.008,2.076,0,3.073.007.657-.1,1.258-.907,1.278s-.959-.583-.964-1.238C4322.122,4301.92,4322.126,4300.891,4322.126,4299.833Zm-24.762-42.619v-26.46c0-2.37,0-2.37-2.343-2.37-1.289,0-1.29,0-1.29,1.307v54.023c0,2.283,0,2.283,2.328,2.276,1.3,0,1.3,0,1.3-1.313Q4297.365,4270.944,4297.364,4257.213Zm-9.06-28.779v55.154c0,2.411,0,2.364,2.408,2.425.979.024,1.225-.293,1.224-1.243q-.039-27.573-.022-55.149c0-.388-.048-.776-.075-1.187Zm.735-1.978h7.57c-.591-1.057-1.084-2-1.639-2.909-.374-.613-3.88-.657-4.259-.047C4290.137,4224.424,4289.636,4225.392,4289.04,4226.457Zm3.8-6.721-.8,1.452h1.581Z" transform="translate(-4262.865 -4216.879)" fill="#12263f"/>
        <path id="Trazado_197099" data-name="Trazado 197099" d="M4500.541,4416.837h-5.862c-1.8,0-1.872-.076-1.871-1.853,0-1.972.03-3.945-.012-5.916-.019-.9.348-1.309,1.22-1.309l15.242,0c.827,0,1.2.4,1.191,1.245-.023,2.173-.033,4.346,0,6.518.016.968-.446,1.315-1.339,1.312-2.134-.009-4.269,0-6.465,0-.166,1.227-.247,2.272.855,3.183a36.257,36.257,0,0,1,3.41,3.389,2.313,2.313,0,0,0,1.93.775c2.439-.047,4.88,0,7.32-.026.926-.011,1.392.329,1.32,1.292-.022.3.027.6-.006.9-.162,1.46.029,2.5,1.69,3.238,2.005.89,2.715,3.417,2.026,5.541a4.87,4.87,0,0,1-9.425-.889,4.871,4.871,0,0,1,2.9-5.112c.345-.149.892-.355.927-.6a9.61,9.61,0,0,0-.027-2.286c-.01-.1-.447-.235-.687-.237-2.239-.017-4.479-.022-6.718.011a1.407,1.407,0,0,0-.869.381q-2.191,2.132-4.328,4.32a3.571,3.571,0,0,0,.1,3.689c1.5,1.52,3.028,3.021,4.533,4.542.828.835.827,1.144-.016,2-1.67,1.686-3.365,3.347-5.025,5.042a1.12,1.12,0,0,1-1.868.027q-2.558-2.618-5.169-5.181a1.092,1.092,0,0,1-.005-1.8q2.276-2.26,4.536-4.539a3.207,3.207,0,0,0-.038-4.034c-1.324-1.322-2.642-2.651-3.981-3.958a1.47,1.47,0,0,0-.825-.484c-2.165-.04-4.331-.022-6.648-.022a16.719,16.719,0,0,0,.038,2.363c.04.267.479.553.795.687a4.829,4.829,0,0,1,3.058,4.533,4.753,4.753,0,0,1-2.96,4.487,4.853,4.853,0,0,1-6.339-2.622,4.759,4.759,0,0,1,2.621-6.3,1.167,1.167,0,0,0,.92-1.372c-.064-.8-.02-1.6-.013-2.406a1.06,1.06,0,0,1,1.229-1.209c2.271.025,4.545.04,6.816-.019a2.307,2.307,0,0,0,1.371-.58c1.182-1.082,2.233-2.312,3.445-3.354A2.939,2.939,0,0,0,4500.541,4416.837Zm-5.879-1.961h13.874v-5.152h-13.874Zm2.844,24.921,4.123,4.139,3.986-4-4.065-4.112Zm3.963-19.022c-1.129,1.165-2.323,2.286-3.359,3.538a1.632,1.632,0,0,0,.016,1.564c1.022,1.262,2.2,2.4,3.271,3.529l4.416-4.289C4504.416,4423.72,4503.03,4422.334,4501.469,4420.775Zm-13.877,15.816a3.007,3.007,0,1,0-2.978-3.039A3.086,3.086,0,0,0,4487.592,4436.591Zm31.961-2.988a2.975,2.975,0,1,0-5.949-.028,2.975,2.975,0,1,0,5.949.028Z" transform="translate(-4438.67 -4369.476)" fill="#12263f"/>
        <path id="Trazado_197100" data-name="Trazado 197100" d="M4615.412,4643.349a3.178,3.178,0,0,1,3.229,3.318,3.258,3.258,0,0,1-3.322,3.261,3.317,3.317,0,0,1-3.25-3.356A3.221,3.221,0,0,1,4615.412,4643.349Zm-.084,4.689a1.492,1.492,0,0,0,1.5-1.436,1.549,1.549,0,0,0-1.413-1.44,1.455,1.455,0,0,0-1.462,1.458A1.389,1.389,0,0,0,4615.328,4648.038Z" transform="translate(-4542.032 -4557.816)" fill="#12263f"/>
      </g>
    </g>
    <rect id="Rectángulo_58470" data-name="Rectángulo 58470" width="117" height="117" transform="translate(-8874 -11252)" fill="none"/>
  </g>
</svg>
