<svg xmlns="http://www.w3.org/2000/svg" xmlns:xlink="http://www.w3.org/1999/xlink" width="147.823" height="147.823" viewBox="0 0 147.823 147.823">
  <defs>
    <radialGradient id="radial-gradient" cx="0.076" cy="0.019" r="1.465" gradientTransform="translate(0.001)" gradientUnits="objectBoundingBox">
      <stop offset="0" stop-color="#f6f6f7"/>
      <stop offset="0.477" stop-color="#f9f9fa"/>
      <stop offset="0.715" stop-color="#fff"/>
    </radialGradient>
    <clipPath id="clip-path">
      <rect id="Rectángulo_57097" data-name="Rectángulo 57097" width="65.535" height="65.536" fill="#12263f"/>
    </clipPath>
  </defs>
  <g id="Grupo_180627" data-name="Grupo 180627" transform="translate(6050.39 6361.5)">
    <g id="Grupo_179466" data-name="Grupo 179466" transform="translate(-6050.39 -6361.5)">
      <g id="Grupo_18423" data-name="Grupo 18423" transform="translate(0 0)">
        <g id="Grupo_18421" data-name="Grupo 18421">
          <g id="Grupo_18420" data-name="Grupo 18420">
            <g id="Grupo_18419" data-name="Grupo 18419">
              <path id="Trazado_40936" data-name="Trazado 40936" d="M342.446,2219.63a73.911,73.911,0,1,1-73.91-73.909A73.91,73.91,0,0,1,342.446,2219.63Z" transform="translate(-194.623 -2145.721)" fill="#fff"/>
            </g>
          </g>
        </g>
        <path id="Trazado_40937" data-name="Trazado 40937" d="M341.412,2218.5a73.91,73.91,0,1,0-73.91,73.913A73.619,73.619,0,0,0,341.412,2218.5Z" transform="translate(-193.589 -2144.593)" fill="url(#radial-gradient)"/>
        <path id="Trazado_40938" data-name="Trazado 40938" d="M314.681,2209.3a56.416,56.416,0,1,0-56.416,56.417A56.208,56.208,0,0,0,314.681,2209.3Z" transform="translate(-184.129 -2135.145)" fill="none" stroke="#1565c0" stroke-miterlimit="10" stroke-width="6"/>
        <g id="Grupo_18422" data-name="Grupo 18422" transform="translate(13.094 41.496)">
          <path id="Trazado_40939" data-name="Trazado 40939" d="M327.8,2164.488a73.92,73.92,0,0,1-127.255,73.6,73.685,73.685,0,0,0,127.255-73.6Z" transform="translate(-200.545 -2164.488)" fill="#eceef0"/>
        </g>
      </g>
    </g>
    <g id="Grupo_179471" data-name="Grupo 179471" transform="translate(-6007.566 -6319.294)">
      <g id="Grupo_179475" data-name="Grupo 179475" clip-path="url(#clip-path)">
        <path id="Trazado_228837" data-name="Trazado 228837" d="M35.98,55.706H33.96q-12.592,0-25.183,0C3.395,55.7.021,52.363.014,47q-.027-19.237,0-38.473C.025,3.374,3.406.024,8.594.015q17.575-.029,35.151,0C49.094.025,52.4,3.4,52.43,8.805c.007,1.336,0,2.672,0,4.3,1.465,0,2.835,0,4.2,0,5.513.021,8.878,3.314,8.886,8.766q.026,17.488,0,34.976c-.009,5.322-3.316,8.641-8.6,8.675-3.905.025-7.811.011-11.717,0-5.822-.01-8.962-3.06-9.141-8.865-.007-.23-.039-.459-.083-.955M39.286,39.24q0,8.747,0,17.493c.006,3.552,1.978,5.57,5.481,5.59q6.035.034,12.07,0c3.5-.019,5.48-2.03,5.484-5.583q.017-17.406,0-34.811c0-3.584-1.9-5.529-5.477-5.565q-6.035-.061-12.07,0c-3.569.035-5.48,1.992-5.487,5.559-.013,5.773,0,11.545,0,17.318M35.929,52.51V49.116c-1.528,0-2.921-.025-4.313.008-1.144.027-2.053-.337-2.055-1.586,0-1.23.907-1.653,2.036-1.654H35.99V42.549c-1.495,0-2.939-.012-4.383,0-1.117.012-2.057-.3-2.052-1.583.005-1.259.935-1.632,2.046-1.638,1.439-.008,2.877,0,4.372,0V36.036c-1.531,0-2.973,0-4.416,0a1.8,1.8,0,0,1-2.057-2.03c0-4.141-.01-8.281.009-12.421a1.736,1.736,0,0,1,1.969-1.925c1.225,0,2.453.053,3.672-.032a1.7,1.7,0,0,0,1.207-.636,19.064,19.064,0,0,0,1.07-2.547H3.3c-.036.538-.094.99-.094,1.443q-.007,14.521,0,29.041c.006,3.6,2.021,5.566,5.687,5.576,5.073.014,10.147,0,15.22,0H35.929M49.181,13.039c0-1.57.022-2.958,0-4.345-.066-3.576-1.984-5.472-5.564-5.483-5.132-.015-10.263,0-15.4,0-6.59,0-13.179-.017-19.769.01C5.77,3.228,3.632,4.835,3.33,7.3a47.846,47.846,0,0,0-.045,5.74ZM35.971,22.97H32.833v9.785h3.138Z" transform="translate(0 0)" fill="#12263f"/>
        <path id="Trazado_228838" data-name="Trazado 228838" d="M130.074,65.666c1.978,0,3.958.036,5.935-.013,1.529-.038,2.275.589,2.239,2.162-.042,1.861-.021,3.724-.009,5.586.009,1.385-.648,1.989-2.039,1.978-4.073-.032-8.147-.026-12.22,0-1.359.007-2.062-.525-2.03-1.962q.064-2.879,0-5.76c-.034-1.428.655-2,2.014-1.992,2.037.017,4.073,0,6.11,0m-4.853,6.365h9.634V69.038h-9.634Z" transform="translate(-79.276 -42.678)" fill="#12263f"/>
        <path id="Trazado_228839" data-name="Trazado 228839" d="M130.113,106.284c-1.974,0-3.949-.014-5.923.006-1.166.012-2.152-.222-2.138-1.644.013-1.312.943-1.581,2.04-1.58q6.1.005,12.193,0c1.147,0,1.989.405,1.968,1.664-.022,1.28-.921,1.58-2.044,1.565-2.032-.027-4.064-.008-6.1-.007" transform="translate(-79.343 -66.998)" fill="#12263f"/>
        <path id="Trazado_228840" data-name="Trazado 228840" d="M128.557,121.9c1.513,0,3.027.019,4.54-.007,1.077-.019,1.885.343,1.934,1.507s-.731,1.667-1.794,1.676q-4.714.04-9.429,0c-1.082-.009-1.961-.573-1.667-1.688a2.455,2.455,0,0,1,1.711-1.42,35.668,35.668,0,0,1,4.705-.068" transform="translate(-79.363 -79.215)" fill="#12263f"/>
        <path id="Trazado_228841" data-name="Trazado 228841" d="M136.095,162.392a12.519,12.519,0,0,1-3.114-.066c-.669-.177-1.174-.979-1.752-1.5.509-.549.985-1.528,1.534-1.572a42.324,42.324,0,0,1,6.769.007,2.127,2.127,0,0,1,1.349,1.609c0,.509-.883,1.3-1.5,1.446a14.984,14.984,0,0,1-3.289.066v.011" transform="translate(-85.308 -103.44)" fill="#12263f"/>
        <path id="Trazado_228842" data-name="Trazado 228842" d="M28.556,56.164c2.563,0,5.126.025,7.689-.009a1.861,1.861,0,0,1,2.162,2.105q.01,6.116,0,12.233a1.806,1.806,0,0,1-2.036,2.05q-7.776-.009-15.553,0a1.774,1.774,0,0,1-2.043-2.015q.02-6.2.006-12.408c0-1.4.736-1.973,2.088-1.962,2.563.022,5.126.007,7.689.006M22.136,69.2H35.075V59.484H22.136Z" transform="translate(-12.204 -36.504)" fill="#12263f"/>
        <path id="Trazado_228843" data-name="Trazado 228843" d="M28.64,115.611c-2.558,0-5.117,0-7.675,0-1.1,0-2.036-.282-2.03-1.592.006-1.292.939-1.623,2.034-1.624q7.675-.012,15.35,0c1.168,0,2.17.331,2.116,1.714-.05,1.28-1.024,1.519-2.12,1.511-2.558-.018-5.117-.006-7.675-.006" transform="translate(-12.309 -73.062)" fill="#12263f"/>
        <path id="Trazado_228844" data-name="Trazado 228844" d="M25.275,134.305a32.09,32.09,0,0,1-4.527-.067,2.492,2.492,0,0,1-1.735-1.426c-.29-1.092.577-1.7,1.657-1.717,3.14-.035,6.286-.109,9.418.059a2.5,2.5,0,0,1,1.76,1.631c.173,1.061-.774,1.541-1.862,1.526-1.57-.021-3.141-.005-4.711-.006" transform="translate(-12.323 -85.191)" fill="#12263f"/>
        <rect id="Rectángulo_57094" data-name="Rectángulo 57094" width="3.009" height="3.067" transform="translate(13.22 6.651)" fill="#12263f"/>
        <rect id="Rectángulo_57095" data-name="Rectángulo 57095" width="3.06" height="3.034" transform="translate(6.671 6.678)" fill="#12263f"/>
        <rect id="Rectángulo_57096" data-name="Rectángulo 57096" width="2.901" height="3.064" transform="translate(19.794 6.726)" fill="#12263f"/>
      </g>
    </g>
  </g>
</svg>
