<svg xmlns="http://www.w3.org/2000/svg" xmlns:xlink="http://www.w3.org/1999/xlink" width="610" height="610" viewBox="0 0 610 610">
  <defs>
    <linearGradient id="linear-gradient" x1="0.5" x2="0.5" y2="1" gradientUnits="objectBoundingBox">
      <stop offset="0" stop-color="#50c7d6"/>
      <stop offset="1" stop-color="#117aad"/>
    </linearGradient>
    <clipPath id="clip-path">
      <rect id="Rectángulo_58392" data-name="Rectángulo 58392" width="610" height="610" fill="none"/>
    </clipPath>
    <clipPath id="clip-path-3">
      <path id="Trazado_232018" data-name="Trazado 232018" d="M610,305c0,168.446-136.554,305-305,305S0,473.446,0,305,136.554,0,305,0,610,136.554,610,305" fill="none"/>
    </clipPath>
    <radialGradient id="radial-gradient" cx="0.543" cy="-0.071" r="0.793" gradientTransform="matrix(0, 1, 1, 0, -0.981, 0.981)" gradientUnits="objectBoundingBox">
      <stop offset="0" stop-color="#e3e1e2"/>
      <stop offset="1" stop-color="#c8c2c6"/>
    </radialGradient>
    <clipPath id="clip-path-4">
      <rect id="Rectángulo_58388" data-name="Rectángulo 58388" width="437.09" height="437.09" fill="none"/>
    </clipPath>
    <clipPath id="clip-path-5">
      <path id="Trazado_232019" data-name="Trazado 232019" d="M484.823,266.277c0,120.7-97.847,218.545-218.545,218.545S47.732,386.976,47.732,266.277,145.579,47.732,266.277,47.732s218.545,97.846,218.545,218.545" transform="translate(-47.732 -47.732)" fill="none"/>
    </clipPath>
    <radialGradient id="radial-gradient-2" cx="0.543" cy="-0.071" r="0.793" gradientTransform="matrix(0, 1, 1, 0, -1.37, 1.37)" xlink:href="#radial-gradient"/>
    <clipPath id="clip-path-6">
      <path id="Trazado_232020" data-name="Trazado 232020" d="M69.134,230.638A162.552,162.552,0,1,0,231.686,68.086,162.552,162.552,0,0,0,69.134,230.638" transform="translate(-69.134 -68.086)" fill="#707070"/>
    </clipPath>
    <clipPath id="clip-path-7">
      <path id="Trazado_232021" data-name="Trazado 232021" d="M93.053,231.765A139.761,139.761,0,1,0,232.813,92a139.76,139.76,0,0,0-139.76,139.76" transform="translate(-93.053 -92.005)" fill="none"/>
    </clipPath>
    <linearGradient id="linear-gradient-7" x1="-0.603" y1="1.586" x2="-0.596" y2="1.586" gradientUnits="objectBoundingBox">
      <stop offset="0" stop-color="#c8c2c6"/>
      <stop offset="0.475" stop-color="#e3e1e2"/>
      <stop offset="0.964" stop-color="#fff"/>
      <stop offset="1" stop-color="#fff"/>
    </linearGradient>
    <clipPath id="clip-path-8">
      <path id="Trazado_232022" data-name="Trazado 232022" d="M98.752,212.626A114.923,114.923,0,1,0,213.674,97.7,114.922,114.922,0,0,0,98.752,212.626" transform="translate(-98.752 -97.704)" fill="none"/>
    </clipPath>
    <linearGradient id="linear-gradient-8" x1="-0.391" y1="1.378" x2="-0.386" y2="1.378" xlink:href="#linear-gradient-7"/>
    <linearGradient id="linear-gradient-9" x1="-0.13" y1="1.123" x2="-0.126" y2="1.123" gradientUnits="objectBoundingBox">
      <stop offset="0" stop-color="#7d3aeb"/>
      <stop offset="0.536" stop-color="#3a8aff"/>
      <stop offset="1" stop-color="#3688ff"/>
    </linearGradient>
    <linearGradient id="linear-gradient-10" x1="-1.812" y1="6.805" x2="-1.79" y2="6.805" gradientUnits="objectBoundingBox">
      <stop offset="0" stop-color="#8b898b"/>
      <stop offset="0.464" stop-color="#c8c2c6"/>
      <stop offset="0.916" stop-color="#6d6d6d"/>
      <stop offset="1" stop-color="#6d6d6d"/>
    </linearGradient>
    <linearGradient id="linear-gradient-11" x1="-1.812" y1="1.673" x2="-1.79" y2="1.673" xlink:href="#linear-gradient-10"/>
    <linearGradient id="linear-gradient-12" x1="-6.286" y1="4.321" x2="-6.264" y2="4.321" xlink:href="#linear-gradient-10"/>
    <linearGradient id="linear-gradient-13" x1="-4.792" y1="6.805" x2="-4.769" y2="6.805" xlink:href="#linear-gradient-10"/>
    <linearGradient id="linear-gradient-14" x1="-0.323" y1="4.321" x2="-0.301" y2="4.321" xlink:href="#linear-gradient-10"/>
    <clipPath id="clip-path-20">
      <path id="Trazado_232048" data-name="Trazado 232048" d="M102.765,33.211a51.061,51.061,0,0,0-18.688,69.751l.792,1.37A51.061,51.061,0,0,0,173.31,53.271l-.792-1.37a51.038,51.038,0,0,0-69.753-18.69" transform="translate(-77.227 -26.361)" fill="url(#linear-gradient)"/>
    </clipPath>
    <clipPath id="clip-path-21">
      <path id="Trazado_232027" data-name="Trazado 232027" d="M102.925,37.144A40.83,40.83,0,0,0,87.982,92.917l.633,1.1a40.83,40.83,0,0,0,55.771,14.945v0a40.827,40.827,0,0,0,14.943-55.773L158.7,52.09a40.809,40.809,0,0,0-55.771-14.945" transform="translate(-82.505 -31.668)" fill="none"/>
    </clipPath>
    <linearGradient id="linear-gradient-15" x1="-1.097" y1="4.814" x2="-1.081" y2="4.814" xlink:href="#linear-gradient-7"/>
    <clipPath id="clip-path-32">
      <rect id="Rectángulo_58138" data-name="Rectángulo 58138" width="28.141" height="32.473" fill="#12263f"/>
    </clipPath>
    <clipPath id="clip-path-33">
      <rect id="Rectángulo_58133" data-name="Rectángulo 58133" width="34.87" height="33.721" fill="#12263f"/>
    </clipPath>
    <clipPath id="clip-path-34">
      <rect id="Rectángulo_58430" data-name="Rectángulo 58430" width="66.743" height="66.754" fill="#12263f"/>
    </clipPath>
  </defs>
  <g id="Grupo_183806" data-name="Grupo 183806" transform="translate(10081 8629.902)">
    <g id="Grupo_180482" data-name="Grupo 180482" transform="translate(-10081 -8629.902)" clip-path="url(#clip-path)">
      <g id="Grupo_180471" data-name="Grupo 180471" opacity="0.17" style="mix-blend-mode: multiply;isolation: isolate">
        <g id="Grupo_180470" data-name="Grupo 180470">
          <g id="Grupo_180469" data-name="Grupo 180469" clip-path="url(#clip-path)">
            <g id="Grupo_180468" data-name="Grupo 180468">
              <g id="Grupo_180467" data-name="Grupo 180467" clip-path="url(#clip-path-3)">
                <rect id="Rectángulo_58385" data-name="Rectángulo 58385" width="621.579" height="621.579" transform="matrix(1, -0.019, 0.019, 1, -11.689, 0.224)" fill="url(#radial-gradient)"/>
              </g>
            </g>
          </g>
        </g>
      </g>
      <g id="Grupo_180476" data-name="Grupo 180476" transform="translate(86.455 86.455)" opacity="0.17" style="mix-blend-mode: multiply;isolation: isolate">
        <g id="Grupo_180475" data-name="Grupo 180475">
          <g id="Grupo_180474" data-name="Grupo 180474" clip-path="url(#clip-path-4)">
            <g id="Grupo_180473" data-name="Grupo 180473" transform="translate(-0.001 0)">
              <g id="Grupo_180472" data-name="Grupo 180472" clip-path="url(#clip-path-5)">
                <rect id="Rectángulo_58387" data-name="Rectángulo 58387" width="445.388" height="445.388" transform="matrix(1, -0.019, 0.019, 1, -8.376, 0.161)" fill="url(#radial-gradient-2)"/>
              </g>
            </g>
          </g>
        </g>
      </g>
    </g>
    <g id="Grupo_180484" data-name="Grupo 180484" transform="translate(-9935.25 -8486.051)" clip-path="url(#clip-path-6)">
      <path id="Trazado_232050" data-name="Trazado 232050" d="M0,0H325.1V325.1H0Z" transform="translate(0 0)" fill="#373f51"/>
    </g>
    <g id="Grupo_180493" data-name="Grupo 180493" transform="translate(-9912.458 -8463.258)" clip-path="url(#clip-path-7)">
      <rect id="Rectángulo_58398" data-name="Rectángulo 58398" width="279.521" height="279.521" transform="translate(0 0)" fill="url(#linear-gradient-7)"/>
    </g>
    <g id="Grupo_180495" data-name="Grupo 180495" transform="translate(-9881.62 -8432.42)" clip-path="url(#clip-path-8)">
      <rect id="Rectángulo_58399" data-name="Rectángulo 58399" width="307.142" height="307.142" transform="translate(-90.293 43.828) rotate(-25.892)" fill="url(#linear-gradient-8)"/>
    </g>
    <g id="Grupo_180497" data-name="Grupo 180497" transform="translate(-10081 -8629.902)" clip-path="url(#clip-path)">
      <path id="Trazado_232023" data-name="Trazado 232023" d="M524.807,278.065h0c0,135.233-109.628,244.861-244.861,244.861S35.083,413.3,35.083,278.065,144.713,33.2,279.946,33.2s244.861,109.63,244.861,244.863h0C524.807,142.832,415.179,33.2,279.946,33.2S35.083,142.832,35.083,278.065s109.63,244.861,244.863,244.861S524.807,413.3,524.807,278.065Z" transform="translate(28.461 26.935)" fill="url(#linear-gradient-9)"/>
    </g>
    <g id="Grupo_180501" data-name="Grupo 180501" transform="translate(-10081 -8629.902)" clip-path="url(#clip-path)">
      <path id="Trazado_232026" data-name="Trazado 232026" d="M142.78,105.753h0l-1.578.911A38.981,38.981,0,0,1,87.93,92.389L86.4,89.739a38.976,38.976,0,0,1,14.274-53.272l1.578-.911A38.981,38.981,0,0,1,155.524,49.83l1.531,2.65a38.981,38.981,0,0,1-14.274,53.272h0A38.981,38.981,0,0,0,157.055,52.48l-1.531-2.65a38.981,38.981,0,0,0-53.272-14.274l-1.578.911A38.976,38.976,0,0,0,86.4,89.739l1.531,2.65A38.981,38.981,0,0,0,141.2,106.664l1.578-.911Z" transform="translate(65.847 24.601)" fill="url(#linear-gradient-10)"/>
    </g>
    <g id="Grupo_180513" data-name="Grupo 180513" transform="translate(-10081 -8629.902)" clip-path="url(#clip-path)">
      <path id="Trazado_232034" data-name="Trazado 232034" d="M141.2,266.655h0l1.578.911a38.976,38.976,0,0,1,14.274,53.272l-1.529,2.65a38.981,38.981,0,0,1-53.272,14.274l-1.579-.911A38.981,38.981,0,0,1,86.4,283.579l1.531-2.65A38.981,38.981,0,0,1,141.2,266.655h0a38.981,38.981,0,0,0-53.272,14.274l-1.531,2.65a38.981,38.981,0,0,0,14.274,53.272l1.579.911a38.981,38.981,0,0,0,53.272-14.274l1.529-2.65a38.976,38.976,0,0,0-14.274-53.272l-1.578-.911Z" transform="translate(65.847 212.08)" fill="url(#linear-gradient-11)"/>
    </g>
    <g id="Grupo_180525" data-name="Grupo 180525" transform="translate(-10081 -8629.902)" clip-path="url(#clip-path)">
      <path id="Trazado_232042" data-name="Trazado 232042" d="M281.322,187.178h0v-1.822a39,39,0,0,1,39-39h3.059a39,39,0,0,1,39,39v1.822a39,39,0,0,1-39,39H320.32a39,39,0,0,1-39-39h0a39,39,0,0,0,39,39h3.059a39,39,0,0,0,39-39v-1.822a39,39,0,0,0-39-39H320.32a39,39,0,0,0-39,39v1.822Z" transform="translate(228.222 118.733)" fill="url(#linear-gradient-12)"/>
    </g>
    <g id="Grupo_180531" data-name="Grupo 180531" transform="translate(-10081 -8629.902)" clip-path="url(#clip-path)">
      <path id="Trazado_232046" data-name="Trazado 232046" d="M235.676,106.664h0l-1.578-.911A38.981,38.981,0,0,1,219.824,52.48l1.529-2.65a38.981,38.981,0,0,1,53.272-14.274l1.579.911a38.981,38.981,0,0,1,14.274,53.272l-1.53,2.65a38.981,38.981,0,0,1-53.273,14.274h0a38.981,38.981,0,0,0,53.273-14.274l1.53-2.65A38.981,38.981,0,0,0,276.2,36.467l-1.579-.911A38.981,38.981,0,0,0,221.353,49.83l-1.529,2.65A38.981,38.981,0,0,0,234.1,105.753l1.578.911Z" transform="translate(174.089 24.601)" fill="url(#linear-gradient-13)"/>
    </g>
    <rect id="Rectángulo_58424" data-name="Rectángulo 58424" width="610" height="610" transform="translate(-10081 -8629.902)" fill="none"/>
    <g id="Grupo_180548" data-name="Grupo 180548" transform="translate(-10081 -8629.902)">
      <g id="Grupo_180507" data-name="Grupo 180507" clip-path="url(#clip-path)">
        <path id="Trazado_232030" data-name="Trazado 232030" d="M95.528,185.356h0v1.822a39,39,0,0,1-39,39H53.471a39,39,0,0,1-39-39v-1.822a39,39,0,0,1,39-39H56.53a39,39,0,0,1,39,39h0a39,39,0,0,0-39-39H53.471a39,39,0,0,0-39,39v1.822a39,39,0,0,0,39,39H56.53a39,39,0,0,0,39-39v-1.822Z" transform="translate(11.74 118.733)" fill="url(#linear-gradient-14)"/>
      </g>
    </g>
    <g id="Grupo_180552" data-name="Grupo 180552" transform="translate(-9944.893 -8588.947)">
      <g id="Grupo_180550" data-name="Grupo 180550" transform="translate(0 0)" clip-path="url(#clip-path-20)">
        <path id="Trazado_232051" data-name="Trazado 232051" d="M0,0H159.76V160.839H0Z" transform="translate(-61.185 67.956) rotate(-51.563)" fill="#4adbd1"/>
      </g>
      <path id="Trazado_232049" data-name="Trazado 232049" d="M147.65,111.715l-1.7.983a42.08,42.08,0,0,1-57.483-15.4l-1.651-2.859a42.08,42.08,0,0,1,15.4-57.483l1.7-.983a42.08,42.08,0,0,1,57.483,15.4l1.651,2.859a42.08,42.08,0,0,1-15.4,57.483" transform="translate(-73.467 -22.578)" fill="#c8c2c6"/>
      <g id="Grupo_180551" data-name="Grupo 180551" transform="translate(10.314 10.372)">
        <g id="Grupo_180503" data-name="Grupo 180503" clip-path="url(#clip-path-21)">
          <rect id="Rectángulo_58403" data-name="Rectángulo 58403" width="126.756" height="127.963" transform="translate(-47.815 58.263) rotate(-54.203)" fill="url(#linear-gradient-15)"/>
        </g>
      </g>
    </g>
    <g id="Grupo_180558" data-name="Grupo 180558" transform="translate(-9909.322 -8573.221)">
      <path id="Trazado_97027" data-name="Trazado 97027" d="M-2568.311,1752.243a.8.8,0,0,1,.352.782c-.017.374,0,.749-.006,1.123s-.226.62-.533.618-.513-.243-.519-.626.013-.773-.006-1.158a.744.744,0,0,1,.36-.74Z" transform="translate(2585.045 -1752.243)" fill="#12263f"/>
      <path id="Trazado_97028" data-name="Trazado 97028" d="M-2718.485,1836.076c0,.612,0,1.162,0,1.711a1.167,1.167,0,0,1-1.3,1.306q-2.235,0-4.468,0a1.167,1.167,0,0,1-1.3-1.308c0-.55,0-1.1,0-1.707-.264,0-.505.006-.747,0a1.185,1.185,0,0,1-1.242-1.132,10.253,10.253,0,0,1,.006-1.333,1.179,1.179,0,0,1,.607-.971.466.466,0,0,0,.172-.331c.02-.468-.007-.939.017-1.406a.405.405,0,0,0-.289-.445,11.59,11.59,0,0,1-4.231-3.3,11.785,11.785,0,0,1-2.668-6.967,11.738,11.738,0,0,1,2.651-8.2,11.637,11.637,0,0,1,7.7-4.346,11.5,11.5,0,0,1,5.336.517.745.745,0,0,0,.69-.018.8.8,0,0,1,.97.18,6.5,6.5,0,0,1,.5.5.345.345,0,0,0,.451.118.346.346,0,0,0,.234-.4c-.01-.234-.012-.469,0-.7a.9.9,0,0,1,.925-.9q.914-.014,1.829,0a.874.874,0,0,1,.912.905,7.393,7.393,0,0,0,.014.773.457.457,0,0,0,.24.307.468.468,0,0,0,.386-.056,6.226,6.226,0,0,0,.5-.489.9.9,0,0,1,1.369.005q.643.625,1.262,1.275a.886.886,0,0,1-.007,1.29c-.151.163-.305.326-.472.473a.363.363,0,0,0-.125.48c.094.227.234.253.437.242.222-.011.445-.01.668,0a.877.877,0,0,1,.892.857c.022.656.022,1.313,0,1.969a.876.876,0,0,1-.9.848c-.223.007-.446.013-.668,0a.37.37,0,0,0-.431.25c-.1.226-.012.342.135.478.172.159.337.327.494.5a.869.869,0,0,1,.018,1.21c-.439.472-.887.938-1.368,1.366a3.438,3.438,0,0,1-.808.385c-.023.277-.047.647-.087,1.016-.045.414-.262.618-.6.579s-.474-.3-.444-.713c.036-.515.059-1.03.079-1.545a2.6,2.6,0,0,0-.038-.372c-.514.055-.549.092-.551.543,0,.234.006.47-.011.7a.844.844,0,0,1-.794.8c-.679.019-1.36.019-2.04,0a.876.876,0,0,1-.821-.857,7.1,7.1,0,0,1,0-.739c.006-.188-.015-.323-.231-.408a.349.349,0,0,0-.453.112,5.6,5.6,0,0,1-.523.521.843.843,0,0,1-1.207,0c-.489-.455-.958-.932-1.413-1.422a.855.855,0,0,1,0-1.13,2.674,2.674,0,0,1,.44-.453c.323-.242.337-.5.075-.824-.3,0-.626.007-.954,0a.878.878,0,0,1-.888-.895c-.01-.633-.013-1.267,0-1.9a.875.875,0,0,1,.868-.878c.246-.01.493-.01.739,0,.18.008.3-.021.375-.221.066-.184.094-.32-.078-.463a5.609,5.609,0,0,1-.473-.471.9.9,0,0,1,0-1.369,4.567,4.567,0,0,1,.494-.386l-.067-.176c-.8-.141-1.6-.346-2.409-.41a10.51,10.51,0,0,0-7.561,2.249,10.425,10.425,0,0,0-4.119,7.222,10.721,10.721,0,0,0,5.163,10.842,11.068,11.068,0,0,0,1.469.747.691.691,0,0,1,.459.708c-.011.678,0,1.356,0,2.054h.7v-3.713c-.843-.213-.989-.4-.989-1.262,0-.352-.008-.7.006-1.055a.856.856,0,0,1,.855-.849c.445-.014.891-.012,1.337,0a.878.878,0,0,1,.894.856c.023.468.024.939,0,1.407-.024.5-.295.726-1.008.911v3.7h1.584v-.358c0-1.313,0-2.627,0-3.94,0-.41.21-.639.548-.621s.5.248.5.674q.005,1.935,0,3.87v.375h1.081V1830.2c0-.528.018-1.056-.01-1.583a.876.876,0,0,0-.209-.529c-1.227-1.261-2.47-2.505-3.709-3.753a1.207,1.207,0,0,0-.131-.1c-.7.4-.959.365-1.518-.2-.239-.242-.483-.479-.714-.729a.88.88,0,0,1-.006-1.263q.432-.463.892-.9a.886.886,0,0,1,1.365,0c.215.2.415.414.623.622.653.654.677.961.079,1.753.2.176.426.349.624.547,1.078,1.078,2.146,2.166,3.227,3.241a1.742,1.742,0,0,1,.547,1.319c-.012,1.149,0,2.3,0,3.448v.394h.747V1826.6c-.053-.01-.106-.022-.16-.028a.892.892,0,0,1-.858-.9c-.02-.433-.021-.868-.005-1.3a.893.893,0,0,1,.933-.932c.41-.014.821-.011,1.231,0a.886.886,0,0,1,.935.925c.014.363.006.727,0,1.09,0,.729-.25,1.021-1,1.145v2.872c.611-.384,1.17-.692,1.682-1.064a10.711,10.711,0,0,0,3.3-3.913c.259-.516.52-.662.848-.5s.355.461.093.975a11.777,11.777,0,0,1-5.605,5.464.468.468,0,0,0-.324.532,7.1,7.1,0,0,1,0,.844,1.048,1.048,0,0,0,.41,1.041,2.465,2.465,0,0,1,.032,2.857,1.869,1.869,0,0,1-.81.354A3.836,3.836,0,0,1-2718.485,1836.076Zm.189-18.448,1.1,1.11c.492-.442.866-1.077,1.741-.809,1.048.32,1.234,1.06,1.1,2.007h1.583c-.05-.813-.044-1.531.894-1.926.963-.405,1.434.193,1.931.709l1.138-1.089c-.58-.528-1.126-1.023-.741-1.974s1.143-.926,1.922-.9v-1.576c-.808.056-1.526.04-1.92-.89-.406-.961.186-1.453.706-1.957l-1.105-1.114c-.513.563-1,1.113-1.957.7-.937-.4-.9-1.14-.877-1.911h-1.578c.1.887.01,1.609-.984,1.963-.916.327-1.337-.274-1.808-.736l-1.13,1.086c.582.523,1.1,1.035.712,1.978s-1.132.908-1.9.884v1.578c.842-.07,1.561-.017,1.929.941C-2717.187,1816.633-2717.74,1817.106-2718.3,1817.628Zm-3.719,17.4v0c1.37,0,2.74,0,4.11,0,.269,0,.392-.085.377-.363a5.476,5.476,0,0,1,0-.7c.024-.315-.091-.437-.42-.432-1.077.016-2.155.006-3.232.006-1.64,0-3.279.006-4.919-.006-.305,0-.431.1-.412.4a5.022,5.022,0,0,1,0,.667c-.022.312.085.434.419.43C-2724.732,1835.015-2723.374,1835.024-2722.016,1835.024Zm2.442,2.535h-4.9c-.042.479-.042.479.391.479,1.38,0,2.761-.014,4.141.007C-2719.572,1838.051-2719.48,1837.922-2719.573,1837.559Zm.015-1.453h-4.937l.027.348h4.91Zm-5.359-12.774.714-.687-.7-.671-.661.7Zm6.6,2.159h.946v-.965h-.946Zm-5.646,2.134v-.97h-.944v.97Z" transform="translate(2738.336 -1803.067)" fill="#12263f"/>
      <path id="Trazado_97029" data-name="Trazado 97029" d="M-2582.609,1956.984c-.918-.258-1.032-.412-1.032-1.371,0-.293-.009-.586,0-.878a.907.907,0,0,1,.962-.938q.6-.008,1.194,0a.887.887,0,0,1,.943.914c.014.339.006.679.006,1.018,0,.825-.175,1.047-1.019,1.246v.676q0,1.158,0,2.318c0,.5-.183.75-.54.745s-.514-.242-.515-.727q0-1.334,0-2.669C-2582.61,1957.2-2582.609,1957.089-2582.609,1956.984Zm.99-1.123v-.99h-.937v.99Z" transform="translate(2598.634 -1939.584)" fill="#12263f"/>
      <path id="Trazado_97030" data-name="Trazado 97030" d="M-2650.817,1936.9c.211,0,.422-.005.633,0a.884.884,0,0,1,.915.871,13.728,13.728,0,0,1,0,1.4.856.856,0,0,1-.854.853,12.784,12.784,0,0,1-1.368,0,.871.871,0,0,1-.862-.886c-.02-.432-.018-.866,0-1.3a.9.9,0,0,1,.984-.948C-2651.191,1936.892-2651,1936.894-2650.817,1936.9Zm.475,1.071h-.943v.99h.943Z" transform="translate(2662.517 -1923.875)" fill="#12263f"/>
      <path id="Trazado_97031" data-name="Trazado 97031" d="M-2616.536,1882.678c-.222,0-.445.007-.667,0a.864.864,0,0,1-.859-.844c-.016-.479-.016-.96,0-1.439a.842.842,0,0,1,.83-.831c.467-.02.936-.02,1.4,0a.867.867,0,0,1,.852.858c.022.467.023.937,0,1.4a.886.886,0,0,1-.927.856c-.21,0-.421,0-.632,0Zm.487-1.069v-.972h-.943v.972Z" transform="translate(2630.636 -1870.573)" fill="#12263f"/>
      <path id="Trazado_97032" data-name="Trazado 97032" d="M-2779.167,1893.7a2.932,2.932,0,0,1,.3.078c.452.19.907.371,1.35.58a.494.494,0,0,1,.285.667.509.509,0,0,1-.695.292c-.456-.178-.9-.379-1.347-.588a.454.454,0,0,1-.277-.6A1.675,1.675,0,0,1-2779.167,1893.7Z" transform="translate(2780.764 -1883.73)" fill="#12263f"/>
      <path id="Trazado_97033" data-name="Trazado 97033" d="M-2795.611,1959.232c.449.057.926.106,1.4.18a.513.513,0,0,1,.461.562.539.539,0,0,1-.6.472c-.476-.045-.951-.1-1.424-.177a.521.521,0,0,1-.479-.583A.562.562,0,0,1-2795.611,1959.232Z" transform="translate(2796.255 -1944.638)" fill="#12263f"/>
      <path id="Trazado_97034" data-name="Trazado 97034" d="M-2694.63,1791.632a1.507,1.507,0,0,1,.372.293c.264.355.5.732.733,1.108a.535.535,0,0,1-.11.776.526.526,0,0,1-.757-.189c-.267-.382-.527-.771-.763-1.172C-2695.38,1792.067-2695.153,1791.645-2694.63,1791.632Z" transform="translate(2702.363 -1788.855)" fill="#12263f"/>
      <path id="Trazado_97035" data-name="Trazado 97035" d="M-2791.626,2022.639c.351.01.559.137.609.435a.473.473,0,0,1-.371.588c-.511.116-1.029.211-1.549.277a.465.465,0,0,1-.53-.407.47.47,0,0,1,.355-.6C-2792.6,2022.81-2792.085,2022.728-2791.626,2022.639Z" transform="translate(2793.677 -2003.576)" fill="#12263f"/>
      <path id="Trazado_97036" data-name="Trazado 97036" d="M-2634.241,1762.65c.083.086.295.217.369.4a11.085,11.085,0,0,1,.41,1.337.522.522,0,0,1-.354.695.531.531,0,0,1-.658-.423c-.137-.422-.269-.845-.382-1.274C-2634.961,1762.984-2634.743,1762.665-2634.241,1762.65Z" transform="translate(2646.259 -1761.917)" fill="#12263f"/>
      <path id="Trazado_97037" data-name="Trazado 97037" d="M-2742.99,1838.548c.008.459-.43.745-.759.511a12.8,12.8,0,0,1-1.265-1.058.421.421,0,0,1-.009-.632c.14-.124.468-.237.577-.161a16.329,16.329,0,0,1,1.376,1.136C-2743.009,1838.4-2743,1838.512-2742.99,1838.548Z" transform="translate(2748.764 -1831.195)" fill="#12263f"/>
      <path id="Trazado_97038" data-name="Trazado 97038" d="M-2769.3,2079.036a2.3,2.3,0,0,1,.465.453.42.42,0,0,1-.172.581c-.477.268-.966.517-1.464.743a.408.408,0,0,1-.567-.206c-.067-.17-.083-.506.011-.569C-2770.491,2079.68-2769.915,2079.383-2769.3,2079.036Z" transform="translate(2772.868 -2055.996)" fill="#12263f"/>
      <path id="Trazado_97039" data-name="Trazado 97039" d="M-2731.321,2129.642c.12.1.317.179.38.321a.583.583,0,0,1-.026.513,13.693,13.693,0,0,1-1.207,1.164.449.449,0,0,1-.658-.089.45.45,0,0,1-.03-.638c.375-.4.782-.767,1.186-1.137A1.229,1.229,0,0,1-2731.321,2129.642Z" transform="translate(2737.442 -2103.035)" fill="#12263f"/>
      <path id="Trazado_97050" data-name="Trazado 97050" d="M-2496.32,1858.715a3.65,3.65,0,0,1,4.723-3.512.536.536,0,0,1,.438.682.535.535,0,0,1-.742.331,2.585,2.585,0,0,0-2.1.246,2.63,2.63,0,0,0-1.048,3.28,2.568,2.568,0,0,0,3.215,1.413,2.614,2.614,0,0,0,1.673-2.975c-.022-.1-.052-.2-.071-.308a.526.526,0,0,1,.379-.654.521.521,0,0,1,.643.4,3.647,3.647,0,0,1-.072,2.38,3.648,3.648,0,0,1-4.631,2.148A3.692,3.692,0,0,1-2496.32,1858.715Z" transform="translate(2517.466 -1847.794)" fill="#12263f"/>
      <path id="Trazado_97051" data-name="Trazado 97051" d="M-2469.11,1884.421a1.854,1.854,0,0,1-1.853-1.855,1.858,1.858,0,0,1,1.839-1.834,1.842,1.842,0,0,1,1.845,1.856A1.837,1.837,0,0,1-2469.11,1884.421Zm.769-1.857a.774.774,0,0,0-.788-.771.8.8,0,0,0-.771.8.8.8,0,0,0,.8.771A.774.774,0,0,0-2468.341,1882.564Z" transform="translate(2493.897 -1871.673)" fill="#12263f"/>
    </g>
    <path id="Trazado_232307" data-name="Trazado 232307" d="M-17.131,0l1.563-7.82h2.336a2.582,2.582,0,0,1,2.073.961A2.683,2.683,0,0,1-10.627-4.5l-.263,1.294A4.2,4.2,0,0,1-12.125-.83,3.276,3.276,0,0,1-14.4,0Zm2.868-6.612-1.08,5.4h1.106a1.446,1.446,0,0,0,1.149-.537,3.2,3.2,0,0,0,.645-1.465l.263-1.3a1.97,1.97,0,0,0-.2-1.524,1.321,1.321,0,0,0-1.176-.574ZM-7.995.113A2.025,2.025,0,0,1-9.735-.7a2.6,2.6,0,0,1-.392-2.041l.032-.215a3.886,3.886,0,0,1,1-2.159,2.556,2.556,0,0,1,1.92-.806A1.806,1.806,0,0,1-5.594-5.2a2.52,2.52,0,0,1,.322,1.909l-.134.854H-8.618a1.545,1.545,0,0,0,.2.979A.866.866,0,0,0-7.64-1.1a2.723,2.723,0,0,0,.8-.107,4.247,4.247,0,0,0,.757-.328l.263.969a3.24,3.24,0,0,1-.943.48A3.809,3.809,0,0,1-7.995.113Zm.628-4.823A.8.8,0,0,0-8-4.375a2.232,2.232,0,0,0-.406.873l.011.027h1.644l.021-.14A1.342,1.342,0,0,0-6.8-4.423.577.577,0,0,0-7.366-4.71Zm5.6,3.11a.481.481,0,0,0-.15-.451A1.857,1.857,0,0,0-2.7-2.379,2.857,2.857,0,0,1-4.052-3a1.184,1.184,0,0,1-.312-1.12,1.964,1.964,0,0,1,.795-1.289,2.689,2.689,0,0,1,1.676-.51,2.18,2.18,0,0,1,1.56.526A1.347,1.347,0,0,1,.073-4.082L.062-4.05h-1.5a.767.767,0,0,0-.1-.575.605.605,0,0,0-.529-.215.812.812,0,0,0-.537.188.735.735,0,0,0-.269.462.463.463,0,0,0,.129.443,1.82,1.82,0,0,0,.79.3,2.826,2.826,0,0,1,1.386.631A1.253,1.253,0,0,1-.26-1.665,1.89,1.89,0,0,1-1.1-.368,3.03,3.03,0,0,1-2.849.113a2.094,2.094,0,0,1-1.606-.6,1.439,1.439,0,0,1-.408-1.332l.011-.032h1.418a.765.765,0,0,0,.158.677.875.875,0,0,0,.631.209.963.963,0,0,0,.591-.172A.721.721,0,0,0-1.77-1.6ZM1.963,0H.416l1.16-5.812H3.123ZM3.4-7.2H1.856l.236-1.176H3.639Zm.14,4.238a4.8,4.8,0,0,1,.94-2.21,2.107,2.107,0,0,1,1.67-.744,1.5,1.5,0,0,1,.763.194,1.545,1.545,0,0,1,.553.546L7.7-5.812H9.048L7.92-.172A3.038,3.038,0,0,1,6.845,1.7a3.288,3.288,0,0,1-2.089.647,3.215,3.215,0,0,1-.841-.124,3.3,3.3,0,0,1-.8-.328L3.634.725a2.546,2.546,0,0,0,.628.26A2.859,2.859,0,0,0,5,1.074,1.259,1.259,0,0,0,5.884.737a1.654,1.654,0,0,0,.483-.91L6.41-.4a2.115,2.115,0,0,1-.6.383,1.722,1.722,0,0,1-.669.133,1.512,1.512,0,0,1-1.4-.857,3.038,3.038,0,0,1-.218-2.108Zm1.525.113A2.776,2.776,0,0,0,5.041-1.56.619.619,0,0,0,5.7-1.1a.987.987,0,0,0,.529-.151,1.49,1.49,0,0,0,.438-.432l.516-2.6a.671.671,0,0,0-.3-.319,1.037,1.037,0,0,0-.5-.108.972.972,0,0,0-.811.473,3.3,3.3,0,0,0-.489,1.272Zm6.429-2.2a2.48,2.48,0,0,1,.784-.642,2,2,0,0,1,.918-.221,1.269,1.269,0,0,1,1.139.561,2.341,2.341,0,0,1,.14,1.727L13.753,0H12.2l.725-3.634a1.223,1.223,0,0,0-.03-.851A.67.67,0,0,0,12.3-4.71a1.021,1.021,0,0,0-.491.129,1.591,1.591,0,0,0-.438.355L10.53,0H8.983l1.16-5.812h1.445ZM-13.656,5.388H-15.67L-16.991,12h-1.547l1.321-6.612h-2l.242-1.208h5.564Zm1.934,1.449A2.292,2.292,0,0,1-11,6.275a1.889,1.889,0,0,1,.835-.194A1.3,1.3,0,0,1-8.983,6.7a2.578,2.578,0,0,1,.14,1.856L-9.531,12h-1.547l.693-3.467a1.579,1.579,0,0,0-.005-.985.625.625,0,0,0-.591-.258,1.11,1.11,0,0,0-.494.116,1.45,1.45,0,0,0-.43.326L-12.754,12H-14.3l1.676-8.379h1.547ZM-6.8,12H-8.344l1.16-5.812h1.547Zm1.439-7.2H-6.9l.236-1.176h1.547ZM-3.1,6.944A2.48,2.48,0,0,1-2.318,6.3,2,2,0,0,1-1.4,6.081,1.269,1.269,0,0,1-.26,6.642a2.341,2.341,0,0,1,.14,1.727L-.846,12H-2.4l.725-3.634a1.223,1.223,0,0,0-.03-.851A.67.67,0,0,0-2.3,7.29a1.021,1.021,0,0,0-.491.129,1.591,1.591,0,0,0-.438.355L-4.069,12H-5.615l1.16-5.812H-3.01ZM2.656,9.567H2.285L1.8,12H.255L1.931,3.621H3.478L2.527,8.375h.338l1.6-2.186H6.217l.011.027L4.042,8.81,5.363,12H3.591ZM7.458,12H5.911l1.16-5.812H8.618ZM8.9,4.8H7.35l.236-1.176H9.134Zm2.256,2.146a2.48,2.48,0,0,1,.784-.642,2,2,0,0,1,.918-.221,1.269,1.269,0,0,1,1.139.561,2.341,2.341,0,0,1,.14,1.727L13.409,12H11.857l.725-3.634a1.223,1.223,0,0,0-.03-.851.67.67,0,0,0-.594-.226,1.021,1.021,0,0,0-.491.129,1.591,1.591,0,0,0-.438.355L10.186,12H8.639L9.8,6.188h1.445Zm3.728,2.092a4.8,4.8,0,0,1,.94-2.21,2.107,2.107,0,0,1,1.67-.744,1.5,1.5,0,0,1,.763.194,1.545,1.545,0,0,1,.553.546l.231-.633h1.348l-1.128,5.64A3.038,3.038,0,0,1,18.184,13.7a3.288,3.288,0,0,1-2.089.647,3.215,3.215,0,0,1-.841-.124,3.3,3.3,0,0,1-.8-.328l.521-1.171a2.546,2.546,0,0,0,.628.26,2.859,2.859,0,0,0,.736.089,1.259,1.259,0,0,0,.886-.337,1.654,1.654,0,0,0,.483-.91l.043-.23a2.115,2.115,0,0,1-.6.383,1.722,1.722,0,0,1-.669.133,1.512,1.512,0,0,1-1.4-.857,3.038,3.038,0,0,1-.218-2.108Zm1.525.113a2.776,2.776,0,0,0-.027,1.291.619.619,0,0,0,.661.465.987.987,0,0,0,.529-.151,1.49,1.49,0,0,0,.438-.432l.516-2.6a.671.671,0,0,0-.3-.319,1.037,1.037,0,0,0-.5-.108.972.972,0,0,0-.811.473,3.3,3.3,0,0,0-.489,1.272Z" transform="translate(-9894 -8523)" fill="#12263f"/>
    <g id="Grupo_180559" data-name="Grupo 180559" transform="translate(-9701.892 -8588.947)">
      <g id="Grupo_180550-2" data-name="Grupo 180550" transform="translate(0 0)" clip-path="url(#clip-path-20)">
        <path id="Trazado_232051-2" data-name="Trazado 232051" d="M0,0H159.76V160.839H0Z" transform="translate(-61.185 67.956) rotate(-51.563)" fill="#4adbd1"/>
      </g>
      <path id="Trazado_232049-2" data-name="Trazado 232049" d="M147.65,111.715l-1.7.983a42.08,42.08,0,0,1-57.483-15.4l-1.651-2.859a42.08,42.08,0,0,1,15.4-57.483l1.7-.983a42.08,42.08,0,0,1,57.483,15.4l1.651,2.859a42.08,42.08,0,0,1-15.4,57.483" transform="translate(-73.467 -22.578)" fill="#c8c2c6"/>
      <g id="Grupo_180551-2" data-name="Grupo 180551" transform="translate(10.314 10.372)">
        <g id="Grupo_180503-2" data-name="Grupo 180503" clip-path="url(#clip-path-21)">
          <rect id="Rectángulo_58403-2" data-name="Rectángulo 58403" width="126.756" height="127.963" transform="translate(-47.815 58.263) rotate(-54.203)" fill="url(#linear-gradient-15)"/>
        </g>
      </g>
    </g>
    <path id="Trazado_232312" data-name="Trazado 232312" d="M-14.174-2.052a.827.827,0,0,0-.322-.7,4.227,4.227,0,0,0-1.16-.516A8.224,8.224,0,0,1-16.983-3.8a2.168,2.168,0,0,1-1.332-1.939,1.888,1.888,0,0,1,.357-1.131,2.33,2.33,0,0,1,1.026-.776,3.861,3.861,0,0,1,1.5-.279,3.515,3.515,0,0,1,1.493.3,2.378,2.378,0,0,1,1.018.857,2.242,2.242,0,0,1,.363,1.257h-1.611a1.055,1.055,0,0,0-.338-.835,1.391,1.391,0,0,0-.951-.3,1.486,1.486,0,0,0-.918.25.788.788,0,0,0-.328.658.754.754,0,0,0,.384.639,4.339,4.339,0,0,0,1.131.483,4.885,4.885,0,0,1,2,1.026,2.043,2.043,0,0,1,.628,1.525A1.882,1.882,0,0,1-13.326-.47a3.362,3.362,0,0,1-2.068.577,3.993,3.993,0,0,1-1.644-.33,2.6,2.6,0,0,1-1.131-.905,2.318,2.318,0,0,1-.389-1.332h1.617q0,1.294,1.547,1.294a1.5,1.5,0,0,0,.9-.234A.76.76,0,0,0-14.174-2.052ZM-5.328-2.6A2.767,2.767,0,0,1-6.26-.618,3.273,3.273,0,0,1-8.476.107,2.943,2.943,0,0,1-10.842-.905a4.151,4.151,0,0,1-.862-2.78v-.478a4.688,4.688,0,0,1,.4-1.987A2.979,2.979,0,0,1-10.17-7.469a3.182,3.182,0,0,1,1.716-.459A3.188,3.188,0,0,1-6.273-7.2a2.974,2.974,0,0,1,.956,2.036H-6.929a1.633,1.633,0,0,0-.422-1.1,1.561,1.561,0,0,0-1.1-.341,1.369,1.369,0,0,0-1.206.577,3.236,3.236,0,0,0-.411,1.791v.591a3.463,3.463,0,0,0,.384,1.853,1.344,1.344,0,0,0,1.211.585A1.591,1.591,0,0,0-7.361-1.55,1.54,1.54,0,0,0-6.939-2.6Zm3.953-.258H-2.659V0H-4.27V-7.82h2.906A3.285,3.285,0,0,1,.773-7.2a2.132,2.132,0,0,1,.752,1.746,2.406,2.406,0,0,1-.346,1.335,2.363,2.363,0,0,1-1.05.851l1.692,3.2V0H.091ZM-2.659-4.168h1.3a1.331,1.331,0,0,0,.94-.309,1.1,1.1,0,0,0,.333-.851A1.182,1.182,0,0,0-.4-6.2a1.306,1.306,0,0,0-.964-.317H-2.659ZM8.669-7.82v5.151a2.637,2.637,0,0,1-.8,2.03A3.1,3.1,0,0,1,5.672.107,3.131,3.131,0,0,1,3.5-.618,2.592,2.592,0,0,1,2.675-2.61V-7.82H4.286v5.162a1.49,1.49,0,0,0,.368,1.12,1.412,1.412,0,0,0,1.018.352q1.359,0,1.38-1.429v-5.2Zm3.427,0L14.1-2.148l2-5.672h2.116V0H16.6V-2.138l.161-3.69L14.652,0H13.546L11.44-5.822,11.6-2.138V0H9.99V-7.82Z" transform="translate(-9651 -8516)" fill="#12263f"/>
    <g id="Grupo_180561" data-name="Grupo 180561" transform="translate(-9582.539 -8391.947)">
      <g id="Grupo_180550-3" data-name="Grupo 180550" transform="translate(0 0)" clip-path="url(#clip-path-20)">
        <path id="Trazado_232051-3" data-name="Trazado 232051" d="M0,0H159.76V160.839H0Z" transform="translate(-61.185 67.956) rotate(-51.563)" fill="#4adbd1"/>
      </g>
      <path id="Trazado_232049-3" data-name="Trazado 232049" d="M147.65,111.715l-1.7.983a42.08,42.08,0,0,1-57.483-15.4l-1.651-2.859a42.08,42.08,0,0,1,15.4-57.483l1.7-.983a42.08,42.08,0,0,1,57.483,15.4l1.651,2.859a42.08,42.08,0,0,1-15.4,57.483" transform="translate(-73.467 -22.578)" fill="#c8c2c6"/>
      <g id="Grupo_180551-3" data-name="Grupo 180551" transform="translate(10.314 10.372)">
        <g id="Grupo_180503-3" data-name="Grupo 180503" clip-path="url(#clip-path-21)">
          <rect id="Rectángulo_58403-3" data-name="Rectángulo 58403" width="126.756" height="127.963" transform="translate(-47.815 58.263) rotate(-54.203)" fill="url(#linear-gradient-15)"/>
        </g>
      </g>
    </g>
    <path id="Trazado_232311" data-name="Trazado 232311" d="M-17.717.107A2.853,2.853,0,0,1-19.8-.677a2.787,2.787,0,0,1-.8-2.089v-.15a3.511,3.511,0,0,1,.338-1.566A2.483,2.483,0,0,1-19.3-5.546a2.691,2.691,0,0,1,1.415-.373,2.412,2.412,0,0,1,1.877.752,3.056,3.056,0,0,1,.685,2.132V-2.4h-3.7a1.442,1.442,0,0,0,.454.913,1.372,1.372,0,0,0,.959.344,1.675,1.675,0,0,0,1.4-.65l.763.854a2.33,2.33,0,0,1-.945.771A3.1,3.1,0,0,1-17.717.107Zm-.177-4.775a.97.97,0,0,0-.749.313,1.62,1.62,0,0,0-.368.9h2.159v-.124a1.156,1.156,0,0,0-.279-.8A1,1,0,0,0-17.894-4.667Zm6.349-.457,1.466-2.7h1.853L-10.5-3.942-8.167,0h-1.875l-1.5-2.739L-13.049,0h-1.875l2.336-3.942L-14.865-7.82h1.853ZM-5.6-7.24v1.429h.994v1.139H-5.6v2.9a.693.693,0,0,0,.124.462A.62.62,0,0,0-5-1.171a2.475,2.475,0,0,0,.457-.038V-.032a3.2,3.2,0,0,1-.94.14A1.482,1.482,0,0,1-7.152-1.542V-4.673H-8V-5.812h.849V-7.24ZM-.475-4.356A4.217,4.217,0,0,0-1.034-4.4a1.137,1.137,0,0,0-1.155.6V0H-3.741V-5.812h1.466l.043.693a1.438,1.438,0,0,1,1.294-.8,1.626,1.626,0,0,1,.483.07ZM2.844.107A2.853,2.853,0,0,1,.763-.677a2.787,2.787,0,0,1-.8-2.089v-.15A3.511,3.511,0,0,1,.3-4.482a2.483,2.483,0,0,1,.959-1.063,2.691,2.691,0,0,1,1.415-.373,2.412,2.412,0,0,1,1.877.752,3.056,3.056,0,0,1,.685,2.132V-2.4h-3.7a1.442,1.442,0,0,0,.454.913,1.372,1.372,0,0,0,.959.344,1.675,1.675,0,0,0,1.4-.65l.763.854a2.33,2.33,0,0,1-.945.771A3.1,3.1,0,0,1,2.844.107ZM2.667-4.667a.97.97,0,0,0-.749.313,1.62,1.62,0,0,0-.368.9H3.709v-.124a1.156,1.156,0,0,0-.279-.8A1,1,0,0,0,2.667-4.667Zm4.9-1.144.048.65a2.042,2.042,0,0,1,1.67-.757,1.55,1.55,0,0,1,1.542.886,2,2,0,0,1,1.746-.886,1.733,1.733,0,0,1,1.407.551,2.531,2.531,0,0,1,.462,1.657V0H12.888V-3.715a1.111,1.111,0,0,0-.193-.724.856.856,0,0,0-.682-.229A.969.969,0,0,0,11.046-4l.005,4H9.5V-3.709a1.1,1.1,0,0,0-.2-.732.864.864,0,0,0-.677-.226,1.006,1.006,0,0,0-.956.549V0H6.115V-5.812ZM18.313.107a2.853,2.853,0,0,1-2.081-.784,2.787,2.787,0,0,1-.8-2.089v-.15a3.511,3.511,0,0,1,.338-1.566,2.483,2.483,0,0,1,.959-1.063,2.691,2.691,0,0,1,1.415-.373,2.412,2.412,0,0,1,1.877.752A3.056,3.056,0,0,1,20.7-3.035V-2.4H17a1.442,1.442,0,0,0,.454.913,1.372,1.372,0,0,0,.959.344,1.675,1.675,0,0,0,1.4-.65l.763.854a2.33,2.33,0,0,1-.945.771A3.1,3.1,0,0,1,18.313.107Zm-.177-4.775a.97.97,0,0,0-.749.313,1.62,1.62,0,0,0-.368.9h2.159v-.124a1.156,1.156,0,0,0-.279-.8A1,1,0,0,0,18.135-4.667Z" transform="translate(-9531.648 -8318)" fill="#12263f"/>
    <path id="Trazado_232313" data-name="Trazado 232313" d="M-48.024-12.086l3.1,8.766,3.088-8.766h3.271V0h-2.5V-3.3l.249-5.7L-44.073,0h-1.71l-3.254-9,.249,5.694V0h-2.49V-12.086ZM-32.41.166a4.409,4.409,0,0,1-3.217-1.212,4.308,4.308,0,0,1-1.241-3.229v-.232a5.426,5.426,0,0,1,.523-2.42,3.838,3.838,0,0,1,1.482-1.644,4.159,4.159,0,0,1,2.187-.577,3.727,3.727,0,0,1,2.9,1.162,4.722,4.722,0,0,1,1.058,3.3v.979h-5.719a2.229,2.229,0,0,0,.7,1.411,2.12,2.12,0,0,0,1.482.531,2.589,2.589,0,0,0,2.167-1l1.179,1.32A3.6,3.6,0,0,1-30.368-.261,4.793,4.793,0,0,1-32.41.166Zm-.274-7.379a1.5,1.5,0,0,0-1.158.484,2.5,2.5,0,0,0-.569,1.384h3.337v-.192a1.786,1.786,0,0,0-.432-1.238A1.547,1.547,0,0,0-32.684-7.213Zm8.2-3.976v2.208h1.536v1.76h-1.536v4.482a1.07,1.07,0,0,0,.191.714.959.959,0,0,0,.73.216,3.826,3.826,0,0,0,.706-.058V-.05a4.939,4.939,0,0,1-1.453.216,2.29,2.29,0,0,1-2.573-2.548V-7.222h-1.312v-1.76h1.312v-2.208Zm2.25,6.616a5.327,5.327,0,0,1,.515-2.382,3.768,3.768,0,0,1,1.482-1.619,4.323,4.323,0,0,1,2.245-.573,4.09,4.09,0,0,1,2.968,1.112,4.464,4.464,0,0,1,1.282,3.021l.017.614a4.694,4.694,0,0,1-1.154,3.316,4.011,4.011,0,0,1-3.1,1.249,4.031,4.031,0,0,1-3.1-1.245,4.777,4.777,0,0,1-1.158-3.387Zm2.4.17a3.357,3.357,0,0,0,.481,1.958,1.588,1.588,0,0,0,1.378.678,1.592,1.592,0,0,0,1.361-.669,3.674,3.674,0,0,0,.49-2.141,3.324,3.324,0,0,0-.49-1.945,1.592,1.592,0,0,0-1.378-.69,1.566,1.566,0,0,0-1.361.686A3.735,3.735,0,0,0-19.835-4.4Zm7.213-.154A5.413,5.413,0,0,1-11.679-7.9,3.057,3.057,0,0,1-9.1-9.147a2.751,2.751,0,0,1,2.167.979V-12.75h2.407V0H-6.695l-.116-.955A2.823,2.823,0,0,1-9.118.166a3.049,3.049,0,0,1-2.544-1.249A5.587,5.587,0,0,1-12.621-4.557Zm2.4.171a3.565,3.565,0,0,0,.44,1.943A1.432,1.432,0,0,0-8.5-1.768,1.6,1.6,0,0,0-6.935-2.71V-6.271a1.582,1.582,0,0,0-1.552-.942Q-10.222-7.213-10.222-4.386Zm7.18-.187a5.327,5.327,0,0,1,.515-2.382A3.768,3.768,0,0,1-1.046-8.575,4.323,4.323,0,0,1,1.2-9.147,4.09,4.09,0,0,1,4.167-8.035,4.464,4.464,0,0,1,5.449-5.014l.017.614A4.694,4.694,0,0,1,4.312-1.083,4.011,4.011,0,0,1,1.216.166a4.031,4.031,0,0,1-3.1-1.245A4.777,4.777,0,0,1-3.042-4.466Zm2.4.17A3.357,3.357,0,0,0-.162-2.446a1.588,1.588,0,0,0,1.378.678,1.592,1.592,0,0,0,1.361-.669,3.674,3.674,0,0,0,.49-2.141,3.324,3.324,0,0,0-.49-1.945A1.592,1.592,0,0,0,1.2-7.213a1.566,1.566,0,0,0-1.361.686A3.735,3.735,0,0,0-.643-4.4ZM9.475,0H7.068V-12.75H9.475Zm1.6-4.574a5.327,5.327,0,0,1,.515-2.382,3.768,3.768,0,0,1,1.482-1.619,4.323,4.323,0,0,1,2.245-.573,4.09,4.09,0,0,1,2.968,1.112,4.464,4.464,0,0,1,1.282,3.021l.017.614a4.694,4.694,0,0,1-1.154,3.316,4.011,4.011,0,0,1-3.1,1.249,4.031,4.031,0,0,1-3.1-1.245,4.777,4.777,0,0,1-1.158-3.387Zm2.4.17a3.357,3.357,0,0,0,.481,1.958,1.588,1.588,0,0,0,1.378.678A1.592,1.592,0,0,0,16.7-2.437a3.674,3.674,0,0,0,.49-2.141,3.324,3.324,0,0,0-.49-1.945,1.592,1.592,0,0,0-1.378-.69,1.566,1.566,0,0,0-1.361.686A3.735,3.735,0,0,0,13.476-4.4Zm7.238-.154A5.264,5.264,0,0,1,21.7-7.886,3.187,3.187,0,0,1,24.35-9.147a2.8,2.8,0,0,1,2.3,1.013l.1-.847h2.175V-.3a3.839,3.839,0,0,1-.535,2.05A3.439,3.439,0,0,1,26.882,3.08a5.3,5.3,0,0,1-2.274.457,4.925,4.925,0,0,1-1.926-.394,3.418,3.418,0,0,1-1.419-1.017L22.325.664a2.81,2.81,0,0,0,2.175,1,2.057,2.057,0,0,0,1.486-.51,1.915,1.915,0,0,0,.531-1.448V-.772a2.775,2.775,0,0,1-2.183.938A3.179,3.179,0,0,1,21.715-1.1a5.262,5.262,0,0,1-1-3.358Zm2.4.171a3.3,3.3,0,0,0,.49,1.922,1.557,1.557,0,0,0,1.345.7,1.665,1.665,0,0,0,1.569-.826V-6.388a1.661,1.661,0,0,0-1.552-.826,1.566,1.566,0,0,0-1.357.709A3.715,3.715,0,0,0,23.114-4.386ZM33.357,0h-2.4V-8.981h2.4Zm-.706-12.625h2.615L34.081-11.3l-1.114,1.247H31.016l1.335-2.1ZM40.628,0a2.664,2.664,0,0,1-.241-.805,2.9,2.9,0,0,1-2.266.971A3.189,3.189,0,0,1,35.934-.6a2.456,2.456,0,0,1-.867-1.926,2.538,2.538,0,0,1,1.058-2.191,5.222,5.222,0,0,1,3.059-.772h1.1V-6a1.48,1.48,0,0,0-.32-1,1.257,1.257,0,0,0-1.009-.374,1.429,1.429,0,0,0-.95.291.987.987,0,0,0-.344.8h-2.4a2.41,2.41,0,0,1,.481-1.444A3.182,3.182,0,0,1,37.109-8.77a4.961,4.961,0,0,1,1.976-.378,3.92,3.92,0,0,1,2.635.834A2.918,2.918,0,0,1,42.7-5.968v3.893a4.294,4.294,0,0,0,.357,1.934V0ZM38.644-1.668a2.066,2.066,0,0,0,.979-.237,1.554,1.554,0,0,0,.664-.635V-4.084h-.9q-1.8,0-1.917,1.245l-.008.141a.96.96,0,0,0,.315.739A1.225,1.225,0,0,0,38.644-1.668ZM49.4-2.482a.773.773,0,0,0-.436-.693,4.95,4.95,0,0,0-1.4-.452q-3.2-.672-3.2-2.723a2.468,2.468,0,0,1,.992-2,4,4,0,0,1,2.594-.8,4.307,4.307,0,0,1,2.735.805A2.538,2.538,0,0,1,51.71-6.25h-2.4a1.161,1.161,0,0,0-.332-.851,1.405,1.405,0,0,0-1.038-.336A1.436,1.436,0,0,0,47-7.164a.865.865,0,0,0-.332.7.739.739,0,0,0,.378.643,3.885,3.885,0,0,0,1.274.423,10.407,10.407,0,0,1,1.511.4,2.482,2.482,0,0,1,1.9,2.416A2.343,2.343,0,0,1,50.68-.594a4.548,4.548,0,0,1-2.723.76,4.75,4.75,0,0,1-2-.4,3.363,3.363,0,0,1-1.374-1.1,2.565,2.565,0,0,1-.5-1.515h2.274a1.252,1.252,0,0,0,.473.979,1.877,1.877,0,0,0,1.179.34A1.737,1.737,0,0,0,49.049-1.8.814.814,0,0,0,49.4-2.482ZM-16.755,20A2.664,2.664,0,0,1-17,19.195a2.9,2.9,0,0,1-2.266.971,3.189,3.189,0,0,1-2.187-.764,2.456,2.456,0,0,1-.867-1.926,2.538,2.538,0,0,1,1.058-2.191,5.222,5.222,0,0,1,3.059-.772h1.1V14a1.48,1.48,0,0,0-.32-1,1.257,1.257,0,0,0-1.009-.374,1.429,1.429,0,0,0-.95.291.987.987,0,0,0-.344.8h-2.4a2.41,2.41,0,0,1,.481-1.444,3.182,3.182,0,0,1,1.361-1.042,4.961,4.961,0,0,1,1.976-.378,3.92,3.92,0,0,1,2.635.834,2.918,2.918,0,0,1,.975,2.345v3.893a4.294,4.294,0,0,0,.357,1.934V20Zm-1.984-1.668a2.066,2.066,0,0,0,.979-.237,1.554,1.554,0,0,0,.664-.635V15.916h-.9q-1.8,0-1.917,1.245l-.008.141a.96.96,0,0,0,.315.739A1.225,1.225,0,0,0-18.739,18.332Zm5.545-2.889a5.264,5.264,0,0,1,.984-3.329,3.187,3.187,0,0,1,2.652-1.262,2.8,2.8,0,0,1,2.3,1.013l.1-.847h2.175V19.7a3.839,3.839,0,0,1-.535,2.05A3.439,3.439,0,0,1-7.027,23.08a5.3,5.3,0,0,1-2.274.457,4.925,4.925,0,0,1-1.926-.394,3.418,3.418,0,0,1-1.419-1.017l1.063-1.461a2.81,2.81,0,0,0,2.175,1,2.057,2.057,0,0,0,1.486-.51,1.915,1.915,0,0,0,.531-1.448v-.481a2.775,2.775,0,0,1-2.183.938A3.179,3.179,0,0,1-12.194,18.9a5.262,5.262,0,0,1-1-3.358Zm2.4.171a3.3,3.3,0,0,0,.49,1.922,1.557,1.557,0,0,0,1.345.7,1.665,1.665,0,0,0,1.569-.826V13.612a1.661,1.661,0,0,0-1.552-.826A1.566,1.566,0,0,0-10.3,13.5,3.715,3.715,0,0,0-10.8,15.614ZM-.61,20H-3.017V11.019H-.61ZM-3.158,8.694A1.181,1.181,0,0,1-2.8,7.806a1.356,1.356,0,0,1,.984-.349,1.36,1.36,0,0,1,.979.349,1.175,1.175,0,0,1,.365.888,1.178,1.178,0,0,1-.369.9,1.363,1.363,0,0,1-.975.349,1.363,1.363,0,0,1-.975-.349A1.178,1.178,0,0,1-3.158,8.694ZM3.9,20H1.49V7.25H3.9Zm6.109.166A4.409,4.409,0,0,1,6.79,18.954a4.308,4.308,0,0,1-1.241-3.229v-.232a5.426,5.426,0,0,1,.523-2.42,3.838,3.838,0,0,1,1.482-1.644,4.159,4.159,0,0,1,2.187-.577,3.727,3.727,0,0,1,2.9,1.162,4.722,4.722,0,0,1,1.058,3.3v.979H7.981a2.229,2.229,0,0,0,.7,1.411,2.12,2.12,0,0,0,1.482.531,2.589,2.589,0,0,0,2.167-1l1.179,1.32a3.6,3.6,0,0,1-1.461,1.191A4.793,4.793,0,0,1,10.007,20.166Zm-.274-7.379a1.5,1.5,0,0,0-1.158.484,2.5,2.5,0,0,0-.569,1.384h3.337v-.192a1.786,1.786,0,0,0-.432-1.238A1.547,1.547,0,0,0,9.733,12.787Zm10.193,4.731a.773.773,0,0,0-.436-.693,4.95,4.95,0,0,0-1.4-.452q-3.2-.672-3.2-2.723a2.468,2.468,0,0,1,.992-2,4,4,0,0,1,2.594-.8,4.307,4.307,0,0,1,2.735.805,2.538,2.538,0,0,1,1.025,2.092h-2.4A1.161,1.161,0,0,0,19.5,12.9a1.405,1.405,0,0,0-1.038-.336,1.436,1.436,0,0,0-.938.274.865.865,0,0,0-.332.7.739.739,0,0,0,.378.643,3.885,3.885,0,0,0,1.274.423,10.407,10.407,0,0,1,1.511.4,2.482,2.482,0,0,1,1.9,2.416A2.343,2.343,0,0,1,21.2,19.406a4.548,4.548,0,0,1-2.723.76,4.75,4.75,0,0,1-2-.4,3.363,3.363,0,0,1-1.374-1.1,2.565,2.565,0,0,1-.5-1.515H16.88a1.252,1.252,0,0,0,.473.979,1.877,1.877,0,0,0,1.179.34,1.737,1.737,0,0,0,1.042-.261A.814.814,0,0,0,19.926,17.518Z" transform="translate(-9776.219 -8303.251)" fill="#12263f"/>
    <g id="Grupo_180563" data-name="Grupo 180563" transform="translate(-9702.466 -8160.947)">
      <g id="Grupo_180550-4" data-name="Grupo 180550" transform="translate(0 0)" clip-path="url(#clip-path-20)">
        <path id="Trazado_232051-4" data-name="Trazado 232051" d="M0,0H159.76V160.839H0Z" transform="translate(-61.185 67.956) rotate(-51.563)" fill="#4adbd1"/>
      </g>
      <path id="Trazado_232049-4" data-name="Trazado 232049" d="M147.65,111.715l-1.7.983a42.08,42.08,0,0,1-57.483-15.4l-1.651-2.859a42.08,42.08,0,0,1,15.4-57.483l1.7-.983a42.08,42.08,0,0,1,57.483,15.4l1.651,2.859a42.08,42.08,0,0,1-15.4,57.483" transform="translate(-73.467 -22.578)" fill="#c8c2c6"/>
      <g id="Grupo_180551-4" data-name="Grupo 180551" transform="translate(10.314 10.372)">
        <g id="Grupo_180503-4" data-name="Grupo 180503" clip-path="url(#clip-path-21)">
          <rect id="Rectángulo_58403-4" data-name="Rectángulo 58403" width="126.756" height="127.963" transform="translate(-47.815 58.263) rotate(-54.203)" fill="url(#linear-gradient-15)"/>
        </g>
      </g>
    </g>
    <path id="Trazado_232310" data-name="Trazado 232310" d="M-15.5-3.137l-.838.9V0h-1.611V-7.82h1.611v3.545l.709-.972,1.993-2.573h1.982l-2.777,3.475L-11.572,0H-13.49ZM-7.7,0a1.724,1.724,0,0,1-.156-.521A1.878,1.878,0,0,1-9.322.107a2.063,2.063,0,0,1-1.415-.494A1.589,1.589,0,0,1-11.3-1.633a1.642,1.642,0,0,1,.685-1.418,3.379,3.379,0,0,1,1.979-.5h.714v-.333a.958.958,0,0,0-.207-.645.813.813,0,0,0-.653-.242.925.925,0,0,0-.615.188.639.639,0,0,0-.223.516h-1.552A1.559,1.559,0,0,1-10.858-5a2.059,2.059,0,0,1,.881-.674A3.21,3.21,0,0,1-8.7-5.919a2.536,2.536,0,0,1,1.705.54,1.888,1.888,0,0,1,.631,1.517v2.519A2.778,2.778,0,0,0-6.131-.091V0ZM-8.983-1.08a1.337,1.337,0,0,0,.634-.153,1,1,0,0,0,.43-.411v-1H-8.5q-1.166,0-1.241.806l-.005.091a.621.621,0,0,0,.2.478A.793.793,0,0,0-8.983-1.08Zm5.242-4.732.048.671a2.029,2.029,0,0,1,1.67-.779,1.686,1.686,0,0,1,1.375.542A2.531,2.531,0,0,1-.185-3.754V0H-1.738V-3.725a1.011,1.011,0,0,0-.215-.719.96.96,0,0,0-.714-.223,1.067,1.067,0,0,0-.983.56V0H-5.2V-5.812ZM6.228-2.852a3.519,3.519,0,0,1-.6,2.178A1.975,1.975,0,0,1,3.967.107,1.814,1.814,0,0,1,2.457-.618L2.387,0H.991V-8.25H2.543v2.959a1.768,1.768,0,0,1,1.413-.628,1.991,1.991,0,0,1,1.668.781,3.524,3.524,0,0,1,.6,2.2ZM4.676-2.97A2.325,2.325,0,0,0,4.4-4.261a.943.943,0,0,0-.833-.407,1.024,1.024,0,0,0-1.021.609v2.3a1.037,1.037,0,0,0,1.031.614.959.959,0,0,0,.988-.743A3.846,3.846,0,0,0,4.676-2.97ZM10.552,0A1.724,1.724,0,0,1,10.4-.521,1.878,1.878,0,0,1,8.929.107,2.063,2.063,0,0,1,7.514-.387a1.589,1.589,0,0,1-.561-1.246,1.642,1.642,0,0,1,.685-1.418,3.379,3.379,0,0,1,1.979-.5h.714v-.333a.958.958,0,0,0-.207-.645.813.813,0,0,0-.653-.242.925.925,0,0,0-.615.188.639.639,0,0,0-.223.516H7.082A1.559,1.559,0,0,1,7.393-5a2.059,2.059,0,0,1,.881-.674,3.21,3.21,0,0,1,1.278-.244,2.536,2.536,0,0,1,1.705.54,1.888,1.888,0,0,1,.631,1.517v2.519A2.778,2.778,0,0,0,12.12-.091V0ZM9.268-1.08A1.337,1.337,0,0,0,9.9-1.233a1,1,0,0,0,.43-.411v-1h-.58q-1.166,0-1.241.806l-.005.091a.621.621,0,0,0,.2.478A.793.793,0,0,0,9.268-1.08ZM14.51-5.812l.048.671a2.029,2.029,0,0,1,1.67-.779,1.686,1.686,0,0,1,1.375.542,2.531,2.531,0,0,1,.462,1.622V0H16.513V-3.725a1.011,1.011,0,0,0-.215-.719.96.96,0,0,0-.714-.223,1.067,1.067,0,0,0-.983.56V0H13.049V-5.812Z" transform="translate(-9651.574 -8089)" fill="#12263f"/>
    <g id="Grupo_180565" data-name="Grupo 180565" transform="translate(-9948.662 -8160.947)">
      <g id="Grupo_180550-5" data-name="Grupo 180550" transform="translate(0 0)" clip-path="url(#clip-path-20)">
        <path id="Trazado_232051-5" data-name="Trazado 232051" d="M0,0H159.76V160.839H0Z" transform="translate(-61.185 67.956) rotate(-51.563)" fill="#4adbd1"/>
      </g>
      <path id="Trazado_232049-5" data-name="Trazado 232049" d="M147.65,111.715l-1.7.983a42.08,42.08,0,0,1-57.483-15.4l-1.651-2.859a42.08,42.08,0,0,1,15.4-57.483l1.7-.983a42.08,42.08,0,0,1,57.483,15.4l1.651,2.859a42.08,42.08,0,0,1-15.4,57.483" transform="translate(-73.467 -22.578)" fill="#c8c2c6"/>
      <g id="Grupo_180551-5" data-name="Grupo 180551" transform="translate(10.314 10.372)">
        <g id="Grupo_180503-5" data-name="Grupo 180503" clip-path="url(#clip-path-21)">
          <rect id="Rectángulo_58403-5" data-name="Rectángulo 58403" width="126.756" height="127.963" transform="translate(-47.815 58.263) rotate(-54.203)" fill="url(#linear-gradient-15)"/>
        </g>
      </g>
    </g>
    <path id="Trazado_232309" data-name="Trazado 232309" d="M-10.538-1.208h3.2L-7.579,0h-4.748l1.563-7.82h1.547ZM-4.34.113A2.025,2.025,0,0,1-6.08-.7a2.6,2.6,0,0,1-.392-2.041l.032-.215a3.886,3.886,0,0,1,1-2.159,2.556,2.556,0,0,1,1.92-.806A1.806,1.806,0,0,1-1.939-5.2a2.52,2.52,0,0,1,.322,1.909l-.134.854H-4.963a1.545,1.545,0,0,0,.2.979.866.866,0,0,0,.779.364,2.723,2.723,0,0,0,.8-.107,4.247,4.247,0,0,0,.757-.328l.263.969a3.24,3.24,0,0,1-.943.48A3.809,3.809,0,0,1-4.34.113Zm.628-4.823a.8.8,0,0,0-.636.336,2.232,2.232,0,0,0-.406.873l.011.027H-3.1l.021-.14a1.342,1.342,0,0,0-.067-.808A.577.577,0,0,0-3.711-4.71ZM1.8,0a3.239,3.239,0,0,1-.048-.333Q1.735-.5,1.735-.682a2.728,2.728,0,0,1-.714.575,1.734,1.734,0,0,1-.854.22A1.406,1.406,0,0,1-.978-.371a1.434,1.434,0,0,1-.242-1.268A2,2,0,0,1-.354-2.989a3.439,3.439,0,0,1,1.885-.443h.7l.091-.462a.92.92,0,0,0-.054-.663.566.566,0,0,0-.516-.218.812.812,0,0,0-.537.188.835.835,0,0,0-.285.51L-.559-4.082l-.011-.032a1.922,1.922,0,0,1,.859-1.3,3.057,3.057,0,0,1,1.789-.508,1.958,1.958,0,0,1,1.453.537,1.571,1.571,0,0,1,.346,1.5l-.483,2.4A4.424,4.424,0,0,0,3.3-.7a3.711,3.711,0,0,0,.051.7ZM.822-1.047A1.2,1.2,0,0,0,1.383-1.2a1.562,1.562,0,0,0,.47-.368l.2-.983h-.7a.973.973,0,0,0-.677.252,1.053,1.053,0,0,0-.344.6A.57.57,0,0,0,.4-1.214.5.5,0,0,0,.822-1.047ZM6.692-5.056A2.48,2.48,0,0,1,7.477-5.7,2,2,0,0,1,8.4-5.919a1.269,1.269,0,0,1,1.139.561,2.341,2.341,0,0,1,.14,1.727L8.948,0H7.4l.725-3.634a1.223,1.223,0,0,0-.03-.851A.67.67,0,0,0,7.5-4.71a1.021,1.021,0,0,0-.491.129,1.591,1.591,0,0,0-.438.355L5.726,0H4.179l1.16-5.812H6.784ZM-13.038,10.1a.872.872,0,0,0-.153-.8A3.076,3.076,0,0,0-14.2,8.718,4.4,4.4,0,0,1-16,7.684a1.7,1.7,0,0,1-.371-1.593,2.243,2.243,0,0,1,.994-1.5,3.421,3.421,0,0,1,1.923-.526,2.6,2.6,0,0,1,1.872.645,1.746,1.746,0,0,1,.432,1.751l-.016.032h-1.5a1,1,0,0,0-.177-.886,1.062,1.062,0,0,0-.854-.333,1.225,1.225,0,0,0-.722.234.923.923,0,0,0-.4.572.764.764,0,0,0,.161.765,4.317,4.317,0,0,0,1.182.6A3.875,3.875,0,0,1-11.8,8.463a1.839,1.839,0,0,1,.312,1.63,2.226,2.226,0,0,1-1,1.517,3.566,3.566,0,0,1-1.947.5,3.293,3.293,0,0,1-1.985-.585,1.606,1.606,0,0,1-.534-1.81l.011-.032h1.5q-.14.69.25.955a1.736,1.736,0,0,0,1,.265,1.308,1.308,0,0,0,.736-.228A.915.915,0,0,0-13.038,10.1Zm5.291-5.336-.285,1.423h.918l-.22,1.1h-.918l-.591,2.959a.67.67,0,0,0,.021.5.361.361,0,0,0,.312.132,2.365,2.365,0,0,0,.26-.013,2.081,2.081,0,0,0,.255-.046l-.1,1.133a4.02,4.02,0,0,1-.521.121,3.446,3.446,0,0,1-.542.04,1.266,1.266,0,0,1-1.074-.457,1.728,1.728,0,0,1-.161-1.4L-9.8,7.29h-.773l.22-1.1h.773l.285-1.423ZM-4.149,12a3.239,3.239,0,0,1-.048-.333q-.016-.172-.016-.349a2.728,2.728,0,0,1-.714.575,1.734,1.734,0,0,1-.854.22,1.406,1.406,0,0,1-1.144-.483,1.434,1.434,0,0,1-.242-1.268A2,2,0,0,1-6.3,9.011a3.439,3.439,0,0,1,1.885-.443h.7l.091-.462a.92.92,0,0,0-.054-.663A.566.566,0,0,0-4.2,7.225a.812.812,0,0,0-.537.188.835.835,0,0,0-.285.51l-1.488-.005-.011-.032a1.922,1.922,0,0,1,.859-1.3A3.057,3.057,0,0,1-3.87,6.081a1.958,1.958,0,0,1,1.453.537,1.571,1.571,0,0,1,.346,1.5l-.483,2.4a4.424,4.424,0,0,0-.1.784A3.711,3.711,0,0,0-2.6,12Zm-.978-1.047a1.2,1.2,0,0,0,.561-.148,1.562,1.562,0,0,0,.47-.368l.2-.983h-.7a.973.973,0,0,0-.677.252,1.053,1.053,0,0,0-.344.6.57.57,0,0,0,.064.478A.5.5,0,0,0-5.127,10.953ZM2.087,7.574l-.618-.016A.95.95,0,0,0,.961,7.7a1.162,1.162,0,0,0-.379.389L-.2,12H-1.743l1.16-5.812H.857l-.086.747L.8,6.951a1.97,1.97,0,0,1,.572-.642,1.236,1.236,0,0,1,.717-.228,1.648,1.648,0,0,1,.236.019,1.253,1.253,0,0,1,.209.046Zm3.4-2.809L5.2,6.188H6.12L5.9,7.29H4.982l-.591,2.959a.67.67,0,0,0,.021.5.361.361,0,0,0,.312.132,2.365,2.365,0,0,0,.26-.013,2.081,2.081,0,0,0,.255-.046l-.1,1.133a4.02,4.02,0,0,1-.521.121,3.446,3.446,0,0,1-.542.04,1.266,1.266,0,0,1-1.074-.457,1.728,1.728,0,0,1-.161-1.4L3.435,7.29H2.661l.22-1.1h.773L3.94,4.765ZM9.311,12l.043-.665a2.288,2.288,0,0,1-.749.58,2.089,2.089,0,0,1-.905.2,1.328,1.328,0,0,1-1.192-.6A2.454,2.454,0,0,1,6.362,9.7l.7-3.507H8.6L7.9,9.715a1.623,1.623,0,0,0-.005.934.51.51,0,0,0,.5.256,1.338,1.338,0,0,0,.572-.124,1.425,1.425,0,0,0,.47-.355l.843-4.237H11.83L10.67,12Zm7.928-2.637a4.229,4.229,0,0,1-.908,2.06,2.135,2.135,0,0,1-1.649.69,1.688,1.688,0,0,1-.725-.151,1.393,1.393,0,0,1-.537-.442l-.542,2.715H11.336l1.606-8.046h1.423l-.048.515a2.187,2.187,0,0,1,.634-.46,1.677,1.677,0,0,1,.725-.162,1.481,1.481,0,0,1,1.4.913A3.453,3.453,0,0,1,17.26,9.25Zm-1.525-.121a3.335,3.335,0,0,0,.035-1.417.62.62,0,0,0-.642-.535.914.914,0,0,0-.526.169,1.683,1.683,0,0,0-.446.471l-.516,2.6a.575.575,0,0,0,.293.285,1.277,1.277,0,0,0,.524.091.963.963,0,0,0,.792-.406,2.763,2.763,0,0,0,.465-1.143Z" transform="translate(-9897.77 -8095)" fill="#12263f"/>
    <g id="Grupo_180567" data-name="Grupo 180567" transform="translate(-10065.179 -8395.738)">
      <g id="Grupo_180550-6" data-name="Grupo 180550" transform="translate(0 0)" clip-path="url(#clip-path-20)">
        <path id="Trazado_232051-6" data-name="Trazado 232051" d="M0,0H159.76V160.839H0Z" transform="translate(-61.185 67.956) rotate(-51.563)" fill="#4adbd1"/>
      </g>
      <path id="Trazado_232049-6" data-name="Trazado 232049" d="M147.65,111.715l-1.7.983a42.08,42.08,0,0,1-57.483-15.4l-1.651-2.859a42.08,42.08,0,0,1,15.4-57.483l1.7-.983a42.08,42.08,0,0,1,57.483,15.4l1.651,2.859a42.08,42.08,0,0,1-15.4,57.483" transform="translate(-73.467 -22.578)" fill="#c8c2c6"/>
      <g id="Grupo_180551-6" data-name="Grupo 180551" transform="translate(10.314 10.372)">
        <g id="Grupo_180503-6" data-name="Grupo 180503" clip-path="url(#clip-path-21)">
          <rect id="Rectángulo_58403-6" data-name="Rectángulo 58403" width="126.756" height="127.963" transform="translate(-47.815 58.263) rotate(-54.203)" fill="url(#linear-gradient-15)"/>
        </g>
      </g>
    </g>
    <path id="Trazado_232308" data-name="Trazado 232308" d="M-18.767,0V-7.82h2.406a3.654,3.654,0,0,1,1.845.465,3.24,3.24,0,0,1,1.27,1.321,4.075,4.075,0,0,1,.457,1.947v.36a4.087,4.087,0,0,1-.448,1.939A3.212,3.212,0,0,1-14.5-.473,3.682,3.682,0,0,1-16.344,0Zm1.611-6.515v5.221h.779a1.75,1.75,0,0,0,1.445-.618,2.791,2.791,0,0,0,.51-1.767v-.414A2.836,2.836,0,0,0-14.916-5.9a1.744,1.744,0,0,0-1.445-.615ZM-9.045.107a2.853,2.853,0,0,1-2.081-.784,2.787,2.787,0,0,1-.8-2.089v-.15a3.511,3.511,0,0,1,.338-1.566,2.483,2.483,0,0,1,.959-1.063,2.691,2.691,0,0,1,1.415-.373,2.412,2.412,0,0,1,1.877.752,3.056,3.056,0,0,1,.685,2.132V-2.4h-3.7a1.442,1.442,0,0,0,.454.913,1.372,1.372,0,0,0,.959.344,1.675,1.675,0,0,0,1.4-.65l.763.854a2.33,2.33,0,0,1-.945.771A3.1,3.1,0,0,1-9.045.107Zm-.177-4.775a.97.97,0,0,0-.749.313,1.62,1.62,0,0,0-.368.9H-8.18v-.124a1.156,1.156,0,0,0-.279-.8A1,1,0,0,0-9.222-4.667ZM-3.668-1.9l1.08-3.916H-.967L-2.927,0H-4.41L-6.37-5.812h1.622Zm9.91-1.837a4.721,4.721,0,0,1-.408,2.025A3.074,3.074,0,0,1,4.665-.365,3.232,3.232,0,0,1,2.922.107,3.253,3.253,0,0,1,1.187-.36,3.1,3.1,0,0,1,.005-1.695a4.586,4.586,0,0,1-.424-2v-.387A4.7,4.7,0,0,1,0-6.11,3.1,3.1,0,0,1,1.174-7.458a3.236,3.236,0,0,1,1.738-.47,3.236,3.236,0,0,1,1.738.47A3.1,3.1,0,0,1,5.825-6.11a4.683,4.683,0,0,1,.416,2.028ZM4.608-4.087a3.291,3.291,0,0,0-.44-1.869A1.435,1.435,0,0,0,2.911-6.6a1.436,1.436,0,0,0-1.251.631,3.253,3.253,0,0,0-.446,1.85v.381a3.332,3.332,0,0,0,.44,1.858,1.432,1.432,0,0,0,1.268.661A1.419,1.419,0,0,0,4.168-1.85a3.313,3.313,0,0,0,.44-1.856ZM9.023-2.755V0H7.412V-7.82h3.051a3.53,3.53,0,0,1,1.55.322,2.375,2.375,0,0,1,1.029.916,2.553,2.553,0,0,1,.36,1.351,2.245,2.245,0,0,1-.787,1.813,3.277,3.277,0,0,1-2.178.663Zm0-1.305h1.439a1.415,1.415,0,0,0,.975-.3,1.094,1.094,0,0,0,.336-.859,1.29,1.29,0,0,0-.338-.929,1.264,1.264,0,0,0-.935-.365H9.023Zm8.529,2.455a.5.5,0,0,0-.282-.448,3.2,3.2,0,0,0-.905-.293q-2.073-.435-2.073-1.762A1.6,1.6,0,0,1,14.934-5.4a2.589,2.589,0,0,1,1.678-.518,2.787,2.787,0,0,1,1.77.521,1.642,1.642,0,0,1,.663,1.354H17.494a.751.751,0,0,0-.215-.551.909.909,0,0,0-.671-.218A.929.929,0,0,0,16-4.635a.56.56,0,0,0-.215.451.478.478,0,0,0,.244.416,2.514,2.514,0,0,0,.824.274,6.734,6.734,0,0,1,.978.26,1.606,1.606,0,0,1,1.23,1.563A1.516,1.516,0,0,1,18.38-.384a2.943,2.943,0,0,1-1.762.491,3.073,3.073,0,0,1-1.3-.26,2.176,2.176,0,0,1-.889-.714,1.66,1.66,0,0,1-.322-.98h1.472a.81.81,0,0,0,.306.634,1.214,1.214,0,0,0,.763.22,1.124,1.124,0,0,0,.674-.169A.526.526,0,0,0,17.553-1.606Z" transform="translate(-10014.287 -8322.791)" fill="#12263f"/>
    <g id="UrxfkU" transform="translate(-9797.044 -7200.539)">
      <g id="Grupo_155825" data-name="Grupo 155825" transform="translate(128.878 -1362.488)">
        <path id="Trazado_196197" data-name="Trazado 196197" d="M163.039-1334h-33.26a4.458,4.458,0,0,1-.508-.261,1.152,1.152,0,0,1-.393-.64v-.378a1.385,1.385,0,0,1,.462-.719c1.08-.883,2.151-1.776,3.231-2.658a.349.349,0,0,0,.147-.31q-.007-6.822,0-13.644a1.084,1.084,0,0,1,1.111-1.113c.305,0,.61,0,.915,0,.051,0,.1-.006.162-.01v-.218q0-3.436,0-6.873a1.643,1.643,0,0,1,1.14-1.586c.092-.029.185-.053.278-.079H156.5a.241.241,0,0,0,.053.022,1.684,1.684,0,0,1,1.37,1.732c-.016,2.267-.005,4.533-.005,6.8v.214h.177c.315,0,.63,0,.944,0a1.051,1.051,0,0,1,.905.518,1.12,1.12,0,0,1,.163.623q0,6.866,0,13.731a.173.173,0,0,0,.056.118c1.049.867,2.1,1.736,3.152,2.594a1.578,1.578,0,0,1,.629.859v.378c-.016.044-.034.089-.049.134a1.087,1.087,0,0,1-.6.671C163.211-1334.055,163.124-1334.028,163.039-1334Zm-4.031-4.941v-.22q0-6.592,0-13.185a1.235,1.235,0,0,0,0-.2c-.005-.03-.048-.076-.074-.077-.333-.005-.666,0-1.016,0v.173q0,5.858,0,11.716c0,.068,0,.136,0,.2a.545.545,0,0,1-.481.5.553.553,0,0,1-.614-.605q0-8.082,0-16.164v-.2H136v.211q0,8.017,0,16.034c0,.073,0,.146,0,.218a.548.548,0,0,1-.524.509.543.543,0,0,1-.559-.451,1.529,1.529,0,0,1-.013-.26q0-5.858,0-11.716v-.162h-1.08v13.676Zm3.819,3.835c-.084-.071-.135-.115-.187-.158q-1.491-1.23-2.98-2.462a.456.456,0,0,0-.314-.113q-12.951,0-25.9.006a.439.439,0,0,0-.258.092q-1.519,1.241-3.03,2.493c-.046.038-.09.079-.16.141Zm-6.009-23.012v-.151q0-1.25,0-2.5a.556.556,0,0,0-.628-.624H136.615a.551.551,0,0,0-.613.608q0,1.257,0,2.514v.152Z" transform="translate(-128.878 1362.488)" fill="#12263f"/>
        <path id="Trazado_196198" data-name="Trazado 196198" d="M662.312-1117.523h5.158a.548.548,0,0,1,.595.553.54.54,0,0,1-.475.537,1.065,1.065,0,0,1-.159.009H657.187a.556.556,0,0,1-.623-.571.538.538,0,0,1,.547-.527c.45,0,.9,0,1.351,0Z" transform="translate(-641.221 1124.646)" fill="#12263f"/>
        <path id="Trazado_196199" data-name="Trazado 196199" d="M662.338-740.56h5.143a.545.545,0,0,1,.591.556.536.536,0,0,1-.451.529,1.029,1.029,0,0,1-.174.011H657.162a.548.548,0,0,1-.586-.471.538.538,0,0,1,.4-.607.824.824,0,0,1,.2-.018Z" transform="translate(-641.229 758.642)" fill="#12263f"/>
        <path id="Trazado_196200" data-name="Trazado 196200" d="M662.171-852.52h-5.014a.544.544,0,0,1-.589-.613.543.543,0,0,1,.487-.48c.043,0,.087,0,.131,0h10a.554.554,0,0,1,.58.368.545.545,0,0,1-.449.721,1.353,1.353,0,0,1-.174.006Z" transform="translate(-641.222 868.411)" fill="#12263f"/>
        <path id="Trazado_196201" data-name="Trazado 196201" d="M660.922-664.15h-3.778a.552.552,0,0,1-.608-.556.552.552,0,0,1,.608-.543h7.468a1.4,1.4,0,0,1,.246.014.537.537,0,0,1,.441.578.543.543,0,0,1-.512.5c-.135.007-.271,0-.407,0Z" transform="translate(-641.196 685.519)" fill="#12263f"/>
        <path id="Trazado_196202" data-name="Trazado 196202" d="M412.646-1135.3c0,.07,0,.122,0,.174q0,1.272,0,2.544a.524.524,0,0,1-.327.52.523.523,0,0,1-.583-.092.5.5,0,0,1-.182-.4c0-1.1,0-2.209,0-3.314a.525.525,0,0,1,.54-.533q1.919-.006,3.837,0a.534.534,0,0,1,.547.556.541.541,0,0,1-.566.54c-1.017,0-2.035,0-3.052,0Z" transform="translate(-403.334 1142.975)" fill="#12263f"/>
        <path id="Trazado_196203" data-name="Trazado 196203" d="M412.657-758.362v.186q0,1.271,0,2.542a.517.517,0,0,1-.321.508.524.524,0,0,1-.584-.084.5.5,0,0,1-.186-.395c0-1.109,0-2.218,0-3.326a.52.52,0,0,1,.53-.526q1.932-.007,3.864,0a.533.533,0,0,1,.53.543.539.539,0,0,1-.538.551c-.266.007-.533,0-.8,0h-2.5Z" transform="translate(-403.345 776.993)" fill="#12263f"/>
        <path id="Trazado_196204" data-name="Trazado 196204" d="M412.66-946.742v.2q0,1.265,0,2.529a.523.523,0,0,1-.306.5.522.522,0,0,1-.564-.049.5.5,0,0,1-.222-.42c0-1.109,0-2.219,0-3.328a.518.518,0,0,1,.532-.524q1.926-.007,3.851,0a.532.532,0,0,1,.542.531.541.541,0,0,1-.529.56c-.053,0-.107,0-.16,0H412.66Z" transform="translate(-403.348 959.893)" fill="#12263f"/>
        <path id="Trazado_196205" data-name="Trazado 196205" d="M659.417-927.986h-2.455a.519.519,0,0,1-.508-.322.525.525,0,0,1,.084-.584.583.583,0,0,1,.482-.19q2.019,0,4.039,0c.261,0,.523,0,.784,0a.552.552,0,0,1,.588.548.549.549,0,0,1-.588.547Z" transform="translate(-641.064 941.684)" fill="#12263f"/>
        <path id="Trazado_196206" data-name="Trazado 196206" d="M469.606-1106.177c.3-.3.565-.577.838-.851.328-.33.653-.662.989-.983a.534.534,0,0,1,.695-.038.541.541,0,0,1,.177.649.686.686,0,0,1-.14.2q-1.076,1.082-2.156,2.159a.538.538,0,0,1-.792,0q-.551-.537-1.089-1.089a.542.542,0,0,1-.005-.772.546.546,0,0,1,.783,0C469.135-1106.668,469.358-1106.432,469.606-1106.177Z" transform="translate(-458.104 1115.553)" fill="#12263f"/>
        <path id="Trazado_196207" data-name="Trazado 196207" d="M469.653-917.682c.266-.271.515-.527.767-.781.345-.347.69-.694,1.039-1.037a.519.519,0,0,1,.55-.133.522.522,0,0,1,.375.423.515.515,0,0,1-.147.481q-1.1,1.1-2.2,2.2a.534.534,0,0,1-.781-.013q-.537-.532-1.069-1.069a.545.545,0,0,1-.017-.792.552.552,0,0,1,.794.02C469.191-918.16,469.412-917.929,469.653-917.682Z" transform="translate(-458.148 932.536)" fill="#12263f"/>
        <path id="Trazado_196208" data-name="Trazado 196208" d="M469.646-729.217c.1-.117.2-.234.3-.34.481-.485.965-.967,1.447-1.45a.55.55,0,0,1,.583-.162.52.52,0,0,1,.371.411.517.517,0,0,1-.145.495q-1.1,1.107-2.21,2.208a.527.527,0,0,1-.749,0q-.562-.547-1.11-1.109a.541.541,0,0,1,.006-.772.545.545,0,0,1,.772,0c.206.2.405.4.608.6C469.551-729.3,469.583-729.276,469.646-729.217Z" transform="translate(-458.118 749.551)" fill="#12263f"/>
        <path id="Trazado_196209" data-name="Trazado 196209" d="M659.075-1041.08c-.683,0-1.365,0-2.048,0a.535.535,0,0,1-.522-.368.518.518,0,0,1,.162-.59.669.669,0,0,1,.356-.133q2.055-.014,4.11,0a.543.543,0,0,1,.547.56.547.547,0,0,1-.558.535c-.683,0-1.365,0-2.048,0Z" transform="translate(-641.135 1051.491)" fill="#12263f"/>
        <path id="Trazado_196210" data-name="Trazado 196210" d="M874.405-1041.105c-.218,0-.436,0-.653,0a.549.549,0,0,1-.579-.557.551.551,0,0,1,.582-.54q.653,0,1.306,0a.548.548,0,0,1,.578.557.547.547,0,0,1-.58.54C874.841-1041.1,874.623-1041.105,874.405-1041.105Z" transform="translate(-851.534 1051.517)" fill="#12263f"/>
        <path id="Trazado_196211" data-name="Trazado 196211" d="M902.764-928.071c-.223,0-.445,0-.668,0a.539.539,0,0,1-.557-.531.535.535,0,0,1,.54-.562c.459-.009.919-.007,1.379,0a.537.537,0,0,1,.542.56.541.541,0,0,1-.555.533c-.116,0-.232,0-.348,0Z" transform="translate(-879.075 941.769)" fill="#12263f"/>
        <path id="Trazado_196212" data-name="Trazado 196212" d="M864.919-1286.138c-.184,0-.368,0-.552,0a.542.542,0,0,1-.547-.557.543.543,0,0,1,.553-.539c.358,0,.717,0,1.075,0a.544.544,0,0,1,.561.544.542.542,0,0,1-.552.552C865.278-1286.133,865.1-1286.137,864.919-1286.138Z" transform="translate(-842.453 1289.426)" fill="#12263f"/>
        <path id="Trazado_196213" data-name="Trazado 196213" d="M977.961-1286.109c-.179,0-.358,0-.537,0a.545.545,0,0,1-.555-.551.542.542,0,0,1,.56-.545c.353,0,.707-.005,1.06,0a.542.542,0,0,1,.568.537.54.54,0,0,1-.558.56C978.319-1286.106,978.14-1286.11,977.961-1286.109Z" transform="translate(-952.214 1289.398)" fill="#12263f"/>
      </g>
    </g>
    <g id="WGXxTz.tif" transform="translate(-9544.203 -8367.174)">
      <g id="Grupo_154920" data-name="Grupo 154920" transform="translate(0 0)">
        <path id="Trazado_195249" data-name="Trazado 195249" d="M-990.628,219.384c1.42,1.427,2.828,2.866,4.266,4.274a1.589,1.589,0,0,1,.532,1.263c-.029,2.081-.012,4.162-.012,6.243v.4l.071.01c.073-.141.15-.28.219-.423.7-1.446,1.4-2.9,2.112-4.337a2.643,2.643,0,0,1,2.654-1.477,2.679,2.679,0,0,1,2.292,1.945,2.742,2.742,0,0,1-.244,2.023q-2.739,5.616-5.467,11.238c-.493,1.013-.993,2.023-1.471,3.044a1.685,1.685,0,0,0-.16.685c-.011,2.551-.007,5.1-.007,7.652,0,.658-.151.811-.8.811q-10.161,0-20.322.007a.822.822,0,0,1-.793-.386V219.384Zm-15.993,1.083v31.181h19.669v-6.736c-.121.079-.205.128-.283.186-.792.592-1.576,1.2-2.381,1.769a1.249,1.249,0,0,1-.655.22c-.938.024-1.877.01-2.816.01q-2.454,0-4.909,0c-.472,0-.734-.285-.623-.678.093-.331.35-.388.655-.387q3.444.007,6.887,0h.43c0-.122,0-.2,0-.27-.025-1.167-.063-2.334-.066-3.5a2.065,2.065,0,0,1,.183-.871c1.138-2.374,2.3-4.737,3.442-7.109a1.563,1.563,0,0,0,.153-.652c.01-2.753.007-5.506.007-8.26v-.431c-1.294,0-2.536,0-3.778,0-.541,0-.708-.159-.711-.7-.005-1.028,0-2.055,0-3.083v-.694Zm22.77,9.676c-.088.166-.156.285-.216.409-1.551,3.187-3.049,6.4-4.674,9.551a6.926,6.926,0,0,0-.864,4.25,9.233,9.233,0,0,1,.007,1.166c.9-.675,1.707-1.266,2.5-1.879a1.61,1.61,0,0,0,.445-.543q2.739-5.592,5.458-11.194c.059-.121.108-.247.17-.387Zm.452-.982,2.862,1.391c.334-.71.683-1.371.96-2.061a1.528,1.528,0,0,0-.753-1.907,1.515,1.515,0,0,0-1.992.471C-982.728,227.719-983.037,228.444-983.4,229.161Zm-6.912-7.822v2.513h2.487Z" transform="translate(1007.753 -219.384)" fill="#12263f"/>
        <path id="Trazado_195250" data-name="Trazado 195250" d="M-962.382,401.962c.405,0,.81-.006,1.215,0a.527.527,0,0,1,.578.563q.019,1.253,0,2.507a.535.535,0,0,1-.6.577q-1.234.009-2.469,0c-.38,0-.579-.174-.586-.544q-.023-1.272,0-2.545c.006-.39.2-.554.611-.559S-962.8,401.962-962.382,401.962Zm.686,2.577V403.05h-1.447v1.489Z" transform="translate(967.576 -388.027)" fill="#12263f"/>
        <path id="Trazado_195251" data-name="Trazado 195251" d="M-962.421,480.44c-.405,0-.81,0-1.215,0-.44,0-.625-.176-.63-.62q-.015-1.215,0-2.431c.006-.419.2-.6.613-.6q1.215-.007,2.43,0a.544.544,0,0,1,.619.6q.015,1.215,0,2.431c0,.422-.212.613-.642.617C-961.636,480.443-962.029,480.44-962.421,480.44Zm.713-1.078v-1.489h-1.456v1.489Z" transform="translate(967.592 -457.144)" fill="#12263f"/>
        <path id="Trazado_195252" data-name="Trazado 195252" d="M-962.409,555.265c-.418,0-.836.005-1.253,0-.377-.006-.574-.176-.58-.55q-.022-1.272,0-2.545a.507.507,0,0,1,.579-.553q1.234-.01,2.469,0a.536.536,0,0,1,.609.571q.019,1.254,0,2.507c-.006.378-.221.565-.609.57C-961.6,555.269-962,555.265-962.409,555.265Zm.715-1.074V552.7h-1.445v1.489Z" transform="translate(967.573 -526.259)" fill="#12263f"/>
        <path id="Trazado_195253" data-name="Trazado 195253" d="M-883.822,419.967q-1.9,0-3.8,0c-.449,0-.675-.183-.673-.535s.23-.527.681-.527c2.546,0,5.092,0,7.638,0,.316,0,.585.09.628.411a.833.833,0,0,1-.214.552c-.073.09-.277.1-.422.1C-881.264,419.97-882.543,419.967-883.822,419.967Z" transform="translate(897.411 -403.676)" fill="#12263f"/>
        <path id="Trazado_195254" data-name="Trazado 195254" d="M-885.706,345.167c-.658,0-1.316,0-1.974,0-.407,0-.63-.205-.619-.549.01-.325.225-.511.618-.512q2.011,0,4.023,0a.551.551,0,0,1,.613.529.552.552,0,0,1-.611.531C-884.34,345.171-885.023,345.167-885.706,345.167Z" transform="translate(897.415 -334.586)" fill="#12263f"/>
        <path id="Trazado_195255" data-name="Trazado 195255" d="M-885.692,494.829c-.658,0-1.316,0-1.974,0-.413,0-.634-.2-.63-.539s.227-.522.645-.523q1.974,0,3.947,0c.4,0,.653.2.661.519s-.253.541-.676.542C-884.377,494.831-885.035,494.829-885.692,494.829Z" transform="translate(897.412 -472.827)" fill="#12263f"/>
        <path id="Trazado_195256" data-name="Trazado 195256" d="M-958,338.462c.371-.485.676-.89.987-1.289.247-.317.559-.391.817-.2a.559.559,0,0,1,.052.839c-.425.568-.854,1.134-1.293,1.692a.545.545,0,0,1-.933.056c-.265-.255-.524-.517-.779-.781-.284-.294-.3-.6-.062-.836s.544-.2.835.089C-958.256,338.15-958.15,338.292-958,338.462Z" transform="translate(963.074 -327.902)" fill="#12263f"/>
      </g>
    </g>
    <g id="ofUhqc.tif" transform="translate(-9670.574 -8141.734)">
      <g id="Grupo_154919" data-name="Grupo 154919" transform="translate(0 0)">
        <path id="Trazado_195237" data-name="Trazado 195237" d="M-379.14,166.8a2.337,2.337,0,0,1-1.3-1.336c-.81-1.666-1.655-3.314-2.472-4.977a1.642,1.642,0,0,1-.165-.695q-.015-5.626,0-11.252a.543.543,0,0,0-.314-.571,1.821,1.821,0,0,1-.01-3.177.393.393,0,0,0,.21-.523,4.085,4.085,0,0,0-1.147-1.975,8.163,8.163,0,0,1-2.336-4.35,8.105,8.105,0,0,1,6.292-9.347,8.016,8.016,0,0,1,9.557,6.539,7.785,7.785,0,0,1-2.259,7.072,4.4,4.4,0,0,0-1.228,2.059.394.394,0,0,0,.208.524,1.824,1.824,0,0,1-.039,3.2.488.488,0,0,0-.283.51q.009,5.645,0,11.29a1.641,1.641,0,0,1-.164.7c-.817,1.663-1.663,3.312-2.472,4.978a2.367,2.367,0,0,1-1.3,1.335Zm-.22-26.036V144.5h1.23v-3.739l1.231-.366v4.133c.385,0,.731.015,1.074-.01a.336.336,0,0,0,.233-.218,5.349,5.349,0,0,1,1.587-2.936,6.678,6.678,0,0,0,2-5.654,6.786,6.786,0,0,0-8.3-5.838,6.52,6.52,0,0,0-4.982,4.785,6.527,6.527,0,0,0,1.735,6.651,5.557,5.557,0,0,1,1.636,3,.336.336,0,0,0,.236.215c.343.025.688.01,1.074.01v-4.134Zm-2.036,19.864a.406.406,0,0,0,.014.124c.75,1.508,1.5,3.017,2.263,4.516a.5.5,0,0,0,.381.246.623.623,0,0,0,.383-.314c.737-1.442,1.456-2.892,2.179-4.341.033-.066.054-.137.091-.232Zm-.425-12.374v11.091h1.193V148.253Zm3.66,11.105V148.267h-1.191v11.091Zm1.29-11.106v11.091h1.191V148.253Zm-1.836-2.492c-1.222,0-2.444,0-3.666,0a.644.644,0,0,0-.708.609.636.636,0,0,0,.691.625c2.418.006,4.837.011,7.255-.011a.868.868,0,0,0,.606-.316c.3-.41-.053-.9-.628-.908C-376.34,145.755-377.524,145.761-378.707,145.761Z" transform="translate(397.228 -128.444)" fill="#12263f"/>
        <path id="Trazado_195238" data-name="Trazado 195238" d="M-130.667,270.844l-1.07.636-1.871-2.981-.065.017V283.5h-1.235V268.519l-.087-.023-1.873,2.989-1.059-.66,3.616-5.787c.1.15.174.251.24.357q1.587,2.537,3.174,5.073a3.723,3.723,0,0,0,.229.3Z" transform="translate(167.624 -254.453)" fill="#12263f"/>
        <path id="Trazado_195239" data-name="Trazado 195239" d="M-449.269,317.072l1.058-.663,1.929,3.076V304.4h1.246v14.974l.083.031,1.88-3,1.057.663-3.625,5.8Z" transform="translate(454.838 -290.762)" fill="#12263f"/>
        <path id="Trazado_195240" data-name="Trazado 195240" d="M-521.128,388.895l1.058-.663,1.935,3.086v-15.1h1.246V391.2l.078.027,1.878-3,1.057.664-3.625,5.8Z" transform="translate(521.128 -357.016)" fill="#12263f"/>
        <path id="Trazado_195241" data-name="Trazado 195241" d="M-206.836,340.187l-1.873,2.987-1.057-.662,3.624-5.8,3.627,5.8-1.056.666-1.936-3.086v15.1h-1.232V340.216Z" transform="translate(233.897 -320.572)" fill="#12263f"/>
        <path id="Trazado_195242" data-name="Trazado 195242" d="M-480.759,281.616h-1.173v-1.2h1.173Z" transform="translate(484.97 -268.638)" fill="#12263f"/>
        <path id="Trazado_195243" data-name="Trazado 195243" d="M-480.759,313.552h-1.173v-1.2h1.173Z" transform="translate(484.97 -298.1)" fill="#12263f"/>
        <path id="Trazado_195244" data-name="Trazado 195244" d="M-480.774,345.453h-1.187v-1.194h1.187Z" transform="translate(484.996 -327.534)" fill="#12263f"/>
        <path id="Trazado_195245" data-name="Trazado 195245" d="M-98.715,519.776h1.18v1.2h-1.18Z" transform="translate(131.451 -489.449)" fill="#12263f"/>
        <path id="Trazado_195246" data-name="Trazado 195246" d="M-99.022,553.11v-1.18h1.2v1.18Z" transform="translate(131.734 -519.111)" fill="#12263f"/>
        <path id="Trazado_195247" data-name="Trazado 195247" d="M-97.612,583.733v1.187h-1.194v-1.187Z" transform="translate(131.535 -548.449)" fill="#12263f"/>
        <path id="Trazado_195248" data-name="Trazado 195248" d="M-306.1,177.458l.989.98-5.439,5.242-1.627-1.582.875-.86.836.8Z" transform="translate(328.373 -173.66)" fill="#12263f"/>
      </g>
    </g>
    <g id="Grupo_180309" data-name="Grupo 180309" transform="translate(-9908.911 -8141.602)">
      <g id="Grupo_180308" data-name="Grupo 180308" clip-path="url(#clip-path-32)">
        <path id="Trazado_231740" data-name="Trazado 231740" d="M1.326,32.473a1.7,1.7,0,0,1-1.3-1.362A2.572,2.572,0,0,1,0,30.669Q0,16.242,0,1.814A1.645,1.645,0,0,1,1.8,0H17.68a1.626,1.626,0,0,1,1.792,1.784q0,2.188,0,4.376v.305H18.39V6.113q0-2.156,0-4.312c0-.548-.172-.719-.719-.719-.961,0-1.923.008-2.884-.006-.239,0-.334.071-.375.3-.058.321-.147.637-.23.954a1.087,1.087,0,0,1-1.161.912q-3.28,0-6.56,0a1.068,1.068,0,0,1-1.147-.883C5.2,1.941,5.1,1.522,4.987,1.084c-1.136,0-2.265-.008-3.394.005a.507.507,0,0,0-.5.483,2.252,2.252,0,0,0-.009.348q0,14.316,0,28.633c0,.7.141.839.831.839H17.5c.77,0,.871-.1.886-.871,0-.052.006-.1.011-.182H19.43a1.678,1.678,0,0,1-1.169,2.08.3.3,0,0,0-.072.054ZM6.118,1.095c.062.265.131.507.173.754s.136.321.393.32c2.047-.013,4.094-.007,6.141-.008.093,0,.185-.009.285-.014l.255-1.052Z" transform="translate(0)" fill="#12263f"/>
        <path id="Trazado_231741" data-name="Trazado 231741" d="M123.874,131.794a.8.8,0,0,1-.653.429c-.554.077-1.106.167-1.654.278a.5.5,0,0,0-.3.243,11.988,11.988,0,0,0-.485,1.167.5.5,0,0,0,.038.387c.321.484.669.95,1,1.424a.586.586,0,0,1-.066.9q-1.061,1.068-2.129,2.13a.576.576,0,0,1-.87.071c-.474-.336-.951-.668-1.415-1.017a.384.384,0,0,0-.456-.034c-.372.175-.761.311-1.133.486a.461.461,0,0,0-.234.275c-.107.538-.187,1.082-.273,1.624-.091.573-.237.7-.809.7q-1.426,0-2.853,0c-.476,0-.636-.14-.717-.614-.1-.562-.2-1.122-.284-1.686a.354.354,0,0,0-.271-.33c-.387-.138-.757-.321-1.144-.458a.5.5,0,0,0-.389.031c-.492.327-.965.683-1.449,1.023a.575.575,0,0,1-.87-.074q-1.068-1.062-2.129-2.13a.574.574,0,0,1-.062-.893c.329-.466.656-.933,1-1.391a.371.371,0,0,0,.047-.45,10.6,10.6,0,0,1-.459-1.11.379.379,0,0,0-.353-.29c-.585-.082-1.167-.186-1.748-.293-.389-.072-.521-.23-.524-.629q-.009-1.538,0-3.076c0-.405.15-.56.559-.63.572-.1,1.143-.206,1.717-.288a.377.377,0,0,0,.349-.29,11.953,11.953,0,0,1,.458-1.11.356.356,0,0,0-.03-.425c-.353-.474-.694-.958-1.034-1.442a.552.552,0,0,1,.064-.843q1.082-1.092,2.174-2.175a.542.542,0,0,1,.819-.066c.493.345.984.694,1.467,1.052a.336.336,0,0,0,.4.03c.382-.177.782-.314,1.164-.492a.455.455,0,0,0,.228-.277c.116-.579.207-1.164.307-1.747.074-.429.228-.578.648-.58q1.521-.009,3.043,0c.417,0,.576.134.65.541.106.581.2,1.165.291,1.749a.36.36,0,0,0,.272.332,11.675,11.675,0,0,1,1.138.472.353.353,0,0,0,.423-.043c.458-.339.925-.667,1.39-1,.384-.273.591-.261.918.063q1.056,1.051,2.107,2.107a.587.587,0,0,1,.075.9c-.334.475-.667.951-1.015,1.417a.361.361,0,0,0-.036.428c.174.372.332.753.473,1.139a.327.327,0,0,0,.306.252c.554.078,1.1.194,1.656.27a.835.835,0,0,1,.664.414Zm-4.8-9.457c-.489.35-.991.7-1.482,1.063a.715.715,0,0,1-.821.05,13.1,13.1,0,0,0-1.659-.692.787.787,0,0,1-.621-.731c-.065-.5-.174-1-.241-1.5-.026-.191-.1-.245-.282-.243-.612.008-1.225.011-1.838,0-.208,0-.272.083-.3.27-.077.522-.18,1.04-.252,1.563a.706.706,0,0,1-.537.622,14.56,14.56,0,0,0-1.661.686.8.8,0,0,1-.958-.076c-.465-.359-.953-.686-1.4-1.006L105.366,124c.34.476.688.979,1.052,1.47a.721.721,0,0,1,.06.822c-.267.571-.509,1.156-.724,1.749a.7.7,0,0,1-.6.518c-.532.078-1.061.178-1.594.255-.18.026-.251.095-.248.284.01.623.008,1.247,0,1.87,0,.167.047.239.226.264.533.074,1.061.179,1.593.258a.729.729,0,0,1,.636.563,14.027,14.027,0,0,0,.687,1.662.765.765,0,0,1-.06.9c-.362.477-.7.974-1.033,1.446l1.658,1.648c.482-.342.994-.693,1.492-1.062a.7.7,0,0,1,.791-.058c.572.265,1.157.506,1.749.723a.715.715,0,0,1,.532.627c.085.6.2,1.205.306,1.83.738,0,1.455,0,2.171-.009.062,0,.16-.118.175-.194.1-.529.194-1.059.268-1.592a.761.761,0,0,1,.6-.679,11.286,11.286,0,0,0,1.6-.662.793.793,0,0,1,.958.061c.465.359.954.687,1.39,1l1.671-1.654c-.324-.454-.648-.937-1-1.4a.789.789,0,0,1-.07-.956,10.9,10.9,0,0,0,.662-1.6.775.775,0,0,1,.706-.609c.523-.069,1.043-.16,1.56-.261.08-.015.2-.131.2-.2.015-.707.009-1.414.009-2.151-.606-.1-1.195-.218-1.788-.3a.748.748,0,0,1-.676-.56c-.207-.584-.448-1.158-.71-1.72a.693.693,0,0,1,.046-.792c.37-.5.723-1.013,1.069-1.5l-1.653-1.657" transform="translate(-95.733 -111.625)" fill="#12263f"/>
        <path id="Trazado_231742" data-name="Trazado 231742" d="M35.681,426.047a1.6,1.6,0,0,1,1.623,1.627,1.621,1.621,0,0,1-1.612,1.615,1.641,1.641,0,0,1-1.631-1.636,1.622,1.622,0,0,1,1.62-1.606m.537,1.606a.519.519,0,0,0-.55-.522.538.538,0,0,0-.521.528.554.554,0,0,0,.542.546.536.536,0,0,0,.529-.552" transform="translate(-31.897 -398.978)" fill="#12263f"/>
        <path id="Trazado_231743" data-name="Trazado 231743" d="M105.365,428.365l.759.745c-.375.391-.741.779-1.116,1.158a.357.357,0,0,1-.228.1c-.734.007-1.468,0-2.221,0V429.3c.526,0,1.049-.011,1.571.005a.664.664,0,0,0,.579-.238c.2-.24.43-.461.655-.7" transform="translate(-96.044 -401.149)" fill="#12263f"/>
        <path id="Trazado_231744" data-name="Trazado 231744" d="M37.635,119.543c0,.309.009.6-.008.893a.237.237,0,0,1-.163.164c-1.009.01-2.019.007-3.053.007v-1.065Z" transform="translate(-32.226 -111.948)" fill="#12263f"/>
        <path id="Trazado_231745" data-name="Trazado 231745" d="M37.625,153.707c.095,1.064.095,1.064-.908,1.064H34.422v-1.064Z" transform="translate(-32.235 -143.941)" fill="#12263f"/>
        <path id="Trazado_231746" data-name="Trazado 231746" d="M105.609,120.767l-.822.785c-.2-.228-.429-.464-.636-.716a.613.613,0,0,0-.555-.226c-.345.016-.692,0-1.055,0v-1.065c.581,0,1.148-.007,1.714.006a.469.469,0,0,1,.274.141c.357.343.7.7,1.08,1.071" transform="translate(-96.026 -111.952)" fill="#12263f"/>
        <rect id="Rectángulo_58134" data-name="Rectángulo 58134" width="1.04" height="1.041" transform="translate(5.969 4.893)" fill="#12263f"/>
        <rect id="Rectángulo_58135" data-name="Rectángulo 58135" width="1.032" height="1.048" transform="translate(8.142 4.901)" fill="#12263f"/>
        <rect id="Rectángulo_58136" data-name="Rectángulo 58136" width="1.038" height="1.043" transform="translate(10.301 4.898)" fill="#12263f"/>
        <rect id="Rectángulo_58137" data-name="Rectángulo 58137" width="1.031" height="1.051" transform="translate(12.467 4.896)" fill="#12263f"/>
        <path id="Trazado_231747" data-name="Trazado 231747" d="M176.93,200.487a6.492,6.492,0,1,1,6.481-6.508,6.489,6.489,0,0,1-6.481,6.508m-5.361-5.929a5.381,5.381,0,0,0,5.855,4.824c2.474-.193,5.089-2.779,4.826-4.837l-.446-.03v-1.049l.532-.047-.454-1.655-.489.248-.526-.915.462-.3-1.228-1.218-.3.455-.905-.529.24-.5-1.655-.441-.036.524H176.4l-.042-.524-1.664.449.251.49-.913.53-.3-.46-1.215,1.23.458.289-.532.916-.49-.251-.446,1.665.522.046v1.046l-.452.037" transform="translate(-159.603 -175.59)" fill="#12263f"/>
        <path id="Trazado_231748" data-name="Trazado 231748" d="M250.92,241.539l.778.773c-.467.466-.924.931-1.393,1.385a.364.364,0,0,0-.115.435,1.59,1.59,0,0,1-.72,1.857,1.621,1.621,0,0,1-2.221-2.219,1.591,1.591,0,0,1,1.889-.709.318.318,0,0,0,.381-.1c.461-.479.932-.949,1.4-1.423m-1.733,3.046a.536.536,0,0,0-.558-.521.517.517,0,0,0-.513.557.537.537,0,0,0,.534.514.555.555,0,0,0,.538-.55" transform="translate(-231.332 -226.193)" fill="#12263f"/>
        <path id="Trazado_231749" data-name="Trazado 231749" d="M230.013,333.7a1.1,1.1,0,0,1-.024-.158c0-.284,0-.568,0-.875h5.392V333.7Z" transform="translate(-215.375 -311.533)" fill="#12263f"/>
        <path id="Trazado_231750" data-name="Trazado 231750" d="M217.166,230.249v1.042A2.778,2.778,0,0,0,214.457,234h-1.01a3.7,3.7,0,0,1,3.719-3.754" transform="translate(-199.871 -215.62)" fill="#12263f"/>
      </g>
    </g>
    <g id="Grupo_180575" data-name="Grupo 180575" transform="translate(-10030.87 -8371.346)">
      <g id="Grupo_180306" data-name="Grupo 180306" clip-path="url(#clip-path-33)">
        <path id="Trazado_231727" data-name="Trazado 231727" d="M33.729,5.811H1.2V22.128H16.08a1.794,1.794,0,0,1,.655.019,3.047,3.047,0,0,1,.63.48,2.949,2.949,0,0,1-.649.558,1.912,1.912,0,0,1-.735.025H1.142c0,1,0,1.91,0,2.815,0,.647.415.748.943.746,2.507-.007,5.015,0,7.522,0,3.417,0,6.834.022,10.25-.016.814-.009,1.074.27,1.028,1.052-.052.879-.022,1.763-.009,2.644.021,1.463.681,2.11,2.132,2.115.3,0,.606,0,.909,0,.44,0,1-.069,1.009.549.008.682-.591.587-1.05.59-.964.006-1.929,0-2.893,0q-4.67,0-9.341,0c-.22,0-.484.06-.649-.039a.923.923,0,0,1-.432-.583c-.015-.151.251-.427.438-.479a3.982,3.982,0,0,1,.985-.038,1.811,1.811,0,0,0,2.007-1.908,4.057,4.057,0,0,1,.038-.984c.073-.225.358-.382.548-.569.158.191.456.386.451.572-.028.943-.135,1.884-.216,2.851h5.215c-.106-1.53-.21-3.041-.32-4.645h-.965q-8.225,0-16.45,0C.6,27.879,0,27.281,0,25.6Q0,13.947,0,2.291C0,.606.6,0,2.284,0Q17.452,0,32.621,0c1.622,0,2.247.625,2.248,2.244q0,4.67,0,9.34c0,.083,0,.165,0,.248,0,.433-.026.936-.595.846-.219-.035-.508-.527-.521-.821-.057-1.293-.025-2.589-.025-3.884V5.811M2.388,1.134c-.165,0-.331,0-.5,0-.515-.008-.755.248-.752.76.005.878,0,1.756,0,2.7H33.729c0-.777,0-1.49,0-2.2,0-1.23-.027-1.257-1.248-1.257" transform="translate(0 0)" fill="#12263f"/>
        <path id="Trazado_231728" data-name="Trazado 231728" d="M112.8,85.817a8.116,8.116,0,0,1,12-7.369c.12.066.295.11.345.213a6.753,6.753,0,0,1,.289.822,2.328,2.328,0,0,1-.868.092,20.149,20.149,0,0,0-2.705-.919,6.957,6.957,0,0,0-7.991,6.712,7,7,0,1,0,13.876-1.148,2.925,2.925,0,0,1-.162-.8,2.654,2.654,0,0,1,.322-.747c.244.16.633.27.707.488a7.535,7.535,0,0,1,.219,4.068,8.12,8.12,0,0,1-15.98-.5,7.222,7.222,0,0,1-.047-.908" transform="translate(-94.146 -64.63)" fill="#12263f"/>
        <path id="Trazado_231729" data-name="Trazado 231729" d="M141.653,96.265l5.632-6.219a20.342,20.342,0,0,1,1.457-1.572c.211-.189.608-.17.92-.246-.027.315.068.739-.1.929-2.432,2.734-4.9,5.434-7.356,8.146-.4.446-.771.452-1.161-.021-.857-1.04-1.748-2.053-2.571-3.12-.165-.214-.087-.617-.12-.933.328.088.767.071.964.282.8.861,1.53,1.791,2.334,2.753" transform="translate(-115.475 -73.638)" fill="#12263f"/>
        <path id="Trazado_231730" data-name="Trazado 231730" d="M27.8,50.413c-1.818,0-3.638.023-5.455-.023-.3-.008-.821-.29-.846-.492-.068-.567.444-.575.869-.576,3.637,0,7.274-.013,10.91.022.291,0,.793.293.828.51.1.613-.442.556-.852.557q-2.728.006-5.455,0" transform="translate(-17.935 -41.163)" fill="#12263f"/>
        <path id="Trazado_231731" data-name="Trazado 231731" d="M119.279,50.409q-2.728,0-5.455,0c-.391,0-.892.017-.795-.532.04-.226.52-.531.8-.534q5.5-.054,10.993,0c.288,0,.573.347.859.532-.289.178-.574.5-.867.511-1.845.047-3.691.024-5.537.024" transform="translate(-94.327 -41.159)" fill="#12263f"/>
        <path id="Trazado_231732" data-name="Trazado 231732" d="M27.773,64.557c-1.817,0-3.635.023-5.452-.024-.293-.008-.795-.3-.822-.511-.067-.513.417-.535.815-.536q5.493,0,10.987,0c.378,0,.836-.042.837.534s-.444.531-.831.532q-2.767,0-5.535,0" transform="translate(-17.939 -52.987)" fill="#12263f"/>
        <path id="Trazado_231733" data-name="Trazado 231733" d="M119.17,64.557q-2.726,0-5.452,0c-.387,0-.833.043-.83-.533s.461-.532.84-.532q5.494-.008,10.987,0c.4,0,.882.024.813.537-.028.211-.531.5-.825.509-1.844.046-3.689.023-5.534.023" transform="translate(-94.219 -52.987)" fill="#12263f"/>
        <path id="Trazado_231734" data-name="Trazado 231734" d="M23.506,78.6a10.03,10.03,0,0,1-1.567-.024c-.249-.04-.458-.337-.685-.517.211-.171.415-.479.633-.489,1.1-.051,2.2-.05,3.3,0,.217.01.42.315.63.484-.221.182-.424.486-.666.522a11.421,11.421,0,0,1-1.65.025" transform="translate(-17.74 -64.708)" fill="#12263f"/>
        <path id="Trazado_231735" data-name="Trazado 231735" d="M113.949,78.419c-.164,0-.358.055-.484-.013a4.166,4.166,0,0,1-.613-.485c.213-.186.4-.449.646-.535a1.444,1.444,0,0,1,.885,0c.25.086.439.346.656.529a6.872,6.872,0,0,1-.686.5c-.1.058-.267.01-.4.009" transform="translate(-94.189 -64.53)" fill="#12263f"/>
        <path id="Trazado_231736" data-name="Trazado 231736" d="M14.951,12.877c-.244.293-.549.507-.523.665.038.223.321.4.5.6.186-.193.477-.364.522-.585.032-.157-.266-.382-.5-.684m2.361-.051c-.279.345-.578.559-.551.719.038.222.319.4.5.6.182-.166.5-.325.511-.5.012-.217-.234-.448-.456-.821m2.267,1.5c.242-.3.537-.513.511-.672-.037-.223-.314-.405-.488-.605-.182.193-.468.365-.513.586-.032.158.257.382.49.692" transform="translate(-12.041 -10.705)" fill="#12263f"/>
        <path id="Trazado_231737" data-name="Trazado 231737" d="M14.95,13.137c.234.3.532.527.5.684-.046.221-.336.392-.522.585-.179-.2-.462-.381-.5-.6-.027-.158.279-.372.523-.665" transform="translate(-12.04 -10.965)" fill="#12263f"/>
        <path id="Trazado_231738" data-name="Trazado 231738" d="M29.085,12.826c.222.372.468.6.456.821-.01.176-.329.334-.511.5-.177-.2-.458-.38-.5-.6-.027-.16.272-.374.551-.719" transform="translate(-23.813 -10.705)" fill="#12263f"/>
        <path id="Trazado_231739" data-name="Trazado 231739" d="M43.1,15.471c-.233-.31-.522-.533-.49-.692.045-.221.33-.393.513-.586.174.2.451.383.488.605.026.159-.269.372-.511.672" transform="translate(-35.559 -11.846)" fill="#12263f"/>
      </g>
    </g>
    <g id="Grupo_180577" data-name="Grupo 180577" transform="translate(-9809.371 -8391.947)">
      <g id="Grupo_180576" data-name="Grupo 180576" clip-path="url(#clip-path-34)">
        <path id="Trazado_232052" data-name="Trazado 232052" d="M0,249.388q0-8.109,0-16.217c0-1.237.31-1.548,1.547-1.548H26.442c1.235,0,1.548.313,1.548,1.548q0,16.217,0,32.435c0,1.234-.314,1.547-1.549,1.547H1.479c-1.144,0-1.478-.334-1.479-1.48q0-8.142,0-16.285m25.792-15.562H2.211v31.156H25.792Z" transform="translate(0 -200.4)" fill="#12263f"/>
        <path id="Trazado_232053" data-name="Trazado 232053" d="M302.1,88.588c-1.087,0-2.072.011-3.056,0-1.1-.016-1.582-.872-.983-1.786q2.046-3.119,4.14-6.207a1.089,1.089,0,0,1,1.935-.023q2.117,3.113,4.177,6.264a1.071,1.071,0,0,1-.976,1.751c-1,.017-2.007,0-3.084,0v.843q0,18.837,0,37.673a6.437,6.437,0,0,1-4.834,6.479,7.415,7.415,0,0,1-1.793.217q-5.751.028-11.5.007a6.447,6.447,0,0,1-6.626-6.633c-.011-4.776,0-9.553,0-14.329v-.517h2.153v.707q0,7,0,13.993a4.329,4.329,0,0,0,4.621,4.628q5.617,0,11.233,0a4.316,4.316,0,0,0,4.6-4.582q0-18.8,0-37.606v-.878m-1.19-2.193h4.529L303.181,83l-2.265,3.4" transform="translate(-241.818 -69.209)" fill="#12263f"/>
        <path id="Trazado_232054" data-name="Trazado 232054" d="M47.967,88.879c-.436-.2-.819-.374-1.2-.555a1.238,1.238,0,0,0-1.622.98c-.034,1.3-.182,1.477-1.454,1.75a9.745,9.745,0,0,1-4.333-.06c-.863-.2-1.122-.515-1.141-1.4A1.214,1.214,0,0,0,36.3,88.474c-.944.484-1.216.441-1.943-.316a9.474,9.474,0,0,1-2.225-3.791c-.284-.911-.147-1.251.665-1.715.359-.205.733-.324.706-.911s-.107-.981-.7-1.26c-.826-.387-.944-.777-.684-1.636a9.457,9.457,0,0,1,2.339-3.95c.612-.623,1.008-.758,1.717-.258.728.513,1.255.2,1.8-.184a.892.892,0,0,0,.225-.626c.05-1.263.193-1.448,1.418-1.719a9.876,9.876,0,0,1,4.4.054c.853.2,1.1.511,1.123,1.41a1.213,1.213,0,0,0,1.88,1.12c.984-.508,1.253-.469,2,.322a9.466,9.466,0,0,1,2.23,3.863,1.146,1.146,0,0,1-.653,1.608c-.727.421-.9.742-.7,1.559.046.191.287.37.48.485,1.063.632,1.167.9.768,2.074a9.346,9.346,0,0,1-2.332,3.724,5.151,5.151,0,0,1-.844.551m1.07-10.017c-.366-.606-.671-1.176-1.048-1.695a.7.7,0,0,0-.632-.174,3.992,3.992,0,0,1-4.16-1.717.749.749,0,0,1-.119-.311c.044-.929-.577-.95-1.238-.921a7.8,7.8,0,0,0-1.071.066.593.593,0,0,0-.394.341A3.916,3.916,0,0,1,37.3,77.144a1.5,1.5,0,0,1-.859-.037c-.872-.521-1.18.092-1.515.679-.2.345-.366.706-.561,1.084.175.114.3.2.431.28.948.547,1.019.7.874,1.78a2.442,2.442,0,0,0-.023.936,1.747,1.747,0,0,1-1.173,2.343c-.029.011-.035.077-.087.2.3.49.622,1.021.94,1.557.175.3.353.355.708.212a3.784,3.784,0,0,1,4.182,1.851c.025.063.075.127.07.187-.071.925.575.9,1.19.889a6.58,6.58,0,0,0,1.137-.077.581.581,0,0,0,.365-.365,3.9,3.9,0,0,1,3.508-2.688.934.934,0,0,1,.461.063c.793.552,1.1-.035,1.421-.587.219-.381.408-.779.618-1.183-.2-.123-.336-.206-.47-.283-.9-.522-.967-.706-.849-1.736a5.409,5.409,0,0,0-.029-1.469A1.273,1.273,0,0,1,48.4,79.24c.18-.084.344-.2.634-.379" transform="translate(-27.684 -62.195)" fill="#12263f"/>
        <path id="Trazado_232055" data-name="Trazado 232055" d="M123,37.012h-2.157v-.817q0-10.629,0-21.259c0-3.067-1.731-4.81-4.776-4.81H103.225c-3.036,0-4.528,1.259-5.038,4.27H96.142a6.352,6.352,0,0,1,5.138-6.287,9.05,9.05,0,0,1,1.6-.13q6.659-.015,13.319,0a6.461,6.461,0,0,1,6.8,6.8q.006,10.764,0,21.528Z" transform="translate(-83.17 -6.896)" fill="#12263f"/>
        <path id="Trazado_232056" data-name="Trazado 232056" d="M427.591,8.612a4.306,4.306,0,1,1,4.292-4.34,4.308,4.308,0,0,1-4.292,4.34m0-2.159a2.148,2.148,0,1,0-2.167-2.114A2.148,2.148,0,0,0,427.6,6.453" transform="translate(-366.215 0)" fill="#12263f"/>
        <path id="Trazado_232057" data-name="Trazado 232057" d="M264.177,243.941a4.307,4.307,0,1,1-4.31-4.323,4.329,4.329,0,0,1,4.31,4.323m-4.287-2.166a2.15,2.15,0,1,0,2.129,2.152,2.159,2.159,0,0,0-2.129-2.152" transform="translate(-221.113 -207.317)" fill="#12263f"/>
        <path id="Trazado_232058" data-name="Trazado 232058" d="M35.688,263.55c.85,0,1.7-.011,2.551,0a1.083,1.083,0,0,1,1.209,1.2q.021,2.551,0,5.1a1.1,1.1,0,0,1-1.252,1.229q-2.517.011-5.035,0a1.094,1.094,0,0,1-1.246-1.233q-.016-2.518,0-5.035c.005-.872.4-1.252,1.285-1.263.828-.01,1.656,0,2.484,0M34.1,268.891h3.147v-3.159H34.1Z" transform="translate(-27.61 -228.019)" fill="#12263f"/>
        <path id="Trazado_232059" data-name="Trazado 232059" d="M31.9,339.172c0-.852-.011-1.7,0-2.557a1.084,1.084,0,0,1,1.214-1.2q2.556-.019,5.113,0a1.085,1.085,0,0,1,1.2,1.217q.018,2.557,0,5.114a1.081,1.081,0,0,1-1.214,1.2q-2.556.018-5.113,0a1.088,1.088,0,0,1-1.2-1.214c-.015-.852,0-1.7,0-2.557Zm2.167,1.578h3.167v-3.129H34.067Z" transform="translate(-27.593 -290.19)" fill="#12263f"/>
        <path id="Trazado_232060" data-name="Trazado 232060" d="M35.755,407.317c.828,0,1.656-.009,2.484,0a1.084,1.084,0,0,1,1.214,1.2q.016,2.552,0,5.1a1.1,1.1,0,0,1-1.248,1.232q-2.518.016-5.036,0a1.093,1.093,0,0,1-1.246-1.231q-.014-2.518,0-5.036c0-.872.4-1.258,1.282-1.267.85-.009,1.7,0,2.551,0m1.512,2.192H34.119v3.165h3.148Z" transform="translate(-27.613 -352.407)" fill="#12263f"/>
        <rect id="Rectángulo_58427" data-name="Rectángulo 58427" width="9.613" height="2.093" transform="translate(14.038 38.797)" fill="#12263f"/>
        <rect id="Rectángulo_58428" data-name="Rectángulo 58428" width="9.594" height="2.099" transform="translate(14.037 48.482)" fill="#12263f"/>
        <rect id="Rectángulo_58429" data-name="Rectángulo 58429" width="9.621" height="2.08" transform="translate(14.035 58.171)" fill="#12263f"/>
        <path id="Trazado_232061" data-name="Trazado 232061" d="M76.208,111.82a4.306,4.306,0,1,1-4.324,4.3,4.311,4.311,0,0,1,4.324-4.3m2.13,4.275a2.148,2.148,0,1,0-2.1,2.18,2.154,2.154,0,0,0,2.1-2.18" transform="translate(-62.195 -96.746)" fill="#12263f"/>
      </g>
    </g>
    <path id="Trazado_238784" data-name="Trazado 238784" d="M-48.024-12.086l3.1,8.766,3.088-8.766h3.271V0h-2.5V-3.3l.249-5.7L-44.073,0h-1.71l-3.254-9,.249,5.694V0h-2.49V-12.086ZM-32.41.166a4.409,4.409,0,0,1-3.217-1.212,4.308,4.308,0,0,1-1.241-3.229v-.232a5.426,5.426,0,0,1,.523-2.42,3.838,3.838,0,0,1,1.482-1.644,4.159,4.159,0,0,1,2.187-.577,3.727,3.727,0,0,1,2.9,1.162,4.722,4.722,0,0,1,1.058,3.3v.979h-5.719a2.229,2.229,0,0,0,.7,1.411,2.12,2.12,0,0,0,1.482.531,2.589,2.589,0,0,0,2.167-1l1.179,1.32A3.6,3.6,0,0,1-30.368-.261,4.793,4.793,0,0,1-32.41.166Zm-.274-7.379a1.5,1.5,0,0,0-1.158.484,2.5,2.5,0,0,0-.569,1.384h3.337v-.192a1.786,1.786,0,0,0-.432-1.238A1.547,1.547,0,0,0-32.684-7.213Zm8.2-3.976v2.208h1.536v1.76h-1.536v4.482a1.07,1.07,0,0,0,.191.714.959.959,0,0,0,.73.216,3.826,3.826,0,0,0,.706-.058V-.05a4.939,4.939,0,0,1-1.453.216,2.29,2.29,0,0,1-2.573-2.548V-7.222h-1.312v-1.76h1.312v-2.208Zm2.25,6.616a5.327,5.327,0,0,1,.515-2.382,3.768,3.768,0,0,1,1.482-1.619,4.323,4.323,0,0,1,2.245-.573,4.09,4.09,0,0,1,2.968,1.112,4.464,4.464,0,0,1,1.282,3.021l.017.614a4.694,4.694,0,0,1-1.154,3.316,4.011,4.011,0,0,1-3.1,1.249,4.031,4.031,0,0,1-3.1-1.245,4.777,4.777,0,0,1-1.158-3.387Zm2.4.17a3.357,3.357,0,0,0,.481,1.958,1.588,1.588,0,0,0,1.378.678,1.592,1.592,0,0,0,1.361-.669,3.674,3.674,0,0,0,.49-2.141,3.324,3.324,0,0,0-.49-1.945,1.592,1.592,0,0,0-1.378-.69,1.566,1.566,0,0,0-1.361.686A3.735,3.735,0,0,0-19.835-4.4Zm7.213-.154A5.413,5.413,0,0,1-11.679-7.9,3.057,3.057,0,0,1-9.1-9.147a2.751,2.751,0,0,1,2.167.979V-12.75h2.407V0H-6.695l-.116-.955A2.823,2.823,0,0,1-9.118.166a3.049,3.049,0,0,1-2.544-1.249A5.587,5.587,0,0,1-12.621-4.557Zm2.4.171a3.565,3.565,0,0,0,.44,1.943A1.432,1.432,0,0,0-8.5-1.768,1.6,1.6,0,0,0-6.935-2.71V-6.271a1.582,1.582,0,0,0-1.552-.942Q-10.222-7.213-10.222-4.386Zm7.18-.187a5.327,5.327,0,0,1,.515-2.382A3.768,3.768,0,0,1-1.046-8.575,4.323,4.323,0,0,1,1.2-9.147,4.09,4.09,0,0,1,4.167-8.035,4.464,4.464,0,0,1,5.449-5.014l.017.614A4.694,4.694,0,0,1,4.312-1.083,4.011,4.011,0,0,1,1.216.166a4.031,4.031,0,0,1-3.1-1.245A4.777,4.777,0,0,1-3.042-4.466Zm2.4.17A3.357,3.357,0,0,0-.162-2.446a1.588,1.588,0,0,0,1.378.678,1.592,1.592,0,0,0,1.361-.669,3.674,3.674,0,0,0,.49-2.141,3.324,3.324,0,0,0-.49-1.945A1.592,1.592,0,0,0,1.2-7.213a1.566,1.566,0,0,0-1.361.686A3.735,3.735,0,0,0-.643-4.4ZM9.475,0H7.068V-12.75H9.475Zm1.6-4.574a5.327,5.327,0,0,1,.515-2.382,3.768,3.768,0,0,1,1.482-1.619,4.323,4.323,0,0,1,2.245-.573,4.09,4.09,0,0,1,2.968,1.112,4.464,4.464,0,0,1,1.282,3.021l.017.614a4.694,4.694,0,0,1-1.154,3.316,4.011,4.011,0,0,1-3.1,1.249,4.031,4.031,0,0,1-3.1-1.245,4.777,4.777,0,0,1-1.158-3.387Zm2.4.17a3.357,3.357,0,0,0,.481,1.958,1.588,1.588,0,0,0,1.378.678A1.592,1.592,0,0,0,16.7-2.437a3.674,3.674,0,0,0,.49-2.141,3.324,3.324,0,0,0-.49-1.945,1.592,1.592,0,0,0-1.378-.69,1.566,1.566,0,0,0-1.361.686A3.735,3.735,0,0,0,13.476-4.4Zm7.238-.154A5.264,5.264,0,0,1,21.7-7.886,3.187,3.187,0,0,1,24.35-9.147a2.8,2.8,0,0,1,2.3,1.013l.1-.847h2.175V-.3a3.839,3.839,0,0,1-.535,2.05A3.439,3.439,0,0,1,26.882,3.08a5.3,5.3,0,0,1-2.274.457,4.925,4.925,0,0,1-1.926-.394,3.418,3.418,0,0,1-1.419-1.017L22.325.664a2.81,2.81,0,0,0,2.175,1,2.057,2.057,0,0,0,1.486-.51,1.915,1.915,0,0,0,.531-1.448V-.772a2.775,2.775,0,0,1-2.183.938A3.179,3.179,0,0,1,21.715-1.1a5.262,5.262,0,0,1-1-3.358Zm2.4.171a3.3,3.3,0,0,0,.49,1.922,1.557,1.557,0,0,0,1.345.7,1.665,1.665,0,0,0,1.569-.826V-6.388a1.661,1.661,0,0,0-1.552-.826,1.566,1.566,0,0,0-1.357.709A3.715,3.715,0,0,0,23.114-4.386ZM33.357,0h-2.4V-8.981h2.4Zm-.706-12.625h2.615L34.081-11.3l-1.114,1.247H31.016l1.335-2.1ZM40.628,0a2.664,2.664,0,0,1-.241-.805,2.9,2.9,0,0,1-2.266.971A3.189,3.189,0,0,1,35.934-.6a2.456,2.456,0,0,1-.867-1.926,2.538,2.538,0,0,1,1.058-2.191,5.222,5.222,0,0,1,3.059-.772h1.1V-6a1.48,1.48,0,0,0-.32-1,1.257,1.257,0,0,0-1.009-.374,1.429,1.429,0,0,0-.95.291.987.987,0,0,0-.344.8h-2.4a2.41,2.41,0,0,1,.481-1.444A3.182,3.182,0,0,1,37.109-8.77a4.961,4.961,0,0,1,1.976-.378,3.92,3.92,0,0,1,2.635.834A2.918,2.918,0,0,1,42.7-5.968v3.893a4.294,4.294,0,0,0,.357,1.934V0ZM38.644-1.668a2.066,2.066,0,0,0,.979-.237,1.554,1.554,0,0,0,.664-.635V-4.084h-.9q-1.8,0-1.917,1.245l-.008.141a.96.96,0,0,0,.315.739A1.225,1.225,0,0,0,38.644-1.668ZM49.4-2.482a.773.773,0,0,0-.436-.693,4.95,4.95,0,0,0-1.4-.452q-3.2-.672-3.2-2.723a2.468,2.468,0,0,1,.992-2,4,4,0,0,1,2.594-.8,4.307,4.307,0,0,1,2.735.805A2.538,2.538,0,0,1,51.71-6.25h-2.4a1.161,1.161,0,0,0-.332-.851,1.405,1.405,0,0,0-1.038-.336A1.436,1.436,0,0,0,47-7.164a.865.865,0,0,0-.332.7.739.739,0,0,0,.378.643,3.885,3.885,0,0,0,1.274.423,10.407,10.407,0,0,1,1.511.4,2.482,2.482,0,0,1,1.9,2.416A2.343,2.343,0,0,1,50.68-.594a4.548,4.548,0,0,1-2.723.76,4.75,4.75,0,0,1-2-.4,3.363,3.363,0,0,1-1.374-1.1,2.565,2.565,0,0,1-.5-1.515h2.274a1.252,1.252,0,0,0,.473.979,1.877,1.877,0,0,0,1.179.34A1.737,1.737,0,0,0,49.049-1.8.814.814,0,0,0,49.4-2.482ZM-16.755,20A2.664,2.664,0,0,1-17,19.195a2.9,2.9,0,0,1-2.266.971,3.189,3.189,0,0,1-2.187-.764,2.456,2.456,0,0,1-.867-1.926,2.538,2.538,0,0,1,1.058-2.191,5.222,5.222,0,0,1,3.059-.772h1.1V14a1.48,1.48,0,0,0-.32-1,1.257,1.257,0,0,0-1.009-.374,1.429,1.429,0,0,0-.95.291.987.987,0,0,0-.344.8h-2.4a2.41,2.41,0,0,1,.481-1.444,3.182,3.182,0,0,1,1.361-1.042,4.961,4.961,0,0,1,1.976-.378,3.92,3.92,0,0,1,2.635.834,2.918,2.918,0,0,1,.975,2.345v3.893a4.294,4.294,0,0,0,.357,1.934V20Zm-1.984-1.668a2.066,2.066,0,0,0,.979-.237,1.554,1.554,0,0,0,.664-.635V15.916h-.9q-1.8,0-1.917,1.245l-.008.141a.96.96,0,0,0,.315.739A1.225,1.225,0,0,0-18.739,18.332Zm5.545-2.889a5.264,5.264,0,0,1,.984-3.329,3.187,3.187,0,0,1,2.652-1.262,2.8,2.8,0,0,1,2.3,1.013l.1-.847h2.175V19.7a3.839,3.839,0,0,1-.535,2.05A3.439,3.439,0,0,1-7.027,23.08a5.3,5.3,0,0,1-2.274.457,4.925,4.925,0,0,1-1.926-.394,3.418,3.418,0,0,1-1.419-1.017l1.063-1.461a2.81,2.81,0,0,0,2.175,1,2.057,2.057,0,0,0,1.486-.51,1.915,1.915,0,0,0,.531-1.448v-.481a2.775,2.775,0,0,1-2.183.938A3.179,3.179,0,0,1-12.194,18.9a5.262,5.262,0,0,1-1-3.358Zm2.4.171a3.3,3.3,0,0,0,.49,1.922,1.557,1.557,0,0,0,1.345.7,1.665,1.665,0,0,0,1.569-.826V13.612a1.661,1.661,0,0,0-1.552-.826A1.566,1.566,0,0,0-10.3,13.5,3.715,3.715,0,0,0-10.8,15.614ZM-.61,20H-3.017V11.019H-.61ZM-3.158,8.694A1.181,1.181,0,0,1-2.8,7.806a1.356,1.356,0,0,1,.984-.349,1.36,1.36,0,0,1,.979.349,1.175,1.175,0,0,1,.365.888,1.178,1.178,0,0,1-.369.9,1.363,1.363,0,0,1-.975.349,1.363,1.363,0,0,1-.975-.349A1.178,1.178,0,0,1-3.158,8.694ZM3.9,20H1.49V7.25H3.9Zm6.109.166A4.409,4.409,0,0,1,6.79,18.954a4.308,4.308,0,0,1-1.241-3.229v-.232a5.426,5.426,0,0,1,.523-2.42,3.838,3.838,0,0,1,1.482-1.644,4.159,4.159,0,0,1,2.187-.577,3.727,3.727,0,0,1,2.9,1.162,4.722,4.722,0,0,1,1.058,3.3v.979H7.981a2.229,2.229,0,0,0,.7,1.411,2.12,2.12,0,0,0,1.482.531,2.589,2.589,0,0,0,2.167-1l1.179,1.32a3.6,3.6,0,0,1-1.461,1.191A4.793,4.793,0,0,1,10.007,20.166Zm-.274-7.379a1.5,1.5,0,0,0-1.158.484,2.5,2.5,0,0,0-.569,1.384h3.337v-.192a1.786,1.786,0,0,0-.432-1.238A1.547,1.547,0,0,0,9.733,12.787Zm10.193,4.731a.773.773,0,0,0-.436-.693,4.95,4.95,0,0,0-1.4-.452q-3.2-.672-3.2-2.723a2.468,2.468,0,0,1,.992-2,4,4,0,0,1,2.594-.8,4.307,4.307,0,0,1,2.735.805,2.538,2.538,0,0,1,1.025,2.092h-2.4A1.161,1.161,0,0,0,19.5,12.9a1.405,1.405,0,0,0-1.038-.336,1.436,1.436,0,0,0-.938.274.865.865,0,0,0-.332.7.739.739,0,0,0,.378.643,3.885,3.885,0,0,0,1.274.423,10.407,10.407,0,0,1,1.511.4,2.482,2.482,0,0,1,1.9,2.416A2.343,2.343,0,0,1,21.2,19.406a4.548,4.548,0,0,1-2.723.76,4.75,4.75,0,0,1-2-.4,3.363,3.363,0,0,1-1.374-1.1,2.565,2.565,0,0,1-.5-1.515H16.88a1.252,1.252,0,0,0,.473.979,1.877,1.877,0,0,0,1.179.34,1.737,1.737,0,0,0,1.042-.261A.814.814,0,0,0,19.926,17.518Z" transform="translate(-9776.219 -8303.251)" fill="#12263f"/>
    <path id="Trazado_238785" data-name="Trazado 238785" d="M32.651-12.625h2.615L34.081-11.3l-1.114,1.247H31.016l1.335-2.1Z" transform="translate(-9826.219 -8283.663)" fill="#12263f"/>
  </g>
</svg>
