<svg xmlns="http://www.w3.org/2000/svg" xmlns:xlink="http://www.w3.org/1999/xlink" width="378" height="282" viewBox="0 0 378 282">
  <defs>
    <linearGradient id="linear-gradient" x1="0.5" x2="0.5" y2="1" gradientUnits="objectBoundingBox">
      <stop offset="0" stop-color="#fdbe41"/>
      <stop offset="1" stop-color="#d09f40"/>
    </linearGradient>
  </defs>
  <g id="Grupo_180622" data-name="Grupo 180622" transform="translate(5380 7995)">
    <path id="Trazado_232162" data-name="Trazado 232162" d="M0,0H378V106H0Z" transform="translate(-5380 -7995)" fill="#e8e8e8"/>
    <path id="Trazado_232163" data-name="Trazado 232163" d="M0,0H378V106H0Z" transform="translate(-5380 -7819)" fill="#e8e8e8"/>
    <path id="Trazado_232164" data-name="Trazado 232164" d="M82.5,0C128.063,0,165,37.16,165,83s-36.937,83-82.5,83S0,128.84,0,83,36.937,0,82.5,0Z" transform="translate(-5281 -7941)" fill="url(#linear-gradient)"/>
    <path id="Trazado_232165" data-name="Trazado 232165" d="M-28.774-14.219-25.6-4.326l3.164-9.893h4.512V0h-3.437V-3.32l.332-6.8L-24.468,0h-2.266l-3.447-10.127.332,6.807V0h-3.428V-14.219ZM-10.786.2a5.432,5.432,0,0,1-3.936-1.45,5.008,5.008,0,0,1-1.5-3.774V-5.3a6.489,6.489,0,0,1,.6-2.861,4.395,4.395,0,0,1,1.753-1.919,5.292,5.292,0,0,1,2.734-.679A4.574,4.574,0,0,1-7.622-9.38,5.43,5.43,0,0,1-6.333-5.527v1.279h-6.543a2.372,2.372,0,0,0,.771,1.4,2.3,2.3,0,0,0,1.543.508A2.958,2.958,0,0,0-8.12-3.437l1.5,1.777A4.2,4.2,0,0,1-8.359-.308,5.891,5.891,0,0,1-10.786.2Zm-.371-8.418q-1.445,0-1.719,1.914h3.32v-.254a1.63,1.63,0,0,0-.4-1.226A1.593,1.593,0,0,0-11.157-8.223ZM-11.2-15.01H-7.72l-2.715,3.066-2.686,0Zm10.02,1.816v2.627H.562v2.285H-1.177v4.834a1.234,1.234,0,0,0,.215.83,1.152,1.152,0,0,0,.85.234,4.828,4.828,0,0,0,.82-.059V-.088A6.074,6.074,0,0,1-1.147.2a3.448,3.448,0,0,1-2.51-.8,3.282,3.282,0,0,1-.811-2.432V-8.281H-5.815v-2.285h1.348v-2.627ZM1.147-5.381A6.236,6.236,0,0,1,1.763-8.2,4.4,4.4,0,0,1,3.53-10.1a5.323,5.323,0,0,1,2.705-.664,4.858,4.858,0,0,1,3.74,1.47,5.64,5.64,0,0,1,1.367,4v.117A5.472,5.472,0,0,1,9.971-1.255,4.871,4.871,0,0,1,6.255.2,4.927,4.927,0,0,1,2.632-1.157,5.29,5.29,0,0,1,1.157-4.824Zm3.291.205A3.932,3.932,0,0,0,4.9-3.027a1.529,1.529,0,0,0,1.357.684q1.758,0,1.8-2.705v-.332q0-2.842-1.816-2.842-1.65,0-1.787,2.451Zm7.939-.186a6.455,6.455,0,0,1,1.084-3.955,3.568,3.568,0,0,1,3.027-1.445,3.035,3.035,0,0,1,2.383,1.113V-15h3.3V0H19.214l-.166-1.133A3.116,3.116,0,0,1,16.47.2,3.562,3.562,0,0,1,13.481-1.25,6.659,6.659,0,0,1,12.378-5.361Zm3.291.205q0,2.813,1.641,2.813a1.62,1.62,0,0,0,1.563-.918V-7.285a1.576,1.576,0,0,0-1.543-.937q-1.523,0-1.65,2.461Zm7.959-.225A6.236,6.236,0,0,1,24.243-8.2a4.4,4.4,0,0,1,1.768-1.9,5.323,5.323,0,0,1,2.705-.664,4.858,4.858,0,0,1,3.74,1.47,5.64,5.64,0,0,1,1.367,4v.117a5.472,5.472,0,0,1-1.372,3.921A4.871,4.871,0,0,1,28.735.2a4.927,4.927,0,0,1-3.623-1.353,5.29,5.29,0,0,1-1.475-3.667Zm3.291.205a3.932,3.932,0,0,0,.459,2.148,1.529,1.529,0,0,0,1.357.684q1.758,0,1.8-2.705v-.332q0-2.842-1.816-2.842-1.65,0-1.787,2.451Z" transform="translate(-5199 -7870)" fill="#fff"/>
    <path id="Trazado_232166" data-name="Trazado 232166" d="M-50.858-2.5h5.668V0h-8.925V-13.508h3.256ZM-39.1.186a5.16,5.16,0,0,1-3.739-1.378,4.757,4.757,0,0,1-1.429-3.586v-.26A6.165,6.165,0,0,1-43.7-7.756a4.175,4.175,0,0,1,1.665-1.823,5.027,5.027,0,0,1,2.6-.645A4.345,4.345,0,0,1-36.1-8.911a5.159,5.159,0,0,1,1.225,3.66v1.215h-6.216a2.253,2.253,0,0,0,.733,1.327,2.181,2.181,0,0,0,1.466.482,2.81,2.81,0,0,0,2.319-1.039l1.429,1.688A3.994,3.994,0,0,1-36.8-.292,5.6,5.6,0,0,1-39.1.186Zm-.353-8q-1.373,0-1.633,1.818h3.154v-.241a1.549,1.549,0,0,0-.38-1.164A1.514,1.514,0,0,0-39.457-7.812ZM-27.962,0a3.53,3.53,0,0,1-.3-.9A2.907,2.907,0,0,1-30.671.186a3.562,3.562,0,0,1-2.412-.858,2.731,2.731,0,0,1-.993-2.157A2.807,2.807,0,0,1-32.87-5.3a6.144,6.144,0,0,1,3.507-.835h.965v-.531q0-1.389-1.2-1.389a.978.978,0,0,0-1.113,1.1h-3.126A2.8,2.8,0,0,1-32.6-9.316a5.2,5.2,0,0,1,3.159-.908,4.563,4.563,0,0,1,3.034.937,3.258,3.258,0,0,1,1.141,2.57v4.444a4.551,4.551,0,0,0,.427,2.115V0Zm-1.958-2.041a1.744,1.744,0,0,0,.969-.25,1.57,1.57,0,0,0,.552-.566v-1.6h-.909Q-30.94-4.462-30.94-3a.9.9,0,0,0,.288.691A1.041,1.041,0,0,0-29.919-2.041Zm9.259-8,.1,1.178a3.4,3.4,0,0,1,2.867-1.364,2.864,2.864,0,0,1,2.343.937,4.461,4.461,0,0,1,.8,2.82V0h-3.136V-6.336a1.694,1.694,0,0,0-.306-1.118A1.416,1.416,0,0,0-19.1-7.812a1.491,1.491,0,0,0-1.364.724V0h-3.126V-10.038ZM-.974-3.59A1.338,1.338,0,0,0-1.48-4.7a6.284,6.284,0,0,0-1.777-.826,17.044,17.044,0,0,1-2.078-.826Q-7.96-7.645-7.96-9.9a3.178,3.178,0,0,1,.654-1.981,4.23,4.23,0,0,1,1.851-1.336,7.2,7.2,0,0,1,2.69-.478,6.3,6.3,0,0,1,2.612.52,4.135,4.135,0,0,1,1.8,1.48A3.864,3.864,0,0,1,2.282-9.5H-.965a1.633,1.633,0,0,0-.506-1.28,1.971,1.971,0,0,0-1.368-.455,2.222,2.222,0,0,0-1.378.385,1.181,1.181,0,0,0-.506.979,1.189,1.189,0,0,0,.557.942,7.02,7.02,0,0,0,1.958.872,11.992,11.992,0,0,1,2.3.969A3.866,3.866,0,0,1,2.282-3.609,3.3,3.3,0,0,1,.946-.826,5.942,5.942,0,0,1-2.718.186,7.27,7.27,0,0,1-5.692-.4a4.483,4.483,0,0,1-2-1.614,4.206,4.206,0,0,1-.673-2.361H-5.1a2.072,2.072,0,0,0,.561,1.6,2.653,2.653,0,0,0,1.823.515,2.1,2.1,0,0,0,1.276-.348A1.148,1.148,0,0,0-.974-3.59ZM7.45-12.534v2.5H9.1v2.171H7.45v4.592a1.173,1.173,0,0,0,.2.789,1.1,1.1,0,0,0,.807.223,4.587,4.587,0,0,0,.779-.056V-.083A5.77,5.77,0,0,1,7.478.186,3.275,3.275,0,0,1,5.093-.575a3.118,3.118,0,0,1-.77-2.31V-7.867H3.043v-2.171h1.28v-2.5ZM15.985,0a3.53,3.53,0,0,1-.3-.9A2.907,2.907,0,0,1,13.276.186a3.562,3.562,0,0,1-2.412-.858A2.731,2.731,0,0,1,9.871-2.83,2.807,2.807,0,0,1,11.077-5.3a6.144,6.144,0,0,1,3.507-.835h.965v-.531q0-1.389-1.2-1.389a.978.978,0,0,0-1.113,1.1H10.112a2.8,2.8,0,0,1,1.239-2.363,5.2,5.2,0,0,1,3.159-.908,4.563,4.563,0,0,1,3.034.937,3.258,3.258,0,0,1,1.141,2.57v4.444a4.551,4.551,0,0,0,.427,2.115V0ZM14.027-2.041A1.744,1.744,0,0,0,15-2.292a1.57,1.57,0,0,0,.552-.566v-1.6H14.64q-1.633,0-1.633,1.466a.9.9,0,0,0,.288.691A1.041,1.041,0,0,0,14.027-2.041ZM26.487-7.208l-1.03-.074a1.85,1.85,0,0,0-1.893.928V0H20.438V-10.038H23.37l.1,1.29a2.421,2.421,0,0,1,2.2-1.475,3.049,3.049,0,0,1,.872.111Zm5.232-5.325v2.5h1.651v2.171H31.719v4.592a1.173,1.173,0,0,0,.2.789,1.1,1.1,0,0,0,.807.223,4.586,4.586,0,0,0,.779-.056V-.083a5.77,5.77,0,0,1-1.763.269,3.275,3.275,0,0,1-2.384-.761,3.118,3.118,0,0,1-.77-2.31V-7.867h-1.28v-2.171h1.28v-2.5Zm8.86,11.448A3.223,3.223,0,0,1,37.9.186a3.161,3.161,0,0,1-2.5-.96,4.038,4.038,0,0,1-.849-2.76v-6.5h3.126v6.522a1.124,1.124,0,0,0,1.252,1.29A1.634,1.634,0,0,0,40.458-3v-7.042H43.6V0H40.672ZM54.634-4.945a6.053,6.053,0,0,1-1.053,3.734,3.376,3.376,0,0,1-2.844,1.4A2.894,2.894,0,0,1,48.465-.826V3.859H45.338v-13.9h2.922l.093.928a2.894,2.894,0,0,1,2.366-1.113A3.4,3.4,0,0,1,53.6-8.855a6.128,6.128,0,0,1,1.03,3.762ZM51.508-5.14q0-2.672-1.559-2.672a1.471,1.471,0,0,0-1.484.8v3.952a1.519,1.519,0,0,0,1.5.835q1.494,0,1.54-2.579Z" transform="translate(-5201 -7840)" fill="#12263f"/>
    <path id="Trazado_232167" data-name="Trazado 232167" d="M-19.438-4.814a5.193,5.193,0,0,1-.8,2.622A4.833,4.833,0,0,1-22.295-.43,7,7,0,0,1-25.317.2a5.584,5.584,0,0,1-4.414-1.826,7.54,7.54,0,0,1-1.611-5.156v-.7a8.607,8.607,0,0,1,.728-3.657,5.513,5.513,0,0,1,2.095-2.422,5.844,5.844,0,0,1,3.164-.854,6.129,6.129,0,0,1,4.16,1.362,5.383,5.383,0,0,1,1.787,3.755h-3.418a2.547,2.547,0,0,0-.654-1.865,2.691,2.691,0,0,0-1.875-.566,2.048,2.048,0,0,0-1.875.957,6.151,6.151,0,0,0-.625,3.057v1.006a6.806,6.806,0,0,0,.571,3.252,2.091,2.091,0,0,0,1.968.977,2.632,2.632,0,0,0,1.807-.557,2.363,2.363,0,0,0,.664-1.768Zm6.9-.215H-14.39V0h-3.428V-14.219h5.6A6.246,6.246,0,0,1-8.267-13.1a3.8,3.8,0,0,1,1.426,3.17,4.616,4.616,0,0,1-.6,2.458,4.263,4.263,0,0,1-1.88,1.58L-6.353-.147V0h-3.672ZM-14.39-7.666h2.168a1.946,1.946,0,0,0,1.47-.514,1.987,1.987,0,0,0,.493-1.434,2.01,2.01,0,0,0-.5-1.444,1.928,1.928,0,0,0-1.465-.524H-14.39ZM4.048-6.035H-1.343v3.4H5.024V0H-4.771V-14.219H5.044v2.646H-1.343v3H4.048ZM14.5-2.656H9.8L8.979,0H5.317l5.215-14.219h3.223L19.009,0H15.327ZM10.62-5.3h3.057l-1.533-4.932Zm14.707.273H23.472V0H20.044V-14.219h5.6A6.246,6.246,0,0,1,29.595-13.1a3.8,3.8,0,0,1,1.426,3.17,4.616,4.616,0,0,1-.6,2.458,4.263,4.263,0,0,1-1.88,1.58L31.509-.147V0H27.837ZM23.472-7.666H25.64a1.946,1.946,0,0,0,1.47-.514A1.987,1.987,0,0,0,27.6-9.614a2.01,2.01,0,0,0-.5-1.444,1.928,1.928,0,0,0-1.465-.524H23.472Z" transform="translate(-5199 -7972)" fill="#12263f"/>
    <path id="Trazado_232168" data-name="Trazado 232168" d="M-41.895-2.656h-4.7L-47.412,0h-3.662l5.215-14.219h3.223L-37.383,0h-3.682ZM-45.771-5.3h3.057l-1.533-4.932Zm12.852.479V0h-3.428V-14.219h5.674a6.608,6.608,0,0,1,2.886.6,4.526,4.526,0,0,1,1.943,1.709,4.667,4.667,0,0,1,.688,2.515,4.114,4.114,0,0,1-1.489,3.325,6.179,6.179,0,0,1-4.087,1.245Zm0-2.646h2.246a2.118,2.118,0,0,0,1.519-.5,1.85,1.85,0,0,0,.522-1.406,2.287,2.287,0,0,0-.537-1.592,1.9,1.9,0,0,0-1.465-.605H-32.92Zm14.873,2.441H-19.9V0H-23.33V-14.219h5.6A6.246,6.246,0,0,1-13.779-13.1a3.8,3.8,0,0,1,1.426,3.17,4.616,4.616,0,0,1-.6,2.458,4.263,4.263,0,0,1-1.88,1.58l2.969,5.741V0h-3.672ZM-19.9-7.666h2.168a1.946,1.946,0,0,0,1.47-.514,1.987,1.987,0,0,0,.493-1.434,2.01,2.01,0,0,0-.5-1.444,1.928,1.928,0,0,0-1.465-.524H-19.9ZM-1.465-6.035H-6.855v3.4H-.488V0h-9.795V-14.219H-.469v2.646H-6.855v3h5.391ZM12.783,0H9.375L4.336-8.848V0H.908V-14.219H4.336L9.365-5.371v-8.848h3.418Zm2.168,0V-14.219h4.58a6.737,6.737,0,0,1,3.389.854,6.006,6.006,0,0,1,2.349,2.412,7.283,7.283,0,0,1,.854,3.491v.654a7.325,7.325,0,0,1-.825,3.5A6.032,6.032,0,0,1,22.974-.884,6.589,6.589,0,0,1,19.629,0Zm3.428-11.572v8.936H19.57a2.666,2.666,0,0,0,2.266-1.05,5.145,5.145,0,0,0,.791-3.12v-.615a5.1,5.1,0,0,0-.791-3.105,2.713,2.713,0,0,0-2.3-1.045ZM36.7-6.035H31.309v3.4h6.367V0H27.881V-14.219H37.7v2.646H31.309v3H36.7Zm7.656,1.006H42.5V0H39.072V-14.219h5.6A6.246,6.246,0,0,1,48.623-13.1a3.8,3.8,0,0,1,1.426,3.17,4.616,4.616,0,0,1-.6,2.458,4.263,4.263,0,0,1-1.88,1.58L50.537-.147V0H46.865ZM42.5-7.666h2.168a1.946,1.946,0,0,0,1.47-.514,1.987,1.987,0,0,0,.493-1.434,2.01,2.01,0,0,0-.5-1.444,1.928,1.928,0,0,0-1.465-.524H42.5Z" transform="translate(-5314 -7763)" fill="#12263f"/>
    <path id="Trazado_232169" data-name="Trazado 232169" d="M-24.79-14.219l3.174,9.893,3.164-9.893h4.512V0h-3.437V-3.32l.332-6.8L-20.483,0h-2.266L-26.2-10.127l.332,6.807V0h-3.428V-14.219ZM-2.944-6.035H-8.335v3.4h6.367V0h-9.795V-14.219h9.814v2.646H-8.335v3h5.391ZM-.571,0V-14.219h4.58a6.737,6.737,0,0,1,3.389.854,6.006,6.006,0,0,1,2.349,2.412A7.283,7.283,0,0,1,10.6-7.461v.654a7.325,7.325,0,0,1-.825,3.5A6.032,6.032,0,0,1,7.451-.884,6.589,6.589,0,0,1,4.106,0ZM2.856-11.572v8.936H4.048a2.666,2.666,0,0,0,2.266-1.05A5.145,5.145,0,0,0,7.1-6.807v-.615a5.1,5.1,0,0,0-.791-3.105,2.713,2.713,0,0,0-2.3-1.045ZM16.011,0H12.593V-14.219h3.418Zm7.666-5.029H21.821V0H18.394V-14.219h5.6A6.246,6.246,0,0,1,27.944-13.1a3.8,3.8,0,0,1,1.426,3.17,4.616,4.616,0,0,1-.6,2.458,4.263,4.263,0,0,1-1.88,1.58L29.858-.147V0H26.187ZM21.821-7.666h2.168a1.946,1.946,0,0,0,1.47-.514,1.987,1.987,0,0,0,.493-1.434,2.01,2.01,0,0,0-.5-1.444,1.928,1.928,0,0,0-1.465-.524H21.821Z" transform="translate(-5082 -7763)" fill="#12263f"/>
    <path id="Trazado_232170" data-name="Trazado 232170" d="M-77.167-2.4l.011.032A3.8,3.8,0,0,1-78.214-.553a2.728,2.728,0,0,1-1.912.666,2.239,2.239,0,0,1-1.9-.986,2.9,2.9,0,0,1-.435-2.387l.279-1.4A4.613,4.613,0,0,1-81.02-7.071a2.832,2.832,0,0,1,2.1-.862,2.345,2.345,0,0,1,1.826.739,2.266,2.266,0,0,1,.526,1.9l-.011.027h-1a2,2,0,0,0-.306-1.34A1.329,1.329,0,0,0-79.041-7.1a1.678,1.678,0,0,0-1.313.69,3.854,3.854,0,0,0-.781,1.741l-.285,1.406a2.621,2.621,0,0,0,.175,1.833,1.321,1.321,0,0,0,1.233.711,1.574,1.574,0,0,0,1.141-.407A3.14,3.14,0,0,0-78.16-2.4Zm1.042-.559a3.926,3.926,0,0,1,.986-2.151,2.526,2.526,0,0,1,1.9-.808,1.8,1.8,0,0,1,1.625.841,2.951,2.951,0,0,1,.336,2.119l-.016.118A3.931,3.931,0,0,1-72.281-.69a2.534,2.534,0,0,1-1.9.8A1.8,1.8,0,0,1-75.81-.725a2.924,2.924,0,0,1-.33-2.116Zm1.021.115A2.809,2.809,0,0,0-75.01-1.3a.941.941,0,0,0,.953.582,1.366,1.366,0,0,0,1.117-.609,3.334,3.334,0,0,0,.607-1.515l.016-.118a2.8,2.8,0,0,0-.1-1.534.937.937,0,0,0-.945-.59,1.362,1.362,0,0,0-1.12.612,3.366,3.366,0,0,0-.6,1.513Zm6.526-2.167a2.537,2.537,0,0,1,.8-.674,2.056,2.056,0,0,1,.964-.234,1.4,1.4,0,0,1,1.219.559,2.174,2.174,0,0,1,.172,1.692L-66.156,0h-1.037l.73-3.647A1.586,1.586,0,0,0-66.5-4.761a.9.9,0,0,0-.795-.3,1.411,1.411,0,0,0-.747.228,2.3,2.3,0,0,0-.65.61L-69.54,0h-1.037l1.16-5.812h.929Zm7.348,3.467a.649.649,0,0,0-.145-.578,1.835,1.835,0,0,0-.849-.386,3.236,3.236,0,0,1-1.394-.628,1.1,1.1,0,0,1-.33-1.074,1.87,1.87,0,0,1,.757-1.222,2.489,2.489,0,0,1,1.552-.486,1.836,1.836,0,0,1,1.407.526,1.372,1.372,0,0,1,.354,1.262l-.016.032h-.994a.843.843,0,0,0-.172-.69.85.85,0,0,0-.709-.3,1.185,1.185,0,0,0-.784.251.953.953,0,0,0-.354.6.6.6,0,0,0,.126.55,1.936,1.936,0,0,0,.841.35,3.19,3.19,0,0,1,1.429.641,1.147,1.147,0,0,1,.328,1.086,1.849,1.849,0,0,1-.784,1.263,2.718,2.718,0,0,1-1.611.464A1.975,1.975,0,0,1-64.1-.457a1.419,1.419,0,0,1-.376-1.311l.011-.032h.994a.859.859,0,0,0,.242.82,1.185,1.185,0,0,0,.784.259,1.423,1.423,0,0,0,.824-.23A.874.874,0,0,0-61.23-1.544Zm4.786-5.669-.285,1.4h1l-.156.784h-1l-.7,3.529a.769.769,0,0,0,.027.588.452.452,0,0,0,.381.153,2.225,2.225,0,0,0,.3-.024,2.467,2.467,0,0,0,.277-.051l-.005.725a1.424,1.424,0,0,1-.443.158,2.691,2.691,0,0,1-.567.062,1.026,1.026,0,0,1-.867-.4A1.487,1.487,0,0,1-58.625-1.5l.7-3.529h-.849l.156-.784h.849l.285-1.4Zm4.458,2.336-.569-.032a1.142,1.142,0,0,0-.653.2,1.772,1.772,0,0,0-.518.567L-54.554,0h-1.037l1.16-5.812h.929l-.064.779a2.326,2.326,0,0,1,.679-.655,1.535,1.535,0,0,1,.814-.231,1.594,1.594,0,0,1,.234.019,1.036,1.036,0,0,1,.185.04ZM-48.458,0l.091-.795a2.412,2.412,0,0,1-.781.677,2.023,2.023,0,0,1-.959.231A1.366,1.366,0,0,1-51.34-.5a2.565,2.565,0,0,1-.148-1.88l.682-3.427h1.037l-.687,3.438a2.24,2.24,0,0,0-.021,1.308.743.743,0,0,0,.714.32A1.639,1.639,0,0,0-48.9-.983a2.034,2.034,0,0,0,.658-.655l.833-4.173h1.037L-47.529,0Zm3.518,0h-1.037l1.16-5.812h1.037Zm1.461-7.3h-1.037l.215-1.08h1.037Zm3.69,2.422-.569-.032a1.142,1.142,0,0,0-.653.2,1.772,1.772,0,0,0-.518.567L-42.356,0h-1.037l1.16-5.812h.929l-.064.779a2.326,2.326,0,0,1,.679-.655,1.535,1.535,0,0,1,.814-.231,1.594,1.594,0,0,1,.234.019,1.036,1.036,0,0,1,.185.04ZM-34.8.113A1.883,1.883,0,0,1-36.462-.7a2.794,2.794,0,0,1-.357-2.092l.038-.236a3.634,3.634,0,0,1,1.018-2.089A2.476,2.476,0,0,1-34-5.919a1.683,1.683,0,0,1,1.531.716,2.653,2.653,0,0,1,.279,1.888l-.107.662h-3.5a2.321,2.321,0,0,0,.164,1.41,1,1,0,0,0,.964.523,2.468,2.468,0,0,0,.886-.158,2.492,2.492,0,0,0,.72-.414l.3.689a2.658,2.658,0,0,1-.838.511A3.193,3.193,0,0,1-34.8.113Zm.671-5.2a1.208,1.208,0,0,0-.873.451,2.619,2.619,0,0,0-.6,1.117l.016.032h2.39l.021-.14a1.626,1.626,0,0,0-.124-1.055A.862.862,0,0,0-34.133-5.086ZM-30.54,0h-1.037L-29.9-8.379h1.037Zm9.308-2.578a4.044,4.044,0,0,1-.905,2.017,2.156,2.156,0,0,1-1.641.674,1.936,1.936,0,0,1-.841-.177,1.574,1.574,0,0,1-.615-.516L-25.8,2.234h-1.037l1.606-8.046h.892l-.038.575a2.256,2.256,0,0,1,.722-.508,2.132,2.132,0,0,1,.862-.175A1.475,1.475,0,0,1-21.4-4.99a3.592,3.592,0,0,1,.185,2.3Zm-1.015-.116a3.033,3.033,0,0,0-.062-1.7.968.968,0,0,0-.969-.662,1.157,1.157,0,0,0-.666.209,2.126,2.126,0,0,0-.553.574l-.569,2.838a1.155,1.155,0,0,0,.419.528,1.242,1.242,0,0,0,.714.19,1.336,1.336,0,0,0,1.063-.5,3.015,3.015,0,0,0,.6-1.36Zm5.35-2.183-.569-.032a1.142,1.142,0,0,0-.653.2,1.772,1.772,0,0,0-.518.567L-19.465,0H-20.5l1.16-5.812h.929l-.064.779a2.326,2.326,0,0,1,.679-.655,1.535,1.535,0,0,1,.814-.231,1.593,1.593,0,0,1,.234.019,1.036,1.036,0,0,1,.185.04Zm.274,1.917a3.926,3.926,0,0,1,.986-2.151,2.526,2.526,0,0,1,1.9-.808,1.8,1.8,0,0,1,1.625.841,2.951,2.951,0,0,1,.336,2.119l-.016.118A3.931,3.931,0,0,1-12.781-.69a2.534,2.534,0,0,1-1.9.8,1.8,1.8,0,0,1-1.625-.838,2.924,2.924,0,0,1-.33-2.116Zm1.021.115A2.809,2.809,0,0,0-15.509-1.3a.941.941,0,0,0,.953.582,1.366,1.366,0,0,0,1.117-.609,3.334,3.334,0,0,0,.607-1.515l.016-.118a2.8,2.8,0,0,0-.1-1.534.937.937,0,0,0-.945-.59,1.362,1.362,0,0,0-1.12.612,3.366,3.366,0,0,0-.6,1.513Zm4.882-.062a4.875,4.875,0,0,1,.948-2.256,2.115,2.115,0,0,1,1.678-.757,1.75,1.75,0,0,1,.808.185,1.577,1.577,0,0,1,.594.524l.634-3.169h1.037L-6.7,0h-.892l.038-.559a2.219,2.219,0,0,1-.712.5A2.086,2.086,0,0,1-9.1.113a1.528,1.528,0,0,1-1.41-.838,2.924,2.924,0,0,1-.228-2.068Zm1.021.113a2.418,2.418,0,0,0,.07,1.485.965.965,0,0,0,.967.561,1.167,1.167,0,0,0,.685-.212,2.128,2.128,0,0,0,.556-.6l.548-2.745A1.231,1.231,0,0,0-7.3-4.855a1.164,1.164,0,0,0-.7-.2,1.27,1.27,0,0,0-1.066.583,3.965,3.965,0,0,0-.615,1.571ZM-1.7,0l.091-.795a2.412,2.412,0,0,1-.781.677,2.023,2.023,0,0,1-.959.231A1.366,1.366,0,0,1-4.584-.5a2.565,2.565,0,0,1-.148-1.88l.682-3.427h1.037L-3.7-2.374a2.24,2.24,0,0,0-.021,1.308.743.743,0,0,0,.714.32A1.639,1.639,0,0,0-2.14-.983a2.034,2.034,0,0,0,.658-.655L-.65-5.812H.387L-.773,0ZM3.115-.72A1.424,1.424,0,0,0,4-1.046a1.233,1.233,0,0,0,.5-.791h.929l.011.032A2.038,2.038,0,0,1,4.6-.454,2.569,2.569,0,0,1,2.986.113a1.809,1.809,0,0,1-1.66-.838A2.923,2.923,0,0,1,1-2.793l.038-.226A3.84,3.84,0,0,1,2-5.111a2.55,2.55,0,0,1,1.952-.808,1.814,1.814,0,0,1,1.448.6,1.68,1.68,0,0,1,.363,1.48l-.011.027h-.94a1.15,1.15,0,0,0-.183-.918.95.95,0,0,0-.806-.36,1.364,1.364,0,0,0-1.166.606,3.357,3.357,0,0,0-.569,1.459L2.046-2.8a2.963,2.963,0,0,0,.075,1.5A.942.942,0,0,0,3.115-.72Zm5.9-6.494-.285,1.4h1l-.156.784h-1L7.874-1.5A.769.769,0,0,0,7.9-.91a.452.452,0,0,0,.381.153,2.225,2.225,0,0,0,.3-.024,2.467,2.467,0,0,0,.277-.051l-.005.725a1.424,1.424,0,0,1-.443.158,2.691,2.691,0,0,1-.567.062,1.026,1.026,0,0,1-.867-.4A1.487,1.487,0,0,1,6.837-1.5l.7-3.529H6.692l.156-.784H7.7l.285-1.4ZM10.1-2.959a3.926,3.926,0,0,1,.986-2.151,2.526,2.526,0,0,1,1.9-.808,1.8,1.8,0,0,1,1.625.841,2.951,2.951,0,0,1,.336,2.119l-.016.118A3.931,3.931,0,0,1,13.946-.69a2.534,2.534,0,0,1-1.9.8,1.8,1.8,0,0,1-1.625-.838,2.924,2.924,0,0,1-.33-2.116Zm1.021.115A2.809,2.809,0,0,0,11.218-1.3a.941.941,0,0,0,.953.582,1.366,1.366,0,0,0,1.117-.609A3.334,3.334,0,0,0,13.9-2.844l.016-.118a2.8,2.8,0,0,0-.1-1.534.937.937,0,0,0-.945-.59,1.362,1.362,0,0,0-1.12.612,3.366,3.366,0,0,0-.6,1.513Zm9.152-2.275a2.347,2.347,0,0,1,.784-.594,2.307,2.307,0,0,1,.983-.207,1.3,1.3,0,0,1,.824.263,1.282,1.282,0,0,1,.443.784,2.585,2.585,0,0,1,.816-.771,2.025,2.025,0,0,1,1.042-.277,1.26,1.26,0,0,1,1.149.62,2.56,2.56,0,0,1,.145,1.823L25.771,0H24.729l.7-3.486a2.037,2.037,0,0,0-.011-1.249.777.777,0,0,0-.736-.325,1.174,1.174,0,0,0-.833.389,2.284,2.284,0,0,0-.569.953.041.041,0,0,0-.005.016v.011L22.537,0H21.5l.7-3.486a1.964,1.964,0,0,0-.021-1.225.76.76,0,0,0-.73-.349,1.323,1.323,0,0,0-.73.207,1.821,1.821,0,0,0-.553.572L19.3,0H18.262l1.16-5.812h.924ZM28.322,0H27.28l1.16-5.812h1.042Zm1.472-7.96H31l.011.032-1.584,1.4H28.66ZM31.9-5.011a2.537,2.537,0,0,1,.8-.674,2.056,2.056,0,0,1,.964-.234,1.4,1.4,0,0,1,1.219.559,2.174,2.174,0,0,1,.172,1.692L34.321,0H33.285l.73-3.647a1.587,1.587,0,0,0-.043-1.115.9.9,0,0,0-.795-.3,1.411,1.411,0,0,0-.747.228,2.3,2.3,0,0,0-.65.61L30.938,0H29.9l1.16-5.812h.929ZM36.9,0H35.868l1.16-5.812h1.037Zm1.461-7.3H37.329l.215-1.08h1.037Zm2.105,2.181a2.347,2.347,0,0,1,.784-.594,2.307,2.307,0,0,1,.983-.207,1.3,1.3,0,0,1,.824.263,1.282,1.282,0,0,1,.443.784,2.585,2.585,0,0,1,.816-.771,2.025,2.025,0,0,1,1.042-.277,1.26,1.26,0,0,1,1.149.62,2.56,2.56,0,0,1,.145,1.823L45.966,0H44.924l.7-3.486a2.037,2.037,0,0,0-.011-1.249.777.777,0,0,0-.736-.325,1.174,1.174,0,0,0-.833.389,2.284,2.284,0,0,0-.569.953.041.041,0,0,0-.005.016v.011L42.732,0H41.69l.7-3.486a1.964,1.964,0,0,0-.021-1.225.76.76,0,0,0-.73-.349,1.323,1.323,0,0,0-.73.207,1.821,1.821,0,0,0-.553.572L39.494,0H38.457l1.16-5.812h.924Zm7.294,2.159a3.926,3.926,0,0,1,.986-2.151,2.526,2.526,0,0,1,1.9-.808,1.8,1.8,0,0,1,1.625.841,2.951,2.951,0,0,1,.336,2.119l-.016.118A3.931,3.931,0,0,1,51.608-.69a2.534,2.534,0,0,1-1.9.8,1.8,1.8,0,0,1-1.625-.838,2.924,2.924,0,0,1-.33-2.116Zm1.021.115A2.809,2.809,0,0,0,48.88-1.3a.941.941,0,0,0,.953.582,1.366,1.366,0,0,0,1.117-.609,3.334,3.334,0,0,0,.607-1.515l.016-.118a2.8,2.8,0,0,0-.1-1.534.937.937,0,0,0-.945-.59,1.362,1.362,0,0,0-1.12.612,3.366,3.366,0,0,0-.6,1.513Zm9.33,1.131.016.344.032.005.134-.349,1.869-4.1h1.058L58.314,0h-.779l-1.08-5.812h1.063ZM62.256,0H61.22l1.16-5.812h1.037Zm1.461-7.3H62.681l.215-1.08h1.037ZM67.112,0q0-.263.011-.432t.038-.346a3.33,3.33,0,0,1-.824.636A1.92,1.92,0,0,1,65.4.113,1.41,1.41,0,0,1,64.23-.363a1.469,1.469,0,0,1-.212-1.27,1.929,1.929,0,0,1,.873-1.329,3.311,3.311,0,0,1,1.8-.443h.994l.113-.575a.978.978,0,0,0-.118-.824.908.908,0,0,0-.752-.282,1.354,1.354,0,0,0-.816.266,1.013,1.013,0,0,0-.435.62h-.983l-.011-.032a1.822,1.822,0,0,1,.806-1.179,2.755,2.755,0,0,1,1.665-.508,1.825,1.825,0,0,1,1.367.513,1.515,1.515,0,0,1,.32,1.437l-.559,2.8a5.417,5.417,0,0,0-.1.607,2.967,2.967,0,0,0,0,.564ZM65.737-.773a1.807,1.807,0,0,0,.886-.252,2.107,2.107,0,0,0,.7-.6l.215-1.069H66.51a1.524,1.524,0,0,0-.956.328,1.247,1.247,0,0,0-.5.752.744.744,0,0,0,.081.626A.734.734,0,0,0,65.737-.773Zm8.927-1.8a4.041,4.041,0,0,1-.908,2.014,2.16,2.16,0,0,1-1.644.677,1.465,1.465,0,0,1-.838-.258,1.823,1.823,0,0,1-.607-.7L70.394,0h-.9l1.676-8.379h1.037l-.618,3.094a2.188,2.188,0,0,1,.688-.47,2.073,2.073,0,0,1,.827-.164A1.475,1.475,0,0,1,74.5-4.99a3.592,3.592,0,0,1,.185,2.3Zm-1.015-.113A3.189,3.189,0,0,0,73.614-4.4a.93.93,0,0,0-.948-.658,1.173,1.173,0,0,0-.717.247,2.389,2.389,0,0,0-.588.661l-.51,2.567a1.273,1.273,0,0,0,.419.61,1.171,1.171,0,0,0,.747.228,1.285,1.285,0,0,0,1.037-.486,3,3,0,0,0,.575-1.345ZM76.5,0H75.464L77.14-8.379h1.037Zm3.883.113A1.883,1.883,0,0,1,78.727-.7a2.794,2.794,0,0,1-.357-2.092l.038-.236a3.634,3.634,0,0,1,1.018-2.089,2.476,2.476,0,0,1,1.759-.8,1.683,1.683,0,0,1,1.531.716,2.653,2.653,0,0,1,.279,1.888l-.107.662h-3.5a2.321,2.321,0,0,0,.164,1.41,1,1,0,0,0,.964.523A2.468,2.468,0,0,0,81.4-.877a2.491,2.491,0,0,0,.72-.414l.3.689a2.658,2.658,0,0,1-.838.511A3.193,3.193,0,0,1,80.384.113Zm.671-5.2a1.208,1.208,0,0,0-.873.451,2.618,2.618,0,0,0-.6,1.117l.016.032h2.39l.021-.14a1.626,1.626,0,0,0-.124-1.055A.862.862,0,0,0,81.055-5.086Z" transform="translate(-5202 -7957)" fill="#12263f"/>
    <path id="Trazado_232171" data-name="Trazado 232171" d="M-29.176,0h-1.037l.688-3.454h-3.448L-33.661,0H-34.7l1.563-7.82H-32.1l-.709,3.534h3.448l.709-3.534h1.037Zm4.958,0q0-.263.011-.432t.038-.346a3.33,3.33,0,0,1-.824.636,1.92,1.92,0,0,1-.932.255A1.41,1.41,0,0,1-27.1-.363a1.469,1.469,0,0,1-.212-1.27,1.929,1.929,0,0,1,.873-1.329,3.311,3.311,0,0,1,1.8-.443h.994l.113-.575a.978.978,0,0,0-.118-.824.908.908,0,0,0-.752-.282,1.354,1.354,0,0,0-.816.266,1.013,1.013,0,0,0-.435.62h-.983l-.011-.032a1.822,1.822,0,0,1,.806-1.179,2.755,2.755,0,0,1,1.665-.508,1.825,1.825,0,0,1,1.367.513,1.515,1.515,0,0,1,.32,1.437l-.559,2.8a5.416,5.416,0,0,0-.1.607,2.967,2.967,0,0,0,0,.564Zm-1.375-.773a1.807,1.807,0,0,0,.886-.252,2.107,2.107,0,0,0,.7-.6l.215-1.069H-24.82a1.524,1.524,0,0,0-.956.328,1.247,1.247,0,0,0-.5.752.744.744,0,0,0,.081.626A.734.734,0,0,0-25.593-.773Zm6.177.054a1.424,1.424,0,0,0,.884-.326,1.233,1.233,0,0,0,.5-.791h.929l.011.032a2.038,2.038,0,0,1-.838,1.351,2.569,2.569,0,0,1-1.611.567,1.809,1.809,0,0,1-1.66-.838,2.923,2.923,0,0,1-.322-2.068l.038-.226a3.84,3.84,0,0,1,.953-2.092,2.55,2.55,0,0,1,1.952-.808,1.814,1.814,0,0,1,1.448.6,1.68,1.68,0,0,1,.363,1.48l-.011.027h-.94a1.15,1.15,0,0,0-.183-.918.95.95,0,0,0-.806-.36,1.364,1.364,0,0,0-1.166.606,3.357,3.357,0,0,0-.569,1.459l-.038.225a2.963,2.963,0,0,0,.075,1.5A.942.942,0,0,0-19.417-.72ZM-14,.113A1.883,1.883,0,0,1-15.654-.7a2.794,2.794,0,0,1-.357-2.092l.038-.236a3.634,3.634,0,0,1,1.018-2.089,2.476,2.476,0,0,1,1.759-.8,1.683,1.683,0,0,1,1.531.716,2.653,2.653,0,0,1,.279,1.888l-.107.662H-15a2.321,2.321,0,0,0,.164,1.41,1,1,0,0,0,.964.523,2.468,2.468,0,0,0,.886-.158,2.492,2.492,0,0,0,.72-.414l.3.689a2.658,2.658,0,0,1-.838.511A3.193,3.193,0,0,1-14,.113Zm.671-5.2a1.208,1.208,0,0,0-.873.451,2.618,2.618,0,0,0-.6,1.117l.016.032h2.39l.021-.14A1.626,1.626,0,0,0-12.5-4.681.862.862,0,0,0-13.326-5.086Zm6.08.209-.569-.032a1.142,1.142,0,0,0-.653.2,1.772,1.772,0,0,0-.518.567L-9.813,0H-10.85l1.16-5.812h.929l-.064.779a2.326,2.326,0,0,1,.679-.655,1.535,1.535,0,0,1,.814-.231A1.593,1.593,0,0,1-7.1-5.9a1.036,1.036,0,0,1,.185.04ZM-2.181-.72A1.424,1.424,0,0,0-1.3-1.046a1.233,1.233,0,0,0,.5-.791H.129L.14-1.8A2.038,2.038,0,0,1-.7-.454,2.569,2.569,0,0,1-2.31.113a1.809,1.809,0,0,1-1.66-.838,2.923,2.923,0,0,1-.322-2.068l.038-.226A3.84,3.84,0,0,1-3.3-5.111a2.55,2.55,0,0,1,1.952-.808,1.814,1.814,0,0,1,1.448.6,1.68,1.68,0,0,1,.363,1.48l-.011.027h-.94a1.15,1.15,0,0,0-.183-.918.95.95,0,0,0-.806-.36,1.364,1.364,0,0,0-1.166.606,3.357,3.357,0,0,0-.569,1.459L-3.25-2.8a2.963,2.963,0,0,0,.075,1.5A.942.942,0,0,0-2.181-.72ZM4.211,0q0-.263.011-.432t.038-.346a3.33,3.33,0,0,1-.824.636A1.92,1.92,0,0,1,2.5.113,1.41,1.41,0,0,1,1.329-.363a1.469,1.469,0,0,1-.212-1.27A1.929,1.929,0,0,1,1.99-2.962a3.311,3.311,0,0,1,1.8-.443H4.78l.113-.575A.978.978,0,0,0,4.775-4.8a.908.908,0,0,0-.752-.282,1.354,1.354,0,0,0-.816.266,1.013,1.013,0,0,0-.435.62H1.789l-.011-.032a1.822,1.822,0,0,1,.806-1.179,2.755,2.755,0,0,1,1.665-.508,1.825,1.825,0,0,1,1.367.513,1.515,1.515,0,0,1,.32,1.437l-.559,2.8a5.416,5.416,0,0,0-.1.607A2.967,2.967,0,0,0,5.28,0ZM2.836-.773a1.807,1.807,0,0,0,.886-.252,2.107,2.107,0,0,0,.7-.6l.215-1.069H3.609a1.524,1.524,0,0,0-.956.328,1.247,1.247,0,0,0-.5.752.744.744,0,0,0,.081.626A.734.734,0,0,0,2.836-.773ZM8.615-5.119A2.347,2.347,0,0,1,9.4-5.712a2.307,2.307,0,0,1,.983-.207,1.3,1.3,0,0,1,.824.263,1.282,1.282,0,0,1,.443.784,2.585,2.585,0,0,1,.816-.771,2.025,2.025,0,0,1,1.042-.277,1.26,1.26,0,0,1,1.149.62A2.56,2.56,0,0,1,14.8-3.475L14.11,0H13.068l.7-3.486a2.037,2.037,0,0,0-.011-1.249.777.777,0,0,0-.736-.325,1.174,1.174,0,0,0-.833.389,2.284,2.284,0,0,0-.569.953.041.041,0,0,0-.005.016v.011L10.876,0H9.834l.7-3.486a1.964,1.964,0,0,0-.021-1.225.76.76,0,0,0-.73-.349,1.323,1.323,0,0,0-.73.207,1.821,1.821,0,0,0-.553.572L7.638,0H6.6l1.16-5.812h.924ZM20.738-2.578A4.041,4.041,0,0,1,19.83-.564a2.16,2.16,0,0,1-1.644.677,1.465,1.465,0,0,1-.838-.258,1.823,1.823,0,0,1-.607-.7L16.468,0h-.9l1.676-8.379h1.037l-.618,3.094a2.188,2.188,0,0,1,.688-.47,2.073,2.073,0,0,1,.827-.164,1.475,1.475,0,0,1,1.394.929,3.592,3.592,0,0,1,.185,2.3Zm-1.015-.113A3.189,3.189,0,0,0,19.688-4.4a.93.93,0,0,0-.948-.658,1.173,1.173,0,0,0-.717.247,2.389,2.389,0,0,0-.588.661l-.51,2.567a1.273,1.273,0,0,0,.419.61,1.171,1.171,0,0,0,.747.228,1.285,1.285,0,0,0,1.037-.486A3,3,0,0,0,19.7-2.578ZM22.575,0H21.538L22.7-5.812h1.037Zm1.461-7.3H23l.215-1.08H24.25Zm.424,4.34a3.926,3.926,0,0,1,.986-2.151,2.526,2.526,0,0,1,1.9-.808,1.8,1.8,0,0,1,1.625.841,2.951,2.951,0,0,1,.336,2.119l-.016.118A3.931,3.931,0,0,1,28.3-.69a2.534,2.534,0,0,1-1.9.8,1.8,1.8,0,0,1-1.625-.838,2.924,2.924,0,0,1-.33-2.116Zm1.021.115A2.809,2.809,0,0,0,25.574-1.3a.941.941,0,0,0,.953.582,1.366,1.366,0,0,0,1.117-.609,3.334,3.334,0,0,0,.607-1.515l.016-.118a2.8,2.8,0,0,0-.1-1.534.937.937,0,0,0-.945-.59,1.362,1.362,0,0,0-1.12.612,3.366,3.366,0,0,0-.6,1.513Zm7.987,1.3a.649.649,0,0,0-.145-.578,1.835,1.835,0,0,0-.849-.386,3.236,3.236,0,0,1-1.394-.628,1.1,1.1,0,0,1-.33-1.074,1.87,1.87,0,0,1,.757-1.222,2.489,2.489,0,0,1,1.552-.486,1.836,1.836,0,0,1,1.407.526,1.372,1.372,0,0,1,.354,1.262L34.8-4.1h-.994a.843.843,0,0,0-.172-.69.85.85,0,0,0-.709-.3,1.185,1.185,0,0,0-.784.251.953.953,0,0,0-.354.6.6.6,0,0,0,.126.55,1.936,1.936,0,0,0,.841.35,3.19,3.19,0,0,1,1.429.641,1.147,1.147,0,0,1,.328,1.086A1.849,1.849,0,0,1,33.73-.351a2.718,2.718,0,0,1-1.611.464,1.975,1.975,0,0,1-1.525-.569,1.419,1.419,0,0,1-.376-1.311l.011-.032h.994a.859.859,0,0,0,.242.82,1.185,1.185,0,0,0,.784.259,1.423,1.423,0,0,0,.824-.23A.874.874,0,0,0,33.467-1.544Z" transform="translate(-5316 -7749)" fill="#12263f"/>
    <path id="Trazado_232172" data-name="Trazado 232172" d="M-51.952-3.131-52.575,0h-1.037l1.563-7.82h2.82a2.03,2.03,0,0,1,1.641.656,1.908,1.908,0,0,1,.352,1.688,2.872,2.872,0,0,1-.986,1.74,3.008,3.008,0,0,1-1.942.6Zm.167-.833H-50A1.593,1.593,0,0,0-48.866-4.4a1.965,1.965,0,0,0,.594-1.069,1.479,1.479,0,0,0-.132-1.1,1.085,1.085,0,0,0-.991-.416h-1.783Zm8.229-.913-.569-.032a1.142,1.142,0,0,0-.653.2,1.772,1.772,0,0,0-.518.567L-46.124,0h-1.037L-46-5.812h.929l-.064.779a2.326,2.326,0,0,1,.679-.655,1.535,1.535,0,0,1,.814-.231,1.594,1.594,0,0,1,.234.019,1.036,1.036,0,0,1,.185.04Zm.274,1.917A3.926,3.926,0,0,1-42.3-5.111a2.526,2.526,0,0,1,1.9-.808,1.8,1.8,0,0,1,1.625.841,2.951,2.951,0,0,1,.336,2.119l-.016.118A3.931,3.931,0,0,1-39.44-.69a2.534,2.534,0,0,1-1.9.8,1.8,1.8,0,0,1-1.625-.838,2.924,2.924,0,0,1-.33-2.116Zm1.021.115A2.809,2.809,0,0,0-42.168-1.3a.941.941,0,0,0,.953.582A1.366,1.366,0,0,0-40.1-1.329a3.334,3.334,0,0,0,.607-1.515l.016-.118a2.8,2.8,0,0,0-.1-1.534.937.937,0,0,0-.945-.59,1.362,1.362,0,0,0-1.12.612,3.366,3.366,0,0,0-.6,1.513Zm9.695.266a4.041,4.041,0,0,1-.908,2.014,2.16,2.16,0,0,1-1.644.677,1.465,1.465,0,0,1-.838-.258,1.823,1.823,0,0,1-.607-.7L-36.838,0h-.9l1.676-8.379h1.037l-.618,3.094a2.188,2.188,0,0,1,.688-.47,2.073,2.073,0,0,1,.827-.164,1.475,1.475,0,0,1,1.394.929,3.592,3.592,0,0,1,.185,2.3Zm-1.015-.113A3.189,3.189,0,0,0-33.618-4.4a.93.93,0,0,0-.948-.658,1.173,1.173,0,0,0-.717.247,2.389,2.389,0,0,0-.588.661l-.51,2.567a1.273,1.273,0,0,0,.419.61,1.171,1.171,0,0,0,.747.228,1.285,1.285,0,0,0,1.037-.486A3,3,0,0,0-33.6-2.578ZM-28.539,0q0-.263.011-.432t.038-.346a3.33,3.33,0,0,1-.824.636,1.92,1.92,0,0,1-.932.255,1.41,1.41,0,0,1-1.174-.475,1.469,1.469,0,0,1-.212-1.27,1.929,1.929,0,0,1,.873-1.329,3.311,3.311,0,0,1,1.8-.443h.994l.113-.575a.978.978,0,0,0-.118-.824.908.908,0,0,0-.752-.282,1.354,1.354,0,0,0-.816.266,1.013,1.013,0,0,0-.435.62h-.983l-.011-.032a1.822,1.822,0,0,1,.806-1.179A2.755,2.755,0,0,1-28.5-5.919a1.825,1.825,0,0,1,1.367.513,1.515,1.515,0,0,1,.32,1.437l-.559,2.8a5.416,5.416,0,0,0-.1.607,2.967,2.967,0,0,0,0,.564Zm-1.375-.773a1.807,1.807,0,0,0,.886-.252,2.107,2.107,0,0,0,.7-.6l.215-1.069h-1.026a1.524,1.524,0,0,0-.956.328,1.247,1.247,0,0,0-.5.752.744.744,0,0,0,.081.626A.734.734,0,0,0-29.914-.773Zm7.364-4.1-.569-.032a1.142,1.142,0,0,0-.653.2,1.772,1.772,0,0,0-.518.567L-25.118,0h-1.037l1.16-5.812h.929l-.064.779a2.326,2.326,0,0,1,.679-.655,1.535,1.535,0,0,1,.814-.231A1.593,1.593,0,0,1-22.4-5.9a1.036,1.036,0,0,1,.185.04ZM-21.39,0h-1.037l1.676-8.379h1.037Zm1.885-2.959a3.926,3.926,0,0,1,.986-2.151,2.526,2.526,0,0,1,1.9-.808,1.8,1.8,0,0,1,1.625.841,2.951,2.951,0,0,1,.336,2.119l-.016.118A3.931,3.931,0,0,1-15.662-.69a2.534,2.534,0,0,1-1.9.8,1.8,1.8,0,0,1-1.625-.838,2.924,2.924,0,0,1-.33-2.116Zm1.021.115A2.809,2.809,0,0,0-18.391-1.3a.941.941,0,0,0,.953.582,1.366,1.366,0,0,0,1.117-.609,3.334,3.334,0,0,0,.607-1.515l.016-.118A2.8,2.8,0,0,0-15.8-4.5a.937.937,0,0,0-.945-.59,1.362,1.362,0,0,0-1.12.612,3.366,3.366,0,0,0-.6,1.513ZM-9.015.113A1.883,1.883,0,0,1-10.672-.7a2.794,2.794,0,0,1-.357-2.092l.038-.236A3.634,3.634,0,0,1-9.974-5.119a2.476,2.476,0,0,1,1.759-.8A1.683,1.683,0,0,1-6.684-5.2a2.653,2.653,0,0,1,.279,1.888l-.107.662h-3.5a2.321,2.321,0,0,0,.164,1.41,1,1,0,0,0,.964.523A2.468,2.468,0,0,0-8-.877a2.492,2.492,0,0,0,.72-.414l.3.689a2.658,2.658,0,0,1-.838.511A3.193,3.193,0,0,1-9.015.113Zm.671-5.2a1.208,1.208,0,0,0-.873.451,2.618,2.618,0,0,0-.6,1.117l.016.032h2.39l.021-.14a1.626,1.626,0,0,0-.124-1.055A.862.862,0,0,0-8.344-5.086Zm4.474.075a2.537,2.537,0,0,1,.8-.674A2.056,2.056,0,0,1-2.1-5.919,1.4,1.4,0,0,1-.884-5.36,2.174,2.174,0,0,1-.712-3.668L-1.448,0H-2.484l.73-3.647A1.587,1.587,0,0,0-1.8-4.761a.9.9,0,0,0-.795-.3,1.411,1.411,0,0,0-.747.228,2.3,2.3,0,0,0-.65.61L-4.831,0H-5.868l1.16-5.812h.929ZM4.96.113A1.883,1.883,0,0,1,3.3-.7a2.794,2.794,0,0,1-.357-2.092l.038-.236A3.634,3.634,0,0,1,4-5.119a2.476,2.476,0,0,1,1.759-.8A1.683,1.683,0,0,1,7.291-5.2a2.653,2.653,0,0,1,.279,1.888l-.107.662h-3.5a2.321,2.321,0,0,0,.164,1.41,1,1,0,0,0,.964.523,2.468,2.468,0,0,0,.886-.158,2.492,2.492,0,0,0,.72-.414l.3.689a2.658,2.658,0,0,1-.838.511A3.193,3.193,0,0,1,4.96.113Zm.671-5.2a1.208,1.208,0,0,0-.873.451,2.618,2.618,0,0,0-.6,1.117l.016.032h2.39l.021-.14a1.626,1.626,0,0,0-.124-1.055A.862.862,0,0,0,5.632-5.086ZM9.225,0H8.188L9.864-8.379H10.9ZM15.4-5.119a2.347,2.347,0,0,1,.784-.594,2.307,2.307,0,0,1,.983-.207,1.3,1.3,0,0,1,.824.263,1.282,1.282,0,0,1,.443.784,2.585,2.585,0,0,1,.816-.771,2.025,2.025,0,0,1,1.042-.277,1.26,1.26,0,0,1,1.149.62,2.56,2.56,0,0,1,.145,1.823L20.891,0H19.849l.7-3.486a2.037,2.037,0,0,0-.011-1.249A.777.777,0,0,0,19.8-5.06a1.174,1.174,0,0,0-.833.389,2.284,2.284,0,0,0-.569.953.041.041,0,0,0-.005.016v.011L17.657,0H16.615l.7-3.486a1.964,1.964,0,0,0-.021-1.225.76.76,0,0,0-.73-.349,1.323,1.323,0,0,0-.73.207,1.821,1.821,0,0,0-.553.572L14.419,0H13.382l1.16-5.812h.924ZM24.688.113A1.883,1.883,0,0,1,23.031-.7a2.794,2.794,0,0,1-.357-2.092l.038-.236a3.634,3.634,0,0,1,1.018-2.089,2.476,2.476,0,0,1,1.759-.8,1.683,1.683,0,0,1,1.531.716A2.653,2.653,0,0,1,27.3-3.315l-.107.662h-3.5a2.321,2.321,0,0,0,.164,1.41,1,1,0,0,0,.964.523A2.468,2.468,0,0,0,25.7-.877a2.492,2.492,0,0,0,.72-.414l.3.689a2.658,2.658,0,0,1-.838.511A3.193,3.193,0,0,1,24.688.113Zm.671-5.2a1.208,1.208,0,0,0-.873.451,2.618,2.618,0,0,0-.6,1.117l.016.032h2.39l.021-.14a1.626,1.626,0,0,0-.124-1.055A.862.862,0,0,0,25.36-5.086Zm6.08.209-.569-.032a1.142,1.142,0,0,0-.653.2,1.772,1.772,0,0,0-.518.567L28.872,0H27.836L29-5.812h.929l-.064.779a2.326,2.326,0,0,1,.679-.655,1.535,1.535,0,0,1,.814-.231,1.593,1.593,0,0,1,.234.019,1.036,1.036,0,0,1,.185.04ZM33.8-.72a1.424,1.424,0,0,0,.884-.326,1.233,1.233,0,0,0,.5-.791h.929l.011.032A2.038,2.038,0,0,1,35.28-.454a2.569,2.569,0,0,1-1.611.567,1.809,1.809,0,0,1-1.66-.838,2.923,2.923,0,0,1-.322-2.068l.038-.226a3.84,3.84,0,0,1,.953-2.092,2.55,2.55,0,0,1,1.952-.808,1.814,1.814,0,0,1,1.448.6,1.68,1.68,0,0,1,.363,1.48l-.011.027h-.94a1.15,1.15,0,0,0-.183-.918.95.95,0,0,0-.806-.36,1.364,1.364,0,0,0-1.166.606,3.357,3.357,0,0,0-.569,1.459l-.038.225A2.963,2.963,0,0,0,32.8-1.3.942.942,0,0,0,33.8-.72ZM40.189,0q0-.263.011-.432t.038-.346a3.33,3.33,0,0,1-.824.636,1.92,1.92,0,0,1-.932.255,1.41,1.41,0,0,1-1.174-.475,1.469,1.469,0,0,1-.212-1.27,1.929,1.929,0,0,1,.873-1.329,3.311,3.311,0,0,1,1.8-.443h.994l.113-.575a.978.978,0,0,0-.118-.824A.908.908,0,0,0,40-5.086a1.354,1.354,0,0,0-.816.266,1.013,1.013,0,0,0-.435.62h-.983l-.011-.032a1.822,1.822,0,0,1,.806-1.179,2.755,2.755,0,0,1,1.665-.508,1.825,1.825,0,0,1,1.367.513,1.515,1.515,0,0,1,.32,1.437l-.559,2.8a5.415,5.415,0,0,0-.1.607,2.968,2.968,0,0,0,0,.564ZM38.814-.773a1.807,1.807,0,0,0,.886-.252,2.107,2.107,0,0,0,.7-.6l.215-1.069H39.588a1.524,1.524,0,0,0-.956.328,1.247,1.247,0,0,0-.5.752.744.744,0,0,0,.081.626A.734.734,0,0,0,38.814-.773Zm4.114-2.132a4.875,4.875,0,0,1,.948-2.256,2.115,2.115,0,0,1,1.678-.757,1.75,1.75,0,0,1,.808.185,1.577,1.577,0,0,1,.594.524l.634-3.169h1.037L46.951,0H46.06L46.1-.559a2.219,2.219,0,0,1-.712.5,2.086,2.086,0,0,1-.841.169,1.528,1.528,0,0,1-1.41-.838,2.924,2.924,0,0,1-.228-2.068Zm1.021.113a2.418,2.418,0,0,0,.07,1.485.965.965,0,0,0,.967.561,1.167,1.167,0,0,0,.685-.212,2.127,2.127,0,0,0,.556-.6l.548-2.745a1.231,1.231,0,0,0-.422-.548,1.164,1.164,0,0,0-.7-.2,1.27,1.27,0,0,0-1.066.583,3.965,3.965,0,0,0-.615,1.571Zm4.85-.167a3.926,3.926,0,0,1,.986-2.151,2.526,2.526,0,0,1,1.9-.808,1.8,1.8,0,0,1,1.625.841,2.951,2.951,0,0,1,.336,2.119l-.016.118A3.931,3.931,0,0,1,52.642-.69a2.534,2.534,0,0,1-1.9.8,1.8,1.8,0,0,1-1.625-.838,2.924,2.924,0,0,1-.33-2.116Zm1.021.115A2.809,2.809,0,0,0,49.914-1.3a.941.941,0,0,0,.953.582,1.366,1.366,0,0,0,1.117-.609,3.334,3.334,0,0,0,.607-1.515l.016-.118a2.8,2.8,0,0,0-.1-1.534.937.937,0,0,0-.945-.59,1.362,1.362,0,0,0-1.12.612,3.366,3.366,0,0,0-.6,1.513Z" transform="translate(-5084 -7750)" fill="#12263f"/>
    <g id="Grupo_179450" data-name="Grupo 179450" transform="translate(-5095.435 -7891.885) rotate(45)">
      <path id="Trazado_116479" data-name="Trazado 116479" d="M31.927,44.921A33.058,33.058,0,0,0,.858,14.941.9.9,0,0,1,.1,13.636L2.871,8.091a1.508,1.508,0,0,0,0-1.339L.151,1.312A.908.908,0,0,1,1,0a48,48,0,0,1,45.9,45.03l-7.09,10.948Z" transform="translate(0 0)" fill="#f4a338"/>
    </g>
    <g id="Grupo_179451" data-name="Grupo 179451" transform="translate(-5159.68 -7759.021) rotate(130)">
      <path id="Trazado_116479-2" data-name="Trazado 116479" d="M31.927,44.921A33.058,33.058,0,0,0,.858,14.941.9.9,0,0,1,.1,13.636L2.871,8.091a1.508,1.508,0,0,0,0-1.339L.151,1.312A.908.908,0,0,1,1,0a48,48,0,0,1,45.9,45.03l-7.09,10.948Z" transform="translate(0 0)" fill="#f4a338"/>
    </g>
    <g id="Grupo_179452" data-name="Grupo 179452" transform="translate(-5304.115 -7824.322) rotate(-135)">
      <path id="Trazado_116479-3" data-name="Trazado 116479" d="M31.927,44.921A33.058,33.058,0,0,0,.858,14.941.9.9,0,0,1,.1,13.636L2.871,8.091a1.508,1.508,0,0,0,0-1.339L.151,1.312A.908.908,0,0,1,1,0a48,48,0,0,1,45.9,45.03l-7.09,10.948Z" transform="translate(0 0)" fill="#f4a338"/>
    </g>
  </g>
</svg>
