<svg xmlns="http://www.w3.org/2000/svg" xmlns:xlink="http://www.w3.org/1999/xlink" width="147.823" height="147.823" viewBox="0 0 147.823 147.823">
  <defs>
    <radialGradient id="radial-gradient" cx="0.076" cy="0.019" r="1.465" gradientTransform="translate(0.001)" gradientUnits="objectBoundingBox">
      <stop offset="0" stop-color="#f6f6f7"/>
      <stop offset="0.477" stop-color="#f9f9fa"/>
      <stop offset="0.715" stop-color="#fff"/>
    </radialGradient>
    <clipPath id="clip-path">
      <rect id="Rectángulo_57098" data-name="Rectángulo 57098" width="72.263" height="72.269" fill="#12263f"/>
    </clipPath>
  </defs>
  <g id="Grupo_180628" data-name="Grupo 180628" transform="translate(5887.76 6361.5)">
    <g id="Grupo_179467" data-name="Grupo 179467" transform="translate(-5887.76 -6361.5)">
      <g id="Grupo_18423" data-name="Grupo 18423" transform="translate(0 0)">
        <g id="Grupo_18421" data-name="Grupo 18421">
          <g id="Grupo_18420" data-name="Grupo 18420">
            <g id="Grupo_18419" data-name="Grupo 18419">
              <path id="Trazado_40936" data-name="Trazado 40936" d="M342.446,2219.63a73.911,73.911,0,1,1-73.91-73.909A73.91,73.91,0,0,1,342.446,2219.63Z" transform="translate(-194.623 -2145.721)" fill="#fff"/>
            </g>
          </g>
        </g>
        <path id="Trazado_40937" data-name="Trazado 40937" d="M341.412,2218.5a73.91,73.91,0,1,0-73.91,73.913A73.619,73.619,0,0,0,341.412,2218.5Z" transform="translate(-193.589 -2144.593)" fill="url(#radial-gradient)"/>
        <path id="Trazado_40938" data-name="Trazado 40938" d="M314.681,2209.3a56.416,56.416,0,1,0-56.416,56.417A56.208,56.208,0,0,0,314.681,2209.3Z" transform="translate(-184.129 -2135.145)" fill="none" stroke="#1565c0" stroke-miterlimit="10" stroke-width="6"/>
        <g id="Grupo_18422" data-name="Grupo 18422" transform="translate(13.094 41.496)">
          <path id="Trazado_40939" data-name="Trazado 40939" d="M327.8,2164.488a73.92,73.92,0,0,1-127.255,73.6,73.685,73.685,0,0,0,127.255-73.6Z" transform="translate(-200.545 -2164.488)" fill="#eceef0"/>
        </g>
      </g>
    </g>
    <g id="Grupo_179472" data-name="Grupo 179472" transform="translate(-5850.63 -6326.741)">
      <g id="Grupo_179477" data-name="Grupo 179477" clip-path="url(#clip-path)">
        <path id="Trazado_228845" data-name="Trazado 228845" d="M7.383,167.332a17.2,17.2,0,0,1-2.274-.712A8.206,8.206,0,0,1,.016,158.7q-.038-19.08.014-38.16a9.644,9.644,0,0,1,.557-3.154,8.318,8.318,0,0,1,9.378-5.316,8.416,8.416,0,0,1,6.888,8.013c.034,1.253.005,2.508.005,3.885h2.472c.276,0,.552,0,.828,0,.958.009,1.506.437,1.519,1.185.013.771-.554,1.219-1.557,1.223-1.05,0-2.1,0-3.254,0V158c0,.176,0,.351,0,.527-.007,1.014-.438,1.575-1.208,1.573-.739,0-1.153-.518-1.207-1.5a6.019,6.019,0,1,0-6.182,6.316c2.457.049,4.916.012,7.374.012H69.854V126.165c0-.176.008-.352,0-.527-.038-.7.07-1.32.826-1.595.731-.266,1.162.205,1.584.679v42.61Zm7.026-14.454a2.617,2.617,0,0,0,.046-.3c0-10.789.02-21.578-.014-32.366a6.011,6.011,0,0,0-12.019.185q-.024,15.957,0,31.915a5.843,5.843,0,0,0,.063.587,8.593,8.593,0,0,1,11.929-.018" transform="translate(0 -95.063)" fill="#12263f"/>
        <path id="Trazado_228846" data-name="Trazado 228846" d="M376.915,14.488h-2.356V42.11h2.356v-.833q0-8.881,0-17.761a4.963,4.963,0,0,1,.015-.752,1.158,1.158,0,0,1,1.157-1.075,1.183,1.183,0,0,1,1.223,1.088,4.868,4.868,0,0,1,.013.6q0,9.708-.012,19.416a4.308,4.308,0,0,1-.293,1.526q-2.2,5.593-4.467,11.159a2.195,2.195,0,0,1-.809,1.006c-.6.362-1.3,0-1.608-.757q-2.368-5.891-4.7-11.794a2.654,2.654,0,0,1-.144-.954q-.01-18.4,0-36.8A6.021,6.021,0,1,1,379.32,6.2q.019,5.832,0,11.665c0,.871-.5,1.416-1.229,1.4-.7-.017-1.153-.544-1.175-1.377-.006-.226,0-.452,0-.677V14.488m-4.868.025h-2.32V42.12h2.32Zm4.825-7.321c.194-1.743-.106-3.256-1.666-4.227a3.393,3.393,0,0,0-3.888.054c-1.5.991-1.786,2.478-1.578,4.173Zm.006,2.492h-7.131v2.323h7.131Zm-.633,34.933H370.3c.08.222.134.386.2.547.706,1.81.706,1.81,2.652,1.81,2.351,0,2.351,0,3.105-2.234.007-.021,0-.048-.012-.124M373.3,52.158l1.085-2.744h-2.18l1.095,2.744" transform="translate(-311.877 0)" fill="#12263f"/>
        <path id="Trazado_228847" data-name="Trazado 228847" d="M144.129,51.1h1.087c-.179-1.624-.352-3.209-.529-4.794-.167-1.5-.354-2.988-.5-4.486-.113-1.148.68-1.835,1.735-1.378a6.75,6.75,0,0,0,5.96.052c1.235-.593,2.034.159,1.875,1.535q-.5,4.334-.984,8.67a3.849,3.849,0,0,0,0,.395h.984a2.26,2.26,0,0,1,.051-.627,3.339,3.339,0,0,1,.594-1.3,8.406,8.406,0,0,0,1.927-10.583c-.4-.8-.266-1.478.366-1.824.656-.36,1.32-.085,1.775.736A10.783,10.783,0,0,1,156.7,50.285c-.742.746-.73.844.167,1.394a3.566,3.566,0,0,1-.129,6.2.942.942,0,0,0-.562.912,7.216,7.216,0,0,1-5.923,6.676,1.471,1.471,0,0,0-.845.384,13.446,13.446,0,0,1-8.15,4.726,3.539,3.539,0,0,0,.266,7.049c.827.032,1.656,0,2.483.013a1.207,1.207,0,1,1,0,2.4,22.7,22.7,0,0,1-3.449-.133,5.817,5.817,0,0,1-4.827-5.4,5.894,5.894,0,0,1,4.273-6.086c1.081-.318,2.19-.551,3.248-.929a8.7,8.7,0,0,0,3.431-2.247c-.273-.121-.491-.208-.7-.312a7.108,7.108,0,0,1-4.207-6.213.912.912,0,0,0-.559-.836,3.567,3.567,0,0,1,0-6.279c.72-.418.732-.593.142-1.211a10.44,10.44,0,0,1-2.734-10.741,10.814,10.814,0,0,1,15.421-6.514c.944.493,1.244,1.159.863,1.854-.364.665-1.05.77-1.961.3a8.4,8.4,0,0,0-12.39,7.768,7.832,7.832,0,0,0,2.514,5.622,2.4,2.4,0,0,1,1.058,2.426m.072,7.3a4.772,4.772,0,0,0,5.025,4.77c2.537-.114,4.748-2.456,4.486-4.77Zm4.772-2.45c1.907,0,3.813,0,5.72,0,.949,0,1.5-.451,1.5-1.2s-.549-1.206-1.5-1.206q-5.72-.006-11.439,0c-.952,0-1.5.447-1.5,1.2s.548,1.205,1.5,1.208c1.906.005,3.813,0,5.719,0m2.214-12.781a4.13,4.13,0,0,1-4.42-.013l.882,7.924h2.666l.872-7.911" transform="translate(-115.251 -27.047)" fill="#12263f"/>
        <path id="Trazado_228848" data-name="Trazado 228848" d="M220.159,273.891H217.75c0,.467-.014.93,0,1.392a1.377,1.377,0,0,1-.911,1.405,9.3,9.3,0,0,0-1.623.925,1.46,1.46,0,0,1-1.865.072c-.332-.219-.692-.4-1.1-.629l-1.195,2.067c.478.281.909.526,1.331.785a1.349,1.349,0,0,1,.65,1.4,12.7,12.7,0,0,0,0,2.016,1.307,1.307,0,0,1-.619,1.347c-.794.478-1.593.95-2.41,1.387a1.162,1.162,0,0,1-1.635-.416,1.21,1.21,0,0,1,.421-1.64,7.43,7.43,0,0,1,.975-.565,1.137,1.137,0,0,0,.792-1.177c0-.656-.355-.847-.8-1.1-1.873-1.061-1.931-1.287-.867-3.131q.827-1.432,1.654-2.864c.634-1.092,1.125-1.228,2.2-.618.24.136.478.274.718.411,1.03.589,1.868.088,1.868-1.118,0-2.277.106-2.383,2.357-2.382,1.154,0,2.307-.009,3.461,0a1.236,1.236,0,0,1,1.406,1.375,5.9,5.9,0,0,1-.006.977,1.085,1.085,0,0,0,.718,1.286.832.832,0,0,0,.947-.006,12.039,12.039,0,0,1,1.234-.717,1.149,1.149,0,0,1,1.683.45q1.219,2.029,2.365,4.1a1.179,1.179,0,0,1-.433,1.7c-.312.208-.649.379-.973.569-1.077.632-1.067,1.588.022,2.226,1.918,1.123,1.961,1.286.859,3.192-.577,1-1.146,2-1.734,2.992a1.233,1.233,0,0,1-1.945.531,5.819,5.819,0,0,1-.843-.491,1.121,1.121,0,0,0-1.407-.025c-.548.289-.484.681-.485,1.117,0,2.306-.1,2.4-2.415,2.4-1.128,0-2.257.008-3.385,0-.981-.01-1.407-.447-1.424-1.432-.006-.326,0-.652,0-.978,0-1.2-.844-1.671-1.9-1.072a12.862,12.862,0,0,1-1.187.645,1.08,1.08,0,0,1-1.478-.507,1.049,1.049,0,0,1,.269-1.482,21.2,21.2,0,0,1,2.8-1.6,1.675,1.675,0,0,1,1.184.184c.632.289,1.2.723,1.823,1.027a1.387,1.387,0,0,1,.9,1.414c-.017.425,0,.852,0,1.339h2.411c0-.391.023-.808,0-1.222a1.461,1.461,0,0,1,1.074-1.6,5.553,5.553,0,0,0,1.422-.824,1.466,1.466,0,0,1,1.924-.1c.332.219.693.394,1.085.614l1.185-2.047c-.418-.254-.809-.508-1.214-.735a1.377,1.377,0,0,1-.742-1.566,5.623,5.623,0,0,0,.011-1.717,1.428,1.428,0,0,1,.793-1.682c.371-.2.73-.421,1.155-.668l-1.195-2.071c-.417.235-.8.428-1.154.654a1.42,1.42,0,0,1-1.8-.1,6.377,6.377,0,0,0-1.484-.866,1.462,1.462,0,0,1-1.065-1.6c.028-.394,0-.792,0-1.258" transform="translate(-176.798 -230.513)" fill="#12263f"/>
        <path id="Trazado_228849" data-name="Trazado 228849" d="M288.075,399.722c-2.382,0-4.765.005-7.147,0-.885,0-1.422-.475-1.418-1.207s.536-1.194,1.428-1.2c2.658-.007,5.317,0,7.975,0,2.006,0,4.013.005,6.019,0a2.422,2.422,0,0,0,2.635-2.615c.006-.677-.008-1.355,0-2.032.015-.836.473-1.356,1.182-1.368a1.2,1.2,0,0,1,1.217,1.33,19.263,19.263,0,0,1-.107,3.149,4.711,4.711,0,0,1-4.714,3.946h-7.072" transform="translate(-237.347 -332.271)" fill="#12263f"/>
        <path id="Trazado_228850" data-name="Trazado 228850" d="M259.139,326.645a3.609,3.609,0,1,1,3.626-3.553,3.627,3.627,0,0,1-3.626,3.553m.012-4.812a1.2,1.2,0,1,0,1.2,1.178,1.208,1.208,0,0,0-1.2-1.178" transform="translate(-216.998 -271.242)" fill="#12263f"/>
        <path id="Trazado_228851" data-name="Trazado 228851" d="M150.986,394.89a3.608,3.608,0,1,1-3.642-3.615,3.621,3.621,0,0,1,3.642,3.615m-3.642,1.2a1.2,1.2,0,1,0-1.165-1.215,1.213,1.213,0,0,0,1.165,1.215" transform="translate(-122.082 -332.253)" fill="#12263f"/>
        <path id="Trazado_228852" data-name="Trazado 228852" d="M299.625,194.01c-.928,0-1.856.01-2.784,0a1.221,1.221,0,0,1-1.364-1.186,1.2,1.2,0,0,1,1.333-1.214q2.859-.02,5.719,0a1.215,1.215,0,0,1,1.365,1.184c.01.73-.532,1.208-1.409,1.218-.953.011-1.906,0-2.86,0" transform="translate(-250.905 -162.695)" fill="#12263f"/>
        <path id="Trazado_228853" data-name="Trazado 228853" d="M216.862.021a1.21,1.21,0,0,1,1.173,1.223,1.2,1.2,0,1,1-2.4-.05A1.208,1.208,0,0,1,216.862.021" transform="translate(-183.111 -0.018)" fill="#12263f"/>
        <path id="Trazado_228854" data-name="Trazado 228854" d="M121.023,95.845a1.2,1.2,0,1,1-1.185,1.211,1.209,1.209,0,0,1,1.185-1.211" transform="translate(-101.762 -81.387)" fill="#12263f"/>
        <path id="Trazado_228855" data-name="Trazado 228855" d="M312.614,95.843a1.2,1.2,0,1,1-1.171,1.224,1.21,1.21,0,0,1,1.171-1.224" transform="translate(-264.464 -81.386)" fill="#12263f"/>
        <path id="Trazado_228856" data-name="Trazado 228856" d="M299.754,47.919a1.2,1.2,0,1,1-.031,2.4,1.2,1.2,0,0,1,.031-2.4" transform="translate(-253.517 -40.691)" fill="#12263f"/>
        <path id="Trazado_228857" data-name="Trazado 228857" d="M133.9,146.145a1.2,1.2,0,1,1,.068-2.4,1.2,1.2,0,0,1-.068,2.4" transform="translate(-112.708 -122.061)" fill="#12263f"/>
        <path id="Trazado_228858" data-name="Trazado 228858" d="M300.952,144.955a1.194,1.194,0,0,1-1.181,1.192,1.2,1.2,0,1,1,.019-2.4,1.193,1.193,0,0,1,1.162,1.209" transform="translate(-253.521 -122.062)" fill="#12263f"/>
        <path id="Trazado_228859" data-name="Trazado 228859" d="M170.126,14.106a1.2,1.2,0,0,1-2.4.038,1.2,1.2,0,1,1,2.4-.038" transform="translate(-142.426 -10.968)" fill="#12263f"/>
        <path id="Trazado_228860" data-name="Trazado 228860" d="M265.936,14.1a1.2,1.2,0,1,1-2.4.021,1.2,1.2,0,0,1,2.4-.021" transform="translate(-223.785 -10.973)" fill="#12263f"/>
        <path id="Trazado_228861" data-name="Trazado 228861" d="M133.931,47.924a1.2,1.2,0,1,1-.058,2.4,1.2,1.2,0,0,1,.058-2.4" transform="translate(-112.709 -40.694)" fill="#12263f"/>
      </g>
    </g>
  </g>
</svg>
