<svg xmlns="http://www.w3.org/2000/svg" xmlns:xlink="http://www.w3.org/1999/xlink" width="147.823" height="147.823" viewBox="0 0 147.823 147.823">
  <defs>
    <radialGradient id="radial-gradient" cx="0.076" cy="0.019" r="1.465" gradientTransform="translate(0.001)" gradientUnits="objectBoundingBox">
      <stop offset="0" stop-color="#f6f6f7"/>
      <stop offset="0.477" stop-color="#f9f9fa"/>
      <stop offset="0.715" stop-color="#fff"/>
    </radialGradient>
    <clipPath id="clip-path">
      <rect id="Rectángulo_57092" data-name="Rectángulo 57092" width="61.704" height="71.17" fill="#12263f"/>
    </clipPath>
  </defs>
  <g id="Grupo_180625" data-name="Grupo 180625" transform="translate(6384.938 6361.5)">
    <g id="Grupo_179465" data-name="Grupo 179465" transform="translate(-6384.938 -6361.5)">
      <g id="Grupo_18423" data-name="Grupo 18423" transform="translate(0 0)">
        <g id="Grupo_18421" data-name="Grupo 18421">
          <g id="Grupo_18420" data-name="Grupo 18420">
            <g id="Grupo_18419" data-name="Grupo 18419">
              <path id="Trazado_40936" data-name="Trazado 40936" d="M342.446,2219.63a73.911,73.911,0,1,1-73.91-73.909A73.91,73.91,0,0,1,342.446,2219.63Z" transform="translate(-194.623 -2145.721)" fill="#fff"/>
            </g>
          </g>
        </g>
        <path id="Trazado_40937" data-name="Trazado 40937" d="M341.412,2218.5a73.91,73.91,0,1,0-73.91,73.913A73.619,73.619,0,0,0,341.412,2218.5Z" transform="translate(-193.589 -2144.593)" fill="url(#radial-gradient)"/>
        <path id="Trazado_40938" data-name="Trazado 40938" d="M314.681,2209.3a56.416,56.416,0,1,0-56.416,56.417A56.208,56.208,0,0,0,314.681,2209.3Z" transform="translate(-184.129 -2135.145)" fill="none" stroke="#1565c0" stroke-miterlimit="10" stroke-width="6"/>
        <g id="Grupo_18422" data-name="Grupo 18422" transform="translate(13.094 41.496)">
          <path id="Trazado_40939" data-name="Trazado 40939" d="M327.8,2164.488a73.92,73.92,0,0,1-127.255,73.6,73.685,73.685,0,0,0,127.255-73.6Z" transform="translate(-200.545 -2164.488)" fill="#eceef0"/>
        </g>
      </g>
    </g>
    <g id="Grupo_179469" data-name="Grupo 179469" transform="translate(-6337.23 -6323.82)">
      <g id="Grupo_179471" data-name="Grupo 179471" clip-path="url(#clip-path)">
        <path id="Trazado_228812" data-name="Trazado 228812" d="M0,68.25V8.618c.97-2.356,1.835-2.93,4.416-2.93,2.938,0,5.876.008,8.814-.014a.994.994,0,0,0,.73-.322,3.03,3.03,0,0,1,2.754-1.437c.781.009,1.563,0,2.37,0a2.672,2.672,0,0,0,.055-.466A3.1,3.1,0,0,1,21.4,0h8.338c1.909.6,2.5,2.028,2.324,3.918.939,0,1.769-.01,2.6,0a2.69,2.69,0,0,1,2.411,1.263A.99.99,0,0,0,38.08,5.7q4.62-.024,9.24-.006A3.572,3.572,0,0,1,51.171,9.55c.009,2.525,0,5.05,0,7.575,0,.417.014.835-.016,1.25a.937.937,0,0,1-.921.949.96.96,0,0,1-1.1-.83,3.164,3.164,0,0,1-.043-.69c0-2.71,0-5.421,0-8.131,0-1.391-.5-1.9-1.871-1.9q-4.481-.005-8.962,0c-.2,0-.4.023-.621.036V9.859h.785q3.057,0,6.114,0c1.809,0,2.471.659,2.472,2.463Q47,19.41,47,26.5v.713a1.623,1.623,0,0,0,.517-.549q2.712-4.282,5.425-8.564a3.636,3.636,0,0,1,4.093-1.785,9.922,9.922,0,0,1,2.452,1.251c2.4,1.5,2.852,3.576,1.337,5.969Q54.108,34.155,47.4,44.785a2.68,2.68,0,0,0-.383,1.348c-.025,6.185-.014,12.37-.019,18.556C47,66.263,46.271,67,44.719,67Q25.578,67,6.438,67a2.008,2.008,0,0,1-2.265-2.265q0-26.3,0-52.609A2,2,0,0,1,6.435,9.86c2.13-.006,4.261,0,6.392,0h.739V7.773h-9.4c-1.617,0-2.078.456-2.078,2.051q0,28.6,0,57.2c0,1.592.473,2.063,2.07,2.063H47.023c1.613,0,2.064-.449,2.065-2.06q0-11.119,0-22.239a3.481,3.481,0,0,1,.079-.893.929.929,0,0,1,1.048-.719.939.939,0,0,1,.931.867,3.8,3.8,0,0,1,.022.555q0,11.363,0,22.725A3.581,3.581,0,0,1,47.3,71.168q-21.711,0-43.423,0a4.925,4.925,0,0,1-.966-.074A3.8,3.8,0,0,1,0,68.25M50.614,25.7c-.159.241-.3.448-.434.66L36.149,48.536a6.074,6.074,0,0,1-.422.636.978.978,0,0,1-1.356.273,1.017,1.017,0,0,1-.363-1.393,6.506,6.506,0,0,1,.358-.594q5.1-8.067,10.2-16.141a2.3,2.3,0,0,0,.342-1.154c.021-5.814.015-11.627.015-17.441,0-.243,0-.486,0-.724H6.307V64.88H26.841c.275-1.15.568-2.266.808-3.394.681-3.2,1.454-6.36,3.533-9.021.573-.734,1.075-1.008,1.647-.661.605.367.642.961.11,1.808-.48.764-.967,1.524-1.437,2.294-.16.261-.277.548-.425.847l1.533.48,19.4-30.639-1.392-.9M35.506,9.83c0-.947.009-1.868,0-2.788-.011-.8-.249-1.029-1.046-1.038-.9-.01-1.806.015-2.707-.014a1.729,1.729,0,0,1-1.759-1.763c-.019-.416.005-.834-.014-1.25a.83.83,0,0,0-.925-.892c-2.314,0-4.628,0-6.943,0a.782.782,0,0,0-.876.85c-.009.37.005.741-.008,1.111A1.812,1.812,0,0,1,19.271,6c-.879.015-1.759.005-2.638,0-.462,0-.889.143-.913.648-.049,1.052-.015,2.108-.015,3.179Zm9.348,55.064V48.785c-1.934,3.054-3.844,5.923-5.6,8.885a18.667,18.667,0,0,1-5.372,5.988c-.5.346-.942.762-1.521,1.236ZM53.774,27.7,34.365,58.36l1.178,1.233,19.617-31L53.774,27.7m.024-7.122c1.422.9,2.744,1.746,4.068,2.586.152.1.313.181.551.319.459-1.02,1.666-1.811,1.024-3.058a4.045,4.045,0,0,0-3.171-2.081c-1.464-.18-1.7,1.316-2.472,2.235M33.864,60.99a4.7,4.7,0,0,0-3.431-2.131l-1.456,6.063,4.888-3.932M51.724,23.931l4.554,2.886.988-1.569L52.71,22.367l-.985,1.564" fill="#12263f"/>
        <path id="Trazado_228813" data-name="Trazado 228813" d="M74.611,348.226c1.3,0,2.591-.008,3.886,0a2.607,2.607,0,0,1,2.743,2.749q.019,3.922,0,7.844a2.621,2.621,0,0,1-2.695,2.74q-3.955.04-7.911,0a2.642,2.642,0,0,1-2.722-2.728q-.034-3.956,0-7.913a2.625,2.625,0,0,1,2.743-2.692c1.318-.011,2.637,0,3.956,0m4.547,6.693c0-1.273-.011-2.547,0-3.82.007-.556-.221-.8-.786-.793q-3.784.018-7.568,0c-.6,0-.825.265-.823.839q.014,3.75,0,7.5c0,.581.247.846.834.844q3.75-.013,7.5,0c.63,0,.86-.275.847-.89-.025-1.227-.008-2.454-.008-3.681" transform="translate(-58.438 -299.724)" fill="#12263f"/>
        <path id="Trazado_228814" data-name="Trazado 228814" d="M81.268,114.487c0,1.3.009,2.592,0,3.887a2.631,2.631,0,0,1-2.8,2.77q-3.852.01-7.7,0a2.661,2.661,0,0,1-2.831-2.822q-.019-3.853,0-7.705a2.664,2.664,0,0,1,2.848-2.809q3.817-.01,7.633,0a2.648,2.648,0,0,1,2.852,2.861c.007,1.273,0,2.545,0,3.818m-6.674-4.6c-1.227,0-2.454.02-3.68-.008-.661-.015-.91.261-.906.909q.025,3.681,0,7.362c0,.641.226.921.9.915q3.714-.033,7.43,0c.632,0,.861-.249.857-.869q-.027-3.716,0-7.432c.006-.675-.277-.9-.919-.883-1.226.027-2.453.008-3.68.008" transform="translate(-58.463 -92.789)" fill="#12263f"/>
        <path id="Trazado_228815" data-name="Trazado 228815" d="M81.262,234.628c0,1.3.01,2.591,0,3.887a2.568,2.568,0,0,1-2.619,2.724q-4.023.069-8.048,0a2.6,2.6,0,0,1-2.663-2.77q-.023-3.887,0-7.774a2.631,2.631,0,0,1,2.74-2.772q3.92-.043,7.841,0a2.619,2.619,0,0,1,2.752,2.816c.009,1.3,0,2.591,0,3.887m-2.085-.012c0-1.273-.011-2.546.005-3.818.007-.515-.19-.793-.719-.793h-7.7c-.518,0-.753.258-.752.774q.007,3.818,0,7.636a.667.667,0,0,0,.766.76q3.817,0,7.634,0c.554,0,.784-.254.776-.811-.02-1.249-.006-2.5-.006-3.749" transform="translate(-58.457 -196.164)" fill="#12263f"/>
        <path id="Trazado_228816" data-name="Trazado 228816" d="M193.728,132.658c2.058,0,4.116,0,6.174,0,.826,0,1.273.376,1.272,1.036s-.46,1.044-1.277,1.045q-6.174.007-12.348,0c-.853,0-1.327-.407-1.306-1.085.021-.651.464-1,1.311-1q3.087-.006,6.174,0" transform="translate(-160.304 -114.181)" fill="#12263f"/>
        <path id="Trazado_228817" data-name="Trazado 228817" d="M191.562,254.751c-1.363,0-2.727.006-4.091,0-.787-.005-1.211-.368-1.222-1.01a1.046,1.046,0,0,1,1.185-1.066q4.16-.019,8.32,0a1.083,1.083,0,0,1,1.2,1.064c-.011.616-.475,1.007-1.236,1.012-1.387.009-2.773,0-4.16,0" transform="translate(-160.309 -217.474)" fill="#12263f"/>
        <path id="Trazado_228818" data-name="Trazado 228818" d="M190.451,165.858c-1.019,0-2.038.009-3.056,0-.724-.009-1.144-.394-1.151-1.016a1.029,1.029,0,0,1,1.125-1.057q3.125-.026,6.251,0a1.042,1.042,0,1,1-.044,2.072c-1.042.012-2.084,0-3.126,0" transform="translate(-160.305 -140.96)" fill="#12263f"/>
        <path id="Trazado_228819" data-name="Trazado 228819" d="M190.485,284.1c1,0,1.99-.008,2.986,0,.805.008,1.289.415,1.279,1.046-.01.611-.479,1.026-1.236,1.031q-3.02.019-6.041,0c-.779,0-1.217-.392-1.229-1.023-.013-.662.43-1.044,1.256-1.054,1-.011,1.991,0,2.986,0" transform="translate(-160.304 -244.527)" fill="#12263f"/>
        <path id="Trazado_228820" data-name="Trazado 228820" d="M95.163,378.592c.671-.913,1.282-1.753,1.9-2.585.5-.668,1.058-.809,1.592-.423s.567.987.092,1.643c-.773,1.067-1.545,2.134-2.342,3.182a1.461,1.461,0,0,1-2.539-.027c-.363-.479-.723-.96-1.059-1.458a1.053,1.053,0,0,1,.161-1.488,1.032,1.032,0,0,1,1.517.265c.218.266.416.548.674.891" transform="translate(-79.685 -323.092)" fill="#12263f"/>
        <path id="Trazado_228821" data-name="Trazado 228821" d="M95.177,138.289c.655-.886,1.266-1.719,1.882-2.548.517-.7,1.1-.851,1.637-.443.514.394.543.979.058,1.647-.759,1.046-1.52,2.092-2.3,3.124a1.469,1.469,0,0,1-2.578,0c-.349-.459-.69-.926-1.016-1.4a1.043,1.043,0,1,1,1.655-1.253c.215.266.412.546.66.877" transform="translate(-79.702 -116.263)" fill="#12263f"/>
        <path id="Trazado_228822" data-name="Trazado 228822" d="M95.16,261.081c.651-.882,1.263-1.715,1.88-2.545.514-.691,1.108-.846,1.639-.436.512.394.538.978.052,1.648-.759,1.046-1.52,2.092-2.3,3.124a1.47,1.47,0,0,1-2.579-.01c-.362-.478-.723-.959-1.058-1.457a1.037,1.037,0,1,1,1.657-1.246c.235.279.446.579.708.922" transform="translate(-79.68 -221.96)" fill="#12263f"/>
      </g>
    </g>
  </g>
</svg>
