<svg xmlns="http://www.w3.org/2000/svg" xmlns:xlink="http://www.w3.org/1999/xlink" width="147.823" height="147.823" viewBox="0 0 147.823 147.823">
  <defs>
    <radialGradient id="radial-gradient" cx="0.076" cy="0.019" r="1.465" gradientTransform="translate(0.001)" gradientUnits="objectBoundingBox">
      <stop offset="0" stop-color="#f6f6f7"/>
      <stop offset="0.477" stop-color="#f9f9fa"/>
      <stop offset="0.715" stop-color="#fff"/>
    </radialGradient>
    <clipPath id="clip-path">
      <rect id="Rectángulo_57091" data-name="Rectángulo 57091" width="72.347" height="71.169" fill="#12263f"/>
    </clipPath>
  </defs>
  <g id="Grupo_180624" data-name="Grupo 180624" transform="translate(6549.314 6361.5)">
    <g id="Grupo_179463" data-name="Grupo 179463" transform="translate(-6549.314 -6361.5)">
      <g id="Grupo_18423" data-name="Grupo 18423" transform="translate(0 0)">
        <g id="Grupo_18421" data-name="Grupo 18421">
          <g id="Grupo_18420" data-name="Grupo 18420">
            <g id="Grupo_18419" data-name="Grupo 18419">
              <path id="Trazado_40936" data-name="Trazado 40936" d="M342.446,2219.63a73.911,73.911,0,1,1-73.91-73.909A73.91,73.91,0,0,1,342.446,2219.63Z" transform="translate(-194.623 -2145.721)" fill="#fff"/>
            </g>
          </g>
        </g>
        <path id="Trazado_40937" data-name="Trazado 40937" d="M341.412,2218.5a73.91,73.91,0,1,0-73.91,73.913A73.619,73.619,0,0,0,341.412,2218.5Z" transform="translate(-193.589 -2144.593)" fill="url(#radial-gradient)"/>
        <path id="Trazado_40938" data-name="Trazado 40938" d="M314.681,2209.3a56.416,56.416,0,1,0-56.416,56.417A56.208,56.208,0,0,0,314.681,2209.3Z" transform="translate(-184.129 -2135.145)" fill="none" stroke="#1565c0" stroke-miterlimit="10" stroke-width="6"/>
        <g id="Grupo_18422" data-name="Grupo 18422" transform="translate(13.094 41.496)">
          <path id="Trazado_40939" data-name="Trazado 40939" d="M327.8,2164.488a73.92,73.92,0,0,1-127.255,73.6,73.685,73.685,0,0,0,127.255-73.6Z" transform="translate(-200.545 -2164.488)" fill="#eceef0"/>
        </g>
      </g>
    </g>
    <g id="Grupo_179468" data-name="Grupo 179468" transform="translate(-6510.93 -6323.82)">
      <g id="Grupo_179469" data-name="Grupo 179469" clip-path="url(#clip-path)">
        <path id="Trazado_228806" data-name="Trazado 228806" d="M292.216,45.034a1.859,1.859,0,0,1-1.75.793c-4.073-.014-8.146,0-12.219-.008-1.33,0-1.707-.392-1.708-1.74,0-1.388,0-2.776,0-4.281h-.763q-5.4,0-10.806,0c-1.283,0-1.7-.412-1.7-1.689q-.006-2.966,0-5.933v-.834c-1.689,0-3.31-.065-4.923.016-2.13.107-2.665-.61-1.877-2.659,1.442-3.75,2.773-7.543,4.127-11.326a4.719,4.719,0,0,0,.257-1.436c.188-6.65,3.178-11.549,9.172-14.489a15.677,15.677,0,0,1,18.783,4.481A15.9,15.9,0,0,1,292.08,13.7a4.624,4.624,0,0,0,.136.54Zm-2.407-1.66v-.566c0-9.014.021-18.028-.024-27.041a15.185,15.185,0,0,0-.532-3.754,13.264,13.264,0,0,0-26,3.9,7.776,7.776,0,0,1-.414,2.326c-1.169,3.349-2.4,6.676-3.608,10.011-.074.206-.132.418-.215.68,1.736,0,3.383,0,5.029,0,1.243,0,1.634.4,1.636,1.656q.006,3,0,6v.8h.875q5.366,0,10.732,0c1.274,0,1.651.373,1.654,1.624s0,2.495,0,3.742c0,.2.03.4.047.618Z" transform="translate(-219.869 0)" fill="#12263f"/>
        <path id="Trazado_228807" data-name="Trazado 228807" d="M1,224.716a1.647,1.647,0,0,1-1-1.739c.02-9.394,0-18.788.016-28.182a15.673,15.673,0,0,1,28.843-8.733,16.541,16.541,0,0,1,2.519,8.762,4.5,4.5,0,0,0,.263,1.434c1.417,3.961,2.859,7.912,4.291,11.868.506,1.4.038,2.071-1.441,2.075-1.809,0-3.618,0-5.494,0-.014.3-.036.553-.036.8q0,2.931,0,5.862c0,1.42-.367,1.779-1.809,1.78H15.691c0,1.47-.028,2.9.011,4.322a1.637,1.637,0,0,1-1,1.747Zm32.218-16.925c-.105-.312-.175-.532-.254-.75-1.033-2.849-2.055-5.7-3.108-8.544a10.022,10.022,0,0,1-.933-4.436,5.63,5.63,0,0,0-.082-1.054,13.256,13.256,0,0,0-26.42,1.78q-.022,13.38,0,26.76c0,.225.024.451.038.683H13.283c0-1.477,0-2.908,0-4.339,0-1.259.389-1.65,1.639-1.651q5.4,0,10.8,0h.82V215.4q0-2.965,0-5.931c0-1.285.393-1.67,1.7-1.673,1.622,0,3.245,0,4.979,0" transform="translate(-0.001 -153.547)" fill="#12263f"/>
        <path id="Trazado_228808" data-name="Trazado 228808" d="M287.423,346.357l-1.357-1.59c-.04.364-.074.533-.074.7,0,1.553.018,3.107-.008,4.659a5.945,5.945,0,0,1-4.652,6.026,7.182,7.182,0,0,1-1.746.186q-11.543.018-23.086.007c-.185,0-.37-.02-.6-.033v-2.385h.931q11.331,0,22.662.007a3.738,3.738,0,0,0,3.679-1.993,2.231,2.231,0,0,0,.327-.922c.029-2.01.015-4.021.015-6.243l-1.411,1.618-1.683-1.8c1.156-1.171,2.325-2.392,3.538-3.567a1.157,1.157,0,0,1,1.71.039c1.2,1.16,2.366,2.352,3.563,3.548l-1.813,1.743" transform="translate(-219.68 -292.445)" fill="#12263f"/>
        <path id="Trazado_228809" data-name="Trazado 228809" d="M76.649,77.14,77.984,75.7l1.679,1.752C78.51,78.612,77.339,79.831,76.124,81a1.178,1.178,0,0,1-1.766-.067c-1.185-1.144-2.345-2.313-3.53-3.486l1.785-1.728,1.206,1.492.265-.127c0-.235-.01-.471,0-.705a21.1,21.1,0,0,1,.223-3.72A5.775,5.775,0,0,1,80.2,68.128c4.66-.066,9.321-.018,13.982-.016a2.675,2.675,0,0,1,.363.053v2.358H93.7q-6.532,0-13.064,0c-2.732,0-4.138,1.405-4.141,4.119q0,1.2,0,2.4l.157.1" transform="translate(-60.802 -58.455)" fill="#12263f"/>
        <rect id="Rectángulo_57089" data-name="Rectángulo 57089" width="2.329" height="2.322" transform="translate(31.398 61.538)" fill="#12263f"/>
        <rect id="Rectángulo_57090" data-name="Rectángulo 57090" width="2.312" height="2.287" transform="translate(36.214 9.695)" fill="#12263f"/>
        <path id="Trazado_228810" data-name="Trazado 228810" d="M326.632,111.994l1.7-1.629a4.637,4.637,0,0,0,6.343-.016l1.638,1.633c-2.132,2.5-6.918,2.865-9.681.012" transform="translate(-280.396 -94.729)" fill="#12263f"/>
        <path id="Trazado_228811" data-name="Trazado 228811" d="M123.87,288.773l1.641,1.655a6.82,6.82,0,0,1-9.711.036l1.729-1.614a4.6,4.6,0,0,0,6.342-.077" transform="translate(-99.407 -247.896)" fill="#12263f"/>
      </g>
    </g>
  </g>
</svg>
