<svg xmlns="http://www.w3.org/2000/svg" xmlns:xlink="http://www.w3.org/1999/xlink" width="126" height="126" viewBox="0 0 126 126">
  <defs>
    <filter id="Elipse_6219" x="0" y="0" width="126" height="126" filterUnits="userSpaceOnUse">
      <feOffset dy="3" input="SourceAlpha"/>
      <feGaussianBlur stdDeviation="3" result="blur"/>
      <feFlood flood-opacity="0.161"/>
      <feComposite operator="in" in2="blur"/>
      <feComposite in="SourceGraphic"/>
    </filter>
    <clipPath id="clip-path">
      <rect id="Rectángulo_58139" data-name="Rectángulo 58139" width="67.154" height="67.157" fill="#12263f"/>
    </clipPath>
  </defs>
  <g id="Grupo_180631" data-name="Grupo 180631" transform="translate(-180 -3872.303)">
    <g transform="matrix(1, 0, 0, 1, 180, 3872.3)" filter="url(#Elipse_6219)">
      <circle id="Elipse_6219-2" data-name="Elipse 6219" cx="54" cy="54" r="54" transform="translate(9 6)" fill="#fff"/>
    </g>
    <g id="Grupo_180311" data-name="Grupo 180311" transform="translate(210.614 3897.092)">
      <g id="Grupo_180310" data-name="Grupo 180310" clip-path="url(#clip-path)">
        <path id="Trazado_231751" data-name="Trazado 231751" d="M67.154,31.144c-.826.219-1.661.412-2.473.674a1.05,1.05,0,0,0-.558.538q-1.16,2.692-2.251,5.414a1.04,1.04,0,0,0,.041.778c.389.732.842,1.429,1.242,2.093L55.8,47.989c-.655-.393-1.351-.847-2.085-1.227a1.128,1.128,0,0,0-.837-.025q-2.691,1.076-5.35,2.232a1.125,1.125,0,0,0-.564.607c-.248.768-.417,1.561-.627,2.383-.193.013-.366.036-.539.036-3.069,0-6.137-.008-9.206.012-.463,0-.7-.1-.768-.592a16.61,16.61,0,0,0-.4-1.641,1.189,1.189,0,0,0-1.628-.851,11.953,11.953,0,0,1-7.885.429.893.893,0,0,0-.708.3q-4.483,5.205-8.931,10.44c-1.3,1.527-2.6,3.06-3.915,4.578A7.014,7.014,0,0,1,.008,59.8a6.8,6.8,0,0,1,2.475-5.008Q9.937,48.41,17.412,42.052a.891.891,0,0,0,.343-1.082,11.535,11.535,0,0,1,.4-7.429,1.221,1.221,0,0,0-.906-1.85c-.674-.171-1.615-.159-1.941-.6-.351-.472-.144-1.374-.147-2.089-.009-2.706,0-5.413,0-8.17.821-.212,1.633-.39,2.42-.644a1.131,1.131,0,0,0,.612-.564q1.152-2.659,2.225-5.352a1.129,1.129,0,0,0-.025-.836c-.372-.719-.82-1.4-1.193-2.018l7.379-7.382c.6.364,1.3.821,2.036,1.2a1.13,1.13,0,0,0,.836.015Q32.141,4.183,34.8,3.036a1.051,1.051,0,0,0,.536-.561c.262-.813.455-1.647.674-2.474H46.3c.213.8.456,1.6.626,2.413.083.394.284.52.634.659q2.658,1.055,5.28,2.2a.843.843,0,0,0,.919-.036c.68-.437,1.383-.839,2.174-1.313l7.3,7.3c-.487.807-.941,1.505-1.33,2.239a1.039,1.039,0,0,0-.027.777q1.088,2.718,2.247,5.407a1.048,1.048,0,0,0,.561.533c.811.261,1.645.454,2.47.673ZM39.928,43.2A17.036,17.036,0,0,0,56.3,34.421,17.329,17.329,0,0,0,32.312,11.1c-5.562,3.256-9.683,11.178-8.339,16.128a12.241,12.241,0,0,1,10.858.1c-.2.209-.357.39-.527.561-2.025,2.027-4.064,4.04-6.072,6.083a3.508,3.508,0,1,0,4.959,4.95c2.044-2.008,4.056-4.047,6.084-6.071.171-.171.352-.33.555-.52a12.267,12.267,0,0,1,.1,10.868M20.136,30.222A16.785,16.785,0,0,1,21.4,28.978a1.063,1.063,0,0,0,.406-.98,30.862,30.862,0,0,1,.042-4.584,19.488,19.488,0,1,1,27.428,20.3,18.549,18.549,0,0,1-9.946,1.671,1.354,1.354,0,0,0-.927.159,18.927,18.927,0,0,0-1.453,1.5l.732,2.759h6.956c.166-.663.355-1.309.481-1.967a.808.808,0,0,1,.736-.718,20.6,20.6,0,0,0,5.615-2.1c.611-.333,1.214-.954,1.818-.95s1.22.6,1.806.98a.537.537,0,0,0,.806-.09q2.084-2.127,4.211-4.212c.276-.271.332-.477.108-.8a10.608,10.608,0,0,1-.865-1.45.936.936,0,0,1,.009-.766,23.029,23.029,0,0,0,2.965-7.146,1,1,0,0,1,.6-.57c.67-.227,1.369-.368,2.021-.535V22.5c-.624-.154-1.209-.329-1.806-.438a.971.971,0,0,1-.894-.885,19.8,19.8,0,0,0-2.1-5.542c-.328-.589-.94-1.18-.924-1.757.016-.612.6-1.226.982-1.806.241-.363.162-.579-.125-.858-1.067-1.038-2.109-2.1-3.166-3.152-.447-.443-.881-1.177-1.373-1.223-.533-.05-1.128.547-1.695.862-.079.044-.152.126-.232.133-.221.019-.5.1-.658,0a23.026,23.026,0,0,0-7.267-3.023.844.844,0,0,1-.5-.5c-.226-.7-.384-1.416-.563-2.106H37.672c-.186.727-.338,1.434-.56,2.118a.847.847,0,0,1-.5.5A22.391,22.391,0,0,0,29.4,7.807a.855.855,0,0,1-.71.009c-.544-.268-1.039-.636-1.582-.907a.673.673,0,0,0-.614.072q-2.205,2.15-4.355,4.355a.674.674,0,0,0-.075.614c.259.524.621,1,.874,1.522a.937.937,0,0,1,.021.766,22.882,22.882,0,0,0-2.99,7.208.927.927,0,0,1-.558.53c-.676.223-1.377.37-2.06.544v6.946l2.781.755m10.682-1.9c-.418-.059-.7-.118-.977-.135a9.756,9.756,0,0,0-4.609.85,9.644,9.644,0,0,0-4.973,12.6.785.785,0,0,1-.27,1.069c-2.933,2.47-5.84,4.971-8.757,7.462q-3.576,3.055-7.154,6.108A4.824,4.824,0,0,0,2.4,61.6a4.629,4.629,0,0,0,3.631,3.276A4.778,4.778,0,0,0,10.9,63.067Q17.66,55.138,24.417,47.2a.864.864,0,0,1,1.181-.275,9.652,9.652,0,0,0,13.044-6.486,8.346,8.346,0,0,0,.178-4.093c-.528.536-.961.99-1.41,1.428-1.112,1.088-2.166,2.248-3.363,3.234a5.475,5.475,0,0,1-6.5.347,5.665,5.665,0,0,1-2.5-5.977,6.185,6.185,0,0,1,1.81-3.111c1.292-1.283,2.58-2.57,3.966-3.951" transform="translate(0 -0.001)" fill="#12263f"/>
        <path id="Trazado_231752" data-name="Trazado 231752" d="M302.741,112.131v15.078h-15.1v-8.592h4.277v-4.362h4.338v-2.124Zm-4.259,12.9h2.084V114.28h-2.084Zm-4.344.012h2.083v-8.591h-2.083Zm-2.214-4.248h-2.107v4.237h2.107Z" transform="translate(-248.613 -96.918)" fill="#12263f"/>
        <path id="Trazado_231753" data-name="Trazado 231753" d="M199.531,96.018l-1.974-.646a14.729,14.729,0,0,1,9.69-9.725l.66,1.992a13.161,13.161,0,0,0-8.376,8.379" transform="translate(-170.753 -74.027)" fill="#12263f"/>
        <path id="Trazado_231754" data-name="Trazado 231754" d="M370.31,250.958l1.307-1.467,1.723,1.3-1.5,1.715-1.529-1.552" transform="translate(-320.068 -215.641)" fill="#12263f"/>
        <path id="Trazado_231755" data-name="Trazado 231755" d="M288.462,81.79l-1.96.162-.336-2.138,2.3-.187Z" transform="translate(-247.34 -68.823)" fill="#12263f"/>
        <path id="Trazado_231756" data-name="Trazado 231756" d="M318.475,285.7l-.337-2.126,1.938-.465.662,2.06-2.264.53" transform="translate(-274.974 -244.695)" fill="#12263f"/>
        <path id="Trazado_231757" data-name="Trazado 231757" d="M347.147,272.95l-.972-1.935,1.712-1.03,1.25,1.765-1.99,1.2" transform="translate(-299.207 -233.355)" fill="#12263f"/>
        <path id="Trazado_231758" data-name="Trazado 231758" d="M38.4,418.406a3.247,3.247,0,1,1-3.233-3.227,3.263,3.263,0,0,1,3.233,3.227m-2.17.028a1.077,1.077,0,1,0-1.085,1.07,1.089,1.089,0,0,0,1.085-1.07" transform="translate(-27.578 -358.849)" fill="#12263f"/>
        <path id="Trazado_231759" data-name="Trazado 231759" d="M84.136,391.657l1.335,1.287-1.437,1.545L82.58,393l1.556-1.345" transform="translate(-71.376 -338.519)" fill="#12263f"/>
        <path id="Trazado_231760" data-name="Trazado 231760" d="M108.86,369.383l-1.474,1.443-1.331-1.464,1.348-1.493,1.456,1.514" transform="translate(-91.667 -317.958)" fill="#12263f"/>
        <path id="Trazado_231761" data-name="Trazado 231761" d="M129.469,349.055l-1.27-1.3,1.4-1.384,1.4,1.469-1.523,1.218" transform="translate(-110.806 -299.375)" fill="#12263f"/>
      </g>
    </g>
  </g>
</svg>
