<svg xmlns="http://www.w3.org/2000/svg" xmlns:xlink="http://www.w3.org/1999/xlink" width="126" height="126" viewBox="0 0 126 126">
  <defs>
    <filter id="Elipse_6218" x="0" y="0" width="126" height="126" filterUnits="userSpaceOnUse">
      <feOffset dy="3" input="SourceAlpha"/>
      <feGaussianBlur stdDeviation="3" result="blur"/>
      <feFlood flood-opacity="0.161"/>
      <feComposite operator="in" in2="blur"/>
      <feComposite in="SourceGraphic"/>
    </filter>
    <clipPath id="clip-path">
      <rect id="Rectángulo_58140" data-name="Rectángulo 58140" width="68.956" height="63.92" fill="#12263f"/>
    </clipPath>
  </defs>
  <g id="Grupo_180632" data-name="Grupo 180632" transform="translate(-802 -3872.303)">
    <g transform="matrix(1, 0, 0, 1, 802, 3872.3)" filter="url(#Elipse_6218)">
      <circle id="Elipse_6218-2" data-name="Elipse 6218" cx="54" cy="54" r="54" transform="translate(9 6)" fill="#fff"/>
    </g>
    <g id="Grupo_180313" data-name="Grupo 180313" transform="translate(834.095 3899.833)">
      <g id="Grupo_180312" data-name="Grupo 180312" clip-path="url(#clip-path)">
        <path id="Trazado_231762" data-name="Trazado 231762" d="M68.956,26.438q-.43.976-.859,1.951a1.611,1.611,0,0,1-2.145.952c-.218-.068-.574-.1-.69.025s-.078.473-.008.693a1.581,1.581,0,0,1-.883,2.119c-.59.27-1.193.516-1.8.747a1.538,1.538,0,0,1-2.109-.862c-.1-.2-.339-.475-.506-.469s-.406.279-.495.486a1.811,1.811,0,0,1-1.792,1.048c0,.673-.023,1.319.014,1.961a1.05,1.05,0,0,0,.3.563c.345.383.739.722,1.081,1.108a1.956,1.956,0,0,1-.032,2.74c-.446.469-.959.874-1.409,1.28a4.052,4.052,0,0,1,.366.816c.219,1.342,1.045,1.6,2.281,1.511a1.943,1.943,0,0,1,2.219,2.177c0,.314,0,.628,0,.943,0,.943.009,1.885,0,2.828a1.9,1.9,0,0,1-2.031,2.1,2.068,2.068,0,0,0-2.606,1.773c-.089.358-.113.556.161.8a12.646,12.646,0,0,1,1.043,1.051,1.911,1.911,0,0,1,.026,2.684q-1.467,1.575-3.045,3.047a1.912,1.912,0,0,1-2.732-.038c-.479-.432-.9-1.125-1.441-1.237-.51-.105-1.145.4-1.725.633-.124.051-.245.109-.412.184,0,.617.015,1.244,0,1.87a1.924,1.924,0,0,1-2.007,1.987q-2.02.029-4.04,0a1.866,1.866,0,0,1-2.015-2.026c.149-1.422-.275-2.24-1.706-2.566-.4-.091-.641-.137-.919.186a10.811,10.811,0,0,1-1,1,1.936,1.936,0,0,1-2.736-.02q-1.507-1.443-2.95-2.953a1.924,1.924,0,0,1,0-2.781c.334-.363.705-.692,1.035-1.059a2.018,2.018,0,0,0,.245-.495,5.089,5.089,0,0,0-.569-.222,1.606,1.606,0,0,0-.4-.006H14.407c-.18,0-.359,0-.539,0-.725-.023-1.183-.417-1.185-1.015s.457-1,1.182-1.006q4.41-.01,8.82,0h6.949c-1.355-1.97-.641-4.153-.673-6.237a1.749,1.749,0,0,1,1.785-1.609c.537-.034,1.081.024,1.613-.033.205-.022.391-.248.58-.388.03-.022.024-.087.048-.123.815-1.2.554-2.1-.572-3.012a1.867,1.867,0,0,1,.013-2.908q1.367-1.394,2.761-2.762a1.869,1.869,0,0,1,2.908-.013c.917,1.128,1.8,1.353,3.034.585.323-.2.531-.312.5-.719a13.054,13.054,0,0,1-.005-1.346,1.975,1.975,0,0,1,2.042-2.038q2.02-.022,4.04,0a1.822,1.822,0,0,1,1.977,1.98,2.084,2.084,0,0,0,1.807,2.647c.362.091.57.1.806-.175.2-.239.452-.437.66-.672a2.173,2.173,0,0,1,2.624-.731c.08-.58.209-1.061-.453-1.432-.635-.355-.724-1.046-.472-1.858a.93.93,0,0,0-.041-.7c-.067-.1-.437-.071-.641-.006a1.572,1.572,0,0,1-2.189-.954c-.255-.573-.511-1.148-.724-1.737a1.54,1.54,0,0,1,.841-2.072,2.721,2.721,0,0,0,.529-.5,2.835,2.835,0,0,0-.567-.533,1.576,1.576,0,0,1-.837-2.026c.229-.631.483-1.255.754-1.87a1.546,1.546,0,0,1,2.095-.9,2.664,2.664,0,0,0,.72.028,2.232,2.232,0,0,0,0-.709,1.558,1.558,0,0,1,.709-2.071.8.8,0,0,0,.319-.5,10.248,10.248,0,0,0,.015-1.21v-.655H2.028v.7q0,16.5,0,32.994a3.239,3.239,0,0,0,3.593,3.573c1.077,0,2.155-.007,3.232,0,.735.007,1.169.4,1.165,1.011s-.446,1.013-1.177,1.006a36.205,36.205,0,0,1-4.5-.12,5.039,5.039,0,0,1-4.33-5.064C-.011,44.431.005,41.086.005,37.742q0-16.16,0-32.321A5.2,5.2,0,0,1,4.161.111,6.5,6.5,0,0,1,5.5.011Q25.362,0,45.224.008a3.923,3.923,0,0,1,.538.017.907.907,0,0,1,.854.884.891.891,0,0,1-.67,1.03,3.471,3.471,0,0,1-.931.085q-19.728.006-39.455,0A3.183,3.183,0,0,0,2.089,4.642,7.063,7.063,0,0,0,2.03,5.916c0,1.818,0,3.636.006,5.454a.908.908,0,0,0,.048.178H55.6c.016-.159.045-.308.045-.458,0-1.93.013-3.861,0-5.791a3.136,3.136,0,0,0-3.26-3.27c-.606-.012-1.212.007-1.818-.006-.765-.016-1.244-.431-1.229-1.042.015-.6.464-.975,1.208-.97A18.385,18.385,0,0,1,53.428.1,5.075,5.075,0,0,1,57.651,5.06c.039,3.03.013,6.06.016,9.09,0,.268,0,.536,0,.9a1.777,1.777,0,0,1,1.862,1.346c.132.345.569.285.766-.068.752-1.347,1.237-1.521,2.647-.95.436.177.874.349,1.306.536a1.585,1.585,0,0,1,.945,2.138.937.937,0,0,0,.043.7c.064.1.437.069.64,0a1.573,1.573,0,0,1,2.186.956c.3.669.6,1.342.894,2.013V22.4a2.067,2.067,0,0,1-1.249,1.229.5.5,0,0,0-.281.377.8.8,0,0,0,.29.444c.4.361.825.7,1.24,1.048ZM36.771,58.962c.508-.525,1.063-1.074,1.59-1.647a1.218,1.218,0,0,1,1.626-.252,28.5,28.5,0,0,0,2.656,1.115c.814.3,1,.493,1,1.355,0,.774,0,1.549,0,2.317H47.7c0-.82.007-1.6,0-2.379a1.2,1.2,0,0,1,.95-1.275,23.444,23.444,0,0,0,2.724-1.128A1.219,1.219,0,0,1,53,57.307c.528.575,1.073,1.133,1.579,1.665L57.5,56.029c-.528-.513-1.1-1.079-1.685-1.636a1.152,1.152,0,0,1-.226-1.513c.428-.883.8-1.8,1.135-2.72.293-.8.494-.988,1.366-.994.777-.006,1.554,0,2.335,0V45.1c-.835,0-1.636-.005-2.437,0a1.177,1.177,0,0,1-1.234-.915A26.855,26.855,0,0,0,55.6,41.4a1.181,1.181,0,0,1,.241-1.567c.584-.548,1.148-1.117,1.627-1.585l-2.929-2.926c-.487.51-1.035,1.07-1.566,1.644A1.194,1.194,0,0,1,51.4,37.2a24.328,24.328,0,0,0-2.72-1.135,1.228,1.228,0,0,1-.984-1.32c.014-.777,0-1.555,0-2.341H43.647c0,.807,0,1.566,0,2.326,0,.839-.212,1.062-1.014,1.354-.881.321-1.751.677-2.6,1.074-.77.36-1.092.363-1.676-.238-.542-.557-1.053-1.146-1.534-1.673l-2.991,2.994c.548.516,1.134,1.07,1.723,1.621a1.158,1.158,0,0,1,.217,1.518,28.563,28.563,0,0,0-1.126,2.652c-.317.879-.5,1.058-1.452,1.064-.736,0-1.472,0-2.236,0v4.067c.855,0,1.66.011,2.464,0a1.139,1.139,0,0,1,1.184.884c.347.942.708,1.885,1.148,2.787a1.217,1.217,0,0,1-.262,1.623c-.575.53-1.134,1.079-1.655,1.577l2.935,2.929M66.756,26.29c-.184-.093-.3-.158-.42-.211-.949-.414-1.042-.574-.989-1.568a7.821,7.821,0,0,0-.023-1.141A1.1,1.1,0,0,1,66.08,22.1c.206-.079.4-.187.649-.305L66.3,20.733a1.535,1.535,0,0,1-2.489-.493.326.326,0,0,0-.1-.094,1.569,1.569,0,0,1-.617-2.388c.014-.024-.027-.079-.058-.161l-.9-.35c-.075.15-.129.246-.173.346-.46,1.053-.5,1.078-1.666,1.034a2,2,0,0,0-.47,0,1.6,1.6,0,0,1-2.131-1.259c-.008-.029-.073-.043-.137-.078l-.9.4c.068.187.11.311.159.433.377.951.33,1.118-.433,1.8a7.244,7.244,0,0,0-.787.826,1.115,1.115,0,0,1-1.435.355c-.2-.084-.409-.149-.669-.243l-.4,1c.182.083.281.131.382.175,1,.433,1.09.594,1.012,1.68a6.313,6.313,0,0,0,.043,1.072,1.1,1.1,0,0,1-.713,1.234c-.222.1-.442.2-.709.321l.457,1.063a1.547,1.547,0,0,1,2.5.5,2.168,2.168,0,0,0,.392.367c.741.643.786.823.429,1.739-.055.141-.1.285-.165.453.194.094.347.179.509.244s.325.108.48.158c.7-1.337.7-1.337,2.252-1.344a.571.571,0,0,0,.134,0,1.528,1.528,0,0,1,2.058,1.249c.008.03.071.044.135.081l.9-.393c-.043-.141-.063-.225-.095-.305-.456-1.16-.45-1.186.46-2.014a1.754,1.754,0,0,0,.333-.331,1.55,1.55,0,0,1,2.342-.582c.027.015.081-.017.158-.036l.372-.908" transform="translate(0 0)" fill="#12263f"/>
        <path id="Trazado_231763" data-name="Trazado 231763" d="M130.874,137.391c-.041.139-.089.357-.171.563q-2.714,6.83-5.436,13.657c-.326.817-.968,1.109-1.563.71-.573-.383-.542-.9-.307-1.482,1.217-3.031,2.417-6.07,3.623-9.106q.929-2.339,1.859-4.678a1.018,1.018,0,0,1,2,.335" transform="translate(-106.613 -117.922)" fill="#12263f"/>
        <path id="Trazado_231764" data-name="Trazado 231764" d="M58.663,155.194c-.244.274-.445.652-.757.813a.88.88,0,0,1-1.178-.35c-.282-.43-.532-.881-.791-1.327-.954-1.647-1.891-3.3-2.865-4.938a1.4,1.4,0,0,1-.011-1.622c1.175-1.906,2.314-3.834,3.473-5.75.436-.721.995-.924,1.543-.583s.606.927.173,1.648c-.99,1.652-1.975,3.307-2.989,4.943a.9.9,0,0,0-.022,1.082c1.024,1.709,2.011,3.44,3,5.168.142.248.241.521.42.915" transform="translate(-45.685 -122.217)" fill="#12263f"/>
        <path id="Trazado_231765" data-name="Trazado 231765" d="M209.733,156.09c-1.079,0-1.505-.8-1.059-1.6.755-1.348,1.544-2.676,2.314-4.015.356-.62.985-1.254.971-1.87-.014-.647-.638-1.287-1.013-1.919-.72-1.213-1.455-2.417-2.177-3.629-.427-.717-.341-1.313.219-1.635.539-.309,1.08-.113,1.5.574,1.173,1.933,2.329,3.877,3.51,5.806a1.323,1.323,0,0,1,.023,1.5c-1.191,2.026-2.348,4.073-3.554,6.091a3.136,3.136,0,0,1-.731.69" transform="translate(-180.371 -122.223)" fill="#12263f"/>
        <path id="Trazado_231766" data-name="Trazado 231766" d="M47.842,40.178a1.879,1.879,0,0,1-1.848-1.9,1.88,1.88,0,1,1,3.76.062,1.879,1.879,0,0,1-1.912,1.839" transform="translate(-39.788 -31.509)" fill="#12263f"/>
        <path id="Trazado_231767" data-name="Trazado 231767" d="M92.7,38.288a1.88,1.88,0,0,1-3.76.045,1.88,1.88,0,1,1,3.76-.045" transform="translate(-76.94 -31.511)" fill="#12263f"/>
        <path id="Trazado_231768" data-name="Trazado 231768" d="M135.647,38.288a1.88,1.88,0,0,1-3.759.045,1.88,1.88,0,1,1,3.759-.045" transform="translate(-114.096 -31.511)" fill="#12263f"/>
        <path id="Trazado_231769" data-name="Trazado 231769" d="M294.22,310.221a5.658,5.658,0,0,1,3.385-4.972,5.772,5.772,0,0,1,6.33.682,1.072,1.072,0,0,1,.394,1.561c-.368.5-.977.521-1.6.064-.054-.04-.106-.083-.161-.122a3.936,3.936,0,0,0-4.486-.155,3.977,3.977,0,1,0,5.875,4.686,7.286,7.286,0,0,1,.256-.762.927.927,0,0,1,1.185-.507.917.917,0,0,1,.7,1.017,3.3,3.3,0,0,1-.183.782,6.027,6.027,0,0,1-6.578,4.084,6.125,6.125,0,0,1-5.119-6.359" transform="translate(-254.528 -263.511)" fill="#12263f"/>
        <path id="Trazado_231770" data-name="Trazado 231770" d="M421.061,151.867a3.589,3.589,0,0,1-.121,7.177,3.589,3.589,0,0,1,.121-7.177m-.01,5.151a1.562,1.562,0,1,0-1.583-1.578,1.576,1.576,0,0,0,1.583,1.578" transform="translate(-361.126 -131.379)" fill="#12263f"/>
      </g>
    </g>
  </g>
</svg>
