<svg xmlns="http://www.w3.org/2000/svg" width="93" height="94" viewBox="0 0 93 94">
  <g id="Grupo_179494" data-name="Grupo 179494" transform="translate(0.275 -0.334)">
    <ellipse id="Elipse_4870" data-name="Elipse 4870" cx="46.5" cy="47" rx="46.5" ry="47" transform="translate(-0.275 0.334)" fill="#f4a338"/>
    <g id="_5IECN8" data-name="5IECN8" transform="translate(510.985 -263.094)">
      <g id="Grupo_155309" data-name="Grupo 155309" transform="translate(-494.198 276.422)">
        <path id="Trazado_195678" data-name="Trazado 195678" d="M-487.97,532.064a5.38,5.38,0,0,1-2.164-3.371,18.463,18.463,0,0,1-.116-2.94,1.976,1.976,0,0,0-.571-1.459,4.028,4.028,0,0,1-.827-2.126,10.848,10.848,0,0,1,.725-5.06c.863-2.271,3.3-3.363,5.923-2.716.76.187,1.522.374,2.29.523a6.476,6.476,0,0,1,4.879,8.331,2.471,2.471,0,0,1-.552,1.105,2.229,2.229,0,0,0-.625,2.065,6.37,6.37,0,0,1-.743,3.842c-.422.652-.966,1.226-1.509,1.9.255.446.531.989.87,1.489a.87.87,0,0,0,.588.3,4.746,4.746,0,0,1,4.678,5.03c0,1.278.009,2.557,0,3.835-.008.8-.262,1.06-1.069,1.062q-8.445.012-16.889,0c-.82,0-1.1-.3-1.1-1.123q-.015-1.954,0-3.909a4.694,4.694,0,0,1,4.247-4.825,1.539,1.539,0,0,0,1.43-.983C-488.379,532.724-488.182,532.437-487.97,532.064Zm11.075,10.008c0-1.18.023-2.3-.006-3.429a2.974,2.974,0,0,0-2.556-2.893.642.642,0,0,0-.8.425,4.638,4.638,0,0,1-4.4,2.794,4.631,4.631,0,0,1-4.389-2.816.635.635,0,0,0-.805-.4,2.9,2.9,0,0,0-2.5,2.468c-.123,1.258-.027,2.538-.027,3.849Zm-11.752-15.928.157.031c0,.467-.013.934,0,1.4a3.723,3.723,0,0,0,3.912,3.717,3.772,3.772,0,0,0,3.8-3.779c.011-.712.023-1.425,0-2.136a4.715,4.715,0,0,0-1.445-3.108.787.787,0,0,0-.693-.156,13.756,13.756,0,0,1-4.586.95.762.762,0,0,0-.584.4C-488.317,524.342-488.468,525.247-488.647,526.144Zm9-3.253a4.622,4.622,0,0,0-3.258-6.206q-1.209-.286-2.417-.574a3.2,3.2,0,0,0-4.266,2.565,8.054,8.054,0,0,0-.156,3.952c.439-1.182,1.336-1.305,2.427-1.4a18.868,18.868,0,0,0,3.972-.924,1.746,1.746,0,0,1,1.452.044A5.132,5.132,0,0,1-479.645,522.891Zm-5.148,14.5.1-.2a3.326,3.326,0,0,0,.441,0,3.106,3.106,0,0,0,2.375-1.656c.447-.78-.309-1.191-.506-1.773-.008-.023-.028-.041-.036-.064a.977.977,0,0,0-1.4-.685,2.3,2.3,0,0,1-1.309.021c-1.087-.352-1.557.176-1.989,1.067-.5,1.035-.532,1.562.377,2.268A11.8,11.8,0,0,0-484.793,537.39Z" transform="translate(494.198 -479.11)" fill="#12263f"/>
        <path id="Trazado_195679" data-name="Trazado 195679" d="M-217.284,294.271a6.027,6.027,0,0,1-2.328-5.548c.045-.876.152-1.739-.733-2.431a2.232,2.232,0,0,1-.572-1.606,19.906,19.906,0,0,1,.33-4.16c.752-3.338,3.34-4.76,6.639-3.82.586.167,1.185.3,1.785.4a6.478,6.478,0,0,1,4.935,8.574,2.292,2.292,0,0,1-.522.959,2.09,2.09,0,0,0-.611,1.856,14.029,14.029,0,0,1-.133,2.494,5.386,5.386,0,0,1-2.151,3.293c.318.554.6,1.1.939,1.6a.854.854,0,0,0,.6.3,4.866,4.866,0,0,1,4.7,5.262c-.066,1.176,0,2.36-.015,3.539-.008.828-.332,1.154-1.172,1.155q-8.371.008-16.742,0c-.859,0-1.143-.295-1.148-1.157-.008-1.377-.025-2.754,0-4.13a4.6,4.6,0,0,1,4.295-4.594,1.35,1.35,0,0,0,1.276-.865C-217.731,295.018-217.507,294.668-217.284,294.271Zm11.068,10.053c0-1.3.076-2.558-.022-3.8a2.888,2.888,0,0,0-2.227-2.473.888.888,0,0,0-1.217.53,4.522,4.522,0,0,1-4.214,2.617,4.677,4.677,0,0,1-4.276-2.42c-.535-.881-.833-1-1.793-.554a2.609,2.609,0,0,0-1.674,2.1c-.118,1.309-.029,2.637-.029,4Zm-11.777-15.963.161.032c0,.515-.022,1.032,0,1.546a3.771,3.771,0,0,0,3.921,3.576,3.7,3.7,0,0,0,3.776-3.617c.027-.784.034-1.571,0-2.355a4.489,4.489,0,0,0-1.421-3.043.785.785,0,0,0-.685-.165,12.936,12.936,0,0,1-4.509.94c-.409.015-.65.151-.732.548Q-217.735,287.091-217.993,288.361Zm9.041-3.179a4.69,4.69,0,0,0-3.452-6.315c-.766-.144-1.524-.337-2.281-.527a3.148,3.148,0,0,0-3.7,1.258,8.135,8.135,0,0,0-.682,5.281c.407-1.338,1.443-1.267,2.491-1.4a22.952,22.952,0,0,0,3.9-.942,1.769,1.769,0,0,1,1.465.039A5.05,5.05,0,0,1-208.952,285.181Zm-5.106,14.432a3.513,3.513,0,0,0,2.857-1.9,1.016,1.016,0,0,0,.034-.744,11.691,11.691,0,0,0-.912-1.593.71.71,0,0,0-.531-.215,7.951,7.951,0,0,1-1.895.068c-1.061-.261-1.5.222-1.917,1.072-.552,1.123-.566,1.6.443,2.362A11.061,11.061,0,0,0-214.058,299.613Z" transform="translate(263.45 -276.422)" fill="#12263f"/>
        <path id="Trazado_195680" data-name="Trazado 195680" d="M-362.155,422.093q0-5.644,0-11.288c0-1.165.227-1.4,1.361-1.4,3.836,0,7.673-.021,11.509.022a2.265,2.265,0,0,1,1.353.551c1.47,1.305,2.9,2.661,4.3,4.04a1.69,1.69,0,0,1,.481,1.073c.029,6.222.023,12.443.019,18.665,0,.862-.294,1.172-1.14,1.173q-8.373.011-16.747,0c-.847,0-1.131-.311-1.132-1.181Q-362.159,427.921-362.155,422.093Zm1.8,11.03h15.4V415.695c-1.226,0-2.4,0-3.577,0-.956,0-1.212-.262-1.218-1.23-.008-1.074,0-2.147,0-3.236h-10.606Zm12.439-20.731v1.473h1.591Z" transform="translate(381.645 -389.771)" fill="#12263f"/>
        <path id="Trazado_195681" data-name="Trazado 195681" d="M-448.666,338.534v15.783c.54-.534.971-.95,1.39-1.377s.9-.56,1.357-.12.326.939-.087,1.357q-1.425,1.443-2.87,2.867a.9.9,0,0,1-1.422-.019c-.958-.954-1.91-1.914-2.868-2.868a.86.86,0,0,1-.106-1.305.855.855,0,0,1,1.356.061c.424.429.824.88,1.235,1.322l.2-.109v-.772q0-7.562,0-15.124c0-1.265.2-1.469,1.437-1.469h24.935c1.053,0,1.489.268,1.472.895s-.455.879-1.513.879h-24.517Z" transform="translate(459.53 -327.854)" fill="#12263f"/>
        <path id="Trazado_195682" data-name="Trazado 195682" d="M-303.5,518.479c-.405.457-.8.923-1.219,1.368a.849.849,0,0,1-1.353.065.85.85,0,0,1,.1-1.3c.95-.963,1.908-1.917,2.866-2.872a.9.9,0,0,1,1.422-.021c.981.966,1.948,1.947,2.919,2.924a.841.841,0,0,1,.049,1.3.841.841,0,0,1-1.3-.071c-.425-.435-.818-.9-1.225-1.354l-.2.1c-.011.254-.032.508-.032.762q0,7.564,0,15.128c0,1.3-.193,1.488-1.493,1.488h-22.36c-.221,0-.5.079-.652-.026-.309-.215-.72-.5-.766-.81-.039-.257.335-.643.615-.856.179-.136.52-.078.788-.078q10.553-.005,21.106,0h.935V518.654Z" transform="translate(351.467 -480.109)" fill="#12263f"/>
        <path id="Trazado_195683" data-name="Trazado 195683" d="M-333.132,491.68c-1.648,0-3.3,0-4.944,0-.808,0-1.19-.294-1.191-.882s.387-.886,1.186-.887q4.944,0,9.888,0c.8,0,1.188.3,1.189.882s-.39.884-1.185.886C-329.836,491.682-331.484,491.679-333.132,491.68Z" transform="translate(362.134 -458.397)" fill="#12263f"/>
        <path id="Trazado_195684" data-name="Trazado 195684" d="M-333.185,467.519q-2.508,0-5.017,0c-.544,0-.978-.179-1.07-.783s.319-.98,1.067-.983c2.385-.008,4.771,0,7.157,0,1.008,0,2.017.005,3.025,0,.575,0,.973.232,1,.837.027.655-.41.924-.994.93-1.721.017-3.443.006-5.165.006Z" transform="translate(362.149 -437.802)" fill="#12263f"/>
        <path id="Trazado_195685" data-name="Trazado 195685" d="M-333.158,515.832c-1.648,0-3.3-.008-4.944,0-.613,0-1.088-.147-1.128-.856-.034-.589.375-.914,1.159-.915q4.981-.011,9.962-.006c.6,0,1.09.169,1.13.876.034.6-.348.891-1.161.893-1.673,0-3.345,0-5.018,0Z" transform="translate(362.105 -478.983)" fill="#12263f"/>
        <path id="Trazado_195686" data-name="Trazado 195686" d="M-333.107,540.218c-1.647,0-3.294.005-4.942,0-.819,0-1.185-.283-1.189-.876s.362-.88,1.184-.882q4.979-.012,9.957,0c.746,0,1.133.312,1.115.879-.023.716-.507.884-1.111.884Z" transform="translate(362.11 -499.776)" fill="#12263f"/>
        <path id="Trazado_195687" data-name="Trazado 195687" d="M-335.528,441.376c.882,0,1.765,0,2.647,0,.591,0,1.013.215,1.054.863.037.57-.351.9-1.085.9-1.765.009-3.53,0-5.3,0-.576,0-1.025-.187-1.052-.857-.023-.581.345-.892,1.083-.9.882-.013,1.765,0,2.648,0Z" transform="translate(362.129 -417.023)" fill="#12263f"/>
      </g>
    </g>
  </g>
</svg>
