<svg xmlns="http://www.w3.org/2000/svg" width="93" height="94" viewBox="0 0 93 94">
  <g id="Grupo_179495" data-name="Grupo 179495" transform="translate(0.275 -0.334)">
    <ellipse id="Elipse_4870" data-name="Elipse 4870" cx="46.5" cy="47" rx="46.5" ry="47" transform="translate(-0.275 0.334)" fill="#4adbd1"/>
    <g id="Grupo_179735" data-name="Grupo 179735" transform="translate(19.735 22.826)">
      <g id="Grupo_155274" data-name="Grupo 155274">
        <path id="Trazado_195645" data-name="Trazado 195645" d="M110.43-265.41l-6.209,3.1-1.388-2.777,6.209-3.1Z" transform="translate(-58.411 271.454)" fill="#12263f"/>
        <path id="Trazado_195646" data-name="Trazado 195646" d="M109.042-246.31l-6.209-3.1,1.388-2.777,6.207,3.1Z" transform="translate(-58.411 277.19)" fill="#12263f"/>
        <path id="Trazado_195647" data-name="Trazado 195647" d="M104.486-259.167H110.8v3.1h-6.312Z" transform="translate(-57.818 274.689)" fill="#12263f"/>
        <path id="Trazado_195648" data-name="Trazado 195648" d="M72.232-268.186l6.207,3.1-1.388,2.776-6.207-3.1Z" transform="translate(-69.882 271.455)" fill="#12263f"/>
        <path id="Trazado_195649" data-name="Trazado 195649" d="M72.231-246.311l-1.388-2.777,6.209-3.1,1.388,2.777Z" transform="translate(-69.882 277.19)" fill="#12263f"/>
        <path id="Trazado_195650" data-name="Trazado 195650" d="M70.136-259.167h6.312v3.1H70.136Z" transform="translate(-70.136 274.689)" fill="#12263f"/>
        <path id="Trazado_195651" data-name="Trazado 195651" d="M86.206-233.881h9.313v3.1H86.206Z" transform="translate(-64.373 283.756)" fill="#12263f"/>
        <path id="Trazado_195652" data-name="Trazado 195652" d="M111.214-253.519A17.094,17.094,0,0,0,94.14-270.592a17.093,17.093,0,0,0-17.073,17.073,17.079,17.079,0,0,0,9.313,15.186v4.991h-3.1v3.1h3.1v6.415H101.9v-6.415h3.1v-3.1h-3.1v-4.991A17.081,17.081,0,0,0,111.214-253.519ZM98.8-226.925H89.483v-3.311H98.8Zm-6.209-23.489a1.554,1.554,0,0,1,1.553-1.551,1.553,1.553,0,0,1,1.552,1.551,1.554,1.554,0,0,1-1.552,1.553A1.555,1.555,0,0,1,92.588-250.414Zm3.1,17.073v-12.684a4.665,4.665,0,0,0,3.1-4.39,4.661,4.661,0,0,0-4.656-4.656,4.662,4.662,0,0,0-4.657,4.656,4.666,4.666,0,0,0,3.1,4.39v12.684h-3.1v-6.986l-.928-.408a13.981,13.981,0,0,1-8.384-12.784A13.985,13.985,0,0,1,94.14-267.488a13.986,13.986,0,0,1,13.969,13.969,13.983,13.983,0,0,1-8.384,12.784l-.929.408v6.986Z" transform="translate(-67.651 270.592)" fill="#12263f"/>
      </g>
    </g>
  </g>
</svg>
