<svg xmlns="http://www.w3.org/2000/svg" xmlns:xlink="http://www.w3.org/1999/xlink" width="802" height="436.531" viewBox="0 0 802 436.531">
  <defs>
    <linearGradient id="linear-gradient" x1="0.5" x2="0.5" y2="1" gradientUnits="objectBoundingBox">
      <stop offset="0" stop-color="#50c7d6"/>
      <stop offset="1" stop-color="#117aad"/>
    </linearGradient>
    <linearGradient id="linear-gradient-4" x1="0.5" x2="0.5" y2="1" gradientUnits="objectBoundingBox">
      <stop offset="0" stop-color="#f5f5f5"/>
      <stop offset="0.25" stop-color="#f5f5f5"/>
      <stop offset="1" stop-color="#a7b3cf"/>
    </linearGradient>
    <clipPath id="clip-path">
      <rect id="Rectángulo_58431" data-name="Rectángulo 58431" width="62.112" height="62.091" fill="#fff"/>
    </clipPath>
    <clipPath id="clip-path-2">
      <rect id="Rectángulo_58433" data-name="Rectángulo 58433" width="41.414" height="39.137" transform="translate(2)" fill="#12263f"/>
    </clipPath>
    <clipPath id="clip-path-3">
      <rect id="Rectángulo_58447" data-name="Rectángulo 58447" width="40.108" height="38.123" fill="#12263f"/>
    </clipPath>
    <clipPath id="clip-path-4">
      <rect id="Rectángulo_58448" data-name="Rectángulo 58448" width="43.28" height="43.268" fill="#12263f"/>
    </clipPath>
    <clipPath id="clip-path-5">
      <rect id="Rectángulo_58450" data-name="Rectángulo 58450" width="41.487" height="41.468" fill="#12263f"/>
    </clipPath>
    <clipPath id="clip-path-6">
      <rect id="Rectángulo_58451" data-name="Rectángulo 58451" width="38.867" height="33.887" fill="#12263f"/>
    </clipPath>
  </defs>
  <g id="Grupo_180651" data-name="Grupo 180651" transform="translate(-1177.28 8954.027)">
    <path id="Trazado_232331" data-name="Trazado 232331" d="M10,0H244a10,10,0,0,1,10,10V365a10,10,0,0,1-10,10H10A10,10,0,0,1,0,365V10A10,10,0,0,1,10,0Z" transform="translate(1177.28 -8892.496)" fill="#373f51"/>
    <path id="Trazado_232314" data-name="Trazado 232314" d="M10,0H244a10,10,0,0,1,10,10V365a10,10,0,0,1-10,10H10A10,10,0,0,1,0,365V10A10,10,0,0,1,10,0Z" transform="translate(1725.28 -8892.496)" fill="#373f51"/>
    <path id="Trazado_232332" data-name="Trazado 232332" d="M5,0H204a5,5,0,0,1,5,5V50a5,5,0,0,1-5,5H5a5,5,0,0,1-5-5V5A5,5,0,0,1,5,0Z" transform="translate(1198.28 -8851.496)" fill="url(#linear-gradient)"/>
    <path id="Trazado_232333" data-name="Trazado 232333" d="M5,0H204a5,5,0,0,1,5,5V50a5,5,0,0,1-5,5H5a5,5,0,0,1-5-5V5A5,5,0,0,1,5,0Z" transform="translate(1198.28 -8737.496)" fill="url(#linear-gradient)"/>
    <path id="Trazado_232334" data-name="Trazado 232334" d="M5,0H204a5,5,0,0,1,5,5V50a5,5,0,0,1-5,5H5a5,5,0,0,1-5-5V5A5,5,0,0,1,5,0Z" transform="translate(1198.28 -8624.496)" fill="url(#linear-gradient)"/>
    <path id="Trazado_232336" data-name="Trazado 232336" d="M7.859-4.945h-4.5v3.063H8.641V0H1.016V-11.375H8.625v1.9H3.359v2.711h4.5Zm5.219-6.43L16-3.125l2.906-8.25h3.078V0H19.633V-3.109l.234-5.367L16.8,0H15.188L12.125-8.469l.234,5.359V0H10.016V-11.375Zm13.3,7.367V0H24.031V-11.375h4.438a5.134,5.134,0,0,1,2.254.469,3.454,3.454,0,0,1,1.5,1.332,3.714,3.714,0,0,1,.523,1.965A3.266,3.266,0,0,1,31.6-4.973a4.767,4.767,0,0,1-3.168.965Zm0-1.9h2.094a2.059,2.059,0,0,0,1.418-.437,1.591,1.591,0,0,0,.488-1.25,1.876,1.876,0,0,0-.492-1.352,1.839,1.839,0,0,0-1.359-.531H26.375ZM36.7-1.883h4.977V0h-7.32V-11.375H36.7ZM49.859-4.945h-4.5v3.063h5.281V0H43.016V-11.375h7.609v1.9H45.359v2.711h4.5Zm8.578,2.6H54.328L53.547,0H51.055l4.234-11.375h2.172L61.719,0H59.227Zm-3.477-1.9H57.8L56.375-8.5ZM62.781,0V-11.375h3.5a5.315,5.315,0,0,1,2.684.676,4.712,4.712,0,0,1,1.848,1.922,5.928,5.928,0,0,1,.664,2.832v.523a5.945,5.945,0,0,1-.652,2.82,4.672,4.672,0,0,1-1.84,1.914A5.355,5.355,0,0,1,66.3,0Zm2.344-9.477v7.594h1.133a2.545,2.545,0,0,0,2.1-.9,4.06,4.06,0,0,0,.742-2.57v-.6a4.124,4.124,0,0,0-.719-2.629,2.537,2.537,0,0,0-2.1-.895Zm17.4,4.047a6.867,6.867,0,0,1-.594,2.945,4.472,4.472,0,0,1-1.7,1.953A4.7,4.7,0,0,1,77.7.156a4.732,4.732,0,0,1-2.523-.68,4.515,4.515,0,0,1-1.719-1.941,6.67,6.67,0,0,1-.617-2.9V-5.93a6.831,6.831,0,0,1,.605-2.957,4.508,4.508,0,0,1,1.711-1.961,4.706,4.706,0,0,1,2.527-.684,4.706,4.706,0,0,1,2.527.684,4.508,4.508,0,0,1,1.711,1.961,6.811,6.811,0,0,1,.605,2.949Zm-2.375-.516a4.787,4.787,0,0,0-.641-2.719,2.088,2.088,0,0,0-1.828-.93,2.088,2.088,0,0,0-1.82.918,4.732,4.732,0,0,0-.648,2.691v.555a4.847,4.847,0,0,0,.641,2.7,2.082,2.082,0,0,0,1.844.961,2.064,2.064,0,0,0,1.813-.926,4.819,4.819,0,0,0,.641-2.7Zm9.977,2.961A1.2,1.2,0,0,0,89.656-4a6.148,6.148,0,0,0-1.687-.75,11.963,11.963,0,0,1-1.93-.777A3.153,3.153,0,0,1,84.1-8.352,2.747,2.747,0,0,1,84.621-10a3.389,3.389,0,0,1,1.492-1.129,5.616,5.616,0,0,1,2.184-.406,5.112,5.112,0,0,1,2.172.441,3.458,3.458,0,0,1,1.48,1.246,3.261,3.261,0,0,1,.527,1.828H90.133a1.534,1.534,0,0,0-.492-1.215,2.023,2.023,0,0,0-1.383-.434,2.162,2.162,0,0,0-1.336.363,1.146,1.146,0,0,0-.477.957,1.1,1.1,0,0,0,.559.93,6.311,6.311,0,0,0,1.645.7,7.106,7.106,0,0,1,2.914,1.492A2.972,2.972,0,0,1,92.477-3,2.737,2.737,0,0,1,91.359-.684a4.891,4.891,0,0,1-3.008.84,5.808,5.808,0,0,1-2.391-.48,3.783,3.783,0,0,1-1.645-1.316,3.371,3.371,0,0,1-.566-1.937H86.1q0,1.883,2.25,1.883a2.189,2.189,0,0,0,1.3-.34A1.106,1.106,0,0,0,90.125-2.984Z" transform="translate(1257.28 -8818.496)" fill="#fff"/>
    <path id="Trazado_232338" data-name="Trazado 232338" d="M-80.4-4.008V0h-2.344V-11.375H-78.3a5.134,5.134,0,0,1,2.254.469,3.454,3.454,0,0,1,1.5,1.332,3.714,3.714,0,0,1,.523,1.965,3.266,3.266,0,0,1-1.145,2.637,4.767,4.767,0,0,1-3.168.965Zm0-1.9H-78.3a2.059,2.059,0,0,0,1.418-.437,1.591,1.591,0,0,0,.488-1.25,1.876,1.876,0,0,0-.492-1.352,1.839,1.839,0,0,0-1.359-.531H-80.4Zm13.008,3.563H-71.5L-72.281,0h-2.492l4.234-11.375h2.172L-64.109,0H-66.6Zm-3.477-1.9h2.844L-69.453-8.5Zm12.031.078H-60.7V0h-2.344V-11.375h4.227a4.778,4.778,0,0,1,3.109.9,3.1,3.1,0,0,1,1.094,2.539A3.5,3.5,0,0,1-55.121-6a3.437,3.437,0,0,1-1.527,1.238l2.461,4.648V0H-56.7Zm-1.867-1.9h1.891a1.936,1.936,0,0,0,1.367-.449,1.606,1.606,0,0,0,.484-1.238,1.719,1.719,0,0,0-.457-1.266,1.9,1.9,0,0,0-1.4-.461H-60.7Zm16.039-3.414h-3.484V0h-2.344V-9.477H-53.93v-1.9h9.266Zm8.18,4.531h-4.5v3.063H-35.7V0h-7.625V-11.375h7.609v1.9h-5.266v2.711h4.5Zm8.055,1.961A1.2,1.2,0,0,0-28.9-4a6.148,6.148,0,0,0-1.687-.75,11.962,11.962,0,0,1-1.93-.777,3.153,3.153,0,0,1-1.937-2.82A2.747,2.747,0,0,1-33.934-10a3.389,3.389,0,0,1,1.492-1.129,5.616,5.616,0,0,1,2.184-.406,5.112,5.112,0,0,1,2.172.441,3.458,3.458,0,0,1,1.48,1.246,3.261,3.261,0,0,1,.527,1.828h-2.344a1.534,1.534,0,0,0-.492-1.215A2.023,2.023,0,0,0-30.3-9.664a2.162,2.162,0,0,0-1.336.363,1.146,1.146,0,0,0-.477.957,1.1,1.1,0,0,0,.559.93,6.311,6.311,0,0,0,1.645.7,7.106,7.106,0,0,1,2.914,1.492A2.972,2.972,0,0,1-26.078-3,2.737,2.737,0,0,1-27.2-.684,4.891,4.891,0,0,1-30.2.156a5.808,5.808,0,0,1-2.391-.48,3.783,3.783,0,0,1-1.645-1.316A3.371,3.371,0,0,1-34.8-3.578h2.352q0,1.883,2.25,1.883a2.189,2.189,0,0,0,1.3-.34A1.106,1.106,0,0,0-28.43-2.984ZM-18.016,0h-2.344V-11.375h2.344ZM-6.594,0H-8.937L-13.5-7.484V0h-2.344V-11.375H-13.5l4.57,7.5v-7.5h2.336ZM3.789-9.477H.3V0H-2.039V-9.477H-5.477v-1.9H3.789Zm8.18,4.531h-4.5v3.063H12.75V0H5.125V-11.375h7.609v1.9H7.469v2.711h4.5Zm6.367.781H16.469V0H14.125V-11.375h4.227a4.778,4.778,0,0,1,3.109.9,3.1,3.1,0,0,1,1.094,2.539A3.5,3.5,0,0,1,22.051-6a3.437,3.437,0,0,1-1.527,1.238L22.984-.109V0H20.469Zm-1.867-1.9h1.891a1.936,1.936,0,0,0,1.367-.449,1.606,1.606,0,0,0,.484-1.238,1.719,1.719,0,0,0-.457-1.266,1.9,1.9,0,0,0-1.4-.461H16.469ZM31.18-4.945h-4.5v3.063h5.281V0H24.336V-11.375h7.609v1.9H26.68v2.711h4.5Zm8.055,1.961A1.2,1.2,0,0,0,38.766-4a6.148,6.148,0,0,0-1.687-.75,11.962,11.962,0,0,1-1.93-.777,3.153,3.153,0,0,1-1.937-2.82A2.747,2.747,0,0,1,33.73-10a3.389,3.389,0,0,1,1.492-1.129,5.616,5.616,0,0,1,2.184-.406,5.112,5.112,0,0,1,2.172.441,3.458,3.458,0,0,1,1.48,1.246,3.261,3.261,0,0,1,.527,1.828H39.242A1.534,1.534,0,0,0,38.75-9.23a2.023,2.023,0,0,0-1.383-.434,2.162,2.162,0,0,0-1.336.363,1.146,1.146,0,0,0-.477.957,1.1,1.1,0,0,0,.559.93,6.311,6.311,0,0,0,1.645.7,7.106,7.106,0,0,1,2.914,1.492A2.972,2.972,0,0,1,41.586-3,2.737,2.737,0,0,1,40.469-.684a4.891,4.891,0,0,1-3.008.84,5.808,5.808,0,0,1-2.391-.48,3.783,3.783,0,0,1-1.645-1.316,3.371,3.371,0,0,1-.566-1.937h2.352q0,1.883,2.25,1.883a2.189,2.189,0,0,0,1.3-.34A1.106,1.106,0,0,0,39.234-2.984Zm10.359.641H45.484L44.7,0H42.211l4.234-11.375h2.172L52.875,0H50.383Zm-3.477-1.9h2.844L47.531-8.5ZM53.938,0V-11.375h3.5a5.315,5.315,0,0,1,2.684.676,4.712,4.712,0,0,1,1.848,1.922,5.928,5.928,0,0,1,.664,2.832v.523A5.945,5.945,0,0,1,61.98-2.6a4.672,4.672,0,0,1-1.84,1.914A5.355,5.355,0,0,1,57.461,0Zm2.344-9.477v7.594h1.133a2.545,2.545,0,0,0,2.1-.9,4.06,4.06,0,0,0,.742-2.57v-.6a4.124,4.124,0,0,0-.719-2.629,2.537,2.537,0,0,0-2.1-.895ZM70.594-2.344H66.484L65.7,0H63.211l4.234-11.375h2.172L73.875,0H71.383Zm-3.477-1.9h2.844L68.531-8.5ZM80.836-2.984A1.2,1.2,0,0,0,80.367-4a6.148,6.148,0,0,0-1.687-.75,11.963,11.963,0,0,1-1.93-.777,3.153,3.153,0,0,1-1.937-2.82A2.747,2.747,0,0,1,75.332-10a3.389,3.389,0,0,1,1.492-1.129,5.616,5.616,0,0,1,2.184-.406,5.112,5.112,0,0,1,2.172.441,3.458,3.458,0,0,1,1.48,1.246,3.261,3.261,0,0,1,.527,1.828H80.844a1.534,1.534,0,0,0-.492-1.215,2.023,2.023,0,0,0-1.383-.434,2.162,2.162,0,0,0-1.336.363,1.146,1.146,0,0,0-.477.957,1.1,1.1,0,0,0,.559.93,6.311,6.311,0,0,0,1.645.7,7.106,7.106,0,0,1,2.914,1.492A2.972,2.972,0,0,1,83.188-3,2.737,2.737,0,0,1,82.07-.684a4.891,4.891,0,0,1-3.008.84,5.808,5.808,0,0,1-2.391-.48,3.783,3.783,0,0,1-1.645-1.316,3.371,3.371,0,0,1-.566-1.937h2.352q0,1.883,2.25,1.883a2.189,2.189,0,0,0,1.3-.34A1.106,1.106,0,0,0,80.836-2.984ZM-34.934,22h-2.344V10.625h2.344Zm11.422,0h-2.344l-4.562-7.484V22h-2.344V10.625h2.344l4.57,7.5v-7.5h2.336Zm10.383-9.477h-3.484V22h-2.344V12.523h-3.437v-1.9h9.266Zm8.18,4.531h-4.5v3.063h5.281V22h-7.625V10.625h7.609v1.9H-9.449v2.711h4.5Zm6.367.781H-.449V22H-2.793V10.625H1.434a4.778,4.778,0,0,1,3.109.9,3.1,3.1,0,0,1,1.094,2.539A3.5,3.5,0,0,1,5.133,16a3.437,3.437,0,0,1-1.527,1.238l2.461,4.648V22H3.551Zm-1.867-1.9H1.441a1.936,1.936,0,0,0,1.367-.449,1.606,1.606,0,0,0,.484-1.238,1.719,1.719,0,0,0-.457-1.266,1.9,1.9,0,0,0-1.4-.461H-.449ZM16.668,22H14.324L9.762,14.516V22H7.418V10.625H9.762l4.57,7.5v-7.5h2.336Zm8.609-2.344H21.168L20.387,22H17.895l4.234-11.375H24.3L28.559,22H26.066Zm-3.477-1.9h2.844L23.215,13.5ZM35.52,19.016A1.2,1.2,0,0,0,35.051,18a6.148,6.148,0,0,0-1.687-.75,11.963,11.963,0,0,1-1.93-.777,3.153,3.153,0,0,1-1.937-2.82A2.747,2.747,0,0,1,30.016,12a3.389,3.389,0,0,1,1.492-1.129,5.616,5.616,0,0,1,2.184-.406,5.112,5.112,0,0,1,2.172.441,3.458,3.458,0,0,1,1.48,1.246,3.261,3.261,0,0,1,.527,1.828H35.527a1.534,1.534,0,0,0-.492-1.215,2.023,2.023,0,0,0-1.383-.434,2.162,2.162,0,0,0-1.336.363,1.146,1.146,0,0,0-.477.957,1.1,1.1,0,0,0,.559.93,6.311,6.311,0,0,0,1.645.7,7.106,7.106,0,0,1,2.914,1.492A2.972,2.972,0,0,1,37.871,19a2.737,2.737,0,0,1-1.117,2.316,4.891,4.891,0,0,1-3.008.84,5.808,5.808,0,0,1-2.391-.48,3.783,3.783,0,0,1-1.645-1.316,3.371,3.371,0,0,1-.566-1.937H31.5q0,1.883,2.25,1.883a2.189,2.189,0,0,0,1.3-.34A1.106,1.106,0,0,0,35.52,19.016Z" transform="translate(1303.28 -8942.496)" fill="#12263f"/>
    <path id="Trazado_232324" data-name="Trazado 232324" d="M-28.715-4.945h-4.5v3.063h5.281V0h-7.625V-11.375h7.609v1.9h-5.266v2.711h4.5Zm5.219-6.43,2.922,8.25,2.906-8.25h3.078V0h-2.352V-3.109l.234-5.367L-19.777,0h-1.609l-3.062-8.469.234,5.359V0h-2.344V-11.375Zm13.3,7.367V0h-2.344V-11.375h4.438a5.134,5.134,0,0,1,2.254.469,3.454,3.454,0,0,1,1.5,1.332,3.714,3.714,0,0,1,.523,1.965A3.266,3.266,0,0,1-4.977-4.973a4.767,4.767,0,0,1-3.168.965Zm0-1.9h2.094a2.059,2.059,0,0,0,1.418-.437A1.591,1.591,0,0,0-6.2-7.594a1.876,1.876,0,0,0-.492-1.352,1.839,1.839,0,0,0-1.359-.531H-10.2ZM1.988-4.164H.121V0H-2.223V-11.375H2a4.778,4.778,0,0,1,3.109.9A3.1,3.1,0,0,1,6.207-7.937,3.5,3.5,0,0,1,5.7-6,3.437,3.437,0,0,1,4.176-4.758L6.637-.109V0H4.121ZM.121-6.062H2.012a1.936,1.936,0,0,0,1.367-.449A1.606,1.606,0,0,0,3.863-7.75a1.719,1.719,0,0,0-.457-1.266A1.9,1.9,0,0,0,2-9.477H.121ZM14.832-4.945h-4.5v3.063h5.281V0H7.988V-11.375H15.6v1.9H10.332v2.711h4.5Zm8.055,1.961A1.2,1.2,0,0,0,22.418-4a6.148,6.148,0,0,0-1.687-.75,11.963,11.963,0,0,1-1.93-.777,3.153,3.153,0,0,1-1.937-2.82A2.747,2.747,0,0,1,17.383-10a3.389,3.389,0,0,1,1.492-1.129,5.616,5.616,0,0,1,2.184-.406,5.112,5.112,0,0,1,2.172.441,3.458,3.458,0,0,1,1.48,1.246,3.261,3.261,0,0,1,.527,1.828H22.895A1.534,1.534,0,0,0,22.4-9.23a2.023,2.023,0,0,0-1.383-.434,2.162,2.162,0,0,0-1.336.363,1.146,1.146,0,0,0-.477.957,1.1,1.1,0,0,0,.559.93,6.311,6.311,0,0,0,1.645.7,7.106,7.106,0,0,1,2.914,1.492A2.972,2.972,0,0,1,25.238-3,2.737,2.737,0,0,1,24.121-.684a4.891,4.891,0,0,1-3.008.84,5.808,5.808,0,0,1-2.391-.48,3.783,3.783,0,0,1-1.645-1.316,3.371,3.371,0,0,1-.566-1.937h2.352q0,1.883,2.25,1.883a2.189,2.189,0,0,0,1.3-.34A1.106,1.106,0,0,0,22.887-2.984Zm10.359.641H29.137L28.355,0H25.863L30.1-11.375H32.27L36.527,0H34.035Zm-3.477-1.9h2.844L31.184-8.5Z" transform="translate(1586.28 -8632.496)" fill="#12263f"/>
    <path id="Trazado_232339" data-name="Trazado 232339" d="M-80.4-4.008V0h-2.344V-11.375H-78.3a5.134,5.134,0,0,1,2.254.469,3.454,3.454,0,0,1,1.5,1.332,3.714,3.714,0,0,1,.523,1.965,3.266,3.266,0,0,1-1.145,2.637,4.767,4.767,0,0,1-3.168.965Zm0-1.9H-78.3a2.059,2.059,0,0,0,1.418-.437,1.591,1.591,0,0,0,.488-1.25,1.876,1.876,0,0,0-.492-1.352,1.839,1.839,0,0,0-1.359-.531H-80.4Zm13.008,3.563H-71.5L-72.281,0h-2.492l4.234-11.375h2.172L-64.109,0H-66.6Zm-3.477-1.9h2.844L-69.453-8.5Zm12.031.078H-60.7V0h-2.344V-11.375h4.227a4.778,4.778,0,0,1,3.109.9,3.1,3.1,0,0,1,1.094,2.539A3.5,3.5,0,0,1-55.121-6a3.437,3.437,0,0,1-1.527,1.238l2.461,4.648V0H-56.7Zm-1.867-1.9h1.891a1.936,1.936,0,0,0,1.367-.449,1.606,1.606,0,0,0,.484-1.238,1.719,1.719,0,0,0-.457-1.266,1.9,1.9,0,0,0-1.4-.461H-60.7Zm16.039-3.414h-3.484V0h-2.344V-9.477H-53.93v-1.9h9.266Zm8.18,4.531h-4.5v3.063H-35.7V0h-7.625V-11.375h7.609v1.9h-5.266v2.711h4.5Zm8.055,1.961A1.2,1.2,0,0,0-28.9-4a6.148,6.148,0,0,0-1.687-.75,11.962,11.962,0,0,1-1.93-.777,3.153,3.153,0,0,1-1.937-2.82A2.747,2.747,0,0,1-33.934-10a3.389,3.389,0,0,1,1.492-1.129,5.616,5.616,0,0,1,2.184-.406,5.112,5.112,0,0,1,2.172.441,3.458,3.458,0,0,1,1.48,1.246,3.261,3.261,0,0,1,.527,1.828h-2.344a1.534,1.534,0,0,0-.492-1.215A2.023,2.023,0,0,0-30.3-9.664a2.162,2.162,0,0,0-1.336.363,1.146,1.146,0,0,0-.477.957,1.1,1.1,0,0,0,.559.93,6.311,6.311,0,0,0,1.645.7,7.106,7.106,0,0,1,2.914,1.492A2.972,2.972,0,0,1-26.078-3,2.737,2.737,0,0,1-27.2-.684,4.891,4.891,0,0,1-30.2.156a5.808,5.808,0,0,1-2.391-.48,3.783,3.783,0,0,1-1.645-1.316A3.371,3.371,0,0,1-34.8-3.578h2.352q0,1.883,2.25,1.883a2.189,2.189,0,0,0,1.3-.34A1.106,1.106,0,0,0-28.43-2.984ZM-18.016,0h-2.344V-11.375h2.344ZM-6.594,0H-8.937L-13.5-7.484V0h-2.344V-11.375H-13.5l4.57,7.5v-7.5h2.336ZM3.789-9.477H.3V0H-2.039V-9.477H-5.477v-1.9H3.789Zm8.18,4.531h-4.5v3.063H12.75V0H5.125V-11.375h7.609v1.9H7.469v2.711h4.5Zm6.367.781H16.469V0H14.125V-11.375h4.227a4.778,4.778,0,0,1,3.109.9,3.1,3.1,0,0,1,1.094,2.539A3.5,3.5,0,0,1,22.051-6a3.437,3.437,0,0,1-1.527,1.238L22.984-.109V0H20.469Zm-1.867-1.9h1.891a1.936,1.936,0,0,0,1.367-.449,1.606,1.606,0,0,0,.484-1.238,1.719,1.719,0,0,0-.457-1.266,1.9,1.9,0,0,0-1.4-.461H16.469ZM31.18-4.945h-4.5v3.063h5.281V0H24.336V-11.375h7.609v1.9H26.68v2.711h4.5Zm8.055,1.961A1.2,1.2,0,0,0,38.766-4a6.148,6.148,0,0,0-1.687-.75,11.962,11.962,0,0,1-1.93-.777,3.153,3.153,0,0,1-1.937-2.82A2.747,2.747,0,0,1,33.73-10a3.389,3.389,0,0,1,1.492-1.129,5.616,5.616,0,0,1,2.184-.406,5.112,5.112,0,0,1,2.172.441,3.458,3.458,0,0,1,1.48,1.246,3.261,3.261,0,0,1,.527,1.828H39.242A1.534,1.534,0,0,0,38.75-9.23a2.023,2.023,0,0,0-1.383-.434,2.162,2.162,0,0,0-1.336.363,1.146,1.146,0,0,0-.477.957,1.1,1.1,0,0,0,.559.93,6.311,6.311,0,0,0,1.645.7,7.106,7.106,0,0,1,2.914,1.492A2.972,2.972,0,0,1,41.586-3,2.737,2.737,0,0,1,40.469-.684a4.891,4.891,0,0,1-3.008.84,5.808,5.808,0,0,1-2.391-.48,3.783,3.783,0,0,1-1.645-1.316,3.371,3.371,0,0,1-.566-1.937h2.352q0,1.883,2.25,1.883a2.189,2.189,0,0,0,1.3-.34A1.106,1.106,0,0,0,39.234-2.984Zm10.359.641H45.484L44.7,0H42.211l4.234-11.375h2.172L52.875,0H50.383Zm-3.477-1.9h2.844L47.531-8.5ZM53.938,0V-11.375h3.5a5.315,5.315,0,0,1,2.684.676,4.712,4.712,0,0,1,1.848,1.922,5.928,5.928,0,0,1,.664,2.832v.523A5.945,5.945,0,0,1,61.98-2.6a4.672,4.672,0,0,1-1.84,1.914A5.355,5.355,0,0,1,57.461,0Zm2.344-9.477v7.594h1.133a2.545,2.545,0,0,0,2.1-.9,4.06,4.06,0,0,0,.742-2.57v-.6a4.124,4.124,0,0,0-.719-2.629,2.537,2.537,0,0,0-2.1-.895ZM70.594-2.344H66.484L65.7,0H63.211l4.234-11.375h2.172L73.875,0H71.383Zm-3.477-1.9h2.844L68.531-8.5ZM80.836-2.984A1.2,1.2,0,0,0,80.367-4a6.148,6.148,0,0,0-1.687-.75,11.963,11.963,0,0,1-1.93-.777,3.153,3.153,0,0,1-1.937-2.82A2.747,2.747,0,0,1,75.332-10a3.389,3.389,0,0,1,1.492-1.129,5.616,5.616,0,0,1,2.184-.406,5.112,5.112,0,0,1,2.172.441,3.458,3.458,0,0,1,1.48,1.246,3.261,3.261,0,0,1,.527,1.828H80.844a1.534,1.534,0,0,0-.492-1.215,2.023,2.023,0,0,0-1.383-.434,2.162,2.162,0,0,0-1.336.363,1.146,1.146,0,0,0-.477.957,1.1,1.1,0,0,0,.559.93,6.311,6.311,0,0,0,1.645.7,7.106,7.106,0,0,1,2.914,1.492A2.972,2.972,0,0,1,83.188-3,2.737,2.737,0,0,1,82.07-.684a4.891,4.891,0,0,1-3.008.84,5.808,5.808,0,0,1-2.391-.48,3.783,3.783,0,0,1-1.645-1.316,3.371,3.371,0,0,1-.566-1.937h2.352q0,1.883,2.25,1.883a2.189,2.189,0,0,0,1.3-.34A1.106,1.106,0,0,0,80.836-2.984ZM-32.3,17.055h-4.5v3.063h5.281V22h-7.625V10.625h7.609v1.9H-36.8v2.711h4.5Zm6.227-2.508,2.133-3.922h2.7l-3.312,5.641,3.4,5.734h-2.727l-2.187-3.984L-28.258,22h-2.727l3.4-5.734L-30.9,10.625h2.7Zm14.656-2.023H-14.9V22h-2.344V12.523H-20.68v-1.9h9.266Zm8.18,4.531h-4.5v3.063h5.281V22h-7.625V10.625h7.609v1.9H-7.734v2.711h4.5Zm6.367.781H1.266V22H-1.078V10.625H3.148a4.778,4.778,0,0,1,3.109.9,3.1,3.1,0,0,1,1.094,2.539A3.5,3.5,0,0,1,6.848,16,3.437,3.437,0,0,1,5.32,17.242l2.461,4.648V22H5.266Zm-1.867-1.9H3.156a1.936,1.936,0,0,0,1.367-.449,1.606,1.606,0,0,0,.484-1.238,1.719,1.719,0,0,0-.457-1.266,1.9,1.9,0,0,0-1.4-.461H1.266ZM18.383,22H16.039l-4.562-7.484V22H9.133V10.625h2.344l4.57,7.5v-7.5h2.336Zm8.609-2.344H22.883L22.1,22H19.609l4.234-11.375h2.172L30.273,22H27.781Zm-3.477-1.9h2.844L24.93,13.5Zm13.719,1.258A1.2,1.2,0,0,0,36.766,18a6.148,6.148,0,0,0-1.687-.75,11.963,11.963,0,0,1-1.93-.777,3.153,3.153,0,0,1-1.937-2.82A2.747,2.747,0,0,1,31.73,12a3.389,3.389,0,0,1,1.492-1.129,5.616,5.616,0,0,1,2.184-.406,5.112,5.112,0,0,1,2.172.441,3.458,3.458,0,0,1,1.48,1.246,3.261,3.261,0,0,1,.527,1.828H37.242a1.534,1.534,0,0,0-.492-1.215,2.023,2.023,0,0,0-1.383-.434,2.162,2.162,0,0,0-1.336.363,1.146,1.146,0,0,0-.477.957,1.1,1.1,0,0,0,.559.93,6.311,6.311,0,0,0,1.645.7,7.106,7.106,0,0,1,2.914,1.492A2.972,2.972,0,0,1,39.586,19a2.737,2.737,0,0,1-1.117,2.316,4.891,4.891,0,0,1-3.008.84,5.808,5.808,0,0,1-2.391-.48,3.783,3.783,0,0,1-1.645-1.316,3.371,3.371,0,0,1-.566-1.937h2.352q0,1.883,2.25,1.883a2.189,2.189,0,0,0,1.3-.34A1.106,1.106,0,0,0,37.234,19.016Z" transform="translate(1852.28 -8942.496)" fill="#12263f"/>
    <path id="Trazado_232337" data-name="Trazado 232337" d="M10.016-1.437A4.068,4.068,0,0,1,8.227-.262,7.492,7.492,0,0,1,5.664.156a5.076,5.076,0,0,1-2.59-.645A4.3,4.3,0,0,1,1.355-2.359,6.585,6.585,0,0,1,.734-5.242v-.773a6.994,6.994,0,0,1,.574-2.949,4.248,4.248,0,0,1,1.656-1.906,4.771,4.771,0,0,1,2.535-.66,4.751,4.751,0,0,1,3.164.965,4.123,4.123,0,0,1,1.352,2.809H7.734a2.268,2.268,0,0,0-.691-1.43A2.208,2.208,0,0,0,5.57-9.641a2.078,2.078,0,0,0-1.82.9A4.724,4.724,0,0,0,3.117-6.07v.727a4.5,4.5,0,0,0,.68,2.7,2.327,2.327,0,0,0,1.992.914,2.6,2.6,0,0,0,1.883-.562V-4.25H5.539V-5.977h4.477Zm8.742-3.508h-4.5v3.063h5.281V0H11.914V-11.375h7.609v1.9H14.258v2.711h4.5Zm6.367.781H23.258V0H20.914V-11.375h4.227a4.778,4.778,0,0,1,3.109.9,3.1,3.1,0,0,1,1.094,2.539A3.5,3.5,0,0,1,28.84-6a3.437,3.437,0,0,1-1.527,1.238L29.773-.109V0H27.258Zm-1.867-1.9h1.891a1.936,1.936,0,0,0,1.367-.449A1.606,1.606,0,0,0,27-7.75a1.719,1.719,0,0,0-.457-1.266,1.9,1.9,0,0,0-1.4-.461H23.258ZM37.969-4.945h-4.5v3.063H38.75V0H31.125V-11.375h7.609v1.9H33.469v2.711h4.5ZM49.375,0H47.031L42.469-7.484V0H40.125V-11.375h2.344l4.57,7.5v-7.5h2.336ZM59.758-9.477H56.273V0H53.93V-9.477H50.492v-1.9h9.266Zm8.18,4.531h-4.5v3.063h5.281V0H61.094V-11.375H68.7v1.9H63.438v2.711h4.5Zm8.055,1.961A1.2,1.2,0,0,0,75.523-4a6.148,6.148,0,0,0-1.687-.75,11.963,11.963,0,0,1-1.93-.777,3.153,3.153,0,0,1-1.937-2.82A2.747,2.747,0,0,1,70.488-10a3.389,3.389,0,0,1,1.492-1.129,5.616,5.616,0,0,1,2.184-.406,5.112,5.112,0,0,1,2.172.441,3.458,3.458,0,0,1,1.48,1.246,3.261,3.261,0,0,1,.527,1.828H76a1.534,1.534,0,0,0-.492-1.215,2.023,2.023,0,0,0-1.383-.434,2.162,2.162,0,0,0-1.336.363,1.146,1.146,0,0,0-.477.957,1.1,1.1,0,0,0,.559.93,6.311,6.311,0,0,0,1.645.7A7.106,7.106,0,0,1,77.43-5.219,2.972,2.972,0,0,1,78.344-3,2.737,2.737,0,0,1,77.227-.684a4.891,4.891,0,0,1-3.008.84,5.808,5.808,0,0,1-2.391-.48,3.783,3.783,0,0,1-1.645-1.316,3.371,3.371,0,0,1-.566-1.937h2.352q0,1.883,2.25,1.883a2.189,2.189,0,0,0,1.3-.34A1.106,1.106,0,0,0,75.992-2.984Z" transform="translate(1264.28 -8704.496)" fill="#fff"/>
    <path id="Trazado_232335" data-name="Trazado 232335" d="M5.227-4.164H3.359V0H1.016V-11.375H5.242a4.778,4.778,0,0,1,3.109.9A3.1,3.1,0,0,1,9.445-7.937,3.5,3.5,0,0,1,8.941-6,3.437,3.437,0,0,1,7.414-4.758L9.875-.109V0H7.359Zm-1.867-1.9H5.25a1.936,1.936,0,0,0,1.367-.449A1.606,1.606,0,0,0,7.1-7.75a1.719,1.719,0,0,0-.457-1.266,1.9,1.9,0,0,0-1.4-.461H3.359ZM13.57-4.008V0H11.227V-11.375h4.438a5.134,5.134,0,0,1,2.254.469,3.454,3.454,0,0,1,1.5,1.332,3.714,3.714,0,0,1,.523,1.965,3.266,3.266,0,0,1-1.145,2.637,4.767,4.767,0,0,1-3.168.965Zm0-1.9h2.094a2.059,2.059,0,0,0,1.418-.437,1.591,1.591,0,0,0,.488-1.25,1.876,1.876,0,0,0-.492-1.352,1.839,1.839,0,0,0-1.359-.531H13.57Zm17.32.477A6.867,6.867,0,0,1,30.3-2.484,4.472,4.472,0,0,1,28.6-.531a4.7,4.7,0,0,1-2.535.688,4.732,4.732,0,0,1-2.523-.68A4.515,4.515,0,0,1,21.82-2.465a6.67,6.67,0,0,1-.617-2.9V-5.93a6.831,6.831,0,0,1,.605-2.957,4.508,4.508,0,0,1,1.711-1.961,4.706,4.706,0,0,1,2.527-.684,4.706,4.706,0,0,1,2.527.684,4.508,4.508,0,0,1,1.711,1.961,6.811,6.811,0,0,1,.605,2.949Zm-2.375-.516a4.787,4.787,0,0,0-.641-2.719,2.088,2.088,0,0,0-1.828-.93,2.088,2.088,0,0,0-1.82.918,4.732,4.732,0,0,0-.648,2.691v.555a4.847,4.847,0,0,0,.641,2.7,2.082,2.082,0,0,0,1.844.961,2.064,2.064,0,0,0,1.813-.926,4.819,4.819,0,0,0,.641-2.7Zm6.422,1.938V0H32.594V-11.375h4.438a5.134,5.134,0,0,1,2.254.469,3.454,3.454,0,0,1,1.5,1.332A3.714,3.714,0,0,1,41.3-7.609,3.266,3.266,0,0,1,40.16-4.973a4.767,4.767,0,0,1-3.168.965Zm0-1.9h2.094a2.059,2.059,0,0,0,1.418-.437,1.591,1.591,0,0,0,.488-1.25,1.876,1.876,0,0,0-.492-1.352,1.839,1.839,0,0,0-1.359-.531H34.938ZM45.406,0H43.063V-11.375h2.344Zm9.016-4.945h-4.5v3.063H55.2V0H47.578V-11.375h7.609v1.9H49.922v2.711h4.5ZM65.3-9.477H61.813V0H59.469V-9.477H56.031v-1.9H65.3Zm6.82,7.133H68.008L67.227,0H64.734l4.234-11.375h2.172L75.4,0H72.906Zm-3.477-1.9h2.844L70.055-8.5Zm12.031.078H78.8V0H76.461V-11.375h4.227a4.778,4.778,0,0,1,3.109.9,3.1,3.1,0,0,1,1.094,2.539A3.5,3.5,0,0,1,84.387-6a3.437,3.437,0,0,1-1.527,1.238L85.32-.109V0H82.8ZM78.8-6.062H80.7a1.936,1.936,0,0,0,1.367-.449,1.606,1.606,0,0,0,.484-1.238,1.719,1.719,0,0,0-.457-1.266,1.9,1.9,0,0,0-1.4-.461H78.8ZM89.164,0H86.82V-11.375h2.344ZM100.68-5.43a6.867,6.867,0,0,1-.594,2.945,4.472,4.472,0,0,1-1.7,1.953,4.7,4.7,0,0,1-2.535.688,4.732,4.732,0,0,1-2.523-.68,4.515,4.515,0,0,1-1.719-1.941,6.67,6.67,0,0,1-.617-2.9V-5.93A6.831,6.831,0,0,1,91.6-8.887a4.508,4.508,0,0,1,1.711-1.961,4.706,4.706,0,0,1,2.527-.684,4.706,4.706,0,0,1,2.527.684,4.508,4.508,0,0,1,1.711,1.961,6.811,6.811,0,0,1,.605,2.949ZM98.3-5.945a4.787,4.787,0,0,0-.641-2.719,2.088,2.088,0,0,0-1.828-.93,2.088,2.088,0,0,0-1.82.918,4.732,4.732,0,0,0-.648,2.691v.555a4.847,4.847,0,0,0,.641,2.7,2.082,2.082,0,0,0,1.844.961,2.064,2.064,0,0,0,1.813-.926,4.819,4.819,0,0,0,.641-2.7Zm9.977,2.961A1.2,1.2,0,0,0,107.813-4a6.148,6.148,0,0,0-1.687-.75,11.963,11.963,0,0,1-1.93-.777,3.153,3.153,0,0,1-1.937-2.82,2.747,2.747,0,0,1,.52-1.645,3.389,3.389,0,0,1,1.492-1.129,5.616,5.616,0,0,1,2.184-.406,5.112,5.112,0,0,1,2.172.441,3.458,3.458,0,0,1,1.48,1.246,3.261,3.261,0,0,1,.527,1.828h-2.344A1.534,1.534,0,0,0,107.8-9.23a2.023,2.023,0,0,0-1.383-.434,2.162,2.162,0,0,0-1.336.363,1.146,1.146,0,0,0-.477.957,1.1,1.1,0,0,0,.559.93,6.311,6.311,0,0,0,1.645.7,7.106,7.106,0,0,1,2.914,1.492A2.972,2.972,0,0,1,110.633-3a2.737,2.737,0,0,1-1.117,2.316,4.891,4.891,0,0,1-3.008.84,5.808,5.808,0,0,1-2.391-.48,3.783,3.783,0,0,1-1.645-1.316,3.371,3.371,0,0,1-.566-1.937h2.352q0,1.883,2.25,1.883a2.189,2.189,0,0,0,1.3-.34A1.106,1.106,0,0,0,108.281-2.984Z" transform="translate(1248.28 -8591.496)" fill="#fff"/>
    <path id="Trazado_232328" data-name="Trazado 232328" d="M5,0H204a5,5,0,0,1,5,5V50a5,5,0,0,1-5,5H5a5,5,0,0,1-5-5V5A5,5,0,0,1,5,0Z" transform="translate(1747 -8861.496)" fill="url(#linear-gradient-4)"/>
    <g id="Trazado_232329" data-name="Trazado 232329" transform="translate(1747 -8861.496)" fill="#fff">
      <path d="M 46.28039932250977 54.5 L 4.999997615814209 54.5 C 2.518687725067139 54.5 0.4999977648258209 52.4813117980957 0.4999977648258209 50 L 0.4999977648258209 5 C 0.4999977648258209 2.51869010925293 2.518687725067139 0.5 4.999997615814209 0.5 L 46.28039932250977 0.5 C 48.7617073059082 0.5 50.78039932250977 2.51869010925293 50.78039932250977 5 L 50.78039932250977 50 C 50.78039932250977 52.4813117980957 48.7617073059082 54.5 46.28039932250977 54.5 Z" stroke="none"/>
      <path d="M 4.999996185302734 1 C 2.794387817382812 1 0.9999961853027344 2.794391632080078 0.9999961853027344 5 L 0.9999961853027344 50 C 0.9999961853027344 52.20560836791992 2.794387817382812 54 4.999996185302734 54 L 46.28039932250977 54 C 48.48600769042969 54 50.28039932250977 52.20560836791992 50.28039932250977 50 L 50.28039932250977 5 C 50.28039932250977 2.794391632080078 48.48600769042969 1 46.28039932250977 1 L 4.999996185302734 1 M 4.999996185302734 0 L 46.28039932250977 0 C 49.04181671142578 0 51.28039932250977 2.238571166992188 51.28039932250977 5 L 51.28039932250977 50 C 51.28039932250977 52.76142120361328 49.04181671142578 55 46.28039932250977 55 L 4.999996185302734 55 C 2.238578796386719 55 -3.814697265625e-06 52.76142120361328 -3.814697265625e-06 50 L -3.814697265625e-06 5 C -3.814697265625e-06 2.238571166992188 2.238578796386719 0 4.999996185302734 0 Z" stroke="none" fill="#12263f"/>
    </g>
    <path id="Trazado_232325" data-name="Trazado 232325" d="M5,0H204a5,5,0,0,1,5,5V50a5,5,0,0,1-5,5H5a5,5,0,0,1-5-5V5A5,5,0,0,1,5,0Z" transform="translate(1747 -8795.496)" fill="url(#linear-gradient-4)"/>
    <path id="Trazado_232315" data-name="Trazado 232315" d="M5,0H204a5,5,0,0,1,5,5V50a5,5,0,0,1-5,5H5a5,5,0,0,1-5-5V5A5,5,0,0,1,5,0Z" transform="translate(1747 -8729.496)" fill="url(#linear-gradient-4)"/>
    <path id="Trazado_232316" data-name="Trazado 232316" d="M5,0H204a5,5,0,0,1,5,5V50a5,5,0,0,1-5,5H5a5,5,0,0,1-5-5V5A5,5,0,0,1,5,0Z" transform="translate(1747 -8663.496)" fill="url(#linear-gradient-4)"/>
    <path id="Trazado_232317" data-name="Trazado 232317" d="M5,0H204a5,5,0,0,1,5,5V50a5,5,0,0,1-5,5H5a5,5,0,0,1-5-5V5A5,5,0,0,1,5,0Z" transform="translate(1747 -8597.496)" fill="url(#linear-gradient-4)"/>
    <path id="Trazado_232330" data-name="Trazado 232330" d="M3.359-4.008V0H1.016V-11.375H5.453a5.134,5.134,0,0,1,2.254.469A3.454,3.454,0,0,1,9.2-9.574a3.714,3.714,0,0,1,.523,1.965A3.266,3.266,0,0,1,8.582-4.973a4.767,4.767,0,0,1-3.168.965Zm0-1.9H5.453a2.059,2.059,0,0,0,1.418-.437,1.591,1.591,0,0,0,.488-1.25,1.876,1.876,0,0,0-.492-1.352,1.839,1.839,0,0,0-1.359-.531H3.359ZM15.547-4.164H13.68V0H11.336V-11.375h4.227a4.778,4.778,0,0,1,3.109.9,3.1,3.1,0,0,1,1.094,2.539A3.5,3.5,0,0,1,19.262-6a3.437,3.437,0,0,1-1.527,1.238L20.2-.109V0H17.68Zm-1.867-1.9H15.57a1.936,1.936,0,0,0,1.367-.449,1.606,1.606,0,0,0,.484-1.238,1.719,1.719,0,0,0-.457-1.266,1.9,1.9,0,0,0-1.4-.461H13.68Zm17.211.633A6.867,6.867,0,0,1,30.3-2.484,4.472,4.472,0,0,1,28.6-.531a4.7,4.7,0,0,1-2.535.688,4.732,4.732,0,0,1-2.523-.68A4.515,4.515,0,0,1,21.82-2.465a6.67,6.67,0,0,1-.617-2.9V-5.93a6.831,6.831,0,0,1,.605-2.957,4.508,4.508,0,0,1,1.711-1.961,4.706,4.706,0,0,1,2.527-.684,4.706,4.706,0,0,1,2.527.684,4.508,4.508,0,0,1,1.711,1.961,6.811,6.811,0,0,1,.605,2.949Zm-2.375-.516a4.787,4.787,0,0,0-.641-2.719,2.088,2.088,0,0,0-1.828-.93,2.088,2.088,0,0,0-1.82.918,4.732,4.732,0,0,0-.648,2.691v.555a4.847,4.847,0,0,0,.641,2.7,2.082,2.082,0,0,0,1.844.961,2.064,2.064,0,0,0,1.813-.926,4.819,4.819,0,0,0,.641-2.7ZM36.625-2.82,39.2-11.375h2.609L37.852,0H35.406L31.461-11.375h2.6Zm13.1-2.125h-4.5v3.063h5.281V0H42.883V-11.375h7.609v1.9H45.227v2.711h4.5Zm9,0h-4.5v3.063h5.281V0H51.883V-11.375h7.609v1.9H54.227v2.711h4.5ZM60.883,0V-11.375h3.5a5.315,5.315,0,0,1,2.684.676,4.712,4.712,0,0,1,1.848,1.922,5.928,5.928,0,0,1,.664,2.832v.523a5.945,5.945,0,0,1-.652,2.82,4.672,4.672,0,0,1-1.84,1.914A5.355,5.355,0,0,1,64.406,0Zm2.344-9.477v7.594h1.133a2.545,2.545,0,0,0,2.1-.9,4.06,4.06,0,0,0,.742-2.57v-.6a4.124,4.124,0,0,0-.719-2.629,2.537,2.537,0,0,0-2.1-.895Zm17.4,4.047a6.867,6.867,0,0,1-.594,2.945,4.472,4.472,0,0,1-1.7,1.953A4.7,4.7,0,0,1,75.8.156a4.732,4.732,0,0,1-2.523-.68,4.515,4.515,0,0,1-1.719-1.941,6.67,6.67,0,0,1-.617-2.9V-5.93a6.831,6.831,0,0,1,.605-2.957,4.508,4.508,0,0,1,1.711-1.961,4.706,4.706,0,0,1,2.527-.684,4.706,4.706,0,0,1,2.527.684A4.508,4.508,0,0,1,80.02-8.887a6.811,6.811,0,0,1,.605,2.949ZM78.25-5.945a4.787,4.787,0,0,0-.641-2.719,2.088,2.088,0,0,0-1.828-.93,2.088,2.088,0,0,0-1.82.918,4.732,4.732,0,0,0-.648,2.691v.555a4.847,4.847,0,0,0,.641,2.7,2.082,2.082,0,0,0,1.844.961,2.064,2.064,0,0,0,1.813-.926,4.819,4.819,0,0,0,.641-2.7Zm8.289,1.781H84.672V0H82.328V-11.375h4.227a4.778,4.778,0,0,1,3.109.9,3.1,3.1,0,0,1,1.094,2.539A3.5,3.5,0,0,1,90.254-6a3.437,3.437,0,0,1-1.527,1.238L91.188-.109V0H88.672Zm-1.867-1.9h1.891a1.936,1.936,0,0,0,1.367-.449,1.606,1.606,0,0,0,.484-1.238,1.719,1.719,0,0,0-.457-1.266,1.9,1.9,0,0,0-1.4-.461H84.672ZM99.383-4.945h-4.5v3.063h5.281V0H92.539V-11.375h7.609v1.9H94.883v2.711h4.5Zm8.055,1.961A1.2,1.2,0,0,0,106.969-4a6.148,6.148,0,0,0-1.687-.75,11.963,11.963,0,0,1-1.93-.777,3.153,3.153,0,0,1-1.937-2.82,2.747,2.747,0,0,1,.52-1.645,3.389,3.389,0,0,1,1.492-1.129,5.616,5.616,0,0,1,2.184-.406,5.112,5.112,0,0,1,2.172.441,3.458,3.458,0,0,1,1.48,1.246,3.261,3.261,0,0,1,.527,1.828h-2.344a1.534,1.534,0,0,0-.492-1.215,2.023,2.023,0,0,0-1.383-.434,2.162,2.162,0,0,0-1.336.363,1.146,1.146,0,0,0-.477.957,1.1,1.1,0,0,0,.559.93,6.311,6.311,0,0,0,1.645.7,7.106,7.106,0,0,1,2.914,1.492A2.972,2.972,0,0,1,109.789-3a2.737,2.737,0,0,1-1.117,2.316,4.891,4.891,0,0,1-3.008.84,5.808,5.808,0,0,1-2.391-.48,3.783,3.783,0,0,1-1.645-1.316,3.371,3.371,0,0,1-.566-1.937h2.352q0,1.883,2.25,1.883a2.189,2.189,0,0,0,1.3-.34A1.106,1.106,0,0,0,107.438-2.984Z" transform="translate(1813 -8828.496)" fill="#12263f"/>
    <path id="Trazado_232327" data-name="Trazado 232327" d="M6.914-2.984A1.2,1.2,0,0,0,6.445-4a6.148,6.148,0,0,0-1.687-.75,11.963,11.963,0,0,1-1.93-.777A3.153,3.153,0,0,1,.891-8.352,2.747,2.747,0,0,1,1.41-10,3.389,3.389,0,0,1,2.9-11.125a5.616,5.616,0,0,1,2.184-.406,5.112,5.112,0,0,1,2.172.441,3.458,3.458,0,0,1,1.48,1.246,3.261,3.261,0,0,1,.527,1.828H6.922A1.534,1.534,0,0,0,6.43-9.23a2.023,2.023,0,0,0-1.383-.434A2.162,2.162,0,0,0,3.711-9.3a1.146,1.146,0,0,0-.477.957,1.1,1.1,0,0,0,.559.93,6.311,6.311,0,0,0,1.645.7A7.106,7.106,0,0,1,8.352-5.219,2.972,2.972,0,0,1,9.266-3,2.737,2.737,0,0,1,8.148-.684a4.891,4.891,0,0,1-3.008.84A5.808,5.808,0,0,1,2.75-.324,3.783,3.783,0,0,1,1.105-1.641,3.371,3.371,0,0,1,.539-3.578H2.891q0,1.883,2.25,1.883a2.189,2.189,0,0,0,1.3-.34A1.106,1.106,0,0,0,6.914-2.984ZM20.2-5.43A6.867,6.867,0,0,1,19.6-2.484,4.472,4.472,0,0,1,17.9-.531a4.7,4.7,0,0,1-2.535.688,4.732,4.732,0,0,1-2.523-.68,4.515,4.515,0,0,1-1.719-1.941,6.67,6.67,0,0,1-.617-2.9V-5.93a6.831,6.831,0,0,1,.605-2.957,4.508,4.508,0,0,1,1.711-1.961,4.706,4.706,0,0,1,2.527-.684,4.706,4.706,0,0,1,2.527.684A4.508,4.508,0,0,1,19.59-8.887,6.811,6.811,0,0,1,20.2-5.937ZM17.82-5.945a4.787,4.787,0,0,0-.641-2.719,2.088,2.088,0,0,0-1.828-.93,2.088,2.088,0,0,0-1.82.918,4.732,4.732,0,0,0-.648,2.691v.555a4.847,4.847,0,0,0,.641,2.7,2.082,2.082,0,0,0,1.844.961,2.064,2.064,0,0,0,1.813-.926,4.819,4.819,0,0,0,.641-2.7ZM30.828-3.789A4.025,4.025,0,0,1,29.473-.9,4.76,4.76,0,0,1,26.25.156a4.28,4.28,0,0,1-3.441-1.473,6.038,6.038,0,0,1-1.254-4.043v-.7a6.819,6.819,0,0,1,.578-2.891,4.332,4.332,0,0,1,1.652-1.918,4.629,4.629,0,0,1,2.5-.668,4.637,4.637,0,0,1,3.172,1.055,4.326,4.326,0,0,1,1.391,2.961H28.5a2.376,2.376,0,0,0-.613-1.6,2.271,2.271,0,0,0-1.605-.5,1.991,1.991,0,0,0-1.754.84,4.707,4.707,0,0,0-.6,2.605V-5.3a5.038,5.038,0,0,0,.559,2.7,1.954,1.954,0,0,0,1.762.852,2.314,2.314,0,0,0,1.621-.5,2.241,2.241,0,0,0,.613-1.535ZM34.859,0H32.516V-11.375h2.344Zm9.016-4.945h-4.5v3.063h5.281V0H37.031V-11.375h7.609v1.9H39.375v2.711h4.5ZM46.031,0V-11.375h3.5a5.315,5.315,0,0,1,2.684.676,4.712,4.712,0,0,1,1.848,1.922,5.928,5.928,0,0,1,.664,2.832v.523a5.945,5.945,0,0,1-.652,2.82,4.672,4.672,0,0,1-1.84,1.914A5.355,5.355,0,0,1,49.555,0Zm2.344-9.477v7.594h1.133a2.545,2.545,0,0,0,2.1-.9,4.06,4.06,0,0,0,.742-2.57v-.6a4.124,4.124,0,0,0-.719-2.629,2.537,2.537,0,0,0-2.1-.895ZM62.688-2.344H58.578L57.8,0H55.3l4.234-11.375h2.172L65.969,0H63.477Zm-3.477-1.9h2.844L60.625-8.5ZM67.031,0V-11.375h3.5a5.315,5.315,0,0,1,2.684.676,4.712,4.712,0,0,1,1.848,1.922,5.928,5.928,0,0,1,.664,2.832v.523a5.945,5.945,0,0,1-.652,2.82,4.672,4.672,0,0,1-1.84,1.914A5.355,5.355,0,0,1,70.555,0Zm2.344-9.477v7.594h1.133a2.545,2.545,0,0,0,2.1-.9,4.06,4.06,0,0,0,.742-2.57v-.6a4.124,4.124,0,0,0-.719-2.629,2.537,2.537,0,0,0-2.1-.895Z" transform="translate(1830 -8762.496)" fill="#12263f"/>
    <path id="Trazado_232318" data-name="Trazado 232318" d="M10.016-1.437A4.068,4.068,0,0,1,8.227-.262,7.492,7.492,0,0,1,5.664.156a5.076,5.076,0,0,1-2.59-.645A4.3,4.3,0,0,1,1.355-2.359,6.585,6.585,0,0,1,.734-5.242v-.773a6.994,6.994,0,0,1,.574-2.949,4.248,4.248,0,0,1,1.656-1.906,4.771,4.771,0,0,1,2.535-.66,4.751,4.751,0,0,1,3.164.965,4.123,4.123,0,0,1,1.352,2.809H7.734a2.268,2.268,0,0,0-.691-1.43A2.208,2.208,0,0,0,5.57-9.641a2.078,2.078,0,0,0-1.82.9A4.724,4.724,0,0,0,3.117-6.07v.727a4.5,4.5,0,0,0,.68,2.7,2.327,2.327,0,0,0,1.992.914,2.6,2.6,0,0,0,1.883-.562V-4.25H5.539V-5.977h4.477ZM21.258-5.43a6.867,6.867,0,0,1-.594,2.945,4.472,4.472,0,0,1-1.7,1.953A4.7,4.7,0,0,1,16.43.156a4.732,4.732,0,0,1-2.523-.68,4.515,4.515,0,0,1-1.719-1.941,6.67,6.67,0,0,1-.617-2.9V-5.93a6.831,6.831,0,0,1,.605-2.957,4.508,4.508,0,0,1,1.711-1.961,4.706,4.706,0,0,1,2.527-.684,4.706,4.706,0,0,1,2.527.684,4.508,4.508,0,0,1,1.711,1.961,6.811,6.811,0,0,1,.605,2.949Zm-2.375-.516a4.787,4.787,0,0,0-.641-2.719,2.088,2.088,0,0,0-1.828-.93,2.088,2.088,0,0,0-1.82.918,4.732,4.732,0,0,0-.648,2.691v.555a4.847,4.847,0,0,0,.641,2.7,2.082,2.082,0,0,0,1.844.961,2.064,2.064,0,0,0,1.813-.926,4.819,4.819,0,0,0,.641-2.7ZM22.961,0V-11.375h3.984a5.232,5.232,0,0,1,3.141.793,2.712,2.712,0,0,1,1.07,2.324,2.57,2.57,0,0,1-.43,1.473,2.482,2.482,0,0,1-1.2.934,2.4,2.4,0,0,1,1.379.883,2.61,2.61,0,0,1,.5,1.625A3,3,0,0,1,30.367-.859,4.713,4.713,0,0,1,27.383,0ZM25.3-4.953v3.07h2.008a1.938,1.938,0,0,0,1.293-.395,1.353,1.353,0,0,0,.465-1.09,1.428,1.428,0,0,0-1.617-1.586Zm0-1.656h1.734q1.773-.031,1.773-1.414a1.307,1.307,0,0,0-.449-1.113,2.363,2.363,0,0,0-1.418-.34H25.3ZM35.664,0H33.32V-11.375h2.344ZM44.68-4.945h-4.5v3.063h5.281V0H37.836V-11.375h7.609v1.9H40.18v2.711h4.5Zm6.367.781H49.18V0H46.836V-11.375h4.227a4.778,4.778,0,0,1,3.109.9,3.1,3.1,0,0,1,1.094,2.539A3.5,3.5,0,0,1,54.762-6a3.437,3.437,0,0,1-1.527,1.238L55.7-.109V0H53.18Zm-1.867-1.9H51.07a1.936,1.936,0,0,0,1.367-.449,1.606,1.606,0,0,0,.484-1.238,1.719,1.719,0,0,0-.457-1.266,1.9,1.9,0,0,0-1.4-.461H49.18ZM66.3,0H63.953L59.391-7.484V0H57.047V-11.375h2.344l4.57,7.5v-7.5H66.3ZM77.688-5.43a6.867,6.867,0,0,1-.594,2.945,4.472,4.472,0,0,1-1.7,1.953,4.7,4.7,0,0,1-2.535.688,4.732,4.732,0,0,1-2.523-.68,4.515,4.515,0,0,1-1.719-1.941A6.67,6.67,0,0,1,68-5.367V-5.93a6.831,6.831,0,0,1,.605-2.957,4.508,4.508,0,0,1,1.711-1.961,4.706,4.706,0,0,1,2.527-.684,4.706,4.706,0,0,1,2.527.684,4.508,4.508,0,0,1,1.711,1.961,6.811,6.811,0,0,1,.605,2.949Zm-2.375-.516a4.787,4.787,0,0,0-.641-2.719,2.088,2.088,0,0,0-1.828-.93,2.088,2.088,0,0,0-1.82.918,4.732,4.732,0,0,0-.648,2.691v.555a4.847,4.847,0,0,0,.641,2.7,2.082,2.082,0,0,0,1.844.961,2.064,2.064,0,0,0,1.813-.926,4.819,4.819,0,0,0,.641-2.7Z" transform="translate(1829 -8696.496)" fill="#12263f"/>
    <path id="Trazado_232319" data-name="Trazado 232319" d="M7.438-2.344H3.328L2.547,0H.055L4.289-11.375H6.461L10.719,0H8.227Zm-3.477-1.9H6.8L5.375-8.5Zm16.586.453A4.025,4.025,0,0,1,19.191-.9,4.76,4.76,0,0,1,15.969.156a4.28,4.28,0,0,1-3.441-1.473,6.038,6.038,0,0,1-1.254-4.043v-.7a6.819,6.819,0,0,1,.578-2.891A4.332,4.332,0,0,1,13.5-10.863a4.629,4.629,0,0,1,2.5-.668,4.637,4.637,0,0,1,3.172,1.055,4.326,4.326,0,0,1,1.391,2.961H18.219a2.376,2.376,0,0,0-.613-1.6A2.271,2.271,0,0,0,16-9.609a1.991,1.991,0,0,0-1.754.84,4.707,4.707,0,0,0-.6,2.605V-5.3a5.038,5.038,0,0,0,.559,2.7,1.954,1.954,0,0,0,1.762.852,2.314,2.314,0,0,0,1.621-.5A2.241,2.241,0,0,0,18.2-3.789Zm5.75-.375H24.43V0H22.086V-11.375h4.227a4.778,4.778,0,0,1,3.109.9,3.1,3.1,0,0,1,1.094,2.539A3.5,3.5,0,0,1,30.012-6a3.437,3.437,0,0,1-1.527,1.238L30.945-.109V0H28.43Zm-1.867-1.9H26.32a1.936,1.936,0,0,0,1.367-.449,1.606,1.606,0,0,0,.484-1.238,1.719,1.719,0,0,0-.457-1.266,1.9,1.9,0,0,0-1.4-.461H24.43ZM39.141-4.945h-4.5v3.063h5.281V0H32.3V-11.375h7.609v1.9H34.641v2.711h4.5Zm9,0h-4.5v3.063h5.281V0H41.3V-11.375h7.609v1.9H43.641v2.711h4.5ZM50.3,0V-11.375h3.5a5.315,5.315,0,0,1,2.684.676,4.712,4.712,0,0,1,1.848,1.922,5.928,5.928,0,0,1,.664,2.832v.523A5.945,5.945,0,0,1,58.34-2.6,4.672,4.672,0,0,1,56.5-.687,5.355,5.355,0,0,1,53.82,0Zm2.344-9.477v7.594h1.133a2.545,2.545,0,0,0,2.1-.9,4.06,4.06,0,0,0,.742-2.57v-.6A4.124,4.124,0,0,0,55.9-8.582a2.537,2.537,0,0,0-2.1-.895Zm17.4,4.047a6.867,6.867,0,0,1-.594,2.945,4.472,4.472,0,0,1-1.7,1.953,4.7,4.7,0,0,1-2.535.688,4.732,4.732,0,0,1-2.523-.68,4.515,4.515,0,0,1-1.719-1.941,6.67,6.67,0,0,1-.617-2.9V-5.93a6.831,6.831,0,0,1,.605-2.957,4.508,4.508,0,0,1,1.711-1.961,4.706,4.706,0,0,1,2.527-.684,4.706,4.706,0,0,1,2.527.684,4.508,4.508,0,0,1,1.711,1.961,6.811,6.811,0,0,1,.605,2.949Zm-2.375-.516a4.787,4.787,0,0,0-.641-2.719,2.088,2.088,0,0,0-1.828-.93,2.088,2.088,0,0,0-1.82.918,4.732,4.732,0,0,0-.648,2.691v.555a4.847,4.847,0,0,0,.641,2.7,2.082,2.082,0,0,0,1.844.961,2.064,2.064,0,0,0,1.813-.926,4.819,4.819,0,0,0,.641-2.7Zm8.289,1.781H74.086V0H71.742V-11.375h4.227a4.778,4.778,0,0,1,3.109.9,3.1,3.1,0,0,1,1.094,2.539A3.5,3.5,0,0,1,79.668-6a3.437,3.437,0,0,1-1.527,1.238L80.6-.109V0H78.086Zm-1.867-1.9h1.891a1.936,1.936,0,0,0,1.367-.449,1.606,1.606,0,0,0,.484-1.238,1.719,1.719,0,0,0-.457-1.266,1.9,1.9,0,0,0-1.4-.461H74.086ZM88.8-4.945H84.3v3.063h5.281V0H81.953V-11.375h7.609v1.9H84.3v2.711h4.5Zm8.055,1.961A1.2,1.2,0,0,0,96.383-4a6.148,6.148,0,0,0-1.687-.75,11.963,11.963,0,0,1-1.93-.777,3.153,3.153,0,0,1-1.937-2.82A2.747,2.747,0,0,1,91.348-10a3.389,3.389,0,0,1,1.492-1.129,5.616,5.616,0,0,1,2.184-.406,5.112,5.112,0,0,1,2.172.441,3.458,3.458,0,0,1,1.48,1.246A3.261,3.261,0,0,1,99.2-8.016H96.859a1.534,1.534,0,0,0-.492-1.215,2.023,2.023,0,0,0-1.383-.434,2.162,2.162,0,0,0-1.336.363,1.146,1.146,0,0,0-.477.957,1.1,1.1,0,0,0,.559.93,6.311,6.311,0,0,0,1.645.7,7.106,7.106,0,0,1,2.914,1.492A2.972,2.972,0,0,1,99.2-3,2.737,2.737,0,0,1,98.086-.684a4.891,4.891,0,0,1-3.008.84,5.808,5.808,0,0,1-2.391-.48,3.783,3.783,0,0,1-1.645-1.316,3.371,3.371,0,0,1-.566-1.937h2.352q0,1.883,2.25,1.883a2.189,2.189,0,0,0,1.3-.34A1.106,1.106,0,0,0,96.852-2.984Z" transform="translate(1816 -8630.496)" fill="#12263f"/>
    <path id="Trazado_232320" data-name="Trazado 232320" d="M9.945-3.789A4.025,4.025,0,0,1,8.59-.9,4.76,4.76,0,0,1,5.367.156,4.28,4.28,0,0,1,1.926-1.316,6.038,6.038,0,0,1,.672-5.359v-.7A6.819,6.819,0,0,1,1.25-8.945,4.332,4.332,0,0,1,2.9-10.863a4.629,4.629,0,0,1,2.5-.668A4.637,4.637,0,0,1,8.57-10.477,4.326,4.326,0,0,1,9.961-7.516H7.617A2.376,2.376,0,0,0,7-9.113a2.271,2.271,0,0,0-1.605-.5,1.991,1.991,0,0,0-1.754.84,4.707,4.707,0,0,0-.6,2.605V-5.3a5.038,5.038,0,0,0,.559,2.7,1.954,1.954,0,0,0,1.762.852,2.314,2.314,0,0,0,1.621-.5A2.241,2.241,0,0,0,7.6-3.789Zm3.883,1.906H18.8V0h-7.32V-11.375h2.344ZM22.641,0H20.3V-11.375h2.344Zm9.016-4.945h-4.5v3.063h5.281V0H24.813V-11.375h7.609v1.9H27.156v2.711h4.5ZM43.063,0H40.719L36.156-7.484V0H33.813V-11.375h2.344l4.57,7.5v-7.5h2.336ZM53.445-9.477H49.961V0H47.617V-9.477H44.18v-1.9h9.266Zm8.18,4.531h-4.5v3.063h5.281V0H54.781V-11.375h7.609v1.9H57.125v2.711h4.5ZM69.68-2.984A1.2,1.2,0,0,0,69.211-4a6.148,6.148,0,0,0-1.687-.75,11.963,11.963,0,0,1-1.93-.777,3.153,3.153,0,0,1-1.937-2.82A2.747,2.747,0,0,1,64.176-10a3.389,3.389,0,0,1,1.492-1.129,5.616,5.616,0,0,1,2.184-.406,5.112,5.112,0,0,1,2.172.441A3.458,3.458,0,0,1,71.5-9.844a3.261,3.261,0,0,1,.527,1.828H69.688A1.534,1.534,0,0,0,69.2-9.23a2.023,2.023,0,0,0-1.383-.434,2.162,2.162,0,0,0-1.336.363A1.146,1.146,0,0,0,66-8.344a1.1,1.1,0,0,0,.559.93,6.311,6.311,0,0,0,1.645.7,7.106,7.106,0,0,1,2.914,1.492A2.972,2.972,0,0,1,72.031-3,2.737,2.737,0,0,1,70.914-.684a4.891,4.891,0,0,1-3.008.84,5.808,5.808,0,0,1-2.391-.48,3.783,3.783,0,0,1-1.645-1.316A3.371,3.371,0,0,1,63.3-3.578h2.352q0,1.883,2.25,1.883a2.189,2.189,0,0,0,1.3-.34A1.106,1.106,0,0,0,69.68-2.984Z" transform="translate(1832 -8564.496)" fill="#12263f"/>
    <g id="Grupo_180644" data-name="Grupo 180644" transform="translate(836.99 -10569.996)">
      <rect id="Rectángulo_58131" data-name="Rectángulo 58131" width="170" height="74" transform="translate(657.29 1823.5)" fill="#373f51"/>
      <path id="Polígono_105" data-name="Polígono 105" d="M56.5,0,113,55H0Z" transform="translate(879.29 1802.5) rotate(90)" fill="#373f51"/>
      <path id="Polígono_106" data-name="Polígono 106" d="M56.5,0,113,55H0Z" transform="translate(606.29 1915.5) rotate(-90)" fill="#373f51"/>
    </g>
    <g id="Grupo_180645" data-name="Grupo 180645" transform="translate(1547.224 -8740.659)">
      <g id="Grupo_180584" data-name="Grupo 180584" clip-path="url(#clip-path)">
        <path id="Trazado_232062" data-name="Trazado 232062" d="M62.112,57.709v4.381H.648c-.208-.358-.562-.7-.6-1.078a26.208,26.208,0,0,1-.023-2.876A.99.99,0,0,1,1.1,57.086c.3-.012.6,0,.9,0V25.036c-.256,0-.481,0-.705,0C.379,25.027.03,24.688.023,23.8c-.006-.772,0-1.544,0-2.316,0-1.161.286-1.452,1.426-1.452H13.994V13.018c-.986,0-1.923.011-2.861,0a.986.986,0,0,1-1.09-1.027q-.033-1.47,0-2.941a.983.983,0,0,1,1.086-1.03c.959-.015,1.919,0,2.879,0h3.038v-.74c0-2,0-4.005,0-6.008C17.05.356,17.394,0,18.286,0Q31.053,0,43.82,0c.927,0,1.265.349,1.267,1.3q0,3,0,6.008v.7h.7c1.69,0,3.38,0,5.069,0,.894,0,1.239.354,1.245,1.257.005.793,0,1.585,0,2.378,0,1.058-.316,1.368-1.385,1.37-.866,0-1.732,0-2.586,0v7.01h.707c3.943,0,7.885.011,11.828-.011a1.567,1.567,0,0,1,1.451.637v3.756c-.461.784-1.279.592-1.97.645V57.074c.741.006,1.505-.108,1.97.635m-16.069-.656v-44H16.083V57.038h6.972v-.728q0-6.916,0-13.832c0-1.116.3-1.417,1.4-1.417H37.66c1.115,0,1.419.3,1.419,1.4q0,6.947,0,13.894v.7ZM19.079,7.969H43.034V2.035H19.079ZM48.129,57.04h9.93V25.05h-9.93Zm-44.056.014h9.936V25.063H4.073ZM37.033,43.112H32.1V57.054h4.933ZM25.086,57.038h4.931V43.1H25.086Zm35,2.089H2.051v.928h58.03ZM50.067,10.056h-38v.928h38ZM14.016,22.075H2.053V23H14.016Zm34.1.916H60.081v-.926H48.118Z" transform="translate(0 0)" fill="#fff"/>
        <path id="Trazado_232063" data-name="Trazado 232063" d="M295.568,117.761c0-1.585,0-3.171,0-4.757,0-.894.353-1.239,1.259-1.241q2.754-.007,5.507,0c.893,0,1.241.355,1.242,1.259q.005,4.757,0,9.513c0,.892-.357,1.24-1.26,1.243q-2.754.007-5.508,0c-.892,0-1.239-.356-1.241-1.26,0-1.586,0-3.171,0-4.757m5.967-3.948H297.6v7.933h3.933Z" transform="translate(-258.492 -97.741)" fill="#fff"/>
        <path id="Trazado_232064" data-name="Trazado 232064" d="M135.891,229.483c0-1.565,0-3.129,0-4.694,0-.9.35-1.248,1.249-1.251q2.754-.007,5.507,0c.9,0,1.251.352,1.252,1.25q.006,4.756,0,9.513c0,.9-.354,1.25-1.251,1.252q-2.754.007-5.507,0c-.9,0-1.248-.353-1.251-1.251-.005-1.606,0-3.213,0-4.819m2.036,4.029h3.929v-7.944h-3.929Z" transform="translate(-118.844 -195.495)" fill="#fff"/>
        <path id="Trazado_232065" data-name="Trazado 232065" d="M223.741,229.557c0,1.565,0,3.129,0,4.694,0,.948-.341,1.3-1.264,1.3q-2.754.007-5.507,0c-.89,0-1.236-.357-1.237-1.264q-.005-4.757,0-9.513c0-.891.355-1.235,1.262-1.238q2.754-.006,5.507,0c.891,0,1.236.356,1.239,1.263,0,1.586,0,3.171,0,4.757m-5.966,3.945h3.932v-7.933h-3.932Z" transform="translate(-188.668 -195.495)" fill="#fff"/>
        <path id="Trazado_232066" data-name="Trazado 232066" d="M295.569,229.551c0-1.585,0-3.171,0-4.756,0-.906.347-1.257,1.241-1.259q2.785-.008,5.57,0c.823,0,1.195.365,1.2,1.178q.009,4.819,0,9.638c0,.823-.367,1.193-1.179,1.2q-2.816.012-5.633,0c-.842,0-1.193-.372-1.2-1.242-.005-1.585,0-3.171,0-4.757m5.964-3.963H297.6v7.933h3.928Z" transform="translate(-258.493 -195.492)" fill="#fff"/>
        <path id="Trazado_232067" data-name="Trazado 232067" d="M223.74,117.833c0,1.565,0,3.129,0,4.694,0,.9-.354,1.248-1.252,1.251q-2.754.007-5.507,0c-.9,0-1.248-.353-1.249-1.252q-.006-4.757,0-9.513c0-.9.351-1.247,1.251-1.249q2.754-.007,5.507,0c.9,0,1.248.352,1.25,1.251.005,1.606,0,3.213,0,4.819m-2.015-4.016h-3.951v7.911h3.951Z" transform="translate(-188.668 -97.741)" fill="#fff"/>
        <path id="Trazado_232068" data-name="Trazado 232068" d="M135.891,117.715c0-1.565,0-3.129,0-4.694,0-.9.348-1.255,1.243-1.257q2.754-.008,5.508,0c.9,0,1.257.349,1.258,1.243q.006,4.756,0,9.513c0,.9-.351,1.256-1.244,1.258q-2.754.008-5.507,0c-.9,0-1.254-.35-1.257-1.244-.005-1.606,0-3.213,0-4.819m2.046,4.012h3.931v-7.933h-3.931Z" transform="translate(-118.844 -97.741)" fill="#fff"/>
        <path id="Trazado_232069" data-name="Trazado 232069" d="M391.375,213.515c0-1.565,0-3.129,0-4.694,0-.9.35-1.248,1.25-1.251q2.754-.007,5.507,0c.9,0,1.25.352,1.252,1.25q.006,4.757,0,9.513c0,.9-.354,1.249-1.251,1.252q-2.754.007-5.508,0c-.9,0-1.248-.353-1.25-1.251-.005-1.606,0-3.213,0-4.819m5.966-3.893H393.41v7.933h3.931Z" transform="translate(-342.282 -181.531)" fill="#fff"/>
        <path id="Trazado_232070" data-name="Trazado 232070" d="M399.386,325.352c0,1.586,0,3.171,0,4.756,0,.9-.354,1.248-1.252,1.251q-2.754.007-5.507,0c-.9,0-1.248-.353-1.249-1.252q-.006-4.757,0-9.513c0-.9.351-1.247,1.251-1.249q2.754-.007,5.508,0c.9,0,1.248.352,1.251,1.251.005,1.586,0,3.171,0,4.757M397.34,321.4h-3.93v7.933h3.93Z" transform="translate(-342.282 -279.285)" fill="#fff"/>
        <path id="Trazado_232071" data-name="Trazado 232071" d="M48.09,213.586c0,1.585,0,3.171,0,4.756,0,.863-.359,1.228-1.208,1.231q-2.816.01-5.633,0a1.016,1.016,0,0,1-1.166-1.145q-.011-4.85,0-9.7a1.015,1.015,0,0,1,1.143-1.166q2.847-.014,5.7,0c.807,0,1.165.377,1.168,1.206.007,1.606,0,3.213,0,4.819m-5.964,3.936h3.928v-7.933H42.125Z" transform="translate(-35.049 -181.52)" fill="#fff"/>
        <path id="Trazado_232072" data-name="Trazado 232072" d="M48.1,325.393c0,1.565,0,3.129,0,4.694,0,.934-.347,1.274-1.289,1.276q-2.722.005-5.445,0c-.934,0-1.274-.346-1.275-1.29q0-4.725,0-9.45c0-.936.343-1.273,1.288-1.275q2.723-.005,5.445,0c.936,0,1.274.344,1.276,1.288,0,1.586,0,3.171,0,4.756m-5.965,3.918h3.93v-7.933h-3.93Z" transform="translate(-35.056 -279.288)" fill="#fff"/>
      </g>
    </g>
    <g id="Grupo_180649" data-name="Grupo 180649" transform="translate(1749.28 -8852.293)">
      <g id="Grupo_180586" data-name="Grupo 180586" clip-path="url(#clip-path-2)">
        <path id="Trazado_232073" data-name="Trazado 232073" d="M13.577,151.937v.5q0,5.037,0,10.075c0,.736-.18.914-.919.914H4.1c-.69,0-.867-.179-.867-.877q0-5.037,0-10.075v-.514c-.154-.009-.29-.024-.426-.025-.558,0-1.115.006-1.673,0a.619.619,0,0,1-.7-.663c-.151-3.315-.323-6.63-.437-9.947a5.3,5.3,0,0,1,5.2-5.437c2.061-.032,4.123-.028,6.185,0a5.273,5.273,0,0,1,5.223,5.371c-.092,3.342-.282,6.682-.434,10.022a.613.613,0,0,1-.7.655c-.619.008-1.238,0-1.9,0M12.329,162.16v-.48q0-6.945,0-13.891c0-.648-.01-1.3.011-1.944a.618.618,0,0,1,1.236,0c.01.1,0,.207,0,.311q0,2.043,0,4.086c0,.137,0,.275,0,.416h1.361a1.349,1.349,0,0,0,.034-.175c.136-3.1.307-6.19.394-9.287a4.032,4.032,0,0,0-3.979-4.063q-3.074-.036-6.148,0a4.09,4.09,0,0,0-3.993,4.253q.192,4.314.38,8.629c.01.215.034.43.052.637H3.234c0-.785,0-1.535,0-2.286,0-.83-.005-1.66,0-2.49a.615.615,0,0,1,.611-.663.634.634,0,0,1,.63.654c.006.1,0,.207,0,.311q0,7.743,0,15.486v.5H7.831c-.02-.242-.056-.47-.057-.7q-.006-4.066,0-8.132a1.689,1.689,0,0,1,.03-.425.615.615,0,0,1,1.2.061,2.4,2.4,0,0,1,.012.388q0,3.988,0,7.977c0,.269-.024.537-.037.821Z" transform="translate(3.999 -125.293)" fill="#12263f"/>
        <path id="Trazado_232074" data-name="Trazado 232074" d="M286.765,142.39c0,.313,0,.582,0,.85q.012,8.752.024,17.5c0,.695-.184.878-.873.878H267.866c-.748,0-.973-.268-.858-1.014a2.786,2.786,0,0,1,2.843-2.413q6.321-.005,12.642,0h.569v-.506q0-8.966,0-17.933c0-.8.15-.947.956-.947,1.193,0,2.387.037,3.578-.01a1.841,1.841,0,0,1,2.019,1.791,1.816,1.816,0,0,1-2,1.8h-.85m-18.4,17.962H285.52c.009-.135.023-.248.023-.361q0-4.63-.011-9.259c-.005-2.9-.016-5.81-.018-8.714,0-.706.176-.87.879-.872.441,0,.882,0,1.323,0,.408-.006.659-.229.649-.56s-.248-.521-.641-.525c-.506-.005-1.011,0-1.517,0h-1.9v.542q0,8.948,0,17.9c0,.79-.159.946-.961.946h-13.5a1.581,1.581,0,0,0-1.485.912" transform="translate(-246.202 -127.995)" fill="#12263f"/>
        <path id="Trazado_232075" data-name="Trazado 232075" d="M293.251,229.929h-5.831c-.812,0-.944-.132-.946-.943q0-1.865-.008-3.73c0-.639.2-.834.839-.835h11.935c.638,0,.846.206.847.834q0,1.885,0,3.771c0,.725-.175.9-.885.9h-5.948m5.565-4.234H287.742v2.97h11.074Z" transform="translate(-264.172 -206.956)" fill="#12263f"/>
        <path id="Trazado_232076" data-name="Trazado 232076" d="M293.236,313.964h-5.948c-.651,0-.839-.184-.84-.824q0-1.924,0-3.848c0-.642.192-.833.838-.833q5.967,0,11.934,0c.644,0,.845.2.846.829q0,1.924,0,3.849c0,.633-.2.827-.844.828h-5.987m-5.523-1.274h11.078v-2.959H287.713Z" transform="translate(-264.155 -284.452)" fill="#12263f"/>
        <path id="Trazado_232077" data-name="Trazado 232077" d="M58.421,8.2a4.1,4.1,0,1,1,4.114-4.088A4.092,4.092,0,0,1,58.421,8.2m-.016-1.25A2.854,2.854,0,1,0,55.58,4.094a2.851,2.851,0,0,0,2.826,2.861" transform="translate(-46.104 0)" fill="#12263f"/>
        <path id="Trazado_232078" data-name="Trazado 232078" d="M293.722,438.819a2.493,2.493,0,1,1-2.514,2.481,2.5,2.5,0,0,1,2.514-2.481m-.01,1.249a1.229,1.229,0,0,0-1.25,1.213,1.253,1.253,0,0,0,1.232,1.28,1.272,1.272,0,0,0,1.257-1.224,1.244,1.244,0,0,0-1.239-1.269" transform="translate(-268.546 -404.668)" fill="#12263f"/>
        <path id="Trazado_232079" data-name="Trazado 232079" d="M439.922,441.281a2.494,2.494,0,1,1-2.522-2.466,2.492,2.492,0,0,1,2.522,2.466m-1.249.036a1.231,1.231,0,0,0-1.248-1.255,1.251,1.251,0,0,0-1.241,1.232,1.268,1.268,0,0,0,1.217,1.262,1.244,1.244,0,0,0,1.271-1.239" transform="translate(-401.084 -404.665)" fill="#12263f"/>
      </g>
    </g>
    <g id="Trazado_232326" data-name="Trazado 232326" transform="translate(1747 -8795.496)" fill="#fff">
      <path d="M 46.28039932250977 54.5 L 4.999997615814209 54.5 C 2.518687725067139 54.5 0.4999977648258209 52.4813117980957 0.4999977648258209 50 L 0.4999977648258209 5 C 0.4999977648258209 2.51869010925293 2.518687725067139 0.5 4.999997615814209 0.5 L 46.28039932250977 0.5 C 48.7617073059082 0.5 50.78039932250977 2.51869010925293 50.78039932250977 5 L 50.78039932250977 50 C 50.78039932250977 52.4813117980957 48.7617073059082 54.5 46.28039932250977 54.5 Z" stroke="none"/>
      <path d="M 4.999996185302734 1 C 2.794387817382812 1 0.9999961853027344 2.794391632080078 0.9999961853027344 5 L 0.9999961853027344 50 C 0.9999961853027344 52.20560836791992 2.794387817382812 54 4.999996185302734 54 L 46.28039932250977 54 C 48.48600769042969 54 50.28039932250977 52.20560836791992 50.28039932250977 50 L 50.28039932250977 5 C 50.28039932250977 2.794391632080078 48.48600769042969 1 46.28039932250977 1 L 4.999996185302734 1 M 4.999996185302734 0 L 46.28039932250977 0 C 49.04181671142578 0 51.28039932250977 2.238571166992188 51.28039932250977 5 L 51.28039932250977 50 C 51.28039932250977 52.76142120361328 49.04181671142578 55 46.28039932250977 55 L 4.999996185302734 55 C 2.238578796386719 55 -3.814697265625e-06 52.76142120361328 -3.814697265625e-06 50 L -3.814697265625e-06 5 C -3.814697265625e-06 2.238571166992188 2.238578796386719 0 4.999996185302734 0 Z" stroke="none" fill="#12263f"/>
    </g>
    <g id="Trazado_232321" data-name="Trazado 232321" transform="translate(1747 -8729.496)" fill="#fff">
      <path d="M 46.28039932250977 54.5 L 4.999997615814209 54.5 C 2.518687725067139 54.5 0.4999977648258209 52.4813117980957 0.4999977648258209 50 L 0.4999977648258209 5 C 0.4999977648258209 2.51869010925293 2.518687725067139 0.5 4.999997615814209 0.5 L 46.28039932250977 0.5 C 48.7617073059082 0.5 50.78039932250977 2.51869010925293 50.78039932250977 5 L 50.78039932250977 50 C 50.78039932250977 52.4813117980957 48.7617073059082 54.5 46.28039932250977 54.5 Z" stroke="none"/>
      <path d="M 4.999996185302734 1 C 2.794387817382812 1 0.9999961853027344 2.794391632080078 0.9999961853027344 5 L 0.9999961853027344 50 C 0.9999961853027344 52.20560836791992 2.794387817382812 54 4.999996185302734 54 L 46.28039932250977 54 C 48.48600769042969 54 50.28039932250977 52.20560836791992 50.28039932250977 50 L 50.28039932250977 5 C 50.28039932250977 2.794391632080078 48.48600769042969 1 46.28039932250977 1 L 4.999996185302734 1 M 4.999996185302734 0 L 46.28039932250977 0 C 49.04181671142578 0 51.28039932250977 2.238571166992188 51.28039932250977 5 L 51.28039932250977 50 C 51.28039932250977 52.76142120361328 49.04181671142578 55 46.28039932250977 55 L 4.999996185302734 55 C 2.238578796386719 55 -3.814697265625e-06 52.76142120361328 -3.814697265625e-06 50 L -3.814697265625e-06 5 C -3.814697265625e-06 2.238571166992188 2.238578796386719 0 4.999996185302734 0 Z" stroke="none" fill="#12263f"/>
    </g>
    <g id="Trazado_232322" data-name="Trazado 232322" transform="translate(1747 -8663.496)" fill="#fff">
      <path d="M 46.28039932250977 54.5 L 4.999997615814209 54.5 C 2.518687725067139 54.5 0.4999977648258209 52.4813117980957 0.4999977648258209 50 L 0.4999977648258209 5 C 0.4999977648258209 2.51869010925293 2.518687725067139 0.5 4.999997615814209 0.5 L 46.28039932250977 0.5 C 48.7617073059082 0.5 50.78039932250977 2.51869010925293 50.78039932250977 5 L 50.78039932250977 50 C 50.78039932250977 52.4813117980957 48.7617073059082 54.5 46.28039932250977 54.5 Z" stroke="none"/>
      <path d="M 4.999996185302734 1 C 2.794387817382812 1 0.9999961853027344 2.794391632080078 0.9999961853027344 5 L 0.9999961853027344 50 C 0.9999961853027344 52.20560836791992 2.794387817382812 54 4.999996185302734 54 L 46.28039932250977 54 C 48.48600769042969 54 50.28039932250977 52.20560836791992 50.28039932250977 50 L 50.28039932250977 5 C 50.28039932250977 2.794391632080078 48.48600769042969 1 46.28039932250977 1 L 4.999996185302734 1 M 4.999996185302734 0 L 46.28039932250977 0 C 49.04181671142578 0 51.28039932250977 2.238571166992188 51.28039932250977 5 L 51.28039932250977 50 C 51.28039932250977 52.76142120361328 49.04181671142578 55 46.28039932250977 55 L 4.999996185302734 55 C 2.238578796386719 55 -3.814697265625e-06 52.76142120361328 -3.814697265625e-06 50 L -3.814697265625e-06 5 C -3.814697265625e-06 2.238571166992188 2.238578796386719 0 4.999996185302734 0 Z" stroke="none" fill="#12263f"/>
    </g>
    <g id="Trazado_232323" data-name="Trazado 232323" transform="translate(1747 -8597.496)" fill="#fff">
      <path d="M 46.28039932250977 54.5 L 4.999997615814209 54.5 C 2.518687725067139 54.5 0.4999977648258209 52.4813117980957 0.4999977648258209 50 L 0.4999977648258209 5 C 0.4999977648258209 2.51869010925293 2.518687725067139 0.5 4.999997615814209 0.5 L 46.28039932250977 0.5 C 48.7617073059082 0.5 50.78039932250977 2.51869010925293 50.78039932250977 5 L 50.78039932250977 50 C 50.78039932250977 52.4813117980957 48.7617073059082 54.5 46.28039932250977 54.5 Z" stroke="none"/>
      <path d="M 4.999996185302734 1 C 2.794387817382812 1 0.9999961853027344 2.794391632080078 0.9999961853027344 5 L 0.9999961853027344 50 C 0.9999961853027344 52.20560836791992 2.794387817382812 54 4.999996185302734 54 L 46.28039932250977 54 C 48.48600769042969 54 50.28039932250977 52.20560836791992 50.28039932250977 50 L 50.28039932250977 5 C 50.28039932250977 2.794391632080078 48.48600769042969 1 46.28039932250977 1 L 4.999996185302734 1 M 4.999996185302734 0 L 46.28039932250977 0 C 49.04181671142578 0 51.28039932250977 2.238571166992188 51.28039932250977 5 L 51.28039932250977 50 C 51.28039932250977 52.76142120361328 49.04181671142578 55 46.28039932250977 55 L 4.999996185302734 55 C 2.238578796386719 55 -3.814697265625e-06 52.76142120361328 -3.814697265625e-06 50 L -3.814697265625e-06 5 C -3.814697265625e-06 2.238571166992188 2.238578796386719 0 4.999996185302734 0 Z" stroke="none" fill="#12263f"/>
    </g>
    <g id="Grupo_180646" data-name="Grupo 180646" transform="translate(1752.586 -8787.058)">
      <g id="Grupo_180592" data-name="Grupo 180592" clip-path="url(#clip-path-3)">
        <path id="Trazado_232080" data-name="Trazado 232080" d="M0,9.954A15.762,15.762,0,0,0,1.171,8.813,1.434,1.434,0,0,1,2.5,8.273c.593.047,1.192.011,1.9.011-.4-.408-.741-.739-1.067-1.081a.569.569,0,0,1-.19-.317,29.137,29.137,0,0,1,.086-3.631A3.873,3.873,0,0,1,7.273.017a3.92,3.92,0,0,1,3.7,3.512c.092,1.089.046,2.19.042,3.285a.675.675,0,0,1-.207.391c-.319.339-.656.661-1.075,1.078.817,0,1.516.023,2.212-.009a.886.886,0,0,1,.908.489c-.217.21-.445.438-.683.654a.321.321,0,0,1-.2.066c-3.17-.006-6.34-.019-9.51-.018a.845.845,0,0,0-.439.188,2.1,2.1,0,0,0-.865,1.969c.07,2.307.024,4.618.024,6.927a1.1,1.1,0,0,0,1.109,1.112h.58V12.57H4.022V30.71c.619,0,1.2.023,1.783-.01.284-.016.686-.618.686-.937q0-4.051,0-8.1V21.17H7.665v.473q0,4.051,0,8.1a.99.99,0,0,0,.974.972H10.1V12.577h1.165v7.069h1.091v1.175H11.291V31.892H9.384c-.157,0-.314-.007-.47,0-.7.037-1.407.087-1.745-.69-.091.02-.126.017-.136.032a1.788,1.788,0,0,1-1.78.668c-.778-.048-1.562-.011-2.389-.011V20.837c-.433,0-.823.019-1.209-.009a.848.848,0,0,1-.472-.192C.776,20.274.393,19.884,0,19.5V9.954m4.255-4.9.052,0c0,.4-.005.808,0,1.211a.519.519,0,0,0,.081.323A9.029,9.029,0,0,0,6.078,8.2c.421.247,1.09.071,1.648.084a.216.216,0,0,0,.078,0A1.346,1.346,0,0,0,8.244,8.1c.483-.455.95-.928,1.411-1.407a.6.6,0,0,0,.182-.361c0-.885.028-1.773-.042-2.653A2.731,2.731,0,0,0,4.444,3.2a12.024,12.024,0,0,0-.188,1.855" transform="translate(0 -0.013)" fill="#12263f"/>
        <path id="Trazado_232081" data-name="Trazado 232081" d="M59.291,423.718a3.374,3.374,0,0,1-1.7-.692,2.64,2.64,0,0,1-.2-3.775,2.613,2.613,0,0,1,3.742-.086.782.782,0,0,0,.614.251q4.049-.012,8.1,0a.781.781,0,0,0,.617-.242,2.584,2.584,0,0,1,3.651,0,.78.78,0,0,0,.615.247c2.7-.007,5.4,0,8.1-.015a.969.969,0,0,0,.6-.246,2.631,2.631,0,1,1,2.12,4.495,1.713,1.713,0,0,0-.258.069h-.078a.445.445,0,0,0-.138-.061,2.666,2.666,0,0,1-1.73-.806.757.757,0,0,0-.485-.159c-2.713-.009-5.426,0-8.138-.011a.789.789,0,0,0-.616.249,2.6,2.6,0,0,1-3.629,0,.791.791,0,0,0-.615-.252q-3.8.012-7.59,0c-.512,0-1.019-.049-1.358.45a.27.27,0,0,1-.129.086c-.47.169-.942.335-1.413.5Zm10.336-3.1h-7.64v.861h7.64Zm12.967,0h-7.63v.881h7.63ZM59.267,422.5a1.456,1.456,0,0,0,1.509-1.415,1.482,1.482,0,0,0-1.431-1.5,1.464,1.464,0,0,0-1.481,1.406,1.441,1.441,0,0,0,1.4,1.512m13.007,0a1.466,1.466,0,0,0,1.479-1.45,1.465,1.465,0,0,0-2.929-.029,1.465,1.465,0,0,0,1.45,1.479m14.44-1.474a1.456,1.456,0,1,0-1.445,1.475,1.445,1.445,0,0,0,1.445-1.475" transform="translate(-52.243 -385.595)" fill="#12263f"/>
        <path id="Trazado_232082" data-name="Trazado 232082" d="M341.572,31.888c-1.181,0-2.287.011-3.393-.014-.146,0-.3-.179-.428-.3a4.16,4.16,0,0,1-.338-.392c-.091.038-.123.041-.134.058a1.668,1.668,0,0,1-1.664.661c-.8-.053-1.615-.012-2.464-.012V20.835c-.437,0-.837.019-1.234-.009a1.006,1.006,0,0,1-.474-.194,2.929,2.929,0,0,1-1.213-2.809c.1-2.474.035-4.955.026-7.433a.8.8,0,0,1,.267-.651c.505-.469.917-1.139,1.509-1.387a5.657,5.657,0,0,1,2.012-.069c.167,0,.334,0,.636,0-.393-.393-.7-.718-1.024-1.017a.784.784,0,0,1-.268-.651c.015-.861-.006-1.722.008-2.582a3.94,3.94,0,0,1,7.872-.319c.04,1.029.018,2.06,0,3.091a.669.669,0,0,1-.191.394c-.318.342-.657.665-1.079,1.085.409,0,.71,0,1.011,0a4.828,4.828,0,0,1,1.663.067c.469.19.777.75,1.2,1.1a1.508,1.508,0,0,1,.554,1.316c-.03,2.778-.016,5.556-.009,8.334a.748.748,0,0,1-.246.616c-.375.343-.669.836-1.1,1.036a4.434,4.434,0,0,1-1.5.118Zm-.013-12.227h.587a1.1,1.1,0,0,0,1.095-1.086c0-2.361-.029-4.723.017-7.083a1.926,1.926,0,0,0-.716-1.725,1.164,1.164,0,0,0-.79-.317c-2.714.012-5.429.007-8.143.007-1.191,0-1.195,0-2,.873a.668.668,0,0,0-.169.407q-.015,3.992,0,7.984a.679.679,0,0,0,.112.355,1.292,1.292,0,0,0,1.588.524V12.583h1.179V30.716c.514,0,.994,0,1.474,0a.993.993,0,0,0,.951-.953q0-4.07,0-8.14v-.447h1.175v.5q0,4.051,0,8.1c0,.315.417.91.7.924.569.029,1.14.009,1.762.009V12.577h1.173ZM340.133,5.1c-.027-.545-.01-1.1-.089-1.635a2.7,2.7,0,0,0-2.221-2.226,2.763,2.763,0,0,0-2.882,1.355,5.667,5.667,0,0,0-.389,2.317,2.852,2.852,0,0,0,1.116,2.74,2.453,2.453,0,0,0,3.465-.116,2.442,2.442,0,0,0,1-2.434" transform="translate(-304.322 -0.012)" fill="#12263f"/>
        <path id="Trazado_232083" data-name="Trazado 232083" d="M174.783,8.27h2.1c.517,0,.517,0,.918.5-.225.2-.454.412-.69.614a.34.34,0,0,1-.2.089q-4.225-.012-8.451-.033h-.2c-1.169,0-1.174,0-1.97.842a.709.709,0,0,0-.186.437q-.017,3.992-.007,7.984a1.179,1.179,0,0,0,.963.942c.22,0,.439,0,.7,0V12.567h1.181V30.7c.616,0,1.2.024,1.779-.01.286-.017.679-.617.679-.944q0-4.05,0-8.1v-.487h1.175v.45q0,4.05,0,8.1a1.009,1.009,0,0,0,1,1q.646,0,1.292,0a1.243,1.243,0,0,0,.163-.029V12.56H176.2v7.08h1.089V20.8H176.24V31.853c-.178.01-.315.024-.451.024-.835,0-1.671-.023-2.5.011a1.061,1.061,0,0,1-.981-.418,2.4,2.4,0,0,0-.279-.267c-.049.023-.1.029-.115.056a1.609,1.609,0,0,1-1.6.631c-.828-.046-1.661-.011-2.52-.011V20.823c-.425,0-.825.016-1.223-.008a1.548,1.548,0,0,1-.445-.172c-.011,0-.018-.018-.027-.028-.382-.391-.906-.722-1.106-1.191a4.317,4.317,0,0,1-.059-1.586c0-2.492,0-4.983-.007-7.475a.723.723,0,0,1,.271-.646,2.218,2.218,0,0,0,.195-.192c.419-.41.772-.977,1.275-1.187a4.949,4.949,0,0,1,1.741-.069,3.075,3.075,0,0,0,.854-.089c-.337-.333-.684-.657-1-1.006a.725.725,0,0,1-.184-.437c-.014-.978-.028-1.957,0-2.935a3.925,3.925,0,0,1,7.841-.117c.038,1.029.021,2.061.01,3.091a.668.668,0,0,1-.184.4c-.318.343-.657.666-.989,1l.03.1m-5.6-3.312.052,0c0,.43-.005.86,0,1.289a.524.524,0,0,0,.078.325c.886.913,1.641,2.083,3.215,1.695.061-.015.135.014.194-.005a1.176,1.176,0,0,0,.442-.18c.483-.455.951-.928,1.411-1.407a.6.6,0,0,0,.171-.364c.01-.846.027-1.694-.012-2.539a2.74,2.74,0,0,0-5.364-.634,11.3,11.3,0,0,0-.19,1.814" transform="translate(-151.951 0)" fill="#12263f"/>
        <rect id="Rectángulo_58438" data-name="Rectángulo 58438" width="1.113" height="4.277" transform="translate(8.343 25.59)" fill="#12263f"/>
        <rect id="Rectángulo_58439" data-name="Rectángulo 58439" width="1.126" height="4.275" transform="translate(21.311 25.59)" fill="#12263f"/>
        <rect id="Rectángulo_58440" data-name="Rectángulo 58440" width="1.123" height="1.126" transform="translate(21.311 21.677)" fill="#12263f"/>
        <rect id="Rectángulo_58441" data-name="Rectángulo 58441" width="1.125" height="1.125" transform="translate(8.336 23.631)" fill="#12263f"/>
        <rect id="Rectángulo_58442" data-name="Rectángulo 58442" width="1.111" height="1.125" transform="translate(21.322 23.634)" fill="#12263f"/>
        <rect id="Rectángulo_58443" data-name="Rectángulo 58443" width="1.123" height="1.12" transform="translate(8.335 21.688)" fill="#12263f"/>
        <path id="Trazado_232084" data-name="Trazado 232084" d="M93.062,71.651c.054.806-.776,1-1.1,1.569l-.814-.813a1.443,1.443,0,0,1,1.913-.756" transform="translate(-83.999 -65.914)" fill="#12263f"/>
        <path id="Trazado_232085" data-name="Trazado 232085" d="M90.4,25.276a1.76,1.76,0,0,1,1.436.657l-.818.728L90.4,26.39Z" transform="translate(-83.311 -23.293)" fill="#12263f"/>
        <path id="Trazado_232086" data-name="Trazado 232086" d="M101.693,46.063v1.229h-1.128c0-.294-.012-.6.009-.9,0-.064.122-.156.2-.174.287-.063.581-.1.918-.155" transform="translate(-92.673 -42.45)" fill="#12263f"/>
        <rect id="Rectángulo_58444" data-name="Rectángulo 58444" width="1.126" height="4.281" transform="translate(34.287 25.6)" fill="#12263f"/>
        <rect id="Rectángulo_58445" data-name="Rectángulo 58445" width="1.117" height="1.122" transform="translate(34.285 21.67)" fill="#12263f"/>
        <rect id="Rectángulo_58446" data-name="Rectángulo 58446" width="1.121" height="1.124" transform="translate(34.283 23.636)" fill="#12263f"/>
        <path id="Trazado_232087" data-name="Trazado 232087" d="M422.733,73.113l-.779-.794a1.437,1.437,0,0,1,1.854-.771c.1.55.26.267-1.075,1.565" transform="translate(-388.856 -65.835)" fill="#12263f"/>
        <path id="Trazado_232088" data-name="Trazado 232088" d="M432.713,45.974v1.232h-1.132V46.17l1.132-.2" transform="translate(-397.727 -42.368)" fill="#12263f"/>
        <path id="Trazado_232089" data-name="Trazado 232089" d="M421.3,26.541c-.716-.361-.729-.392-.59-1.4a1.912,1.912,0,0,1,1.418.649l-.828.75" transform="translate(-387.65 -23.17)" fill="#12263f"/>
        <path id="Trazado_232090" data-name="Trazado 232090" d="M257.088,73.241l-.8-.793.977-.876.869.062c.159.574.226.369-1.047,1.608" transform="translate(-236.185 -65.958)" fill="#12263f"/>
        <path id="Trazado_232091" data-name="Trazado 232091" d="M257.231,25.734l-.837.75-.617-.275V25.081a1.974,1.974,0,0,1,1.454.653" transform="translate(-235.714 -23.114)" fill="#12263f"/>
        <path id="Trazado_232092" data-name="Trazado 232092" d="M266.9,47.272h-1.139c0-.305-.015-.59.01-.871a.32.32,0,0,1,.21-.206c.29-.069.587-.1.919-.159Z" transform="translate(-244.913 -42.425)" fill="#12263f"/>
      </g>
    </g>
    <g id="Grupo_180647" data-name="Grupo 180647" transform="translate(1750 -8726.496)">
      <g id="Grupo_180593" data-name="Grupo 180593" clip-path="url(#clip-path-4)">
        <path id="Trazado_232093" data-name="Trazado 232093" d="M0,42.307c.323-.519.857-.437,1.4-.443v-.5q0-4.84,0-9.68c0-.775.207-.984.978-.984H10.45V25.119c-.226,0-.453.012-.678,0a.674.674,0,0,1-.691-.695q-.022-1.4,0-2.791c.008-.444.3-.691.778-.7.884-.008,1.768,0,2.705,0V19.7q0-1.679,0-3.357c0-.78.2-.984.972-.99h.327a22.87,22.87,0,0,1,.367-2.615,7.383,7.383,0,0,1,4.287-5.072.477.477,0,0,0,.337-.517c-.021-.726-.01-1.453-.006-2.18a2.75,2.75,0,0,1,1.8-2.674.381.381,0,0,0,.3-.44c-.018-.377-.015-.756,0-1.133A.694.694,0,1,1,22.332.713c.015.392-.016.786.016,1.176a.512.512,0,0,0,.242.368,2.805,2.805,0,0,1,1.84,2.79c0,.712-.014,1.425.012,2.136a.565.565,0,0,0,.245.418,7.67,7.67,0,0,1,4.63,7.368c0,.113,0,.225,0,.38.225,0,.41,0,.594,0a.714.714,0,0,1,.8.811c.006,1.483,0,2.965,0,4.448v.323H32.8c1.343,0,1.4.056,1.4,1.393,0,.61,0,1.221,0,1.831,0,.743-.215.958-.957.963h-.412V30.7H40.9c.771,0,.979.21.979.983q0,4.818,0,9.637v.527c.509.078,1.179-.164,1.376.58.1.385-.168.611-.417.835H0v-.959m13.93-.453V33.519c-1.229-.09-1.229-.09-1.408-1.4h-9.7v9.731ZM30.822,32.12c-.119.437-.113.914-.349,1.138s-.728.232-1.128.339v8.244H40.453V32.12Zm-4.995-3.557c0-.474-.006-.865,0-1.257a.7.7,0,1,1,1.392-.009c.009.494-.009.989.012,1.482a.418.418,0,0,0,.195.314c.373.151.763.261,1.192.4,0-.738,0-1.431,0-2.125,0-.538.28-.862.716-.849.419.012.675.324.678.844,0,.77,0,1.541.007,2.311a.515.515,0,0,0,.123.327c.219.222.463.42.753.676h.484V25.155H11.888v5.531h.5l.871-.864c0-.778-.006-1.649,0-2.521a.7.7,0,1,1,1.391,0c.008.718,0,1.436,0,2.2l1.4-.467c0-.581-.005-1.146,0-1.711.006-.5.291-.818.715-.805.409.012.669.314.677.8.007.4,0,.8,0,1.261a4.953,4.953,0,0,0,1.312-.507c.165-.126.059-.6.091-.909a.694.694,0,0,1,1.384.011c.015.139.015.28.023.441a5.273,5.273,0,0,1,1.363-.371,5.608,5.608,0,0,1,1.393.36c.007-.127.011-.242.019-.357a.7.7,0,1,1,1.393.017,6.032,6.032,0,0,0,.011.609.4.4,0,0,0,.182.284c.375.147.763.259,1.205.4M29.3,16.778H13.982v4.129h1.376c0-.693-.01-1.359,0-2.025a.689.689,0,0,1,.825-.721.7.7,0,0,1,.567.77c0,.662,0,1.324,0,1.981h1.4c0-.629,0-1.236,0-1.843a1.4,1.4,0,0,1,.055-.47.635.635,0,0,1,.76-.437.668.668,0,0,1,.576.714c.006.678,0,1.355,0,2.026h1.4c0-.644,0-1.253,0-1.863,0-.561.244-.877.675-.891.447-.015.717.316.72.891,0,.62,0,1.241,0,1.868h1.4c0-.667,0-1.3,0-1.943,0-.509.282-.822.705-.816s.675.309.688.791c0,.16,0,.32,0,.48v1.492h1.4c0-.69-.009-1.356,0-2.022a.7.7,0,0,1,.778-.737.709.709,0,0,1,.612.775c.008.662,0,1.325,0,1.988H29.3Zm-15.31,15.3H29.338c-.136-.351.25-.792-.362-.991-2.344-.76-4.677-1.555-7.02-2.319a1.143,1.143,0,0,0-.664.013c-2.206.719-4.405,1.456-6.606,2.187-.768.255-.768.254-.7,1.109m18.8-9.715H10.505V23.7H32.787ZM23.731,15.33a13.609,13.609,0,0,0-.778-5.356A5.092,5.092,0,0,0,22.3,8.8c-.438-.579-.862-.577-1.311-.013a2.942,2.942,0,0,0-.568.969,31.143,31.143,0,0,0-.77,3.2,19.693,19.693,0,0,0-.132,2.37ZM15.376,41.84h2.041V33.519H15.376Zm5.544-8.319H18.875v8.316H20.92Zm1.438,8.32H24.4V33.518H22.358Zm3.5-.005H27.9v-8.32H25.857ZM19.3,8.874a6.153,6.153,0,0,0-3.877,6.453h2.735A14.165,14.165,0,0,1,19.3,8.874m8.595,6.459C28.127,12.5,26,9.015,24,8.944a14.139,14.139,0,0,1,1.119,6.389Zm-4.88-8.308c0-.776.05-1.59-.016-2.4a1.335,1.335,0,0,0-1.343-1.142A1.315,1.315,0,0,0,20.289,4.6c-.074.816-.018,1.644-.018,2.428Z" transform="translate(0 0.001)" fill="#12263f"/>
        <path id="Trazado_232094" data-name="Trazado 232094" d="M47.9,384.691c0-.247-.018-.5,0-.741a.675.675,0,0,1,.7-.635.643.643,0,0,1,.67.619,12.5,12.5,0,0,1,0,1.525.675.675,0,0,1-.7.639.689.689,0,0,1-.677-.665c-.018-.246,0-.494,0-.741h0" transform="translate(-43.71 -349.812)" fill="#12263f"/>
        <path id="Trazado_232095" data-name="Trazado 232095" d="M79.843,384.652c0-.233-.015-.466,0-.7a.686.686,0,0,1,.681-.66.674.674,0,0,1,.7.642c.025.493.024.989,0,1.482a.678.678,0,0,1-.68.661.69.69,0,0,1-.7-.686c-.016-.246,0-.494,0-.741h0" transform="translate(-72.859 -349.794)" fill="#12263f"/>
        <path id="Trazado_232096" data-name="Trazado 232096" d="M113.126,384.682c0,.247.016.5,0,.741a.687.687,0,0,1-.685.657.675.675,0,0,1-.692-.647c-.024-.493-.023-.989,0-1.482a.674.674,0,0,1,.683-.656.685.685,0,0,1,.695.646c.021.245,0,.494,0,.741" transform="translate(-101.962 -349.795)" fill="#12263f"/>
        <path id="Trazado_232097" data-name="Trazado 232097" d="M49.233,432.593c0,.247.016.5,0,.741a.688.688,0,0,1-.685.657.675.675,0,0,1-.692-.647c-.024-.493-.023-.989,0-1.482a.674.674,0,0,1,.683-.656.685.685,0,0,1,.695.646c.021.245,0,.494,0,.741" transform="translate(-43.654 -393.518)" fill="#12263f"/>
        <path id="Trazado_232098" data-name="Trazado 232098" d="M81.182,432.605c0,.233.013.466,0,.7a.692.692,0,0,1-.7.687.677.677,0,0,1-.68-.66c-.022-.493-.023-.989,0-1.482a.673.673,0,0,1,.7-.643.687.687,0,0,1,.682.66c.019.246,0,.494,0,.741h0" transform="translate(-72.808 -393.517)" fill="#12263f"/>
        <path id="Trazado_232099" data-name="Trazado 232099" d="M113.129,432.612c0,.233.014.466,0,.7a.692.692,0,0,1-.709.679.681.681,0,0,1-.673-.668c-.021-.479-.02-.96,0-1.438a.681.681,0,0,1,.707-.678.689.689,0,0,1,.675.667c.018.246,0,.494,0,.741" transform="translate(-101.964 -393.516)" fill="#12263f"/>
        <path id="Trazado_232100" data-name="Trazado 232100" d="M368.7,384.719c0,.218.011.437,0,.654a.7.7,0,0,1-.685.7.683.683,0,0,1-.7-.686c-.019-.464-.017-.93,0-1.4a.693.693,0,1,1,1.385-.019c.016.246,0,.494,0,.741" transform="translate(-335.199 -349.793)" fill="#12263f"/>
        <path id="Trazado_232101" data-name="Trazado 232101" d="M399.311,384.689c0-.247-.016-.5,0-.741a.685.685,0,0,1,.687-.654.674.674,0,0,1,.691.648c.024.493.023.989,0,1.482a.677.677,0,0,1-.686.655.685.685,0,0,1-.692-.649c-.021-.245,0-.494,0-.741" transform="translate(-364.405 -349.794)" fill="#12263f"/>
        <path id="Trazado_232102" data-name="Trazado 232102" d="M432.6,384.7c0,.233.014.466,0,.7a.693.693,0,0,1-.714.673.682.682,0,0,1-.667-.674c-.019-.479-.02-.96,0-1.438a.68.68,0,0,1,.669-.672.69.69,0,0,1,.713.674c.018.246,0,.494,0,.741" transform="translate(-393.509 -349.79)" fill="#12263f"/>
        <path id="Trazado_232103" data-name="Trazado 232103" d="M367.357,432.565c0-.218-.011-.437,0-.654a.7.7,0,0,1,.681-.707.682.682,0,0,1,.7.682c.019.479.02.96,0,1.438a.681.681,0,0,1-.677.664.69.69,0,0,1-.7-.683c-.016-.246,0-.494,0-.741" transform="translate(-335.246 -393.517)" fill="#12263f"/>
        <path id="Trazado_232104" data-name="Trazado 232104" d="M400.646,432.568c0,.247.014.5,0,.741a.692.692,0,0,1-.71.678.681.681,0,0,1-.672-.669c-.02-.479-.02-.96,0-1.438a.68.68,0,0,1,.708-.677.69.69,0,0,1,.674.669c.017.231,0,.465,0,.7" transform="translate(-364.352 -393.515)" fill="#12263f"/>
        <path id="Trazado_232105" data-name="Trazado 232105" d="M431.242,432.589a6.3,6.3,0,0,1,.005-.741.689.689,0,0,1,1.373,0,14.414,14.414,0,0,1,0,1.525.689.689,0,0,1-1.372,0,6.938,6.938,0,0,1-.006-.784" transform="translate(-393.543 -393.531)" fill="#12263f"/>
      </g>
    </g>
    <g id="Grupo_180648" data-name="Grupo 180648" transform="translate(1750.586 -8656.73)">
      <g id="Grupo_180595" data-name="Grupo 180595" clip-path="url(#clip-path-5)">
        <path id="Trazado_232106" data-name="Trazado 232106" d="M114.944,259.158a4.644,4.644,0,0,1-1.082-3.265,4.26,4.26,0,0,1,1.552-3.243,3.161,3.161,0,0,1,4.366.274,4.738,4.738,0,0,1,.489,5.791c-.066.1-.134.2-.161.237a5.628,5.628,0,0,1,1.113.877,5.4,5.4,0,0,1,.545,1.292,5.07,5.07,0,0,1,.6-.125,2.255,2.255,0,0,1,2.513,2.259c.014,1.849,0,3.7,0,5.546q0,3.007,0,6.014v.408h-1.3c0-.145,0-.283,0-.422q0-5.672,0-11.345a1.688,1.688,0,0,0-.081-.564.94.94,0,0,0-1.036-.6.969.969,0,0,0-.817.88c-.009.107,0,.216,0,.324q0,5.636,0,11.272v.45h-1.3c0-.147,0-.3,0-.446q0-6.753,0-13.505c0-.754-.178-.933-.933-.933-1.188,0-2.377,0-3.565,0a1.273,1.273,0,0,0-1.251.854c-.16.439-.119.524.319.667.079.026.156.056.266.1-.03.121-.052.235-.085.344-.432,1.4-.873,2.794-1.293,4.2a.387.387,0,0,1-.45.327c-2.365-.01-4.73-.006-7.095-.005a1.453,1.453,0,0,0-1.432,1.132,1.324,1.324,0,0,0,.968,1.379,1.718,1.718,0,0,0,.53.075q3.944.007,7.887,0c.913,0,1.215-.186,1.5-1.084.451-1.443.856-2.9,1.281-4.35.185-.631.372-1.261.569-1.929l1.217.355a2.868,2.868,0,0,1-.052.283q-.848,2.921-1.7,5.84a5.464,5.464,0,0,1-.263.707,2.326,2.326,0,0,1-2.234,1.483v4.51h-1.295v-4.486h-1.342V273.3h-1.244v1.919h-1.308v-1.888H92.285v1.892H90.991v-1.906H89.87v-.7c0-.4,0-.792,0-1.188a1.935,1.935,0,0,1,2.023-2.013q5.726-.006,11.453,0h.449a6.444,6.444,0,0,1-.295-1.028,2.729,2.729,0,0,1,2.564-2.861c2.1,0,4.2-.007,6.3.006.278,0,.372-.1.477-.346a8.89,8.89,0,0,0,.362-3.514,2.574,2.574,0,0,1,1.314-2.292c.122-.074.255-.131.424-.216M91.181,272H110.1a.758.758,0,0,0,.285-.009c.087-.038.208-.133.211-.207.036-.937.033-1.074-.935-1.076H92.1a2.489,2.489,0,0,0-.359.01.6.6,0,0,0-.551.535,5.492,5.492,0,0,0-.007.748m28.544-15.733a3.525,3.525,0,0,0-.51-1.982,1.97,1.97,0,0,0-3.251-.387,3.45,3.45,0,0,0,.034,4.479,1.908,1.908,0,0,0,2.866.014,3.1,3.1,0,0,0,.86-2.123" transform="translate(-83.396 -233.757)" fill="#12263f"/>
        <path id="Trazado_232107" data-name="Trazado 232107" d="M23.324,144.721v2.38c-.158-.08-.273-.134-.384-.2-1.195-.666-2.384-1.342-3.586-1.994a1.558,1.558,0,0,0-.71-.183q-6.969-.016-13.937-.008a2.6,2.6,0,0,1-2.769-2.773c0-.912.012-1.825-.01-2.737a1.1,1.1,0,0,0-.207-.611,7.78,7.78,0,1,1,13.624-6.648c.081.362.209.466.583.464,3.289-.018,6.578-.011,9.868-.01a2.579,2.579,0,0,1,2.721,2.706q.005,3.475,0,6.95a2.585,2.585,0,0,1-2.664,2.659c-.825,0-1.65,0-2.527,0m-1.3-1.3h.445q1.639,0,3.277,0a1.313,1.313,0,0,0,1.469-1.465q0-3.348,0-6.7c0-1.075-.479-1.555-1.561-1.556H15.583a7.688,7.688,0,0,1-4.27,6.907,7.659,7.659,0,0,1-8.073-.551c0,.663,0,1.262,0,1.862a1.33,1.33,0,0,0,1.507,1.5c4.346,0,8.692.03,13.037-.02a4.835,4.835,0,0,1,3.007.807,12.94,12.94,0,0,0,1.232.686Zm-14.261-16.2a6.479,6.479,0,1,0,6.491,6.473,6.493,6.493,0,0,0-6.491-6.473" transform="translate(0 -116.846)" fill="#12263f"/>
        <path id="Trazado_232108" data-name="Trazado 232108" d="M210.858,6.482A6.482,6.482,0,1,1,204.408,0a6.486,6.486,0,0,1,6.45,6.48m-6.5-5.178a5.183,5.183,0,1,0,5.2,5.16,5.2,5.2,0,0,0-5.2-5.16" transform="translate(-183.638 -0.001)" fill="#12263f"/>
        <rect id="Rectángulo_58449" data-name="Rectángulo 58449" width="9.677" height="1.252" transform="translate(14.92 23.36)" fill="#12263f"/>
        <path id="Trazado_232109" data-name="Trazado 232109" d="M251.67,252.249c0,.363,0,.7,0,1.03,0,.069-.012.138-.021.228h-8.379v-1.258Z" transform="translate(-225.745 -234.078)" fill="#12263f"/>
        <path id="Trazado_232110" data-name="Trazado 232110" d="M301.78,289.205h-4.5v-1.282h1.037c.994,0,1.987,0,2.981,0,.593,0,.51.046.487.479-.014.259,0,.52,0,.8" transform="translate(-275.863 -267.182)" fill="#12263f"/>
        <path id="Trazado_232111" data-name="Trazado 232111" d="M224.876,288.215h3.865v1.273c-.439,0-.876,0-1.313,0-.741,0-1.482,0-2.222.013-.246.005-.348-.069-.334-.325.017-.308,0-.617,0-.962" transform="translate(-208.672 -267.453)" fill="#12263f"/>
        <path id="Trazado_232112" data-name="Trazado 232112" d="M57.291,173.719c.057-.018.084-.037.1-.03a2.287,2.287,0,0,0,1.677-.178,4.339,4.339,0,0,1,5.677,3.562c.031.235.055.471.086.744l-.63.074-.646.072c-.038-.277-.068-.533-.109-.787a3.079,3.079,0,0,0-3.962-2.453c-.325.1-.551.229-.37.619a.262.262,0,0,1,.006.106c0,.011-.01.022-.036.073l-2.356.56.56-2.36" transform="translate(-52.644 -160.796)" fill="#12263f"/>
        <path id="Trazado_232113" data-name="Trazado 232113" d="M52.483,234.356c.709-.171,1.4-.34,2.1-.505a2.775,2.775,0,0,1,.3-.033l-.553,2.338c-.058.015-.084.032-.1.025a1.7,1.7,0,0,0-1.393.117,4.323,4.323,0,0,1-6.031-3.154c-.047-.232-.078-.467-.122-.736l1.265-.218c.045.236.087.453.127.671a3.079,3.079,0,0,0,4.12,2.323c.326-.124.484-.273.326-.623a.958.958,0,0,1-.036-.2" transform="translate(-43.318 -215.464)" fill="#12263f"/>
        <path id="Trazado_232114" data-name="Trazado 232114" d="M259.3,44.076h-1.255l-.04-.614h-1.57V42.143h1.642c.3,0,.6.01.9,0a.643.643,0,1,0,.006-1.287c-.252-.012-.5.006-.756-.008a1.943,1.943,0,0,1-.791-3.655c.179-.093.436-.111.54-.251s.053-.385.072-.606h1.257l.041.62h1.577v1.307h-2.212c-.132,0-.265-.007-.4,0a.64.64,0,0,0-.036,1.276c.238.025.479.009.719.013a1.944,1.944,0,0,1,.635,3.782c-.271.1-.271.1-.333.741" transform="translate(-237.938 -33.717)" fill="#12263f"/>
      </g>
    </g>
    <g id="Grupo_180643" data-name="Grupo 180643" transform="translate(1753.207 -8586.939)">
      <g id="Grupo_180597" data-name="Grupo 180597" clip-path="url(#clip-path-6)">
        <path id="Trazado_232115" data-name="Trazado 232115" d="M24.925,159.81h8.081a3.9,3.9,0,0,1,.6,7.758,2.772,2.772,0,0,1-.474.019c-4.187,0-8.374.011-12.561,0A7.445,7.445,0,0,1,15.7,165.71q-2.837-2.387-5.665-4.784a2.374,2.374,0,0,0-1.757-.561c0,.438,0,.865,0,1.292,0,.737-.223.966-.943.967q-3.216,0-6.431,0c-.688,0-.907-.222-.907-.9q0-7.253,0-14.506c0-.665.212-.882.866-.882q3.28,0,6.561,0c.589,0,.842.242.853.826.008.429,0,.858,0,1.322H9.754c1.209,0,2.419.046,3.625-.008a5.579,5.579,0,0,1,4.551,2.007c1.744,1.892,3.542,3.734,5.323,5.591a4.708,4.708,0,0,1,1.556,2.37c.075.432.077.876.116,1.363m-16.637-.791a3.48,3.48,0,0,1,2.532.794c1.865,1.555,3.734,3.106,5.566,4.7a6.734,6.734,0,0,0,4.549,1.744q5.913.009,11.826,0a3.585,3.585,0,0,0,.9-.094,2.571,2.571,0,0,0,1.893-2.648,2.483,2.483,0,0,0-2.442-2.324c-2.848-.029-5.7-.015-8.546-.005a.57.57,0,0,0-.374.2,3.554,3.554,0,0,1-5.471.22c-1.105-1.133-2.222-2.254-3.331-3.383-.615-.626-1.236-1.247-1.833-1.889a.656.656,0,0,1,.365-1.141,1.106,1.106,0,0,1,.733.341c1.75,1.75,3.472,3.527,5.218,5.28a2.171,2.171,0,0,0,3.12-3.015c-2.087-2.222-4.192-4.427-6.291-6.637a3.809,3.809,0,0,0-2.793-1.325c-.574-.005-1.148-.012-1.722-.013-1.289,0-2.577,0-3.9,0Zm-1.413-7.6c-.128-.006-.241-.016-.353-.016-.6,0-1.207.026-1.81.015a.682.682,0,0,1-.74-.718.67.67,0,0,1,.747-.653c.158,0,.316.007.474.007H6.881v-2.322H1.4v13.506H6.878v-6.468c-.719,0-1.408.006-2.1,0-.521-.006-.811-.261-.808-.688s.291-.666.813-.666H6.917c0-.631,0-1.2,0-1.778a1.29,1.29,0,0,0-.04-.218" transform="translate(0 -133.704)" fill="#12263f"/>
        <path id="Trazado_232116" data-name="Trazado 232116" d="M286.22,164.012c.706.5,1.344.956,1.981,1.413a1.308,1.308,0,0,1,.61,1.833c-.24.747-.48,1.493-.75,2.336.742-.539,1.408-1.02,2.071-1.5a1.236,1.236,0,0,1,1.722,0c.67.486,1.342.968,2.087,1.507-.28-.864-.535-1.648-.788-2.432a1.266,1.266,0,0,1,.553-1.671c.655-.476,1.312-.95,1.952-1.514-.841,0-1.682.008-2.523,0a1.162,1.162,0,0,1-1.317-.98c-.264-.8-.535-1.6-.791-2.406a.654.654,0,0,1,.416-.893.672.672,0,0,1,.872.476c.243.717.49,1.435.688,2.165.075.277.2.329.445.325.892-.013,1.784-.01,2.676-.01a1.218,1.218,0,0,1,.749,2.224c-.8.6-1.623,1.179-2.455,1.78.3.93.605,1.85.9,2.772a1.281,1.281,0,0,1-.372,1.511,1.219,1.219,0,0,1-1.584-.078c-.688-.493-1.38-.981-2.047-1.5a.449.449,0,0,0-.651.011c-.711.535-1.424,1.067-2.157,1.569a1.2,1.2,0,0,1-1.925-.819,1.548,1.548,0,0,1,.095-.669c.288-.926.594-1.847.9-2.787-.809-.6-1.62-1.187-2.42-1.79a1.229,1.229,0,0,1-.475-1.443,1.18,1.18,0,0,1,1.253-.787c.877,0,1.755-.008,2.632.005.243,0,.369-.062.414-.312a2.569,2.569,0,0,1,.188-.568.685.685,0,0,1,.857-.378.654.654,0,0,1,.4.836c-.054.193-.116.384-.164.578-.272,1.09-.8,1.167-1.618,1.2-.771.03-1.543.006-2.422.006" transform="translate(-260.038 -145.872)" fill="#12263f"/>
        <path id="Trazado_232117" data-name="Trazado 232117" d="M212.868,43.414a2.766,2.766,0,0,1-.86,2.158,2.992,2.992,0,0,1-2.558.716.611.611,0,0,1-.55-.705.631.631,0,0,1,.646-.614c.143-.008.288,0,.431,0a1.424,1.424,0,0,0,1.492-1.852,4.675,4.675,0,0,0-.934-2.175,4.517,4.517,0,0,0-2.1-1.359,1.361,1.361,0,0,0-.366.022c-.609,0-1.218,0-1.827.005a1.715,1.715,0,0,0-.486.01,4.18,4.18,0,0,0-2.95,3.957,1.364,1.364,0,0,0,1.3,1.388c.2.014.4,0,.6.006a.644.644,0,0,1,.687.615c.025.415-.191.631-.641.7a2.839,2.839,0,0,1-3.371-2.868c-.21,0-.422.005-.635,0a.654.654,0,0,1-.707-.643c-.013-.4.247-.769.639-.7.849.146,1.088-.347,1.389-.984a5.432,5.432,0,0,1,2.646-2.537,3.045,3.045,0,0,1-.577-2.489,2.97,2.97,0,0,1,1.166-1.848,3.082,3.082,0,0,1,4.312,4.312c.361.241.735.468,1.085.728a5.148,5.148,0,0,1,1.795,2.421.47.47,0,0,0,.561.376,2.226,2.226,0,0,1,.431,0,.749.749,0,0,1,.7.689.708.708,0,0,1-.743.677c-.184.005-.367,0-.581,0M208.852,36.7a1.694,1.694,0,0,0-1.675-1.749,1.736,1.736,0,0,0-1.741,1.7,1.754,1.754,0,0,0,1.714,1.743,1.721,1.721,0,0,0,1.7-1.694" transform="translate(-182.775 -30.695)" fill="#12263f"/>
        <path id="Trazado_232118" data-name="Trazado 232118" d="M121.8,4.964a5.674,5.674,0,0,1,2.075,1.625c.353.448.342.81,0,1.092-.322.263-.733.167-1.066-.253a4.074,4.074,0,0,0-1.984-1.378,1.062,1.062,0,0,0-.578-.028,3.175,3.175,0,0,1-1.779,0,.979.979,0,0,0-.538.019,4.287,4.287,0,0,0-2.933,3.775,1.381,1.381,0,0,0,1.412,1.536c.187,0,.376-.012.561.008a.72.72,0,0,1,.663.719.7.7,0,0,1-.729.645c-1.931.068-3.215-.991-3.246-2.686a5.176,5.176,0,0,1,.681-2.673,5.766,5.766,0,0,1,2.574-2.392,3.143,3.143,0,0,1-.455-2.894A3.068,3.068,0,0,1,121.539.917a3.11,3.11,0,0,1,.263,4.048m-2.445-.191a1.711,1.711,0,0,0,1.724-1.708,1.745,1.745,0,0,0-1.7-1.712,1.721,1.721,0,0,0-1.728,1.707,1.675,1.675,0,0,0,1.7,1.713" transform="translate(-103.842 0)" fill="#12263f"/>
        <path id="Trazado_232119" data-name="Trazado 232119" d="M336.754,5a5.625,5.625,0,0,1,3.138,3.863,2.9,2.9,0,0,1-3.323,3.869.6.6,0,0,1-.516-.689.665.665,0,0,1,.632-.648,5.281,5.281,0,0,1,.646-.012,1.3,1.3,0,0,0,1.32-1.347,4.212,4.212,0,0,0-2.976-3.993.979.979,0,0,0-.5.018,3.135,3.135,0,0,1-1.739,0,1.089,1.089,0,0,0-.578.02,4.739,4.739,0,0,0-2.062,1.425.9.9,0,0,1-.716.214.728.728,0,0,1-.449-.492.823.823,0,0,1,.219-.645c.6-.579,1.251-1.114,1.928-1.705a3.058,3.058,0,0,1-.375-2.773A3.008,3.008,0,0,1,332.623.542a3.079,3.079,0,0,1,3.837.386A3.136,3.136,0,0,1,336.754,5M334.3,4.814a1.715,1.715,0,0,0,1.729-1.708,1.762,1.762,0,0,0-1.7-1.712A1.739,1.739,0,0,0,332.594,3.1,1.689,1.689,0,0,0,334.3,4.814" transform="translate(-301.165 -0.04)" fill="#12263f"/>
      </g>
    </g>
  </g>
</svg>
