<svg id="Icon" xmlns="http://www.w3.org/2000/svg" xmlns:xlink="http://www.w3.org/1999/xlink" width="76.1" height="76.1" viewBox="0 0 76.1 76.1">
  <defs>
    <clipPath id="clip-path">
      <rect id="Rectángulo_58313" data-name="Rectángulo 58313" width="47.749" height="47.785" fill="#12263f"/>
    </clipPath>
  </defs>
  <ellipse id="Base" cx="38.05" cy="38.05" rx="38.05" ry="38.05" transform="translate(0 0)" fill="#fff"/>
  <g id="Grupo_180438" data-name="Grupo 180438" transform="translate(16.654 14.877)">
    <g id="Grupo_180436" data-name="Grupo 180436" clip-path="url(#clip-path)">
      <path id="Trazado_231945" data-name="Trazado 231945" d="M47.749,33.349V47.785H28.637V46.179H0V.015C.125.009.222,0,.319,0q13.76,0,27.521.01a.935.935,0,0,1,.594.252q3.956,3.927,7.88,7.886a1.078,1.078,0,0,1,.272.684c.022,1.908.012,3.816.012,5.724v.6c1.92-.138,3.742-.025,5.239,1.3A5.48,5.48,0,0,1,43.748,21.4a5.278,5.278,0,0,1-1.908,3.548,5.6,5.6,0,0,1-5.211,1.135v1c1.355,0,2.679,0,4,0a7.134,7.134,0,0,1,6.711,4.792c.166.482.271.984.4,1.477M1.6,1.607V44.563H28.632v-.569c0-3.252-.025-6.5.008-9.755a6.848,6.848,0,0,1,3.592-6.179A20.534,20.534,0,0,1,35,26.942a8.676,8.676,0,0,1,.008-1,1.106,1.106,0,0,0-.477-1.046,5.273,5.273,0,0,1-1.915-4.1c-.022-1.725,0-3.451-.005-5.176v-.511h2.348V9.538h-7.94V1.607Zm36.6,43.342c-1-1-1.944-1.962-2.91-2.893a.852.852,0,0,1-.286-.83c.424-2.681.822-5.366,1.263-8.044.314-1.906.338-1.9-.543-3.662l-.112-.221c-.323-.646-.323-.646-1.046-.471A5.547,5.547,0,0,0,30.234,34.3c-.011,3.815,0,7.631,0,11.446,0,.142.019.284.028.416H46.154V45.6q0-5.5,0-11a9.425,9.425,0,0,0-.1-1.336,5.511,5.511,0,0,0-4.677-4.5.56.56,0,0,0-.444.227c-.35.638-.669,1.293-.976,1.952a.965.965,0,0,0-.074.517c.242,1.671.5,3.34.753,5.008.245,1.6.5,3.2.735,4.81a.794.794,0,0,1-.118.587c-.985,1.029-2,2.031-3.042,3.082m-3.982-24.99c0,.3-.01.595,0,.888a3.986,3.986,0,0,0,2.763,3.632,3.9,3.9,0,0,0,4.278-1.3c.8-1.075.709-.9-.189-1.66-1.993-1.686-4.38-1.724-6.854-1.564m3.983,22.688c.438-.464.837-.841,1.174-1.266a1.02,1.02,0,0,0,.2-.689c-.153-1.194-.349-2.383-.533-3.574q-.409-2.655-.822-5.316c-.046.017-.071.02-.072.027q-.706,4.5-1.4,9a.613.613,0,0,0,.131.444c.4.443.82.862,1.319,1.376M33.6,7.94l-4.91-4.918V7.94Zm3.6,20.795.994,1.991.977-1.991Z" transform="translate(0 0.001)" fill="#12263f"/>
      <rect id="Rectángulo_58305" data-name="Rectángulo 58305" width="17.464" height="1.538" transform="translate(12.728 15.95)" fill="#12263f"/>
      <rect id="Rectángulo_58306" data-name="Rectángulo 58306" width="17.464" height="1.538" transform="translate(12.728 19.136)" fill="#12263f"/>
      <rect id="Rectángulo_58307" data-name="Rectángulo 58307" width="14.279" height="1.547" transform="translate(12.733 25.503)" fill="#12263f"/>
      <rect id="Rectángulo_58308" data-name="Rectángulo 58308" width="14.279" height="1.538" transform="translate(12.746 28.702)" fill="#12263f"/>
      <rect id="Rectángulo_58309" data-name="Rectángulo 58309" width="13.483" height="1.538" transform="translate(12.728 35.065)" fill="#12263f"/>
      <rect id="Rectángulo_58310" data-name="Rectángulo 58310" width="13.5" height="1.532" transform="translate(12.725 38.254)" fill="#12263f"/>
      <path id="Trazado_231946" data-name="Trazado 231946" d="M46.2,255.215l-1.749-1.835-1.769,1.952L41.5,254.126l1.844-1.777-1.924-1.781,1.2-1.18,1.769,1.854,1.788-1.931,1.178,1.2-1.871,1.771,1.977,1.778L46.2,255.215" transform="translate(-37.285 -224.444)" fill="#12263f"/>
      <path id="Trazado_231947" data-name="Trazado 231947" d="M41.466,349.785l1.843-1.688-1.922-1.762,1.258-1.118,1.722,1.817,1.786-1.955,1.113,1.266-1.814,1.711,1.955,1.792-1.288,1.082-1.7-1.773L42.644,351.1l-1.178-1.313" transform="translate(-37.259 -310.661)" fill="#12263f"/>
      <rect id="Rectángulo_58311" data-name="Rectángulo 58311" width="11.89" height="1.541" transform="translate(12.744 6.4)" fill="#12263f"/>
      <rect id="Rectángulo_58312" data-name="Rectángulo 58312" width="11.89" height="1.538" transform="translate(12.728 9.578)" fill="#12263f"/>
      <path id="Trazado_231948" data-name="Trazado 231948" d="M44.045,67.452l.931,1.115,2.587-2.73,1.155,1.12-3.662,3.661-2.071-2.08,1.06-1.086" transform="translate(-38.698 -59.27)" fill="#12263f"/>
      <path id="Trazado_231949" data-name="Trazado 231949" d="M44.658,166.644l-2.076-2.082,1.171-1.117.877,1.114,2.63-2.693,1.065,1.111-3.667,3.667" transform="translate(-38.335 -145.722)" fill="#12263f"/>
    </g>
  </g>
</svg>
