<svg xmlns="http://www.w3.org/2000/svg" xmlns:xlink="http://www.w3.org/1999/xlink" width="76.1" height="76.1" viewBox="0 0 76.1 76.1">
  <defs>
    <clipPath id="clip-path">
      <rect id="Rectángulo_58328" data-name="Rectángulo 58328" width="38.536" height="38.523" fill="#12263f"/>
    </clipPath>
  </defs>
  <g id="Icon" transform="translate(0 20)">
    <ellipse id="Base" cx="38.05" cy="38.05" rx="38.05" ry="38.05" transform="translate(0 -20)" fill="#fff"/>
    <g id="Grupo_180441" data-name="Grupo 180441" transform="translate(18.581 0.198)">
      <g id="Grupo_180440" data-name="Grupo 180440" clip-path="url(#clip-path)">
        <path id="Trazado_231951" data-name="Trazado 231951" d="M7.689,0H37.048a2.1,2.1,0,0,1,1.488,2.29c-.028,6.445-.013,12.89-.014,19.335a1.851,1.851,0,0,1-1.987,1.984q-4.368,0-8.736,0h-.461c0,1.108-.018,2.156.01,3.2.009.335-.109.451-.409.507-.357.067-.706.172-1.081.267l.735,1.241-3.349,3.36L22,31.449c-.108.417-.232.8-.3,1.191-.045.258-.169.3-.394.294-.75-.011-1.5,0-2.252,0H18.3c.54,1.876.274,3.727.35,5.594H0V34.485a1.413,1.413,0,0,0,.07-.219,9.241,9.241,0,0,1,6.2-7.663c.074-.029.145-.066.25-.113-.107-.086-.176-.142-.246-.2a4.935,4.935,0,0,1-.368-7.52A.945.945,0,0,0,6.22,18q-.011-7.974,0-15.947A2.9,2.9,0,0,1,6.275,1.4,1.967,1.967,0,0,1,7.689,0M9.957,17.431a4.936,4.936,0,0,1,3.469,2.159.585.585,0,0,0,.559.3q10.192-.01,20.384-.005h.407V3.753H9.957ZM36.021,2.489V21.136H14.176l.166,1.222H36.447c.613,0,.822-.219.822-.855q0-9.669,0-19.338c0-.727-.186-.911-.922-.911H8.389c-.737,0-.922.182-.922.909q0,7.553,0,15.106v.444a4.512,4.512,0,0,1,.824-.217c.347-.023.4-.177.4-.491Q8.68,10,8.688,2.987v-.5Zm-22.982,19.9a3.719,3.719,0,1,0-3.716,3.7,3.749,3.749,0,0,0,3.716-3.7M26.06,26.212V23.645H23.485a4.3,4.3,0,0,1-1.84,4.851,4.058,4.058,0,0,1-4.675.059,4.308,4.308,0,0,1-1.935-4.913H14.15A5.19,5.19,0,0,1,12.2,26.456c.024.051.027.068.035.071A9.46,9.46,0,0,1,17.8,31.5a.317.317,0,0,0,.221.163c.864.011,1.728.007,2.587.007.118-.451.217-.865.337-1.272a.534.534,0,0,1,.2-.3c.354-.207.712-.352,1.091-.007a5.565,5.565,0,0,0,.625.386.3.3,0,0,0,.463-.05q.738-.771,1.509-1.509a.306.306,0,0,0,.062-.462c-.187-.278-.359-.569-.519-.864a.556.556,0,0,1-.077-.353.872.872,0,0,1,.771-.785,7.785,7.785,0,0,0,.987-.247M4.7,28.889a7.5,7.5,0,0,0-1.776,1.7,9.259,9.259,0,0,0-1.639,6.42c0,.083.167.22.263.227.36.027.725-.009,1.085.017.337.024.449-.083.444-.432-.019-1.358-.008-2.716-.008-4.074v-.434h1.31v.5c0,1.345.007,2.69-.006,4.035,0,.3.074.411.391.405,1.06-.018,2.121-.006,3.181-.008a2.943,2.943,0,0,0,.329-.041L4.7,28.889M15.567,32.3v.477c0,1.358.008,2.716-.006,4.074,0,.3.08.424.395.4a7.526,7.526,0,0,1,1.008,0c.3.019.425-.069.406-.389-.025-.425.009-.854-.009-1.28a8.919,8.919,0,0,0-.7-3.387,8.042,8.042,0,0,0-2.72-3.314l-3.584,8.337c.167.013.266.027.365.027,1.048,0,2.1-.009,3.142.007.306,0,.4-.087.4-.4-.015-1.371-.006-2.742-.006-4.112V32.3ZM19.3,23.61c-.867,0-1.734.009-2.6-.006-.227,0-.357.075-.375.282a6.7,6.7,0,0,0-.086,1.526,3.06,3.06,0,0,0,3.792,2.444,3.109,3.109,0,0,0,2.177-3.974.341.341,0,0,0-.384-.278c-.841.015-1.682.006-2.523.006m-6.911,4.357a3.146,3.146,0,0,1-6.151,0l-.416.2,3.5,8.133,3.5-8.139-.432-.2m-4.853-.393A1.8,1.8,0,0,0,9.46,29.189a1.705,1.705,0,0,0,1.609-1.626,7.223,7.223,0,0,0-3.533.01" fill="#12263f"/>
        <rect id="Rectángulo_58314" data-name="Rectángulo 58314" width="7.4" height="1.194" transform="translate(28.607 26.13)" fill="#12263f"/>
        <rect id="Rectángulo_58315" data-name="Rectángulo 58315" width="7.403" height="1.194" transform="translate(28.602 28.603)" fill="#12263f"/>
        <rect id="Rectángulo_58316" data-name="Rectángulo 58316" width="1.185" height="1.205" transform="translate(29.857 31.096)" fill="#12263f"/>
        <rect id="Rectángulo_58317" data-name="Rectángulo 58317" width="1.205" height="1.187" transform="translate(32.331 31.099)" fill="#12263f"/>
        <rect id="Rectángulo_58318" data-name="Rectángulo 58318" width="1.192" height="1.194" transform="translate(34.816 31.088)" fill="#12263f"/>
        <path id="Trazado_231952" data-name="Trazado 231952" d="M156.386,77.786V71.619H160.7V70.383h-4.315V67.9h-2.478v2.439H143.97v-6.16h9.913v2.434h2.478v-2.44H166.3v6.175h-4.3V71.6h4.3v6.19Zm1.263-8.7h7.395V65.423h-7.395Zm0,7.457h7.395V72.878H157.65Zm-12.427-7.456h7.395V65.422h-7.395Z" transform="translate(-132.766 -59.178)" fill="#12263f"/>
        <rect id="Rectángulo_58319" data-name="Rectángulo 58319" width="8.662" height="1.188" transform="translate(11.199 14.936)" fill="#12263f"/>
        <rect id="Rectángulo_58320" data-name="Rectángulo 58320" width="5.543" height="1.197" transform="translate(14.309 17.417)" fill="#12263f"/>
        <rect id="Rectángulo_58321" data-name="Rectángulo 58321" width="1.195" height="1.202" transform="translate(13.697 12.451)" fill="#12263f"/>
        <rect id="Rectángulo_58322" data-name="Rectángulo 58322" width="1.194" height="1.195" transform="translate(16.176 12.458)" fill="#12263f"/>
        <rect id="Rectángulo_58323" data-name="Rectángulo 58323" width="1.192" height="1.209" transform="translate(18.662 12.445)" fill="#12263f"/>
        <rect id="Rectángulo_58324" data-name="Rectángulo 58324" width="2.464" height="1.209" transform="translate(28.599 7.473)" fill="#12263f"/>
        <rect id="Rectángulo_58325" data-name="Rectángulo 58325" width="1.218" height="1.204" transform="translate(26.116 7.475)" fill="#12263f"/>
        <rect id="Rectángulo_58326" data-name="Rectángulo 58326" width="4.925" height="1.211" transform="translate(26.12 14.935)" fill="#12263f"/>
        <rect id="Rectángulo_58327" data-name="Rectángulo 58327" width="5.571" height="1.208" transform="translate(13.673 7.473)" fill="#12263f"/>
      </g>
    </g>
  </g>
</svg>
