<svg xmlns="http://www.w3.org/2000/svg" xmlns:xlink="http://www.w3.org/1999/xlink" width="126" height="126" viewBox="0 0 126 126">
  <defs>
    <filter id="Elipse_6215" x="0" y="0" width="126" height="126" filterUnits="userSpaceOnUse">
      <feOffset dy="3" input="SourceAlpha"/>
      <feGaussianBlur stdDeviation="3" result="blur"/>
      <feFlood flood-opacity="0.161"/>
      <feComposite operator="in" in2="blur"/>
      <feComposite in="SourceGraphic"/>
    </filter>
    <clipPath id="clip-path">
      <rect id="Rectángulo_58157" data-name="Rectángulo 58157" width="69.348" height="69.484" fill="#12263f"/>
    </clipPath>
  </defs>
  <g id="Grupo_180653" data-name="Grupo 180653" transform="translate(-802.72 -908.624)">
    <g transform="matrix(1, 0, 0, 1, 802.72, 908.62)" filter="url(#Elipse_6215)">
      <circle id="Elipse_6215-2" data-name="Elipse 6215" cx="54" cy="54" r="54" transform="translate(9 6)" fill="#fff"/>
    </g>
    <g id="Grupo_180317" data-name="Grupo 180317" transform="translate(832.192 935.124)">
      <g id="Grupo_180316" data-name="Grupo 180316" clip-path="url(#clip-path)">
        <path id="Trazado_231782" data-name="Trazado 231782" d="M105.188,491.423l-1.82-1.16,1.1-1.919,1.936,1.114-1.085,1.965Z" transform="translate(-89.312 -421.938)" fill="#12263f"/>
        <path id="Trazado_231783" data-name="Trazado 231783" d="M491.316,105.49l-1.834.926-1.1-1.91,1.911-1.1,1.027,1.544Z" transform="translate(-421.968 -89.342)" fill="#12263f"/>
        <path id="Trazado_231784" data-name="Trazado 231784" d="M179.5,203.22c-6.625,0-13.251-.048-19.875.026a3.642,3.642,0,0,1-3.869-3.872c.04-13.228.019-26.455.02-39.683a3.462,3.462,0,0,1,3.814-3.834q19.875,0,39.751,0c2.441,0,3.793,1.345,3.794,3.766q0,19.943,0,39.887a3.365,3.365,0,0,1-3.692,3.71q-9.972.006-19.943,0m-21.453-38.293v.749q0,16.859,0,33.718c0,1.259.34,1.6,1.622,1.6q19.811,0,39.621,0c1.256,0,1.612-.36,1.612-1.621q0-16.859,0-33.718c0-.237-.021-.474-.033-.723Zm.007-2.342H200.9c0-.963,0-1.885,0-2.807,0-1.323-.321-1.645-1.635-1.645h-39.6c-.181,0-.363-.01-.542.007a1.033,1.033,0,0,0-1.058,1.026c-.043,1.124-.012,2.251-.012,3.418" transform="translate(-134.576 -134.661)" fill="#12263f"/>
        <path id="Trazado_231785" data-name="Trazado 231785" d="M54.12,24.783H51.906V15.831H9.069c-.011.238-.032.479-.032.719q0,16.862,0,33.724c0,1.267.335,1.594,1.618,1.595H24.8V54.1c-.22.016-.416.043-.612.043q-6.853,0-13.707,0A3.4,3.4,0,0,1,6.918,51.6a4.6,4.6,0,0,1-.111-1.141Q6.8,30.447,6.8,10.43a3.347,3.347,0,0,1,3.618-3.646q20.051-.006,40.1,0a3.35,3.35,0,0,1,3.629,3.445c.027,4.7.009,9.409.007,14.114,0,.131-.024.262-.041.441M51.885,13.514c0-1.184.032-2.292-.021-3.4a1.174,1.174,0,0,0-.456-.838,2.318,2.318,0,0,0-1.154-.259Q30.486,9,10.718,9.013a1.568,1.568,0,0,0-.732.059c-.326.192-.815.477-.835.753-.091,1.22-.039,2.451-.039,3.688Z" transform="translate(-5.877 -5.859)" fill="#12263f"/>
        <path id="Trazado_231786" data-name="Trazado 231786" d="M367.782,30.049l1.046-1.988a35.058,35.058,0,0,1,14.61,14.612l-1.991,1.046a32.962,32.962,0,0,0-13.666-13.67" transform="translate(-317.77 -24.245)" fill="#12263f"/>
        <path id="Trazado_231787" data-name="Trazado 231787" d="M42.72,383.416a35.09,35.09,0,0,1-14.6-14.6l1.982-1.059A32.984,32.984,0,0,0,43.77,381.428l-1.05,1.988" transform="translate(-24.293 -317.753)" fill="#12263f"/>
        <rect id="Rectángulo_58142" data-name="Rectángulo 58142" width="8.928" height="2.197" transform="translate(7.73 31.388)" fill="#12263f"/>
        <rect id="Rectángulo_58143" data-name="Rectángulo 58143" width="8.927" height="2.198" transform="translate(7.731 35.897)" fill="#12263f"/>
        <rect id="Rectángulo_58144" data-name="Rectángulo 58144" width="8.919" height="2.154" transform="translate(7.745 22.389)" fill="#12263f"/>
        <rect id="Rectángulo_58145" data-name="Rectángulo 58145" width="8.915" height="2.149" transform="translate(7.726 26.9)" fill="#12263f"/>
        <rect id="Rectángulo_58146" data-name="Rectángulo 58146" width="8.921" height="2.162" transform="translate(7.743 40.427)" fill="#12263f"/>
        <path id="Trazado_231788" data-name="Trazado 231788" d="M426.546,27.827l1.727,1.446L426.826,31l-1.721-1.442,1.441-1.729" transform="translate(-367.299 -24.043)" fill="#12263f"/>
        <path id="Trazado_231789" data-name="Trazado 231789" d="M3.078,387.117l-1.945,1.125L0,386.3l1.953-1.126,1.125,1.947" transform="translate(0 -332.794)" fill="#12263f"/>
        <path id="Trazado_231790" data-name="Trazado 231790" d="M29.611,425.059l1.445,1.721-1.722,1.454-1.444-1.725,1.721-1.451" transform="translate(-24.097 -367.259)" fill="#12263f"/>
        <path id="Trazado_231791" data-name="Trazado 231791" d="M62.6,461.547l1.447-1.722,1.726,1.438-1.441,1.73L62.6,461.547" transform="translate(-54.089 -397.297)" fill="#12263f"/>
        <path id="Trazado_231792" data-name="Trazado 231792" d="M461.565,62.6l1.446,1.725-1.727,1.448-1.442-1.727,1.722-1.446" transform="translate(-397.313 -54.083)" fill="#12263f"/>
        <path id="Trazado_231793" data-name="Trazado 231793" d="M387.133,3.073l-1.952-1.125L386.3,0l1.946,1.121-1.117,1.952" transform="translate(-332.803)" fill="#12263f"/>
        <rect id="Rectángulo_58147" data-name="Rectángulo 58147" width="2.178" height="2.139" transform="translate(16.734 15.635)" fill="#12263f"/>
        <rect id="Rectángulo_58148" data-name="Rectángulo 58148" width="2.189" height="2.145" transform="translate(21.248 15.643)" fill="#12263f"/>
        <rect id="Rectángulo_58149" data-name="Rectángulo 58149" width="2.139" height="2.158" transform="translate(25.781 15.62)" fill="#12263f"/>
        <rect id="Rectángulo_58150" data-name="Rectángulo 58150" width="2.159" height="2.133" transform="translate(30.28 15.632)" fill="#12263f"/>
        <path id="Trazado_231794" data-name="Trazado 231794" d="M251.222,280.64c-.587-.373-1.15-.691-1.667-1.072a1.084,1.084,0,0,0-1.227-.141.962.962,0,0,0-.606.863c-.425,2.356-.443,2.251-2.742,2.235-.972-.007-1.944.006-2.916,0-.872-.009-1.171-.256-1.363-1.1-.081-.352-.158-.7-.228-1.059-.207-1.048-.957-1.374-1.825-.79-1.861,1.252-1.861,1.252-3.428-.316-.719-.719-1.444-1.433-2.156-2.16a1.149,1.149,0,0,1-.18-1.691c.193-.305.4-.6.6-.9.633-.952.313-1.7-.813-1.915-2.115-.4-2.115-.4-2.115-2.567,0-1.04-.009-2.08,0-3.12a1.143,1.143,0,0,1,1.039-1.279c.351-.084.706-.154,1.06-.225,1.167-.233,1.46-.951.793-1.952-1.176-1.765-1.176-1.765.32-3.261.719-.719,1.437-1.441,2.16-2.156a1.2,1.2,0,0,1,1.851-.175c.266.171.527.35.79.526.965.647,1.68.347,1.909-.8.42-2.112.42-2.112,2.583-2.112,1.017,0,2.035,0,3.052,0a1.209,1.209,0,0,1,1.392,1.162c.068.332.125.666.2,1,.227,1.073.974,1.377,1.887.77,1.823-1.213,1.824-1.213,3.367.326.7.7,1.411,1.4,2.107,2.113a1.235,1.235,0,0,1,.17,1.862c-.172.265-.351.526-.527.789-.643.963-.339,1.682.8,1.9,2.116.4,2.116.4,2.116,2.585,0,1.017.009,2.035,0,3.052a1.211,1.211,0,0,1-1.163,1.395c-.332.068-.666.124-1,.193-1.068.223-1.373.974-.767,1.883,1.217,1.826,1.217,1.826-.331,3.373-.719.719-1.426,1.452-2.166,2.149a6.465,6.465,0,0,1-.977.62m-5.741-.377a3.3,3.3,0,0,1,5.556-2.389l1.91-1.893a2.637,2.637,0,0,0-.27-.43,2.547,2.547,0,0,1-.348-3.067,2.736,2.736,0,0,1,2.538-2.07.684.684,0,0,0,.487-.447c.053-.741.023-1.487.023-2.315a3.323,3.323,0,0,1-2.393-5.605l-1.93-1.948a2.993,2.993,0,0,1-3.545.67,3.079,3.079,0,0,1-2.052-3.034h-1.222c-1.466,0-1.477,0-1.746,1.431a1.43,1.43,0,0,1-1.079,1.241,10.786,10.786,0,0,0-1.62.681,1.244,1.244,0,0,1-1.342-.075c-.446-.3-.9-.594-1.236-.818l-2,1.893a2.948,2.948,0,0,1,.633,3.541c-.615,1.575-1.677,1.862-3.013,2.028v1.192c0,1.454,0,1.479,1.408,1.757a1.477,1.477,0,0,1,1.277,1.126,8.232,8.232,0,0,0,.626,1.5,1.326,1.326,0,0,1-.1,1.519c-.3.416-.569.851-.794,1.19l1.883,1.991a3,3,0,0,1,3.559-.692,3.149,3.149,0,0,1,2.065,3.028Z" transform="translate(-199.205 -220.731)" fill="#12263f"/>
        <rect id="Rectángulo_58151" data-name="Rectángulo 58151" width="2.17" height="2.186" transform="translate(34.794 24.639)" fill="#12263f"/>
        <rect id="Rectángulo_58152" data-name="Rectángulo 58152" width="2.129" height="2.211" transform="translate(25.78 24.61)" fill="#12263f"/>
        <rect id="Rectángulo_58153" data-name="Rectángulo 58153" width="2.144" height="2.185" transform="translate(30.293 24.633)" fill="#12263f"/>
        <rect id="Rectángulo_58154" data-name="Rectángulo 58154" width="2.163" height="2.156" transform="translate(14.5 4.345)" fill="#12263f"/>
        <rect id="Rectángulo_58155" data-name="Rectángulo 58155" width="2.185" height="2.129" transform="translate(5.476 4.351)" fill="#12263f"/>
        <rect id="Rectángulo_58156" data-name="Rectángulo 58156" width="2.216" height="2.129" transform="translate(9.959 4.352)" fill="#12263f"/>
        <path id="Trazado_231795" data-name="Trazado 231795" d="M287.029,318.857a6.757,6.757,0,1,1,6.926-6.612,6.75,6.75,0,0,1-6.926,6.612m-4.335-6.73a4.5,4.5,0,1,0,4.5-4.531,4.506,4.506,0,0,0-4.5,4.531" transform="translate(-242.3 -263.829)" fill="#12263f"/>
      </g>
    </g>
  </g>
</svg>
