<svg xmlns="http://www.w3.org/2000/svg" xmlns:xlink="http://www.w3.org/1999/xlink" width="386.732" height="497.515" viewBox="0 0 386.732 497.515">
  <defs>
    <clipPath id="clip-path">
      <rect id="Rectángulo_58290" data-name="Rectángulo 58290" width="48.449" height="48.457" fill="#12263f"/>
    </clipPath>
    <clipPath id="clip-path-2">
      <rect id="Rectángulo_58301" data-name="Rectángulo 58301" width="52.893" height="52.897" fill="#12263f"/>
    </clipPath>
  </defs>
  <g id="Grupo_180665" data-name="Grupo 180665" transform="translate(-7178.414 7054.986)">
    <path id="Trazado_232370" data-name="Trazado 232370" d="M6080.528-6247.075s104.414,131.312,0,362.388" transform="translate(1102.308 -806.355)" fill="none" stroke="#12263f" stroke-width="5"/>
    <path id="Trazado_232371" data-name="Trazado 232371" d="M10,0H375.275a10,10,0,0,1,10,10V65.754a10,10,0,0,1-10,10H10a10,10,0,0,1-10-10V10A10,10,0,0,1,10,0Z" transform="translate(7179.871 -7009.754)" fill="#5573c6"/>
    <path id="Trazado_232373" data-name="Trazado 232373" d="M10,0H375.275a10,10,0,0,1,10,10V65.754a10,10,0,0,1-10,10H10a10,10,0,0,1-10-10V10A10,10,0,0,1,10,0Z" transform="translate(7179.871 -6810.471)" fill="#f4a338"/>
    <path id="Trazado_232374" data-name="Trazado 232374" d="M10,0H353.833a10,10,0,0,1,10,10V65.754a10,10,0,0,1-10,10H10a10,10,0,0,1-10-10V10A10,10,0,0,1,10,0Z" transform="translate(7201.313 -6910.112)" fill="#4adbd1"/>
    <g id="Trazado_232372" data-name="Trazado 232372" transform="translate(7178.414 -7009.754)" fill="#fff">
      <path d="M 61.3835334777832 75.25405883789062 L 10.00000476837158 75.25405883789062 C 4.761684894561768 75.25405883789062 0.5000048279762268 70.99237823486328 0.5000048279762268 65.75405883789062 L 0.5000048279762268 10.0000057220459 C 0.5000048279762268 4.761685371398926 4.761684894561768 0.5000056028366089 10.00000476837158 0.5000056028366089 L 61.3835334777832 0.5000056028366089 C 66.62185668945312 0.5000056028366089 70.88353729248047 4.761685371398926 70.88353729248047 10.0000057220459 L 70.88353729248047 65.75405883789062 C 70.88353729248047 70.99237823486328 66.62185668945312 75.25405883789062 61.3835334777832 75.25405883789062 Z" stroke="none"/>
      <path d="M 10 1 C 5.037376403808594 1 1 5.037384033203125 1 10 L 1 65.75404357910156 C 1 70.71666717529297 5.037376403808594 74.75405120849609 10 74.75405120849609 L 61.38352966308594 74.75405120849609 C 66.34615325927734 74.75405120849609 70.38352966308594 70.71666717529297 70.38352966308594 65.75404357910156 L 70.38352966308594 10 C 70.38352966308594 5.037384033203125 66.34615325927734 1 61.38352966308594 1 L 10 1 M 10 0 L 61.38352966308594 0 C 66.9063720703125 0 71.38352966308594 4.477149963378906 71.38352966308594 10 L 71.38352966308594 65.75404357910156 C 71.38352966308594 71.27690124511719 66.9063720703125 75.75405120849609 61.38352966308594 75.75405120849609 L 10 75.75405120849609 C 4.477149963378906 75.75405120849609 0 71.27690124511719 0 65.75404357910156 L 0 10 C 0 4.477149963378906 4.477149963378906 0 10 0 Z" stroke="none" fill="#1565c0"/>
    </g>
    <g id="Trazado_232375" data-name="Trazado 232375" transform="translate(7178.414 -6810.471)" fill="#fff">
      <path d="M 61.3835334777832 75.25405883789062 L 10.00000476837158 75.25405883789062 C 4.761684894561768 75.25405883789062 0.5000048279762268 70.99237823486328 0.5000048279762268 65.75405883789062 L 0.5000048279762268 10.0000057220459 C 0.5000048279762268 4.761685371398926 4.761684894561768 0.5000056028366089 10.00000476837158 0.5000056028366089 L 61.3835334777832 0.5000056028366089 C 66.62185668945312 0.5000056028366089 70.88353729248047 4.761685371398926 70.88353729248047 10.0000057220459 L 70.88353729248047 65.75405883789062 C 70.88353729248047 70.99237823486328 66.62185668945312 75.25405883789062 61.3835334777832 75.25405883789062 Z" stroke="none"/>
      <path d="M 10 1 C 5.037376403808594 1 1 5.037384033203125 1 10 L 1 65.75404357910156 C 1 70.71666717529297 5.037376403808594 74.75405120849609 10 74.75405120849609 L 61.38352966308594 74.75405120849609 C 66.34615325927734 74.75405120849609 70.38352966308594 70.71666717529297 70.38352966308594 65.75404357910156 L 70.38352966308594 10 C 70.38352966308594 5.037384033203125 66.34615325927734 1 61.38352966308594 1 L 10 1 M 10 0 L 61.38352966308594 0 C 66.9063720703125 0 71.38352966308594 4.477149963378906 71.38352966308594 10 L 71.38352966308594 65.75404357910156 C 71.38352966308594 71.27690124511719 66.9063720703125 75.75405120849609 61.38352966308594 75.75405120849609 L 10 75.75405120849609 C 4.477149963378906 75.75405120849609 0 71.27690124511719 0 65.75404357910156 L 0 10 C 0 4.477149963378906 4.477149963378906 0 10 0 Z" stroke="none" fill="#1565c0"/>
    </g>
    <g id="Trazado_232376" data-name="Trazado 232376" transform="translate(7199.856 -6910.112)" fill="#fff">
      <path d="M 61.3835334777832 75.25405883789062 L 10.00000476837158 75.25405883789062 C 4.761684894561768 75.25405883789062 0.5000048279762268 70.99237823486328 0.5000048279762268 65.75405883789062 L 0.5000048279762268 10.0000057220459 C 0.5000048279762268 4.761685371398926 4.761684894561768 0.5000056028366089 10.00000476837158 0.5000056028366089 L 61.3835334777832 0.5000056028366089 C 66.62185668945312 0.5000056028366089 70.88353729248047 4.761685371398926 70.88353729248047 10.0000057220459 L 70.88353729248047 65.75405883789062 C 70.88353729248047 70.99237823486328 66.62185668945312 75.25405883789062 61.3835334777832 75.25405883789062 Z" stroke="none"/>
      <path d="M 10 1 C 5.037376403808594 1 1 5.037384033203125 1 10 L 1 65.75404357910156 C 1 70.71666717529297 5.037376403808594 74.75405120849609 10 74.75405120849609 L 61.38352966308594 74.75405120849609 C 66.34615325927734 74.75405120849609 70.38352966308594 70.71666717529297 70.38352966308594 65.75404357910156 L 70.38352966308594 10 C 70.38352966308594 5.037384033203125 66.34615325927734 1 61.38352966308594 1 L 10 1 M 10 0 L 61.38352966308594 0 C 66.9063720703125 0 71.38352966308594 4.477149963378906 71.38352966308594 10 L 71.38352966308594 65.75404357910156 C 71.38352966308594 71.27690124511719 66.9063720703125 75.75405120849609 61.38352966308594 75.75405120849609 L 10 75.75405120849609 C 4.477149963378906 75.75405120849609 0 71.27690124511719 0 65.75404357910156 L 0 10 C 0 4.477149963378906 4.477149963378906 0 10 0 Z" stroke="none" fill="#1565c0"/>
    </g>
    <path id="Trazado_232377" data-name="Trazado 232377" d="M-81.932,0h-2.637V-12.8h2.637Zm4.614-9.51.079,1.1A3.32,3.32,0,0,1-74.5-9.686a2.759,2.759,0,0,1,2.25.888A4.142,4.142,0,0,1-71.5-6.144V0h-2.54V-6.1a1.654,1.654,0,0,0-.352-1.176,1.572,1.572,0,0,0-1.169-.366,1.747,1.747,0,0,0-1.608.916V0h-2.54V-9.51Zm10.784-2.338V-9.51h1.626v1.863h-1.626V-2.9a1.133,1.133,0,0,0,.2.756,1.015,1.015,0,0,0,.773.229,4.051,4.051,0,0,0,.747-.062V-.053a5.229,5.229,0,0,1-1.538.229,2.425,2.425,0,0,1-2.725-2.7V-7.646h-1.389V-9.51h1.389v-2.338ZM-59.115.176a4.668,4.668,0,0,1-3.406-1.283,4.561,4.561,0,0,1-1.314-3.419v-.246a5.745,5.745,0,0,1,.554-2.562,4.064,4.064,0,0,1,1.569-1.74A4.4,4.4,0,0,1-59.4-9.686a3.947,3.947,0,0,1,3.072,1.23A5,5,0,0,1-55.2-4.966v1.037H-61.26a2.36,2.36,0,0,0,.743,1.494,2.245,2.245,0,0,0,1.569.563,2.742,2.742,0,0,0,2.294-1.063l1.248,1.4A3.813,3.813,0,0,1-56.953-.277,5.075,5.075,0,0,1-59.115.176Zm-.29-7.813a1.587,1.587,0,0,0-1.226.512,2.651,2.651,0,0,0-.6,1.466H-57.7v-.2a1.891,1.891,0,0,0-.457-1.311A1.638,1.638,0,0,0-59.405-7.638Zm10.986.51a6.9,6.9,0,0,0-.914-.07,1.86,1.86,0,0,0-1.89.976V0h-2.54V-9.51h2.4l.07,1.134a2.354,2.354,0,0,1,2.118-1.31,2.662,2.662,0,0,1,.791.114ZM-46.327,0V-7.646h-1.415V-9.51h1.415v-.809a3.283,3.283,0,0,1,.918-2.483,3.557,3.557,0,0,1,2.571-.883,5.987,5.987,0,0,1,1.292.174l-.026,1.953a3.238,3.238,0,0,0-.773-.079q-1.433,0-1.433,1.356v.771h1.89v1.863h-1.89V0ZM-35.06,0a2.821,2.821,0,0,1-.255-.853,3.073,3.073,0,0,1-2.4,1.028A3.376,3.376,0,0,1-40.03-.633a2.6,2.6,0,0,1-.918-2.039,2.687,2.687,0,0,1,1.121-2.32,5.529,5.529,0,0,1,3.239-.817h1.169v-.545a1.567,1.567,0,0,0-.338-1.055,1.331,1.331,0,0,0-1.068-.4,1.513,1.513,0,0,0-1.006.308,1.045,1.045,0,0,0-.365.844h-2.54a2.551,2.551,0,0,1,.51-1.529,3.37,3.37,0,0,1,1.441-1.1,5.253,5.253,0,0,1,2.092-.4A4.15,4.15,0,0,1-33.9-8.8a3.09,3.09,0,0,1,1.033,2.483V-2.2a4.546,4.546,0,0,0,.378,2.048V0Zm-2.1-1.767a2.188,2.188,0,0,0,1.037-.25,1.645,1.645,0,0,0,.7-.672V-4.324h-.949q-1.907,0-2.03,1.318l-.009.149a1.017,1.017,0,0,0,.334.782A1.3,1.3,0,0,0-37.16-1.767Zm10.2-.105a1.666,1.666,0,0,0,1.143-.387,1.355,1.355,0,0,0,.457-1.028h2.382a3.258,3.258,0,0,1-.527,1.771A3.48,3.48,0,0,1-24.93-.268a4.442,4.442,0,0,1-1.991.444,4.129,4.129,0,0,1-3.217-1.3A5.13,5.13,0,0,1-31.315-4.7v-.167a5.071,5.071,0,0,1,1.169-3.507,4.08,4.08,0,0,1,3.208-1.31A4,4,0,0,1-24.078-8.67a3.594,3.594,0,0,1,1.094,2.7h-2.382a1.745,1.745,0,0,0-.457-1.206,1.524,1.524,0,0,0-1.16-.464,1.53,1.53,0,0,0-1.34.647,3.749,3.749,0,0,0-.453,2.1v.264a3.8,3.8,0,0,0,.448,2.113A1.549,1.549,0,0,0-26.965-1.872ZM-17.156.176a4.668,4.668,0,0,1-3.406-1.283,4.561,4.561,0,0,1-1.314-3.419v-.246a5.745,5.745,0,0,1,.554-2.562,4.064,4.064,0,0,1,1.569-1.74,4.4,4.4,0,0,1,2.316-.611,3.947,3.947,0,0,1,3.072,1.23,5,5,0,0,1,1.121,3.489v1.037H-19.3a2.36,2.36,0,0,0,.743,1.494,2.245,2.245,0,0,0,1.569.563A2.742,2.742,0,0,0-14.7-2.936l1.248,1.4A3.813,3.813,0,0,1-14.994-.277,5.075,5.075,0,0,1-17.156.176Zm-.29-7.813a1.587,1.587,0,0,0-1.226.512,2.651,2.651,0,0,0-.6,1.466h3.533v-.2A1.891,1.891,0,0,0-16.2-7.174,1.638,1.638,0,0,0-17.446-7.638Zm9.729,2.813a5.731,5.731,0,0,1,1-3.542A3.237,3.237,0,0,1-3.99-9.686,2.913,2.913,0,0,1-1.7-8.648V-13.5H.853V0H-1.441l-.123-1.011A2.989,2.989,0,0,1-4.008.176,3.228,3.228,0,0,1-6.7-1.147,5.916,5.916,0,0,1-7.717-4.825Zm2.54.181a3.775,3.775,0,0,0,.466,2.057,1.516,1.516,0,0,0,1.354.715,1.7,1.7,0,0,0,1.661-1V-6.64a1.675,1.675,0,0,0-1.644-1Q-5.177-7.638-5.177-4.644ZM7.2.176A4.668,4.668,0,0,1,3.792-1.107,4.561,4.561,0,0,1,2.479-4.526v-.246a5.745,5.745,0,0,1,.554-2.562A4.064,4.064,0,0,1,4.6-9.075a4.4,4.4,0,0,1,2.316-.611,3.947,3.947,0,0,1,3.072,1.23,5,5,0,0,1,1.121,3.489v1.037H5.054A2.36,2.36,0,0,0,5.8-2.435a2.245,2.245,0,0,0,1.569.563A2.742,2.742,0,0,0,9.659-2.936l1.248,1.4A3.813,3.813,0,0,1,9.36-.277,5.075,5.075,0,0,1,7.2.176Zm-.29-7.813a1.587,1.587,0,0,0-1.226.512,2.651,2.651,0,0,0-.6,1.466H8.613v-.2a1.891,1.891,0,0,0-.457-1.311A1.638,1.638,0,0,0,6.908-7.638ZM22.729-.967a3.185,3.185,0,0,1-2.6,1.143A3,3,0,0,1,17.793-.7a3.752,3.752,0,0,1-.822-2.575V-9.51h2.54v6.151q0,1.487,1.354,1.487a1.834,1.834,0,0,0,1.775-.9V-9.51h2.549V0H22.8Zm9.527-1.661a.818.818,0,0,0-.461-.734,5.241,5.241,0,0,0-1.481-.479q-3.393-.712-3.393-2.883a2.613,2.613,0,0,1,1.05-2.114,4.237,4.237,0,0,1,2.747-.848,4.56,4.56,0,0,1,2.9.853A2.687,2.687,0,0,1,34.7-6.618h-2.54a1.229,1.229,0,0,0-.352-.9,1.488,1.488,0,0,0-1.1-.356,1.52,1.52,0,0,0-.993.29.916.916,0,0,0-.352.738.783.783,0,0,0,.4.681,4.114,4.114,0,0,0,1.349.448,11.019,11.019,0,0,1,1.6.426,2.628,2.628,0,0,1,2.013,2.558,2.481,2.481,0,0,1-1.116,2.1,4.815,4.815,0,0,1-2.883.8A5.029,5.029,0,0,1,28.6-.25a3.561,3.561,0,0,1-1.455-1.169,2.716,2.716,0,0,1-.527-1.6H29.03a1.326,1.326,0,0,0,.5,1.037,1.987,1.987,0,0,0,1.248.36,1.839,1.839,0,0,0,1.1-.277A.861.861,0,0,0,32.256-2.628Zm9.8,1.661a3.185,3.185,0,0,1-2.6,1.143A3,3,0,0,1,37.121-.7,3.752,3.752,0,0,1,36.3-3.278V-9.51h2.54v6.151q0,1.487,1.354,1.487a1.834,1.834,0,0,0,1.775-.9V-9.51h2.549V0H42.126ZM51.943,0a2.821,2.821,0,0,1-.255-.853,3.073,3.073,0,0,1-2.4,1.028,3.376,3.376,0,0,1-2.316-.809,2.6,2.6,0,0,1-.918-2.039,2.687,2.687,0,0,1,1.121-2.32,5.529,5.529,0,0,1,3.239-.817h1.169v-.545a1.567,1.567,0,0,0-.338-1.055,1.331,1.331,0,0,0-1.068-.4A1.513,1.513,0,0,0,49.17-7.5a1.045,1.045,0,0,0-.365.844h-2.54a2.551,2.551,0,0,1,.51-1.529,3.37,3.37,0,0,1,1.441-1.1,5.253,5.253,0,0,1,2.092-.4A4.15,4.15,0,0,1,53.1-8.8a3.09,3.09,0,0,1,1.033,2.483V-2.2A4.546,4.546,0,0,0,54.51-.149V0Zm-2.1-1.767a2.188,2.188,0,0,0,1.037-.25,1.645,1.645,0,0,0,.7-.672V-4.324h-.949q-1.907,0-2.03,1.318l-.009.149a1.017,1.017,0,0,0,.334.782A1.3,1.3,0,0,0,49.843-1.767ZM61.427-7.128a6.9,6.9,0,0,0-.914-.07,1.86,1.86,0,0,0-1.89.976V0h-2.54V-9.51h2.4l.07,1.134a2.354,2.354,0,0,1,2.118-1.31,2.662,2.662,0,0,1,.791.114ZM65.329,0H62.78V-9.51h2.549Zm-2.7-11.971a1.251,1.251,0,0,1,.382-.94,1.436,1.436,0,0,1,1.042-.369,1.44,1.44,0,0,1,1.037.369,1.244,1.244,0,0,1,.387.94,1.247,1.247,0,0,1-.391.949,1.443,1.443,0,0,1-1.033.369,1.443,1.443,0,0,1-1.033-.369A1.247,1.247,0,0,1,62.631-11.971Zm4.395,7.128a5.64,5.64,0,0,1,.545-2.522,3.989,3.989,0,0,1,1.569-1.714,4.577,4.577,0,0,1,2.377-.606,4.33,4.33,0,0,1,3.142,1.178,4.727,4.727,0,0,1,1.358,3.2l.018.65a4.97,4.97,0,0,1-1.222,3.511A4.247,4.247,0,0,1,71.534.176a4.268,4.268,0,0,1-3.283-1.318,5.058,5.058,0,0,1-1.226-3.586Zm2.54.18a3.555,3.555,0,0,0,.51,2.073,1.682,1.682,0,0,0,1.459.717,1.686,1.686,0,0,0,1.441-.709,3.89,3.89,0,0,0,.519-2.267,3.519,3.519,0,0,0-.519-2.06,1.686,1.686,0,0,0-1.459-.731,1.658,1.658,0,0,0-1.441.726A3.955,3.955,0,0,0,69.565-4.662ZM82.749-2.628a.818.818,0,0,0-.461-.734,5.241,5.241,0,0,0-1.481-.479q-3.393-.712-3.393-2.883a2.613,2.613,0,0,1,1.05-2.114,4.237,4.237,0,0,1,2.747-.848,4.56,4.56,0,0,1,2.9.853,2.687,2.687,0,0,1,1.085,2.215h-2.54a1.229,1.229,0,0,0-.352-.9,1.488,1.488,0,0,0-1.1-.356,1.52,1.52,0,0,0-.993.29.916.916,0,0,0-.352.738.783.783,0,0,0,.4.681,4.114,4.114,0,0,0,1.349.448,11.019,11.019,0,0,1,1.6.426,2.628,2.628,0,0,1,2.013,2.558A2.481,2.481,0,0,1,84.1-.628a4.815,4.815,0,0,1-2.883.8A5.029,5.029,0,0,1,79.1-.25a3.561,3.561,0,0,1-1.455-1.169,2.716,2.716,0,0,1-.527-1.6h2.408a1.326,1.326,0,0,0,.5,1.037,1.987,1.987,0,0,0,1.248.36,1.839,1.839,0,0,0,1.1-.277A.861.861,0,0,0,82.749-2.628Z" transform="translate(7347.17 -6966.772)" fill="#fff"/>
    <path id="Trazado_232378" data-name="Trazado 232378" d="M-69.543,0H-72.18V-12.8h2.637Zm4.614-9.51.079,1.1a3.32,3.32,0,0,1,2.733-1.274,2.759,2.759,0,0,1,2.25.888,4.142,4.142,0,0,1,.756,2.654V0h-2.54V-6.1A1.654,1.654,0,0,0-62-7.272a1.572,1.572,0,0,0-1.169-.366,1.747,1.747,0,0,0-1.608.916V0h-2.54V-9.51Zm10.784-2.338V-9.51h1.626v1.863h-1.626V-2.9a1.133,1.133,0,0,0,.2.756,1.015,1.015,0,0,0,.773.229,4.051,4.051,0,0,0,.747-.062V-.053A5.229,5.229,0,0,1-53.96.176a2.425,2.425,0,0,1-2.725-2.7V-7.646h-1.389V-9.51h1.389v-2.338ZM-46.727.176a4.668,4.668,0,0,1-3.406-1.283,4.561,4.561,0,0,1-1.314-3.419v-.246a5.745,5.745,0,0,1,.554-2.562,4.064,4.064,0,0,1,1.569-1.74,4.4,4.4,0,0,1,2.316-.611,3.947,3.947,0,0,1,3.072,1.23,5,5,0,0,1,1.121,3.489v1.037h-6.056a2.36,2.36,0,0,0,.743,1.494,2.245,2.245,0,0,0,1.569.563,2.742,2.742,0,0,0,2.294-1.063l1.248,1.4A3.813,3.813,0,0,1-44.565-.277,5.075,5.075,0,0,1-46.727.176Zm-.29-7.813a1.587,1.587,0,0,0-1.226.512,2.651,2.651,0,0,0-.6,1.466h3.533v-.2a1.891,1.891,0,0,0-.457-1.311A1.638,1.638,0,0,0-47.017-7.638Zm10.986.51a6.9,6.9,0,0,0-.914-.07,1.86,1.86,0,0,0-1.89.976V0h-2.54V-9.51h2.4l.07,1.134a2.354,2.354,0,0,1,2.118-1.31A2.662,2.662,0,0,1-36-9.571ZM-33.939,0V-7.646h-1.415V-9.51h1.415v-.809a3.283,3.283,0,0,1,.918-2.483,3.557,3.557,0,0,1,2.571-.883,5.987,5.987,0,0,1,1.292.174l-.026,1.953a3.238,3.238,0,0,0-.773-.079q-1.433,0-1.433,1.356v.771h1.89v1.863h-1.89V0Zm11.268,0a2.821,2.821,0,0,1-.255-.853,3.073,3.073,0,0,1-2.4,1.028,3.376,3.376,0,0,1-2.316-.809,2.6,2.6,0,0,1-.918-2.039,2.687,2.687,0,0,1,1.121-2.32A5.529,5.529,0,0,1-24.2-5.81h1.169v-.545a1.567,1.567,0,0,0-.338-1.055,1.331,1.331,0,0,0-1.068-.4,1.513,1.513,0,0,0-1.006.308,1.045,1.045,0,0,0-.365.844h-2.54a2.551,2.551,0,0,1,.51-1.529,3.37,3.37,0,0,1,1.441-1.1,5.253,5.253,0,0,1,2.092-.4,4.15,4.15,0,0,1,2.791.883,3.09,3.09,0,0,1,1.033,2.483V-2.2A4.546,4.546,0,0,0-20.1-.149V0Zm-2.1-1.767a2.188,2.188,0,0,0,1.037-.25,1.645,1.645,0,0,0,.7-.672V-4.324h-.949q-1.907,0-2.03,1.318l-.009.149a1.017,1.017,0,0,0,.334.782A1.3,1.3,0,0,0-24.772-1.767Zm10.2-.105a1.666,1.666,0,0,0,1.143-.387,1.355,1.355,0,0,0,.457-1.028H-10.6a3.258,3.258,0,0,1-.527,1.771A3.48,3.48,0,0,1-12.542-.268a4.442,4.442,0,0,1-1.991.444,4.129,4.129,0,0,1-3.217-1.3A5.13,5.13,0,0,1-18.927-4.7v-.167a5.071,5.071,0,0,1,1.169-3.507,4.08,4.08,0,0,1,3.208-1.31A4,4,0,0,1-11.689-8.67a3.594,3.594,0,0,1,1.094,2.7h-2.382a1.745,1.745,0,0,0-.457-1.206,1.524,1.524,0,0,0-1.16-.464,1.53,1.53,0,0,0-1.34.647,3.749,3.749,0,0,0-.453,2.1v.264a3.8,3.8,0,0,0,.448,2.113A1.549,1.549,0,0,0-14.577-1.872ZM-4.768.176A4.668,4.668,0,0,1-8.174-1.107,4.561,4.561,0,0,1-9.488-4.526v-.246a5.745,5.745,0,0,1,.554-2.562,4.064,4.064,0,0,1,1.569-1.74,4.4,4.4,0,0,1,2.316-.611,3.947,3.947,0,0,1,3.072,1.23A5,5,0,0,1-.857-4.966v1.037H-6.913A2.36,2.36,0,0,0-6.17-2.435,2.245,2.245,0,0,0-4.6-1.872,2.742,2.742,0,0,0-2.307-2.936l1.248,1.4A3.813,3.813,0,0,1-2.606-.277,5.075,5.075,0,0,1-4.768.176Zm-.29-7.813a1.587,1.587,0,0,0-1.226.512,2.651,2.651,0,0,0-.6,1.466h3.533v-.2A1.891,1.891,0,0,0-3.81-7.174,1.638,1.638,0,0,0-5.058-7.638ZM4.671-4.825a5.731,5.731,0,0,1,1-3.542A3.237,3.237,0,0,1,8.4-9.686a2.913,2.913,0,0,1,2.294,1.037V-13.5h2.549V0H10.947l-.123-1.011A2.989,2.989,0,0,1,8.38.176,3.228,3.228,0,0,1,5.687-1.147,5.916,5.916,0,0,1,4.671-4.825Zm2.54.181a3.775,3.775,0,0,0,.466,2.057,1.516,1.516,0,0,0,1.354.715,1.7,1.7,0,0,0,1.661-1V-6.64a1.675,1.675,0,0,0-1.644-1Q7.211-7.638,7.211-4.644ZM19.586.176a4.668,4.668,0,0,1-3.406-1.283,4.561,4.561,0,0,1-1.314-3.419v-.246a5.745,5.745,0,0,1,.554-2.562,4.064,4.064,0,0,1,1.569-1.74,4.4,4.4,0,0,1,2.316-.611,3.947,3.947,0,0,1,3.072,1.23A5,5,0,0,1,23.5-4.966v1.037H17.442a2.36,2.36,0,0,0,.743,1.494,2.245,2.245,0,0,0,1.569.563,2.742,2.742,0,0,0,2.294-1.063l1.248,1.4A3.813,3.813,0,0,1,21.749-.277,5.075,5.075,0,0,1,19.586.176ZM19.3-7.638a1.587,1.587,0,0,0-1.226.512,2.651,2.651,0,0,0-.6,1.466H21v-.2a1.891,1.891,0,0,0-.457-1.311A1.638,1.638,0,0,0,19.3-7.638Zm9.729,2.813a5.731,5.731,0,0,1,1-3.542,3.237,3.237,0,0,1,2.729-1.318,2.913,2.913,0,0,1,2.294,1.037V-13.5H37.6V0H35.3l-.123-1.011A2.989,2.989,0,0,1,32.735.176a3.228,3.228,0,0,1-2.694-1.323A5.916,5.916,0,0,1,29.026-4.825Zm2.54.181a3.775,3.775,0,0,0,.466,2.057,1.516,1.516,0,0,0,1.354.715,1.7,1.7,0,0,0,1.661-1V-6.64a1.675,1.675,0,0,0-1.644-1Q31.566-7.638,31.566-4.644ZM45.075,0a2.821,2.821,0,0,1-.255-.853A3.073,3.073,0,0,1,42.42.176,3.376,3.376,0,0,1,40.1-.633a2.6,2.6,0,0,1-.918-2.039,2.687,2.687,0,0,1,1.121-2.32,5.529,5.529,0,0,1,3.239-.817h1.169v-.545a1.567,1.567,0,0,0-.338-1.055,1.331,1.331,0,0,0-1.068-.4A1.513,1.513,0,0,0,42.3-7.5a1.045,1.045,0,0,0-.365.844H39.4a2.551,2.551,0,0,1,.51-1.529,3.37,3.37,0,0,1,1.441-1.1,5.253,5.253,0,0,1,2.092-.4A4.15,4.15,0,0,1,46.23-8.8a3.09,3.09,0,0,1,1.033,2.483V-2.2a4.546,4.546,0,0,0,.378,2.048V0Zm-2.1-1.767a2.188,2.188,0,0,0,1.037-.25,1.645,1.645,0,0,0,.7-.672V-4.324h-.949q-1.907,0-2.03,1.318l-.009.149a1.017,1.017,0,0,0,.334.782A1.3,1.3,0,0,0,42.974-1.767Zm9.281-10.081V-9.51h1.626v1.863H52.255V-2.9a1.133,1.133,0,0,0,.2.756,1.015,1.015,0,0,0,.773.229,4.051,4.051,0,0,0,.747-.062V-.053A5.229,5.229,0,0,1,52.44.176a2.425,2.425,0,0,1-2.725-2.7V-7.646H48.327V-9.51h1.389v-2.338Zm2.382,7a5.64,5.64,0,0,1,.545-2.522,3.989,3.989,0,0,1,1.569-1.714,4.577,4.577,0,0,1,2.377-.606,4.33,4.33,0,0,1,3.142,1.178,4.727,4.727,0,0,1,1.358,3.2l.018.65a4.97,4.97,0,0,1-1.222,3.511A4.247,4.247,0,0,1,59.146.176a4.268,4.268,0,0,1-3.283-1.318,5.058,5.058,0,0,1-1.226-3.586Zm2.54.18a3.555,3.555,0,0,0,.51,2.073,1.682,1.682,0,0,0,1.459.717,1.686,1.686,0,0,0,1.441-.709,3.89,3.89,0,0,0,.519-2.267,3.519,3.519,0,0,0-.519-2.06,1.686,1.686,0,0,0-1.459-.731,1.658,1.658,0,0,0-1.441.726A3.955,3.955,0,0,0,57.177-4.662ZM70.361-2.628a.818.818,0,0,0-.461-.734,5.241,5.241,0,0,0-1.481-.479q-3.393-.712-3.393-2.883a2.613,2.613,0,0,1,1.05-2.114,4.237,4.237,0,0,1,2.747-.848,4.56,4.56,0,0,1,2.9.853A2.687,2.687,0,0,1,72.8-6.618h-2.54a1.229,1.229,0,0,0-.352-.9,1.488,1.488,0,0,0-1.1-.356,1.52,1.52,0,0,0-.993.29.916.916,0,0,0-.352.738.783.783,0,0,0,.4.681,4.114,4.114,0,0,0,1.349.448,11.019,11.019,0,0,1,1.6.426,2.628,2.628,0,0,1,2.013,2.558,2.481,2.481,0,0,1-1.116,2.1,4.815,4.815,0,0,1-2.883.8A5.029,5.029,0,0,1,66.709-.25a3.561,3.561,0,0,1-1.455-1.169,2.716,2.716,0,0,1-.527-1.6h2.408a1.326,1.326,0,0,0,.5,1.037,1.987,1.987,0,0,0,1.248.36,1.839,1.839,0,0,0,1.1-.277A.861.861,0,0,0,70.361-2.628Z" transform="translate(7344.24 -6767.491)" fill="#12263f"/>
    <path id="Trazado_232379" data-name="Trazado 232379" d="M-60.763-4.263a4.528,4.528,0,0,1-1.525,3.252A5.355,5.355,0,0,1-65.914.176a4.816,4.816,0,0,1-3.872-1.657A6.793,6.793,0,0,1-71.2-6.029v-.782a7.671,7.671,0,0,1,.65-3.252,4.874,4.874,0,0,1,1.859-2.158,5.207,5.207,0,0,1,2.808-.751,5.217,5.217,0,0,1,3.568,1.187,4.866,4.866,0,0,1,1.564,3.331h-2.637a2.673,2.673,0,0,0-.69-1.8,2.555,2.555,0,0,0-1.806-.558,2.24,2.24,0,0,0-1.973.945,5.3,5.3,0,0,0-.672,2.931v.967A5.667,5.667,0,0,0-67.9-2.936a2.2,2.2,0,0,0,1.982.958,2.6,2.6,0,0,0,1.824-.558,2.521,2.521,0,0,0,.69-1.727ZM-53.688,0a2.821,2.821,0,0,1-.255-.853,3.073,3.073,0,0,1-2.4,1.028,3.376,3.376,0,0,1-2.316-.809,2.6,2.6,0,0,1-.918-2.039,2.687,2.687,0,0,1,1.121-2.32,5.529,5.529,0,0,1,3.239-.817h1.169v-.545a1.567,1.567,0,0,0-.338-1.055,1.331,1.331,0,0,0-1.068-.4,1.513,1.513,0,0,0-1.006.308,1.045,1.045,0,0,0-.365.844h-2.54a2.551,2.551,0,0,1,.51-1.529,3.37,3.37,0,0,1,1.441-1.1,5.253,5.253,0,0,1,2.092-.4,4.15,4.15,0,0,1,2.791.883A3.09,3.09,0,0,1-51.5-6.319V-2.2a4.546,4.546,0,0,0,.378,2.048V0Zm-2.1-1.767a2.188,2.188,0,0,0,1.037-.25,1.645,1.645,0,0,0,.7-.672V-4.324H-55q-1.907,0-2.03,1.318l-.009.149a1.017,1.017,0,0,0,.334.782A1.3,1.3,0,0,0-55.789-1.767Zm14.8-2.9a5.7,5.7,0,0,1-1,3.52A3.2,3.2,0,0,1-44.679.176a2.963,2.963,0,0,1-2.329-1V3.656h-2.54V-9.51h2.355l.088.932A2.985,2.985,0,0,1-44.7-9.686a3.22,3.22,0,0,1,2.733,1.3A5.858,5.858,0,0,1-40.988-4.8Zm-2.54-.194A3.763,3.763,0,0,0-44-6.915a1.53,1.53,0,0,0-1.367-.723,1.662,1.662,0,0,0-1.644.917v3.906a1.691,1.691,0,0,0,1.661.943Q-43.528-1.872-43.528-4.861ZM-33.9,0a2.821,2.821,0,0,1-.255-.853,3.073,3.073,0,0,1-2.4,1.028,3.376,3.376,0,0,1-2.316-.809,2.6,2.6,0,0,1-.918-2.039,2.687,2.687,0,0,1,1.121-2.32,5.529,5.529,0,0,1,3.239-.817h1.169v-.545A1.567,1.567,0,0,0-34.6-7.409a1.331,1.331,0,0,0-1.068-.4,1.513,1.513,0,0,0-1.006.308,1.045,1.045,0,0,0-.365.844h-2.54a2.551,2.551,0,0,1,.51-1.529,3.37,3.37,0,0,1,1.441-1.1,5.253,5.253,0,0,1,2.092-.4,4.15,4.15,0,0,1,2.791.883,3.09,3.09,0,0,1,1.033,2.483V-2.2a4.546,4.546,0,0,0,.378,2.048V0ZM-36-1.767a2.188,2.188,0,0,0,1.037-.25,1.645,1.645,0,0,0,.7-.672V-4.324h-.949q-1.907,0-2.03,1.318l-.009.149a1.017,1.017,0,0,0,.334.782A1.3,1.3,0,0,0-36-1.767Zm10.327-3.059a5.731,5.731,0,0,1,1-3.542,3.237,3.237,0,0,1,2.729-1.318,2.913,2.913,0,0,1,2.294,1.037V-13.5h2.549V0H-19.4l-.123-1.011A2.989,2.989,0,0,1-21.968.176a3.228,3.228,0,0,1-2.694-1.323A5.916,5.916,0,0,1-25.677-4.825Zm2.54.181a3.775,3.775,0,0,0,.466,2.057,1.516,1.516,0,0,0,1.354.715,1.7,1.7,0,0,0,1.661-1V-6.64a1.675,1.675,0,0,0-1.644-1Q-23.137-7.638-23.137-4.644ZM-10.762.176a4.668,4.668,0,0,1-3.406-1.283,4.561,4.561,0,0,1-1.314-3.419v-.246a5.745,5.745,0,0,1,.554-2.562,4.064,4.064,0,0,1,1.569-1.74,4.4,4.4,0,0,1,2.316-.611,3.947,3.947,0,0,1,3.072,1.23A5,5,0,0,1-6.851-4.966v1.037h-6.056a2.36,2.36,0,0,0,.743,1.494,2.245,2.245,0,0,0,1.569.563A2.742,2.742,0,0,0-8.3-2.936l1.248,1.4A3.813,3.813,0,0,1-8.6-.277,5.075,5.075,0,0,1-10.762.176Zm-.29-7.813a1.587,1.587,0,0,0-1.226.512,2.651,2.651,0,0,0-.6,1.466h3.533v-.2A1.891,1.891,0,0,0-9.8-7.174,1.638,1.638,0,0,0-11.052-7.638ZM1.411-9.51l.079,1.1A3.32,3.32,0,0,1,4.223-9.686a2.759,2.759,0,0,1,2.25.888,4.142,4.142,0,0,1,.756,2.654V0H4.689V-6.1a1.654,1.654,0,0,0-.352-1.176,1.572,1.572,0,0,0-1.169-.366,1.747,1.747,0,0,0-1.608.916V0H-.98V-9.51ZM13.531.176a4.668,4.668,0,0,1-3.406-1.283A4.561,4.561,0,0,1,8.811-4.526v-.246a5.745,5.745,0,0,1,.554-2.562,4.064,4.064,0,0,1,1.569-1.74,4.4,4.4,0,0,1,2.316-.611,3.947,3.947,0,0,1,3.072,1.23,5,5,0,0,1,1.121,3.489v1.037H11.386a2.36,2.36,0,0,0,.743,1.494,2.245,2.245,0,0,0,1.569.563,2.742,2.742,0,0,0,2.294-1.063l1.248,1.4A3.813,3.813,0,0,1,15.693-.277,5.075,5.075,0,0,1,13.531.176Zm-.29-7.813a1.587,1.587,0,0,0-1.226.512,2.651,2.651,0,0,0-.6,1.466h3.533v-.2a1.891,1.891,0,0,0-.457-1.311A1.638,1.638,0,0,0,13.241-7.638Zm5.273,2.813A5.573,5.573,0,0,1,19.556-8.35a3.375,3.375,0,0,1,2.808-1.336A2.96,2.96,0,0,1,24.8-8.613l.105-.9h2.3V-.316a4.064,4.064,0,0,1-.567,2.171,3.641,3.641,0,0,1-1.6,1.406,5.608,5.608,0,0,1-2.408.483A5.215,5.215,0,0,1,20.6,3.327a3.619,3.619,0,0,1-1.5-1.077L20.219.7a2.975,2.975,0,0,0,2.3,1.063A2.178,2.178,0,0,0,24.1,1.226a2.027,2.027,0,0,0,.563-1.534v-.51a2.938,2.938,0,0,1-2.312.993,3.366,3.366,0,0,1-2.773-1.34A5.572,5.572,0,0,1,18.514-4.72Zm2.54.181a3.489,3.489,0,0,0,.519,2.035A1.648,1.648,0,0,0,23-1.872a1.762,1.762,0,0,0,1.661-.874V-6.764a1.758,1.758,0,0,0-1.644-.874,1.659,1.659,0,0,0-1.437.751A3.933,3.933,0,0,0,21.054-4.644Zm7.708-.2a5.64,5.64,0,0,1,.545-2.522,3.989,3.989,0,0,1,1.569-1.714,4.577,4.577,0,0,1,2.377-.606A4.33,4.33,0,0,1,36.4-8.508a4.727,4.727,0,0,1,1.358,3.2l.018.65a4.97,4.97,0,0,1-1.222,3.511A4.247,4.247,0,0,1,33.271.176a4.268,4.268,0,0,1-3.283-1.318,5.058,5.058,0,0,1-1.226-3.586Zm2.54.18a3.555,3.555,0,0,0,.51,2.073,1.682,1.682,0,0,0,1.459.717,1.686,1.686,0,0,0,1.441-.709,3.89,3.89,0,0,0,.519-2.267,3.519,3.519,0,0,0-.519-2.06,1.686,1.686,0,0,0-1.459-.731,1.658,1.658,0,0,0-1.441.726A3.955,3.955,0,0,0,31.3-4.662Zm11.988,2.79a1.666,1.666,0,0,0,1.143-.387,1.355,1.355,0,0,0,.457-1.028h2.382a3.258,3.258,0,0,1-.527,1.771A3.48,3.48,0,0,1,45.325-.268a4.442,4.442,0,0,1-1.991.444,4.129,4.129,0,0,1-3.217-1.3A5.13,5.13,0,0,1,38.94-4.7v-.167a5.071,5.071,0,0,1,1.169-3.507,4.08,4.08,0,0,1,3.208-1.31A4,4,0,0,1,46.178-8.67a3.594,3.594,0,0,1,1.094,2.7H44.89a1.745,1.745,0,0,0-.457-1.206,1.524,1.524,0,0,0-1.16-.464,1.53,1.53,0,0,0-1.34.647,3.749,3.749,0,0,0-.453,2.1v.264a3.8,3.8,0,0,0,.448,2.113A1.549,1.549,0,0,0,43.291-1.872ZM51.4,0H48.854V-9.51H51.4ZM48.7-11.971a1.251,1.251,0,0,1,.382-.94,1.436,1.436,0,0,1,1.042-.369,1.44,1.44,0,0,1,1.037.369,1.244,1.244,0,0,1,.387.94,1.247,1.247,0,0,1-.391.949,1.443,1.443,0,0,1-1.033.369,1.443,1.443,0,0,1-1.033-.369A1.247,1.247,0,0,1,48.7-11.971ZM53.1-4.843a5.64,5.64,0,0,1,.545-2.522,3.989,3.989,0,0,1,1.569-1.714,4.577,4.577,0,0,1,2.377-.606,4.33,4.33,0,0,1,3.142,1.178,4.727,4.727,0,0,1,1.358,3.2l.018.65a4.97,4.97,0,0,1-1.222,3.511A4.247,4.247,0,0,1,57.608.176a4.268,4.268,0,0,1-3.283-1.318A5.058,5.058,0,0,1,53.1-4.729Zm2.54.18a3.555,3.555,0,0,0,.51,2.073,1.682,1.682,0,0,0,1.459.717,1.686,1.686,0,0,0,1.441-.709,3.89,3.89,0,0,0,.519-2.267,3.519,3.519,0,0,0-.519-2.06,1.686,1.686,0,0,0-1.459-.731,1.658,1.658,0,0,0-1.441.726A3.955,3.955,0,0,0,55.639-4.662ZM68.823-2.628a.818.818,0,0,0-.461-.734,5.241,5.241,0,0,0-1.481-.479q-3.393-.712-3.393-2.883a2.613,2.613,0,0,1,1.05-2.114,4.237,4.237,0,0,1,2.747-.848,4.56,4.56,0,0,1,2.9.853,2.687,2.687,0,0,1,1.085,2.215h-2.54a1.229,1.229,0,0,0-.352-.9,1.488,1.488,0,0,0-1.1-.356,1.52,1.52,0,0,0-.993.29.916.916,0,0,0-.352.738.783.783,0,0,0,.4.681,4.114,4.114,0,0,0,1.349.448,11.019,11.019,0,0,1,1.6.426,2.628,2.628,0,0,1,2.013,2.558,2.481,2.481,0,0,1-1.116,2.1,4.815,4.815,0,0,1-2.883.8A5.029,5.029,0,0,1,65.171-.25a3.561,3.561,0,0,1-1.455-1.169,2.716,2.716,0,0,1-.527-1.6H65.6a1.326,1.326,0,0,0,.5,1.037,1.987,1.987,0,0,0,1.248.36,1.839,1.839,0,0,0,1.1-.277A.861.861,0,0,0,68.823-2.628Z" transform="translate(7358.82 -6867.132)" fill="#12263f"/>
    <g id="LOV5LS.tif" transform="translate(7184.273 -6999.194)">
      <g id="Grupo_161582" data-name="Grupo 161582" transform="translate(0 0)">
        <path id="Trazado_199665" data-name="Trazado 199665" d="M782.318,144.124V174.4a3.073,3.073,0,0,1-3.356,2.181c-4.131-.062-8.264-.02-12.4-.02h-.638c0,1.645-.01,3.216.007,4.787,0,.357-.065.543-.462.611-.566.1-1.119.28-1.709.434l1.09,1.856-4.885,4.907-1.877-1.109c-.144.584-.3,1.092-.389,1.612-.079.466-.3.586-.761.574-1.4-.035-2.8-.013-4.093-.013.113,1.4.265,2.75.32,4.1s.013,2.73.014,4.095H725.869c0-1.536-.018-3.073.006-4.609a13.261,13.261,0,0,1,5.746-11.053,34.28,34.28,0,0,1,3.68-2.055c-.009-.008-.087-.085-.172-.153a7.236,7.236,0,0,1-.467-11.22,1.012,1.012,0,0,0,.316-.848q-.005-11.836,0-23.672a2.7,2.7,0,0,1,2.853-2.849q20.822,0,41.644,0a3.439,3.439,0,0,1,.786.082A2.893,2.893,0,0,1,782.318,144.124Zm-41.847,3.331v20.056a7.433,7.433,0,0,1,5.249,3.382c.1.146.419.2.636.2q14.934.014,29.868.008h.6V147.455Zm6.408,27.275h32.268c1.064,0,1.334-.274,1.334-1.351q0-14.115,0-28.229c0-1.077-.27-1.351-1.335-1.351H738.121c-1.031,0-1.31.281-1.31,1.317q0,11.1,0,22.2v.607a6.734,6.734,0,0,1,1.248-.322c.507-.032.55-.278.549-.7q-.016-10.3-.008-20.6v-.674h40.057v27.329H746.645Zm-1.9.023a5.45,5.45,0,1,0-5.486,5.444A5.495,5.495,0,0,0,744.976,174.753Zm-1.29,6.027c4.634,2.066,5.432,2.783,8.279,7.376a.494.494,0,0,0,.34.219c1.248.016,2.5.01,3.767.01.165-.636.294-1.245.49-1.831a1.248,1.248,0,0,1,.47-.55,1.078,1.078,0,0,1,1.44.086c.215.18.5.28.723.449a.62.62,0,0,0,1-.106c.361-.436.8-.807,1.2-1.216.379-.393.978-.763,1.046-1.21.063-.409-.448-.911-.717-1.365a1.165,1.165,0,0,1,.806-1.873l1.526-.384v-3.758h-3.766a6.307,6.307,0,0,1-2.478,6.958,5.931,5.931,0,0,1-6.695.444c-2.908-1.606-3.847-4.2-3.221-7.4-1.2-.115-1.2-.117-1.612.9A7.608,7.608,0,0,1,743.686,180.78ZM732.759,184.3a11.5,11.5,0,0,0-3.312,3.538c-1.6,2.582-1.8,5.454-1.689,8.38,0,.116.253.31.4.32.547.038,1.1-.012,1.647.024.462.03.582-.147.577-.589-.02-1.952-.009-3.9-.009-5.857v-.809h1.919v.7c0,1.99.012,3.981-.009,5.971-.005.456.141.587.588.58,1.535-.023,3.07-.008,4.6-.011.156,0,.312-.029.53-.051Zm15.892,5c.011.237.028.44.028.643,0,2.009.013,4.018-.008,6.027,0,.445.12.619.579.587a13.287,13.287,0,0,1,1.534,0c.386.018.561-.1.534-.513s0-.834-.006-1.251a13.553,13.553,0,0,0-1.034-5.646,11.738,11.738,0,0,0-3.984-4.856l-5.251,12.22c.244.018.39.039.536.039,1.535,0,3.07-.013,4.6.011.45.007.59-.13.585-.583-.021-2.009-.009-4.018-.009-6.027V189.3Zm10.013-11.051c-.063-.314-.157-.738-.229-1.166-.068-.4-.266-.537-.691-.533-2.446.023-4.892.019-7.338,0a.548.548,0,0,0-.642.455,4.368,4.368,0,0,0,1.28,4.715,4.263,4.263,0,0,0,4.905.788A4.557,4.557,0,0,0,758.664,178.253Zm-14.633,4.7c-.885,2.436-2.39,3.637-4.531,3.633-2.1,0-3.629-1.239-4.48-3.64l-.623.292,5.129,11.928,5.129-11.932Zm-4.491-.963c-.749.093-1.5.193-2.249.277-.352.039-.439.211-.354.539a2.7,2.7,0,0,0,5.179-.014c.072-.292.019-.478-.314-.519C741.052,182.188,740.3,182.091,739.54,181.995Z" transform="translate(-725.863 -141.963)" fill="#12263f"/>
        <path id="Trazado_199666" data-name="Trazado 199666" d="M1104.326,479.511H1093.48v-1.749h10.846Z" transform="translate(-1051.558 -439.468)" fill="#12263f"/>
        <path id="Trazado_199667" data-name="Trazado 199667" d="M1093.411,511.329v-1.745h10.868v1.745Z" transform="translate(-1051.497 -467.661)" fill="#12263f"/>
        <path id="Trazado_199668" data-name="Trazado 199668" d="M1111.267,543.358h-1.726v-1.767h1.726Z" transform="translate(-1065.787 -496.019)" fill="#12263f"/>
        <path id="Trazado_199669" data-name="Trazado 199669" d="M1143.115,543.406h-1.745V541.66h1.745Z" transform="translate(-1093.987 -496.079)" fill="#12263f"/>
        <path id="Trazado_199670" data-name="Trazado 199670" d="M1173.253,543.355v-1.747h1.757v1.747Z" transform="translate(-1122.234 -496.033)" fill="#12263f"/>
        <path id="Trazado_199671" data-name="Trazado 199671" d="M896.261,215.171v1.811h6.32v9.1H888.1v-9.059h6.293v-1.811h-6.329v-3.639H884.43v3.579H869.87v-9.032H884.4V209.7h3.632v-3.58h14.559v9.056Zm-6.338-7.228v5.375h10.824v-5.375Zm-.01,16.293h10.824v-5.343H889.913Zm-7.369-16.287H871.708v5.374h10.835Z" transform="translate(-853.448 -198.799)" fill="#12263f"/>
        <path id="Trazado_199672" data-name="Trazado 199672" d="M882.7,333.946V335.7H870.028v-1.754Z" transform="translate(-853.588 -312.053)" fill="#12263f"/>
        <path id="Trazado_199673" data-name="Trazado 199673" d="M918,365.813v1.751h-8.131v-1.751Z" transform="translate(-888.886 -340.286)" fill="#12263f"/>
        <path id="Trazado_199674" data-name="Trazado 199674" d="M903.707,303.792h-1.739v-1.769h1.739Z" transform="translate(-881.885 -283.77)" fill="#12263f"/>
        <path id="Trazado_199675" data-name="Trazado 199675" d="M935.575,301.938v1.749h-1.758v-1.749Z" transform="translate(-910.103 -283.695)" fill="#12263f"/>
        <path id="Trazado_199676" data-name="Trazado 199676" d="M965.815,301.847h1.744v1.772h-1.744Z" transform="translate(-938.452 -283.614)" fill="#12263f"/>
        <path id="Trazado_199677" data-name="Trazado 199677" d="M1068.682,237.967h-3.608v1.767h3.608Zm-5.477,1.785v-1.791h-1.779v1.791Z" transform="translate(-1023.159 -227.014)" fill="#12263f"/>
        <path id="Trazado_199678" data-name="Trazado 199678" d="M909.949,238h-8.164v1.771h8.164Z" transform="translate(-881.723 -227.045)" fill="#12263f"/>
        <path id="Trazado_199679" data-name="Trazado 199679" d="M1097.021,238.012v1.767h-3.608v-1.767Z" transform="translate(-1051.498 -227.059)" fill="#12263f"/>
        <path id="Trazado_199680" data-name="Trazado 199680" d="M1063.2,239.752h-1.779v-1.791h1.779Z" transform="translate(-1023.159 -227.014)" fill="#12263f"/>
        <path id="Trazado_199681" data-name="Trazado 199681" d="M1061.286,335.6v-1.771h7.253V335.6Z" transform="translate(-1023.035 -311.947)" fill="#12263f"/>
        <path id="Trazado_199682" data-name="Trazado 199682" d="M909.949,238v1.771h-8.164V238Z" transform="translate(-881.723 -227.045)" fill="#12263f"/>
      </g>
    </g>
    <g id="YkxbbZ" transform="translate(7319.583 -6676.07)">
      <g id="Grupo_155502" data-name="Grupo 155502" transform="translate(0)">
        <path id="Trazado_197427" data-name="Trazado 197427" d="M-1474.945,1778.521h9.421c.414.036.827.09,1.242.106,1.595.06,3.194.073,4.785.165,5.663.33,11.291.84,16.863,1.659a124.128,124.128,0,0,1,24.7,5.966c5.522,2.024,10.667,4.435,14.775,7.846,3.327,2.762,5.105,5.881,5.092,9.626-.078,22.847-.046,45.7-.03,68.543a11.549,11.549,0,0,1-3.568,8.216,33.454,33.454,0,0,1-10.857,7.02c-9.459,4.126-19.883,6.3-30.654,7.748q-8.84,1.185-17.83,1.5c-1.451.051-2.9.137-4.349.207h-9.758c-.275-.031-.548-.085-.823-.091a199.8,199.8,0,0,1-20.118-1.465,134.714,134.714,0,0,1-25.009-5.278,52.533,52.533,0,0,1-14.576-6.905c-4.451-3.205-6.787-6.979-6.768-11.618.095-22.827.05-45.654.033-68.481a9.87,9.87,0,0,1,2.541-6.535,30.3,30.3,0,0,1,9.669-7.052,91.666,91.666,0,0,1,21.14-7.183,142.473,142.473,0,0,1,18.213-2.91c3.772-.348,7.565-.583,11.351-.849C-1477.958,1778.649-1476.45,1778.6-1474.945,1778.521Zm4.721,41.393c0,.057.01.113.015.17,5.224-.254,10.455-.452,15.671-.777a140.056,140.056,0,0,0,18.365-2.42,83.7,83.7,0,0,0,17.616-5.209,23.007,23.007,0,0,0,7.965-5.194c2.167-2.411,2.247-4.865.171-7.332a17.67,17.67,0,0,0-5.105-3.892,60.62,60.62,0,0,0-14.2-5.242,161.142,161.142,0,0,0-37.158-4.47,189.6,189.6,0,0,0-29.42,1.685,108.945,108.945,0,0,0-22.319,5.212,34.323,34.323,0,0,0-9.566,4.946c-2.159,1.7-3.675,3.613-3.3,6.036.284,1.819,1.577,3.292,3.255,4.6,3.749,2.923,8.5,4.752,13.5,6.285a124.9,124.9,0,0,0,22.985,4.481A184.569,184.569,0,0,0-1470.224,1819.914Zm61.739-5.091c-.225.111-.336.162-.442.219a85.144,85.144,0,0,1-20.119,7.335,171.808,171.808,0,0,1-37.756,4.526,195.357,195.357,0,0,1-22.8-.917,157.886,157.886,0,0,1-20.017-3.186,89.186,89.186,0,0,1-21.126-7.35c-.375-.194-.752-.385-1.24-.635v.7q0,6.353,0,12.706c0,2.794,0,2.793,2.858,4.725a54.071,54.071,0,0,0,14.975,6.556,131.6,131.6,0,0,0,22.677,4.4c6.1.691,12.237,1.058,18.4,1.146a183.989,183.989,0,0,0,29.976-1.909,107.279,107.279,0,0,0,23.25-5.849,35.389,35.389,0,0,0,10.912-6.238,1.275,1.275,0,0,0,.436-.861c.026-4.942.019-9.883.019-14.825Zm0,45.595c-.226.093-.306.116-.37.153a77.29,77.29,0,0,1-20.074,7.5,172.045,172.045,0,0,1-37.6,4.466,201.508,201.508,0,0,1-20.977-.692,164.136,164.136,0,0,1-19.957-2.855,90.477,90.477,0,0,1-21.8-7.15c-.886-.442-1.739-.918-2.733-1.444v.805c0,3.751.044,7.5-.02,11.254a6.133,6.133,0,0,0,2.155,4.6,26.476,26.476,0,0,0,7.963,4.854,84.26,84.26,0,0,0,16.423,4.938,168.637,168.637,0,0,0,30.387,3.228,189.339,189.339,0,0,0,33.48-2.031,108.01,108.01,0,0,0,18.424-4.362,41.545,41.545,0,0,0,10.911-5.239c2.51-1.815,3.957-3.9,3.827-6.577-.173-3.545-.043-7.1-.043-10.648Zm-123.507-22.269c0,4.906,0,9.685.016,14.463a.92.92,0,0,0,.375.637,42.027,42.027,0,0,0,3.5,2.6c5.51,3.43,12.023,5.549,18.833,7.221a157.522,157.522,0,0,0,32.342,4.134,187.226,187.226,0,0,0,32.848-1.675,113.378,113.378,0,0,0,22.067-5.189c4.9-1.75,9.453-3.852,12.957-6.948a1.578,1.578,0,0,0,.544-1.074c.036-4.517.024-9.034.024-13.551v-.626c-.5.272-.874.472-1.244.673a80.112,80.112,0,0,1-19.607,7.111,170.181,170.181,0,0,1-36.021,4.337,200.99,200.99,0,0,1-24.979-.925,160.211,160.211,0,0,1-18.882-2.976,86.949,86.949,0,0,1-20.165-6.834C-1530.219,1839.1-1531.033,1838.655-1531.988,1838.148Z" transform="translate(1542.407 -1778.521)" fill="#12263f"/>
        <path id="Trazado_197428" data-name="Trazado 197428" d="M-845.688,2171.9a4.8,4.8,0,0,1-4.752,4.854,4.9,4.9,0,0,1-4.86-4.789,4.826,4.826,0,0,1,4.8-4.826A4.737,4.737,0,0,1-845.688,2171.9Z" transform="translate(970.897 -2121.246)" fill="#12263f"/>
        <path id="Trazado_197429" data-name="Trazado 197429" d="M-845.677,2549.167a4.789,4.789,0,0,1-4.768,4.838,4.892,4.892,0,0,1-4.841-4.8,4.791,4.791,0,0,1,4.807-4.8A4.711,4.711,0,0,1-845.677,2549.167Z" transform="translate(970.885 -2453.953)" fill="#12263f"/>
        <path id="Trazado_197430" data-name="Trazado 197430" d="M-850.455,2365.178a4.81,4.81,0,0,1-4.844-4.763,4.888,4.888,0,0,1,4.809-4.837,4.788,4.788,0,0,1,4.805,4.8A4.726,4.726,0,0,1-850.455,2365.178Z" transform="translate(970.895 -2287.427)" fill="#12263f"/>
      </g>
    </g>
    <path id="Trazado_232368" data-name="Trazado 232368" d="M6.648,10.1V.229c-1.58,0-2.96.062-4.333-.015C.34.1,24.982.092,22.727.214c-1.373.074-2.753.014-4.309.014v9.861a38.135,38.135,0,0,1,4.507.035c1.907.233,2.809,1.405,1.686,3.174-3.369,5.306-6.83,10.556-10.33,15.777-1.022,1.524-2.431,1.51-3.444,0Q5.575,21.255.5,13.308C-.64,11.525.281,10.375,2.18,10.13A36.939,36.939,0,0,1,6.648,10.1Zm4.113-8.561c0,2.171.039,4.344-.015,6.514-.04,1.613.3,3.552-.464,4.733-.656,1.009-2.651,1.149-4.315,1.77l6.588,10.062,6.813-10.419c-5.02-.485-5.021-.485-5.025-4.919,0-2.606.2-5.23-.043-7.812C14.091-.752,10.761-.225,10.762,1.535Z" transform="translate(7446.12 -6685.659) rotate(180)" fill="#12263f"/>
    <path id="Trazado_232369" data-name="Trazado 232369" d="M6.675,42.585V32.718c-1.58,0-2.96.062-4.333-.015-1.975-.11,22.666-.122,20.412,0-1.373.074-2.753.014-4.309.014v9.861a38.134,38.134,0,0,1,4.507.035c1.907.233,2.809,1.405,1.686,3.174-3.369,5.306-6.83,10.556-10.33,15.777-1.022,1.524-2.431,1.51-3.444,0Q5.6,53.745.522,45.8C-.613,44.015.308,42.865,2.207,42.62A36.939,36.939,0,0,1,6.675,42.585Zm4.113-8.561c0,2.171.039,4.344-.015,6.514-.04,1.613.3,3.552-.464,4.733C9.654,46.281,7.659,46.42,6,47.041L12.583,57.1,19.4,46.684c-5.02-.485-5.021-.485-5.025-4.919,0-2.606.2-5.23-.043-7.812C14.118,31.738,10.787,32.265,10.788,34.025Z" transform="translate(7346.166 -6748.362)" fill="#12263f"/>
    <g id="Grupo_180664" data-name="Grupo 180664" transform="translate(7211.9 -6895.941)">
      <g id="Grupo_180405" data-name="Grupo 180405" transform="translate(0)" clip-path="url(#clip-path)">
        <path id="Trazado_231929" data-name="Trazado 231929" d="M84.83,193.15a1.075,1.075,0,0,1-.48-1.045,3.831,3.831,0,0,0-.085-1.808c-.25-.459-.954-.673-1.461-.99-.814-.51-1.624-1.027-2.448-1.52a1,1,0,0,1-.545-.96c.018-1.371,0-2.743.008-4.114,0-.663.251-.916.909-.917q3.051,0,6.1,0h.558v-.552q0-3,0-6.006a6.1,6.1,0,0,1,4.439-6.046c.089-.029.176-.065.314-.118a5.275,5.275,0,0,1-1.7-4.526,5.152,5.152,0,0,1,1.851-3.453,5.32,5.32,0,0,1,7.037.164,5.4,5.4,0,0,1-.027,7.86c1.664.581,2.541,2.006,3.562,3.276.6.749,1.208,1.494,1.806,2.246a.9.9,0,0,0,.812.359c.787-.03,1.576-.016,2.364-.009a2.267,2.267,0,0,1,.025,4.533c-1.829.011-3.658.006-5.487,0a4.173,4.173,0,0,1-.608-.091v2.37h.494l8.324,0c.8,0,1.012.214,1.013,1,0,1.387-.016,2.775.009,4.161a1.076,1.076,0,0,1-.608,1.068c-1.193.672-2.367,1.377-3.56,2.049a.625.625,0,0,0-.393.66c.032.455-.014.915.014,1.37a1.044,1.044,0,0,1-.481,1.044Zm22.237-4.614c1.017-.59,1.955-1.131,2.888-1.681a.309.309,0,0,0,.133-.22c.009-1.1.006-2.2.006-3.289H81.331c0,.572,0,1.106,0,1.641a3.713,3.713,0,0,0,.079,1.576c.215.4.825.588,1.265.864.54.338,1.083.669,1.682,1.039,0-.469,0-.845,0-1.221,0-.575.263-.892.734-.9.5-.011.774.309.775.909q0,1.939,0,3.878v.482h19.67c.006-.116.016-.208.016-.3,0-1.372,0-2.743,0-4.115a.753.753,0,0,1,.738-.856c.478-.011.762.3.77.867.006.409,0,.819,0,1.328m-6.812-6.754c0-.947-.047-1.847.014-2.74a2.114,2.114,0,0,0-.747-1.949.741.741,0,0,1-.086-1.159.78.78,0,0,1,1.168.089c.6.577,1.19,1.174,1.8,1.738a.937.937,0,0,0,.565.243c1.561.019,3.121.014,4.682.009.6,0,.932-.287.919-.775-.012-.471-.327-.735-.908-.738-.82,0-1.643-.044-2.458.018a1.646,1.646,0,0,1-1.552-.754c-1.092-1.405-2.233-2.773-3.363-4.148a3.174,3.174,0,0,0-2.662-1.177c-1.292.024-2.585,0-3.878.006A4.672,4.672,0,0,0,88.9,175.3q0,3,0,6.005c0,.152.015.3.023.465h2.247c0-1.483,0-2.931,0-4.38,0-.565.281-.883.754-.882s.754.323.756.884c0,1.166,0,2.333,0,3.5,0,.294,0,.588,0,.9ZM95.7,161.361a3.782,3.782,0,1,0,3.8,3.777,3.794,3.794,0,0,0-3.8-3.777" transform="translate(-72.246 -144.693)" fill="#12263f"/>
        <path id="Trazado_231930" data-name="Trazado 231930" d="M0,17.46a2.209,2.209,0,0,1,2.414-1.538c1.733.054,3.469.012,5.2.015.627,0,.988.293.973.774-.014.46-.376.743-.963.744q-2.72,0-5.44,0c-.547,0-.674.122-.674.659q0,3.878,0,7.757c0,.511.137.656.637.657q3.9.006,7.806,0c.5,0,.64-.145.643-.649,0-.678,0-1.356,0-2.034a.776.776,0,0,1,.751-.853.768.768,0,0,1,.755.846c.006.772.012,1.545,0,2.318a1.927,1.927,0,0,1-1.871,1.886c-2.791.018-5.582.024-8.373,0A2.023,2.023,0,0,1,0,26.542Z" transform="translate(0 -14.411)" fill="#12263f"/>
        <path id="Trazado_231931" data-name="Trazado 231931" d="M0,177.155a2.212,2.212,0,0,1,2.413-1.537c1.763.053,3.53.008,5.295.017.7,0,1.091.585.775,1.126a.869.869,0,0,1-.849.4c-1.781-.008-3.562,0-5.342,0-.7,0-.779.082-.779.791q0,3.781,0,7.563c0,.6.12.726.709.726q3.829,0,7.659,0c.6,0,.717-.122.719-.715,0-.646,0-1.292,0-1.938,0-.545.307-.885.767-.878a.761.761,0,0,1,.74.855c.005.756.009,1.513,0,2.269a1.932,1.932,0,0,1-1.932,1.919q-4.113.013-8.226,0A2.051,2.051,0,0,1,0,186.237Z" transform="translate(0 -158.97)" fill="#12263f"/>
        <path id="Trazado_231932" data-name="Trazado 231932" d="M333.217,18.139c.427.15.738.334.721.807s-.34.67-.757.8c0,.886-.048,1.77.011,2.648a2.46,2.46,0,0,1-2.284,2.635c0,.257.007.52,0,.783a2.27,2.27,0,0,1-4.539-.016,1.34,1.34,0,0,0-.1-.644,11.2,11.2,0,0,1-1.5-.885,1.952,1.952,0,0,1-.68-1.6c.009-.976,0-1.952,0-2.93-.41-.114-.721-.3-.752-.756s.269-.673.706-.835a4.59,4.59,0,0,0-.343-.613c-.8-1.03-1.657-2.023-2.426-3.078A9.151,9.151,0,0,1,327.072.14a9.032,9.032,0,0,1,10.557,7.737,9.024,9.024,0,0,1-2.117,7.248c-.655.786-1.29,1.588-1.924,2.391a5.8,5.8,0,0,0-.371.623m-1.579.03a8.788,8.788,0,0,1,2.161-3.391c.052-.059.106-.117.157-.176a8.246,8.246,0,0,0,2.188-4.608,7.562,7.562,0,1,0-14.842.976,9.311,9.311,0,0,0,2.244,3.882,8.427,8.427,0,0,1,2.094,3.318Zm-6.028,1.546c0,1.017-.016,1.99.007,2.962a.82.82,0,0,0,.846.79q2.171.021,4.342,0a.8.8,0,0,0,.845-.731c.026-1,.008-2,.008-3.021Zm2.278,5.3c.017.53-.157,1.09.39,1.358a.963.963,0,0,0,.818-.063c.461-.315.283-.83.27-1.295Z" transform="translate(-289.27 0)" fill="#12263f"/>
        <path id="Trazado_231933" data-name="Trazado 231933" d="M151.427,103.907h6.38a3.573,3.573,0,0,1,.472.012.693.693,0,0,1,.664.723.712.712,0,0,1-.619.77,1.872,1.872,0,0,1-.424.015H144.857a1.855,1.855,0,0,1-.424-.015.715.715,0,0,1-.619-.771.7.7,0,0,1,.667-.722,3.7,3.7,0,0,1,.472-.012h6.475" transform="translate(-130.181 -94.057)" fill="#12263f"/>
        <path id="Trazado_231934" data-name="Trazado 231934" d="M149.847,73.506c-1.59,0-3.18,0-4.77,0-.389,0-.728-.142-.8-.518a1.263,1.263,0,0,1,.214-.8.735.735,0,0,1,.546-.191q4.864-.017,9.728,0a.73.73,0,0,1,.8.734.742.742,0,0,1-.816.777c-1.637.008-3.274,0-4.911,0" transform="translate(-130.597 -65.164)" fill="#12263f"/>
        <path id="Trazado_231935" data-name="Trazado 231935" d="M34.937,43.436l2.991-3a2.683,2.683,0,0,1,.342-.325.723.723,0,0,1,.99.052.715.715,0,0,1,.095.986,2.772,2.772,0,0,1-.386.414q-1.655,1.655-3.311,3.308c-.531.528-.874.528-1.406,0q-1.007-1-2.006-2.006a.776.776,0,1,1,1.09-1.071c.523.523,1.036,1.058,1.6,1.637" transform="translate(-28.896 -36.158)" fill="#12263f"/>
        <path id="Trazado_231936" data-name="Trazado 231936" d="M34.956,203.2l2.964-2.954a4.522,4.522,0,0,1,.34-.328.758.758,0,0,1,1.076,1.063,4.942,4.942,0,0,1-.393.408q-1.638,1.639-3.278,3.276c-.512.51-.868.514-1.372.015q-1.009-1-2.007-2.005c-.413-.416-.455-.868-.124-1.2s.79-.293,1.2.117c.524.521,1.04,1.05,1.593,1.61" transform="translate(-28.913 -180.801)" fill="#12263f"/>
        <path id="Trazado_231937" data-name="Trazado 231937" d="M147.989,40.033c1.07,0,2.141,0,3.211,0,.6,0,.916.282.9.778-.013.468-.333.737-.9.738q-3.258,0-6.516,0c-.568,0-.892-.272-.905-.737-.014-.492.306-.776.9-.778,1.1-.005,2.2,0,3.305,0" transform="translate(-130.15 -36.237)" fill="#12263f"/>
        <path id="Trazado_231938" data-name="Trazado 231938" d="M386.684,91.447c1.209-1.074,2.393-2.13,3.582-3.179a1.307,1.307,0,0,1,.466-.3.7.7,0,0,1,.851.336.737.737,0,0,1-.164.981c-.605.55-1.22,1.091-1.832,1.634q-1.129,1-2.261,2a.8.8,0,0,1-1.281.011q-1.151-1.014-2.3-2.036c-.438-.391-.507-.832-.195-1.191s.768-.34,1.2.042c.638.557,1.268,1.123,1.922,1.7" transform="translate(-347.027 -79.595)" fill="#12263f"/>
        <path id="Trazado_231939" data-name="Trazado 231939" d="M380.686,32.765a.707.707,0,0,1-.665.773,3.78,3.78,0,0,0-3.246,1.945.731.731,0,0,1-1.04.219.779.779,0,0,1-.272-1.033,5.078,5.078,0,0,1,4.479-2.651.732.732,0,0,1,.744.747" transform="translate(-339.793 -28.978)" fill="#12263f"/>
        <path id="Trazado_231940" data-name="Trazado 231940" d="M360.186,81.555a.76.76,0,0,1-.748-.757.74.74,0,0,1,.79-.752.724.724,0,0,1,.717.771.745.745,0,0,1-.76.738" transform="translate(-325.369 -72.459)" fill="#12263f"/>
      </g>
    </g>
    <g id="Grupo_180663" data-name="Grupo 180663" transform="translate(7187.835 -6799.028)">
      <g id="Grupo_180407" data-name="Grupo 180407" transform="translate(0)" clip-path="url(#clip-path-2)">
        <path id="Trazado_231941" data-name="Trazado 231941" d="M0,37.505c2.082,0,4.165.014,6.247.006a.834.834,0,0,0,.5-.2q5.295-4.612,10.575-9.24c.051-.044.094-.1.144-.149a.79.79,0,0,0-.906-.626c-1.721.029-3.442.016-5.164.01a2.6,2.6,0,0,1-2.876-2.876C8.51,18.386,8.528,12.344,8.507,6.3A2.742,2.742,0,0,1,11.437,3.4c4.733.056,9.467.026,14.2.008a1.562,1.562,0,0,0,.872-.308C27.538,2.316,28.539,1.5,29.542.689A2.951,2.951,0,0,1,31.486,0C34.842.016,38.2.006,41.555.008a2.586,2.586,0,0,1,2.82,2.775c.015.723,0,1.446,0,2.169q0,9.682,0,19.364a2.653,2.653,0,0,1-2.873,2.991c-1.721-.006-3.442,0-5.164,0h-.553l-.057.116c.11.11.214.227.331.33q5.438,4.762,10.886,9.512a1.149,1.149,0,0,0,.687.246c1.549.021,3.1.011,4.647.011h.607V52.9H39.256V37.508H44.6l-9.928-8.686a.864.864,0,0,0-.147.1,11.1,11.1,0,0,1-6.918,3.442c-.116.013-.288.266-.293.412-.027.912-.014,1.825-.014,2.737v2.008h5.964V52.9H19.628V37.506H25.51c.037-.069.066-.1.066-.129.006-1.566.019-3.131,0-4.7,0-.116-.232-.294-.384-.331-.615-.151-1.251-.221-1.861-.389a10.991,10.991,0,0,1-4.7-2.75l-9.5,8.315h4.505V52.9H0ZM16.188,25.6a11.341,11.341,0,0,1-.494-6.951,10.868,10.868,0,0,1,3.667-5.838,10.706,10.706,0,0,1,6.4-2.546A10.58,10.58,0,0,1,34.2,13.429C37.614,16.886,38.3,21,36.742,25.6c1.6,0,3.129,0,4.659,0,.977,0,1.257-.283,1.257-1.262q0-7.619,0-15.237c0-.166-.015-.333-.023-.5H10.256c-.009.114-.02.2-.02.279q0,7.825,0,15.651c0,.746.324,1.063,1.081,1.071,1.188.013,2.376,0,3.564,0h1.306m9.328-13.577a8.77,8.77,0,0,0-3.49,1.071,1.351,1.351,0,0,0,.063.147c.122.187.236.381.371.558a6.721,6.721,0,0,1,1.421,4.725A2.2,2.2,0,0,0,25.02,20.8,2.881,2.881,0,0,1,26.4,23.9a2.957,2.957,0,0,1-2.383,2.49,3.824,3.824,0,0,1-3.858-1.124c-.382-.394-.694-.856-1.081-1.245a2.764,2.764,0,0,0-1.8-.866A9.274,9.274,0,0,0,27.325,30.61a6.01,6.01,0,0,1,8.019-6.353l.3-1.192c-.17-.009-.3-.024-.439-.022a5.653,5.653,0,0,1-5.663-3.592,4.417,4.417,0,0,0-1.491-1.806,5.5,5.5,0,0,1-2.267-3.277,20.232,20.232,0,0,1-.267-2.346M42.658,6.8c0-1.366.006-2.672,0-3.979,0-.792-.3-1.087-1.094-1.088-3.339,0-6.678-.011-10.016.014a1.753,1.753,0,0,0-.977.345c-1.15.874-2.273,1.785-3.388,2.7a1.491,1.491,0,0,1-1.029.355q-7.28-.017-14.56-.007c-.172,0-.344,0-.516.006a.758.758,0,0,0-.788.673,8.735,8.735,0,0,0-.061.977ZM11.9,39.286H1.774V51.138H11.9Zm9.487,11.841H31.508V39.277H21.385ZM51.124,39.295H41V51.144H51.124ZM20.518,14.087A9.254,9.254,0,0,0,17.1,21.051c0,.109.181.283.312.329.515.179,1.064.272,1.564.484a5.541,5.541,0,0,1,2.178,1.926,2.4,2.4,0,0,0,1.363.957,1.8,1.8,0,0,0,2.082-.823c.318-.705.057-1.3-.779-1.9a5.826,5.826,0,0,1-.993-.886,3.274,3.274,0,0,1-.64-2.532,6.028,6.028,0,0,0-1.668-4.523m6.837-2.049a4,4,0,0,0,1.407,3.949,8.763,8.763,0,0,1,2.611,3.251A3.856,3.856,0,0,0,35.8,21.216a9.318,9.318,0,0,0-8.447-9.178m7.251,13.819a4,4,0,0,0-3.8.564,4.172,4.172,0,0,0-1.769,3.836c1.862-.215,4.558-2.346,5.569-4.4" transform="translate(0 -0.001)" fill="#12263f"/>
        <rect id="Rectángulo_58291" data-name="Rectángulo 58291" width="8.48" height="1.672" transform="translate(32.441 3.452)" fill="#12263f"/>
        <rect id="Rectángulo_58292" data-name="Rectángulo 58292" width="6.74" height="1.666" transform="translate(3.451 40.958)" fill="#12263f"/>
        <rect id="Rectángulo_58293" data-name="Rectángulo 58293" width="6.771" height="1.674" transform="translate(3.435 44.374)" fill="#12263f"/>
        <rect id="Rectángulo_58294" data-name="Rectángulo 58294" width="6.752" height="1.675" transform="translate(3.445 47.777)" fill="#12263f"/>
        <rect id="Rectángulo_58295" data-name="Rectángulo 58295" width="6.763" height="1.678" transform="translate(23.065 40.964)" fill="#12263f"/>
        <rect id="Rectángulo_58296" data-name="Rectángulo 58296" width="6.769" height="1.66" transform="translate(23.071 44.381)" fill="#12263f"/>
        <rect id="Rectángulo_58297" data-name="Rectángulo 58297" width="6.732" height="1.693" transform="translate(23.08 47.785)" fill="#12263f"/>
        <rect id="Rectángulo_58298" data-name="Rectángulo 58298" width="6.767" height="1.656" transform="translate(42.677 40.972)" fill="#12263f"/>
        <rect id="Rectángulo_58299" data-name="Rectángulo 58299" width="6.737" height="1.68" transform="translate(42.702 44.372)" fill="#12263f"/>
        <rect id="Rectángulo_58300" data-name="Rectángulo 58300" width="6.766" height="1.671" transform="translate(42.688 47.787)" fill="#12263f"/>
      </g>
    </g>
  </g>
</svg>
