<svg xmlns="http://www.w3.org/2000/svg" xmlns:xlink="http://www.w3.org/1999/xlink" width="588.699" height="367.937" viewBox="0 0 588.699 367.937">
  <defs>
    <clipPath id="clip-path">
      <rect id="Rectángulo_58455" data-name="Rectángulo 58455" width="101.168" height="101.17" fill="#12263f"/>
    </clipPath>
    <clipPath id="clip-path-2">
      <rect id="Rectángulo_58457" data-name="Rectángulo 58457" width="74.568" height="93.174" fill="#12263f"/>
    </clipPath>
  </defs>
  <g id="Grupo_180659" data-name="Grupo 180659" transform="translate(-504.266 -2239.651)">
    <g id="YkxbbZ" transform="translate(1005.668 2347.996)">
      <g id="Grupo_155502" data-name="Grupo 155502" transform="translate(0)">
        <path id="Trazado_197427" data-name="Trazado 197427" d="M-1502.557,1778.521h5.565c.244.029.488.073.734.086.942.049,1.886.06,2.826.136a83.178,83.178,0,0,1,9.961,1.362,56.979,56.979,0,0,1,14.59,4.9,28.042,28.042,0,0,1,8.728,6.443,11.588,11.588,0,0,1,3.008,7.905q-.069,28.143-.018,56.286a11.538,11.538,0,0,1-2.108,6.747,20.518,20.518,0,0,1-6.414,5.765c-5.588,3.388-11.745,5.177-18.107,6.363a78.3,78.3,0,0,1-10.532,1.229c-.857.042-1.713.112-2.569.17h-5.764a3.848,3.848,0,0,0-.486-.075,85.567,85.567,0,0,1-11.884-1.2,60.771,60.771,0,0,1-14.773-4.334,28.37,28.37,0,0,1-8.61-5.671,12.882,12.882,0,0,1-4-9.54c.056-18.745.029-37.49.02-56.235a10.085,10.085,0,0,1,1.5-5.366,19.646,19.646,0,0,1,5.712-5.791,44.844,44.844,0,0,1,12.487-5.9,62.708,62.708,0,0,1,10.759-2.389c2.228-.286,4.469-.479,6.705-.7C-1504.337,1778.626-1503.446,1778.583-1502.557,1778.521Zm2.789,33.991c0,.047.006.093.009.14,3.086-.209,6.176-.371,9.257-.638a60.988,60.988,0,0,0,10.849-1.987,39.719,39.719,0,0,0,10.406-4.277,14.169,14.169,0,0,0,4.7-4.265,5.291,5.291,0,0,0,.1-6.021,11.694,11.694,0,0,0-3.016-3.2,30.274,30.274,0,0,0-8.386-4.3,70.055,70.055,0,0,0-21.949-3.671,81.037,81.037,0,0,0-17.379,1.383,49.8,49.8,0,0,0-13.184,4.28,19.155,19.155,0,0,0-5.651,4.061,6.171,6.171,0,0,0-1.947,4.957,6.655,6.655,0,0,0,1.923,3.778,22.392,22.392,0,0,0,7.976,5.161,55.913,55.913,0,0,0,13.577,3.68A78.746,78.746,0,0,0-1499.768,1812.512Zm36.47-4.181c-.133.091-.2.133-.261.18a42.374,42.374,0,0,1-11.884,6.023,74.653,74.653,0,0,1-22.3,3.717,83.259,83.259,0,0,1-13.468-.753,69.489,69.489,0,0,1-11.824-2.616,43.88,43.88,0,0,1-12.479-6.035c-.221-.159-.444-.316-.732-.521v.574q0,5.217,0,10.434c0,2.295,0,2.293,1.688,3.88a28.427,28.427,0,0,0,8.846,5.383,58.9,58.9,0,0,0,13.4,3.617,79.962,79.962,0,0,0,10.869.941,78.759,78.759,0,0,0,17.707-1.568,49.561,49.561,0,0,0,13.734-4.8,20.567,20.567,0,0,0,6.446-5.122,1.232,1.232,0,0,0,.258-.707c.016-4.058.011-8.116.011-12.173Zm0,37.441a2.449,2.449,0,0,0-.219.126,38.737,38.737,0,0,1-11.858,6.158,74.729,74.729,0,0,1-22.209,3.667,85.794,85.794,0,0,1-12.391-.568,71.773,71.773,0,0,1-11.789-2.345,43.918,43.918,0,0,1-12.876-5.871c-.523-.363-1.027-.754-1.615-1.186v.661c0,3.08.026,6.161-.012,9.241a6.013,6.013,0,0,0,1.273,3.774,15.819,15.819,0,0,0,4.7,3.986,40.1,40.1,0,0,0,9.7,4.055,72.905,72.905,0,0,0,17.95,2.651,81.016,81.016,0,0,0,19.777-1.668,49.41,49.41,0,0,0,10.883-3.582,22.544,22.544,0,0,0,6.446-4.3,7,7,0,0,0,2.26-5.4c-.1-2.911-.025-5.829-.025-8.744Zm-72.956-18.287c0,4.028,0,7.953.01,11.877a.852.852,0,0,0,.221.523,27.42,27.42,0,0,0,2.069,2.137,32.694,32.694,0,0,0,11.124,5.93,68.613,68.613,0,0,0,19.1,3.4,80,80,0,0,0,19.4-1.376,51.869,51.869,0,0,0,13.035-4.261,22.274,22.274,0,0,0,7.654-5.706,1.522,1.522,0,0,0,.321-.882c.021-3.709.014-7.418.014-11.127v-.514c-.3.223-.516.388-.735.553a39.833,39.833,0,0,1-11.582,5.839,73.952,73.952,0,0,1-21.277,3.562,85.657,85.657,0,0,1-14.756-.76,70.457,70.457,0,0,1-11.154-2.444,42.5,42.5,0,0,1-11.912-5.612C-1535.208,1828.271-1535.689,1827.9-1536.252,1827.486Z" transform="translate(1542.407 -1778.521)" fill="#12263f"/>
        <path id="Trazado_197428" data-name="Trazado 197428" d="M-849.623,2169.952a2.832,2.832,0,0,1-2.807,2.867,2.893,2.893,0,0,1-2.871-2.829,2.851,2.851,0,0,1,2.833-2.85A2.8,2.8,0,0,1-849.623,2169.952Z" transform="translate(923.584 -2128.519)" fill="#12263f"/>
        <path id="Trazado_197429" data-name="Trazado 197429" d="M-849.61,2547.218a2.829,2.829,0,0,1-2.816,2.858,2.89,2.89,0,0,1-2.86-2.839,2.83,2.83,0,0,1,2.839-2.834A2.783,2.783,0,0,1-849.61,2547.218Z" transform="translate(923.571 -2468.291)" fill="#12263f"/>
        <path id="Trazado_197430" data-name="Trazado 197430" d="M-852.437,2361.249a2.841,2.841,0,0,1-2.861-2.814,2.887,2.887,0,0,1,2.84-2.857,2.828,2.828,0,0,1,2.839,2.833A2.791,2.791,0,0,1-852.437,2361.249Z" transform="translate(923.582 -2298.231)" fill="#12263f"/>
      </g>
    </g>
    <g id="UyrgcM.tif" transform="translate(610.586 2521.078)">
      <g id="Grupo_151394" data-name="Grupo 151394" transform="translate(0 0)">
        <path id="Trazado_193789" data-name="Trazado 193789" d="M1994.222,47.266c.8.424,1.589.877,2.406,1.266a7.614,7.614,0,0,1,3.536,9.458c-.657,1.488-1.925,1.866-3.46,1.862-9.367-.025-18.734-.012-28.1-.012-3.746,0-7.494.01-11.241,0-2.672-.01-3.667-1.083-3.831-3.684-.244-3.892,1.04-6.753,4.921-8.11a10.519,10.519,0,0,0,1.652-1.024c-.776-.071-1.187-.14-1.6-.14-5.913-.011-11.825,0-17.739-.019-4.362-.011-6.98-2.61-6.984-7q-.022-26.345,0-52.691c0-4.189,2.6-6.8,6.744-6.9a9.374,9.374,0,0,1,1.4.007,5.667,5.667,0,0,0,5.534-2.125c1.411-1.694,3.084-1.794,5.054-.7,1.266.7,1.929.346,2.3-.993.6-2.175,1.787-3.055,4.068-3.091,1.229-.019,2.459-.03,3.688,0a3.651,3.651,0,0,1,3.82,2.976c.364,1.5,1.075,1.729,2.352,1.04,1.9-1.026,3.608-.878,5.055.827a6.017,6.017,0,0,0,5.2,2.1c11.357-.1,22.715-.049,34.072-.047,4.6,0,7.179,2.557,7.181,7.171q.012,26.169,0,52.339c0,4.455-2.635,7.078-7.1,7.085q-9.393.015-18.785,0Zm22.563-14.723V30.819q0-21.427,0-42.853c0-3.412-.861-4.271-4.247-4.271-10.83,0-21.66.042-32.49-.031-1.581-.011-2.537.216-3.142,1.874-.5,1.377-.442,2.007,1.053,2.388a3.605,3.605,0,0,1,2.972,3.808c.037,1.17.019,2.341.008,3.512-.025,2.541-.763,3.565-3.217,4.327-1.138.353-1.524.94-.942,2.052,1.3,2.48,1.119,3.6-.877,5.6-.826.83-1.63,1.686-2.507,2.459a3.717,3.717,0,0,1-4.406.526c-1.724-.85-2.042-.731-2.628,1.108a3.642,3.642,0,0,1-3.833,2.736c-2.709-.147-5.934,1.117-7.567-2.432a1.389,1.389,0,0,1-.052-.167c-.679-2.025-.931-2.138-2.747-1.245a3.572,3.572,0,0,1-4.5-.646c-.95-.954-1.932-1.877-2.854-2.857a3.665,3.665,0,0,1-.644-4.661c.809-1.612.635-2.017-1.111-2.58a3.638,3.638,0,0,1-2.8-3.955c.1-2.661-1.046-5.811,2.405-7.409.21-.1.495-.088.657-.229.475-.411,1.364-1.035,1.275-1.285-.363-1.02-.845-2.544-1.619-2.778-3.736-1.135-5.724.509-5.725,4.394q0,21.251,0,42.5v1.833Zm0,3.643h-79.537c0,1.136,0,2.175,0,3.214.013,3.067.909,3.979,3.958,3.98q24.323.009,48.645.006,11.679,0,23.357-.006c2.5-.005,3.531-1.04,3.573-3.491C2016.8,38.723,2016.781,37.557,2016.781,36.185Zm-53.964-25.568c1.235-4.324,4.008-5.474,8.092-3.482L1974.1,4c-2.456-3.46-.588-7.08,3.258-8.131V-8.592c-3.965-.793-5.326-4.138-3.3-8.044l-3.117-3.168a5.094,5.094,0,0,1-8.167-3.24h-4.455c-.375,3.712-4.893,5.5-8.448,3.068a13.89,13.89,0,0,1-1.654,2.125,1.859,1.859,0,0,0-.46,2.668,4.527,4.527,0,0,1,.131,3c-.566,2.02-1.773,3.56-4.082,3.539v4.686c3.436.2,5.675,4.418,3.487,7.912l2.99,3.282c.516-.292.948-.583,1.417-.795,1.975-.893,5.462.185,5.962,2.23.519,2.127,1.747,2.064,3.3,1.954C1961.544,10.583,1962.129,10.617,1962.816,10.617Zm33.97,45.648c.5-3.047.087-3.609-2.356-4.97a17.783,17.783,0,0,1-4.222-3.315,3.051,3.051,0,0,0-2.509-1.132c-6.963.037-13.927.056-20.889-.009a3.667,3.667,0,0,0-3.249,1.44,13.324,13.324,0,0,1-3.838,2.966c-2.613,1.422-3.027,2.032-2.476,5.02Z" transform="translate(-1933.769 26.659)" fill="#12263f"/>
        <path id="Trazado_193790" data-name="Trazado 193790" d="M2085.566,62.728c-2.008-1.527-3.219-.456-4.193,1.816-.251.586-1.465.959-2.282,1.059a20.177,20.177,0,0,1-4.372.045,3.151,3.151,0,0,1-2.886-2.46c-.306-1.195-.728-1.579-1.945-.916a3.482,3.482,0,0,1-4.472-.743c-.614-.627-1.25-1.232-1.865-1.858-1.772-1.808-1.928-2.5-.891-4.819.44-.982.277-1.435-.794-1.783-2.079-.676-2.734-1.7-2.766-3.924-.013-.936-.018-1.873,0-2.809.044-2.122.709-3.1,2.721-3.76,1.026-.335,1.289-.722.758-1.762-1-1.95-.742-3.149.8-4.734.734-.755,1.475-1.5,2.25-2.218a3.231,3.231,0,0,1,4.036-.624c1.378.816,1.875.39,2.134-.974a2.035,2.035,0,0,1,.462-.931c2.014-2.235,4.674-1.4,7.109-1.349a3.106,3.106,0,0,1,2.883,2.667c.276,1.058.711,1.288,1.742.756,1.936-1,3.149-.741,4.74.8.714.692,1.418,1.4,2.107,2.113a3.39,3.39,0,0,1,.634,4.332c-.655,1.155-.427,1.724.88,1.924a2.076,2.076,0,0,1,.957.4c2.3,1.869,1.578,4.478,1.553,6.863A3.167,3.167,0,0,1,2092.28,53c-1.394.337-1.387.936-.729,1.972a3.173,3.173,0,0,1,.457,1.485C2092.119,58.672,2088.192,62.687,2085.566,62.728Zm-20-6,2.335,2.4c3.587-1.484,5.109-.905,7.181,2.564a1.372,1.372,0,0,0,.962.506c.908.069,1.824.024,2.674.024,1.146-3.627,3.776-4.711,7.264-3.083l2.38-2.411c-1.685-2.611-.8-5.974,2.975-7.376V46.131c-3.219-.82-4.722-3.957-3.06-7.412l-2.283-2.333c-2.961,1.916-6.325.414-7.422-3.01a17.956,17.956,0,0,0-2.222.025,1.849,1.849,0,0,0-1.259.568c-1.96,3.372-3.337,3.891-7.187,2.521-.758.753-1.54,1.53-2.3,2.283,1.56,3.3.758,5.621-2.31,7.083a1.455,1.455,0,0,0-.669,1,22.381,22.381,0,0,0-.031,2.557C2066.23,50.9,2067.367,53.669,2065.566,56.726Z" transform="translate(-2014.878 -9.876)" fill="#12263f"/>
        <path id="Trazado_193791" data-name="Trazado 193791" d="M2054.347,157.161a2.377,2.377,0,1,1-2.386-2.317A2.436,2.436,0,0,1,2054.347,157.161Z" transform="translate(-2008.733 -90.814)" fill="#12263f"/>
        <path id="Trazado_193792" data-name="Trazado 193792" d="M1994.8,24.3a8.155,8.155,0,1,1,8.19-8.106A8.16,8.16,0,0,1,1994.8,24.3Zm.093-12.866a4.7,4.7,0,1,0,4.636,4.743A4.751,4.751,0,0,0,1994.9,11.438Z" transform="translate(-1967.986 4.231)" fill="#12263f"/>
        <path id="Trazado_193793" data-name="Trazado 193793" d="M2089.1,67.394a7.323,7.323,0,0,1,14.645-.108,7.323,7.323,0,1,1-14.645.108Zm3.482-.069a3.829,3.829,0,0,0,3.817,3.925,3.924,3.924,0,0,0,3.893-3.892,3.852,3.852,0,0,0-3.772-3.805A3.763,3.763,0,0,0,2092.587,67.325Z" transform="translate(-2034.306 -29.47)" fill="#12263f"/>
      </g>
    </g>
    <g id="Jh8W0t" transform="translate(685.754 2332.25)">
      <g id="Grupo_155516" data-name="Grupo 155516">
        <path id="Trazado_197486" data-name="Trazado 197486" d="M-1374.01,4926.463a76.8,76.8,0,0,1-7.445,2.109c-11.8,2.117-23.8-4.795-27.846-18.494-3.753-12.7-.769-23.765,7.15-33.126a27.277,27.277,0,0,1,19.528-9.926c.312-.024.623-.074.934-.119.044-.009.082-.075.148-.14-.378-1.877-.9-3.748-1.116-5.669a24.513,24.513,0,0,1,5.8-19.115,35.6,35.6,0,0,1,17.1-11.328,44.492,44.492,0,0,1,25.835-.563,65.018,65.018,0,0,1,9.375,3.808,1.441,1.441,0,0,0,2.059-.4,35.993,35.993,0,0,1,16.093-10.886,41.9,41.9,0,0,1,22.55-1.131,47.863,47.863,0,0,1,21,10.582,2.415,2.415,0,0,0,2.086.448c6.752-2.352,13.6-4.084,20.675-3.925,6.027.138,11.853,1.395,17.014,5.368,5.631,4.336,8.3,10.574,8.528,18.348.021.727,0,1.456,0,2.33,2.1-.33,4.041-.772,6-.917,7.829-.581,13.533,5.089,13.351,14.1-.046,2.31-.238,4.617-.359,6.857,2.495.532,5.066.86,7.531,1.645,8.119,2.585,14.418,7.907,17.373,17.417a27.614,27.614,0,0,1-1.226,19.557,34.819,34.819,0,0,1-22,20.016,31.988,31.988,0,0,1-14.878,1.138c-1.244-.181-1.689.271-2.061,1.707-2.491,9.621-8.267,15.487-16.192,18.67-7.953,3.2-16.013,3.023-24.165.946a59.545,59.545,0,0,1-17.832-8.268,2,2,0,0,0-1.936.076c-13.226,9.256-27.47,11.876-42.473,8.482a35.257,35.257,0,0,1-21.137-13.405c-.551-.733-.983-.835-1.748-.361a24.9,24.9,0,0,1-15.229,3.952c-9.445-.724-18.377-7.167-21.933-18.423C-1373.6,4927.365-1373.814,4926.936-1374.01,4926.463Zm26.308-96.478a40.069,40.069,0,0,0-20.376,6.21A29.5,29.5,0,0,0-1379.615,4849a21.161,21.161,0,0,0-1.1,15.37c.9,2.927.37,3.854-2.194,4.158-.629.074-1.253.214-1.879.32-11.321,1.936-19.224,9.024-23.246,21.576-3.651,11.392-.826,23.523,7.15,30.839,7.314,6.708,15.521,7.727,24.241,4.408,3-1.141,3.448-.9,4.661,2.464,3.536,9.8,12.324,16.607,21.429,16.681a25.134,25.134,0,0,0,13.272-3.6c1.719-1.017,2.826-.836,3.964.707a30.868,30.868,0,0,0,10.845,9.1,44.891,44.891,0,0,0,26.284,4.589,52.4,52.4,0,0,0,24.753-9.405,3.689,3.689,0,0,1,3.242.132c2.045.962,3.917,2.41,5.929,3.481,9.173,4.876,18.74,7.186,28.794,5.284,10.471-1.982,18.493-7.746,21.714-20.37.459-1.8,1.592-1.888,2.882-1.8a50.116,50.116,0,0,0,5.842.324c12.078-.548,21.995-6.011,28.74-18.048,5.733-10.23,4.5-23.772-4.315-31.846a27.7,27.7,0,0,0-15.766-6.965c-2.244-.287-2.641-1.063-2.4-3.611a42.394,42.394,0,0,0,.174-7.362c-.418-5.074-3.875-9.315-8.183-9.846a27.836,27.836,0,0,0-7.527.267c-2.848.432-3.462.045-3.509-3.263-.006-.493,0-.99-.036-1.481-.508-6.737-3.079-12.047-7.926-15.846-4.739-3.714-10.1-4.95-15.629-5.168a48.744,48.744,0,0,0-19.46,3.442c-2.413.925-4.41.683-6.255-1.389a10.417,10.417,0,0,0-1.826-1.458,43.963,43.963,0,0,0-19.823-8.2c-12.97-1.735-24.777,1.236-34.618,11.9a2.86,2.86,0,0,1-3.89.7C-1331.812,4831.6-1338.69,4830.014-1347.7,4829.985Z" transform="translate(1410.911 -4820.458)" fill="#12263f" stroke="#12263f" stroke-width="4"/>
      </g>
    </g>
    <path id="Trazado_231829" data-name="Trazado 231829" d="M8.343,37.45V25.1c-1.978,0-3.706.077-5.424-.019-2.473-.138-3.74-1.494-2.335-3.74Q6.951,11.162,13.732,1.247c1.317-1.935,3.11-1.461,4.316.351,4.287,6.437,8.573,12.877,12.7,19.417,1.479,2.342.547,3.913-2.276,4.066-1.718.093-3.446.017-5.394.017V37.442a47.74,47.74,0,0,1,5.642.044c2.387.292,3.517,1.759,2.111,3.973C26.613,48.1,22.281,54.674,17.9,61.21c-1.28,1.908-3.043,1.89-4.311,0Q7,51.42.641,41.472C-.78,39.24.372,37.8,2.75,37.493A46.243,46.243,0,0,1,8.343,37.45ZM15.756,7.034,7.363,19.778c6.125,1,6.126,1,6.129,6.956,0,2.718.049,5.438-.019,8.155-.05,2.019.38,4.446-.58,5.925-.821,1.263-3.318,1.438-5.4,2.215l8.247,12.6,8.528-13.043c-6.285-.607-6.286-.607-6.29-6.158,0-3.262.253-6.548-.054-9.78-.418-4.4.63-7.2,6.416-6.437Z" transform="translate(677.757 2408.264) rotate(90)" fill="#12263f"/>
    <path id="Trazado_231830" data-name="Trazado 231830" d="M8.343,37.45V25.1c-1.978,0-3.706.077-5.424-.019-2.473-.138-3.74-1.494-2.335-3.74Q6.951,11.162,13.732,1.247c1.317-1.935,3.11-1.461,4.316.351,4.287,6.437,8.573,12.877,12.7,19.417,1.479,2.342.547,3.913-2.276,4.066-1.718.093-3.446.017-5.394.017V37.442a47.74,47.74,0,0,1,5.642.044c2.387.292,3.517,1.759,2.111,3.973C26.613,48.1,22.281,54.674,17.9,61.21c-1.28,1.908-3.043,1.89-4.311,0Q7,51.42.641,41.472C-.78,39.24.372,37.8,2.75,37.493A46.243,46.243,0,0,1,8.343,37.45ZM15.756,7.034,7.363,19.778c6.125,1,6.126,1,6.129,6.956,0,2.718.049,5.438-.019,8.155-.05,2.019.38,4.446-.58,5.925-.821,1.263-3.318,1.438-5.4,2.215l8.247,12.6,8.528-13.043c-6.285-.607-6.286-.607-6.29-6.158,0-3.262.253-6.548-.054-9.78-.418-4.4.63-7.2,6.416-6.437Z" transform="translate(997.893 2386.474) rotate(90)" fill="#12263f"/>
    <path id="Trazado_231832" data-name="Trazado 231832" d="M14.94,36.188,8.907,25.711c-1.652.92-3.127,1.785-4.641,2.575C1.561,29.7-.112,28.761.006,25.8.314,18.075.817,10.351,1.386,2.635,1.571.136,3.147-.617,5.41.512c6.8,3.387,13.605,6.753,20.345,10.252,2.639,1.371,2.723,3.226.24,4.959-1.326.924-2.765,1.687-4.538,2.755l5.889,10.35a19.273,19.273,0,0,1,2.056-.9c1.966-.577,3.946-1.1,5.922-1.644a30.5,30.5,0,0,1,.859,5.77c-.247,6.374-.77,12.735-1.136,19.1-.2,3.52-1.824,4.2-4.829,2.671-6.4-3.261-12.866-6.407-19.242-9.719-3.294-1.711-3.233-3.469.01-5.529C12.124,37.86,13.291,37.184,14.94,36.188ZM5.1,22.209c4.672-3.661,6.825-1.865,8.588,1.828,1.4,2.93,3.218,5.656,4.842,8.479,2.961,5.151,2.959,5.152-1.88,8.986l14,7.031V33.5c-5.311,1.672-5.309,1.671-8.4-3.675-1.357-2.35-2.727-4.692-4.083-7.043C15.006,17.3,15.008,17.3,19.54,13.1L6.031,6.311C5.713,11.741,5.437,16.445,5.1,22.209Z" transform="translate(741.972 2475.164) rotate(71)" fill="#12263f"/>
    <path id="Trazado_232123" data-name="Trazado 232123" d="M14.94,36.188,8.907,25.711c-1.652.92-3.127,1.785-4.641,2.575C1.561,29.7-.112,28.761.006,25.8.314,18.075.817,10.351,1.386,2.635,1.571.136,3.147-.617,5.41.512c6.8,3.387,13.605,6.753,20.345,10.252,2.639,1.371,2.723,3.226.24,4.959-1.326.924-2.765,1.687-4.538,2.755l5.889,10.35a19.273,19.273,0,0,1,2.056-.9c1.966-.577,3.946-1.1,5.922-1.644a30.5,30.5,0,0,1,.859,5.77c-.247,6.374-.77,12.735-1.136,19.1-.2,3.52-1.824,4.2-4.829,2.671-6.4-3.261-12.866-6.407-19.242-9.719-3.294-1.711-3.233-3.469.01-5.529C12.124,37.86,13.291,37.184,14.94,36.188ZM5.1,22.209c4.672-3.661,6.825-1.865,8.588,1.828,1.4,2.93,3.218,5.656,4.842,8.479,2.961,5.151,2.959,5.152-1.88,8.986l14,7.031V33.5c-5.311,1.672-5.309,1.671-8.4-3.675-1.357-2.35-2.727-4.692-4.083-7.043C15.006,17.3,15.008,17.3,19.54,13.1L6.031,6.311C5.713,11.741,5.437,16.445,5.1,22.209Z" transform="translate(751.37 2319.936) rotate(150)" fill="#12263f"/>
    <path id="Trazado_232365" data-name="Trazado 232365" d="M-30.947,0h-2.93V-14.219h2.93Zm5.127-10.566.088,1.221A3.689,3.689,0,0,1-22.7-10.762a3.066,3.066,0,0,1,2.5.986,4.6,4.6,0,0,1,.84,2.949V0h-2.822V-6.773a1.838,1.838,0,0,0-.391-1.307,1.746,1.746,0,0,0-1.3-.406,1.941,1.941,0,0,0-1.787,1.018V0h-2.822V-10.566Zm11.982-2.6v2.6h1.807V-8.5h-1.807v5.273a1.259,1.259,0,0,0,.225.84,1.128,1.128,0,0,0,.859.254,4.5,4.5,0,0,0,.83-.068V-.059A5.81,5.81,0,0,1-13.633.2q-2.969,0-3.027-3V-8.5H-18.2v-2.07h1.543v-2.6ZM-5.6.2A5.187,5.187,0,0,1-9.38-1.23a5.068,5.068,0,0,1-1.46-3.8V-5.3a6.383,6.383,0,0,1,.615-2.847,4.515,4.515,0,0,1,1.743-1.934,4.893,4.893,0,0,1,2.573-.679A4.385,4.385,0,0,1-2.5-9.395,5.555,5.555,0,0,1-1.25-5.518v1.152H-7.979a2.622,2.622,0,0,0,.825,1.66A2.5,2.5,0,0,0-5.41-2.08,3.046,3.046,0,0,0-2.861-3.262l1.387,1.553a4.237,4.237,0,0,1-1.719,1.4A5.639,5.639,0,0,1-5.6.2Zm-.322-8.682a1.764,1.764,0,0,0-1.362.569,2.946,2.946,0,0,0-.669,1.628h3.926v-.226a2.1,2.1,0,0,0-.508-1.457A1.819,1.819,0,0,0-5.918-8.486ZM6.289-7.92A7.667,7.667,0,0,0,5.273-8a2.067,2.067,0,0,0-2.1,1.084V0H.352V-10.566H3.018L3.1-9.307a2.615,2.615,0,0,1,2.354-1.455,2.957,2.957,0,0,1,.879.127Zm3.955-2.646.088,1.221a3.689,3.689,0,0,1,3.037-1.416,3.066,3.066,0,0,1,2.5.986,4.6,4.6,0,0,1,.84,2.949V0H13.887V-6.773A1.838,1.838,0,0,0,13.5-8.08a1.746,1.746,0,0,0-1.3-.406A1.941,1.941,0,0,0,10.41-7.468V0H7.588V-10.566ZM23.711.2A5.187,5.187,0,0,1,19.927-1.23a5.068,5.068,0,0,1-1.46-3.8V-5.3a6.383,6.383,0,0,1,.615-2.847,4.515,4.515,0,0,1,1.743-1.934,4.893,4.893,0,0,1,2.573-.679,4.385,4.385,0,0,1,3.413,1.367,5.555,5.555,0,0,1,1.245,3.877v1.152H21.328a2.622,2.622,0,0,0,.825,1.66A2.5,2.5,0,0,0,23.9-2.08a3.046,3.046,0,0,0,2.549-1.182l1.387,1.553a4.237,4.237,0,0,1-1.719,1.4A5.639,5.639,0,0,1,23.711.2Zm-.322-8.682a1.764,1.764,0,0,0-1.362.569,2.946,2.946,0,0,0-.669,1.628h3.926v-.226a2.1,2.1,0,0,0-.508-1.457A1.819,1.819,0,0,0,23.389-8.486Zm9.648-4.678v2.6h1.807V-8.5H33.037v5.273a1.259,1.259,0,0,0,.225.84,1.128,1.128,0,0,0,.859.254,4.5,4.5,0,0,0,.83-.068V-.059A5.81,5.81,0,0,1,33.242.2q-2.969,0-3.027-3V-8.5H28.672v-2.07h1.543v-2.6Z" transform="translate(801.811 2406.794)" fill="#12263f"/>
    <path id="Trazado_232366" data-name="Trazado 232366" d="M-30.751-3.917a1.579,1.579,0,0,0-.615-1.338,8.07,8.07,0,0,0-2.215-.984,15.7,15.7,0,0,1-2.533-1.02,4.138,4.138,0,0,1-2.543-3.7,3.605,3.605,0,0,1,.682-2.158A4.448,4.448,0,0,1-36.017-14.6a7.372,7.372,0,0,1,2.866-.533,6.71,6.71,0,0,1,2.851.579,4.539,4.539,0,0,1,1.943,1.635,4.28,4.28,0,0,1,.692,2.4h-3.076a2.013,2.013,0,0,0-.646-1.594,2.655,2.655,0,0,0-1.815-.569,2.837,2.837,0,0,0-1.753.477,1.5,1.5,0,0,0-.625,1.256,1.44,1.44,0,0,0,.733,1.22,8.283,8.283,0,0,0,2.158.923A9.326,9.326,0,0,1-28.865-6.85a3.9,3.9,0,0,1,1.2,2.912A3.593,3.593,0,0,1-29.131-.9a6.419,6.419,0,0,1-3.948,1.1,7.623,7.623,0,0,1-3.138-.631,4.965,4.965,0,0,1-2.158-1.728A4.425,4.425,0,0,1-39.119-4.7h3.086q0,2.471,2.953,2.471a2.873,2.873,0,0,0,1.712-.446A1.451,1.451,0,0,0-30.751-3.917ZM-20.672.205a5.447,5.447,0,0,1-3.973-1.5,5.321,5.321,0,0,1-1.533-3.989v-.287a6.7,6.7,0,0,1,.646-2.989,4.741,4.741,0,0,1,1.83-2.03A5.137,5.137,0,0,1-21-11.3a4.6,4.6,0,0,1,3.584,1.436,5.833,5.833,0,0,1,1.307,4.071v1.21h-7.065a2.753,2.753,0,0,0,.866,1.743,2.619,2.619,0,0,0,1.83.656A3.2,3.2,0,0,0-17.8-3.425l1.456,1.63a4.449,4.449,0,0,1-1.8,1.471A5.921,5.921,0,0,1-20.672.205Zm-.338-9.116a1.852,1.852,0,0,0-1.43.6,3.093,3.093,0,0,0-.7,1.71h4.122V-6.84a2.206,2.206,0,0,0-.533-1.529A1.91,1.91,0,0,0-21.01-8.911Zm12.817.595A8.051,8.051,0,0,0-9.259-8.4a2.171,2.171,0,0,0-2.2,1.138V0h-2.963V-11.095h2.8l.082,1.323A2.746,2.746,0,0,1-9.075-11.3a3.105,3.105,0,0,1,.923.133Zm5.763,4.7,2.061-7.475h3.1L-1.015,0h-2.83L-7.588-11.095h3.1ZM7.157,0H4.184V-11.095H7.157ZM4.009-13.966a1.459,1.459,0,0,1,.446-1.1,1.676,1.676,0,0,1,1.215-.431,1.679,1.679,0,0,1,1.21.431,1.451,1.451,0,0,1,.451,1.1,1.455,1.455,0,0,1-.456,1.107,1.684,1.684,0,0,1-1.2.431,1.684,1.684,0,0,1-1.2-.431A1.455,1.455,0,0,1,4.009-13.966ZM9.136-5.629A6.686,6.686,0,0,1,10.3-9.762,3.776,3.776,0,0,1,13.484-11.3a3.4,3.4,0,0,1,2.676,1.21v-5.66h2.974V0H16.458l-.144-1.179A3.487,3.487,0,0,1,13.463.205a3.766,3.766,0,0,1-3.143-1.543A6.9,6.9,0,0,1,9.136-5.629Zm2.963.211a4.4,4.4,0,0,0,.543,2.4,1.769,1.769,0,0,0,1.579.834A1.982,1.982,0,0,0,16.16-3.348v-4.4a1.954,1.954,0,0,0-1.917-1.164Q12.1-8.911,12.1-5.419Zm8.87-.231A6.58,6.58,0,0,1,21.6-8.593a4.654,4.654,0,0,1,1.83-2,5.34,5.34,0,0,1,2.774-.708,5.052,5.052,0,0,1,3.666,1.374,5.514,5.514,0,0,1,1.584,3.732l.021.759a5.8,5.8,0,0,1-1.425,4.1A4.954,4.954,0,0,1,26.229.205,4.979,4.979,0,0,1,22.4-1.333a5.9,5.9,0,0,1-1.43-4.184Zm2.963.21a4.147,4.147,0,0,0,.595,2.418,1.962,1.962,0,0,0,1.7.837,1.966,1.966,0,0,0,1.682-.827,4.538,4.538,0,0,0,.6-2.644,4.106,4.106,0,0,0-.6-2.4,1.967,1.967,0,0,0-1.7-.852,1.934,1.934,0,0,0-1.682.847A4.614,4.614,0,0,0,23.933-5.44ZM39.539-8.316A8.051,8.051,0,0,0,38.473-8.4a2.171,2.171,0,0,0-2.2,1.138V0H33.3V-11.095h2.8l.082,1.323A2.746,2.746,0,0,1,38.657-11.3a3.105,3.105,0,0,1,.923.133Z" transform="translate(1053.385 2475.797)" fill="#12263f"/>
    <path id="Trazado_232367" data-name="Trazado 232367" d="M-25.563-4.973a5.283,5.283,0,0,1-1.779,3.794A6.248,6.248,0,0,1-31.572.205a5.618,5.618,0,0,1-4.517-1.933,7.925,7.925,0,0,1-1.646-5.306v-.913a8.95,8.95,0,0,1,.759-3.794,5.686,5.686,0,0,1,2.169-2.517,6.075,6.075,0,0,1,3.276-.877,6.087,6.087,0,0,1,4.163,1.384,5.677,5.677,0,0,1,1.825,3.886h-3.076a3.118,3.118,0,0,0-.8-2.1,2.981,2.981,0,0,0-2.107-.651,2.614,2.614,0,0,0-2.3,1.1,6.178,6.178,0,0,0-.784,3.42v1.128a6.612,6.612,0,0,0,.733,3.538,2.565,2.565,0,0,0,2.312,1.118,3.037,3.037,0,0,0,2.128-.651,2.941,2.941,0,0,0,.8-2.015ZM-20.61,0h-2.974V-15.75h2.974Zm5.568,0h-2.974V-11.095h2.974ZM-18.19-13.966a1.459,1.459,0,0,1,.446-1.1,1.676,1.676,0,0,1,1.215-.431,1.679,1.679,0,0,1,1.21.431,1.451,1.451,0,0,1,.451,1.1,1.455,1.455,0,0,1-.456,1.107,1.684,1.684,0,0,1-1.2.431,1.684,1.684,0,0,1-1.2-.431A1.455,1.455,0,0,1-18.19-13.966ZM-7.5.205a5.447,5.447,0,0,1-3.973-1.5A5.321,5.321,0,0,1-13-5.281v-.287a6.7,6.7,0,0,1,.646-2.989,4.741,4.741,0,0,1,1.83-2.03,5.137,5.137,0,0,1,2.7-.713A4.6,4.6,0,0,1-4.24-9.864,5.833,5.833,0,0,1-2.933-5.793v1.21H-10A2.753,2.753,0,0,0-9.131-2.84a2.619,2.619,0,0,0,1.83.656A3.2,3.2,0,0,0-4.625-3.425l1.456,1.63a4.449,4.449,0,0,1-1.8,1.471A5.921,5.921,0,0,1-7.5.205Zm-.338-9.116a1.852,1.852,0,0,0-1.43.6,3.093,3.093,0,0,0-.7,1.71h4.122V-6.84A2.206,2.206,0,0,0-6.378-8.37,1.91,1.91,0,0,0-7.834-8.911Zm9.311-2.184.092,1.282A3.874,3.874,0,0,1,4.758-11.3a3.219,3.219,0,0,1,2.625,1.036,4.832,4.832,0,0,1,.882,3.1V0H5.3V-7.112a1.93,1.93,0,0,0-.41-1.372,1.833,1.833,0,0,0-1.364-.426A2.038,2.038,0,0,0,1.651-7.842V0H-1.312V-11.095Zm12.582-2.728v2.728h1.9v2.174h-1.9v5.537a1.322,1.322,0,0,0,.236.882,1.184,1.184,0,0,0,.9.267,4.726,4.726,0,0,0,.872-.072V-.062a6.1,6.1,0,0,1-1.794.267q-3.117,0-3.179-3.148V-8.921H9.475v-2.174h1.62v-2.728ZM22.712.205a5.447,5.447,0,0,1-3.973-1.5,5.321,5.321,0,0,1-1.533-3.989v-.287a6.7,6.7,0,0,1,.646-2.989,4.741,4.741,0,0,1,1.83-2.03,5.137,5.137,0,0,1,2.7-.713,4.6,4.6,0,0,1,3.584,1.436,5.833,5.833,0,0,1,1.307,4.071v1.21H20.21a2.753,2.753,0,0,0,.866,1.743,2.619,2.619,0,0,0,1.83.656,3.2,3.2,0,0,0,2.676-1.241l1.456,1.63a4.449,4.449,0,0,1-1.8,1.471A5.921,5.921,0,0,1,22.712.205Zm-.338-9.116a1.852,1.852,0,0,0-1.43.6,3.093,3.093,0,0,0-.7,1.71h4.122V-6.84A2.206,2.206,0,0,0,23.83-8.37,1.91,1.91,0,0,0,22.374-8.911ZM34.966-3.066a.955.955,0,0,0-.538-.856A6.115,6.115,0,0,0,32.7-4.481q-3.958-.831-3.958-3.363a3.049,3.049,0,0,1,1.225-2.466,4.943,4.943,0,0,1,3.2-.99,5.32,5.32,0,0,1,3.379.995,3.135,3.135,0,0,1,1.266,2.584H34.853a1.434,1.434,0,0,0-.41-1.051,1.736,1.736,0,0,0-1.282-.415A1.774,1.774,0,0,0,32-8.849a1.068,1.068,0,0,0-.41.861.913.913,0,0,0,.467.795,4.8,4.8,0,0,0,1.574.523,12.856,12.856,0,0,1,1.866.5,3.066,3.066,0,0,1,2.348,2.984,2.894,2.894,0,0,1-1.3,2.456,5.618,5.618,0,0,1-3.363.938,5.867,5.867,0,0,1-2.476-.5,4.155,4.155,0,0,1-1.7-1.364,3.169,3.169,0,0,1-.615-1.871H31.2a1.547,1.547,0,0,0,.584,1.21,2.318,2.318,0,0,0,1.456.42A2.146,2.146,0,0,0,34.53-2.22,1,1,0,0,0,34.966-3.066Z" transform="translate(542 2522.158)" fill="#12263f"/>
    <g id="Grupo_180599" data-name="Grupo 180599" transform="translate(584.586 2239.651)">
      <g id="Grupo_180599-2" data-name="Grupo 180599" clip-path="url(#clip-path)">
        <path id="Trazado_232120" data-name="Trazado 232120" d="M48.544,0h4.079A4.358,4.358,0,0,0,53.2.173c9.066,1.451,14.949,6.6,17.782,15.3.091.279.187.556.286.849,7.1,0,14.134,0,21.169,0,5.307,0,8.731,3.426,8.732,8.738q0,23.862,0,47.725c0,5.388-3.4,8.8-8.769,8.805q-13.767,0-27.533,0H63.731a8.884,8.884,0,0,0,3.124,6,2.3,2.3,0,0,0,1.35.5c2.276.05,4.555,0,6.832.03a4.873,4.873,0,0,1,4.913,4.929c.019,1.087.023,2.176,0,3.263a4.853,4.853,0,0,1-4.893,4.845q-24.474.026-48.948,0a4.856,4.856,0,0,1-4.891-4.949c-.015-.986-.009-1.972,0-2.957a4.9,4.9,0,0,1,5.122-5.134c2.209-.012,4.419,0,6.628-.008a1.583,1.583,0,0,0,.877-.13,8.915,8.915,0,0,0,3.583-6.391H36.2c-9.28,0-18.56.017-27.839-.009A7.971,7.971,0,0,1,.729,76.748,18.374,18.374,0,0,1,0,74.652v-51.4c.04-.054.1-.1.116-.162,1.256-4.629,4.053-6.772,8.846-6.773H29.937c.108-.376.184-.672.276-.962A21.112,21.112,0,0,1,45.271.679C46.338.37,47.452.222,48.544,0M29.382,19.581H28.307q-9.79,0-19.579,0c-3.516,0-5.464,1.964-5.464,5.509q0,23.862,0,47.724c0,3.542,1.95,5.508,5.467,5.508q33.651,0,67.3,0h1.175l-1.634-9.79H74.253q-31.969,0-63.937,0c-2.517,0-3.787-1.252-3.788-3.736q0-19.12,0-38.24c0-2.415,1.3-3.709,3.709-3.71q9.025,0,18.049,0h1.1ZM73.974,58.742c-.477-1.709-.1-3.488-1.721-4.647a2.643,2.643,0,0,1-.664-1.549c-.319-1.6-.552-3.212-.83-4.818-.116-.669-.258-1.334-.388-2l-.342,0a7.73,7.73,0,0,0-.264.891c-.338,1.94-.64,3.887-1,5.823a3.4,3.4,0,0,1-3.708,3.017,3.443,3.443,0,0,1-3.054-3.694c-.008-2.584,0-5.167,0-7.751V39.226h3.309V52a1.234,1.234,0,0,0,.36-.74c.327-1.907.623-3.821.98-5.722a3.537,3.537,0,0,1,7.025.038c.358,1.9.65,3.815.979,5.723.043.249.131.49.2.735l.227-.057V39.223h3.238c0,3.726.031,7.392-.017,11.056-.017,1.315-.223,2.627-.351,4.025l3.631.6V53.88q0-7.9,0-15.807c0-1.651-.534-2.174-2.211-2.174q-28.81,0-57.62,0c-1.652,0-2.172.532-2.172,2.212q0,9.127,0,18.255c0,1.925.459,2.376,2.418,2.376H73.974ZM29.789,26.181H9.873V65.216H75.026l-.549-3.21H73.2q-25.8,0-51.59,0a4.912,4.912,0,0,1-5.287-5.277q-.009-9.431,0-18.862a4.9,4.9,0,0,1,5.23-5.229c3.4-.008,6.8,0,10.2,0,.28,0,.561-.04.749-.055l-2.705-6.4m20.795,65.2H31.718c-1.8,0-3.6-.015-5.4.006a1.649,1.649,0,0,0-1.833,1.829c-.018.747,0,1.5,0,2.243,0,2.011.438,2.449,2.448,2.449H74.24c.238,0,.476.009.714,0a1.637,1.637,0,0,0,1.729-1.73c.029-.815.009-1.632.008-2.447,0-1.871-.475-2.345-2.347-2.345H50.583M68.652,32.635c3.6,0,7.229,0,10.857,0,3.326,0,5.335,2.006,5.339,5.326q.009,8.157,0,16.314v1.167l6.468,1.078V26.159H71.383l-2.731,6.475m3.149-9.79h1.22q8.872,0,17.744,0c2.65,0,3.875,1.217,3.875,3.854q0,14.583,0,29.166v1.224L97.9,57.6v-1.14q0-15.756,0-31.511c0-3.386-2-5.369-5.4-5.37q-9.841,0-19.682,0H71.8ZM38.684,88.059H62.478l-2.356-6.43H41.056l-2.372,6.43M83.294,67.64l4.651,4.947,4.328-4.325L87.339,63.4l3.807-3.592-14.1-2.344,2.38,14.226,3.871-4.054m8.834-3.818,4.69,4.587L87.91,77.322l-4.574-4.616-5.643,5.617h.828q7.035,0,14.071,0c3.306,0,5.307-2.024,5.311-5.358q.007-7.035,0-14.071c0-.286-.031-.573-.044-.784l-5.73,5.713M44.095,22.876a35.783,35.783,0,0,0,1.444,9.194,1.119,1.119,0,0,0,.869.54c2.782.041,5.565,0,8.348.04a.809.809,0,0,0,.953-.765c.31-1.526.715-3.037.958-4.573.23-1.451.3-2.926.449-4.436Zm.657-9.791L44.023,19.5H57.159L56.4,13.085Zm-12.013,9.8a17.523,17.523,0,0,0,3.713,9.306c.137.176.344.417.523.42,1.737.032,3.474.019,5.091.019L40.634,22.88Zm35.684.023H60.532l-1.441,9.73c1.591,0,3.25.014,4.908-.016a.988.988,0,0,0,.655-.361A17.457,17.457,0,0,0,68.423,22.9M59.76,13.055l.657,6.526h8.32c-.695-2.159-1.3-4.088-1.956-6a.975.975,0,0,0-.732-.507c-2.068-.041-4.136-.023-6.289-.023M40.748,19.581c.223-2.2.437-4.314.661-6.526-2.141,0-4.242-.015-6.343.021a.935.935,0,0,0-.663.464,15.856,15.856,0,0,0-1.644,5.987c.318.02.582.051.847.052,2.372,0,4.744,0,7.142,0M55.756,9.748A48.057,48.057,0,0,0,52.9,4.7c-1.447-1.97-3.062-1.915-4.633-.062a14.05,14.05,0,0,0-2.549,5.107Zm-11.478-5.3a17.785,17.785,0,0,0-7.492,5.346c1.826,0,3.41.019,4.993-.022a.886.886,0,0,0,.617-.485c.637-1.56,1.228-3.138,1.882-4.838M64.407,9.788A18,18,0,0,0,56.9,4.456c.656,1.72,1.266,3.349,1.911,4.965a.7.7,0,0,0,.517.352c1.61.027,3.221.016,5.078.016" fill="#12263f"/>
        <rect id="Rectángulo_58452" data-name="Rectángulo 58452" width="3.119" height="3.173" transform="translate(9.854 71.85)" fill="#12263f"/>
        <rect id="Rectángulo_58453" data-name="Rectángulo 58453" width="3.131" height="3.15" transform="translate(16.392 71.862)" fill="#12263f"/>
        <rect id="Rectángulo_58454" data-name="Rectángulo 58454" width="3.173" height="3.119" transform="translate(22.881 71.859)" fill="#12263f"/>
        <path id="Trazado_232121" data-name="Trazado 232121" d="M124.776,191.857h3.3v4.607c0,2.65.006,5.3,0,7.952a3.446,3.446,0,0,1-3.055,3.693,3.4,3.4,0,0,1-3.7-3.016c-.354-1.936-.657-3.882-1-5.821a8.008,8.008,0,0,0-.263-.9h-.342c-.131.665-.274,1.329-.39,2-.278,1.605-.519,3.217-.818,4.818a3.386,3.386,0,0,1-6.741-.562c-.018-4.078-.006-8.155,0-12.233,0-.163.022-.325.036-.534h3.176v12.782l.278.042c.123-.621.257-1.24.365-1.863.278-1.605.512-3.219.825-4.817a3.527,3.527,0,0,1,6.95-.008c.378,1.966.678,3.947,1.018,5.92a1.191,1.191,0,0,0,.366.729Z" transform="translate(-88.916 -152.646)" fill="#12263f"/>
        <path id="Trazado_232122" data-name="Trazado 232122" d="M207.569,191.832H210.8v12.806l.213.038a5.325,5.325,0,0,0,.216-.692c.341-1.973.642-3.954,1.012-5.921a3.53,3.53,0,0,1,6.986.034c.366,1.934.664,3.881,1,5.82a1.12,1.12,0,0,0,.381.712V191.842h3.225c.019.27.056.561.056.851q.006,5.811,0,11.622c0,2.119-1.218,3.6-3.076,3.775s-3.318-1.036-3.705-3.139c-.344-1.869-.639-3.747-.963-5.62-.056-.321-.15-.636-.226-.954l-.266-.038a6.086,6.086,0,0,0-.319.928c-.348,1.972-.651,3.952-1.016,5.921a3.387,3.387,0,0,1-6.738-.6c-.016-4.212-.005-8.424-.005-12.754" transform="translate(-165.144 -152.626)" fill="#12263f"/>
      </g>
    </g>
    <g id="Grupo_180601" data-name="Grupo 180601" transform="translate(532.558 2366.265)">
      <g id="Grupo_180600" data-name="Grupo 180600" clip-path="url(#clip-path-2)">
        <path id="Trazado_232124" data-name="Trazado 232124" d="M0,6.925a20.81,20.81,0,0,1,1.575-3.7,7.216,7.216,0,0,1,6.3-3.2q20.047-.036,40.095,0c4.653.013,7.88,3.4,7.89,8.16.018,8.338.005,16.676.005,25.014,0,6.519.009,13.038-.013,19.557a2.016,2.016,0,0,0,.648,1.591c3.021,2.98,6.009,5.994,9.013,8.992.234.234.5.433.769.659L63.76,66.285a2.275,2.275,0,0,0-.386-.669Q56.221,58.43,49.041,51.271c-2.022-2.016-4.547-2.433-6.68-1.142a4.948,4.948,0,0,0-1.348,7.209,26.87,26.87,0,0,0,2.117,2.247q4.361,4.384,8.738,8.753c1.125,1.127,1.193,1.564.321,2.928a33.734,33.734,0,0,0-5.173,13.748c-.363,2.692-.318,5.438-.457,8.16H6.911a7.628,7.628,0,0,1-5.289-3.147A25,25,0,0,1,0,86.26V6.925M41.857,80.757H3.105c0,1.428,0,2.753,0,4.078.008,3.347,1.9,5.238,5.251,5.239q17.051,0,34.1,0h1.02a39.072,39.072,0,0,1,5.884-20.157,5.062,5.062,0,0,1-.837-.557q-4.291-4.262-8.556-8.552a19.757,19.757,0,0,1-1.508-1.7A8.081,8.081,0,0,1,41.5,47.09,8.355,8.355,0,0,1,51.176,49l1.529,1.482V12.495H3.168V77.68H41.857ZM3.145,9.256H52.809a16.7,16.7,0,0,0-.2-2.563c-.53-2.281-2.359-3.579-4.924-3.581q-11.676-.009-23.352,0-8.087,0-16.174,0A4.787,4.787,0,0,0,3.887,5.235a6.01,6.01,0,0,0-.741,4.021" transform="translate(0 -0.001)" fill="#12263f"/>
        <path id="Trazado_232125" data-name="Trazado 232125" d="M333.244,255.268c-.021-.392-.06-.784-.06-1.175,0-11.946-.038-23.893.018-35.839a12.087,12.087,0,0,0-4.276-9.7c-2.963-2.591-5.816-5.309-8.792-8.039l2.09-2.277c.3.271.571.5.832.743,2.725,2.5,5.424,5.028,8.181,7.493a14.585,14.585,0,0,1,5.059,11.415q-.026,18.1,0,36.2c0,.393.03.786.045,1.178Z" transform="translate(-261.768 -162.094)" fill="#12263f"/>
        <path id="Trazado_232126" data-name="Trazado 232126" d="M204.416,91.418c0-1.061-.025-2.123.008-3.183a2.869,2.869,0,0,1,2.66-2.949,66.371,66.371,0,0,1,7.078.006,2.851,2.851,0,0,1,2.63,2.974q.049,3.137,0,6.275A2.9,2.9,0,0,1,214,97.556c-2.265.108-4.544.108-6.809-.005a2.913,2.913,0,0,1-2.768-3.042c-.026-1.03,0-2.061,0-3.092m9.252-3.064h-6.1v6.1h6.1Z" transform="translate(-167.14 -69.662)" fill="#12263f"/>
        <path id="Trazado_232127" data-name="Trazado 232127" d="M40.139,267.9c-1.03,0-2.062.026-3.091-.006a3.03,3.03,0,0,1-3.1-3.031c-.066-2.09-.063-4.185,0-6.275A3.06,3.06,0,0,1,37.1,255.5q3.045-.045,6.091,0a3,3,0,0,1,3.119,3c.07,2.12.071,4.245,0,6.365a2.983,2.983,0,0,1-3.177,3.028c-1,.023-2,0-3,0v0m-3.047-3.177h6.091v-6.081H37.092Z" transform="translate(-27.717 -208.902)" fill="#12263f"/>
        <path id="Trazado_232128" data-name="Trazado 232128" d="M125.425,267.887c-1.061,0-2.122.033-3.181-.007a2.912,2.912,0,0,1-2.96-2.85c-.08-2.21-.08-4.426,0-6.636a2.948,2.948,0,0,1,3.028-2.892c2.06-.039,4.121-.034,6.182,0a3.025,3.025,0,0,1,3.133,3.005c.077,2.119.075,4.245,0,6.365a3.013,3.013,0,0,1-3.11,3.018c-1.029.031-2.06.006-3.091.006v-.005m-3.016-3.173H128.5v-6.077h-6.091Z" transform="translate(-97.486 -208.897)" fill="#12263f"/>
        <path id="Trazado_232129" data-name="Trazado 232129" d="M46.39,91.3c0,1,.033,2-.008,3a3.011,3.011,0,0,1-3.076,3.15c-2.057.078-4.122.075-6.18,0a3.075,3.075,0,0,1-3.151-3.283q-.043-2.91,0-5.82a3.111,3.111,0,0,1,3.233-3.3q3-.081,6,0A3.07,3.07,0,0,1,46.385,88.3c.033,1,.006,2,0,3m-9.254,2.99h6.1V88.2h-6.1Z" transform="translate(-27.763 -69.508)" fill="#12263f"/>
        <path id="Trazado_232130" data-name="Trazado 232130" d="M46.391,346.793c0,1,.032,2-.008,3a3.009,3.009,0,0,1-3.071,3.155c-2.088.078-4.183.082-6.27,0a3.051,3.051,0,0,1-3.066-3.267q-.043-2.91,0-5.82a3.11,3.11,0,0,1,3.228-3.308q3-.082,6,0a3.071,3.071,0,0,1,3.184,3.242c.034,1,.006,2,.005,3m-9.258,3h6.105V343.7H37.133Z" transform="translate(-27.764 -278.427)" fill="#12263f"/>
        <path id="Trazado_232131" data-name="Trazado 232131" d="M40.154,170.452c1.061,0,2.123-.034,3.182.008a2.913,2.913,0,0,1,2.959,2.852c.079,2.21.077,4.427,0,6.637a2.927,2.927,0,0,1-2.942,2.884c-2.12.058-4.243.053-6.364,0a3.025,3.025,0,0,1-3.044-3.006c-.071-2.12-.07-4.246,0-6.366a3.026,3.026,0,0,1,3.118-3.014c1.03-.033,2.061-.006,3.091-.006v.006M37.1,179.7H43.17v-6.115H37.1Z" transform="translate(-27.715 -139.363)" fill="#12263f"/>
        <path id="Trazado_232132" data-name="Trazado 232132" d="M125.385,170.445c1.03,0,2.061-.027,3.091.007a3.014,3.014,0,0,1,3.1,3.027q.1,3.135,0,6.275a3.066,3.066,0,0,1-3.243,3.094q-2.954.038-5.909,0a3.032,3.032,0,0,1-3.222-3.095q-.092-3.135,0-6.275a2.976,2.976,0,0,1,3.084-3.027c1.029-.034,2.06-.006,3.091-.006m3.05,3.173h-6.093V179.7h6.093Z" transform="translate(-97.436 -139.361)" fill="#12263f"/>
        <path id="Trazado_232133" data-name="Trazado 232133" d="M216.762,176.676c0,1.031.025,2.063-.007,3.093a3.012,3.012,0,0,1-2.917,3.022q-3.27.1-6.545,0a2.99,2.99,0,0,1-2.906-3.03q-.054-3.137,0-6.276a2.971,2.971,0,0,1,2.962-3.052q3.225-.08,6.454,0a2.985,2.985,0,0,1,2.957,3.06c.027,1.061,0,2.122,0,3.184m-9.246,2.976h6.079v-6.089h-6.079Z" transform="translate(-167.103 -139.327)" fill="#12263f"/>
        <path id="Trazado_232134" data-name="Trazado 232134" d="M119.292,91.244c0-1.061-.051-2.124.012-3.181a2.843,2.843,0,0,1,2.736-2.875,67.472,67.472,0,0,1,6.809-.008,2.9,2.9,0,0,1,2.817,3.011q.094,3.134,0,6.273a2.93,2.93,0,0,1-2.9,3.03c-2.206.1-4.424.1-6.629-.006a2.891,2.891,0,0,1-2.844-2.971c-.057-1.088-.011-2.182-.011-3.273h.009m9.243-2.95h-6.114V94.38h6.114Z" transform="translate(-97.521 -69.583)" fill="#12263f"/>
        <path id="Trazado_232135" data-name="Trazado 232135" d="M119.285,346.82c0-1.091-.054-2.185.013-3.272a2.814,2.814,0,0,1,2.682-2.824,66.961,66.961,0,0,1,6.9-.009,2.9,2.9,0,0,1,2.779,3.044q.083,3.089,0,6.183a2.959,2.959,0,0,1-2.945,3.085c-2.176.1-4.363.1-6.539,0a2.922,2.922,0,0,1-2.9-3.021c-.052-1.058-.009-2.121-.009-3.182h.017m9.23-3.008h-6.072v6.1h6.072Z" transform="translate(-97.51 -278.528)" fill="#12263f"/>
        <rect id="Rectángulo_58456" data-name="Rectángulo 58456" width="2.996" height="2.983" transform="translate(26.445 83.924)" fill="#12263f"/>
      </g>
    </g>
  </g>
</svg>
